<svg width="20" height="21" viewBox="0 0 20 21" fill="none" xmlns="http://www.w3.org/2000/svg">
<path fill-rule="evenodd" clip-rule="evenodd" d="M9.66413 1.52313C9.87552 1.41726 10.1244 1.41726 10.3358 1.52313C13.2902 3.00277 16.0408 4.82867 18.5343 6.94749C18.7415 7.12356 18.8372 7.39797 18.7844 7.6647C18.7316 7.93142 18.5385 8.14867 18.2799 8.23249C15.4656 9.14451 12.8246 10.442 10.4191 12.0631C10.1658 12.2338 9.8342 12.2338 9.58086 12.0631C8.90534 11.6079 8.21125 11.1782 7.49997 10.7753V9.59831C7.49997 9.35477 7.61572 9.13558 7.80165 9.00671C8.86302 8.27107 9.96638 7.59184 11.1074 6.97335C11.4715 6.77596 11.6067 6.32073 11.4093 5.95658C11.2119 5.59242 10.7567 5.45723 10.3926 5.65462C9.20323 6.29931 8.05326 7.00724 6.94716 7.77389C6.3428 8.19278 5.99997 8.88029 5.99997 9.59831V9.97857C4.62709 9.29628 3.19747 8.71126 1.7201 8.23249C1.46144 8.14867 1.26841 7.93142 1.2156 7.6647C1.16278 7.39797 1.25847 7.12356 1.46567 6.94749C3.95918 4.82867 6.70972 3.00277 9.66413 1.52313ZM5.99997 11.6641C5.20208 11.2423 4.38297 10.8555 3.54469 10.5056C3.37611 11.5313 3.24559 12.5697 3.15464 13.6194C3.12783 13.9289 3.29452 14.2228 3.57385 14.3587C4.10178 14.6154 4.61994 14.8891 5.12759 15.1792C4.91888 15.5031 4.67271 15.8099 4.38907 16.0936C4.09618 16.3864 4.09618 16.8613 4.38907 17.1542C4.68197 17.4471 5.15684 17.4471 5.44973 17.1542C5.81938 16.7846 6.13906 16.3837 6.40876 15.9602C7.49842 16.6675 8.53293 17.4528 9.50439 18.3082C9.78772 18.5576 10.2123 18.5576 10.4956 18.3082C12.2768 16.7399 14.2699 15.4073 16.4262 14.3587C16.7055 14.2228 16.8722 13.9289 16.8454 13.6194C16.7544 12.5697 16.6239 11.5312 16.4553 10.5056C14.6241 11.2698 12.8844 12.2106 11.2574 13.307C10.4974 13.8192 9.50263 13.8192 8.7426 13.307C8.33322 13.0311 7.91669 12.7651 7.49337 12.5093C7.44116 13.713 7.07958 14.9068 6.40877 15.9602C5.98972 15.6882 5.56252 15.4277 5.12761 15.1792C5.70924 14.2766 5.99997 13.2412 5.99997 12.2045V11.6641Z" fill="black"/>
</svg>
