<svg width="20" height="21" viewBox="0 0 20 21" fill="none" xmlns="http://www.w3.org/2000/svg">
<path d="M17 2.95447C17 2.54025 16.6642 2.20447 16.25 2.20447C15.8358 2.20447 15.5 2.54025 15.5 2.95447V8.45447C15.5 8.86868 15.8358 9.20447 16.25 9.20447C16.6642 9.20447 17 8.86868 17 8.45447V2.95447Z" fill="black"/>
<path d="M17 15.9545C17 15.5403 16.6642 15.2045 16.25 15.2045C15.8358 15.2045 15.5 15.5403 15.5 15.9545V17.4545C15.5 17.8687 15.8358 18.2045 16.25 18.2045C16.6642 18.2045 17 17.8687 17 17.4545V15.9545Z" fill="black"/>
<path d="M3.75 15.2045C4.16421 15.2045 4.5 15.5403 4.5 15.9545V17.4545C4.5 17.8687 4.16421 18.2045 3.75 18.2045C3.33579 18.2045 3 17.8687 3 17.4545V15.9545C3 15.5403 3.33579 15.2045 3.75 15.2045Z" fill="black"/>
<path d="M4.5 2.95447C4.5 2.54025 4.16421 2.20447 3.75 2.20447C3.33579 2.20447 3 2.54025 3 2.95447V8.45447C3 8.86868 3.33579 9.20447 3.75 9.20447C4.16421 9.20447 4.5 8.86868 4.5 8.45447V2.95447Z" fill="black"/>
<path d="M10 11.2045C10.4142 11.2045 10.75 11.5403 10.75 11.9545V17.4545C10.75 17.8687 10.4142 18.2045 10 18.2045C9.58579 18.2045 9.25 17.8687 9.25 17.4545V11.9545C9.25 11.5403 9.58579 11.2045 10 11.2045Z" fill="black"/>
<path d="M10.75 2.95447C10.75 2.54025 10.4142 2.20447 10 2.20447C9.58579 2.20447 9.25 2.54025 9.25 2.95447V4.45447C9.25 4.86868 9.58579 5.20447 10 5.20447C10.4142 5.20447 10.75 4.86868 10.75 4.45447V2.95447Z" fill="black"/>
<path d="M10 6.20447C8.89543 6.20447 8 7.0999 8 8.20447C8 9.30904 8.89543 10.2045 10 10.2045C11.1046 10.2045 12 9.30904 12 8.20447C12 7.0999 11.1046 6.20447 10 6.20447Z" fill="black"/>
<path d="M3.75 10.2045C2.64543 10.2045 1.75 11.0999 1.75 12.2045C1.75 13.309 2.64543 14.2045 3.75 14.2045C4.85457 14.2045 5.75 13.309 5.75 12.2045C5.75 11.0999 4.85457 10.2045 3.75 10.2045Z" fill="black"/>
<path d="M16.25 10.2045C15.1454 10.2045 14.25 11.0999 14.25 12.2045C14.25 13.309 15.1454 14.2045 16.25 14.2045C17.3546 14.2045 18.25 13.309 18.25 12.2045C18.25 11.0999 17.3546 10.2045 16.25 10.2045Z" fill="black"/>
</svg>
