<svg width="20" height="21" viewBox="0 0 20 21" fill="none" xmlns="http://www.w3.org/2000/svg">
<path d="M10 3.95447C10 2.8499 9.10457 1.95447 8 1.95447C6.89543 1.95447 6 2.8499 6 3.95447C6 5.05904 6.89543 5.95447 8 5.95447C9.10457 5.95447 10 5.05904 10 3.95447Z" fill="black"/>
<path d="M17.25 4.70447C17.6642 4.70447 18 4.36868 18 3.95447C18 3.54025 17.6642 3.20447 17.25 3.20447L11.75 3.20447C11.3358 3.20447 11 3.54025 11 3.95447C11 4.36868 11.3358 4.70447 11.75 4.70447L17.25 4.70447Z" fill="black"/>
<path d="M5 3.95447C5 4.36868 4.66421 4.70447 4.25 4.70447H2.75C2.33579 4.70447 2 4.36868 2 3.95447C2 3.54025 2.33579 3.20447 2.75 3.20447L4.25 3.20447C4.66421 3.20447 5 3.54025 5 3.95447Z" fill="black"/>
<path d="M4.25 17.2045C4.66421 17.2045 5 16.8687 5 16.4545C5 16.0403 4.66421 15.7045 4.25 15.7045H2.75C2.33579 15.7045 2 16.0403 2 16.4545C2 16.8687 2.33579 17.2045 2.75 17.2045H4.25Z" fill="black"/>
<path d="M17.25 17.2045C17.6642 17.2045 18 16.8687 18 16.4545C18 16.0403 17.6642 15.7045 17.25 15.7045H11.75C11.3358 15.7045 11 16.0403 11 16.4545C11 16.8687 11.3358 17.2045 11.75 17.2045H17.25Z" fill="black"/>
<path d="M9 10.2045C9 10.6187 8.66421 10.9545 8.25 10.9545H2.75C2.33579 10.9545 2 10.6187 2 10.2045C2 9.79025 2.33579 9.45447 2.75 9.45447L8.25 9.45447C8.66421 9.45447 9 9.79025 9 10.2045Z" fill="black"/>
<path d="M17.25 10.9545C17.6642 10.9545 18 10.6187 18 10.2045C18 9.79025 17.6642 9.45447 17.25 9.45447H15.75C15.3358 9.45447 15 9.79025 15 10.2045C15 10.6187 15.3358 10.9545 15.75 10.9545H17.25Z" fill="black"/>
<path d="M14 10.2045C14 9.0999 13.1046 8.20447 12 8.20447C10.8954 8.20447 10 9.0999 10 10.2045C10 11.309 10.8954 12.2045 12 12.2045C13.1046 12.2045 14 11.309 14 10.2045Z" fill="black"/>
<path d="M10 16.4545C10 15.3499 9.10457 14.4545 8 14.4545C6.89543 14.4545 6 15.3499 6 16.4545C6 17.559 6.89543 18.4545 8 18.4545C9.10457 18.4545 10 17.559 10 16.4545Z" fill="black"/>
</svg>
