<svg width="20" height="21" viewBox="0 0 20 21" fill="none" xmlns="http://www.w3.org/2000/svg">
<path d="M2 3.20447C1.44772 3.20447 1 3.65218 1 4.20447V5.20447C1 5.75675 1.44772 6.20447 2 6.20447H18C18.5523 6.20447 19 5.75675 19 5.20447V4.20447C19 3.65218 18.5523 3.20447 18 3.20447H2Z" fill="black"/>
<path fill-rule="evenodd" clip-rule="evenodd" d="M2 7.70447H18L17.1885 15.4138C17.0813 16.4317 16.223 17.2045 15.1995 17.2045H4.80052C3.77701 17.2045 2.91866 16.4317 2.81151 15.4138L2 7.70447ZM7.21967 9.42414C7.51256 9.13124 7.98744 9.13124 8.28033 9.42414L10 11.1438L11.7197 9.42414C12.0126 9.13124 12.4874 9.13124 12.7803 9.42414C13.0732 9.71703 13.0732 10.1919 12.7803 10.4848L11.0607 12.2045L12.7803 13.9241C13.0732 14.217 13.0732 14.6919 12.7803 14.9848C12.4874 15.2777 12.0126 15.2777 11.7197 14.9848L10 13.2651L8.28033 14.9848C7.98744 15.2777 7.51256 15.2777 7.21967 14.9848C6.92678 14.6919 6.92678 14.217 7.21967 13.9241L8.93934 12.2045L7.21967 10.4848C6.92678 10.1919 6.92678 9.71703 7.21967 9.42414Z" fill="black"/>
</svg>
