<svg width="20" height="21" viewBox="0 0 20 21" fill="none" xmlns="http://www.w3.org/2000/svg">
<path d="M2 3.20447C1.44772 3.20447 1 3.65218 1 4.20447V5.20447C1 5.75675 1.44772 6.20447 2 6.20447H18C18.5523 6.20447 19 5.75675 19 5.20447V4.20447C19 3.65218 18.5523 3.20447 18 3.20447H2Z" fill="black"/>
<path fill-rule="evenodd" clip-rule="evenodd" d="M2 7.70447H18L17.1885 15.4138C17.0813 16.4317 16.223 17.2045 15.1995 17.2045H4.80052C3.77701 17.2045 2.91866 16.4317 2.81151 15.4138L2 7.70447ZM7 11.2045C7 10.6522 7.44772 10.2045 8 10.2045H12C12.5523 10.2045 13 10.6522 13 11.2045C13 11.7568 12.5523 12.2045 12 12.2045H8C7.44772 12.2045 7 11.7568 7 11.2045Z" fill="black"/>
</svg>
