<svg width="20" height="21" viewBox="0 0 20 21" fill="none" xmlns="http://www.w3.org/2000/svg">
<path fill-rule="evenodd" clip-rule="evenodd" d="M2 3.20447C1.44772 3.20447 1 3.65218 1 4.20447V5.20447C1 5.75675 1.44772 6.20447 2 6.20447H18C18.5523 6.20447 19 5.75675 19 5.20447V4.20447C19 3.65218 18.5523 3.20447 18 3.20447H2ZM2 7.70447H18L17.1885 15.4138C17.0813 16.4317 16.223 17.2045 15.1995 17.2045H4.80052C3.77701 17.2045 2.91866 16.4317 2.81151 15.4138L2 7.70447ZM10 9.20447C10.4142 9.20447 10.75 9.54025 10.75 9.95447V12.5L11.6925 11.4527C11.9696 11.1449 12.4438 11.1199 12.7517 11.397C13.0596 11.6741 13.0846 12.1483 12.8075 12.4562L10.5575 14.9562C10.4152 15.1142 10.2126 15.2045 10 15.2045C9.78738 15.2045 9.58476 15.1142 9.44253 14.9562L7.19253 12.4562C6.91543 12.1483 6.94039 11.6741 7.24828 11.397C7.55616 11.1199 8.03038 11.1449 8.30747 11.4527L9.25 12.5V9.95447C9.25 9.54025 9.58579 9.20447 10 9.20447Z" fill="black"/>
</svg>
