<svg width="20" height="21" viewBox="0 0 20 21" fill="none" xmlns="http://www.w3.org/2000/svg">
<path fill-rule="evenodd" clip-rule="evenodd" d="M10 15.2045C9.58579 15.2045 9.25 14.8687 9.25 14.4545L9.25 7.81655L7.29063 9.9743C7.00353 10.2729 6.52875 10.2822 6.23017 9.99509C5.93159 9.708 5.92228 9.23322 6.20938 8.93464L9.45938 5.43464C9.60078 5.28758 9.79599 5.20447 10 5.20447C10.204 5.20447 10.3992 5.28758 10.5406 5.43464L13.7906 8.93464C14.0777 9.23322 14.0684 9.708 13.7698 9.99509C13.4713 10.2822 12.9965 10.2729 12.7094 9.9743L10.75 7.81655V14.4545C10.75 14.8687 10.4142 15.2045 10 15.2045Z" fill="black"/>
</svg>
