<svg width="20" height="21" viewBox="0 0 20 21" fill="none" xmlns="http://www.w3.org/2000/svg">
<path fill-rule="evenodd" clip-rule="evenodd" d="M10 18.2045C9.58579 18.2045 9.25 17.8687 9.25 17.4545L9.25 4.86437L7.2996 6.96481C7.01775 7.26834 6.5432 7.28592 6.23966 7.00406C5.93613 6.72221 5.91856 6.24766 6.20041 5.94413L9.45041 2.44413C9.59232 2.2913 9.79145 2.20447 10 2.20447C10.2086 2.20447 10.4077 2.2913 10.5496 2.44413L13.7996 5.94413C14.0815 6.24766 14.0639 6.72221 13.7603 7.00406C13.4568 7.28591 12.9823 7.26834 12.7004 6.96481L10.75 4.86437L10.75 17.4545C10.75 17.8687 10.4142 18.2045 10 18.2045Z" fill="black"/>
</svg>
