<svg width="20" height="21" viewBox="0 0 20 21" fill="none" xmlns="http://www.w3.org/2000/svg">
<path fill-rule="evenodd" clip-rule="evenodd" d="M15.3124 11.628C14.5262 14.5621 11.5104 16.3033 8.5763 15.5171C7.60728 15.2575 6.77024 14.7558 6.11052 14.0949L5.79898 13.7834L8.23221 13.7829C8.64642 13.7828 8.98215 13.447 8.98208 13.0328C8.982 12.6186 8.64616 12.2828 8.23194 12.2829L3.98851 12.2837C3.78959 12.2837 3.59884 12.3628 3.45821 12.5035C3.31758 12.6441 3.2386 12.8349 3.23864 13.0338L3.23954 17.2757C3.23962 17.6899 3.57548 18.0256 3.98969 18.0255C4.40391 18.0254 4.73962 17.6896 4.73954 17.2754L4.73903 14.8447L5.04888 15.1546C5.88991 15.9971 6.95759 16.6363 8.18808 16.966C11.9223 17.9666 15.7607 15.7505 16.7613 12.0163C16.8685 11.6162 16.6311 11.2049 16.231 11.0977C15.8309 10.9905 15.4196 11.2279 15.3124 11.628ZM16.5413 7.90566C16.682 7.76498 16.761 7.57418 16.7609 7.37525L16.7603 3.1333C16.7602 2.71909 16.4243 2.38336 16.0101 2.38342C15.5959 2.38349 15.2602 2.71933 15.2603 3.13355L15.2606 5.56441L14.9508 5.2546C14.1098 4.41218 13.0419 3.77273 11.8115 3.44306C8.07728 2.44246 4.23892 4.65854 3.23833 8.3928C3.13112 8.7929 3.36856 9.20416 3.76866 9.31136C4.16876 9.41857 4.58001 9.18113 4.68722 8.78103C5.4734 5.84697 8.48925 4.10577 11.4233 4.89195C12.3924 5.1516 13.2294 5.65328 13.8892 6.31426L14.2003 6.62537L11.7683 6.62537C11.3541 6.62537 11.0183 6.96116 11.0183 7.37537C11.0183 7.78958 11.3541 8.12537 11.7683 8.12537H16.0109C16.2099 8.12537 16.4007 8.04634 16.5413 7.90566Z" fill="black"/>
</svg>
