<svg width="20" height="21" viewBox="0 0 20 21" fill="none" xmlns="http://www.w3.org/2000/svg">
<path fill-rule="evenodd" clip-rule="evenodd" d="M3 4.45447C3 3.21183 4.00736 2.20447 5.25 2.20447H10.75C11.9926 2.20447 13 3.21183 13 4.45447V6.45447C13 6.86868 12.6642 7.20447 12.25 7.20447C11.8358 7.20447 11.5 6.86868 11.5 6.45447V4.45447C11.5 4.04025 11.1642 3.70447 10.75 3.70447H5.25C4.83579 3.70447 4.5 4.04025 4.5 4.45447V15.9545C4.5 16.3687 4.83579 16.7045 5.25 16.7045H10.75C11.1642 16.7045 11.5 16.3687 11.5 15.9545V13.9545C11.5 13.5403 11.8358 13.2045 12.25 13.2045C12.6642 13.2045 13 13.5403 13 13.9545V15.9545C13 17.1971 11.9926 18.2045 10.75 18.2045H5.25C4.00736 18.2045 3 17.1971 3 15.9545V4.45447Z" fill="black"/>
<path fill-rule="evenodd" clip-rule="evenodd" d="M6 10.2045C6 9.79025 6.33579 9.45447 6.75 9.45447H16.2955L15.2483 8.51194C14.9404 8.23484 14.9154 7.76063 15.1925 7.45274C15.4696 7.14486 15.9438 7.1199 16.2517 7.397L18.7517 9.647C18.9098 9.78923 19 9.99185 19 10.2045C19 10.4171 18.9098 10.6197 18.7517 10.7619L16.2517 13.0119C15.9438 13.289 15.4696 13.2641 15.1925 12.9562C14.9154 12.6483 14.9404 12.1741 15.2483 11.897L16.2955 10.9545H6.75C6.33579 10.9545 6 10.6187 6 10.2045Z" fill="black"/>
</svg>
