<svg width="20" height="21" viewBox="0 0 20 21" fill="none" xmlns="http://www.w3.org/2000/svg">
<path d="M13.75 7.20447H10.75V12.5L12.6925 10.4527C12.9696 10.1449 13.4438 10.1199 13.7517 10.397C14.0596 10.6741 14.0846 11.1483 13.8075 11.4562L10.5575 14.9562C10.4152 15.1142 10.2126 15.2045 10 15.2045C9.78739 15.2045 9.58477 15.1142 9.44254 14.9562L6.19254 11.4562C5.91544 11.1483 5.9404 10.6741 6.24828 10.397C6.55617 10.1199 7.03038 10.1449 7.30748 10.4527L9.25001 12.5V7.20447H10.75L10.75 1.95447C10.75 1.54025 10.4142 1.20447 10 1.20447C9.58579 1.20447 9.25 1.54025 9.25 1.95447L9.25001 7.20447H6.25C5.00736 7.20447 4 8.21183 4 9.45447V16.9545C4 18.1971 5.00736 19.2045 6.25 19.2045H13.75C14.9926 19.2045 16 18.1971 16 16.9545V9.45447C16 8.21183 14.9926 7.20447 13.75 7.20447Z" fill="black"/>
</svg>
