<svg width="20" height="21" viewBox="0 0 20 21" fill="none" xmlns="http://www.w3.org/2000/svg">
<path fill-rule="evenodd" clip-rule="evenodd" d="M17 10.2045C17 10.6187 16.6642 10.9545 16.25 10.9545L5.61208 10.9545L9.76983 14.9138C10.0684 15.2009 10.0777 15.6757 9.79062 15.9743C9.50353 16.2729 9.02875 16.2822 8.73017 15.9951L3.23017 10.7451C3.08311 10.6037 3 10.4085 3 10.2045C3 10.0005 3.08311 9.80525 3.23017 9.66384L8.73017 4.41384C9.02875 4.12675 9.50353 4.13606 9.79062 4.43464C10.0777 4.73322 10.0684 5.208 9.76983 5.49509L5.61208 9.45447L16.25 9.45447C16.6642 9.45447 17 9.79026 17 10.2045Z" fill="black"/>
</svg>
