<svg width="20" height="21" viewBox="0 0 20 21" fill="none" xmlns="http://www.w3.org/2000/svg">
<path fill-rule="evenodd" clip-rule="evenodd" d="M10 17.2045C9.58579 17.2045 9.25 16.8687 9.25 16.4545L9.25 5.81655L5.29062 9.9743C5.00353 10.2729 4.52875 10.2822 4.23017 9.99509C3.93159 9.708 3.92228 9.23322 4.20937 8.93464L9.45937 3.43464C9.60078 3.28758 9.79598 3.20447 10 3.20447C10.204 3.20447 10.3992 3.28758 10.5406 3.43464L15.7906 8.93464C16.0777 9.23322 16.0684 9.708 15.7698 9.99509C15.4713 10.2822 14.9965 10.2729 14.7094 9.9743L10.75 5.81655L10.75 16.4545C10.75 16.8687 10.4142 17.2045 10 17.2045Z" fill="black"/>
</svg>
