<svg width="20" height="21" viewBox="0 0 20 21" fill="none" xmlns="http://www.w3.org/2000/svg">
<path d="M9.25 13.4546C9.25 13.8688 9.58578 14.2046 10 14.2046C10.4142 14.2046 10.75 13.8688 10.75 13.4546L10.75 4.84101L13.7047 7.96956C13.9891 8.2707 14.4638 8.28426 14.765 7.99985C15.0661 7.71544 15.0797 7.24076 14.7953 6.93962L10.5453 2.43962C10.4036 2.2896 10.2063 2.20459 10 2.20459C9.79365 2.20459 9.59642 2.2896 9.45474 2.43962L5.20474 6.93962C4.92033 7.24076 4.93389 7.71544 5.23503 7.99985C5.53617 8.28426 6.01085 8.2707 6.29526 7.96956L9.25 4.84101L9.25 13.4546Z" fill="black"/>
<path d="M3.5 12.9546C3.5 12.5404 3.16421 12.2046 2.75 12.2046C2.33579 12.2046 2 12.5404 2 12.9546V15.4546C2 16.9734 3.23122 18.2046 4.75 18.2046H15.25C16.7688 18.2046 18 16.9734 18 15.4546V12.9546C18 12.5404 17.6642 12.2046 17.25 12.2046C16.8358 12.2046 16.5 12.5404 16.5 12.9546V15.4546C16.5 16.1449 15.9404 16.7046 15.25 16.7046H4.75C4.05964 16.7046 3.5 16.1449 3.5 15.4546V12.9546Z" fill="black"/>
</svg>
