<svg width="20" height="21" viewBox="0 0 20 21" fill="none" xmlns="http://www.w3.org/2000/svg">
<path fill-rule="evenodd" clip-rule="evenodd" d="M1.21967 5.42658C1.51256 5.13369 1.98744 5.13369 2.28033 5.42658L7 10.1462L10.7685 6.37776C10.9187 6.22752 11.1256 6.14806 11.3378 6.1591C11.55 6.17015 11.7475 6.27066 11.8813 6.43568C13.5732 8.52185 14.888 10.9657 15.6939 13.6894L17.2685 10.9621C17.4756 10.6034 17.9343 10.4805 18.293 10.6876C18.6517 10.8947 18.7747 11.3534 18.5675 11.7121L16.0927 15.9987C15.8856 16.3574 15.4269 16.4803 15.0682 16.2732L10.7815 13.7984C10.4228 13.5912 10.2999 13.1326 10.507 12.7738C10.7141 12.4151 11.1728 12.2922 11.5315 12.4993L14.2401 14.0631C13.5741 11.8346 12.5419 9.81093 11.2278 8.03976L7.53033 11.7372C7.38968 11.8779 7.19891 11.9569 7 11.9569C6.80109 11.9569 6.61032 11.8779 6.46967 11.7372L1.21967 6.48724C0.926777 6.19435 0.926777 5.71947 1.21967 5.42658Z" fill="black"/>
</svg>
