<svg width="20" height="21" viewBox="0 0 20 21" fill="none" xmlns="http://www.w3.org/2000/svg">
<path fill-rule="evenodd" clip-rule="evenodd" d="M12.2075 2.43673C11.9215 2.73636 11.9325 3.2111 12.2321 3.49711L16.3781 7.45459H6.375C3.40647 7.45459 1 9.86106 1 12.8296C1 15.7981 3.40647 18.2046 6.375 18.2046H9.25C9.66421 18.2046 10 17.8688 10 17.4546C10 17.0404 9.66421 16.7046 9.25 16.7046H6.375C4.2349 16.7046 2.5 14.9697 2.5 12.8296C2.5 10.6895 4.2349 8.95459 6.375 8.95459H16.3781L12.2321 12.9121C11.9325 13.1981 11.9215 13.6728 12.2075 13.9724C12.4935 14.2721 12.9682 14.2831 13.2679 13.9971L18.7679 8.74711C18.9161 8.60559 19 8.40955 19 8.20459C19 7.99963 18.9161 7.8036 18.7679 7.66207L13.2679 2.41207C12.9682 2.12607 12.4935 2.13711 12.2075 2.43673Z" fill="black"/>
</svg>
