<svg width="20" height="21" viewBox="0 0 20 21" fill="none" xmlns="http://www.w3.org/2000/svg">
<path fill-rule="evenodd" clip-rule="evenodd" d="M7.79252 2.43673C8.07852 2.73636 8.06748 3.2111 7.76786 3.49711L3.62192 7.45459H13.625C16.5935 7.45459 19 9.86106 19 12.8296C19 15.7981 16.5935 18.2046 13.625 18.2046H10.75C10.3358 18.2046 10 17.8688 10 17.4546C10 17.0404 10.3358 16.7046 10.75 16.7046H13.625C15.7651 16.7046 17.5 14.9697 17.5 12.8296C17.5 10.6895 15.7651 8.95459 13.625 8.95459H3.62192L7.76786 12.9121C8.06748 13.1981 8.07852 13.6728 7.79252 13.9724C7.50651 14.2721 7.03177 14.2831 6.73214 13.9971L1.23214 8.74711C1.08388 8.60559 1 8.40955 1 8.20459C1 7.99963 1.08388 7.8036 1.23214 7.66207L6.73214 2.41207C7.03177 2.12607 7.50651 2.13711 7.79252 2.43673Z" fill="black"/>
</svg>
