<svg width="20" height="21" viewBox="0 0 20 21" fill="none" xmlns="http://www.w3.org/2000/svg">
<path fill-rule="evenodd" clip-rule="evenodd" d="M10.75 6.20447L8.75 6.20447V10.4545C8.75 10.8687 8.41421 11.2045 8 11.2045C7.58579 11.2045 7.25 10.8687 7.25 10.4545V6.20447L8.74999 6.20447V3.90894L9.69252 4.95619C9.96962 5.26407 10.4438 5.28903 10.7517 5.01194C11.0596 4.73484 11.0846 4.26063 10.8075 3.95274L8.55747 1.45274C8.41523 1.29471 8.21261 1.20447 7.99999 1.20447C7.78738 1.20447 7.58476 1.29471 7.44252 1.45274L5.19252 3.95274C4.91543 4.26063 4.94039 4.73484 5.24827 5.01194C5.55615 5.28903 6.03037 5.26407 6.30746 4.95619L7.24999 3.90894V6.20447H5.25C4.00736 6.20447 3 7.21183 3 8.45447V12.9545C3 14.1971 4.00736 15.2045 5.25 15.2045H10.75C11.9926 15.2045 13 14.1971 13 12.9545V8.45447C13 7.21183 11.9926 6.20447 10.75 6.20447ZM7 16.9545V16.7045H10.75C12.8211 16.7045 14.5 15.0255 14.5 12.9545V10.2045H14.75C15.9926 10.2045 17 11.2118 17 12.4545V16.9545C17 18.1971 15.9926 19.2045 14.75 19.2045H9.25C8.00736 19.2045 7 18.1971 7 16.9545Z" fill="black"/>
</svg>
