<svg width="20" height="21" viewBox="0 0 20 21" fill="none" xmlns="http://www.w3.org/2000/svg">
<path fill-rule="evenodd" clip-rule="evenodd" d="M3 4.45447C3 3.21183 4.00736 2.20447 5.25 2.20447H10.75C11.9926 2.20447 13 3.21183 13 4.45447V6.45447C13 6.86868 12.6642 7.20447 12.25 7.20447C11.8358 7.20447 11.5 6.86868 11.5 6.45447V4.45447C11.5 4.04025 11.1642 3.70447 10.75 3.70447H5.25C4.83579 3.70447 4.5 4.04025 4.5 4.45447V15.9545C4.5 16.3687 4.83579 16.7045 5.25 16.7045H10.75C11.1642 16.7045 11.5 16.3687 11.5 15.9545V13.9545C11.5 13.5403 11.8358 13.2045 12.25 13.2045C12.6642 13.2045 13 13.5403 13 13.9545V15.9545C13 17.1971 11.9926 18.2045 10.75 18.2045H5.25C4.00736 18.2045 3 17.1971 3 15.9545V4.45447Z" fill="black"/>
<path fill-rule="evenodd" clip-rule="evenodd" d="M19 10.2045C19 9.79025 18.6642 9.45447 18.25 9.45447H8.70447L9.75172 8.51194C10.0596 8.23484 10.0846 7.76063 9.80747 7.45274C9.53038 7.14486 9.05616 7.1199 8.74828 7.397L6.24828 9.647C6.09024 9.78923 6 9.99185 6 10.2045C6 10.4171 6.09024 10.6197 6.24828 10.7619L8.74828 13.0119C9.05616 13.289 9.53038 13.2641 9.80747 12.9562C10.0846 12.6483 10.0596 12.1741 9.75172 11.897L8.70447 10.9545H18.25C18.6642 10.9545 19 10.6187 19 10.2045Z" fill="black"/>
</svg>
