<svg width="20" height="21" viewBox="0 0 20 21" fill="none" xmlns="http://www.w3.org/2000/svg">
<path fill-rule="evenodd" clip-rule="evenodd" d="M13.75 7.20447H10.75L10.75 3.86437L12.7004 5.96481C12.9823 6.26834 13.4568 6.28591 13.7603 6.00406C14.0639 5.72221 14.0814 5.24766 13.7996 4.94413L10.5496 1.44413C10.4077 1.2913 10.2085 1.20447 10 1.20447C9.79145 1.20447 9.59231 1.2913 9.4504 1.44413L6.2004 4.94413C5.91855 5.24766 5.93613 5.72221 6.23966 6.00406C6.54319 6.28591 7.01774 6.26834 7.29959 5.96481L9.25 3.86437L9.25 7.20447H6.25C5.00736 7.20447 4 8.21183 4 9.45447V16.9545C4 18.1971 5.00736 19.2045 6.25 19.2045H13.75C14.9926 19.2045 16 18.1971 16 16.9545V9.45447C16 8.21183 14.9926 7.20447 13.75 7.20447ZM10.75 7.20447H9.25L9.25 12.4545C9.25 12.8687 9.58579 13.2045 10 13.2045C10.4142 13.2045 10.75 12.8687 10.75 12.4545L10.75 7.20447Z" fill="black"/>
</svg>
