<svg width="20" height="21" viewBox="0 0 20 21" fill="none" xmlns="http://www.w3.org/2000/svg">
<path fill-rule="evenodd" clip-rule="evenodd" d="M2 10.2045C2 9.79026 2.33579 9.45447 2.75 9.45447L15.3401 9.45447L13.2397 7.50407C12.9361 7.22221 12.9186 6.74767 13.2004 6.44413C13.4823 6.1406 13.9568 6.12302 14.2603 6.40488L17.7603 9.65488C17.9132 9.79679 18 9.99592 18 10.2045C18 10.413 17.9132 10.6122 17.7603 10.7541L14.2603 14.0041C13.9568 14.2859 13.4823 14.2683 13.2004 13.9648C12.9186 13.6613 12.9361 13.1867 13.2397 12.9049L15.3401 10.9545L2.75 10.9545C2.33579 10.9545 2 10.6187 2 10.2045Z" fill="black"/>
</svg>
