<svg width="20" height="21" viewBox="0 0 20 21" fill="none" xmlns="http://www.w3.org/2000/svg">
<path fill-rule="evenodd" clip-rule="evenodd" d="M10 3.20447C10.4142 3.20447 10.75 3.54025 10.75 3.95447L10.75 14.5924L14.7094 10.4346C14.9965 10.1361 15.4713 10.1267 15.7698 10.4138C16.0684 10.7009 16.0777 11.1757 15.7906 11.4743L10.5406 16.9743C10.3992 17.1214 10.204 17.2045 10 17.2045C9.79599 17.2045 9.60078 17.1214 9.45938 16.9743L4.20938 11.4743C3.92228 11.1757 3.93159 10.7009 4.23017 10.4138C4.52875 10.1267 5.00353 10.1361 5.29063 10.4346L9.25 14.5924L9.25 3.95447C9.25 3.54025 9.58579 3.20447 10 3.20447Z" fill="black"/>
</svg>
