<svg width="20" height="21" viewBox="0 0 20 21" fill="none" xmlns="http://www.w3.org/2000/svg">
<path fill-rule="evenodd" clip-rule="evenodd" d="M13.2004 2.44425C12.9186 2.74779 12.9361 3.22234 13.2397 3.50419L15.3401 5.45459L6.75 5.45459C6.33579 5.45459 6 5.79038 6 6.20459C6 6.61881 6.33579 6.95459 6.75 6.95459L15.3401 6.95459L13.2397 8.905C12.9361 9.18685 12.9186 9.6614 13.2004 9.96493C13.4823 10.2685 13.9568 10.286 14.2603 10.0042L17.7603 6.75419C17.9132 6.61228 18 6.41314 18 6.20459C18 5.99604 17.9132 5.79691 17.7603 5.655L14.2603 2.405C13.9568 2.12315 13.4823 2.14072 13.2004 2.44425ZM6.79959 10.4443C6.51774 10.1407 6.04319 10.1231 5.73966 10.405L2.23966 13.655C2.08684 13.7969 2 13.996 2 14.2046C2 14.4131 2.08684 14.6123 2.23966 14.7542L5.73966 18.0042C6.04319 18.286 6.51774 18.2685 6.79959 17.9649C7.08145 17.6614 7.06387 17.1868 6.76034 16.905L4.6599 14.9546H13.25C13.6642 14.9546 14 14.6188 14 14.2046C14 13.7904 13.6642 13.4546 13.25 13.4546H4.6599L6.76034 11.5042C7.06387 11.2223 7.08145 10.7478 6.79959 10.4443Z" fill="black"/>
</svg>
