<svg width="20" height="21" viewBox="0 0 20 21" fill="none" xmlns="http://www.w3.org/2000/svg">
<path d="M6.28033 5.42414C5.98744 5.13124 5.51256 5.13124 5.21967 5.42414C4.92678 5.71703 4.92678 6.1919 5.21967 6.4848L12.4393 13.7045H6.75C6.33579 13.7045 6 14.0403 6 14.4545C6 14.8687 6.33579 15.2045 6.75 15.2045H14.25C14.3517 15.2045 14.4487 15.1842 14.5371 15.1476C14.6235 15.1118 14.7047 15.0592 14.7754 14.9897C14.7787 14.9864 14.782 14.9832 14.7852 14.9799C14.8547 14.9091 14.9073 14.828 14.9431 14.7416C14.9798 14.6531 15 14.5562 15 14.4545V6.95447C15 6.54025 14.6642 6.20447 14.25 6.20447C13.8358 6.20447 13.5 6.54025 13.5 6.95447V12.6438L6.28033 5.42414Z" fill="black"/>
</svg>
