<svg width="20" height="21" viewBox="0 0 20 21" fill="none" xmlns="http://www.w3.org/2000/svg">
<path fill-rule="evenodd" clip-rule="evenodd" d="M3 10.2045C3 9.79025 3.33579 9.45447 3.75 9.45447L14.3879 9.45447L10.2302 5.49509C9.93159 5.208 9.92228 4.73321 10.2094 4.43463C10.4965 4.13606 10.9713 4.12675 11.2698 4.41384L16.7698 9.66384C16.9169 9.80524 17 10.0005 17 10.2045C17 10.4085 16.9169 10.6037 16.7698 10.7451L11.2698 15.9951C10.9713 16.2822 10.4965 16.2729 10.2094 15.9743C9.92228 15.6757 9.93159 15.2009 10.2302 14.9138L14.3879 10.9545L3.75 10.9545C3.33579 10.9545 3 10.6187 3 10.2045Z" fill="black"/>
</svg>
