<svg width="20" height="21" viewBox="0 0 20 21" fill="none" xmlns="http://www.w3.org/2000/svg">
<path fill-rule="evenodd" clip-rule="evenodd" d="M8.00001 1.20447C8.41422 1.20447 8.75001 1.54025 8.75001 1.95447V6.20447H7.25001V1.95447C7.25001 1.54025 7.58579 1.20447 8.00001 1.20447ZM7.25001 6.20447V9.5L6.30748 8.45274C6.03038 8.14486 5.55617 8.1199 5.24828 8.397C4.9404 8.67409 4.91544 9.14831 5.19254 9.45619L7.44254 11.9562C7.58477 12.1142 7.78739 12.2045 8.00001 12.2045C8.21262 12.2045 8.41525 12.1142 8.55748 11.9562L10.8075 9.45619C11.0846 9.14831 11.0596 8.67409 10.7517 8.397C10.4438 8.1199 9.96963 8.14486 9.69254 8.45274L8.75001 9.5V6.20447H10.75C11.9926 6.20447 13 7.21183 13 8.45447V12.9545C13 14.1971 11.9926 15.2045 10.75 15.2045H5.25C4.00736 15.2045 3 14.1971 3 12.9545V8.45447C3 7.21183 4.00736 6.20447 5.25 6.20447H7.25001ZM7 16.9545V16.7045H10.75C12.8211 16.7045 14.5 15.0255 14.5 12.9545V10.2045H14.75C15.9926 10.2045 17 11.2118 17 12.4545V16.9545C17 18.1971 15.9926 19.2045 14.75 19.2045H9.25C8.00736 19.2045 7 18.1971 7 16.9545Z" fill="black"/>
</svg>
