<svg width="20" height="21" viewBox="0 0 20 21" fill="none" xmlns="http://www.w3.org/2000/svg">
<path fill-rule="evenodd" clip-rule="evenodd" d="M10 18.2045C14.4183 18.2045 18 14.6227 18 10.2045C18 5.78619 14.4183 2.20447 10 2.20447C5.58172 2.20447 2 5.78619 2 10.2045C2 14.6227 5.58172 18.2045 10 18.2045ZM9.25 13.4545C9.25 13.8687 9.58579 14.2045 10 14.2045C10.4142 14.2045 10.75 13.8687 10.75 13.4545V8.86437L12.7004 10.9648C12.9823 11.2683 13.4568 11.2859 13.7603 11.0041C14.0639 10.7222 14.0814 10.2477 13.7996 9.94413L10.5496 6.44413C10.4077 6.2913 10.2086 6.20447 10 6.20447C9.79145 6.20447 9.59231 6.2913 9.45041 6.44413L6.20041 9.94413C5.91855 10.2477 5.93613 10.7222 6.23966 11.0041C6.54319 11.2859 7.01774 11.2683 7.2996 10.9648L9.25 8.86437V13.4545Z" fill="black"/>
</svg>
