<svg width="20" height="21" viewBox="0 0 20 21" fill="none" xmlns="http://www.w3.org/2000/svg">
<path fill-rule="evenodd" clip-rule="evenodd" d="M12.577 5.08281C12.6842 4.68271 13.0955 4.44527 13.4956 4.55248L18.2766 5.83356C18.4688 5.88505 18.6326 6.01075 18.732 6.18301C18.8315 6.35527 18.8585 6.55999 18.807 6.75212L17.5259 11.5332C17.4187 11.9333 17.0074 12.1707 16.6073 12.0635C16.2072 11.9563 15.9698 11.5451 16.077 11.145L16.8865 8.12396C14.6303 9.51412 12.7541 11.2945 11.2935 13.3267C11.1651 13.5054 10.9646 13.6187 10.7452 13.6365C10.5259 13.6543 10.3098 13.5749 10.1542 13.4193L7 10.2651L2.28033 14.9848C1.98744 15.2777 1.51256 15.2777 1.21967 14.9848C0.926777 14.6919 0.926777 14.217 1.21967 13.9241L6.46967 8.67415C6.76256 8.38126 7.23744 8.38126 7.53033 8.67415L10.6039 11.7477C12.1049 9.83498 13.9633 8.15507 16.1492 6.81644L13.1073 6.00136C12.7072 5.89416 12.4698 5.4829 12.577 5.08281Z" fill="black"/>
</svg>
