<svg width="20" height="21" viewBox="0 0 20 21" fill="none" xmlns="http://www.w3.org/2000/svg">
<path fill-rule="evenodd" clip-rule="evenodd" d="M18 10.2045C18 10.6187 17.6642 10.9545 17.25 10.9545L4.6599 10.9545L6.76034 12.9049C7.06387 13.1867 7.08145 13.6613 6.79959 13.9648C6.51774 14.2683 6.04319 14.2859 5.73966 14.0041L2.23966 10.7541C2.08684 10.6122 2 10.413 2 10.2045C2 9.99592 2.08684 9.79678 2.23966 9.65488L5.73966 6.40488C6.04319 6.12302 6.51774 6.1406 6.79959 6.44413C7.08145 6.74767 7.06387 7.22221 6.76034 7.50407L4.6599 9.45447L17.25 9.45447C17.6642 9.45447 18 9.79026 18 10.2045Z" fill="black"/>
</svg>
