<svg width="20" height="21" viewBox="0 0 20 21" fill="none" xmlns="http://www.w3.org/2000/svg">
<path fill-rule="evenodd" clip-rule="evenodd" d="M5 10.2045C5 9.79025 5.33579 9.45447 5.75 9.45447H12.3879L10.2302 7.49509C9.93159 7.208 9.92228 6.73322 10.2094 6.43464C10.4965 6.13606 10.9713 6.12675 11.2698 6.41384L14.7698 9.66384C14.9169 9.80525 15 10.0005 15 10.2045C15 10.4085 14.9169 10.6037 14.7698 10.7451L11.2698 13.9951C10.9713 14.2822 10.4965 14.2729 10.2094 13.9743C9.92228 13.6757 9.93159 13.2009 10.2302 12.9138L12.3879 10.9545H5.75C5.33579 10.9545 5 10.6187 5 10.2045Z" fill="black"/>
</svg>
