<svg width="20" height="21" viewBox="0 0 20 21" fill="none" xmlns="http://www.w3.org/2000/svg">
<path d="M10.75 2.95447C10.75 2.54025 10.4142 2.20447 10 2.20447C9.58579 2.20447 9.25 2.54025 9.25 2.95447V11.568L6.29526 8.4395C6.01085 8.13836 5.53617 8.1248 5.23503 8.40921C4.9339 8.69362 4.92033 9.1683 5.20474 9.46944L9.45474 13.9694C9.59642 14.1195 9.79366 14.2045 10 14.2045C10.2063 14.2045 10.4036 14.1195 10.5453 13.9694L14.7953 9.46944C15.0797 9.1683 15.0661 8.69362 14.765 8.40921C14.4638 8.1248 13.9892 8.13836 13.7047 8.4395L10.75 11.568V2.95447Z" fill="black"/>
<path d="M3.5 12.9545C3.5 12.5403 3.16421 12.2045 2.75 12.2045C2.33579 12.2045 2 12.5403 2 12.9545V15.4545C2 16.9733 3.23122 18.2045 4.75 18.2045H15.25C16.7688 18.2045 18 16.9733 18 15.4545V12.9545C18 12.5403 17.6642 12.2045 17.25 12.2045C16.8358 12.2045 16.5 12.5403 16.5 12.9545V15.4545C16.5 16.1448 15.9404 16.7045 15.25 16.7045H4.75C4.05964 16.7045 3.5 16.1448 3.5 15.4545V12.9545Z" fill="black"/>
</svg>
