<svg width="20" height="21" viewBox="0 0 20 21" fill="none" xmlns="http://www.w3.org/2000/svg">
<path fill-rule="evenodd" clip-rule="evenodd" d="M10 18.2045C14.4183 18.2045 18 14.6227 18 10.2045C18 5.78619 14.4183 2.20447 10 2.20447C5.58172 2.20447 2 5.78619 2 10.2045C2 14.6227 5.58172 18.2045 10 18.2045ZM10.75 6.95447C10.75 6.54025 10.4142 6.20447 10 6.20447C9.58579 6.20447 9.25 6.54025 9.25 6.95447V11.5446L7.29959 9.44413C7.01774 9.1406 6.54319 9.12302 6.23966 9.40487C5.93613 9.68672 5.91855 10.1613 6.20041 10.4648L9.45041 13.9648C9.59231 14.1176 9.79145 14.2045 10 14.2045C10.2086 14.2045 10.4077 14.1176 10.5496 13.9648L13.7996 10.4648C14.0814 10.1613 14.0639 9.68672 13.7603 9.40487C13.4568 9.12302 12.9823 9.1406 12.7004 9.44413L10.75 11.5446V6.95447Z" fill="black"/>
</svg>
