<svg width="20" height="21" viewBox="0 0 20 21" fill="none" xmlns="http://www.w3.org/2000/svg">
<path fill-rule="evenodd" clip-rule="evenodd" d="M10 2.20447C10.4142 2.20447 10.75 2.54025 10.75 2.95447V15.5446L12.7004 13.4441C12.9823 13.1406 13.4568 13.123 13.7603 13.4049C14.0639 13.6867 14.0815 14.1613 13.7996 14.4648L10.5496 17.9648C10.4077 18.1176 10.2086 18.2045 10 18.2045C9.79145 18.2045 9.59232 18.1176 9.45041 17.9648L6.20041 14.4648C5.91856 14.1613 5.93613 13.6867 6.23966 13.4049C6.5432 13.123 7.01775 13.1406 7.2996 13.4441L9.25 15.5446V2.95447C9.25 2.54025 9.58579 2.20447 10 2.20447Z" fill="black"/>
</svg>
