<svg width="20" height="21" viewBox="0 0 20 21" fill="none" xmlns="http://www.w3.org/2000/svg">
<path fill-rule="evenodd" clip-rule="evenodd" d="M10 18.2045C14.4183 18.2045 18 14.6227 18 10.2045C18 5.78619 14.4183 2.20447 10 2.20447C5.58172 2.20447 2 5.78619 2 10.2045C2 14.6227 5.58172 18.2045 10 18.2045ZM6.75 9.45447C6.33579 9.45447 6 9.79025 6 10.2045C6 10.6187 6.33579 10.9545 6.75 10.9545H11.3401L9.23966 12.9049C8.93613 13.1867 8.91855 13.6613 9.20041 13.9648C9.48226 14.2683 9.95681 14.2859 10.2603 14.0041L13.7603 10.7541C13.9132 10.6122 14 10.413 14 10.2045C14 9.99592 13.9132 9.79678 13.7603 9.65487L10.2603 6.40487C9.95681 6.12302 9.48226 6.1406 9.2004 6.44413C8.91855 6.74766 8.93613 7.22221 9.23966 7.50406L11.3401 9.45447H6.75Z" fill="black"/>
</svg>
