<svg width="20" height="21" viewBox="0 0 20 21" fill="none" xmlns="http://www.w3.org/2000/svg">
<path fill-rule="evenodd" clip-rule="evenodd" d="M2.23966 7.00419C2.5432 7.28604 3.01775 7.26846 3.2996 6.96493L5.25 4.86449L5.25 13.4546C5.25 13.8688 5.58579 14.2046 6 14.2046C6.41422 14.2046 6.75 13.8688 6.75 13.4546V4.86449L8.70041 6.96493C8.98226 7.26846 9.45681 7.28604 9.76034 7.00418C10.0639 6.72233 10.0815 6.24778 9.7996 5.94425L6.5496 2.44425C6.40769 2.29143 6.20855 2.20459 6 2.20459C5.79145 2.20459 5.59232 2.29143 5.45041 2.44425L2.20041 5.94425C1.91856 6.24778 1.93613 6.72233 2.23966 7.00419ZM10.2397 13.405C9.93613 13.6868 9.91856 14.1614 10.2004 14.4649L13.4504 17.9649C13.5923 18.1178 13.7915 18.2046 14 18.2046C14.2086 18.2046 14.4077 18.1178 14.5496 17.9649L17.7996 14.4649C18.0815 14.1614 18.0639 13.6868 17.7603 13.405C17.4568 13.1231 16.9823 13.1407 16.7004 13.4443L14.75 15.5447V6.95459C14.75 6.54038 14.4142 6.20459 14 6.20459C13.5858 6.20459 13.25 6.54038 13.25 6.95459V15.5447L11.2996 13.4443C11.0177 13.1407 10.5432 13.1231 10.2397 13.405Z" fill="black"/>
</svg>
