<svg width="20" height="21" viewBox="0 0 20 21" fill="none" xmlns="http://www.w3.org/2000/svg">
<path d="M3.28033 2.42426C2.98744 2.13137 2.51256 2.13137 2.21967 2.42426C1.92678 2.71715 1.92678 3.19203 2.21967 3.48492L5.43934 6.70459H2.75C2.33579 6.70459 2 7.04038 2 7.45459C2 7.8688 2.33579 8.20459 2.75 8.20459H7.25C7.66421 8.20459 8 7.8688 8 7.45459V2.95459C8 2.54038 7.66421 2.20459 7.25 2.20459C6.83579 2.20459 6.5 2.54038 6.5 2.95459V5.64393L3.28033 2.42426Z" fill="black"/>
<path d="M13.5 2.95459C13.5 2.54038 13.1642 2.20459 12.75 2.20459C12.3358 2.20459 12 2.54038 12 2.95459V7.45459C12 7.8688 12.3358 8.20459 12.75 8.20459H17.25C17.6642 8.20459 18 7.8688 18 7.45459C18 7.04038 17.6642 6.70459 17.25 6.70459H14.5607L17.7803 3.48492C18.0732 3.19203 18.0732 2.71715 17.7803 2.42426C17.4874 2.13137 17.0126 2.13137 16.7197 2.42426L13.5 5.64393V2.95459Z" fill="black"/>
<path d="M3.28033 17.9849L6.5 14.7653V17.4546C6.5 17.8688 6.83579 18.2046 7.25 18.2046C7.66421 18.2046 8 17.8688 8 17.4546V12.9546C8 12.5404 7.66421 12.2046 7.25 12.2046H2.75C2.33579 12.2046 2 12.5404 2 12.9546C2 13.3688 2.33579 13.7046 2.75 13.7046H5.43934L2.21967 16.9243C1.92678 17.2172 1.92678 17.692 2.21967 17.9849C2.51256 18.2778 2.98744 18.2778 3.28033 17.9849Z" fill="black"/>
<path d="M13.5 14.7653L16.7197 17.9849C17.0126 18.2778 17.4874 18.2778 17.7803 17.9849C18.0732 17.692 18.0732 17.2172 17.7803 16.9243L14.5607 13.7046H17.25C17.6642 13.7046 18 13.3688 18 12.9546C18 12.5404 17.6642 12.2046 17.25 12.2046H12.75C12.3358 12.2046 12 12.5404 12 12.9546V17.4546C12 17.8688 12.3358 18.2046 12.75 18.2046C13.1642 18.2046 13.5 17.8688 13.5 17.4546V14.7653Z" fill="black"/>
</svg>
