<svg width="20" height="21" viewBox="0 0 20 21" fill="none" xmlns="http://www.w3.org/2000/svg">
<path fill-rule="evenodd" clip-rule="evenodd" d="M15 10.2045C15 10.6187 14.6642 10.9545 14.25 10.9545H7.61208L9.76983 12.9138C10.0684 13.2009 10.0777 13.6757 9.79062 13.9743C9.50353 14.2729 9.02875 14.2822 8.73017 13.9951L5.23017 10.7451C5.08311 10.6037 5 10.4085 5 10.2045C5 10.0005 5.08311 9.80525 5.23017 9.66384L8.73017 6.41384C9.02875 6.12675 9.50353 6.13606 9.79062 6.43464C10.0777 6.73322 10.0684 7.208 9.76983 7.49509L7.61208 9.45447L14.25 9.45447C14.6642 9.45447 15 9.79026 15 10.2045Z" fill="black"/>
</svg>
