<svg width="20" height="21" viewBox="0 0 20 21" fill="none" xmlns="http://www.w3.org/2000/svg">
<g clip-path="url(#clip0_1_661)">
<path fill-rule="evenodd" clip-rule="evenodd" d="M10 18.2045C14.4183 18.2045 18 14.6227 18 10.2045C18 5.78619 14.4183 2.20447 10 2.20447C5.58172 2.20447 2 5.78619 2 10.2045C2 14.6227 5.58172 18.2045 10 18.2045ZM13.25 10.9545C13.6642 10.9545 14 10.6187 14 10.2045C14 9.79025 13.6642 9.45447 13.25 9.45447H8.6599L10.7603 7.50406C11.0639 7.22221 11.0814 6.74766 10.7996 6.44413C10.5177 6.1406 10.0432 6.12302 9.73966 6.40487L6.23966 9.65487C6.08684 9.79678 6 9.99592 6 10.2045C6 10.413 6.08684 10.6122 6.23966 10.7541L9.73966 14.0041C10.0432 14.2859 10.5177 14.2683 10.7996 13.9648C11.0814 13.6613 11.0639 13.1867 10.7603 12.9049L8.6599 10.9545H13.25Z" fill="black"/>
</g>
<defs>
<clipPath id="clip0_1_661">
<rect width="20" height="20" fill="white" transform="translate(0 0.204468)"/>
</clipPath>
</defs>
</svg>
