<svg width="20" height="21" viewBox="0 0 20 21" fill="none" xmlns="http://www.w3.org/2000/svg">
<path fill-rule="evenodd" clip-rule="evenodd" d="M10 4.70447C11.215 4.70447 12.4171 4.75931 13.6038 4.86661C13.9249 4.89564 14.1802 5.14378 14.2185 5.46381C14.3426 6.50149 14.4265 7.55165 14.4685 8.61271L12.7804 6.9242C12.4875 6.63127 12.0126 6.63122 11.7197 6.92408C11.4268 7.21694 11.4267 7.69181 11.7196 7.98474L14.7189 10.9846C15.0117 11.2776 15.4866 11.2776 15.7795 10.9848L18.7803 7.98487C19.0732 7.69202 19.0733 7.21715 18.7804 6.92421C18.4875 6.63128 18.0127 6.63121 17.7197 6.92406L15.9719 8.67145C15.9299 7.53048 15.8413 6.40128 15.7079 5.2857C15.5855 4.26222 14.7654 3.46552 13.7389 3.37271C12.5073 3.26135 11.2602 3.20447 10 3.20447C8.73981 3.20447 7.49271 3.26135 6.26115 3.37271C5.23465 3.46552 4.41449 4.26222 4.2921 5.2857C4.22831 5.81911 4.17477 6.35564 4.13167 6.89508C4.09868 7.30798 4.40666 7.66944 4.81956 7.70243C5.23245 7.73542 5.59391 7.42744 5.6269 7.01454C5.66843 6.4947 5.72003 5.97773 5.78148 5.46381C5.81975 5.14378 6.07514 4.89564 6.39623 4.86661C7.58294 4.75931 8.78497 4.70447 10 4.70447ZM5.28113 9.42447C4.98828 9.13157 4.51345 9.13151 4.22052 9.42433L1.21976 12.424C0.926819 12.7169 0.926735 13.1918 1.21958 13.4847C1.51242 13.7776 1.98729 13.7777 2.28024 13.4849L4.02814 11.7376C4.0701 12.8785 4.15869 14.0077 4.2921 15.1232C4.41449 16.1467 5.23465 16.9434 6.26115 17.0362C7.49271 17.1476 8.73981 17.2045 10 17.2045C11.2602 17.2045 12.5073 17.1476 13.7389 17.0362C14.7654 16.9434 15.5855 16.1467 15.7079 15.1232C15.7717 14.5894 15.8253 14.0525 15.8684 13.5126C15.9014 13.0997 15.5934 12.7382 15.1805 12.7053C14.7676 12.6723 14.4062 12.9803 14.3732 13.3932C14.3316 13.9134 14.28 14.4308 14.2185 14.9451C14.1802 15.2652 13.9249 15.5133 13.6038 15.5423C12.4171 15.6496 11.215 15.7045 10 15.7045C8.78497 15.7045 7.58294 15.6496 6.39623 15.5423C6.07514 15.5133 5.81975 15.2652 5.78148 14.9451C5.6574 13.9075 5.57352 12.8574 5.53148 11.7963L7.21963 13.4848C7.5125 13.7777 7.98737 13.7777 8.28029 13.4848C8.57321 13.192 8.57324 12.7171 8.28037 12.4242L5.28113 9.42447Z" fill="black"/>
</svg>
