<svg width="20" height="21" viewBox="0 0 20 21" fill="none" xmlns="http://www.w3.org/2000/svg">
<path fill-rule="evenodd" clip-rule="evenodd" d="M10 5.20447C10.4142 5.20447 10.75 5.54025 10.75 5.95447V12.5924L12.7094 10.4346C12.9965 10.1361 13.4713 10.1267 13.7698 10.4138C14.0684 10.7009 14.0777 11.1757 13.7906 11.4743L10.5406 14.9743C10.3992 15.1214 10.204 15.2045 10 15.2045C9.79599 15.2045 9.60078 15.1214 9.45938 14.9743L6.20938 11.4743C5.92228 11.1757 5.93159 10.7009 6.23017 10.4138C6.52875 10.1267 7.00353 10.1361 7.29063 10.4346L9.25 12.5924V5.95447C9.25 5.54025 9.58579 5.20447 10 5.20447Z" fill="black"/>
</svg>
