<svg width="20" height="21" viewBox="0 0 20 21" fill="none" xmlns="http://www.w3.org/2000/svg">
<path fill-rule="evenodd" clip-rule="evenodd" d="M4.25 5.70447C3.83579 5.70447 3.5 6.04025 3.5 6.45447V14.9545C3.5 15.3687 3.83579 15.7045 4.25 15.7045H12.75C13.1642 15.7045 13.5 15.3687 13.5 14.9545V10.9545C13.5 10.5403 13.8358 10.2045 14.25 10.2045C14.6642 10.2045 15 10.5403 15 10.9545V14.9545C15 16.1971 13.9926 17.2045 12.75 17.2045H4.25C3.00736 17.2045 2 16.1971 2 14.9545V6.45447C2 5.21183 3.00736 4.20447 4.25 4.20447H9.25C9.66421 4.20447 10 4.54025 10 4.95447C10 5.36868 9.66421 5.70447 9.25 5.70447H4.25Z" fill="black"/>
<path fill-rule="evenodd" clip-rule="evenodd" d="M6.19385 12.9577C6.47175 13.2648 6.94603 13.2885 7.25319 13.0106L16.5 4.64445V7.45447C16.5 7.86868 16.8358 8.20447 17.25 8.20447C17.6642 8.20447 18 7.86868 18 7.45447V2.95447C18 2.54025 17.6642 2.20447 17.25 2.20447H12.75C12.3358 2.20447 12 2.54025 12 2.95447C12 3.36868 12.3358 3.70447 12.75 3.70447H15.3032L6.24682 11.8983C5.93966 12.1762 5.91595 12.6505 6.19385 12.9577Z" fill="black"/>
</svg>
