<svg width="20" height="21" viewBox="0 0 20 21" fill="none" xmlns="http://www.w3.org/2000/svg">
<path d="M13.2803 7.98492L16.5 4.76525V7.45459C16.5 7.8688 16.8358 8.20459 17.25 8.20459C17.6642 8.20459 18 7.8688 18 7.45459V2.95459C18 2.54038 17.6642 2.20459 17.25 2.20459H12.75C12.3358 2.20459 12 2.54038 12 2.95459C12 3.3688 12.3358 3.70459 12.75 3.70459H15.4393L12.2197 6.92426C11.9268 7.21715 11.9268 7.69203 12.2197 7.98492C12.5126 8.27781 12.9874 8.27781 13.2803 7.98492Z" fill="black"/>
<path d="M2 17.4546V12.9546C2 12.5404 2.33579 12.2046 2.75 12.2046C3.16421 12.2046 3.5 12.5404 3.5 12.9546V15.6439L6.71967 12.4243C7.01256 12.1314 7.48744 12.1314 7.78033 12.4243C8.07322 12.7172 8.07322 13.192 7.78033 13.4849L4.56066 16.7046H7.25C7.66421 16.7046 8 17.0404 8 17.4546C8 17.8688 7.66421 18.2046 7.25 18.2046H2.75C2.55806 18.2046 2.36612 18.1314 2.21967 17.9849C2.14776 17.913 2.09351 17.8301 2.05691 17.7417C2.02024 17.6532 2 17.5563 2 17.4546Z" fill="black"/>
<path d="M12.2197 13.4849L15.4393 16.7046H12.75C12.3358 16.7046 12 17.0404 12 17.4546C12 17.8688 12.3358 18.2046 12.75 18.2046H17.25C17.4419 18.2046 17.6339 18.1314 17.7803 17.9849C17.8522 17.913 17.9065 17.8301 17.9431 17.7417C17.9798 17.6532 18 17.5563 18 17.4546V12.9546C18 12.5404 17.6642 12.2046 17.25 12.2046C16.8358 12.2046 16.5 12.5404 16.5 12.9546V15.6439L13.2803 12.4243C12.9874 12.1314 12.5126 12.1314 12.2197 12.4243C11.9268 12.7172 11.9268 13.192 12.2197 13.4849Z" fill="black"/>
<path d="M3.5 4.76525L6.71967 7.98492C7.01256 8.27781 7.48744 8.27781 7.78033 7.98492C8.07322 7.69203 8.07322 7.21715 7.78033 6.92426L4.56066 3.70459H7.25C7.66421 3.70459 8 3.3688 8 2.95459C8 2.54038 7.66421 2.20459 7.25 2.20459H2.75C2.33579 2.20459 2 2.54038 2 2.95459V7.45459C2 7.8688 2.33579 8.20459 2.75 8.20459C3.16421 8.20459 3.5 7.8688 3.5 7.45459V4.76525Z" fill="black"/>
</svg>
