<svg width="20" height="21" viewBox="0 0 20 21" fill="none" xmlns="http://www.w3.org/2000/svg">
<path fill-rule="evenodd" clip-rule="evenodd" d="M2.23214 12.4121C2.53177 12.1261 3.00651 12.1371 3.29252 12.4367L7.25 16.5827V6.57959C7.25 3.61106 9.65647 1.20459 12.625 1.20459C15.5935 1.20459 18 3.61106 18 6.57959V9.45459C18 9.8688 17.6642 10.2046 17.25 10.2046C16.8358 10.2046 16.5 9.8688 16.5 9.45459V6.57959C16.5 4.43949 14.7651 2.70459 12.625 2.70459C10.4849 2.70459 8.75 4.43949 8.75 6.57959V16.5827L12.7075 12.4367C12.9935 12.1371 13.4682 12.1261 13.7679 12.4121C14.0675 12.6981 14.0785 13.1728 13.7925 13.4724L8.54252 18.9724C8.401 19.1207 8.20496 19.2046 8 19.2046C7.79504 19.2046 7.59901 19.1207 7.45748 18.9724L2.20748 13.4724C1.92148 13.1728 1.93252 12.6981 2.23214 12.4121Z" fill="black"/>
</svg>
