<svg width="20" height="21" viewBox="0 0 20 21" fill="none" xmlns="http://www.w3.org/2000/svg">
<path fill-rule="evenodd" clip-rule="evenodd" d="M17.7679 7.99711C17.4682 8.28311 16.9935 8.27207 16.7075 7.97245L12.75 3.82651L12.75 13.8296C12.75 16.7981 10.3435 19.2046 7.375 19.2046C4.40647 19.2046 2 16.7981 2 13.8296L2 10.9546C2 10.5404 2.33579 10.2046 2.75 10.2046C3.16421 10.2046 3.5 10.5404 3.5 10.9546L3.5 13.8296C3.5 15.9697 5.2349 17.7046 7.375 17.7046C9.5151 17.7046 11.25 15.9697 11.25 13.8296L11.25 3.82651L7.29252 7.97245C7.00651 8.27207 6.53177 8.28311 6.23214 7.99711C5.93252 7.7111 5.92148 7.23636 6.20748 6.93673L11.4575 1.43673C11.599 1.28847 11.795 1.20459 12 1.20459C12.205 1.20459 12.401 1.28847 12.5425 1.43673L17.7925 6.93673C18.0785 7.23636 18.0675 7.7111 17.7679 7.99711Z" fill="black"/>
</svg>
