<svg width="20" height="21" viewBox="0 0 20 21" fill="none" xmlns="http://www.w3.org/2000/svg">
<path fill-rule="evenodd" clip-rule="evenodd" d="M5.40405 14.8008C2.86564 12.2624 2.86564 8.1468 5.40405 5.6084C7.94246 3.06999 12.058 3.06999 14.5964 5.6084C15.8658 6.87775 16.5002 8.53993 16.5002 10.2046C16.5002 10.8949 15.9404 11.4546 15.25 11.4546C14.5597 11.4546 14 10.8949 14 10.2046C14 7.99545 12.2092 6.20459 10 6.20459C7.79087 6.20459 6.00001 7.99545 6.00001 10.2046C6.00001 12.4137 7.79087 14.2046 10 14.2046C11.4554 14.2046 12.7292 13.4274 13.429 12.2653C13.9141 12.6943 14.5516 12.9546 15.25 12.9546C16.7614 12.9546 17.9881 11.7353 17.9999 10.2266C18.0001 10.2193 18.0002 10.212 18.0002 10.2046C18.0002 8.15837 17.219 6.10969 15.6571 4.54774C12.5329 1.42354 7.46758 1.42354 4.34339 4.54774C1.2192 7.67193 1.2192 12.7372 4.34339 15.8614C7.46758 18.9856 12.5329 18.9856 15.6571 15.8614C15.95 15.5686 15.95 15.0937 15.6571 14.8008C15.3642 14.5079 14.8893 14.5079 14.5964 14.8008C12.058 17.3392 7.94246 17.3392 5.40405 14.8008ZM10 7.70459C8.6193 7.70459 7.50001 8.82388 7.50001 10.2046C7.50001 11.5853 8.6193 12.7046 10 12.7046C11.3807 12.7046 12.5 11.5853 12.5 10.2046C12.5 8.82388 11.3807 7.70459 10 7.70459Z" fill="black"/>
</svg>
