<svg width="20" height="21" viewBox="0 0 20 21" fill="none" xmlns="http://www.w3.org/2000/svg">
<path fill-rule="evenodd" clip-rule="evenodd" d="M7.21967 3.42426C7.36032 3.28361 7.55109 3.20459 7.75 3.20459H16.75C17.9926 3.20459 19 4.21195 19 5.45459V14.9546C19 16.1972 17.9926 17.2046 16.75 17.2046H7.75C7.55109 17.2046 7.36032 17.1256 7.21967 16.9849L0.96967 10.7349C0.676777 10.442 0.676777 9.96715 0.96967 9.67426L7.21967 3.42426ZM10.2803 7.42426C9.98744 7.13137 9.51256 7.13137 9.21967 7.42426C8.92678 7.71715 8.92678 8.19203 9.21967 8.48492L10.9393 10.2046L9.21967 11.9243C8.92678 12.2172 8.92678 12.692 9.21967 12.9849C9.51256 13.2778 9.98744 13.2778 10.2803 12.9849L12 11.2652L13.7197 12.9849C14.0126 13.2778 14.4874 13.2778 14.7803 12.9849C15.0732 12.692 15.0732 12.2172 14.7803 11.9243L13.0607 10.2046L14.7803 8.48492C15.0732 8.19203 15.0732 7.71715 14.7803 7.42426C14.4874 7.13137 14.0126 7.13137 13.7197 7.42426L12 9.14393L10.2803 7.42426Z" fill="black"/>
</svg>
