<svg width="20" height="21" viewBox="0 0 20 21" fill="none" xmlns="http://www.w3.org/2000/svg">
<path fill-rule="evenodd" clip-rule="evenodd" d="M1 4.20459C1 3.65231 1.44772 3.20459 2 3.20459H18C18.5523 3.20459 19 3.65231 19 4.20459V12.2046C19 12.7569 18.5523 13.2046 18 13.2046H2C1.44772 13.2046 1 12.7569 1 12.2046V4.20459ZM13 8.20459C13 9.86144 11.6569 11.2046 10 11.2046C8.34315 11.2046 7 9.86144 7 8.20459C7 6.54774 8.34315 5.20459 10 5.20459C11.6569 5.20459 13 6.54774 13 8.20459ZM4 9.20459C4.55228 9.20459 5 8.75687 5 8.20459C5 7.65231 4.55228 7.20459 4 7.20459C3.44772 7.20459 3 7.65231 3 8.20459C3 8.75687 3.44772 9.20459 4 9.20459ZM17 8.20459C17 8.75687 16.5523 9.20459 16 9.20459C15.4477 9.20459 15 8.75687 15 8.20459C15 7.65231 15.4477 7.20459 16 7.20459C16.5523 7.20459 17 7.65231 17 8.20459ZM1.75 14.7046C1.33579 14.7046 1 15.0404 1 15.4546C1 15.8688 1.33579 16.2046 1.75 16.2046C6.16731 16.2046 10.4426 16.8074 14.4987 17.9347C15.6102 18.2436 16.75 17.4229 16.75 16.2382V15.4546C16.75 15.0404 16.4142 14.7046 16 14.7046C15.5858 14.7046 15.25 15.0404 15.25 15.4546V16.2382C15.25 16.3998 15.0861 16.5411 14.9004 16.4895C10.7147 15.3261 6.30435 14.7046 1.75 14.7046Z" fill="black"/>
</svg>
