<svg width="20" height="21" viewBox="0 0 20 21" fill="none" xmlns="http://www.w3.org/2000/svg">
<path fill-rule="evenodd" clip-rule="evenodd" d="M2 3.95459C2 3.54038 2.33579 3.20459 2.75 3.20459H14.25C14.6642 3.20459 15 3.54038 15 3.95459C15 4.3688 14.6642 4.70459 14.25 4.70459H2.75C2.33579 4.70459 2 4.3688 2 3.95459ZM2 7.70459C2 7.29038 2.33579 6.95459 2.75 6.95459H10.2582C10.6724 6.95459 11.0082 7.29038 11.0082 7.70459C11.0082 8.1188 10.6724 8.45459 10.2582 8.45459H2.75C2.33579 8.45459 2 8.1188 2 7.70459ZM14 7.20459C14.4142 7.20459 14.75 7.54038 14.75 7.95459L14.75 14.5447L16.7004 12.4443C16.9823 12.1407 17.4568 12.1231 17.7603 12.405C18.0639 12.6868 18.0814 13.1614 17.7996 13.4649L14.5496 16.9649C14.4077 17.1178 14.2085 17.2046 14 17.2046C13.7914 17.2046 13.5923 17.1178 13.4504 16.9649L10.2004 13.4649C9.91855 13.1614 9.93613 12.6868 10.2397 12.405C10.5432 12.1231 11.0177 12.1407 11.2996 12.4443L13.25 14.5447L13.25 7.95459C13.25 7.54038 13.5858 7.20459 14 7.20459ZM2 11.4546C2 11.0404 2.33579 10.7046 2.75 10.7046H7.31205C7.72626 10.7046 8.06205 11.0404 8.06205 11.4546C8.06205 11.8688 7.72626 12.2046 7.31205 12.2046H2.75C2.33579 12.2046 2 11.8688 2 11.4546Z" fill="black"/>
</svg>
