<svg width="20" height="21" viewBox="0 0 20 21" fill="none" xmlns="http://www.w3.org/2000/svg">
<path fill-rule="evenodd" clip-rule="evenodd" d="M2 3.95459C2 3.54038 2.33579 3.20459 2.75 3.20459H14.25C14.6642 3.20459 15 3.54038 15 3.95459C15 4.3688 14.6642 4.70459 14.25 4.70459H2.75C2.33579 4.70459 2 4.3688 2 3.95459ZM2 7.70459C2 7.29038 2.33579 6.95459 2.75 6.95459H9.11474C9.52895 6.95459 9.86474 7.29038 9.86474 7.70459C9.86474 8.1188 9.52895 8.45459 9.11474 8.45459H2.75C2.33579 8.45459 2 8.1188 2 7.70459ZM14 7.20459C14.2086 7.20459 14.4077 7.29143 14.5496 7.44425L17.7996 10.9443C18.0814 11.2478 18.0639 11.7223 17.7603 12.0042C17.4568 12.286 16.9823 12.2685 16.7004 11.9649L14.75 9.86449L14.75 16.4546C14.75 16.8688 14.4142 17.2046 14 17.2046C13.5858 17.2046 13.25 16.8688 13.25 16.4546L13.25 9.86449L11.2996 11.9649C11.0177 12.2685 10.5432 12.286 10.2397 12.0042C9.93613 11.7223 9.91855 11.2478 10.2004 10.9443L13.4504 7.44425C13.5923 7.29143 13.7914 7.20459 14 7.20459ZM2 11.4546C2 11.0404 2.33579 10.7046 2.75 10.7046H6.99999C7.4142 10.7046 7.74999 11.0404 7.74999 11.4546C7.74999 11.8688 7.4142 12.2046 6.99999 12.2046H2.75C2.33579 12.2046 2 11.8688 2 11.4546Z" fill="black"/>
</svg>
