<svg width="20" height="21" viewBox="0 0 20 21" fill="none" xmlns="http://www.w3.org/2000/svg">
<path fill-rule="evenodd" clip-rule="evenodd" d="M2 3.95459C2 3.54038 2.33579 3.20459 2.75 3.20459H17.25C17.6642 3.20459 18 3.54038 18 3.95459C18 4.3688 17.6642 4.70459 17.25 4.70459H2.75C2.33579 4.70459 2 4.3688 2 3.95459ZM2 8.12126C2 7.70704 2.33579 7.37126 2.75 7.37126H17.25C17.6642 7.37126 18 7.70704 18 8.12126C18 8.53547 17.6642 8.87126 17.25 8.87126H2.75C2.33579 8.87126 2 8.53547 2 8.12126ZM2 12.2879C2 11.8737 2.33579 11.5379 2.75 11.5379H17.25C17.6642 11.5379 18 11.8737 18 12.2879C18 12.7021 17.6642 13.0379 17.25 13.0379H2.75C2.33579 13.0379 2 12.7021 2 12.2879ZM2 16.4546C2 16.0404 2.33579 15.7046 2.75 15.7046H17.25C17.6642 15.7046 18 16.0404 18 16.4546C18 16.8688 17.6642 17.2046 17.25 17.2046H2.75C2.33579 17.2046 2 16.8688 2 16.4546Z" fill="black"/>
</svg>
