<svg width="20" height="21" viewBox="0 0 20 21" fill="none" xmlns="http://www.w3.org/2000/svg">
<path fill-rule="evenodd" clip-rule="evenodd" d="M2 4.95459C2 4.54038 2.33579 4.20459 2.75 4.20459H17.25C17.6642 4.20459 18 4.54038 18 4.95459C18 5.3688 17.6642 5.70459 17.25 5.70459H2.75C2.33579 5.70459 2 5.3688 2 4.95459ZM2 10.2046C2 9.79038 2.33579 9.45459 2.75 9.45459H17.25C17.6642 9.45459 18 9.79038 18 10.2046C18 10.6188 17.6642 10.9546 17.25 10.9546H2.75C2.33579 10.9546 2 10.6188 2 10.2046ZM2 15.4546C2 15.0404 2.33579 14.7046 2.75 14.7046H17.25C17.6642 14.7046 18 15.0404 18 15.4546C18 15.8688 17.6642 16.2046 17.25 16.2046H2.75C2.33579 16.2046 2 15.8688 2 15.4546Z" fill="black"/>
</svg>
