<svg width="20" height="21" viewBox="0 0 20 21" fill="none" xmlns="http://www.w3.org/2000/svg">
<path d="M4.75 8.20447C4.33579 8.20447 4 8.54025 4 8.95447V11.4545C4 11.8687 4.33579 12.2045 4.75 12.2045H14.25C14.6642 12.2045 15 11.8687 15 11.4545V8.95447C15 8.54025 14.6642 8.20447 14.25 8.20447H4.75Z" fill="black"/>
<path fill-rule="evenodd" clip-rule="evenodd" d="M1 7.45447C1 6.21183 2.00736 5.20447 3.25 5.20447H15.75C16.9926 5.20447 18 6.21183 18 7.45447V8.53982C18.5826 8.74574 19 9.30136 19 9.95447V10.4545C19 11.1076 18.5826 11.6632 18 11.8691V12.9545C18 14.1971 16.9926 15.2045 15.75 15.2045H3.25C2.00736 15.2045 1 14.1971 1 12.9545V7.45447ZM3.25 6.70447C2.83579 6.70447 2.5 7.04025 2.5 7.45447V12.9545C2.5 13.3687 2.83579 13.7045 3.25 13.7045H15.75C16.1642 13.7045 16.5 13.3687 16.5 12.9545V7.45447C16.5 7.04025 16.1642 6.70447 15.75 6.70447H3.25Z" fill="black"/>
</svg>
