<svg width="20" height="21" viewBox="0 0 20 21" fill="none" xmlns="http://www.w3.org/2000/svg">
<path d="M4.75 8.20447C4.33579 8.20447 4 8.54025 4 8.95447V11.4545C4 11.8687 4.33579 12.2045 4.75 12.2045H9.5C9.91421 12.2045 10.25 11.8687 10.25 11.4545V8.95447C10.25 8.54025 9.91421 8.20447 9.5 8.20447H4.75Z" fill="black"/>
<path fill-rule="evenodd" clip-rule="evenodd" d="M3.25 5.20447C2.00736 5.20447 1 6.21183 1 7.45447V12.9545C1 14.1971 2.00736 15.2045 3.25 15.2045H15.75C16.9926 15.2045 18 14.1971 18 12.9545V11.8691C18.5826 11.6632 19 11.1076 19 10.4545V9.95447C19 9.30136 18.5826 8.74574 18 8.53982V7.45447C18 6.21183 16.9926 5.20447 15.75 5.20447H3.25ZM2.5 7.45447C2.5 7.04025 2.83579 6.70447 3.25 6.70447H15.75C16.1642 6.70447 16.5 7.04025 16.5 7.45447V12.9545C16.5 13.3687 16.1642 13.7045 15.75 13.7045H3.25C2.83579 13.7045 2.5 13.3687 2.5 12.9545V7.45447Z" fill="black"/>
</svg>
