<svg width="20" height="21" viewBox="0 0 20 21" fill="none" xmlns="http://www.w3.org/2000/svg">
<path fill-rule="evenodd" clip-rule="evenodd" d="M8.50002 3.73241V8.37604C8.50002 9.10539 8.21029 9.80486 7.69456 10.3206L6.47815 11.537C7.68607 11.4956 8.89518 11.7048 10.0275 12.1577L10.5296 12.3585C11.8561 12.8891 13.3098 13.016 14.7081 12.7232L12.3055 10.3206C11.7898 9.80486 11.5 9.10539 11.5 8.37604V3.73241C11.0024 3.71384 10.5023 3.70447 10 3.70447C9.49774 3.70447 8.99769 3.71384 8.50002 3.73241ZM13 3.81665C13.0635 3.82142 13.1269 3.82633 13.1903 3.8314C13.6032 3.86439 13.9646 3.55641 13.9976 3.14351C14.0306 2.73062 13.7227 2.36915 13.3098 2.33616C12.9714 2.30912 12.6319 2.2862 12.2913 2.26743C11.5328 2.22564 10.7688 2.20447 10 2.20447C9.23121 2.20447 8.46727 2.22564 7.70876 2.26743C7.36815 2.2862 7.02865 2.30912 6.69028 2.33616C6.27739 2.36915 5.96941 2.73062 6.0024 3.14351C6.03539 3.55641 6.39686 3.86439 6.80976 3.8314C6.87314 3.82633 6.93656 3.82142 7.00002 3.81665V8.37604C7.00002 8.70756 6.86832 9.0255 6.6339 9.25992L2.60037 13.2935C1.10388 14.79 1.78337 17.4436 4.00339 17.769C5.96113 18.0559 7.96346 18.2045 10 18.2045C12.0366 18.2045 14.0389 18.0559 15.9967 17.769C18.2167 17.4436 18.8962 14.79 17.3997 13.2935L13.3661 9.25993C13.1317 9.0255 13 8.70756 13 8.37604V3.81665Z" fill="black"/>
</svg>
