<svg width="20" height="21" viewBox="0 0 20 21" fill="none" xmlns="http://www.w3.org/2000/svg">
<path fill-rule="evenodd" clip-rule="evenodd" d="M3.99997 8.20447C3.99997 4.89076 6.68626 2.20447 9.99997 2.20447C13.3137 2.20447 16 4.89076 16 8.20447C16 10.0911 16.4537 11.8696 17.2573 13.4388C17.364 13.6471 17.3673 13.8933 17.2663 14.1044C17.1652 14.3156 16.9714 14.4674 16.7422 14.515C15.6746 14.7367 14.5882 14.9067 13.4857 15.0225C13.3251 16.8065 11.8258 18.2045 10 18.2045C8.17421 18.2045 6.67494 16.8065 6.51426 15.0225C5.41181 14.9067 4.32537 14.7367 3.25769 14.515C3.02851 14.4674 2.83469 14.3156 2.73365 14.1044C2.6326 13.8933 2.63591 13.6471 2.7426 13.4388C3.54624 11.8696 3.99997 10.0911 3.99997 8.20447ZM9.99997 15.2045C9.34517 15.2045 8.69477 15.1854 8.0493 15.1477C8.25097 16.039 9.04777 16.7045 10 16.7045C10.9522 16.7045 11.749 16.039 11.9507 15.1477C11.3052 15.1854 10.6548 15.2045 9.99997 15.2045ZM8.75 6.20447C8.33579 6.20447 8 6.54025 8 6.95447C8 7.36868 8.33579 7.70447 8.75 7.70447H9.79261L8.1397 10.0185C7.97641 10.2472 7.95457 10.5479 8.08312 10.7977C8.21168 11.0475 8.46906 11.2045 8.75 11.2045H11.25C11.6642 11.2045 12 10.8687 12 10.4545C12 10.0403 11.6642 9.70447 11.25 9.70447H10.2074L11.8603 7.3904C12.0236 7.16179 12.0454 6.86108 11.9169 6.61128C11.7883 6.36148 11.5309 6.20447 11.25 6.20447H8.75Z" fill="black"/>
</svg>
