<svg width="20" height="21" viewBox="0 0 20 21" fill="none" xmlns="http://www.w3.org/2000/svg">
<path fill-rule="evenodd" clip-rule="evenodd" d="M9.99997 2.20447C6.68626 2.20447 3.99997 4.89076 3.99997 8.20447C3.99997 10.0911 3.54624 11.8696 2.7426 13.4388C2.63591 13.6471 2.6326 13.8933 2.73365 14.1044C2.83469 14.3156 3.02851 14.4674 3.25769 14.515C4.32537 14.7367 5.41181 14.9067 6.51426 15.0225C6.67494 16.8065 8.17421 18.2045 10 18.2045C11.8258 18.2045 13.3251 16.8065 13.4857 15.0225C14.5882 14.9067 15.6746 14.7367 16.7422 14.515C16.9714 14.4674 17.1652 14.3156 17.2663 14.1044C17.3673 13.8933 17.364 13.6471 17.2573 13.4388C16.4537 11.8696 16 10.0911 16 8.20447C16 4.89076 13.3137 2.20447 9.99997 2.20447ZM8.0493 15.1477C8.69477 15.1854 9.34517 15.2045 9.99997 15.2045C10.6548 15.2045 11.3052 15.1854 11.9507 15.1477C11.749 16.039 10.9522 16.7045 10 16.7045C9.04777 16.7045 8.25097 16.039 8.0493 15.1477Z" fill="black"/>
</svg>
