<svg width="20" height="21" viewBox="0 0 20 21" fill="none" xmlns="http://www.w3.org/2000/svg">
<path d="M3.99997 8.20447C3.99997 7.94385 4.01658 7.68711 4.04881 7.43526L11.7713 15.1577C11.1847 15.1888 10.5942 15.2045 9.99997 15.2045C9.34517 15.2045 8.69477 15.1854 8.0493 15.1477C8.25097 16.039 9.04777 16.7045 10 16.7045C10.8982 16.7045 11.6581 16.1124 11.9107 15.2972L13.045 16.4314C12.4432 17.4903 11.305 18.2045 10 18.2045C8.17421 18.2045 6.67494 16.8065 6.51426 15.0225C5.41181 14.9067 4.32537 14.7367 3.25769 14.515C3.02851 14.4674 2.83469 14.3156 2.73365 14.1044C2.6326 13.8933 2.63591 13.6471 2.7426 13.4388C3.54624 11.8696 3.99997 10.0911 3.99997 8.20447Z" fill="black"/>
<path d="M17.2663 14.1044C17.2467 14.1453 17.2237 14.184 17.1976 14.2201L6.38945 3.41194C7.39404 2.65393 8.64452 2.20447 9.99997 2.20447C13.3137 2.20447 16 4.89076 16 8.20447C16 10.0911 16.4537 11.8696 17.2573 13.4388C17.364 13.6471 17.3673 13.8933 17.2663 14.1044Z" fill="black"/>
<path d="M3.28033 2.42414C2.98744 2.13124 2.51256 2.13124 2.21967 2.42414C1.92678 2.71703 1.92678 3.1919 2.21967 3.4848L16.7197 17.9848C17.0126 18.2777 17.4874 18.2777 17.7803 17.9848C18.0732 17.6919 18.0732 17.217 17.7803 16.9241L3.28033 2.42414Z" fill="black"/>
</svg>
