<svg width="20" height="21" viewBox="0 0 20 21" fill="none" xmlns="http://www.w3.org/2000/svg">
<path d="M11.9834 2.11165C12.0546 1.77907 11.8932 1.44018 11.59 1.28599C11.2868 1.13181 10.9179 1.20093 10.6911 1.4544L2.19108 10.9544C1.99385 11.1748 1.9446 11.4906 2.06533 11.7606C2.18607 12.0307 2.45423 12.2045 2.75001 12.2045H9.32227L8.01666 18.2974C7.9454 18.6299 8.10685 18.9688 8.41002 19.123C8.71318 19.2772 9.08215 19.2081 9.30894 18.9546L17.8089 9.4546C18.0062 9.23416 18.0554 8.9184 17.9347 8.64837C17.814 8.37835 17.5458 8.2045 17.25 8.2045H10.6778L11.9834 2.11165Z" fill="black"/>
</svg>
