<svg width="20" height="21" viewBox="0 0 20 21" fill="none" xmlns="http://www.w3.org/2000/svg">
<path fill-rule="evenodd" clip-rule="evenodd" d="M2.21967 2.42414C2.51256 2.13124 2.98744 2.13124 3.28033 2.42414L17.7803 16.9241C18.0732 17.217 18.0732 17.6919 17.7803 17.9848C17.4874 18.2777 17.0126 18.2777 16.7197 17.9848L2.21967 3.4848C1.92678 3.1919 1.92678 2.71703 2.21967 2.42414Z" fill="black"/>
<path d="M4.73016 8.11661L2.19108 10.9544C1.99385 11.1748 1.9446 11.4906 2.06533 11.7606C2.18607 12.0307 2.45423 12.2045 2.75001 12.2045H8.81805L4.73016 8.11661Z" fill="black"/>
<path d="M9.23329 12.6197L8.01666 18.2974C7.9454 18.6299 8.10685 18.9688 8.41002 19.123C8.71318 19.2772 9.08215 19.2081 9.30894 18.9546L12.2647 15.6511L9.23329 12.6197Z" fill="black"/>
<path d="M15.2699 12.2924L17.8089 9.4546C18.0062 9.23416 18.0554 8.9184 17.9347 8.64837C17.814 8.37835 17.5458 8.2045 17.25 8.2045H11.182L15.2699 12.2924Z" fill="black"/>
<path d="M10.7667 7.78923L11.9834 2.11165C12.0546 1.77907 11.8932 1.44018 11.59 1.28599C11.2868 1.13181 10.9179 1.20093 10.6911 1.4544L7.73537 4.75785L10.7667 7.78923Z" fill="black"/>
</svg>
