<svg width="20" height="21" viewBox="0 0 20 21" fill="none" xmlns="http://www.w3.org/2000/svg">
<path d="M17 4.72108V14.0225L5.43349 2.45598C6.93301 2.28977 8.45668 2.20447 10 2.20447C11.7163 2.20447 13.4084 2.30997 15.07 2.51492C16.1942 2.6536 17 3.61821 17 4.72108Z" fill="black"/>
<path d="M3 17.4545V6.38645L13.6537 17.0402L10 15.2864L4.07455 18.1306C3.84215 18.2422 3.56875 18.2265 3.35057 18.0893C3.13239 17.952 3 17.7122 3 17.4545Z" fill="black"/>
<path d="M3.28033 2.42414C2.98744 2.13124 2.51256 2.13124 2.21967 2.42414C1.92678 2.71703 1.92678 3.1919 2.21967 3.4848L16.7197 17.9848C17.0126 18.2777 17.4874 18.2777 17.7803 17.9848C18.0732 17.6919 18.0732 17.217 17.7803 16.9241L3.28033 2.42414Z" fill="black"/>
</svg>
