<svg width="20" height="21" viewBox="0 0 20 21" fill="none" xmlns="http://www.w3.org/2000/svg">
<path d="M10.75 17.0239C11.9579 16.1915 13.4212 15.7045 15 15.7045C15.7103 15.7045 16.3964 15.803 17.0459 15.9867C17.272 16.0507 17.515 16.0049 17.7024 15.8632C17.8899 15.7214 18 15.5 18 15.265V4.26502C18 3.92942 17.7771 3.63466 17.4541 3.54333C16.6731 3.32243 15.8497 3.20447 15 3.20447C13.4636 3.20447 12.016 3.58996 10.75 4.26934V17.0239Z" fill="black"/>
<path d="M9.25 4.26934C7.98396 3.58996 6.5364 3.20447 5 3.20447C4.15029 3.20447 3.32689 3.32243 2.54588 3.54333C2.22295 3.63466 2 3.92942 2 4.26502V15.265C2 15.5 2.11014 15.7214 2.29756 15.8632C2.48497 16.0049 2.728 16.0507 2.95412 15.9867C3.60361 15.803 4.28967 15.7045 5 15.7045C6.57884 15.7045 8.04208 16.1915 9.25 17.0239V4.26934Z" fill="black"/>
</svg>
