<svg width="20" height="21" viewBox="0 0 20 21" fill="none" xmlns="http://www.w3.org/2000/svg">
<path fill-rule="evenodd" clip-rule="evenodd" d="M4.25 2.20447C3.00736 2.20447 2 3.21183 2 4.45447V15.9545C2 17.1971 3.00736 18.2045 4.25 18.2045H15.75C16.9926 18.2045 18 17.1971 18 15.9545V4.45447C18 3.21183 16.9926 2.20447 15.75 2.20447H4.25ZM6 13.4545V3.70447H14V13.4545C14 13.7102 13.8697 13.9484 13.6542 14.0862C13.4388 14.2241 13.1679 14.2426 12.9357 14.1354L10 12.7805L7.06429 14.1354C6.83207 14.2426 6.56123 14.2241 6.34578 14.0862C6.13034 13.9484 6 13.7102 6 13.4545Z" fill="black"/>
</svg>
