<svg width="20" height="21" viewBox="0 0 20 21" fill="none" xmlns="http://www.w3.org/2000/svg">
<path fill-rule="evenodd" clip-rule="evenodd" d="M6 3.95447C6 2.43568 7.23122 1.20447 8.75 1.20447H11.25C12.7688 1.20447 14 2.43568 14 3.95447V4.39715C14.572 4.45255 15.1407 4.51971 15.7057 4.59838C17.0526 4.78596 18 5.95348 18 7.2747V10.743C18 11.8698 17.3058 12.9346 16.1705 13.2831C14.2185 13.8823 12.1462 14.2045 10 14.2045C7.8538 14.2045 5.78149 13.8823 3.82951 13.2831C2.69423 12.9346 2 11.8698 2 10.743V7.2747C2 5.95348 2.94737 4.78596 4.29435 4.59838C4.85933 4.51971 5.42796 4.45255 6 4.39715V3.95447ZM12.5 3.95447V4.27946C11.673 4.2297 10.8394 4.20447 10 4.20447C9.16061 4.20447 8.32704 4.2297 7.5 4.27946V3.95447C7.5 3.26411 8.05964 2.70447 8.75 2.70447H11.25C11.9404 2.70447 12.5 3.26411 12.5 3.95447ZM10 10.2045C9.44772 10.2045 9 10.6522 9 11.2045V11.2145C9 11.7668 9.44772 12.2145 10 12.2145H10.01C10.5623 12.2145 11.01 11.7668 11.01 11.2145V11.2045C11.01 10.6522 10.5623 10.2045 10.01 10.2045H10Z" fill="black"/>
<path d="M3 15.2597V14.5759C3.1256 14.6287 3.25542 14.6759 3.38933 14.717C5.48234 15.3595 7.70295 15.7045 10 15.7045C12.297 15.7045 14.5177 15.3595 16.6107 14.717C16.7446 14.6759 16.8744 14.6287 17 14.5759V15.2597C17 16.6069 16.0154 17.7898 14.6369 17.945C13.1147 18.1164 11.5675 18.2044 10 18.2044C8.43253 18.2044 6.88533 18.1164 5.36311 17.945C3.98461 17.7898 3 16.6069 3 15.2597Z" fill="black"/>
</svg>
