<svg width="20" height="21" viewBox="0 0 20 21" fill="none" xmlns="http://www.w3.org/2000/svg">
<path fill-rule="evenodd" clip-rule="evenodd" d="M6.56061 1.34394C6.8982 1.58395 6.9773 2.05219 6.73729 2.38978C6.54915 2.65441 6.39257 2.94263 6.27282 3.24903C6.45824 3.42 6.6554 3.57835 6.86291 3.72273C7.59496 2.79861 8.72765 2.20447 10 2.20447C11.2723 2.20447 12.405 2.79861 13.1371 3.72273C13.3446 3.57835 13.5418 3.41999 13.7272 3.24902C13.6074 2.94263 13.4509 2.65441 13.2627 2.38978C13.0227 2.05219 13.1018 1.58395 13.4394 1.34394C13.777 1.10393 14.2452 1.18303 14.4852 1.52062C14.8539 2.03918 15.1353 2.62501 15.3072 3.25642C15.3752 3.5063 15.3095 3.77359 15.1334 3.96347C14.7474 4.37975 14.3111 4.74907 13.8342 5.06183C13.9421 5.42437 14 5.80807 14 6.20447C14 6.72461 13.6988 7.16762 13.277 7.39144C12.9093 7.58657 12.5221 7.74987 12.1193 7.8777C12.2496 8.08542 12.3502 8.31364 12.4152 8.55645C13.8282 8.38197 15.194 8.0564 16.4961 7.59646C16.4987 7.46611 16.5 7.33545 16.5 7.20447C16.5 6.55405 16.4682 5.9113 16.4061 5.27764C16.3656 4.86541 16.6671 4.49846 17.0793 4.45804C17.4915 4.41763 17.8585 4.71905 17.8989 5.13129C17.9658 5.81351 18 6.5051 18 7.20447C18 7.52445 17.9928 7.84283 17.9787 8.15942C17.9653 8.45778 17.7762 8.71977 17.4972 8.82642C15.867 9.44966 14.1395 9.87556 12.3441 10.075C12.3126 10.1597 12.2767 10.2422 12.2367 10.3222C12.8138 10.3834 13.384 10.4679 13.9464 10.5748C15.1681 10.8072 16.3525 11.1454 17.4895 11.5795C17.7934 11.6956 17.9879 11.9945 17.9709 12.3194C17.8783 14.088 17.5668 15.7993 17.0628 17.4264C16.9402 17.8221 16.5201 18.0434 16.1244 17.9209C15.7287 17.7983 15.5074 17.3782 15.6299 16.9825C16.0452 15.642 16.3198 14.2393 16.4364 12.7915C15.941 12.6183 15.4366 12.4646 14.9239 12.3313C14.9739 12.615 15 12.9069 15 13.2045C15 15.0182 14.4833 16.5165 13.5738 17.5738C12.6592 18.6371 11.3874 19.2045 10 19.2045C8.61265 19.2045 7.34085 18.6371 6.42621 17.5738C5.51672 16.5165 5 15.0182 5 13.2045C5 12.9069 5.02608 12.615 5.07611 12.3313C4.56343 12.4646 4.05896 12.6183 3.56361 12.7915C3.68017 14.2393 3.95479 15.642 4.37006 16.9825C4.49264 17.3782 4.27125 17.7983 3.87559 17.9209C3.47993 18.0434 3.05982 17.8221 2.93724 17.4264C2.43318 15.7993 2.12168 14.088 2.02911 12.3194C2.0121 11.9945 2.20656 11.6956 2.51054 11.5795C3.6475 11.1454 4.83186 10.8072 6.05361 10.5748C6.61601 10.4679 7.18625 10.3834 7.76335 10.3222C7.72328 10.2422 7.68738 10.1597 7.65593 10.075C5.86054 9.87556 4.13298 9.44967 2.50277 8.82643C2.2238 8.71978 2.0347 8.45779 2.02134 8.15943C2.00716 7.84283 2 7.52446 2 7.20447C2 6.5051 2.03421 5.81351 2.1011 5.13129C2.14151 4.71905 2.50846 4.41763 2.9207 4.45804C3.33293 4.49846 3.63436 4.86541 3.59394 5.27764C3.53182 5.9113 3.5 6.55405 3.5 7.20447C3.5 7.33545 3.50129 7.46612 3.50386 7.59646C4.80604 8.0564 6.17184 8.38198 7.5848 8.55645C7.64979 8.31364 7.75041 8.08542 7.88072 7.8777C7.47789 7.74987 7.09072 7.58657 6.72298 7.39144C6.30121 7.16762 6 6.72461 6 6.20447C6 5.80807 6.05787 5.42437 6.16579 5.06183C5.68885 4.74907 5.25263 4.37974 4.86656 3.96347C4.69045 3.77359 4.62477 3.5063 4.69281 3.25642C4.86474 2.62501 5.14609 2.03918 5.51477 1.52062C5.75478 1.18303 6.22302 1.10393 6.56061 1.34394Z" fill="black"/>
</svg>
