<svg width="20" height="21" viewBox="0 0 20 21" fill="none" xmlns="http://www.w3.org/2000/svg">
<path fill-rule="evenodd" clip-rule="evenodd" d="M1 2.95447C1 2.54025 1.33579 2.20447 1.75 2.20447H12.25C12.6642 2.20447 13 2.54025 13 2.95447C13 3.36868 12.6642 3.70447 12.25 3.70447H12V17.4545C12 17.8687 11.6642 18.2045 11.25 18.2045H9.75C9.33579 18.2045 9 17.8687 9 17.4545V14.9545C9 14.5403 8.66421 14.2045 8.25 14.2045H5.75C5.33579 14.2045 5 14.5403 5 14.9545V17.4545C5 17.8687 4.66421 18.2045 4.25 18.2045H1.75C1.33579 18.2045 1 17.8687 1 17.4545C1 17.0403 1.33579 16.7045 1.75 16.7045H2V3.70447H1.75C1.33579 3.70447 1 3.36868 1 2.95447ZM4 5.70447C4 5.42833 4.22386 5.20447 4.5 5.20447H5.5C5.77614 5.20447 6 5.42833 6 5.70447V6.70447C6 6.98061 5.77614 7.20447 5.5 7.20447H4.5C4.22386 7.20447 4 6.98061 4 6.70447V5.70447ZM4.5 9.20447C4.22386 9.20447 4 9.42833 4 9.70447V10.7045C4 10.9806 4.22386 11.2045 4.5 11.2045H5.5C5.77614 11.2045 6 10.9806 6 10.7045V9.70447C6 9.42833 5.77614 9.20447 5.5 9.20447H4.5ZM8 5.70447C8 5.42833 8.22386 5.20447 8.5 5.20447H9.5C9.77614 5.20447 10 5.42833 10 5.70447V6.70447C10 6.98061 9.77614 7.20447 9.5 7.20447H8.5C8.22386 7.20447 8 6.98061 8 6.70447V5.70447ZM8.5 9.20447C8.22386 9.20447 8 9.42833 8 9.70447V10.7045C8 10.9806 8.22386 11.2045 8.5 11.2045H9.5C9.77614 11.2045 10 10.9806 10 10.7045V9.70447C10 9.42833 9.77614 9.20447 9.5 9.20447H8.5Z" fill="black"/>
<path fill-rule="evenodd" clip-rule="evenodd" d="M14.25 6.20447C13.8358 6.20447 13.5 6.54025 13.5 6.95447V17.2045C13.5 17.7568 13.9477 18.2045 14.5 18.2045H18.25C18.6642 18.2045 19 17.8687 19 17.4545C19 17.0403 18.6642 16.7045 18.25 16.7045H18V7.70447H18.25C18.6642 7.70447 19 7.36868 19 6.95447C19 6.54025 18.6642 6.20447 18.25 6.20447H14.25ZM14.75 9.70447C14.75 9.42833 14.9739 9.20447 15.25 9.20447H16.25C16.5261 9.20447 16.75 9.42833 16.75 9.70447V10.7045C16.75 10.9806 16.5261 11.2045 16.25 11.2045H15.25C14.9739 11.2045 14.75 10.9806 14.75 10.7045V9.70447ZM15.25 13.2045C14.9739 13.2045 14.75 13.4283 14.75 13.7045V14.7045C14.75 14.9806 14.9739 15.2045 15.25 15.2045H16.25C16.5261 15.2045 16.75 14.9806 16.75 14.7045V13.7045C16.75 13.4283 16.5261 13.2045 16.25 13.2045H15.25Z" fill="black"/>
</svg>
