<svg width="20" height="21" viewBox="0 0 20 21" fill="none" xmlns="http://www.w3.org/2000/svg">
<path fill-rule="evenodd" clip-rule="evenodd" d="M4 16.7045V3.70447H3.75C3.33579 3.70447 3 3.36868 3 2.95447C3 2.54025 3.33579 2.20447 3.75 2.20447H16.25C16.6642 2.20447 17 2.54025 17 2.95447C17 3.36868 16.6642 3.70447 16.25 3.70447H16V16.7045H16.25C16.6642 16.7045 17 17.0403 17 17.4545C17 17.8687 16.6642 18.2045 16.25 18.2045H12.75C12.3358 18.2045 12 17.8687 12 17.4545V14.9545C12 14.5403 11.6642 14.2045 11.25 14.2045H8.75C8.33579 14.2045 8 14.5403 8 14.9545V17.4545C8 17.8687 7.66421 18.2045 7.25 18.2045H3.75C3.33579 18.2045 3 17.8687 3 17.4545C3 17.0403 3.33579 16.7045 3.75 16.7045H4ZM7 5.70447C7 5.42833 7.22386 5.20447 7.5 5.20447H8.5C8.77614 5.20447 9 5.42833 9 5.70447V6.70447C9 6.98061 8.77614 7.20447 8.5 7.20447H7.5C7.22386 7.20447 7 6.98061 7 6.70447V5.70447ZM7.5 9.20447C7.22386 9.20447 7 9.42833 7 9.70447V10.7045C7 10.9806 7.22386 11.2045 7.5 11.2045H8.5C8.77614 11.2045 9 10.9806 9 10.7045V9.70447C9 9.42833 8.77614 9.20447 8.5 9.20447H7.5ZM11 5.70447C11 5.42833 11.2239 5.20447 11.5 5.20447H12.5C12.7761 5.20447 13 5.42833 13 5.70447V6.70447C13 6.98061 12.7761 7.20447 12.5 7.20447H11.5C11.2239 7.20447 11 6.98061 11 6.70447V5.70447ZM11.5 9.20447C11.2239 9.20447 11 9.42833 11 9.70447V10.7045C11 10.9806 11.2239 11.2045 11.5 11.2045H12.5C12.7761 11.2045 13 10.9806 13 10.7045V9.70447C13 9.42833 12.7761 9.20447 12.5 9.20447H11.5Z" fill="black"/>
</svg>
