<svg width="20" height="21" viewBox="0 0 20 21" fill="none" xmlns="http://www.w3.org/2000/svg">
<path fill-rule="evenodd" clip-rule="evenodd" d="M9.67411 2.27905C9.88011 2.17961 10.1202 2.17961 10.3262 2.27905L17.5762 5.77905C17.9493 5.95913 18.1057 6.40751 17.9256 6.78053C17.7576 7.1285 17.3561 7.28798 17.0002 7.16164V16.7045H17.2502C17.6644 16.7045 18.0002 17.0403 18.0002 17.4545C18.0002 17.8687 17.6644 18.2045 17.2502 18.2045H2.75017C2.33596 18.2045 2.00017 17.8687 2.00017 17.4545C2.00017 17.0403 2.33596 16.7045 2.75017 16.7045H3.00017V7.16164C2.6442 7.28798 2.24274 7.1285 2.07476 6.78053C1.89468 6.40751 2.05109 5.95913 2.42411 5.77905L9.67411 2.27905ZM11 6.20447C11 6.75675 10.5523 7.20447 10 7.20447C9.44772 7.20447 9 6.75675 9 6.20447C9 5.65218 9.44772 5.20447 10 5.20447C10.5523 5.20447 11 5.65218 11 6.20447ZM7.5 9.95447C7.5 9.54025 7.16421 9.20447 6.75 9.20447C6.33579 9.20447 6 9.54025 6 9.95447V15.4545C6 15.8687 6.33579 16.2045 6.75 16.2045C7.16421 16.2045 7.5 15.8687 7.5 15.4545V9.95447ZM10.75 9.95447C10.75 9.54025 10.4142 9.20447 10 9.20447C9.58579 9.20447 9.25 9.54025 9.25 9.95447V15.4545C9.25 15.8687 9.58579 16.2045 10 16.2045C10.4142 16.2045 10.75 15.8687 10.75 15.4545V9.95447ZM14 9.95447C14 9.54025 13.6642 9.20447 13.25 9.20447C12.8358 9.20447 12.5 9.54025 12.5 9.95447V15.4545C12.5 15.8687 12.8358 16.2045 13.25 16.2045C13.6642 16.2045 14 15.8687 14 15.4545V9.95447Z" fill="black"/>
</svg>
