<svg width="20" height="21" viewBox="0 0 20 21" fill="none" xmlns="http://www.w3.org/2000/svg">
<path d="M2.87868 7.32553C4.05025 8.4971 5.94975 8.4971 7.12132 7.32553C7.26529 7.18156 7.39156 7.0266 7.50015 6.86335C8.03763 7.67158 8.95661 8.20424 10 8.20424C11.0435 8.20424 11.9626 7.67144 12.5001 6.86303C12.6087 7.02641 12.7351 7.18149 12.8791 7.32556C14.0507 8.49713 15.9502 8.49713 17.1218 7.32556C18.2933 6.15399 18.2933 4.25449 17.1218 3.08292L16.8291 2.79025C16.454 2.41518 15.9453 2.20447 15.4149 2.20447H4.58552C4.05509 2.20447 3.54638 2.41518 3.17131 2.79025L2.87868 3.08289C1.70711 4.25446 1.70711 6.15395 2.87868 7.32553Z" fill="black"/>
<path d="M3 9.23669C4.42799 9.94514 6.15393 9.84842 7.50057 8.94651C8.21499 9.42454 9.07471 9.70424 10 9.70424C10.9254 9.70424 11.7852 9.42449 12.4996 8.94638C13.8462 9.84834 15.572 9.9452 17 9.23695V16.7045H17.25C17.6642 16.7045 18 17.0403 18 17.4545C18 17.8687 17.6642 18.2045 17.25 18.2045H12.75C12.3358 18.2045 12 17.8687 12 17.4545V13.9545C12 13.5403 11.6642 13.2045 11.25 13.2045H8.75C8.33579 13.2045 8 13.5403 8 13.9545V17.4545C8 17.8687 7.66421 18.2045 7.25 18.2045H2.75C2.33579 18.2045 2 17.8687 2 17.4545C2 17.0403 2.33579 16.7045 2.75 16.7045H3V9.23669Z" fill="black"/>
</svg>
