<svg width="20" height="21" viewBox="0 0 20 21" fill="none" xmlns="http://www.w3.org/2000/svg">
<path d="M6.74999 1.18384L5.86612 2.06773C5.37796 2.55589 5.37796 3.34734 5.86612 3.8355C6.35427 4.32365 7.14573 4.32365 7.63388 3.8355C8.12204 3.34734 8.12204 2.55589 7.63388 2.06773L6.74999 1.18384Z" fill="black"/>
<path d="M13.25 1.18384L12.3661 2.06773C11.878 2.55589 11.878 3.34734 12.3661 3.8355C12.8543 4.32365 13.6457 4.32365 14.1339 3.8355C14.622 3.34734 14.622 2.55589 14.1339 2.06773L13.25 1.18384Z" fill="black"/>
<path d="M9.99999 1.18384L10.8839 2.06773C11.372 2.55589 11.372 3.34734 10.8839 3.8355C10.3957 4.32365 9.60427 4.32365 9.11612 3.8355C8.62796 3.34734 8.62796 2.55589 9.11612 2.06773L9.99999 1.18384Z" fill="black"/>
<path d="M7.5 5.9545C7.5 5.54028 7.16421 5.2045 6.75 5.2045C6.33579 5.2045 6 5.54028 6 5.9545V6.41829C4.82122 6.72296 4 7.80882 4 9.0402V9.13471C4.10036 9.1141 4.20229 9.09679 4.30573 9.08293C6.16935 8.83326 8.07023 8.7045 10 8.7045C11.9298 8.7045 13.8306 8.83326 15.6943 9.08293C15.7977 9.09679 15.8996 9.1141 16 9.13471V9.0402C16 7.80882 15.1788 6.72296 14 6.41829V5.9545C14 5.54028 13.6642 5.2045 13.25 5.2045C12.8358 5.2045 12.5 5.54028 12.5 5.9545V6.27279C11.9195 6.24099 11.3361 6.2202 10.75 6.21062V5.9545C10.75 5.54028 10.4142 5.2045 10 5.2045C9.58579 5.2045 9.25 5.54028 9.25 5.9545V6.21062C8.66391 6.2202 8.08051 6.24099 7.5 6.27279V5.9545Z" fill="black"/>
<path d="M4.50491 10.5697C6.30269 10.3288 8.13702 10.2045 10 10.2045C11.863 10.2045 13.6973 10.3288 15.4951 10.5697C16.9666 10.7668 18 12.0423 18 13.4834V14.1766C17.4297 14.1766 16.8594 14.0456 16.3354 13.7837C14.8652 13.0486 13.1348 13.0486 11.6646 13.7837C10.6167 14.3076 9.38329 14.3076 8.33541 13.7837C6.86524 13.0486 5.13476 13.0486 3.66459 13.7837C3.14065 14.0456 2.57032 14.1766 2 14.1766V13.4834C2 12.0423 3.03337 10.7668 4.50491 10.5697Z" fill="black"/>
<path d="M15.6646 15.1253C16.3997 15.4929 17.1998 15.6766 18 15.6766V16.7045C18 17.5329 17.3284 18.2045 16.5 18.2045H3.5C2.67157 18.2045 2 17.5329 2 16.7045V15.6766C2.80016 15.6766 3.60032 15.4929 4.33541 15.1253C5.38329 14.6014 6.61671 14.6014 7.66459 15.1253C9.13476 15.8604 10.8652 15.8604 12.3354 15.1253C13.3833 14.6014 14.6167 14.6014 15.6646 15.1253Z" fill="black"/>
</svg>
