<svg width="20" height="21" viewBox="0 0 20 21" fill="none" xmlns="http://www.w3.org/2000/svg">
<path fill-rule="evenodd" clip-rule="evenodd" d="M10 1.20447C8.28365 1.20447 6.5916 1.30997 4.93005 1.51492C3.80579 1.6536 3 2.6182 3 3.72108V16.9545C3 18.1971 4.00736 19.2045 5.25 19.2045H14.75C15.9926 19.2045 17 18.1971 17 16.9545V3.72108C17 2.61821 16.1942 1.6536 15.07 1.51492C13.4084 1.30997 11.7163 1.20447 10 1.20447ZM5.99023 8.95447C5.99023 8.54025 6.32602 8.20447 6.74023 8.20447H6.75023C7.16445 8.20447 7.50023 8.54025 7.50023 8.95447V8.96447C7.50023 9.37868 7.16445 9.71447 6.75023 9.71447H6.74023C6.32602 9.71447 5.99023 9.37868 5.99023 8.96447V8.95447ZM6.74023 10.3711C6.32602 10.3711 5.99023 10.7069 5.99023 11.1211V11.1311C5.99023 11.5453 6.32602 11.8811 6.74023 11.8811H6.75023C7.16445 11.8811 7.50023 11.5453 7.50023 11.1311V11.1211C7.50023 10.7069 7.16445 10.3711 6.75023 10.3711H6.74023ZM5.99023 13.2877C5.99023 12.8735 6.32602 12.5377 6.74023 12.5377H6.75023C7.16445 12.5377 7.50023 12.8735 7.50023 13.2877V13.2977C7.50023 13.7119 7.16445 14.0477 6.75023 14.0477H6.74023C6.32602 14.0477 5.99023 13.7119 5.99023 13.2977V13.2877ZM6.74023 14.7043C6.32602 14.7043 5.99023 15.0401 5.99023 15.4543V15.4643C5.99023 15.8786 6.32602 16.2143 6.74023 16.2143H6.75023C7.16445 16.2143 7.50023 15.8786 7.50023 15.4643V15.4543C7.50023 15.0401 7.16445 14.7043 6.75023 14.7043H6.74023ZM8.15691 8.95447C8.15691 8.54025 8.49269 8.20447 8.90691 8.20447H8.91691C9.33112 8.20447 9.66691 8.54025 9.66691 8.95447V8.96447C9.66691 9.37868 9.33112 9.71447 8.91691 9.71447H8.90691C8.49269 9.71447 8.15691 9.37868 8.15691 8.96447V8.95447ZM8.90691 10.3711C8.49269 10.3711 8.15691 10.7069 8.15691 11.1211V11.1311C8.15691 11.5453 8.49269 11.8811 8.90691 11.8811H8.91691C9.33112 11.8811 9.66691 11.5453 9.66691 11.1311V11.1211C9.66691 10.7069 9.33112 10.3711 8.91691 10.3711H8.90691ZM8.15691 13.2877C8.15691 12.8735 8.49269 12.5377 8.90691 12.5377H8.91691C9.33112 12.5377 9.66691 12.8735 9.66691 13.2877V13.2977C9.66691 13.7119 9.33112 14.0477 8.91691 14.0477H8.90691C8.49269 14.0477 8.15691 13.7119 8.15691 13.2977V13.2877ZM8.90691 14.7043C8.49269 14.7043 8.15691 15.0401 8.15691 15.4543V15.4643C8.15691 15.8786 8.49269 16.2143 8.90691 16.2143H8.91691C9.33112 16.2143 9.66691 15.8786 9.66691 15.4643V15.4543C9.66691 15.0401 9.33112 14.7043 8.91691 14.7043H8.90691ZM10.3269 8.95447C10.3269 8.54025 10.6627 8.20447 11.0769 8.20447H11.0869C11.5011 8.20447 11.8369 8.54025 11.8369 8.95447V8.96447C11.8369 9.37868 11.5011 9.71447 11.0869 9.71447H11.0769C10.6627 9.71447 10.3269 9.37868 10.3269 8.96447V8.95447ZM11.0769 10.3711C10.6627 10.3711 10.3269 10.7069 10.3269 11.1211V11.1311C10.3269 11.5453 10.6627 11.8811 11.0769 11.8811H11.0869C11.5011 11.8811 11.8369 11.5453 11.8369 11.1311V11.1211C11.8369 10.7069 11.5011 10.3711 11.0869 10.3711H11.0769ZM10.3269 13.2877C10.3269 12.8735 10.6627 12.5377 11.0769 12.5377H11.0869C11.5011 12.5377 11.8369 12.8735 11.8369 13.2877V13.2977C11.8369 13.7119 11.5011 14.0477 11.0869 14.0477H11.0769C10.6627 14.0477 10.3269 13.7119 10.3269 13.2977V13.2877ZM11.0769 14.7043C10.6627 14.7043 10.3269 15.0401 10.3269 15.4543V15.4643C10.3269 15.8786 10.6627 16.2143 11.0769 16.2143H11.0869C11.5011 16.2143 11.8369 15.8786 11.8369 15.4643V15.4543C11.8369 15.0401 11.5011 14.7043 11.0869 14.7043H11.0769ZM12.5002 8.95447C12.5002 8.54025 12.836 8.20447 13.2502 8.20447H13.2602C13.6744 8.20447 14.0102 8.54025 14.0102 8.95447V8.96447C14.0102 9.37868 13.6744 9.71447 13.2602 9.71447H13.2502C12.836 9.71447 12.5002 9.37868 12.5002 8.96447V8.95447ZM13.2502 10.3711C12.836 10.3711 12.5002 10.7069 12.5002 11.1211V11.1311C12.5002 11.5453 12.836 11.8811 13.2502 11.8811H13.2602C13.6744 11.8811 14.0102 11.5453 14.0102 11.1311V11.1211C14.0102 10.7069 13.6744 10.3711 13.2602 10.3711H13.2502ZM13.2502 12.5378C13.6644 12.5378 14.0002 12.8736 14.0002 13.2878V15.4545C14.0002 15.8687 13.6644 16.2045 13.2502 16.2045C12.836 16.2045 12.5002 15.8687 12.5002 15.4545V13.2878C12.5002 12.8736 12.836 12.5378 13.2502 12.5378ZM6.75 4.20447C6.33579 4.20447 6 4.54025 6 4.95447V5.45447C6 5.86868 6.33579 6.20447 6.75 6.20447H13.25C13.6642 6.20447 14 5.86868 14 5.45447V4.95447C14 4.54025 13.6642 4.20447 13.25 4.20447H6.75Z" fill="black"/>
</svg>
