<svg width="20" height="21" viewBox="0 0 20 21" fill="none" xmlns="http://www.w3.org/2000/svg">
<path d="M5.25 12.2045C5.25 11.7903 5.58579 11.4545 6 11.4545H6.01C6.42421 11.4545 6.76 11.7903 6.76 12.2045V12.2145C6.76 12.6287 6.42421 12.9645 6.01 12.9645H6C5.58579 12.9645 5.25 12.6287 5.25 12.2145V12.2045Z" fill="black"/>
<path d="M6 13.4545C5.58579 13.4545 5.25 13.7903 5.25 14.2045V14.2145C5.25 14.6287 5.58579 14.9645 6 14.9645H6.01C6.42421 14.9645 6.76 14.6287 6.76 14.2145V14.2045C6.76 13.7903 6.42421 13.4545 6.01 13.4545H6Z" fill="black"/>
<path d="M7.25 12.2045C7.25 11.7903 7.58579 11.4545 8 11.4545H8.01C8.42421 11.4545 8.76 11.7903 8.76 12.2045V12.2145C8.76 12.6287 8.42421 12.9645 8.01 12.9645H8C7.58579 12.9645 7.25 12.6287 7.25 12.2145V12.2045Z" fill="black"/>
<path d="M8 13.4545C7.58579 13.4545 7.25 13.7903 7.25 14.2045V14.2145C7.25 14.6287 7.58579 14.9645 8 14.9645H8.01C8.42421 14.9645 8.76 14.6287 8.76 14.2145V14.2045C8.76 13.7903 8.42421 13.4545 8.01 13.4545H8Z" fill="black"/>
<path d="M9.25 10.2045C9.25 9.79025 9.58579 9.45447 10 9.45447H10.01C10.4242 9.45447 10.76 9.79025 10.76 10.2045V10.2145C10.76 10.6287 10.4242 10.9645 10.01 10.9645H10C9.58579 10.9645 9.25 10.6287 9.25 10.2145V10.2045Z" fill="black"/>
<path d="M10 11.4545C9.58579 11.4545 9.25 11.7903 9.25 12.2045V12.2145C9.25 12.6287 9.58579 12.9645 10 12.9645H10.01C10.4242 12.9645 10.76 12.6287 10.76 12.2145V12.2045C10.76 11.7903 10.4242 11.4545 10.01 11.4545H10Z" fill="black"/>
<path d="M9.25 14.2045C9.25 13.7903 9.58579 13.4545 10 13.4545H10.01C10.4242 13.4545 10.76 13.7903 10.76 14.2045V14.2145C10.76 14.6287 10.4242 14.9645 10.01 14.9645H10C9.58579 14.9645 9.25 14.6287 9.25 14.2145V14.2045Z" fill="black"/>
<path d="M12 9.45447C11.5858 9.45447 11.25 9.79025 11.25 10.2045V10.2145C11.25 10.6287 11.5858 10.9645 12 10.9645H12.01C12.4242 10.9645 12.76 10.6287 12.76 10.2145V10.2045C12.76 9.79025 12.4242 9.45447 12.01 9.45447H12Z" fill="black"/>
<path d="M11.25 12.2045C11.25 11.7903 11.5858 11.4545 12 11.4545H12.01C12.4242 11.4545 12.76 11.7903 12.76 12.2045V12.2145C12.76 12.6287 12.4242 12.9645 12.01 12.9645H12C11.5858 12.9645 11.25 12.6287 11.25 12.2145V12.2045Z" fill="black"/>
<path d="M12 13.4545C11.5858 13.4545 11.25 13.7903 11.25 14.2045V14.2145C11.25 14.6287 11.5858 14.9645 12 14.9645H12.01C12.4242 14.9645 12.76 14.6287 12.76 14.2145V14.2045C12.76 13.7903 12.4242 13.4545 12.01 13.4545H12Z" fill="black"/>
<path d="M13.25 10.2045C13.25 9.79025 13.5858 9.45447 14 9.45447H14.01C14.4242 9.45447 14.76 9.79025 14.76 10.2045V10.2145C14.76 10.6287 14.4242 10.9645 14.01 10.9645H14C13.5858 10.9645 13.25 10.6287 13.25 10.2145V10.2045Z" fill="black"/>
<path d="M14 11.4545C13.5858 11.4545 13.25 11.7903 13.25 12.2045V12.2145C13.25 12.6287 13.5858 12.9645 14 12.9645H14.01C14.4242 12.9645 14.76 12.6287 14.76 12.2145V12.2045C14.76 11.7903 14.4242 11.4545 14.01 11.4545H14Z" fill="black"/>
<path fill-rule="evenodd" clip-rule="evenodd" d="M5.75 2.20447C6.16421 2.20447 6.5 2.54025 6.5 2.95447V4.20447H13.5V2.95447C13.5 2.54025 13.8358 2.20447 14.25 2.20447C14.6642 2.20447 15 2.54025 15 2.95447V4.20447H15.25C16.7688 4.20447 18 5.43568 18 6.95447V15.4545C18 16.9733 16.7688 18.2045 15.25 18.2045H4.75C3.23122 18.2045 2 16.9733 2 15.4545V6.95447C2 5.43569 3.23122 4.20447 4.75 4.20447H5V2.95447C5 2.54025 5.33579 2.20447 5.75 2.20447ZM4.75 7.70447C4.05964 7.70447 3.5 8.26411 3.5 8.95447V15.4545C3.5 16.1448 4.05964 16.7045 4.75 16.7045H15.25C15.9404 16.7045 16.5 16.1448 16.5 15.4545V8.95447C16.5 8.26411 15.9404 7.70447 15.25 7.70447H4.75Z" fill="black"/>
</svg>
