<svg width="20" height="21" viewBox="0 0 20 21" fill="none" xmlns="http://www.w3.org/2000/svg">
<path fill-rule="evenodd" clip-rule="evenodd" d="M5.75 2.20447C6.16421 2.20447 6.5 2.54025 6.5 2.95447V4.20447H13.5V2.95447C13.5 2.54025 13.8358 2.20447 14.25 2.20447C14.6642 2.20447 15 2.54025 15 2.95447V4.20447H15.25C16.7688 4.20447 18 5.43568 18 6.95447V15.4545C18 16.9733 16.7688 18.2045 15.25 18.2045H4.75C3.23122 18.2045 2 16.9733 2 15.4545V6.95447C2 5.43569 3.23122 4.20447 4.75 4.20447H5V2.95447C5 2.54025 5.33579 2.20447 5.75 2.20447ZM4.75 7.70447C4.05964 7.70447 3.5 8.26411 3.5 8.95447V15.4545C3.5 16.1448 4.05964 16.7045 4.75 16.7045H15.25C15.9404 16.7045 16.5 16.1448 16.5 15.4545V8.95447C16.5 8.26411 15.9404 7.70447 15.25 7.70447H4.75Z" fill="black"/>
</svg>
