<svg width="20" height="21" viewBox="0 0 20 21" fill="none" xmlns="http://www.w3.org/2000/svg">
<path fill-rule="evenodd" clip-rule="evenodd" d="M1 8.20447C1 7.0999 1.89543 6.20447 3 6.20447H3.92963C4.59834 6.20447 5.2228 5.87027 5.59373 5.31387L6.40627 4.09507C6.7772 3.53867 7.40166 3.20447 8.07037 3.20447H11.9296C12.5983 3.20447 13.2228 3.53867 13.5937 4.09507L14.4063 5.31387C14.7772 5.87027 15.4017 6.20447 16.0704 6.20447H17C18.1046 6.20447 19 7.0999 19 8.20447V15.2045C19 16.309 18.1046 17.2045 17 17.2045H3C1.89543 17.2045 1 16.309 1 15.2045V8.20447ZM14.5 11.2045C14.5 13.6897 12.4853 15.7045 10 15.7045C7.51472 15.7045 5.5 13.6897 5.5 11.2045C5.5 8.71919 7.51472 6.70447 10 6.70447C12.4853 6.70447 14.5 8.71919 14.5 11.2045ZM10 14.2045C11.6569 14.2045 13 12.8613 13 11.2045C13 9.54761 11.6569 8.20447 10 8.20447C8.34315 8.20447 7 9.54761 7 11.2045C7 12.8613 8.34315 14.2045 10 14.2045Z" fill="black"/>
</svg>
