<svg width="20" height="21" viewBox="0 0 20 21" fill="none" xmlns="http://www.w3.org/2000/svg">
<path d="M15.5 2.20447C14.6716 2.20447 14 2.87604 14 3.70447V16.7045C14 17.5329 14.6716 18.2045 15.5 18.2045H16.5C17.3284 18.2045 18 17.5329 18 16.7045V3.70447C18 2.87604 17.3284 2.20447 16.5 2.20447H15.5Z" fill="black"/>
<path d="M9.5 6.20447C8.67157 6.20447 8 6.87604 8 7.70447V16.7045C8 17.5329 8.67157 18.2045 9.5 18.2045H10.5C11.3284 18.2045 12 17.5329 12 16.7045V7.70447C12 6.87604 11.3284 6.20447 10.5 6.20447H9.5Z" fill="black"/>
<path d="M3.5 10.2045C2.67157 10.2045 2 10.876 2 11.7045V16.7045C2 17.5329 2.67157 18.2045 3.5 18.2045H4.5C5.32843 18.2045 6 17.5329 6 16.7045V11.7045C6 10.876 5.32843 10.2045 4.5 10.2045H3.5Z" fill="black"/>
</svg>
