<svg width="20" height="21" viewBox="0 0 20 21" fill="none" xmlns="http://www.w3.org/2000/svg">
<path d="M12 9.2045C11.4477 9.2045 11 8.75678 11 8.2045V3.2045C11 2.65222 11.4503 2.197 11.997 2.27496C15.0651 2.71248 17.492 5.13938 17.9295 8.20747C18.0075 8.75422 17.5523 9.2045 17 9.2045H12Z" fill="black"/>
<path d="M8.00297 4.27496C8.54972 4.197 9 4.65222 9 5.2045V10.2045C9 10.7568 9.44772 11.2045 10 11.2045H15C15.5523 11.2045 16.0075 11.6548 15.9295 12.2015C15.4456 15.5953 12.5275 18.2045 9 18.2045C5.13401 18.2045 2 15.0705 2 11.2045C2 7.677 4.60923 4.75892 8.00297 4.27496Z" fill="black"/>
</svg>
