<svg width="20" height="21" viewBox="0 0 20 21" fill="none" xmlns="http://www.w3.org/2000/svg">
<path fill-rule="evenodd" clip-rule="evenodd" d="M4.25 2.20447C3.00736 2.20447 2 3.21183 2 4.45447V15.9545C2 17.1971 3.00736 18.2045 4.25 18.2045H15.75C16.9926 18.2045 18 17.1971 18 15.9545V4.45447C18 3.21183 16.9926 2.20447 15.75 2.20447H4.25ZM15 5.95447C15 5.54025 14.6642 5.20447 14.25 5.20447C13.8358 5.20447 13.5 5.54025 13.5 5.95447V14.4545C13.5 14.8687 13.8358 15.2045 14.25 15.2045C14.6642 15.2045 15 14.8687 15 14.4545V5.95447ZM6.5 11.9545C6.5 11.5403 6.16421 11.2045 5.75 11.2045C5.33579 11.2045 5 11.5403 5 11.9545V14.4545C5 14.8687 5.33579 15.2045 5.75 15.2045C6.16421 15.2045 6.5 14.8687 6.5 14.4545V11.9545ZM8.5835 9.20447C8.99771 9.20447 9.3335 9.54025 9.3335 9.95447V14.4545C9.3335 14.8687 8.99771 15.2045 8.5835 15.2045C8.16928 15.2045 7.8335 14.8687 7.8335 14.4545V9.95447C7.8335 9.54025 8.16928 9.20447 8.5835 9.20447ZM12.1636 7.95447C12.1636 7.54025 11.8278 7.20447 11.4136 7.20447C10.9994 7.20447 10.6636 7.54025 10.6636 7.95447V14.4545C10.6636 14.8687 10.9994 15.2045 11.4136 15.2045C11.8278 15.2045 12.1636 14.8687 12.1636 14.4545V7.95447Z" fill="black"/>
</svg>
