<svg width="20" height="21" viewBox="0 0 20 21" fill="none" xmlns="http://www.w3.org/2000/svg">
<path fill-rule="evenodd" clip-rule="evenodd" d="M3.42976 2.72821C5.56943 2.38352 7.76407 2.20447 10 2.20447C12.2359 2.20447 14.4306 2.38352 16.5702 2.72821C18.0066 2.9596 19 4.21772 19 5.63035V10.7786C19 12.1912 18.0066 13.4493 16.5702 13.6807C14.8747 13.9539 13.1447 14.123 11.3869 14.1814C11.1832 14.1882 10.9953 14.2699 10.8594 14.4057L7.28033 17.9848C7.06583 18.1993 6.74324 18.2635 6.46299 18.1474C6.18273 18.0313 6 17.7578 6 17.4545V14.0118C5.13517 13.928 4.27814 13.8174 3.42976 13.6807C1.99339 13.4493 1 12.1912 1 10.7786V5.63035C1 4.21772 1.99339 2.9596 3.42976 2.72821Z" fill="black"/>
</svg>
