<svg width="20" height="21" viewBox="0 0 20 21" fill="none" xmlns="http://www.w3.org/2000/svg">
<path fill-rule="evenodd" clip-rule="evenodd" d="M10 2.20447C7.76407 2.20447 5.56943 2.38352 3.42976 2.72821C1.99339 2.9596 1 4.21772 1 5.63035V10.7786C1 12.1912 1.99339 13.4493 3.42976 13.6807C4.27814 13.8174 5.13517 13.928 6 14.0118V17.4545C6 17.7578 6.18273 18.0313 6.46299 18.1474C6.74324 18.2635 7.06583 18.1993 7.28033 17.9848L10.8594 14.4057C10.9953 14.2699 11.1832 14.1882 11.3869 14.1814C13.1447 14.123 14.8747 13.9539 16.5702 13.6807C18.0066 13.4493 19 12.1912 19 10.7786V5.63035C19 4.21772 18.0066 2.9596 16.5702 2.72821C14.4306 2.38352 12.2359 2.20447 10 2.20447ZM10 9.20447C10.5523 9.20447 11 8.75675 11 8.20447C11 7.65218 10.5523 7.20447 10 7.20447C9.44771 7.20447 9 7.65218 9 8.20447C9 8.75675 9.44771 9.20447 10 9.20447ZM8 8.20447C8 8.75675 7.55228 9.20447 7 9.20447C6.44772 9.20447 6 8.75675 6 8.20447C6 7.65218 6.44772 7.20447 7 7.20447C7.55228 7.20447 8 7.65218 8 8.20447ZM13 9.20447C13.5523 9.20447 14 8.75675 14 8.20447C14 7.65218 13.5523 7.20447 13 7.20447C12.4477 7.20447 12 7.65218 12 8.20447C12 8.75675 12.4477 9.20447 13 9.20447Z" fill="black"/>
</svg>
