<svg width="20" height="21" viewBox="0 0 20 21" fill="none" xmlns="http://www.w3.org/2000/svg">
<path fill-rule="evenodd" clip-rule="evenodd" d="M3.42976 2.72821C5.56943 2.38352 7.76407 2.20447 10 2.20447C12.2359 2.20447 14.4306 2.38352 16.5702 2.72821C18.0066 2.9596 19 4.21772 19 5.63035V10.7786C19 12.1912 18.0066 13.4493 16.5702 13.6807C15.4024 13.8689 14.2181 14.0077 13.0196 14.0949C12.7399 14.1153 12.4988 14.2747 12.3775 14.508L10.6654 17.8005C10.5363 18.0487 10.2798 18.2045 10 18.2045C9.7202 18.2045 9.46367 18.0487 9.33459 17.8005L7.62247 14.508C7.5012 14.2747 7.2601 14.1153 6.9804 14.0949C5.78193 14.0077 4.59764 13.8689 3.42976 13.6807C1.99338 13.4493 1 12.1912 1 10.7786V5.63035C1 4.21772 1.99339 2.9596 3.42976 2.72821Z" fill="black"/>
</svg>
