<svg width="20" height="21" viewBox="0 0 20 21" fill="none" xmlns="http://www.w3.org/2000/svg">
<path fill-rule="evenodd" clip-rule="evenodd" d="M2 10.2045C2 6.23787 5.69006 3.20447 10 3.20447C14.3099 3.20447 18 6.23787 18 10.2045C18 14.1711 14.3099 17.2045 10 17.2045C9.48658 17.2045 8.98381 17.1622 8.49617 17.0811C7.51177 17.7879 6.3037 18.2045 5 18.2045C4.85237 18.2045 4.70585 18.1991 4.56065 18.1886C4.29888 18.1696 4.06608 18.0152 3.9468 17.7814C3.82753 17.5476 3.83914 17.2685 3.97742 17.0454C4.29476 16.5335 4.48371 15.9339 4.49899 15.2893C2.97849 14.0297 2 12.2289 2 10.2045Z" fill="black"/>
</svg>
