<svg width="20" height="21" viewBox="0 0 20 21" fill="none" xmlns="http://www.w3.org/2000/svg">
<path fill-rule="evenodd" clip-rule="evenodd" d="M10 3.20447C5.69006 3.20447 2 6.23787 2 10.2045C2 12.2289 2.97849 14.0297 4.49899 15.2893C4.48371 15.9339 4.29476 16.5335 3.97742 17.0454C3.83914 17.2685 3.82753 17.5476 3.9468 17.7814C4.06608 18.0152 4.29888 18.1696 4.56065 18.1886C4.70585 18.1991 4.85237 18.2045 5 18.2045C6.3037 18.2045 7.51177 17.7879 8.49617 17.0811C8.98381 17.1622 9.48658 17.2045 10 17.2045C14.3099 17.2045 18 14.1711 18 10.2045C18 6.23787 14.3099 3.20447 10 3.20447ZM10 11.2045C10.5523 11.2045 11 10.7568 11 10.2045C11 9.65218 10.5523 9.20447 10 9.20447C9.44772 9.20447 9 9.65218 9 10.2045C9 10.7568 9.44772 11.2045 10 11.2045ZM8 10.2045C8 10.7568 7.55228 11.2045 7 11.2045C6.44772 11.2045 6 10.7568 6 10.2045C6 9.65218 6.44772 9.20447 7 9.20447C7.55228 9.20447 8 9.65218 8 10.2045ZM13 11.2045C13.5523 11.2045 14 10.7568 14 10.2045C14 9.65218 13.5523 9.20447 13 9.20447C12.4477 9.20447 12 9.65218 12 10.2045C12 10.7568 12.4477 11.2045 13 11.2045Z" fill="black"/>
</svg>
