<svg width="20" height="21" viewBox="0 0 20 21" fill="none" xmlns="http://www.w3.org/2000/svg">
<path d="M3.50491 2.56962C5.30269 2.32877 7.13702 2.20447 9 2.20447C10.863 2.20447 12.6973 2.32877 14.4951 2.56962C15.7418 2.73665 16.6741 3.67777 16.9298 4.83777C16.7425 4.8027 16.5501 4.77933 16.3531 4.76857C15.5739 4.72601 14.7894 4.70447 14 4.70447C13.2106 4.70447 12.4261 4.72601 11.6469 4.76857C9.22913 4.90062 7.5 6.93186 7.5 9.20241V11.4422C7.5 12.8556 8.17008 14.177 9.26042 15.0047L6.28033 17.9848C6.06583 18.1993 5.74324 18.2635 5.46299 18.1474C5.18273 18.0313 5 17.7578 5 17.4545V14.0118C4.49897 13.9633 4.00056 13.9057 3.50493 13.8393C2.0334 13.6422 1 12.3666 1 10.9256V5.48332C1 4.04232 2.03337 2.76676 3.50491 2.56962Z" fill="black"/>
<path d="M14 6.20447C13.2379 6.20447 12.4807 6.22527 11.7287 6.26634C10.1572 6.35216 9 7.67659 9 9.20241V11.4422C9 12.9609 10.1467 14.2815 11.7102 14.3771C11.9238 14.3901 12.1379 14.4015 12.3524 14.4113C12.5526 14.4204 12.7366 14.5018 12.8702 14.6354L15.2197 16.9848C15.4342 17.1993 15.7568 17.2635 16.037 17.1474C16.3173 17.0313 16.5 16.7578 16.5 16.4545V14.384C17.9525 14.1892 19 12.921 19 11.4693V9.20241C19 7.67658 17.8428 6.35216 16.2713 6.26634C15.5193 6.22527 14.7621 6.20447 14 6.20447Z" fill="black"/>
</svg>
