<svg width="20" height="21" viewBox="0 0 20 21" fill="none" xmlns="http://www.w3.org/2000/svg">
<path fill-rule="evenodd" clip-rule="evenodd" d="M10 2.20447C7.76407 2.20447 5.56943 2.38352 3.42976 2.72821C1.99339 2.9596 1 4.21772 1 5.63035V10.7786C1 12.1912 1.99338 13.4493 3.42976 13.6807C4.59764 13.8689 5.78193 14.0077 6.9804 14.0949C7.2601 14.1153 7.5012 14.2747 7.62247 14.508L9.33459 17.8005C9.46367 18.0487 9.7202 18.2045 10 18.2045C10.2798 18.2045 10.5363 18.0487 10.6654 17.8005L12.3775 14.508C12.4988 14.2747 12.7399 14.1153 13.0196 14.0949C14.2181 14.0077 15.4024 13.8689 16.5702 13.6807C18.0066 13.4493 19 12.1912 19 10.7786V5.63035C19 4.21772 18.0066 2.9596 16.5702 2.72821C14.4306 2.38352 12.2359 2.20447 10 2.20447ZM6.75 6.20447C6.33579 6.20447 6 6.54025 6 6.95447C6 7.36868 6.33579 7.70447 6.75 7.70447H13.25C13.6642 7.70447 14 7.36868 14 6.95447C14 6.54025 13.6642 6.20447 13.25 6.20447H6.75ZM6.75 8.70447C6.33579 8.70447 6 9.04025 6 9.45447C6 9.86868 6.33579 10.2045 6.75 10.2045H10.25C10.6642 10.2045 11 9.86868 11 9.45447C11 9.04025 10.6642 8.70447 10.25 8.70447H6.75Z" fill="black"/>
</svg>
