<svg width="20" height="21" viewBox="0 0 20 21" fill="none" xmlns="http://www.w3.org/2000/svg">
<path fill-rule="evenodd" clip-rule="evenodd" d="M10 18.2046C14.4183 18.2046 18 14.6229 18 10.2046C18 5.78631 14.4183 2.20459 10 2.20459C5.58172 2.20459 2 5.78631 2 10.2046C2 14.6229 5.58172 18.2046 10 18.2046ZM13.8566 8.39572C14.1002 8.06073 14.0261 7.59167 13.6911 7.34804C13.3561 7.10441 12.8871 7.17847 12.6434 7.51346L9.15969 12.3036L7.28033 10.4243C6.98744 10.1314 6.51256 10.1314 6.21967 10.4243C5.92678 10.7172 5.92678 11.192 6.21967 11.4849L8.71967 13.9849C8.87477 14.14 9.08999 14.2194 9.30867 14.2023C9.52734 14.1851 9.72754 14.0731 9.85655 13.8957L13.8566 8.39572Z" fill="black"/>
</svg>
