<svg width="20" height="21" viewBox="0 0 20 21" fill="none" xmlns="http://www.w3.org/2000/svg">
<path fill-rule="evenodd" clip-rule="evenodd" d="M5.23017 15.9952C4.93159 15.7081 4.92228 15.2333 5.20938 14.9348L9.45938 10.4348C9.60078 10.2877 9.79599 10.2046 10 10.2046C10.204 10.2046 10.3992 10.2877 10.5406 10.4348L14.7906 14.9348C15.0777 15.2333 15.0684 15.7081 14.7698 15.9952C14.4713 16.2823 13.9965 16.273 13.7094 15.9744L10 12.0367L6.29063 15.9744C6.00353 16.273 5.52875 16.2823 5.23017 15.9952ZM5.23017 9.99521C4.93159 9.70812 4.92228 9.23334 5.20938 8.93476L9.45938 4.43476C9.60078 4.2877 9.79599 4.20459 10 4.20459C10.204 4.20459 10.3992 4.2877 10.5406 4.43476L14.7906 8.93476C15.0777 9.23334 15.0684 9.70812 14.7698 9.99521C14.4713 10.2823 13.9965 10.273 13.7094 9.97442L10 6.03667L6.29063 9.97442C6.00353 10.273 5.52875 10.2823 5.23017 9.99521Z" fill="black"/>
</svg>
