<svg width="20" height="21" viewBox="0 0 20 21" fill="none" xmlns="http://www.w3.org/2000/svg">
<path d="M4.23017 13.914C3.93159 14.2011 3.92228 14.6758 4.20938 14.9744C4.49647 15.273 4.97125 15.2823 5.26983 14.9952L9.76983 10.7452C9.91689 10.6038 10 10.4086 10 10.2046C10 10.0006 9.91689 9.80537 9.76983 9.66397L5.26983 5.41397C4.97125 5.12687 4.49647 5.13618 4.20938 5.43476C3.92228 5.73334 3.93159 6.20812 4.23017 6.49522L8.16792 10.2046L4.23017 13.914Z" fill="black"/>
<path d="M10.2302 13.914C9.93159 14.2011 9.92228 14.6758 10.2094 14.9744C10.4965 15.273 10.9713 15.2823 11.2698 14.9952L15.7698 10.7452C15.9169 10.6038 16 10.4086 16 10.2046C16 10.0006 15.9169 9.80537 15.7698 9.66397L11.2698 5.41397C10.9713 5.12687 10.4965 5.13618 10.2094 5.43476C9.92228 5.73334 9.93159 6.20812 10.2302 6.49522L14.1679 10.2046L10.2302 13.914Z" fill="black"/>
</svg>
