<svg width="20" height="21" viewBox="0 0 20 21" fill="none" xmlns="http://www.w3.org/2000/svg">
<path fill-rule="evenodd" clip-rule="evenodd" d="M14.7698 4.41397C15.0684 4.70106 15.0777 5.17584 14.7906 5.47442L10.5406 9.97442C10.3992 10.1215 10.204 10.2046 10 10.2046C9.79599 10.2046 9.60078 10.1215 9.45937 9.97442L5.20937 5.47442C4.92228 5.17584 4.93159 4.70106 5.23017 4.41397C5.52875 4.12687 6.00353 4.13618 6.29062 4.43476L10 8.37251L13.7094 4.43476C13.9965 4.13618 14.4713 4.12687 14.7698 4.41397ZM14.7698 10.414C15.0684 10.7011 15.0777 11.1758 14.7906 11.4744L10.5406 15.9744C10.3992 16.1215 10.204 16.2046 10 16.2046C9.79599 16.2046 9.60078 16.1215 9.45937 15.9744L5.20937 11.4744C4.92228 11.1758 4.93159 10.7011 5.23017 10.414C5.52875 10.1269 6.00353 10.1362 6.29062 10.4348L10 14.3725L13.7094 10.4348C13.9965 10.1362 14.4713 10.1269 14.7698 10.414Z" fill="black"/>
</svg>
