<svg width="20" height="21" viewBox="0 0 20 21" fill="none" xmlns="http://www.w3.org/2000/svg">
<path fill-rule="evenodd" clip-rule="evenodd" d="M15.7906 14.9744C15.5035 15.273 15.0287 15.2823 14.7302 14.9952L10.2302 10.7452C10.0831 10.6038 10 10.4086 10 10.2046C10 10.0006 10.0831 9.80537 10.2302 9.66397L14.7302 5.41396C15.0287 5.12687 15.5035 5.13618 15.7906 5.43476C16.0777 5.73334 16.0684 6.20812 15.7698 6.49521L11.8321 10.2046L15.7698 13.914C16.0684 14.2011 16.0777 14.6758 15.7906 14.9744ZM9.79062 14.9744C9.50353 15.273 9.02875 15.2823 8.73017 14.9952L4.23017 10.7452C4.08311 10.6038 4 10.4086 4 10.2046C4 10.0006 4.08311 9.80537 4.23017 9.66397L8.73017 5.41396C9.02875 5.12687 9.50353 5.13618 9.79062 5.43476C10.0777 5.73334 10.0684 6.20812 9.76983 6.49521L5.83208 10.2046L9.76983 13.914C10.0684 14.2011 10.0777 14.6758 9.79062 14.9744Z" fill="black"/>
</svg>
