<svg width="20" height="21" viewBox="0 0 20 21" fill="none" xmlns="http://www.w3.org/2000/svg">
<path fill-rule="evenodd" clip-rule="evenodd" d="M10 3.20459C10.2086 3.20459 10.4077 3.29143 10.5496 3.44425L13.7996 6.94425C14.0815 7.24778 14.0639 7.72233 13.7603 8.00419C13.4568 8.28604 12.9823 8.26846 12.7004 7.96493L10 5.0568L7.2996 7.96493C7.01775 8.26846 6.5432 8.28604 6.23966 8.00418C5.93613 7.72233 5.91856 7.24778 6.20041 6.94425L9.45041 3.44425C9.59232 3.29143 9.79145 3.20459 10 3.20459ZM6.23967 12.405C6.5432 12.1231 7.01775 12.1407 7.2996 12.4443L10 15.3524L12.7004 12.4443C12.9823 12.1407 13.4568 12.1231 13.7603 12.405C14.0639 12.6868 14.0815 13.1614 13.7996 13.4649L10.5496 16.9649C10.4077 17.1178 10.2086 17.2046 10 17.2046C9.79145 17.2046 9.59232 17.1178 9.45041 16.9649L6.20041 13.4649C5.91856 13.1614 5.93613 12.6868 6.23967 12.405Z" fill="black"/>
</svg>
