<svg width="20" height="21" viewBox="0 0 20 21" fill="none" xmlns="http://www.w3.org/2000/svg">
<path fill-rule="evenodd" clip-rule="evenodd" d="M10 1.20459C13.866 1.20459 17 2.99545 17 5.20459C17 7.41373 13.866 9.20459 10 9.20459C6.13401 9.20459 3 7.41373 3 5.20459C3 2.99545 6.13401 1.20459 10 1.20459ZM15.694 9.33538C16.1576 9.07047 16.6044 8.75195 17 8.38234V10.2046C17 12.4137 13.866 14.2046 10 14.2046C6.13401 14.2046 3 12.4137 3 10.2046V8.38234C3.3956 8.75195 3.84244 9.07047 4.30604 9.33538C5.83803 10.2108 7.85433 10.7046 10 10.7046C12.1457 10.7046 14.162 10.2108 15.694 9.33538ZM3 13.3823V15.2046C3 17.4137 6.13401 19.2046 10 19.2046C13.866 19.2046 17 17.4137 17 15.2046V13.3823C16.6044 13.752 16.1576 14.0705 15.694 14.3354C14.162 15.2108 12.1457 15.7046 10 15.7046C7.85433 15.7046 5.83803 15.2108 4.30604 14.3354C3.84244 14.0705 3.3956 13.752 3 13.3823Z" fill="black"/>
</svg>
