<svg width="20" height="21" viewBox="0 0 20 21" fill="none" xmlns="http://www.w3.org/2000/svg">
<path fill-rule="evenodd" clip-rule="evenodd" d="M15.9875 3.21699C17.1185 3.33569 17.9999 4.2922 17.9999 5.45459V11.9546C17.9999 13.1972 16.9925 14.2046 15.7499 14.2046H13.4999V7.20459C13.4999 5.82388 12.3806 4.70459 10.9999 4.70459H8.12793C8.4115 3.90228 9.13721 3.30883 10.0123 3.21699C10.131 2.08604 11.0875 1.20459 12.2499 1.20459H13.7499C14.9123 1.20459 15.8688 2.08604 15.9875 3.21699ZM11.4999 3.45459C11.4999 3.04038 11.8357 2.70459 12.2499 2.70459H13.7499C14.1641 2.70459 14.4999 3.04038 14.4999 3.45459V3.70459H11.4999V3.45459Z" fill="black"/>
<path fill-rule="evenodd" clip-rule="evenodd" d="M2 7.20459C2 6.6523 2.44772 6.20459 3 6.20459H11C11.5523 6.20459 12 6.65231 12 7.20459V17.2046C12 17.7569 11.5523 18.2046 11 18.2046H3C2.44772 18.2046 2 17.7569 2 17.2046V7.20459ZM4 10.4546C4 10.0404 4.33579 9.70459 4.75 9.70459H9.25C9.66421 9.70459 10 10.0404 10 10.4546C10 10.8688 9.66421 11.2046 9.25 11.2046H4.75C4.33579 11.2046 4 10.8688 4 10.4546ZM4 13.9546C4 13.5404 4.33579 13.2046 4.75 13.2046H9.25C9.66421 13.2046 10 13.5404 10 13.9546C10 14.3688 9.66421 14.7046 9.25 14.7046H4.75C4.33579 14.7046 4 14.3688 4 13.9546Z" fill="black"/>
</svg>
