<svg width="20" height="21" viewBox="0 0 20 21" fill="none" xmlns="http://www.w3.org/2000/svg">
<path fill-rule="evenodd" clip-rule="evenodd" d="M13.8871 3.38648C14.283 3.42372 14.6773 3.46659 15.07 3.51502C16.1942 3.6537 17 4.6183 17 5.72118V16.9546C17 18.1972 15.9926 19.2046 14.75 19.2046H5.25C4.00736 19.2046 3 18.1972 3 16.9546V5.72118C3 4.6183 3.80579 3.6537 4.93005 3.51502C5.32266 3.46659 5.71697 3.42372 6.11291 3.38648C6.46903 2.12726 7.62676 1.20459 9 1.20459H11C12.3732 1.20459 13.531 2.12726 13.8871 3.38648ZM7.5 4.20459C7.5 3.37616 8.17157 2.70459 9 2.70459H11C11.8284 2.70459 12.5 3.37616 12.5 4.20459V4.70459H7.5V4.20459Z" fill="black"/>
</svg>
