<svg width="20" height="21" viewBox="0 0 20 21" fill="none" xmlns="http://www.w3.org/2000/svg">
<path fill-rule="evenodd" clip-rule="evenodd" d="M15.9877 3.21699C17.1186 3.33569 18.0001 4.2922 18.0001 5.45459V11.9546C18.0001 13.1972 16.9927 14.2046 15.7501 14.2046H13.5001V10.8259C13.5001 10.0303 13.184 9.2672 12.6214 8.70459L9.50008 5.58327C9.1106 5.19379 8.62505 4.92246 8.09912 4.79235C8.35944 3.94582 9.10578 3.31215 10.0125 3.21699C10.1312 2.08604 11.0877 1.20459 12.2501 1.20459H13.7501C14.9125 1.20459 15.869 2.08604 15.9877 3.21699ZM11.5001 3.45459C11.5001 3.04038 11.8359 2.70459 12.2501 2.70459H13.7501C14.1643 2.70459 14.5001 3.04038 14.5001 3.45459V3.70459H11.5001V3.45459Z" fill="black"/>
<path d="M3.5 6.20459C2.67157 6.20459 2 6.87616 2 7.70459V16.7046C2 17.533 2.67157 18.2046 3.5 18.2046H10.5C11.3284 18.2046 12 17.533 12 16.7046V10.8259C12 10.4281 11.842 10.0466 11.5607 9.76525L8.43934 6.64393C8.15804 6.36263 7.7765 6.20459 7.37868 6.20459H3.5Z" fill="black"/>
</svg>
