<svg width="20" height="21" viewBox="0 0 20 21" fill="none" xmlns="http://www.w3.org/2000/svg">
<path fill-rule="evenodd" clip-rule="evenodd" d="M17.9999 5.45459C17.9999 4.2922 17.1185 3.33569 15.9875 3.21699C15.8688 2.08604 14.9123 1.20459 13.7499 1.20459H12.2499C11.0875 1.20459 10.131 2.08604 10.0123 3.21699C9.13721 3.30883 8.4115 3.90228 8.12793 4.70459H10.9999C12.3806 4.70459 13.4999 5.82388 13.4999 7.20459V14.2046H15.7499C16.9925 14.2046 17.9999 13.1972 17.9999 11.9546V5.45459ZM12.2499 2.70459C11.8357 2.70459 11.4999 3.04038 11.4999 3.45459V3.70459H14.4999V3.45459C14.4999 3.04038 14.1641 2.70459 13.7499 2.70459H12.2499Z" fill="black"/>
<path fill-rule="evenodd" clip-rule="evenodd" d="M3 6.20459C2.44772 6.20459 2 6.6523 2 7.20459V17.2046C2 17.7569 2.44772 18.2046 3 18.2046H11C11.5523 18.2046 12 17.7569 12 17.2046V7.20459C12 6.65231 11.5523 6.20459 11 6.20459H3ZM9.87404 10.3706C10.1038 10.026 10.0107 9.56032 9.66603 9.33055C9.32138 9.10079 8.85573 9.19392 8.62596 9.53856L6.13343 13.2774L5.28033 12.4243C4.98744 12.1314 4.51256 12.1314 4.21967 12.4243C3.92678 12.7172 3.92678 13.192 4.21967 13.4849L5.71967 14.9849C5.87855 15.1438 6.1003 15.2231 6.3239 15.2009C6.5475 15.1788 6.7494 15.0576 6.87404 14.8706L9.87404 10.3706Z" fill="black"/>
</svg>
