<svg width="20" height="21" viewBox="0 0 20 21" fill="none" xmlns="http://www.w3.org/2000/svg">
<path fill-rule="evenodd" clip-rule="evenodd" d="M10 18.2046C14.4183 18.2046 18 14.6229 18 10.2046C18 5.78631 14.4183 2.20459 10 2.20459C5.58172 2.20459 2 5.78631 2 10.2046C2 14.6229 5.58172 18.2046 10 18.2046ZM10.75 5.20459C10.75 4.79038 10.4142 4.45459 10 4.45459C9.58579 4.45459 9.25 4.79038 9.25 5.20459V10.2046C9.25 10.6188 9.58579 10.9546 10 10.9546H14C14.4142 10.9546 14.75 10.6188 14.75 10.2046C14.75 9.79038 14.4142 9.45459 14 9.45459H10.75V5.20459Z" fill="black"/>
</svg>
