<svg width="20" height="21" viewBox="0 0 20 21" fill="none" xmlns="http://www.w3.org/2000/svg">
<path d="M1 12.7046C1 15.1899 3.01472 17.2046 5.5 17.2046H15C17.2091 17.2046 19 15.4137 19 13.2046C19 11.6695 18.1353 10.3364 16.8664 9.66579C16.9534 9.36038 17 9.03793 17 8.70459C17 6.77159 15.433 5.20459 13.5 5.20459C13.1017 5.20459 12.7189 5.27114 12.3621 5.39372C11.5758 4.0823 10.1404 3.20459 8.5 3.20459C6.01472 3.20459 4 5.21931 4 7.70459C4 7.95503 4.02046 8.20069 4.05979 8.43999C2.28084 9.04054 1 10.723 1 12.7046Z" fill="black"/>
</svg>
