<svg width="20" height="21" viewBox="0 0 20 21" fill="none" xmlns="http://www.w3.org/2000/svg">
<path fill-rule="evenodd" clip-rule="evenodd" d="M5.5 17.2046C3.01472 17.2046 1 15.1899 1 12.7046C1 10.723 2.28084 9.04054 4.05979 8.43999C4.02046 8.20069 4 7.95503 4 7.70459C4 5.21931 6.01472 3.20459 8.5 3.20459C10.1404 3.20459 11.5758 4.0823 12.3621 5.39372C12.7189 5.27114 13.1017 5.20459 13.5 5.20459C15.433 5.20459 17 6.77159 17 8.70459C17 9.03793 16.9534 9.36038 16.8664 9.66579C18.1353 10.3364 19 11.6695 19 13.2046C19 15.4137 17.2091 17.2046 15 17.2046H5.5ZM10.75 7.95459C10.75 7.54038 10.4142 7.20459 10 7.20459C9.58579 7.20459 9.25 7.54038 9.25 7.95459V12.5447L7.29959 10.4443C7.01774 10.1407 6.54319 10.1231 6.23966 10.405C5.93613 10.6868 5.91855 11.1614 6.20041 11.4649L9.45041 14.9649C9.59231 15.1178 9.79145 15.2046 10 15.2046C10.2086 15.2046 10.4077 15.1178 10.5496 14.9649L13.7996 11.4649C14.0814 11.1614 14.0639 10.6868 13.7603 10.405C13.4568 10.1231 12.9823 10.1407 12.7004 10.4443L10.75 12.5447V7.95459Z" fill="black"/>
</svg>
