<svg width="20" height="21" viewBox="0 0 20 21" fill="none" xmlns="http://www.w3.org/2000/svg">
<path fill-rule="evenodd" clip-rule="evenodd" d="M5.5 17.2046C3.01472 17.2046 1 15.1899 1 12.7046C1 10.723 2.28084 9.04054 4.05979 8.43999C4.02046 8.20069 4 7.95503 4 7.70459C4 5.21931 6.01472 3.20459 8.5 3.20459C10.1404 3.20459 11.5758 4.0823 12.3621 5.39372C12.7189 5.27114 13.1017 5.20459 13.5 5.20459C15.433 5.20459 17 6.77159 17 8.70459C17 9.03793 16.9534 9.36038 16.8664 9.66579C18.1353 10.3364 19 11.6695 19 13.2046C19 15.4137 17.2091 17.2046 15 17.2046H5.5ZM9.25 14.4546C9.25 14.8688 9.58579 15.2046 10 15.2046C10.4142 15.2046 10.75 14.8688 10.75 14.4546V9.86449L12.7004 11.9649C12.9823 12.2685 13.4568 12.286 13.7603 12.0042C14.0639 11.7223 14.0814 11.2478 13.7996 10.9443L10.5496 7.44425C10.4077 7.29143 10.2086 7.20459 10 7.20459C9.79145 7.20459 9.59231 7.29143 9.45041 7.44425L6.20041 10.9443C5.91855 11.2478 5.93613 11.7223 6.23966 12.0042C6.54319 12.286 7.01774 12.2685 7.2996 11.9649L9.25 9.86449V14.4546Z" fill="black"/>
</svg>
