<svg width="20" height="21" viewBox="0 0 20 21" fill="none" xmlns="http://www.w3.org/2000/svg">
<path fill-rule="evenodd" clip-rule="evenodd" d="M4.25 2.20459C3.00736 2.20459 2 3.21195 2 4.45459V15.9546C2 17.1972 3.00736 18.2046 4.25 18.2046H15.75C16.9926 18.2046 18 17.1972 18 15.9546V4.45459C18 3.21195 16.9926 2.20459 15.75 2.20459H4.25ZM8.28033 8.48492C8.57322 8.19203 8.57322 7.71715 8.28033 7.42426C7.98744 7.13137 7.51256 7.13137 7.21967 7.42426L4.96967 9.67426C4.67678 9.96715 4.67678 10.442 4.96967 10.7349L7.21967 12.9849C7.51256 13.2778 7.98744 13.2778 8.28033 12.9849C8.57322 12.692 8.57322 12.2172 8.28033 11.9243L6.56066 10.2046L8.28033 8.48492ZM12.7803 7.42426C12.4874 7.13137 12.0126 7.13137 11.7197 7.42426C11.4268 7.71715 11.4268 8.19203 11.7197 8.48492L13.4393 10.2046L11.7197 11.9243C11.4268 12.2172 11.4268 12.692 11.7197 12.9849C12.0126 13.2778 12.4874 13.2778 12.7803 12.9849L15.0303 10.7349C15.3232 10.442 15.3232 9.96715 15.0303 9.67426L12.7803 7.42426Z" fill="black"/>
</svg>
