<svg width="20" height="21" viewBox="0 0 20 21" fill="none" xmlns="http://www.w3.org/2000/svg">
<path fill-rule="evenodd" clip-rule="evenodd" d="M6.28033 5.42438C6.57322 5.71727 6.57322 6.19215 6.28033 6.48504L2.56066 10.2047L6.28033 13.9244C6.57322 14.2173 6.57322 14.6921 6.28033 14.985C5.98744 15.2779 5.51256 15.2779 5.21967 14.985L0.96967 10.735C0.676777 10.4421 0.676777 9.96728 0.96967 9.67438L5.21967 5.42438C5.51256 5.13149 5.98744 5.13149 6.28033 5.42438ZM13.7197 5.42438C14.0126 5.13149 14.4874 5.13149 14.7803 5.42438L19.0303 9.67438C19.3232 9.96728 19.3232 10.4421 19.0303 10.735L14.7803 14.985C14.4874 15.2779 14.0126 15.2779 13.7197 14.985C13.4268 14.6921 13.4268 14.2173 13.7197 13.9244L17.4393 10.2047L13.7197 6.48504C13.4268 6.19215 13.4268 5.71727 13.7197 5.42438Z" fill="black"/>
<path fill-rule="evenodd" clip-rule="evenodd" d="M11.3774 2.21562C11.7856 2.28599 12.0595 2.67395 11.9891 3.08214L9.48909 17.5821C9.41872 17.9903 9.03076 18.2642 8.62257 18.1938C8.21438 18.1234 7.94053 17.7355 8.0109 17.3273L10.5109 2.82728C10.5813 2.41909 10.9692 2.14524 11.3774 2.21562Z" fill="black"/>
</svg>
