<svg width="20" height="21" viewBox="0 0 20 21" fill="none" xmlns="http://www.w3.org/2000/svg">
<path fill-rule="evenodd" clip-rule="evenodd" d="M8.33922 2.00835C8.43271 1.54093 8.84312 1.20447 9.3198 1.20447H10.6802C11.1569 1.20447 11.5673 1.54093 11.6608 2.00835L11.9553 3.48122C12.4522 3.62548 12.9263 3.82333 13.3709 4.0681L14.6212 3.23461C15.0178 2.97019 15.5459 3.02249 15.883 3.35955L16.8449 4.32149C17.182 4.65856 17.2343 5.18668 16.9699 5.5833L16.1364 6.83354C16.3811 7.27816 16.579 7.75224 16.7232 8.24912L18.1961 8.54369C18.6635 8.63718 19 9.04759 19 9.52427V10.8847C19 11.3613 18.6635 11.7718 18.1961 11.8652L16.7232 12.1598C16.579 12.6567 16.3812 13.1307 16.1364 13.5753L16.97 14.8256C17.2344 15.2223 17.1821 15.7504 16.845 16.0875L15.8831 17.0494C15.546 17.3865 15.0179 17.4388 14.6213 17.1743L13.371 16.3408C12.9264 16.5856 12.4522 16.7834 11.9554 16.9277L11.6608 18.4006C11.5673 18.868 11.1569 19.2045 10.6802 19.2045H9.3198C8.84312 19.2045 8.43271 18.868 8.33922 18.4006L8.04465 16.9277C7.54778 16.7835 7.0737 16.5856 6.62908 16.3408L5.37882 17.1744C4.9822 17.4388 4.45408 17.3865 4.11701 17.0494L3.15507 16.0875C2.81801 15.7504 2.76571 15.2223 3.03013 14.8257L3.86363 13.5754C3.61886 13.1308 3.42101 12.6567 3.27675 12.1598L1.80388 11.8652C1.33646 11.7718 1 11.3613 1 10.8847L1 9.52427C1 9.04759 1.33646 8.63718 1.80388 8.54369L3.27675 8.24912C3.42102 7.75221 3.61889 7.27809 3.86368 6.83345L3.03024 5.58329C2.76582 5.18667 2.81812 4.65855 3.15518 4.32148L4.11712 3.35954C4.45419 3.02247 4.98231 2.97018 5.37893 3.23459L6.62913 4.06806C7.07373 3.82331 7.5478 3.62547 8.04465 3.48122L8.33922 2.00835ZM13 10.2045C13 11.8613 11.6569 13.2045 10 13.2045C8.34315 13.2045 7 11.8613 7 10.2045C7 8.54761 8.34315 7.20447 10 7.20447C11.6569 7.20447 13 8.54761 13 10.2045Z" fill="black"/>
</svg>
