<svg width="20" height="21" viewBox="0 0 20 21" fill="none" xmlns="http://www.w3.org/2000/svg">
<path fill-rule="evenodd" clip-rule="evenodd" d="M7.83922 2.00835C7.9327 1.54093 8.34312 1.20447 8.8198 1.20447H11.1802C11.6569 1.20447 12.0673 1.54093 12.1608 2.00835L12.4913 3.66076C13.1956 3.92905 13.8454 4.30779 14.4196 4.7758L16.0179 4.23512C16.4694 4.08236 16.966 4.26956 17.2043 4.68238L18.3845 6.72654C18.6229 7.13936 18.5367 7.66302 18.1786 7.97769L16.9119 9.09092C16.9699 9.45356 17 9.8255 17 10.2045C17 10.5834 16.9699 10.9554 16.9119 11.318L18.1786 12.4312C18.5367 12.7459 18.6229 13.2696 18.3845 13.6824L17.2043 15.7265C16.966 16.1394 16.4694 16.3266 16.0179 16.1738L14.4196 15.6331C13.8454 16.1011 13.1956 16.4799 12.4913 16.7482L12.1608 18.4006C12.0673 18.868 11.6569 19.2045 11.1802 19.2045H8.8198C8.34312 19.2045 7.9327 18.868 7.83922 18.4006L7.50874 16.7482C6.80442 16.4799 6.1546 16.1011 5.58042 15.6331L3.98213 16.1738C3.53059 16.3266 3.034 16.1394 2.79566 15.7266L1.61546 13.6824C1.37712 13.2696 1.4633 12.7459 1.82136 12.4312L3.08808 11.318C3.03011 10.9554 2.99999 10.5834 2.99999 10.2045C2.99999 9.8255 3.03011 9.45357 3.08808 9.09093L1.82136 7.97771C1.4633 7.66303 1.37712 7.13937 1.61546 6.72655L2.79566 4.6824C3.034 4.26958 3.53059 4.08238 3.98213 4.23513L5.58041 4.77581C6.15459 4.30779 6.80442 3.92905 7.50874 3.66076L7.83922 2.00835ZM9.99999 13.2045C11.6568 13.2045 13 11.8613 13 10.2045C13 8.54761 11.6568 7.20447 9.99999 7.20447C8.34314 7.20447 6.99999 8.54761 6.99999 10.2045C6.99999 11.8613 8.34314 13.2045 9.99999 13.2045Z" fill="black"/>
</svg>
