<svg width="20" height="21" viewBox="0 0 20 21" fill="none" xmlns="http://www.w3.org/2000/svg">
<path d="M13.0242 9.45458C13.4944 9.45458 13.8513 9.02178 13.6614 8.59154C13.0412 7.18579 11.6352 6.20459 10 6.20459C9.85376 6.20459 9.70936 6.21244 9.56719 6.22773C9.09929 6.27808 8.90249 6.80363 9.13779 7.21118L10.2165 9.07958C10.3505 9.31163 10.5981 9.45458 10.866 9.45458L13.0242 9.45458Z" fill="black"/>
<path d="M7.83948 7.96244C7.60411 7.55477 7.05027 7.46237 6.77194 7.84201C6.28661 8.50401 6 9.32083 6 10.2046C6 11.0884 6.28662 11.9052 6.77198 12.5672C7.05031 12.9469 7.60415 12.8545 7.83952 12.4468L8.91751 10.5796C9.05149 10.3476 9.05149 10.0617 8.91751 9.82965L7.83948 7.96244Z" fill="black"/>
<path d="M9.13785 13.198C8.90255 13.6056 9.09936 14.1311 9.56726 14.1815C9.70941 14.1967 9.85379 14.2046 10 14.2046C11.6352 14.2046 13.0412 13.2234 13.6614 11.8176C13.8513 11.3874 13.4944 10.9546 13.0242 10.9546H10.8661C10.5982 10.9546 10.3506 11.0975 10.2166 11.3296L9.13785 13.198Z" fill="black"/>
<path fill-rule="evenodd" clip-rule="evenodd" d="M14.1295 4.55183L14.7744 3.43487C14.9815 3.07615 14.8586 2.61745 14.4999 2.41035C14.1412 2.20324 13.6825 2.32615 13.4754 2.68487L12.8311 3.80074C12.1832 3.51386 11.4835 3.32243 10.75 3.2443V1.95459C10.75 1.54038 10.4142 1.20459 10 1.20459C9.58579 1.20459 9.25 1.54038 9.25 1.95459V3.2443C8.51649 3.32243 7.81683 3.51386 7.16886 3.80075L6.52462 2.68489C6.31752 2.32617 5.85882 2.20326 5.5001 2.41037C5.14139 2.61748 5.01848 3.07617 5.22559 3.43489L5.87046 4.55184C5.28784 4.97819 4.77359 5.49243 4.34725 6.07505L3.23009 5.43006C2.87137 5.22295 2.41267 5.34586 2.20557 5.70458C1.99846 6.0633 2.12137 6.52199 2.48009 6.7291L3.59615 7.37346C3.30927 8.02142 3.11784 8.72108 3.03971 9.45459H1.75C1.33579 9.45459 1 9.79038 1 10.2046C1 10.6188 1.33579 10.9546 1.75 10.9546H3.03971C3.11784 11.6881 3.30926 12.3877 3.59614 13.0357L2.48009 13.6801C2.12137 13.8872 1.99846 14.3459 2.20557 14.7046C2.41267 15.0633 2.87137 15.1862 3.23009 14.9791L4.34723 14.3341C4.77355 14.9167 5.28775 15.4309 5.87031 15.8572L5.22538 16.9743C5.01827 17.333 5.14118 17.7917 5.4999 17.9988C5.85861 18.2059 6.31731 18.083 6.52441 17.7243L7.1687 16.6084C7.81671 16.8953 8.51643 17.0867 9.25 17.1649V18.4546C9.25 18.8688 9.58579 19.2046 10 19.2046C10.4142 19.2046 10.75 18.8688 10.75 18.4546V17.1649C11.4836 17.0867 12.1833 16.8953 12.8313 16.6084L13.4756 17.7243C13.6827 18.083 14.1414 18.2059 14.5001 17.9988C14.8588 17.7917 14.9817 17.333 14.7746 16.9743L14.1297 15.8572C14.7122 15.4309 15.2264 14.9167 15.6527 14.3342L16.7698 14.9791C17.1285 15.1862 17.5872 15.0633 17.7943 14.7046C18.0014 14.3459 17.8785 13.8872 17.5198 13.6801L16.4038 13.0358C16.6907 12.3878 16.8822 11.6881 16.9603 10.9546H18.25C18.6642 10.9546 19 10.6188 19 10.2046C19 9.79038 18.6642 9.45459 18.25 9.45459H16.9603C16.8822 8.72105 16.6907 8.02137 16.4038 7.37338L17.5198 6.7291C17.8785 6.52199 18.0014 6.0633 17.7943 5.70458C17.5872 5.34586 17.1285 5.22295 16.7698 5.43006L15.6527 6.07499C15.2264 5.49239 14.7121 4.97817 14.1295 4.55183ZM10 4.70459C9.0112 4.70459 8.08334 4.96553 7.28153 5.42229C7.27126 5.4289 7.26079 5.43529 7.2501 5.44146C7.23978 5.44742 7.22937 5.45311 7.21889 5.45852C6.40668 5.93549 5.72776 6.61499 5.25148 7.42766C5.24674 7.43669 5.2418 7.44566 5.23666 7.45458C5.2313 7.46385 5.22578 7.47296 5.2201 7.48192C4.76185 8.28469 4.5 9.21406 4.5 10.2046C4.5 11.195 4.76179 12.1243 5.21995 12.927C5.22569 12.936 5.23126 12.9452 5.23666 12.9546C5.24185 12.9636 5.24683 12.9726 5.25161 12.9817C5.72819 13.7948 6.40765 14.4746 7.2205 14.9516C7.23036 14.9567 7.24017 14.9621 7.2499 14.9677C7.26 14.9736 7.26992 14.9796 7.27965 14.9858C8.08189 15.4432 9.01042 15.7046 10 15.7046C10.9897 15.7046 11.9184 15.4432 12.7207 14.9856C12.7303 14.9795 12.7401 14.9735 12.7501 14.9677C12.7597 14.9622 12.7694 14.9569 12.7792 14.9518C13.5913 14.4753 14.2704 13.7963 14.7469 12.9842C14.7521 12.9743 14.7575 12.9644 14.7632 12.9546C14.7691 12.9444 14.7751 12.9344 14.7814 12.9246C15.2387 12.1224 15.5 11.194 15.5 10.2046C15.5 9.21505 15.2387 8.28655 14.7813 7.48433C14.7751 7.4746 14.769 7.46468 14.7632 7.45458C14.7576 7.44484 14.7522 7.43503 14.7471 7.42516C14.2708 6.6135 13.5923 5.93482 12.7808 5.45834C12.7704 5.45297 12.7601 5.44734 12.7499 5.44144C12.7393 5.43533 12.7289 5.429 12.7188 5.42247C11.9169 4.96559 10.9889 4.70459 10 4.70459Z" fill="black"/>
</svg>
