<svg width="20" height="21" viewBox="0 0 20 21" fill="none" xmlns="http://www.w3.org/2000/svg">
<path fill-rule="evenodd" clip-rule="evenodd" d="M3.25 3.20447C2.00736 3.20447 1 4.21183 1 5.45447V14.9545C1 16.1971 2.00736 17.2045 3.25 17.2045H16.75C17.9926 17.2045 19 16.1971 19 14.9545V5.45447C19 4.21183 17.9926 3.20447 16.75 3.20447H3.25ZM4.19253 11.9562C3.91544 11.6483 3.94039 11.1741 4.24828 10.897L6.12886 9.20447L4.24828 7.51194C3.94039 7.23484 3.91543 6.76063 4.19253 6.45274C4.46962 6.14486 4.94384 6.1199 5.25172 6.397L7.75172 8.647C7.90976 8.78923 8 8.99185 8 9.20447C8 9.41708 7.90976 9.61971 7.75172 9.76194L5.25172 12.0119C4.94384 12.289 4.46962 12.2641 4.19253 11.9562ZM9.75 10.4545C9.33579 10.4545 9 10.7903 9 11.2045C9 11.6187 9.33579 11.9545 9.75 11.9545H12.25C12.6642 11.9545 13 11.6187 13 11.2045C13 10.7903 12.6642 10.4545 12.25 10.4545H9.75Z" fill="black"/>
</svg>
