<svg width="20" height="21" viewBox="0 0 20 21" fill="none" xmlns="http://www.w3.org/2000/svg">
<path fill-rule="evenodd" clip-rule="evenodd" d="M2 4.45447C2 3.21183 3.00736 2.20447 4.25 2.20447H15.75C16.9926 2.20447 18 3.21183 18 4.45447V12.9545C18 14.1971 16.9926 15.2045 15.75 15.2045H12.6448C12.8417 15.8663 13.2292 16.4462 13.7449 16.8812C13.9856 17.0843 14.0738 17.4161 13.9657 17.7119C13.8576 18.0077 13.5762 18.2045 13.2613 18.2045H6.73881C6.42387 18.2045 6.14248 18.0077 6.03437 17.7119C5.92627 17.4161 6.01449 17.0843 6.25522 16.8812C6.77086 16.4462 7.15838 15.8663 7.35525 15.2045H4.25C3.00736 15.2045 2 14.1971 2 12.9545V4.45447ZM3.5 4.45447C3.5 4.04025 3.83579 3.70447 4.25 3.70447H15.75C16.1642 3.70447 16.5 4.04025 16.5 4.45447V11.9545C16.5 12.3687 16.1642 12.7045 15.75 12.7045H4.25C3.83579 12.7045 3.5 12.3687 3.5 11.9545V4.45447Z" fill="black"/>
</svg>
