<svg width="20" height="21" viewBox="0 0 20 21" fill="none" xmlns="http://www.w3.org/2000/svg">
<path d="M14 6.20447H6V14.2045H14V6.20447Z" fill="black"/>
<path fill-rule="evenodd" clip-rule="evenodd" d="M9.25 3.20447V1.95447C9.25 1.54025 9.58579 1.20447 10 1.20447C10.4142 1.20447 10.75 1.54025 10.75 1.95447V3.20447H12.25V1.95447C12.25 1.54025 12.5858 1.20447 13 1.20447C13.4142 1.20447 13.75 1.54025 13.75 1.95447V3.20447H14.25C15.7688 3.20447 17 4.43568 17 5.95447V6.45447H18.25C18.6642 6.45447 19 6.79025 19 7.20447C19 7.61868 18.6642 7.95447 18.25 7.95447H17V9.45447H18.25C18.6642 9.45447 19 9.79025 19 10.2045C19 10.6187 18.6642 10.9545 18.25 10.9545H17V12.4545H18.25C18.6642 12.4545 19 12.7903 19 13.2045C19 13.6187 18.6642 13.9545 18.25 13.9545H17V14.4545C17 15.9733 15.7688 17.2045 14.25 17.2045H13.75V18.4545C13.75 18.8687 13.4142 19.2045 13 19.2045C12.5858 19.2045 12.25 18.8687 12.25 18.4545V17.2045H10.75V18.4545C10.75 18.8687 10.4142 19.2045 10 19.2045C9.58579 19.2045 9.25 18.8687 9.25 18.4545V17.2045H7.75V18.4545C7.75 18.8687 7.41421 19.2045 7 19.2045C6.58579 19.2045 6.25 18.8687 6.25 18.4545V17.2045H5.75C4.23122 17.2045 3 15.9733 3 14.4545V13.9545H1.75C1.33579 13.9545 1 13.6187 1 13.2045C1 12.7903 1.33579 12.4545 1.75 12.4545H3V10.9545H1.75C1.33579 10.9545 1 10.6187 1 10.2045C1 9.79025 1.33579 9.45447 1.75 9.45447H3V7.95447H1.75C1.33579 7.95447 1 7.61868 1 7.20447C1 6.79025 1.33579 6.45447 1.75 6.45447H3V5.95447C3 4.43569 4.23122 3.20447 5.75 3.20447H6.25V1.95447C6.25 1.54025 6.58579 1.20447 7 1.20447C7.41421 1.20447 7.75 1.54025 7.75 1.95447V3.20447H9.25ZM4.5 5.95447C4.5 5.26411 5.05964 4.70447 5.75 4.70447H14.25C14.9404 4.70447 15.5 5.26411 15.5 5.95447V14.4545C15.5 15.1448 14.9404 15.7045 14.25 15.7045H5.75C5.05964 15.7045 4.5 15.1448 4.5 14.4545V5.95447Z" fill="black"/>
</svg>
