<svg width="20" height="21" viewBox="0 0 20 21" fill="none" xmlns="http://www.w3.org/2000/svg">
<path fill-rule="evenodd" clip-rule="evenodd" d="M2.5 4.20447C1.67157 4.20447 1 4.87604 1 5.70447V6.20447H19V5.70447C19 4.87604 18.3284 4.20447 17.5 4.20447H2.5ZM19 8.70447H1V14.7045C1 15.5329 1.67157 16.2045 2.5 16.2045H17.5C18.3284 16.2045 19 15.5329 19 14.7045V8.70447ZM3 13.4545C3 13.0403 3.33579 12.7045 3.75 12.7045H5.25C5.66421 12.7045 6 13.0403 6 13.4545C6 13.8687 5.66421 14.2045 5.25 14.2045H3.75C3.33579 14.2045 3 13.8687 3 13.4545ZM7.75 12.7045C7.33579 12.7045 7 13.0403 7 13.4545C7 13.8687 7.33579 14.2045 7.75 14.2045H11.25C11.6642 14.2045 12 13.8687 12 13.4545C12 13.0403 11.6642 12.7045 11.25 12.7045H7.75Z" fill="black"/>
</svg>
