<svg width="20" height="21" viewBox="0 0 20 21" fill="none" xmlns="http://www.w3.org/2000/svg">
<path fill-rule="evenodd" clip-rule="evenodd" d="M9.63769 1.29778C9.86321 1.17336 10.1368 1.17336 10.3623 1.29778L12.3623 2.40123C12.725 2.60133 12.8568 3.05755 12.6567 3.42022C12.4566 3.7829 12.0004 3.9147 11.6377 3.7146L10 2.81105L8.36231 3.7146C7.99963 3.9147 7.54341 3.7829 7.34332 3.42022C7.14322 3.05755 7.27502 2.60133 7.63769 2.40123L9.63769 1.29778ZM5.40258 4.49097C5.60268 4.85365 5.47088 5.30987 5.10821 5.50997L4.30255 5.95447L5.10821 6.39897C5.47088 6.59907 5.60268 7.05528 5.40258 7.41796C5.20248 7.78064 4.74627 7.91243 4.38359 7.71234L3.5 7.22484V7.95447C3.5 8.36868 3.16421 8.70447 2.75 8.70447C2.33579 8.70447 2 8.36868 2 7.95447V5.95447C2 5.6813 2.14852 5.42974 2.38769 5.29778L4.38359 4.1966C4.74627 3.9965 5.20248 4.1283 5.40258 4.49097ZM14.5974 4.49097C14.7975 4.1283 15.2537 3.9965 15.6164 4.1966L17.6123 5.29778C17.8515 5.42974 18 5.6813 18 5.95447V7.95447C18 8.36868 17.6642 8.70447 17.25 8.70447C16.8358 8.70447 16.5 8.36868 16.5 7.95447V7.22484L15.6164 7.71234C15.2537 7.91243 14.7975 7.78064 14.5974 7.41796C14.3973 7.05528 14.5291 6.59907 14.8918 6.39897L15.6975 5.95447L14.8918 5.50997C14.5291 5.30987 14.3973 4.85365 14.5974 4.49097ZM7.34332 8.48871C7.54341 8.12604 7.99963 7.99424 8.36231 8.19434L10 9.09789L11.6377 8.19434C12.0004 7.99424 12.4566 8.12604 12.6567 8.48871C12.8568 8.85139 12.725 9.30761 12.3623 9.5077L10.75 10.3973V11.9545C10.75 12.3687 10.4142 12.7045 10 12.7045C9.58579 12.7045 9.25 12.3687 9.25 11.9545V10.3973L7.63769 9.5077C7.27502 9.30761 7.14322 8.85139 7.34332 8.48871ZM2.75 11.7045C3.16421 11.7045 3.5 12.0403 3.5 12.4545V14.0117L5.10821 14.899C5.47088 15.0991 5.60268 15.5553 5.40258 15.918C5.20248 16.2806 4.74627 16.4124 4.38359 16.2123L2.38769 15.1112C2.14852 14.9792 2 14.7276 2 14.4545V12.4545C2 12.0403 2.33579 11.7045 2.75 11.7045ZM17.25 11.7045C17.6642 11.7045 18 12.0403 18 12.4545V14.4545C18 14.7276 17.8515 14.9792 17.6123 15.1112L15.6164 16.2123C15.2537 16.4124 14.7975 16.2806 14.5974 15.918C14.3973 15.5553 14.5291 15.0991 14.8918 14.899L16.5 14.0117V12.4545C16.5 12.0403 16.8358 11.7045 17.25 11.7045ZM10 15.7045C10.4142 15.7045 10.75 16.0403 10.75 16.4545V17.1841L11.6377 16.6943C12.0004 16.4942 12.4566 16.626 12.6567 16.9887C12.8568 17.3514 12.725 17.8076 12.3623 18.0077L10.3623 19.1112C10.1368 19.2356 9.86321 19.2356 9.63769 19.1112L7.63769 18.0077C7.27501 17.8076 7.14322 17.3514 7.34332 16.9887C7.54341 16.626 7.99963 16.4942 8.36231 16.6943L9.25 17.1841V16.4545C9.25 16.0403 9.58579 15.7045 10 15.7045Z" fill="black"/>
</svg>
