<svg width="20" height="21" viewBox="0 0 20 21" fill="none" xmlns="http://www.w3.org/2000/svg">
<path fill-rule="evenodd" clip-rule="evenodd" d="M10 18.2045C14.4183 18.2045 18 14.6227 18 10.2045C18 5.78619 14.4183 2.20447 10 2.20447C5.58172 2.20447 2 5.78619 2 10.2045C2 14.6227 5.58172 18.2045 10 18.2045ZM8.73223 6.4367C9.70854 5.46039 11.2915 5.46039 12.2678 6.4367C12.5607 6.72959 13.0355 6.72959 13.3284 6.4367C13.6213 6.14381 13.6213 5.66893 13.3284 5.37604C11.7663 3.81394 9.23367 3.81394 7.67157 5.37604C6.89067 6.15694 6.5 7.18194 6.5 8.20447V8.36928C6.5 8.73392 6.53382 9.09719 6.60072 9.45447H6.25C5.83579 9.45447 5.5 9.79025 5.5 10.2045C5.5 10.6187 5.83579 10.9545 6.25 10.9545H6.98724C7.175 11.9865 7.05016 13.0574 6.61952 14.0264L6.56464 14.1499C6.44963 14.4086 6.49018 14.7101 6.66948 14.9293C6.84878 15.1485 7.13625 15.248 7.4127 15.1866L8.68531 14.9038C9.21441 14.7862 9.76361 14.7935 10.2894 14.9249C11.0842 15.1236 11.9158 15.1236 12.7106 14.9249L13.6819 14.6821C14.0837 14.5816 14.3281 14.1744 14.2276 13.7726C14.1271 13.3707 13.7199 13.1264 13.3181 13.2269L12.3468 13.4697C11.7908 13.6087 11.2092 13.6087 10.6532 13.4697C9.91296 13.2846 9.14026 13.2718 8.39452 13.432C8.58441 12.6203 8.62237 11.7801 8.5063 10.9545H9.75C10.1642 10.9545 10.5 10.6187 10.5 10.2045C10.5 9.79025 10.1642 9.45447 9.75 9.45447H8.13603C8.0458 9.10021 8 8.73568 8 8.36928V8.20447C8 7.5635 8.24393 6.925 8.73223 6.4367Z" fill="black"/>
</svg>
