<svg width="20" height="21" viewBox="0 0 20 21" fill="none" xmlns="http://www.w3.org/2000/svg">
<path fill-rule="evenodd" clip-rule="evenodd" d="M10 2.20447C5.58172 2.20447 2 5.78619 2 10.2045C2 14.6227 5.58172 18.2045 10 18.2045C14.4183 18.2045 18 14.6227 18 10.2045C18 5.78619 14.4183 2.20447 10 2.20447ZM5.93934 5.70443C6.88428 4.75949 8.5 5.42873 8.5 6.76509V8.20447H14.25C14.6642 8.20447 15 8.54025 15 8.95447C15 9.36868 14.6642 9.70447 14.25 9.70447H8.5V13.9795C8.5 14.2756 8.64363 14.4345 8.75926 14.4784C9.1439 14.6242 9.56172 14.7044 10 14.7044C11.3936 14.7044 12.5986 13.8897 13.1616 12.7081H12.75C12.3358 12.7081 12 12.3723 12 11.9581C12 11.5439 12.3358 11.2081 12.75 11.2081H13.2872C13.7494 11.2081 14.1744 11.4194 14.4434 11.7644C14.7206 12.1199 14.8262 12.617 14.6272 13.1018C13.8806 14.921 12.091 16.2044 10 16.2044C9.37719 16.2044 8.77933 16.0902 8.22739 15.8809C7.37603 15.558 7 14.7175 7 13.9795V9.70447H5.75C5.33579 9.70447 5 9.36868 5 8.95447C5 8.54025 5.33579 8.20447 5.75 8.20447H7V6.76509L6.78033 6.98476C6.48744 7.27766 6.01256 7.27766 5.71967 6.98476C5.42678 6.69187 5.42678 6.21699 5.71967 5.9241L5.93934 5.70443Z" fill="black"/>
</svg>
