<svg width="20" height="21" viewBox="0 0 20 21" fill="none" xmlns="http://www.w3.org/2000/svg">
<path fill-rule="evenodd" clip-rule="evenodd" d="M10 18.2045C14.4183 18.2045 18 14.6227 18 10.2045C18 5.78619 14.4183 2.20447 10 2.20447C5.58172 2.20447 2 5.78619 2 10.2045C2 14.6227 5.58172 18.2045 10 18.2045ZM6.00002 5.95447C6.00002 5.54025 6.33581 5.20447 6.75002 5.20447H13.25C13.6642 5.20447 14 5.54025 14 5.95447C14 6.36868 13.6642 6.70447 13.25 6.70447H11.1227C11.5229 7.20369 11.8059 7.80094 11.9298 8.45447H13.25C13.6642 8.45447 14 8.79025 14 9.20447C14 9.61868 13.6642 9.95447 13.25 9.95447H11.9298C11.6108 11.636 10.2393 12.945 8.52636 13.1701L10.2804 14.9241C10.5732 15.217 10.5732 15.6919 10.2804 15.9848C9.98746 16.2777 9.51259 16.2777 9.21969 15.9848L6.21969 12.9848C6.00519 12.7703 5.94103 12.4477 6.05711 12.1675C6.1732 11.8872 6.44668 11.7045 6.75002 11.7045H8.00002C9.11943 11.7045 10.067 10.9687 10.3856 9.95447H6.75C6.33579 9.95447 6 9.61868 6 9.20447C6 8.79025 6.33579 8.45447 6.75 8.45447H10.3856C10.067 7.44019 9.11943 6.70447 8.00002 6.70447H6.75002C6.33581 6.70447 6.00002 6.36868 6.00002 5.95447Z" fill="black"/>
</svg>
