<svg width="20" height="21" viewBox="0 0 20 21" fill="none" xmlns="http://www.w3.org/2000/svg">
<path fill-rule="evenodd" clip-rule="evenodd" d="M10 18.2045C14.4183 18.2045 18 14.6227 18 10.2045C18 5.78619 14.4183 2.20447 10 2.20447C5.58172 2.20447 2 5.78619 2 10.2045C2 14.6227 5.58172 18.2045 10 18.2045ZM8.79767 7.65485C9.31032 6.98447 9.93284 6.70447 10.5 6.70447C11.0672 6.70447 11.6897 6.98447 12.2023 7.65485C12.4539 7.98389 12.9247 8.04665 13.2537 7.79503C13.5827 7.54342 13.6455 7.07271 13.3939 6.74368C12.6373 5.75433 11.5963 5.20447 10.5 5.20447C9.40366 5.20447 8.36269 5.75433 7.60613 6.74368C7.27168 7.18104 7.01308 7.6768 6.83031 8.20447H5.75C5.33579 8.20447 5 8.54025 5 8.95447C5 9.36868 5.33579 9.70447 5.75 9.70447H6.51977C6.49341 10.0369 6.49341 10.372 6.51977 10.7045H5.75C5.33579 10.7045 5 11.0403 5 11.4545C5 11.8687 5.33579 12.2045 5.75 12.2045H6.83031C7.01308 12.7321 7.27168 13.2279 7.60613 13.6653C8.36269 14.6546 9.40366 15.2045 10.5 15.2045C11.5963 15.2045 12.6373 14.6546 13.3939 13.6653C13.6455 13.3362 13.5827 12.8655 13.2537 12.6139C12.9247 12.3623 12.4539 12.4251 12.2023 12.7541C11.6897 13.4245 11.0672 13.7045 10.5 13.7045C9.93284 13.7045 9.31032 13.4245 8.79767 12.7541C8.66735 12.5837 8.55299 12.3993 8.4546 12.2045H10.25C10.6642 12.2045 11 11.8687 11 11.4545C11 11.0403 10.6642 10.7045 10.25 10.7045H8.02592C7.99136 10.3729 7.99136 10.036 8.02592 9.70447H10.25C10.6642 9.70447 11 9.36868 11 8.95447C11 8.54025 10.6642 8.20447 10.25 8.20447H8.4546C8.55299 8.00962 8.66735 7.82528 8.79767 7.65485Z" fill="black"/>
</svg>
