<svg width="20" height="21" viewBox="0 0 20 21" fill="none" xmlns="http://www.w3.org/2000/svg">
<path d="M10.7499 11.0221V13.6369C11.1816 13.5571 11.5745 13.409 11.8876 13.2043C12.3698 12.8891 12.4999 12.5565 12.4999 12.3295C12.4999 12.1024 12.3698 11.7699 11.8876 11.4546C11.5745 11.2499 11.1816 11.1018 10.7499 11.0221Z" fill="black"/>
<path d="M8.32961 8.82394C8.38337 8.8799 8.44464 8.935 8.51404 8.98863C8.72197 9.14931 8.97355 9.27224 9.25 9.35137V6.80762C9.17545 6.82896 9.10271 6.85348 9.03215 6.88107C8.98721 6.89864 8.94315 6.91746 8.90007 6.93749C8.75996 7.00263 8.63019 7.0806 8.51404 7.17036C8.13658 7.46203 8 7.797 8 8.07949C8 8.26334 8.05784 8.4694 8.20228 8.6713C8.23898 8.72259 8.28126 8.77361 8.32961 8.82394Z" fill="black"/>
<path fill-rule="evenodd" clip-rule="evenodd" d="M18 10.2045C18 14.6227 14.4183 18.2045 10 18.2045C5.58172 18.2045 2 14.6227 2 10.2045C2 5.78619 5.58172 2.20447 10 2.20447C14.4183 2.20447 18 5.78619 18 10.2045ZM9.99994 4.20447C10.4142 4.20447 10.7499 4.54025 10.7499 4.95447V5.27031C11.3423 5.37552 11.9182 5.60874 12.4031 5.9834C12.8293 6.31275 13.1467 6.72283 13.3282 7.18343C13.4801 7.56879 13.2908 8.00432 12.9055 8.15621C12.5201 8.3081 12.0846 8.11883 11.9327 7.73347C11.8599 7.54884 11.72 7.35122 11.4859 7.17033C11.278 7.00966 11.0264 6.88672 10.7499 6.80759V9.50391C11.448 9.5968 12.1327 9.82266 12.7085 10.1991C13.4955 10.7137 13.9999 11.4688 13.9999 12.3295C13.9999 13.1901 13.4955 13.9452 12.7085 14.4598C12.1327 14.8363 11.448 15.0621 10.7499 15.155V15.4545C10.7499 15.8687 10.4142 16.2045 9.99994 16.2045C9.58573 16.2045 9.24994 15.8687 9.24994 15.4545V15.155C8.55186 15.0621 7.8672 14.8363 7.29141 14.4598C6.80887 14.1443 6.4337 13.7421 6.21337 13.2716C6.0377 12.8965 6.19937 12.45 6.57449 12.2743C6.9496 12.0986 7.39611 12.2603 7.57178 12.6354C7.65258 12.808 7.81692 13.0112 8.11229 13.2043C8.42537 13.409 8.8183 13.5571 9.24994 13.6369V10.8886C8.65762 10.7834 8.08167 10.5502 7.59681 10.1755C6.90033 9.63735 6.49994 8.88464 6.49994 8.07947C6.49994 7.27429 6.90034 6.52159 7.59681 5.9834C8.08167 5.60874 8.65762 5.37552 9.24994 5.27031V4.95447C9.24994 4.54025 9.58573 4.20447 9.99994 4.20447Z" fill="black"/>
</svg>
