<svg width="20" height="21" viewBox="0 0 20 21" fill="none" xmlns="http://www.w3.org/2000/svg">
<path fill-rule="evenodd" clip-rule="evenodd" d="M10 18.2045C14.4183 18.2045 18 14.6227 18 10.2045C18 5.78619 14.4183 2.20447 10 2.20447C5.58172 2.20447 2 5.78619 2 10.2045C2 14.6227 5.58172 18.2045 10 18.2045ZM7.34581 5.49886C7.09419 5.16982 6.62349 5.10706 6.29445 5.35868C5.96542 5.61029 5.90266 6.081 6.15427 6.41003L9.05588 10.2044H6.75004C6.33583 10.2044 6.00004 10.5402 6.00004 10.9544C6.00004 11.3687 6.33583 11.7044 6.75004 11.7044H9.25004V12.7044H6.75004C6.33583 12.7044 6.00004 13.0402 6.00004 13.4544C6.00004 13.8687 6.33583 14.2044 6.75004 14.2044H9.25004V15.4544C9.25004 15.8687 9.58583 16.2044 10 16.2044C10.4143 16.2044 10.75 15.8687 10.75 15.4544V14.2044H13.25C13.6643 14.2044 14 13.8687 14 13.4544C14 13.0402 13.6643 12.7044 13.25 12.7044H10.75V11.7044H13.25C13.6643 11.7044 14 11.3687 14 10.9544C14 10.5402 13.6643 10.2044 13.25 10.2044H10.9442L13.8458 6.41003C14.0974 6.081 14.0347 5.61029 13.7056 5.35868C13.3766 5.10706 12.9059 5.16982 12.6543 5.49886L10 8.96978L7.34581 5.49886Z" fill="black"/>
</svg>
