<svg width="20" height="21" viewBox="0 0 20 21" fill="none" xmlns="http://www.w3.org/2000/svg">
<path d="M8 16.4545C8 16.0403 8.33579 15.7045 8.75 15.7045H11.25C11.6642 15.7045 12 16.0403 12 16.4545C12 16.8687 11.6642 17.2045 11.25 17.2045H8.75C8.33579 17.2045 8 16.8687 8 16.4545Z" fill="black"/>
<path fill-rule="evenodd" clip-rule="evenodd" d="M4 4.20447C4 2.54761 5.34315 1.20447 7 1.20447H13C14.6569 1.20447 16 2.54761 16 4.20447V16.2045C16 17.8613 14.6569 19.2045 13 19.2045H7C5.34315 19.2045 4 17.8613 4 16.2045V4.20447ZM8 2.70447V3.45447C8 3.86868 8.33579 4.20447 8.75 4.20447H11.25C11.6642 4.20447 12 3.86868 12 3.45447V2.70447H13C13.8284 2.70447 14.5 3.37604 14.5 4.20447V16.2045C14.5 17.0329 13.8284 17.7045 13 17.7045H7C6.17157 17.7045 5.5 17.0329 5.5 16.2045V4.20447C5.5 3.37604 6.17157 2.70447 7 2.70447H8Z" fill="black"/>
</svg>
