<svg width="20" height="21" viewBox="0 0 20 21" fill="none" xmlns="http://www.w3.org/2000/svg">
<path fill-rule="evenodd" clip-rule="evenodd" d="M5 1.20447C3.34315 1.20447 2 2.54761 2 4.20447V16.2045C2 17.8613 3.34315 19.2045 5 19.2045H15C16.6569 19.2045 18 17.8613 18 16.2045V4.20447C18 2.54761 16.6569 1.20447 15 1.20447H5ZM3.5 4.20447C3.5 3.37604 4.17157 2.70447 5 2.70447H15C15.8284 2.70447 16.5 3.37604 16.5 4.20447V16.2045C16.5 17.0329 15.8284 17.7045 15 17.7045H5C4.17157 17.7045 3.5 17.0329 3.5 16.2045V4.20447ZM8.75 15.7045C8.33579 15.7045 8 16.0403 8 16.4545C8 16.8687 8.33579 17.2045 8.75 17.2045H11.25C11.6642 17.2045 12 16.8687 12 16.4545C12 16.0403 11.6642 15.7045 11.25 15.7045H8.75Z" fill="black"/>
</svg>
