<svg width="20" height="21" viewBox="0 0 20 21" fill="none" xmlns="http://www.w3.org/2000/svg">
<path d="M7 3.70447C7 2.87604 7.67157 2.20447 8.5 2.20447H12.3787C12.7765 2.20447 13.158 2.3625 13.4393 2.64381L16.5607 5.76513C16.842 6.04643 17 6.42796 17 6.82579V12.7045C17 13.5329 16.3284 14.2045 15.5 14.2045H14.5V10.8258C14.5 10.0301 14.1839 9.26708 13.6213 8.70447L10.5 5.58315C9.93739 5.02054 9.17433 4.70447 8.37868 4.70447H7V3.70447Z" fill="black"/>
<path d="M4.5 6.20447C3.67157 6.20447 3 6.87604 3 7.70447V16.7045C3 17.5329 3.67157 18.2045 4.5 18.2045H11.5C12.3284 18.2045 13 17.5329 13 16.7045V10.8258C13 10.428 12.842 10.0464 12.5607 9.76513L9.43934 6.64381C9.15804 6.3625 8.7765 6.20447 8.37868 6.20447H4.5Z" fill="black"/>
</svg>
