<svg width="20" height="21" viewBox="0 0 20 21" fill="none" xmlns="http://www.w3.org/2000/svg">
<path fill-rule="evenodd" clip-rule="evenodd" d="M4.5 2.20447C3.67157 2.20447 3 2.87604 3 3.70447V16.7045C3 17.5329 3.67157 18.2045 4.5 18.2045H15.5C16.3284 18.2045 17 17.5329 17 16.7045V7.82579C17 7.42796 16.842 7.04643 16.5607 6.76513L12.4393 2.64381C12.158 2.3625 11.7765 2.20447 11.3787 2.20447H4.5ZM6.75 10.7045C6.33579 10.7045 6 11.0403 6 11.4545C6 11.8687 6.33579 12.2045 6.75 12.2045H13.25C13.6642 12.2045 14 11.8687 14 11.4545C14 11.0403 13.6642 10.7045 13.25 10.7045H6.75ZM6.75 13.7045C6.33579 13.7045 6 14.0403 6 14.4545C6 14.8687 6.33579 15.2045 6.75 15.2045H13.25C13.6642 15.2045 14 14.8687 14 14.4545C14 14.0403 13.6642 13.7045 13.25 13.7045H6.75Z" fill="black"/>
</svg>
