<svg width="20" height="21" viewBox="0 0 20 21" fill="none" xmlns="http://www.w3.org/2000/svg">
<path fill-rule="evenodd" clip-rule="evenodd" d="M3 3.70447C3 2.87604 3.67157 2.20447 4.5 2.20447H11.3787C11.7765 2.20447 12.158 2.3625 12.4393 2.64381L16.5607 6.76513C16.842 7.04643 17 7.42796 17 7.82579V16.7045C17 17.5329 16.3284 18.2045 15.5 18.2045H4.5C3.67157 18.2045 3 17.5329 3 16.7045V3.70447ZM13.8566 9.3956C14.1002 9.06061 14.0261 8.59154 13.6911 8.34792C13.3561 8.10429 12.8871 8.17835 12.6434 8.51334L9.15969 13.3035L7.28033 11.4241C6.98744 11.1312 6.51256 11.1312 6.21967 11.4241C5.92678 11.717 5.92678 12.1919 6.21967 12.4848L8.71967 14.9848C8.87477 15.1399 9.08999 15.2193 9.30867 15.2022C9.52734 15.185 9.72754 15.073 9.85655 14.8956L13.8566 9.3956Z" fill="black"/>
</svg>
