<svg width="20" height="21" viewBox="0 0 20 21" fill="none" xmlns="http://www.w3.org/2000/svg">
<path d="M8 10.2045C8 9.37604 8.67157 8.70447 9.5 8.70447C10.3284 8.70447 11 9.37604 11 10.2045C11 10.6189 10.8329 10.9929 10.5607 11.2651C10.2884 11.5374 9.91442 11.7045 9.5 11.7045C8.67157 11.7045 8 11.0329 8 10.2045Z" fill="black"/>
<path fill-rule="evenodd" clip-rule="evenodd" d="M4.5 2.20447C3.67157 2.20447 3 2.87604 3 3.70447V16.7045C3 17.5329 3.67157 18.2045 4.5 18.2045H15.5C16.3284 18.2045 17 17.5329 17 16.7045V7.82579C17 7.42796 16.842 7.04643 16.5607 6.76513L12.4393 2.64381C12.158 2.3625 11.7765 2.20447 11.3787 2.20447H4.5ZM9.5 7.20447C7.84315 7.20447 6.5 8.54761 6.5 10.2045C6.5 11.8613 7.84315 13.2045 9.5 13.2045C10.056 13.2045 10.5773 13.0527 11.0239 12.789L12.2197 13.9848C12.5126 14.2777 12.9874 14.2777 13.2803 13.9848C13.5732 13.6919 13.5732 13.217 13.2803 12.9241L12.0845 11.7283C12.3483 11.2818 12.5 10.7605 12.5 10.2045C12.5 8.54761 11.1569 7.20447 9.5 7.20447Z" fill="black"/>
</svg>
