<svg width="20" height="21" viewBox="0 0 20 21" fill="none" xmlns="http://www.w3.org/2000/svg">
<path fill-rule="evenodd" clip-rule="evenodd" d="M4.5 2.20447C3.67157 2.20447 3 2.87604 3 3.70447V16.7045C3 17.5329 3.67157 18.2045 4.5 18.2045H15.5C16.3284 18.2045 17 17.5329 17 16.7045V7.82579C17 7.42796 16.842 7.04643 16.5607 6.76513L12.4393 2.64381C12.158 2.3625 11.7765 2.20447 11.3787 2.20447H4.5ZM9.25 8.95447C9.25 8.54025 9.58579 8.20447 10 8.20447C10.4142 8.20447 10.75 8.54025 10.75 8.95447V11.5L11.6925 10.4527C11.9696 10.1449 12.4438 10.1199 12.7517 10.397C13.0596 10.6741 13.0846 11.1483 12.8075 11.4562L10.5575 13.9562C10.4152 14.1142 10.2126 14.2045 10 14.2045C9.78739 14.2045 9.58476 14.1142 9.44253 13.9562L7.19253 11.4562C6.91544 11.1483 6.94039 10.6741 7.24828 10.397C7.55616 10.1199 8.03038 10.1449 8.30747 10.4527L9.25 11.5V8.95447Z" fill="black"/>
</svg>
