<svg width="20" height="21" viewBox="0 0 20 21" fill="none" xmlns="http://www.w3.org/2000/svg">
<path fill-rule="evenodd" clip-rule="evenodd" d="M4.5 2.20447C3.67157 2.20447 3 2.87604 3 3.70447V16.7045C3 17.5329 3.67157 18.2045 4.5 18.2045H15.5C16.3284 18.2045 17 17.5329 17 16.7045V7.82579C17 7.42796 16.842 7.04643 16.5607 6.76513L12.4393 2.64381C12.158 2.3625 11.7765 2.20447 11.3787 2.20447H4.5ZM12.25 11.9545C12.6642 11.9545 13 11.6187 13 11.2045C13 10.7903 12.6642 10.4545 12.25 10.4545H7.75C7.33579 10.4545 7 10.7903 7 11.2045C7 11.6187 7.33579 11.9545 7.75 11.9545H12.25Z" fill="black"/>
</svg>
