<svg width="20" height="21" viewBox="0 0 20 21" fill="none" xmlns="http://www.w3.org/2000/svg">
<path fill-rule="evenodd" clip-rule="evenodd" d="M3 3.70447C3 2.87604 3.67157 2.20447 4.5 2.20447H11.3787C11.7765 2.20447 12.158 2.3625 12.4393 2.64381L16.5607 6.76513C16.842 7.04643 17 7.42796 17 7.82579V16.7045C17 17.5329 16.3284 18.2045 15.5 18.2045H4.5C3.67157 18.2045 3 17.5329 3 16.7045V3.70447ZM13.25 9.20447C13.6642 9.20447 14 9.54025 14 9.95447V14.4545C14 14.8687 13.6642 15.2045 13.25 15.2045C12.8358 15.2045 12.5 14.8687 12.5 14.4545V9.95447C12.5 9.54025 12.8358 9.20447 13.25 9.20447ZM6.75 13.2045C7.16421 13.2045 7.5 13.5403 7.5 13.9545V14.4545C7.5 14.8687 7.16421 15.2045 6.75 15.2045C6.33579 15.2045 6 14.8687 6 14.4545V13.9545C6 13.5403 6.33579 13.2045 6.75 13.2045ZM10.75 11.9545C10.75 11.5403 10.4142 11.2045 10 11.2045C9.58579 11.2045 9.25 11.5403 9.25 11.9545V14.4545C9.25 14.8687 9.58579 15.2045 10 15.2045C10.4142 15.2045 10.75 14.8687 10.75 14.4545V11.9545Z" fill="black"/>
</svg>
