<svg width="20" height="21" viewBox="0 0 20 21" fill="none" xmlns="http://www.w3.org/2000/svg">
<path fill-rule="evenodd" clip-rule="evenodd" d="M4.5 2.20447C3.67157 2.20447 3 2.87604 3 3.70447V16.7045C3 17.5329 3.67157 18.2045 4.5 18.2045H15.5C16.3284 18.2045 17 17.5329 17 16.7045V7.82579C17 7.42796 16.842 7.04643 16.5607 6.76513L12.4393 2.64381C12.158 2.3625 11.7765 2.20447 11.3787 2.20447H4.5ZM9.25 13.4545C9.25 13.8687 9.58579 14.2045 10 14.2045C10.4142 14.2045 10.75 13.8687 10.75 13.4545V10.9089L11.6925 11.9562C11.9696 12.2641 12.4438 12.289 12.7517 12.0119C13.0596 11.7348 13.0846 11.2606 12.8075 10.9527L10.5575 8.45274C10.4152 8.29471 10.2126 8.20447 10 8.20447C9.78739 8.20447 9.58476 8.29471 9.44253 8.45274L7.19253 10.9527C6.91544 11.2606 6.94039 11.7348 7.24828 12.0119C7.55616 12.289 8.03038 12.2641 8.30747 11.9562L9.25 10.9089V13.4545Z" fill="black"/>
</svg>
