<svg width="20" height="21" viewBox="0 0 20 21" fill="none" xmlns="http://www.w3.org/2000/svg">
<path fill-rule="evenodd" clip-rule="evenodd" d="M4.5 2.20447C3.67157 2.20447 3 2.87604 3 3.70447V16.7045C3 17.5329 3.67157 18.2045 4.5 18.2045H15.5C16.3284 18.2045 17 17.5329 17 16.7045V7.82579C17 7.42796 16.842 7.04643 16.5607 6.76513L12.4393 2.64381C12.158 2.3625 11.7765 2.20447 11.3787 2.20447H4.5ZM10 8.20447C10.4142 8.20447 10.75 8.54025 10.75 8.95447V10.4545H12.25C12.6642 10.4545 13 10.7903 13 11.2045C13 11.6187 12.6642 11.9545 12.25 11.9545H10.75V13.4545C10.75 13.8687 10.4142 14.2045 10 14.2045C9.58579 14.2045 9.25 13.8687 9.25 13.4545V11.9545H7.75C7.33579 11.9545 7 11.6187 7 11.2045C7 10.7903 7.33579 10.4545 7.75 10.4545H9.25V8.95447C9.25 8.54025 9.58579 8.20447 10 8.20447Z" fill="black"/>
</svg>
