<svg width="20" height="21" viewBox="0 0 20 21" fill="none" xmlns="http://www.w3.org/2000/svg">
<path fill-rule="evenodd" clip-rule="evenodd" d="M2 10.2045C2 5.78619 5.58172 2.20447 10 2.20447C14.4183 2.20447 18 5.78619 18 10.2045C18 14.6227 14.4183 18.2045 10 18.2045C5.58172 18.2045 2 14.6227 2 10.2045ZM10 11.2045C10.5523 11.2045 11 10.7568 11 10.2045C11 9.65218 10.5523 9.20447 10 9.20447C9.44772 9.20447 9 9.65218 9 10.2045C9 10.7568 9.44772 11.2045 10 11.2045ZM7 10.2045C7 10.7568 6.55228 11.2045 6 11.2045C5.44772 11.2045 5 10.7568 5 10.2045C5 9.65218 5.44772 9.20447 6 9.20447C6.55228 9.20447 7 9.65218 7 10.2045ZM14 11.2045C14.5523 11.2045 15 10.7568 15 10.2045C15 9.65218 14.5523 9.20447 14 9.20447C13.4477 9.20447 13 9.65218 13 10.2045C13 10.7568 13.4477 11.2045 14 11.2045Z" fill="black"/>
</svg>
