<svg width="20" height="21" viewBox="0 0 20 21" fill="none" xmlns="http://www.w3.org/2000/svg">
<path d="M10 3.20447C10.8284 3.20447 11.5 3.87604 11.5 4.70447C11.5 5.53289 10.8284 6.20447 10 6.20447C9.17157 6.20447 8.5 5.53289 8.5 4.70447C8.5 3.87604 9.17157 3.20447 10 3.20447Z" fill="black"/>
<path d="M10 8.70447C10.8284 8.70447 11.5 9.37604 11.5 10.2045C11.5 11.0329 10.8284 11.7045 10 11.7045C9.17157 11.7045 8.5 11.0329 8.5 10.2045C8.5 9.37604 9.17157 8.70447 10 8.70447Z" fill="black"/>
<path d="M11.5 15.7045C11.5 14.876 10.8284 14.2045 10 14.2045C9.17157 14.2045 8.5 14.876 8.5 15.7045C8.5 16.5329 9.17157 17.2045 10 17.2045C10.8284 17.2045 11.5 16.5329 11.5 15.7045Z" fill="black"/>
</svg>
