<svg width="20" height="21" viewBox="0 0 20 21" fill="none" xmlns="http://www.w3.org/2000/svg">
<path d="M3 10.2045C3 9.37604 3.67157 8.70447 4.5 8.70447C5.32843 8.70447 6 9.37604 6 10.2045C6 11.0329 5.32843 11.7045 4.5 11.7045C3.67157 11.7045 3 11.0329 3 10.2045Z" fill="black"/>
<path d="M8.5 10.2045C8.5 9.37604 9.17157 8.70447 10 8.70447C10.8284 8.70447 11.5 9.37604 11.5 10.2045C11.5 11.0329 10.8284 11.7045 10 11.7045C9.17157 11.7045 8.5 11.0329 8.5 10.2045Z" fill="black"/>
<path d="M15.5 8.70447C14.6716 8.70447 14 9.37604 14 10.2045C14 11.0329 14.6716 11.7045 15.5 11.7045C16.3284 11.7045 17 11.0329 17 10.2045C17 9.37604 16.3284 8.70447 15.5 8.70447Z" fill="black"/>
</svg>
