<svg width="20" height="21" viewBox="0 0 20 21" fill="none" xmlns="http://www.w3.org/2000/svg">
<path fill-rule="evenodd" clip-rule="evenodd" d="M2.10557 6.6517C1.428 6.99048 1 7.68301 1 8.44055V16.2045C1 17.3091 1.89543 18.2045 3 18.2045H17C18.1046 18.2045 19 17.3091 19 16.2045V8.44055C19 7.68301 18.572 6.99048 17.8944 6.6517L10.8944 3.1517C10.3314 2.87017 9.66863 2.87017 9.10557 3.1517L2.10557 6.6517ZM3.58541 10.6587C3.21493 10.4734 2.76442 10.6236 2.57918 10.9941C2.39394 11.3646 2.54411 11.8151 2.91459 12.0003L8.77016 14.9281C9.54436 15.3152 10.4556 15.3152 11.2298 14.9281L17.0823 12.0019C17.4528 11.8166 17.6029 11.3661 17.4177 10.9956C17.2325 10.6252 16.7819 10.475 16.4115 10.6602L10.559 13.5864C10.2071 13.7624 9.79289 13.7624 9.44098 13.5864L3.58541 10.6587Z" fill="black"/>
</svg>
