<svg width="20" height="21" viewBox="0 0 20 21" fill="none" xmlns="http://www.w3.org/2000/svg">
<path fill-rule="evenodd" clip-rule="evenodd" d="M18 10.2045C18 14.6227 14.4183 18.2045 10 18.2045C5.58172 18.2045 2 14.6227 2 10.2045C2 5.78619 5.58172 2.20447 10 2.20447C14.4183 2.20447 18 5.78619 18 10.2045ZM10 5.20447C10.4142 5.20447 10.75 5.54025 10.75 5.95447V10.4545C10.75 10.8687 10.4142 11.2045 10 11.2045C9.58579 11.2045 9.25 10.8687 9.25 10.4545V5.95447C9.25 5.54025 9.58579 5.20447 10 5.20447ZM10 15.2045C10.5523 15.2045 11 14.7568 11 14.2045C11 13.6522 10.5523 13.2045 10 13.2045C9.44771 13.2045 9 13.6522 9 14.2045C9 14.7568 9.44771 15.2045 10 15.2045Z" fill="black"/>
</svg>
