<svg width="20" height="21" viewBox="0 0 20 21" fill="none" xmlns="http://www.w3.org/2000/svg">
<path fill-rule="evenodd" clip-rule="evenodd" d="M8.4845 2.69946C9.15808 1.53279 10.842 1.5328 11.5156 2.69946L17.7943 13.5745C18.4678 14.7411 17.6259 16.1995 16.2787 16.1995H3.72136C2.37421 16.1995 1.53224 14.7411 2.20582 13.5745L8.4845 2.69946ZM10 5.20447C10.4142 5.20447 10.75 5.54025 10.75 5.95447V9.45447C10.75 9.86868 10.4142 10.2045 10 10.2045C9.58579 10.2045 9.25 9.86868 9.25 9.45447L9.25 5.95447C9.25 5.54025 9.58579 5.20447 10 5.20447ZM10 14.2045C10.5523 14.2045 11 13.7568 11 13.2045C11 12.6522 10.5523 12.2045 10 12.2045C9.44772 12.2045 9 12.6522 9 13.2045C9 13.7568 9.44772 14.2045 10 14.2045Z" fill="black"/>
</svg>
