<svg width="20" height="21" viewBox="0 0 20 21" fill="none" xmlns="http://www.w3.org/2000/svg">
<path fill-rule="evenodd" clip-rule="evenodd" d="M3.28033 2.42426C2.98744 2.13137 2.51256 2.13137 2.21967 2.42426C1.92678 2.71715 1.92678 3.19203 2.21967 3.48492L16.7197 17.9849C17.0126 18.2778 17.4874 18.2778 17.7803 17.9849C18.0732 17.692 18.0732 17.2172 17.7803 16.9243L16.0352 15.1791C17.5064 14.064 18.6595 12.5511 19.3344 10.8005C19.4814 10.419 19.4816 9.99586 19.3347 9.61421C17.892 5.8651 14.256 3.20459 9.99859 3.20459C8.28207 3.20459 6.66657 3.63708 5.2551 4.39903L3.28033 2.42426ZM7.75194 6.89586L8.84367 7.9876C9.18951 7.80682 9.58291 7.70459 10.0002 7.70459C11.3809 7.70459 12.5002 8.82388 12.5002 10.2046C12.5002 10.6219 12.398 11.0153 12.2172 11.3611L13.3091 12.453C13.7454 11.8123 14.0004 11.0382 14.0004 10.2046C14.0004 7.99545 12.2095 6.20459 10.0004 6.20459C9.16675 6.20459 8.39268 6.4596 7.75194 6.89586Z" fill="black"/>
<path d="M10.7484 14.1348L13.2711 16.6575C12.2462 17.012 11.1458 17.2046 10.0004 17.2046C5.74298 17.2046 2.10698 14.5441 0.664255 10.795C0.517392 10.4133 0.517518 9.99022 0.66461 9.60867C1.15603 8.33391 1.90108 7.18516 2.83791 6.22428L6.0702 9.45657C6.02436 9.69889 6.00037 9.94894 6.00037 10.2046C6.00037 12.4137 7.79123 14.2046 10.0004 14.2046C10.256 14.2046 10.5061 14.1806 10.7484 14.1348Z" fill="black"/>
</svg>
