<svg width="20" height="21" viewBox="0 0 20 21" fill="none" xmlns="http://www.w3.org/2000/svg">
<path fill-rule="evenodd" clip-rule="evenodd" d="M12.0998 3.87115C12.4737 2.34047 13.8542 1.20447 15.5 1.20447C15.5146 1.20447 15.5292 1.20456 15.5438 1.20474C15.9323 1.2095 16.3056 1.27757 16.6538 1.39912C17.1364 1.56707 17.5896 1.84377 17.9754 2.22949C18.892 3.14614 19.193 4.44431 18.8818 5.6097C18.7282 6.18526 18.4253 6.72926 17.9754 7.17924C17.6708 7.48382 17.3231 7.72099 16.9518 7.89011C16.7625 7.97653 16.5641 8.04656 16.3585 8.09841L16 8.19447V10.2044C16 10.4034 15.921 10.5941 15.7803 10.7348L15.5303 10.9848C15.2374 11.2777 14.7626 11.2777 14.4697 10.9848L13.625 10.1401L7.21967 16.5454C6.79771 16.9674 6.22541 17.2044 5.62868 17.2044H5.12132C4.92241 17.2044 4.73164 17.2835 4.59099 17.4241L3.03033 18.9848C2.73744 19.2777 2.26256 19.2777 1.96967 18.9848L1.21967 18.2348C0.926777 17.9419 0.926777 17.467 1.21967 17.1741L2.78033 15.6135C2.92098 15.4728 3 15.282 3 15.0831V14.5758C3 13.979 3.23705 13.4067 3.65901 12.9848L10.0643 6.57944L9.21967 5.73477C8.92678 5.44188 8.92678 4.96701 9.21967 4.67411L9.46967 4.42411C9.61032 4.28346 9.80109 4.20444 10 4.20444H12.0105L12.0998 3.87115ZM4.71967 14.0454L11.125 7.6401L12.5643 9.07944L6.15901 15.4848C6.01836 15.6254 5.82759 15.7044 5.62868 15.7044H5.12132C4.86336 15.7044 4.60997 15.7487 4.37132 15.8331C4.4557 15.5945 4.5 15.3411 4.5 15.0831V14.5758C4.5 14.3769 4.57902 14.1861 4.71967 14.0454Z" fill="black"/>
</svg>
