<svg width="20" height="21" viewBox="0 0 20 21" fill="none" xmlns="http://www.w3.org/2000/svg">
<path d="M10 12.7045C11.3807 12.7045 12.5 11.5852 12.5 10.2045C12.5 8.82376 11.3807 7.70447 10 7.70447C8.61929 7.70447 7.5 8.82376 7.5 10.2045C7.5 11.5852 8.61929 12.7045 10 12.7045Z" fill="black"/>
<path fill-rule="evenodd" clip-rule="evenodd" d="M0.664255 10.7948C0.517392 10.4132 0.517518 9.9901 0.66461 9.60854C2.10878 5.86235 5.7433 3.20447 9.99859 3.20447C14.256 3.20447 17.892 5.86497 19.3347 9.61409C19.4816 9.99574 19.4814 10.4188 19.3344 10.8004C17.8902 14.5466 14.2557 17.2045 10.0004 17.2045C5.74298 17.2045 2.10698 14.544 0.664255 10.7948ZM14.0004 10.2045C14.0004 12.4136 12.2095 14.2045 10.0004 14.2045C7.79123 14.2045 6.00037 12.4136 6.00037 10.2045C6.00037 7.99533 7.79123 6.20447 10.0004 6.20447C12.2095 6.20447 14.0004 7.99533 14.0004 10.2045Z" fill="black"/>
</svg>
