<svg width="20" height="21" viewBox="0 0 20 21" fill="none" xmlns="http://www.w3.org/2000/svg">
<path fill-rule="evenodd" clip-rule="evenodd" d="M10 18.2046C14.4183 18.2046 18 14.6229 18 10.2046C18 5.78631 14.4183 2.20459 10 2.20459C5.58172 2.20459 2 5.78631 2 10.2046C2 14.6229 5.58172 18.2046 10 18.2046ZM13.5355 13.7401C13.8284 13.4472 13.8284 12.9723 13.5355 12.6795C13.2426 12.3866 12.7678 12.3866 12.4749 12.6795C11.108 14.0463 8.89196 14.0463 7.52513 12.6795C7.23223 12.3866 6.75736 12.3866 6.46447 12.6795C6.17157 12.9723 6.17157 13.4472 6.46447 13.7401C8.41709 15.6927 11.5829 15.6927 13.5355 13.7401ZM9 8.70459C9 9.53302 8.55228 10.2046 8 10.2046C7.44772 10.2046 7 9.53302 7 8.70459C7 7.87616 7.44772 7.20459 8 7.20459C8.55228 7.20459 9 7.87616 9 8.70459ZM12 10.2046C12.5523 10.2046 13 9.53302 13 8.70459C13 7.87616 12.5523 7.20459 12 7.20459C11.4477 7.20459 11 7.87616 11 8.70459C11 9.53302 11.4477 10.2046 12 10.2046Z" fill="black"/>
</svg>
