<svg width="20" height="21" viewBox="0 0 20 21" fill="none" xmlns="http://www.w3.org/2000/svg">
<path fill-rule="evenodd" clip-rule="evenodd" d="M10 18.2046C14.4183 18.2046 18 14.6229 18 10.2046C18 5.78631 14.4183 2.20459 10 2.20459C5.58172 2.20459 2 5.78631 2 10.2046C2 14.6229 5.58172 18.2046 10 18.2046ZM6.46447 14.7297C6.75736 15.0226 7.23223 15.0226 7.52513 14.7297C8.89196 13.3629 11.108 13.3629 12.4749 14.7297C12.7678 15.0226 13.2426 15.0226 13.5355 14.7297C13.8284 14.4368 13.8284 13.962 13.5355 13.6691C11.5829 11.7165 8.41709 11.7165 6.46447 13.6691C6.17157 13.962 6.17157 14.4368 6.46447 14.7297ZM9 8.70459C9 9.53302 8.55228 10.2046 8 10.2046C7.44772 10.2046 7 9.53302 7 8.70459C7 7.87616 7.44772 7.20459 8 7.20459C8.55228 7.20459 9 7.87616 9 8.70459ZM12 10.2046C12.5523 10.2046 13 9.53302 13 8.70459C13 7.87616 12.5523 7.20459 12 7.20459C11.4477 7.20459 11 7.87616 11 8.70459C11 9.53302 11.4477 10.2046 12 10.2046Z" fill="black"/>
</svg>
