<svg width="20" height="21" viewBox="0 0 20 21" fill="none" xmlns="http://www.w3.org/2000/svg">
<path fill-rule="evenodd" clip-rule="evenodd" d="M1 4.95459C1 3.98809 1.7835 3.20459 2.75 3.20459H17.25C18.2165 3.20459 19 3.98809 19 4.95459V15.4696C19 16.4361 18.2165 17.2196 17.25 17.2196H15.75C15.6719 17.2196 15.5951 17.2145 15.5197 17.2046H4.48027C4.40492 17.2145 4.32806 17.2196 4.25 17.2196H2.75C1.7835 17.2196 1 16.4361 1 15.4696V4.95459ZM17.5 12.3396V11.2146C17.5 11.0765 17.3881 10.9646 17.25 10.9646H15.75C15.6119 10.9646 15.5 11.0765 15.5 11.2146V12.3396C15.5 12.4777 15.6119 12.5896 15.75 12.5896H17.25C17.3881 12.5896 17.5 12.4777 17.5 12.3396ZM17.5 14.3446C17.5 14.2065 17.3881 14.0946 17.25 14.0946H15.75C15.6119 14.0946 15.5 14.2065 15.5 14.3446V15.4696C15.5 15.5776 15.5685 15.6697 15.6645 15.7046H17.25C17.3881 15.7046 17.5 15.5927 17.5 15.4546V14.3446ZM2.5 15.4546V14.3446C2.5 14.2065 2.61193 14.0946 2.75 14.0946H4.25C4.38807 14.0946 4.5 14.2065 4.5 14.3446V15.4696C4.5 15.5776 4.43148 15.6697 4.33553 15.7046H2.75C2.61193 15.7046 2.5 15.5927 2.5 15.4546ZM4.5 11.2146V12.3396C4.5 12.4777 4.38807 12.5896 4.25 12.5896H2.75C2.61193 12.5896 2.5 12.4777 2.5 12.3396V11.2146C2.5 11.0765 2.61193 10.9646 2.75 10.9646H4.25C4.38807 10.9646 4.5 11.0765 4.5 11.2146ZM17.5 9.20959V8.08459C17.5 7.94652 17.3881 7.83459 17.25 7.83459H15.75C15.6119 7.83459 15.5 7.94652 15.5 8.08459V9.20959C15.5 9.34767 15.6119 9.45959 15.75 9.45959H17.25C17.3881 9.45959 17.5 9.34767 17.5 9.20959ZM4.25 7.83459C4.38807 7.83459 4.5 7.94652 4.5 8.08459V9.20959C4.5 9.34767 4.38807 9.45959 4.25 9.45959H2.75C2.61193 9.45959 2.5 9.34767 2.5 9.20959V8.08459C2.5 7.94652 2.61193 7.83459 2.75 7.83459H4.25ZM4.25 4.70459C4.38807 4.70459 4.5 4.81652 4.5 4.95459V6.07959C4.5 6.21766 4.38807 6.32959 4.25 6.32959H2.75C2.61193 6.32959 2.5 6.21766 2.5 6.07959V4.95459C2.5 4.81652 2.61193 4.70459 2.75 4.70459H4.25ZM15.75 6.32959C15.6119 6.32959 15.5 6.21766 15.5 6.07959V4.95459C15.5 4.81652 15.6119 4.70459 15.75 4.70459H17.25C17.3881 4.70459 17.5 4.81652 17.5 4.95459V6.07959C17.5 6.21766 17.3881 6.32959 17.25 6.32959H15.75ZM6.75 9.45459C6.33579 9.45459 6 9.79038 6 10.2046C6 10.6188 6.33579 10.9546 6.75 10.9546H13.25C13.6642 10.9546 14 10.6188 14 10.2046C14 9.79038 13.6642 9.45459 13.25 9.45459H6.75Z" fill="black"/>
</svg>
