<svg width="20" height="21" viewBox="0 0 20 21" fill="none" xmlns="http://www.w3.org/2000/svg">
<path fill-rule="evenodd" clip-rule="evenodd" d="M9.99999 2.70459C8.69048 2.70459 7.47351 3.09104 6.45417 3.75591C6.10723 3.9822 5.64254 3.88439 5.41625 3.53746C5.18996 3.19052 5.28777 2.72582 5.6347 2.49953C6.89037 1.68053 8.39074 1.20459 9.99999 1.20459C14.4183 1.20459 18 4.78631 18 9.20459C18 11.7776 17.5678 14.2513 16.7714 16.556C16.6361 16.9475 16.2091 17.1552 15.8176 17.0199C15.4261 16.8846 15.2184 16.4576 15.3537 16.0661C16.0963 13.9169 16.5 11.6087 16.5 9.20459C16.5 5.61474 13.5898 2.70459 9.99999 2.70459ZM4.33285 4.62085C4.67979 4.84715 4.77759 5.31184 4.5513 5.65878C3.88644 6.67812 3.49999 7.89508 3.49999 9.20459C3.49999 10.8124 3.02489 12.3116 2.20721 13.5665C1.98109 13.9136 1.51645 14.0116 1.1694 13.7855C0.82235 13.5594 0.724315 13.0947 0.950433 12.7477C1.61422 11.7289 1.99999 10.5129 1.99999 9.20459C1.99999 7.59534 2.47592 6.09497 3.29493 4.83931C3.52122 4.49237 3.98591 4.39456 4.33285 4.62085ZM9.99999 6.32458C8.34313 6.32458 6.99999 7.66773 6.99999 9.32458C6.99999 9.33837 6.99961 9.35207 6.99888 9.36567C6.96101 12.1215 5.95296 14.6447 4.30164 16.6064C4.03489 16.9233 3.56176 16.9639 3.24487 16.6972C2.92798 16.4304 2.88733 15.9573 3.15408 15.6404C4.61842 13.9008 5.49999 11.6566 5.49999 9.20459C5.49999 9.17677 5.5015 9.1493 5.50445 9.12226C5.61027 6.73087 7.58251 4.82458 9.99999 4.82458C12.4174 4.82458 14.3896 6.73072 14.4955 9.12213C14.4985 9.14975 14.5 9.17782 14.5 9.20625L14.4998 9.28609L14.5 9.32092C14.5 9.33214 14.4998 9.34331 14.4994 9.35442C14.4986 9.45381 14.4971 9.55303 14.4948 9.65208C14.4852 10.0662 14.1418 10.3941 13.7277 10.3845C13.3136 10.375 12.9856 10.0315 12.9952 9.61739C12.9977 9.50831 12.9993 9.39898 12.9998 9.2894C12.981 7.64885 11.6451 6.32458 9.99999 6.32458ZM9.99999 8.45459C10.4142 8.45459 10.75 8.79038 10.75 9.20459C10.75 12.7149 9.56303 15.9501 7.569 18.5278C7.31556 18.8554 6.84451 18.9156 6.51688 18.6621C6.18925 18.4087 6.12912 17.9376 6.38256 17.61C8.18049 15.2858 9.24999 12.3712 9.24999 9.20459C9.24999 8.79038 9.58577 8.45459 9.99999 8.45459ZM13.5288 12.1524C13.9346 12.2355 14.1962 12.6319 14.113 13.0376C13.6842 15.1307 12.9112 17.0983 11.8562 18.8784C11.645 19.2348 11.1849 19.3524 10.8286 19.1412C10.4723 18.93 10.3546 18.47 10.5658 18.1136C11.5374 16.4743 12.2488 14.6631 12.6436 12.7366C12.7267 12.3308 13.123 12.0692 13.5288 12.1524Z" fill="black"/>
</svg>
