<svg width="20" height="21" viewBox="0 0 20 21" fill="none" xmlns="http://www.w3.org/2000/svg">
<path fill-rule="evenodd" clip-rule="evenodd" d="M13.4997 5.14221C16.8478 7.07521 17.9949 11.3563 16.0619 14.7044C14.1289 18.0524 9.84775 19.1996 6.4997 17.2666C3.15166 15.3336 2.00453 11.0524 3.93753 7.70439C4.10592 7.41272 4.29214 7.13775 4.49401 6.88007C4.69562 6.62271 5.08463 6.66163 5.28714 6.91827C5.56487 7.27024 5.88119 7.59036 6.22971 7.87223C6.56235 8.14126 7.01647 7.82402 7.00304 7.39642C7.00103 7.33271 7.00003 7.26875 7.00003 7.20456C7.00003 6.28602 7.20643 5.41569 7.57539 4.63741C8.10854 3.51281 8.98111 2.58042 10.0608 1.97257C10.3078 1.83352 10.6112 1.95679 10.7378 2.21043C11.3297 3.39729 12.2651 4.42939 13.4997 5.14221ZM14 12.2046C14 14.4137 12.2092 16.2046 10 16.2046C8.08674 16.2046 6.4791 14.8062 6.09017 13.0229C5.9966 12.5939 6.52967 12.3795 6.90396 12.6091C7.38998 12.9071 7.93731 13.101 8.50538 13.1731C8.80801 13.2114 9.03609 12.9335 9.01482 12.6292C9.00501 12.489 9.00002 12.3474 9.00002 12.2046C9.00002 10.7777 9.49812 9.46713 10.3299 8.43728C10.4337 8.30876 10.599 8.24567 10.7612 8.27692C12.6063 8.63239 14 10.2557 14 12.2046Z" fill="black"/>
</svg>
