<svg width="20" height="21" viewBox="0 0 20 21" fill="none" xmlns="http://www.w3.org/2000/svg">
<path d="M3.5 2.95459C3.5 2.54038 3.16421 2.20459 2.75 2.20459C2.33579 2.20459 2 2.54038 2 2.95459V17.4546C2 17.8688 2.33579 18.2046 2.75 18.2046C3.16421 18.2046 3.5 17.8688 3.5 17.4546V13.0631L5.15742 12.7142C6.60458 12.4095 8.11248 12.6116 9.42842 13.2864C11.2723 14.2319 13.4125 14.4201 15.393 13.8107L17.4706 13.1714C17.7853 13.0746 18 12.7838 18 12.4546V3.95459C18 3.72857 17.8981 3.5146 17.7226 3.37219C17.547 3.22978 17.3167 3.17411 17.0955 3.22068L14.7157 3.72168C13.3151 4.01654 11.8585 3.89023 10.5296 3.35865L10.0275 3.15781C8.42359 2.51625 6.66566 2.3638 4.97524 2.71968L3.5 3.03025V2.95459Z" fill="black"/>
</svg>
