<svg width="20" height="21" viewBox="0 0 20 21" fill="none" xmlns="http://www.w3.org/2000/svg">
<path d="M4.75 3.20459C3.7835 3.20459 3 3.98809 3 4.95459V7.70618C3.03443 7.70512 3.06902 7.70459 3.10378 7.70459H16.8959C16.9307 7.70459 16.9654 7.70513 17 7.7062V6.95459C17 5.98809 16.2165 5.20459 15.25 5.20459H11.4142C11.3479 5.20459 11.2843 5.17825 11.2374 5.13137L9.82322 3.71715C9.49504 3.38896 9.04992 3.20459 8.58579 3.20459H4.75Z" fill="black"/>
<path d="M3.10373 9.20459C1.92632 9.20459 1.08486 10.3439 1.43112 11.4692L2.81573 15.9692C3.04167 16.7035 3.72009 17.2046 4.48835 17.2046H15.5112C16.2795 17.2046 16.9579 16.7035 17.1838 15.9692L18.5684 11.4692C18.9147 10.3439 18.0732 9.20459 16.8958 9.20459H3.10373Z" fill="black"/>
</svg>
