<svg width="20" height="21" viewBox="0 0 20 21" fill="none" xmlns="http://www.w3.org/2000/svg">
<path fill-rule="evenodd" clip-rule="evenodd" d="M2 4.95459C2 3.98809 2.7835 3.20459 3.75 3.20459H8.58579C9.04992 3.20459 9.49503 3.38896 9.82322 3.71715L11.2374 5.13137C11.2843 5.17825 11.3479 5.20459 11.4142 5.20459H16.25C17.2165 5.20459 18 5.98809 18 6.95459V15.4546C18 16.4211 17.2165 17.2046 16.25 17.2046H3.75C2.7835 17.2046 2 16.4211 2 15.4546V4.95459ZM12.25 11.9546C12.6642 11.9546 13 11.6188 13 11.2046C13 10.7904 12.6642 10.4546 12.25 10.4546H7.75C7.33579 10.4546 7 10.7904 7 11.2046C7 11.6188 7.33579 11.9546 7.75 11.9546H12.25Z" fill="black"/>
</svg>
