<svg width="20" height="21" viewBox="0 0 20 21" fill="none" xmlns="http://www.w3.org/2000/svg">
<path fill-rule="evenodd" clip-rule="evenodd" d="M2 4.95459C2 3.98809 2.7835 3.20459 3.75 3.20459H8.58579C9.04992 3.20459 9.49503 3.38896 9.82322 3.71715L11.2374 5.13137C11.2843 5.17825 11.3479 5.20459 11.4142 5.20459H16.25C17.2165 5.20459 18 5.98809 18 6.95459V15.4546C18 16.4211 17.2165 17.2046 16.25 17.2046H3.75C2.7835 17.2046 2 16.4211 2 15.4546V4.95459ZM10.75 8.95459C10.75 8.54038 10.4142 8.20459 10 8.20459C9.58579 8.20459 9.25 8.54038 9.25 8.95459V11.5001L8.30747 10.4529C8.03038 10.145 7.55616 10.12 7.24828 10.3971C6.94039 10.6742 6.91544 11.1484 7.19253 11.4563L9.44253 13.9563C9.58476 14.1143 9.78738 14.2046 10 14.2046C10.2126 14.2046 10.4152 14.1143 10.5575 13.9563L12.8075 11.4563C13.0846 11.1484 13.0596 10.6742 12.7517 10.3971C12.4438 10.12 11.9696 10.145 11.6925 10.4529L10.75 11.5001V8.95459Z" fill="black"/>
</svg>
