<svg width="20" height="21" viewBox="0 0 20 21" fill="none" xmlns="http://www.w3.org/2000/svg">
<path fill-rule="evenodd" clip-rule="evenodd" d="M3.75 3.20459C2.7835 3.20459 2 3.98809 2 4.95459V15.4546C2 16.4211 2.7835 17.2046 3.75 17.2046H16.25C17.2165 17.2046 18 16.4211 18 15.4546V6.95459C18 5.98809 17.2165 5.20459 16.25 5.20459H11.4142C11.3479 5.20459 11.2843 5.17825 11.2374 5.13137L9.82322 3.71715C9.49503 3.38896 9.04992 3.20459 8.58579 3.20459H3.75ZM10 8.20459C10.4142 8.20459 10.75 8.54038 10.75 8.95459V10.4546H12.25C12.6642 10.4546 13 10.7904 13 11.2046C13 11.6188 12.6642 11.9546 12.25 11.9546H10.75V13.4546C10.75 13.8688 10.4142 14.2046 10 14.2046C9.58579 14.2046 9.25 13.8688 9.25 13.4546V11.9546H7.75C7.33579 11.9546 7 11.6188 7 11.2046C7 10.7904 7.33579 10.4546 7.75 10.4546H9.25V8.95459C9.25 8.54038 9.58579 8.20459 10 8.20459Z" fill="black"/>
</svg>
