<svg width="20" height="21" viewBox="0 0 20 21" fill="none" xmlns="http://www.w3.org/2000/svg">
<path d="M3.75 3.20459C2.7835 3.20459 2 3.98809 2 4.95459V8.2155C2.50515 7.89209 3.10568 7.70459 3.75 7.70459H16.25C16.8943 7.70459 17.4949 7.89209 18 8.2155V6.95459C18 5.98809 17.2165 5.20459 16.25 5.20459H11.4142C11.3479 5.20459 11.2843 5.17825 11.2374 5.13137L9.82322 3.71715C9.49503 3.38896 9.04992 3.20459 8.58579 3.20459H3.75Z" fill="black"/>
<path d="M3.75 9.20459C2.7835 9.20459 2 9.98809 2 10.9546V15.4546C2 16.4211 2.7835 17.2046 3.75 17.2046H16.25C17.2165 17.2046 18 16.4211 18 15.4546V10.9546C18 9.98809 17.2165 9.20459 16.25 9.20459H3.75Z" fill="black"/>
</svg>
