<svg width="20" height="21" viewBox="0 0 20 21" fill="none" xmlns="http://www.w3.org/2000/svg">
<path fill-rule="evenodd" clip-rule="evenodd" d="M2.62803 1.80561C5.02718 1.41019 7.48986 1.20459 10 1.20459C12.5101 1.20459 14.9728 1.41019 17.372 1.80561C17.7342 1.86531 18 2.17848 18 2.54562V4.83327C18 5.43001 17.7629 6.0023 17.341 6.42426L12.659 11.1062C12.2371 11.5282 12 12.1005 12 12.6972V15.7337C12 16.4172 11.6893 17.0636 11.1556 17.4906L9.21852 19.0402C8.99339 19.2203 8.68496 19.2555 8.42511 19.1306C8.16526 19.0057 8 18.7429 8 18.4546V12.6972C8 12.1005 7.76295 11.5282 7.34099 11.1062L2.65901 6.42426C2.23705 6.0023 2 5.43001 2 4.83327V2.54562C2 2.17848 2.26578 1.86531 2.62803 1.80561Z" fill="black"/>
</svg>
