<svg width="20" height="21" viewBox="0 0 20 21" fill="none" xmlns="http://www.w3.org/2000/svg">
<path fill-rule="evenodd" clip-rule="evenodd" d="M1 5.45459C1 4.21195 2.00736 3.20459 3.25 3.20459H16.75C17.9926 3.20459 19 4.21195 19 5.45459V14.9546C19 16.1972 17.9926 17.2046 16.75 17.2046H3.25C2.00736 17.2046 1 16.1972 1 14.9546V5.45459ZM5.02565 8.3334C5.35663 7.85533 5.7212 7.70459 6 7.70459C6.2788 7.70459 6.64338 7.85533 6.97435 8.3334C7.21012 8.67396 7.67733 8.75891 8.0179 8.52314C8.35846 8.28736 8.44341 7.82015 8.20763 7.47959C7.65993 6.68845 6.87285 6.20459 6 6.20459C5.12715 6.20459 4.34007 6.68845 3.79237 7.47959C3.24966 8.26349 3 9.25216 3 10.2046C3 11.157 3.24966 12.1457 3.79237 12.9296C4.34007 13.7207 5.12715 14.2046 6 14.2046C6.87285 14.2046 7.65993 13.7207 8.20763 12.9296C8.29447 12.8042 8.34099 12.6552 8.34099 12.5027V10.2046C8.34099 9.79038 8.0052 9.45459 7.59099 9.45459H6.25C5.83579 9.45459 5.5 9.79038 5.5 10.2046C5.5 10.6188 5.83579 10.9546 6.25 10.9546H6.84099V12.2493C6.54806 12.5912 6.24178 12.7046 6 12.7046C5.7212 12.7046 5.35663 12.5538 5.02565 12.0758C4.68968 11.5905 4.5 10.9157 4.5 10.2046C4.5 9.49352 4.68968 8.8187 5.02565 8.3334ZM10.75 6.20459C11.1642 6.20459 11.5 6.54038 11.5 6.95459V13.4546C11.5 13.8688 11.1642 14.2046 10.75 14.2046C10.3358 14.2046 10 13.8688 10 13.4546V6.95459C10 6.54038 10.3358 6.20459 10.75 6.20459ZM13.75 6.20459H16.25C16.6642 6.20459 17 6.54038 17 6.95459C17 7.3688 16.6642 7.70459 16.25 7.70459H14.5V9.45459L15.25 9.45459C15.6642 9.45459 16 9.79038 16 10.2046C16 10.6188 15.6642 10.9546 15.25 10.9546L14.5 10.9546V13.4546C14.5 13.8688 14.1642 14.2046 13.75 14.2046C13.3358 14.2046 13 13.8688 13 13.4546V6.95459C13 6.54038 13.3358 6.20459 13.75 6.20459Z" fill="black"/>
</svg>
