<svg width="20" height="21" viewBox="0 0 20 21" fill="none" xmlns="http://www.w3.org/2000/svg">
<path fill-rule="evenodd" clip-rule="evenodd" d="M9.25 3.20459H3.5C2.67157 3.20459 2 3.87616 2 4.70459V9.45459H5.36497C4.36193 8.37614 4.38539 6.68841 5.43534 5.63846C6.48481 4.58899 8.17149 4.56508 9.25 5.56673V3.20459ZM2 10.9546V15.7046C2 16.533 2.67157 17.2046 3.5 17.2046H9.25V12.3282C8.47036 13.8855 6.86003 14.9546 5 14.9546C4.58579 14.9546 4.25 14.6188 4.25 14.2046C4.25 13.7904 4.58579 13.4546 5 13.4546C6.53679 13.4546 7.82445 12.3879 8.16303 10.9546H2ZM10.75 17.2046H16.5C17.3284 17.2046 18 16.533 18 15.7046V10.9546H11.837C12.1755 12.3879 13.4632 13.4546 15 13.4546C15.4142 13.4546 15.75 13.7904 15.75 14.2046C15.75 14.6188 15.4142 14.9546 15 14.9546C13.14 14.9546 11.5296 13.8855 10.75 12.3282V17.2046ZM18 9.45459V4.70459C18 3.87616 17.3284 3.20459 16.5 3.20459H10.75V5.56673C11.8285 4.56508 13.5152 4.58899 14.5647 5.63846C15.6146 6.68841 15.6381 8.37614 14.635 9.45459H18ZM13.504 6.69912C13.0158 6.21097 12.2244 6.21097 11.7362 6.69912C11.3768 7.05854 11.2105 7.69843 11.1772 8.3965C11.1664 8.62457 11.1706 8.83915 11.1809 9.02223C11.364 9.0325 11.5785 9.03675 11.8066 9.02588C12.5047 8.99264 13.1446 8.82631 13.504 8.46689C13.9922 7.97873 13.9922 7.18728 13.504 6.69912ZM8.26377 6.69912C7.77561 6.21097 6.98415 6.21097 6.496 6.69912C6.00784 7.18728 6.00784 7.97873 6.496 8.46689C6.85542 8.82631 7.49531 8.99264 8.19337 9.02588C8.42145 9.03675 8.63602 9.0325 8.81911 9.02223C8.82938 8.83915 8.83362 8.62457 8.82276 8.3965C8.78952 7.69843 8.62318 7.05854 8.26377 6.69912Z" fill="black"/>
</svg>
