<svg width="20" height="21" viewBox="0 0 20 21" fill="none" xmlns="http://www.w3.org/2000/svg">
<path fill-rule="evenodd" clip-rule="evenodd" d="M14.0002 6.20459C14.314 5.78676 14.5 5.26739 14.5 4.70459C14.5 3.32388 13.3807 2.20459 12 2.20459C11.1822 2.20459 10.4561 2.59726 10 3.20435C9.54389 2.59726 8.8178 2.20459 8 2.20459C6.61929 2.20459 5.5 3.32388 5.5 4.70459C5.5 5.26739 5.68597 5.78676 5.99982 6.20459H3.25C2.55964 6.20459 2 6.76423 2 7.45459V7.95459C2 8.64495 2.55964 9.20459 3.25 9.20459H9.25V6.20459H10.75V9.20459H16.75C17.4404 9.20459 18 8.64495 18 7.95459V7.45459C18 6.76423 17.4404 6.20459 16.75 6.20459H14.0002ZM13 4.70459C13 5.25687 12.5523 5.70459 12 5.70459H11L11 4.70459C11 4.15231 11.4477 3.70459 12 3.70459C12.5523 3.70459 13 4.1523 13 4.70459ZM7 4.70459C7 5.25687 7.44772 5.70459 8 5.70459H9V4.70459C9 4.15231 8.55228 3.70459 8 3.70459C7.44772 3.70459 7 4.15231 7 4.70459Z" fill="black"/>
<path d="M9.25 10.7046H3V15.4546C3 16.9734 4.23122 18.2046 5.75 18.2046H9.25V10.7046Z" fill="black"/>
<path d="M10.75 18.2046V10.7046H17V15.4546C17 16.9734 15.7688 18.2046 14.25 18.2046H10.75Z" fill="black"/>
</svg>
