<svg width="20" height="21" viewBox="0 0 20 21" fill="none" xmlns="http://www.w3.org/2000/svg">
<path fill-rule="evenodd" clip-rule="evenodd" d="M18 10.2046C18 14.6229 14.4183 18.2046 10 18.2046C5.58172 18.2046 2 14.6229 2 10.2046C2 5.78631 5.58172 2.20459 10 2.20459C14.4183 2.20459 18 5.78631 18 10.2046ZM11.5 16.5307C11.0185 16.6444 10.5163 16.7046 10 16.7046C7.98332 16.7046 6.18115 15.7862 4.98891 14.3448L5.47949 13.3637C5.59335 13.1359 5.88103 13.0595 6.09287 13.2008L6.38719 13.397C6.78056 13.6592 7.30434 13.6074 7.63864 13.2731C7.90427 13.0074 7.99702 12.6145 7.87823 12.2581L7.68051 11.665C7.6409 11.5461 7.6947 11.4163 7.80674 11.3602L9.78018 10.3735C10.2846 10.1213 10.4539 9.48401 10.141 9.01474C9.99285 8.79247 10.1177 8.49094 10.3797 8.43855L10.5047 8.41355C11.3568 8.24314 12.0522 7.62925 12.3269 6.80492L12.3766 6.65586C12.4964 6.29653 12.4029 5.90036 12.135 5.63253L10.6464 4.14393C10.5527 4.05016 10.5 3.92298 10.5 3.79038V3.72353C13.8562 3.97885 16.5 6.78298 16.5 10.2046C16.5 11.1868 16.2821 12.1182 15.8921 12.953C15.6958 12.8174 15.4634 12.7304 15.212 12.7095L14.6464 12.1439C14.3651 11.8626 13.9836 11.7046 13.5858 11.7046H13.4142C13.0164 11.7046 12.6349 11.8626 12.3536 12.1439L11.7612 12.7363C11.7232 12.7743 11.6793 12.8059 11.6312 12.8299L10.0528 13.6192C9.714 13.7886 9.5 14.1348 9.5 14.5136V14.7046C9.5 15.2569 9.94772 15.7046 10.5 15.7046H11C11.2761 15.7046 11.5 15.9284 11.5 16.2046V16.5307Z" fill="black"/>
</svg>
