<svg width="20" height="21" viewBox="0 0 20 21" fill="none" xmlns="http://www.w3.org/2000/svg">
<path fill-rule="evenodd" clip-rule="evenodd" d="M18 10.2046C18 14.6229 14.4183 18.2046 10 18.2046C5.58172 18.2046 2 14.6229 2 10.2046C2 5.78631 5.58172 2.20459 10 2.20459C14.4183 2.20459 18 5.78631 18 10.2046ZM16.4969 10.4087C16.389 13.9041 13.5216 16.7046 10 16.7046C6.41015 16.7046 3.5 13.7944 3.5 10.2046C3.5 7.33115 5.36451 4.8932 7.94969 4.03457L6.92671 5.82478C6.60171 6.39353 6.69759 7.10944 7.16078 7.57264C7.6029 8.01476 8.27833 8.12436 8.83757 7.84474L9.0123 7.75738C9.08173 7.72266 9.15829 7.70459 9.23591 7.70459H9.38181C9.5712 7.70459 9.74433 7.81159 9.82902 7.98098C9.8994 8.12175 9.8994 8.28743 9.82902 8.4282L9.80123 8.48378C9.73357 8.61911 9.59525 8.70459 9.44395 8.70459H8.9418C8.18614 8.70459 7.48048 9.08225 7.06131 9.711L7.01751 9.77671C6.65828 10.3155 6.56795 10.9901 6.77274 11.6044C6.98201 12.2322 7.47787 12.7243 8.10338 12.9328C8.33997 13.0117 8.49984 13.2338 8.49984 13.4794V14.5292C8.49984 15.1783 9.02608 15.7046 9.67523 15.7046C10.0323 15.7046 10.37 15.5423 10.5931 15.2635L12.2044 13.2492C12.3957 13.0102 12.4998 12.7132 12.4998 12.4071C12.4998 12.0912 12.6279 11.7837 12.8531 11.5585C13.3088 11.1028 13.3864 10.383 13.0257 9.84197L12.5617 9.14604C12.5214 9.0855 12.4998 9.01438 12.4998 8.94162C12.4998 8.63795 12.8465 8.46461 13.0895 8.64681L13.4322 8.90384C13.748 9.14068 14.1704 9.17832 14.523 9.00205C14.7488 8.88915 15.0216 8.93346 15.1996 9.11148L16.4969 10.4087Z" fill="black"/>
</svg>
