<svg width="20" height="21" viewBox="0 0 20 21" fill="none" xmlns="http://www.w3.org/2000/svg">
<path fill-rule="evenodd" clip-rule="evenodd" d="M18 10.2046C18 14.6229 14.4183 18.2046 10 18.2046C5.58172 18.2046 2 14.6229 2 10.2046C2 5.78631 5.58172 2.20459 10 2.20459C14.4183 2.20459 18 5.78631 18 10.2046ZM16.5 10.2046C16.5 13.7944 13.5899 16.7046 10 16.7046C6.41015 16.7046 3.5 13.7944 3.5 10.2046C3.5 8.36123 4.26733 6.69709 5.5 5.51416V5.96195C5.5 6.89021 5.86875 7.78045 6.52513 8.43682L8.29289 10.2046L8 10.4975C7.60947 10.888 7.60948 11.5212 8 11.9117L9.06066 12.9724C9.34197 13.2537 9.5 13.6352 9.5 14.033V14.3956C9.5 14.7743 9.714 15.1206 10.0528 15.29L10.3292 15.4282C10.8232 15.6752 11.4238 15.475 11.6708 14.981L13.1249 12.0729C13.4136 11.4954 13.3004 10.7979 12.8439 10.3414L12.0721 9.56954C11.8042 9.30171 11.4081 9.20819 11.0487 9.32797L10.6647 9.45599C10.4286 9.53467 10.1706 9.42781 10.0593 9.20525L9.76344 8.61344C9.67084 8.42824 9.70714 8.20456 9.85355 8.05814C9.99997 7.91173 10.2236 7.87543 10.4088 7.96803L10.6708 8.09902C10.8097 8.16844 10.9628 8.20459 11.118 8.20459H11.3063C11.9888 8.20459 12.4708 7.53589 12.255 6.88836L12.187 6.68437C12.1227 6.49151 12.1816 6.27893 12.3359 6.14663L13.7754 4.9128C15.4248 6.09169 16.5 8.02258 16.5 10.2046Z" fill="black"/>
</svg>
