<svg width="20" height="21" viewBox="0 0 20 21" fill="none" xmlns="http://www.w3.org/2000/svg">
<path d="M16.5546 5.61674C15.6845 4.37597 14.4711 3.39356 13.0522 2.80747C13.8305 4.17769 14.3991 5.68248 14.7147 7.27826C15.4062 6.81642 16.0263 6.25587 16.5546 5.61674Z" fill="black"/>
<path d="M13.3257 8.02937C12.9801 5.89601 12.1346 3.93022 10.9132 2.25614C10.6135 2.22209 10.3088 2.20459 10 2.20459C9.69121 2.20459 9.3865 2.22208 9.08682 2.25614C7.86543 3.93022 7.0199 5.896 6.67433 8.02937C7.69581 8.46407 8.81982 8.70459 10 8.70459C11.1802 8.70459 12.3042 8.46407 13.3257 8.02937Z" fill="black"/>
<path d="M6.51418 9.58027C7.59957 9.98397 8.77402 10.2046 10 10.2046C11.226 10.2046 12.4004 9.98397 13.4858 9.58027C13.4952 9.7872 13.5 9.99534 13.5 10.2046C13.5 11.2836 13.3734 12.333 13.1343 13.3389C12.1284 13.578 11.079 13.7046 10 13.7046C8.92099 13.7046 7.87155 13.578 6.86572 13.3389C6.62659 12.333 6.5 11.2836 6.5 10.2046C6.5 9.99534 6.50476 9.7872 6.51418 9.58027Z" fill="black"/>
<path d="M5.28529 7.27826C5.60086 5.68248 6.16954 4.17769 6.94776 2.80747C5.52894 3.39355 4.3155 4.37597 3.44542 5.61674C3.97374 6.25587 4.59375 6.81642 5.28529 7.27826Z" fill="black"/>
<path d="M17.3336 7.00302C17.7622 7.98337 18 9.06621 18 10.2046C18 10.5134 17.9825 10.8181 17.9484 11.1178C16.9787 11.8253 15.911 12.4067 14.7696 12.8379C14.921 11.9829 15 11.103 15 10.2046C15 9.76469 14.9811 9.32922 14.944 8.89894C15.8352 8.39104 16.6408 7.75005 17.3336 7.00302Z" fill="black"/>
<path d="M2.66636 7.00302C3.3592 7.75005 4.16477 8.39104 5.05604 8.89894C5.01894 9.32922 5 9.76469 5 10.2046C5 11.103 5.07898 11.9829 5.23037 12.8379C4.08897 12.4067 3.02132 11.8253 2.05155 11.1178C2.0175 10.8181 2 10.5134 2 10.2046C2 9.06621 2.23777 7.98337 2.66636 7.00302Z" fill="black"/>
<path d="M10 15.2046C10.8984 15.2046 11.7783 15.1256 12.6333 14.9742C12.2021 16.1156 11.6207 17.1833 10.9132 18.153C10.6135 18.1871 10.3088 18.2046 10 18.2046C9.69121 18.2046 9.3865 18.1871 9.08682 18.153C8.37929 17.1833 7.79789 16.1156 7.36674 14.9742C8.22167 15.1256 9.10161 15.2046 10 15.2046Z" fill="black"/>
<path d="M14.3573 14.5619C14.0334 15.6305 13.5935 16.6487 13.0522 17.6017C15.0158 16.7906 16.586 15.2204 17.3971 13.2568C16.4441 13.7981 15.4259 14.238 14.3573 14.5619Z" fill="black"/>
<path d="M6.94776 17.6017C4.98419 16.7906 3.41399 15.2204 2.60288 13.2568C3.55593 13.7981 4.57408 14.238 5.64268 14.5619C5.96656 15.6305 6.40648 16.6487 6.94776 17.6017Z" fill="black"/>
</svg>
