<svg width="20" height="21" viewBox="0 0 20 21" fill="none" xmlns="http://www.w3.org/2000/svg">
<path d="M18.905 12.9545C18.905 13.6448 18.3454 14.2045 17.655 14.2045C16.9647 14.2045 16.405 13.6448 16.405 12.9545L16.405 5.45447C16.405 4.76411 16.9647 4.20447 17.655 4.20447C18.3454 4.20447 18.905 4.76411 18.905 5.45447L18.905 12.9545Z" fill="black"/>
<path d="M8.90503 17.2045L8.90503 18.5043C8.90503 18.772 8.76529 19.0304 8.51009 19.1113C8.31921 19.1718 8.11593 19.2045 7.90503 19.2045C6.80046 19.2045 5.90503 18.309 5.90503 17.2045C5.90503 16.2094 6.08669 15.2568 6.41866 14.378C6.62278 13.8376 6.25262 13.2045 5.67499 13.2045L3.15503 13.2045C1.91239 13.2045 0.893941 12.1949 1.00882 10.9576C1.20192 8.87786 1.66037 6.87511 2.35 4.98352C2.75159 3.88199 3.83273 3.20447 5.00519 3.20447L8.19683 3.20447C8.66256 3.20447 9.1219 3.3129 9.53847 3.52119L12.2716 4.88775C12.6882 5.09603 13.1475 5.20447 13.6132 5.20447L14.905 5.20447L14.905 12.2045L13.9418 12.2045C13.2574 12.2045 12.684 12.687 12.3296 13.2725C11.8412 14.0797 11.0754 14.7002 10.1644 15.0022C9.73164 15.1456 9.31081 15.3885 9.15255 15.8161C8.99247 16.2486 8.90503 16.7163 8.90503 17.2045Z" fill="black"/>
</svg>
