<svg width="20" height="21" viewBox="0 0 20 21" fill="none" xmlns="http://www.w3.org/2000/svg">
<path fill-rule="evenodd" clip-rule="evenodd" d="M11 2.20447C11 1.65218 10.5523 1.20447 10 1.20447C9.44772 1.20447 9 1.65218 9 2.20447V8.20447V8.70447C9 8.98061 8.77614 9.20447 8.5 9.20447C8.22386 9.20447 8 8.98061 8 8.70447V8.20447V3.20447C8 2.65218 7.55229 2.20447 7 2.20447C6.44771 2.20447 6 2.65218 6 3.20447V8.20447V8.70447C6 8.98061 5.77614 9.20447 5.5 9.20447C5.22386 9.20447 5 8.98061 5 8.70447V8.20447V5.20447C5 4.65218 4.55229 4.20447 4 4.20447C3.44771 4.20447 3 4.65218 3 5.20447V11.2045V12.2045C3 16.0705 6.13401 19.2045 10 19.2045C13.866 19.2045 17 16.0705 17 12.2045V11.2045V8.20447C17 7.65218 16.5523 7.20447 16 7.20447C15.4477 7.20447 15 7.65218 15 8.20447V11.2045V11.7045C15 11.9806 14.7761 12.2045 14.5 12.2045C14.2239 12.2045 14 11.9806 14 11.7045V11.2045V10.2045V8.20447V3.20447C14 2.65218 13.5523 2.20447 13 2.20447C12.4477 2.20447 12 2.65218 12 3.20447V8.20447V8.70447C12 8.98061 11.7761 9.20447 11.5 9.20447C11.2239 9.20447 11 8.98061 11 8.70447V8.20447V2.20447Z" fill="black"/>
</svg>
