<svg width="20" height="21" viewBox="0 0 20 21" fill="none" xmlns="http://www.w3.org/2000/svg">
<path d="M1 8.45447C1 7.76411 1.55964 7.20447 2.25 7.20447C2.94036 7.20447 3.5 7.76411 3.5 8.45447V15.9545C3.5 16.6448 2.94036 17.2045 2.25 17.2045C1.55964 17.2045 1 16.6448 1 15.9545V8.45447Z" fill="black"/>
<path d="M11 3.20447V1.90463C11 1.6369 11.1397 1.37853 11.3949 1.29762C11.5858 1.23711 11.7891 1.20447 12 1.20447C13.1046 1.20447 14 2.0999 14 3.20447C14 4.1995 13.8183 5.15211 13.4864 6.03093C13.2823 6.57129 13.6524 7.20447 14.23 7.20447H16.75C17.9926 7.20447 19.0111 8.21404 18.8962 9.45136C18.7031 11.5311 18.2447 13.5338 17.555 15.4254C17.1534 16.5269 16.0723 17.2045 14.8998 17.2045H11.7082C11.2425 17.2045 10.7831 17.096 10.3666 16.8877L7.63344 15.5212C7.21687 15.3129 6.75753 15.2045 6.2918 15.2045H5V8.20447H5.9632C6.64763 8.20447 7.22105 7.72195 7.57541 7.1364C8.06387 6.32927 8.82963 5.7087 9.74061 5.40676C10.1734 5.26331 10.5942 5.02042 10.7525 4.59283C10.9126 4.16034 11 3.69261 11 3.20447Z" fill="black"/>
</svg>
