<svg width="20" height="21" viewBox="0 0 20 21" fill="none" xmlns="http://www.w3.org/2000/svg">
<path fill-rule="evenodd" clip-rule="evenodd" d="M9.49306 3.05695C9.54965 2.64662 9.2629 2.2681 8.85257 2.2115C8.44224 2.1549 8.06372 2.44166 8.00712 2.85199L7.54471 6.20447H4.19831C3.7841 6.20447 3.44831 6.54025 3.44831 6.95447C3.44831 7.36868 3.7841 7.70447 4.19831 7.70447H7.33782L6.64816 12.7045H3.30176C2.88754 12.7045 2.55176 13.0403 2.55176 13.4545C2.55176 13.8687 2.88754 14.2045 3.30176 14.2045H6.44127L6.00713 17.352C5.95053 17.7623 6.23728 18.1408 6.64761 18.1974C7.05794 18.254 7.43646 17.9673 7.49306 17.5569L7.95547 14.2045H10.9413L10.5071 17.352C10.4505 17.7623 10.7373 18.1408 11.1476 18.1974C11.5579 18.254 11.9365 17.9673 11.9931 17.5569L12.4555 14.2045H15.8018C16.216 14.2045 16.5518 13.8687 16.5518 13.4545C16.5518 13.0403 16.216 12.7045 15.8018 12.7045H12.6624L13.352 7.70447H16.6983C17.1125 7.70447 17.4483 7.36868 17.4483 6.95447C17.4483 6.54025 17.1125 6.20447 16.6983 6.20447H13.5589L13.9931 3.05695C14.0497 2.64662 13.7629 2.2681 13.3526 2.2115C12.9422 2.1549 12.5637 2.44166 12.5071 2.85199L12.0447 6.20447H9.05892L9.49306 3.05695ZM8.85202 7.70447L8.16236 12.7045H11.1482L11.8378 7.70447H8.85202Z" fill="black"/>
</svg>
