<svg width="20" height="21" viewBox="0 0 20 21" fill="none" xmlns="http://www.w3.org/2000/svg">
<path d="M9.65298 17.1194L9.6476 17.1166L9.62912 17.1068C9.61341 17.0986 9.59102 17.0866 9.56238 17.0712C9.50511 17.0403 9.42281 16.9952 9.31906 16.9364C9.11164 16.8191 8.81794 16.647 8.46663 16.4251C7.76556 15.9822 6.82731 15.3359 5.88539 14.5241C4.04447 12.9376 2 10.5567 2 7.70447C2 5.21919 4.01472 3.20447 6.5 3.20447C7.9144 3.20447 9.17542 3.85684 10 4.87605C10.8246 3.85684 12.0856 3.20447 13.5 3.20447C15.9853 3.20447 18 5.21919 18 7.70447C18 10.5567 15.9555 12.9376 14.1146 14.5241C13.1727 15.3359 12.2344 15.9822 11.5334 16.4251C11.1821 16.647 10.8884 16.8191 10.6809 16.9364C10.5772 16.9952 10.4949 17.0403 10.4376 17.0712C10.409 17.0866 10.3866 17.0986 10.3709 17.1068L10.3524 17.1166L10.347 17.1194L10.3453 17.1202C10.13 17.2345 9.87 17.2345 9.65529 17.1206L9.65298 17.1194Z" fill="black"/>
</svg>
