<svg width="20" height="21" viewBox="0 0 20 21" fill="none" xmlns="http://www.w3.org/2000/svg">
<path fill-rule="evenodd" clip-rule="evenodd" d="M9.29292 2.49736C9.68345 2.10684 10.3166 2.10684 10.7071 2.49736L17.7071 9.49736C17.9931 9.78336 18.0787 10.2135 17.9239 10.5872C17.7691 10.9608 17.4045 11.2045 17 11.2045H16V17.2045C16 17.7568 15.5523 18.2045 15 18.2045H13C12.4477 18.2045 12 17.7568 12 17.2045V14.2045C12 13.6522 11.5523 13.2045 11 13.2045H9.00003C8.44774 13.2045 8.00003 13.6522 8.00003 14.2045V17.2045C8.00003 17.7568 7.55231 18.2045 7.00003 18.2045H5.00003C4.44774 18.2045 4.00003 17.7568 4.00003 17.2045V11.2045H3.00003C2.59557 11.2045 2.23093 10.9608 2.07615 10.5872C1.92137 10.2135 2.00692 9.78336 2.29292 9.49736L9.29292 2.49736Z" fill="black"/>
</svg>
