<svg width="20" height="21" viewBox="0 0 20 21" fill="none" xmlns="http://www.w3.org/2000/svg">
<path d="M14.9156 2.60846C15.1067 2.97595 14.9637 3.42878 14.5962 3.61988L14 3.92989V17.2045C14 17.7568 13.5523 18.2045 13 18.2045H10.74C10.3258 18.2045 9.99 17.8687 9.99 17.4545V13.9545C9.99 13.5403 9.65421 13.2045 9.24 13.2045H6.75C6.33579 13.2045 6 13.5403 6 13.9545V17.4545C6 17.8687 5.66421 18.2045 5.25 18.2045H1.75C1.33579 18.2045 1 17.8687 1 17.4545C1 17.0403 1.33579 16.7045 1.75 16.7045H2V10.1617C1.65296 10.2848 1.25946 10.1365 1.08474 9.80048C0.893644 9.43299 1.03664 8.98016 1.40414 8.78906L2 8.47921V5.95447C2 5.54025 2.33579 5.20447 2.75 5.20447C3.16421 5.20447 3.5 5.54025 3.5 5.95447V7.69921L13.9041 2.28906C14.2716 2.09796 14.7245 2.24096 14.9156 2.60846Z" fill="black"/>
<path d="M15.8615 8.7737C16.0854 8.63772 16.3642 8.6285 16.5967 8.7494L18.596 9.78906C18.9635 9.98016 19.1065 10.433 18.9154 10.8005C18.7407 11.1364 18.3473 11.2848 18.0003 11.1618V16.7045H18.25C18.6642 16.7045 19 17.0403 19 17.4545C19 17.8687 18.6642 18.2045 18.25 18.2045H16.25C16.0511 18.2045 15.8603 18.1254 15.7196 17.9848C15.579 17.8441 15.5 17.6533 15.5 17.4544L15.5006 9.41475C15.5007 9.15271 15.6375 8.90968 15.8615 8.7737Z" fill="black"/>
</svg>
