<svg width="20" height="21" viewBox="0 0 20 21" fill="none" xmlns="http://www.w3.org/2000/svg">
<path fill-rule="evenodd" clip-rule="evenodd" d="M1 6.20447C1 4.54761 2.34315 3.20447 4 3.20447H16C17.6569 3.20447 19 4.54761 19 6.20447V14.2045C19 15.8613 17.6569 17.2045 16 17.2045H4C2.34315 17.2045 1 15.8613 1 14.2045V6.20447ZM5 7.70447C5 6.5999 5.89543 5.70447 7 5.70447C8.10457 5.70447 9 6.5999 9 7.70447C9 8.80904 8.10457 9.70447 7 9.70447C5.89543 9.70447 5 8.80904 5 7.70447ZM6.99987 10.7045C5.36027 10.7045 3.95272 11.6908 3.3351 13.0995C3.25293 13.2869 3.2509 13.4997 3.32946 13.6886C3.40802 13.8775 3.56036 14.0262 3.75117 14.1001C4.75988 14.4906 5.85579 14.7045 6.99987 14.7045C8.14395 14.7045 9.23987 14.4906 10.2486 14.1001C10.4394 14.0262 10.5917 13.8775 10.6703 13.6886C10.7488 13.4997 10.7468 13.2869 10.6647 13.0995C10.047 11.6908 8.63947 10.7045 6.99987 10.7045ZM12 6.95447C12 6.54025 12.3358 6.20447 12.75 6.20447H15.25C15.6642 6.20447 16 6.54025 16 6.95447C16 7.36868 15.6642 7.70447 15.25 7.70447H12.75C12.3358 7.70447 12 7.36868 12 6.95447ZM12 13.4545C12 13.0403 12.3358 12.7045 12.75 12.7045H15.25C15.6642 12.7045 16 13.0403 16 13.4545C16 13.8687 15.6642 14.2045 15.25 14.2045H12.75C12.3358 14.2045 12 13.8687 12 13.4545ZM12.75 9.45447C12.3358 9.45447 12 9.79025 12 10.2045C12 10.6187 12.3358 10.9545 12.75 10.9545L15.25 10.9545C15.6642 10.9545 16 10.6187 16 10.2045C16 9.79026 15.6642 9.45447 15.25 9.45447L12.75 9.45447Z" fill="black"/>
</svg>
