<svg width="20" height="21" viewBox="0 0 20 21" fill="none" xmlns="http://www.w3.org/2000/svg">
<path fill-rule="evenodd" clip-rule="evenodd" d="M1 11.4753C1 11.2282 1.03331 10.9822 1.09902 10.744L2.622 5.22316C2.95099 4.03057 4.03584 3.20447 5.27298 3.20447H14.727C15.9642 3.20447 17.049 4.03057 17.378 5.22316L18.901 10.744C18.9667 10.9822 19 11.2282 19 11.4753V15.2045C19 16.309 18.1046 17.2045 17 17.2045H3C1.89543 17.2045 1 16.309 1 15.2045V11.4753ZM4.06799 5.62206C4.21753 5.07997 4.71065 4.70447 5.27298 4.70447H14.727C15.2894 4.70447 15.7825 5.07997 15.932 5.62206L17.455 11.1429C17.4606 11.1633 17.4657 11.1838 17.4703 11.2045H14C13.6471 11.2045 13.3203 11.3905 13.1401 11.6939L12.5339 12.715C12.3537 13.0185 12.0269 13.2045 11.674 13.2045H8.23607C7.8573 13.2045 7.51103 12.9905 7.34164 12.6517L6.89443 11.7573C6.72504 11.4185 6.37877 11.2045 6 11.2045H2.52969C2.53427 11.1838 2.53938 11.1633 2.54501 11.1429L4.06799 5.62206Z" fill="black"/>
</svg>
