<svg width="20" height="21" viewBox="0 0 20 21" fill="none" xmlns="http://www.w3.org/2000/svg">
<path fill-rule="evenodd" clip-rule="evenodd" d="M1.04461 7.15822C1.08721 6.92458 1.16003 6.69675 1.26175 6.4806L2.53096 3.78353C2.98454 2.81967 3.95396 2.20447 5.01921 2.20447H14.9808C16.046 2.20447 17.0155 2.81967 17.469 3.78353L18.7383 6.4806C18.84 6.69675 18.9128 6.92458 18.9554 7.15822C18.9844 7.25183 19 7.35133 19 7.45447V8.95447C19 10.4733 17.7688 11.7045 16.25 11.7045H3.75C2.23122 11.7045 1 10.4733 1 8.95447V7.45447C1 7.35133 1.01562 7.25183 1.04461 7.15822ZM3.88819 4.42222C4.09436 3.98411 4.53501 3.70447 5.01921 3.70447H14.9808C15.465 3.70447 15.9056 3.98411 16.1118 4.42222L17.0682 6.45447H14C13.6471 6.45447 13.3203 6.64048 13.1401 6.94393L12.5339 7.96501C12.3537 8.26845 12.0269 8.45447 11.674 8.45447H8.23607C7.8573 8.45447 7.51103 8.24047 7.34164 7.90168L6.89443 7.00725C6.72504 6.66847 6.37877 6.45447 6 6.45447H2.93184L3.88819 4.42222Z" fill="black"/>
<path d="M1 14.2045C1 13.6522 1.44772 13.2045 2 13.2045H6C6.37877 13.2045 6.72504 13.4185 6.89443 13.7573L7.34164 14.6517C7.51103 14.9905 7.8573 15.2045 8.23607 15.2045H11.674C12.0269 15.2045 12.3537 15.0185 12.5339 14.715L13.1401 13.6939C13.3203 13.3905 13.6471 13.2045 14 13.2045H18C18.5523 13.2045 19 13.6522 19 14.2045V16.2045C19 17.309 18.1046 18.2045 17 18.2045H3C1.89543 18.2045 1 17.309 1 16.2045V14.2045Z" fill="black"/>
</svg>
