<svg width="20" height="21" viewBox="0 0 20 21" fill="none" xmlns="http://www.w3.org/2000/svg">
<path d="M10 2.20447C10.4142 2.20447 10.75 2.54025 10.75 2.95447V8.54457L12.7004 6.44413C12.9823 6.1406 13.4568 6.12302 13.7603 6.40487C14.0639 6.68672 14.0814 7.16127 13.7996 7.46481L10.5496 10.9648C10.4077 11.1176 10.2086 11.2045 10 11.2045C9.79145 11.2045 9.59231 11.1176 9.45041 10.9648L6.20041 7.46481C5.91855 7.16127 5.93613 6.68672 6.23966 6.40487C6.54319 6.12302 7.01774 6.1406 7.29959 6.44413L9.25 8.54457V2.95447C9.25 2.54025 9.58579 2.20447 10 2.20447Z" fill="black"/>
<path d="M5.27298 4.70447C4.71065 4.70447 4.21753 5.07997 4.06799 5.62206L2.54501 11.1429C2.53938 11.1633 2.53427 11.1838 2.52969 11.2045H6C6.37877 11.2045 6.72504 11.4185 6.89443 11.7573L7.34164 12.6517C7.51103 12.9905 7.8573 13.2045 8.23607 13.2045H11.674C12.0269 13.2045 12.3537 13.0185 12.5339 12.715L13.1401 11.6939C13.3203 11.3905 13.6471 11.2045 14 11.2045H17.4703C17.4657 11.1838 17.4606 11.1633 17.455 11.1429L15.932 5.62206C15.7825 5.07997 15.2894 4.70447 14.727 4.70447H13.75C13.3358 4.70447 13 4.36868 13 3.95447C13 3.54025 13.3358 3.20447 13.75 3.20447H14.727C15.9642 3.20447 17.049 4.03057 17.378 5.22316L18.901 10.744C18.9667 10.9822 19 11.2282 19 11.4753V15.2045C19 16.309 18.1046 17.2045 17 17.2045H3C1.89543 17.2045 1 16.309 1 15.2045V11.4753C1 11.2282 1.03331 10.9822 1.09902 10.744L2.622 5.22316C2.95099 4.03057 4.03584 3.20447 5.27298 3.20447H6.25C6.66421 3.20447 7 3.54025 7 3.95447C7 4.36868 6.66421 4.70447 6.25 4.70447H5.27298Z" fill="black"/>
</svg>
