<svg width="20" height="21" viewBox="0 0 20 21" fill="none" xmlns="http://www.w3.org/2000/svg">
<path fill-rule="evenodd" clip-rule="evenodd" d="M18 10.2045C18 14.6227 14.4183 18.2045 10 18.2045C5.58172 18.2045 2 14.6227 2 10.2045C2 5.78619 5.58172 2.20447 10 2.20447C14.4183 2.20447 18 5.78619 18 10.2045ZM11 6.20447C11 6.75675 10.5523 7.20447 10 7.20447C9.44771 7.20447 9 6.75675 9 6.20447C9 5.65218 9.44771 5.20447 10 5.20447C10.5523 5.20447 11 5.65218 11 6.20447ZM9 9.20447C8.58579 9.20447 8.25 9.54025 8.25 9.95447C8.25 10.3687 8.58579 10.7045 9 10.7045H9.25338C9.41332 10.7045 9.53213 10.8526 9.49743 11.0087L9.03829 13.0748C8.79542 14.1677 9.62706 15.2045 10.7466 15.2045H11C11.4142 15.2045 11.75 14.8687 11.75 14.4545C11.75 14.0403 11.4142 13.7045 11 13.7045H10.7466C10.5867 13.7045 10.4679 13.5564 10.5026 13.4002L10.9617 11.3341C11.2046 10.2412 10.3729 9.20447 9.25338 9.20447H9Z" fill="black"/>
</svg>
