<svg width="20" height="21" viewBox="0 0 20 21" fill="none" xmlns="http://www.w3.org/2000/svg">
<path fill-rule="evenodd" clip-rule="evenodd" d="M8 7.20447C8 4.44304 10.2386 2.20447 13 2.20447C15.7614 2.20447 18 4.44304 18 7.20447C18 9.96589 15.7614 12.2045 13 12.2045C12.5177 12.2045 12.0513 12.1362 11.61 12.0087L9.70711 13.9116C9.51957 14.0991 9.26522 14.2045 9 14.2045H8V15.2045C8 15.7568 7.55228 16.2045 7 16.2045H6V17.2045C6 17.7568 5.55228 18.2045 5 18.2045H3C2.44772 18.2045 2 17.7568 2 17.2045V15.2045C2 14.9393 2.10536 14.6849 2.29289 14.4974L8.19576 8.5945C8.0683 8.1532 8 7.68681 8 7.20447ZM13 4.20447C12.5858 4.20447 12.25 4.54025 12.25 4.95447C12.25 5.36868 12.5858 5.70447 13 5.70447C13.8284 5.70447 14.5 6.37604 14.5 7.20447C14.5 7.61868 14.8358 7.95447 15.25 7.95447C15.6642 7.95447 16 7.61868 16 7.20447C16 5.54761 14.6569 4.20447 13 4.20447Z" fill="black"/>
</svg>
