<svg width="20" height="21" viewBox="0 0 20 21" fill="none" xmlns="http://www.w3.org/2000/svg">
<path d="M7.75009 2.95447C7.75009 2.54025 7.4143 2.20447 7.00009 2.20447C6.58587 2.20447 6.25009 2.54025 6.25009 2.95447V4.21289C5.03323 4.24025 3.8325 4.334 2.65142 4.49073C2.24081 4.54522 1.95211 4.92226 2.0066 5.33288C2.06109 5.74349 2.43813 6.03219 2.84875 5.9777C4.20658 5.79751 5.59228 5.70447 7.00009 5.70447C7.57065 5.70447 8.13758 5.71975 8.70048 5.74992C8.2826 7.16132 7.70916 8.50615 6.99996 9.76448C6.62755 9.10372 6.29259 8.41913 5.99793 7.71359C5.8383 7.33137 5.39905 7.15092 5.01683 7.31055C4.63461 7.47018 4.45416 7.90943 4.61379 8.29165C5.03667 9.30422 5.5365 10.2765 6.10593 11.2012C5.03656 12.7643 3.74539 14.164 2.27753 15.3551C1.95588 15.616 1.9067 16.0884 2.16769 16.41C2.42867 16.7317 2.90099 16.7808 3.22264 16.5199C4.64811 15.3632 5.91919 14.0233 6.99996 12.5359C7.0954 12.6673 7.19233 12.7975 7.29071 12.9265C7.54187 13.2559 8.01249 13.3193 8.34187 13.0681C8.67125 12.817 8.73467 12.3464 8.48351 12.017C8.2802 11.7503 8.08361 11.4783 7.894 11.2012C8.90466 9.56001 9.69602 7.76902 10.227 5.869C10.5365 5.90074 10.8447 5.937 11.1514 5.9777C11.562 6.03219 11.9391 5.74349 11.9936 5.33288C12.0481 4.92226 11.7594 4.54522 11.3487 4.49073C10.8114 4.41943 10.27 4.36116 9.72489 4.31625C9.07179 4.26244 8.41333 4.2278 7.75009 4.21289V2.95447Z" fill="black"/>
<path fill-rule="evenodd" clip-rule="evenodd" d="M13.0002 8.20447C13.2842 8.20447 13.5439 8.36497 13.671 8.61906L17.921 17.1191C18.1062 17.4895 17.9561 17.94 17.5856 18.1253C17.2151 18.3105 16.7646 18.1604 16.5793 17.7899L15.7866 16.2045H10.2137L9.42098 17.7899C9.23574 18.1604 8.78524 18.3105 8.41475 18.1253C8.04427 17.94 7.8941 17.4895 8.07934 17.1191L12.3293 8.61906C12.4564 8.36497 12.7161 8.20447 13.0002 8.20447ZM15.0366 14.7045L13.0002 10.6315L10.9637 14.7045H15.0366Z" fill="black"/>
</svg>
