<svg width="20" height="21" viewBox="0 0 20 21" fill="none" xmlns="http://www.w3.org/2000/svg">
<path fill-rule="evenodd" clip-rule="evenodd" d="M7.17111 4.35017L9.11848 6.81684C9.69601 6.66701 10.304 6.66701 10.8815 6.81684L12.8289 4.35017C11.0472 3.48923 8.95276 3.48923 7.17111 4.35017ZM15.8543 7.37557L13.3876 9.32294C13.5375 9.90047 13.5375 10.5085 13.3876 11.086L15.8543 13.0334C16.7152 11.2517 16.7152 9.15723 15.8543 7.37557ZM12.8289 16.0588L10.8815 13.5921C10.304 13.7419 9.69601 13.7419 9.11848 13.5921L7.17111 16.0588C8.95276 16.9197 11.0472 16.9197 12.8289 16.0588ZM4.1457 13.0334L6.61237 11.086C6.46254 10.5085 6.46254 9.90047 6.61237 9.32294L4.1457 7.37557C3.28477 9.15723 3.28477 11.2517 4.1457 13.0334ZM5.63091 3.50114C8.27818 1.77224 11.7218 1.77224 14.3691 3.50114C14.8253 3.79908 15.2573 4.14803 15.6569 4.54761C16.0564 4.9472 16.4054 5.37917 16.7033 5.83537C18.4322 8.48264 18.4322 11.9263 16.7033 14.5736C16.4054 15.0298 16.0564 15.4617 15.6569 15.8613C15.2573 16.2609 14.8253 16.6099 14.3691 16.9078C11.7218 18.6367 8.27818 18.6367 5.63091 16.9078C5.1747 16.6099 4.74273 16.2609 4.34315 15.8613C3.94356 15.4617 3.59461 15.0298 3.29667 14.5736C1.56778 11.9263 1.56778 8.48264 3.29667 5.83537C3.59461 5.37917 3.94356 4.9472 4.34315 4.54761C4.74273 4.14803 5.17471 3.79908 5.63091 3.50114ZM10.8287 8.38343C10.3041 8.14481 9.69587 8.14481 9.17126 8.38343C8.95999 8.47953 8.76133 8.61471 8.58579 8.79025C8.41024 8.9658 8.27506 9.16446 8.17897 9.37572C7.94035 9.90034 7.94035 10.5086 8.17897 11.0332C8.27506 11.2445 8.41024 11.4431 8.58579 11.6187C8.76133 11.7942 8.95999 11.9294 9.17126 12.0255C9.69587 12.2641 10.3041 12.2641 10.8287 12.0255C11.04 11.9294 11.2387 11.7942 11.4142 11.6187C11.5898 11.4431 11.7249 11.2445 11.821 11.0332C12.0597 10.5086 12.0597 9.90034 11.821 9.37572C11.7249 9.16446 11.5898 8.9658 11.4142 8.79025C11.2387 8.61471 11.04 8.47953 10.8287 8.38343Z" fill="black"/>
</svg>
