<svg width="20" height="21" viewBox="0 0 20 21" fill="none" xmlns="http://www.w3.org/2000/svg">
<path d="M10 1.20447C6.68629 1.20447 4 3.89076 4 7.20447C4 9.06966 4.85197 10.7365 6.18519 11.8358C7.23747 12.7034 8 13.6472 8 14.6602V15.3047C8 15.6504 8.23625 15.9513 8.57205 16.0333C9.03046 16.1453 9.50883 16.2045 10 16.2045C10.4912 16.2045 10.9695 16.1453 11.428 16.0333C11.7637 15.9513 12 15.6504 12 15.3047V14.6602C12 13.6472 12.7625 12.7034 13.8148 11.8358C15.148 10.7365 16 9.06966 16 7.20447C16 3.89076 13.3137 1.20447 10 1.20447Z" fill="black"/>
<path d="M8.8628 17.6189C8.45329 17.5567 8.07086 17.8382 8.00862 18.2477C7.94638 18.6572 8.22789 19.0396 8.6374 19.1019C9.08221 19.1695 9.53731 19.2045 10.0001 19.2045C10.4629 19.2045 10.918 19.1695 11.3628 19.1019C11.7723 19.0396 12.0538 18.6572 11.9916 18.2477C11.9293 17.8382 11.5469 17.5567 11.1374 17.6189C10.7669 17.6752 10.3872 17.7045 10.0001 17.7045C9.61302 17.7045 9.23326 17.6752 8.8628 17.6189Z" fill="black"/>
</svg>
