<svg width="20" height="21" viewBox="0 0 20 21" fill="none" xmlns="http://www.w3.org/2000/svg">
<path d="M12.2322 4.4367C13.2085 3.46039 14.7915 3.46039 15.7678 4.4367C16.7441 5.41301 16.7441 6.99592 15.7678 7.97223L14.5434 9.19657C14.2505 9.48946 14.2505 9.96433 14.5434 10.2572C14.8363 10.5501 15.3112 10.5501 15.6041 10.2572L16.8284 9.0329C18.3905 7.4708 18.3905 4.93814 16.8284 3.37604C15.2663 1.81394 12.7337 1.81394 11.1716 3.37604L8.17157 6.37604C6.60948 7.93814 6.60948 10.4708 8.17157 12.0329C8.24449 12.1058 8.31963 12.1754 8.3968 12.2417C8.71107 12.5115 9.18457 12.4755 9.45441 12.1612C9.72424 11.847 9.68822 11.3734 9.37395 11.1036C9.32556 11.0621 9.27828 11.0183 9.23223 10.9722C8.25592 9.99592 8.25592 8.41301 9.23223 7.4367L12.2322 4.4367Z" fill="black"/>
<path d="M11.6032 8.16725C11.2889 7.89742 10.8154 7.93344 10.5456 8.2477C10.2758 8.56197 10.3118 9.03548 10.626 9.30531C10.6744 9.34686 10.7217 9.39065 10.7678 9.43669C11.7441 10.413 11.7441 11.9959 10.7678 12.9722L7.76777 15.9722C6.79146 16.9485 5.20854 16.9485 4.23223 15.9722C3.25592 14.9959 3.25592 13.413 4.23223 12.4367L5.45657 11.2124C5.74946 10.9195 5.74946 10.4446 5.45657 10.1517C5.16367 9.8588 4.6888 9.8588 4.39591 10.1517L3.17157 11.376C1.60948 12.9381 1.60948 15.4708 3.17157 17.0329C4.73367 18.595 7.26633 18.595 8.82843 17.0329L11.8284 14.0329C13.3905 12.4708 13.3905 9.93813 11.8284 8.37603C11.7555 8.30311 11.6804 8.23351 11.6032 8.16725Z" fill="black"/>
</svg>
