<svg width="20" height="21" viewBox="0 0 20 21" fill="none" xmlns="http://www.w3.org/2000/svg">
<path fill-rule="evenodd" clip-rule="evenodd" d="M6 4.95447C6 4.54025 6.33579 4.20447 6.75 4.20447H17.25C17.6642 4.20447 18 4.54025 18 4.95447C18 5.36868 17.6642 5.70447 17.25 5.70447H6.75C6.33579 5.70447 6 5.36868 6 4.95447ZM6 10.2045C6 9.79025 6.33579 9.45447 6.75 9.45447H17.25C17.6642 9.45447 18 9.79025 18 10.2045C18 10.6187 17.6642 10.9545 17.25 10.9545H6.75C6.33579 10.9545 6 10.6187 6 10.2045ZM6 15.4545C6 15.0403 6.33579 14.7045 6.75 14.7045H17.25C17.6642 14.7045 18 15.0403 18 15.4545C18 15.8687 17.6642 16.2045 17.25 16.2045H6.75C6.33579 16.2045 6 15.8687 6 15.4545Z" fill="black"/>
<path fill-rule="evenodd" clip-rule="evenodd" d="M1.98999 4.95447C1.98999 4.40218 2.43771 3.95447 2.98999 3.95447H2.99999C3.55228 3.95447 3.99999 4.40218 3.99999 4.95447V4.96447C3.99999 5.51675 3.55228 5.96447 2.99999 5.96447H2.98999C2.43771 5.96447 1.98999 5.51675 1.98999 4.96447V4.95447Z" fill="black"/>
<path fill-rule="evenodd" clip-rule="evenodd" d="M1.98999 15.4545C1.98999 14.9022 2.43771 14.4545 2.98999 14.4545H2.99999C3.55228 14.4545 3.99999 14.9022 3.99999 15.4545V15.4645C3.99999 16.0168 3.55228 16.4645 2.99999 16.4645H2.98999C2.43771 16.4645 1.98999 16.0168 1.98999 15.4645V15.4545Z" fill="black"/>
<path fill-rule="evenodd" clip-rule="evenodd" d="M1.98999 10.2045C1.98999 9.65218 2.43771 9.20447 2.98999 9.20447H2.99999C3.55228 9.20447 3.99999 9.65218 3.99999 10.2045V10.2145C3.99999 10.7668 3.55228 11.2145 2.99999 11.2145H2.98999C2.43771 11.2145 1.98999 10.7668 1.98999 10.2145V10.2045Z" fill="black"/>
</svg>
