<svg width="20" height="21" viewBox="0 0 20 21" fill="none" xmlns="http://www.w3.org/2000/svg">
<path fill-rule="evenodd" clip-rule="evenodd" d="M10 1.20447C7.51472 1.20447 5.5 3.21919 5.5 5.70447V9.20447H5C3.89543 9.20447 3 10.0999 3 11.2045V17.2045C3 18.309 3.89543 19.2045 5 19.2045H15C16.1046 19.2045 17 18.309 17 17.2045V11.2045C17 10.0999 16.1046 9.20447 15 9.20447H14.5V5.70447C14.5 3.21919 12.4853 1.20447 10 1.20447ZM13 9.20447V5.70447C13 4.04761 11.6569 2.70447 10 2.70447C8.34315 2.70447 7 4.04761 7 5.70447V9.20447H13Z" fill="black"/>
</svg>
