<svg width="20" height="21" viewBox="0 0 20 21" fill="none" xmlns="http://www.w3.org/2000/svg">
<path fill-rule="evenodd" clip-rule="evenodd" d="M14.5 1.20447C12.0147 1.20447 10 3.21919 10 5.70447V9.20447H3C1.89543 9.20447 1 10.0999 1 11.2045V17.2045C1 18.309 1.89543 19.2045 3 19.2045H13C14.1046 19.2045 15 18.309 15 17.2045V11.2045C15 10.0999 14.1046 9.20447 13 9.20447H11.5V5.70447C11.5 4.04761 12.8431 2.70447 14.5 2.70447C16.1569 2.70447 17.5 4.04761 17.5 5.70447V8.45447C17.5 8.86868 17.8358 9.20447 18.25 9.20447C18.6642 9.20447 19 8.86868 19 8.45447V5.70447C19 3.21919 16.9853 1.20447 14.5 1.20447Z" fill="black"/>
</svg>
