<svg width="20" height="21" viewBox="0 0 20 21" fill="none" xmlns="http://www.w3.org/2000/svg">
<path d="M6.5 9.20447C6.5 7.82376 7.61929 6.70447 9 6.70447C10.3807 6.70447 11.5 7.82376 11.5 9.20447C11.5 9.89503 11.221 10.519 10.7678 10.9722C10.3145 11.4255 9.69056 11.7045 9 11.7045C7.61929 11.7045 6.5 10.5852 6.5 9.20447Z" fill="black"/>
<path fill-rule="evenodd" clip-rule="evenodd" d="M10 18.2045C14.4183 18.2045 18 14.6227 18 10.2045C18 5.78619 14.4183 2.20447 10 2.20447C5.58172 2.20447 2 5.78619 2 10.2045C2 14.6227 5.58172 18.2045 10 18.2045ZM9 5.20447C6.79086 5.20447 5 6.99533 5 9.20447C5 11.4136 6.79086 13.2045 9 13.2045C9.8332 13.2045 10.6076 12.9492 11.2481 12.5133L12.7197 13.9848C13.0126 14.2777 13.4874 14.2777 13.7803 13.9848C14.0732 13.6919 14.0732 13.217 13.7803 12.9241L12.3088 11.4526C12.7447 10.8121 13 10.0377 13 9.20447C13 6.99533 11.2091 5.20447 9 5.20447Z" fill="black"/>
</svg>
