<svg width="20" height="21" viewBox="0 0 20 21" fill="none" xmlns="http://www.w3.org/2000/svg">
<path d="M6.75 8.45447C6.33579 8.45447 6 8.79025 6 9.20447C6 9.61868 6.33579 9.95447 6.75 9.95447L11.25 9.95447C11.6642 9.95447 12 9.61868 12 9.20447C12 8.79026 11.6642 8.45447 11.25 8.45447L6.75 8.45447Z" fill="black"/>
<path fill-rule="evenodd" clip-rule="evenodd" d="M9 2.20447C5.13401 2.20447 2 5.33847 2 9.20447C2 13.0705 5.13401 16.2045 9 16.2045C10.6625 16.2045 12.1906 15.6242 13.3911 14.6562L16.7197 17.9848C17.0126 18.2777 17.4874 18.2777 17.7803 17.9848C18.0732 17.6919 18.0732 17.217 17.7803 16.9241L14.4517 13.5955C15.4197 12.395 16 10.867 16 9.20447C16 5.33847 12.866 2.20447 9 2.20447ZM3.5 9.20447C3.5 6.1669 5.96243 3.70447 9 3.70447C12.0376 3.70447 14.5 6.1669 14.5 9.20447C14.5 10.7235 13.8852 12.0974 12.8891 13.0936C11.893 14.0897 10.519 14.7045 9 14.7045C5.96243 14.7045 3.5 12.242 3.5 9.20447Z" fill="black"/>
</svg>
