<svg width="20" height="21" viewBox="0 0 20 21" fill="none" xmlns="http://www.w3.org/2000/svg">
<path fill-rule="evenodd" clip-rule="evenodd" d="M9 3.70447C5.96243 3.70447 3.5 6.1669 3.5 9.20447C3.5 12.242 5.96243 14.7045 9 14.7045C10.519 14.7045 11.893 14.0897 12.8891 13.0936C13.8852 12.0974 14.5 10.7235 14.5 9.20447C14.5 6.1669 12.0376 3.70447 9 3.70447ZM2 9.20447C2 5.33847 5.13401 2.20447 9 2.20447C12.866 2.20447 16 5.33847 16 9.20447C16 10.867 15.4197 12.395 14.4517 13.5955L17.7803 16.9241C18.0732 17.217 18.0732 17.6919 17.7803 17.9848C17.4874 18.2777 17.0126 18.2777 16.7197 17.9848L13.3911 14.6562C12.1906 15.6242 10.6625 16.2045 9 16.2045C5.13401 16.2045 2 13.0705 2 9.20447Z" fill="black"/>
</svg>
