<svg width="20" height="21" viewBox="0 0 20 21" fill="none" xmlns="http://www.w3.org/2000/svg">
<path fill-rule="evenodd" clip-rule="evenodd" d="M9.69008 19.1374L9.69288 19.1387C9.89 19.2245 10 19.2045 10 19.2045C10 19.2045 10.11 19.2245 10.3079 19.1383L10.3099 19.1374L10.3157 19.1348L10.3338 19.1265C10.3488 19.1195 10.3697 19.1097 10.3959 19.097C10.4484 19.0718 10.5225 19.035 10.6153 18.9866C10.8008 18.8899 11.0612 18.7463 11.3717 18.5539C11.9912 18.1699 12.8174 17.5871 13.6455 16.7889C15.3022 15.1921 17 12.697 17 9.20447C17 5.33847 13.866 2.20447 10 2.20447C6.13401 2.20447 3 5.33847 3 9.20447C3 12.697 4.69783 15.1921 6.35452 16.7889C7.18264 17.5871 8.00877 18.1699 8.62834 18.5539C8.93879 18.7463 9.19922 18.8899 9.38467 18.9866C9.47745 19.035 9.55163 19.0718 9.60409 19.097C9.63033 19.1097 9.65116 19.1195 9.66619 19.1265L9.68435 19.1348L9.69008 19.1374ZM10 11.4545C11.2426 11.4545 12.25 10.4471 12.25 9.20447C12.25 7.96183 11.2426 6.95447 10 6.95447C8.75736 6.95447 7.75 7.96183 7.75 9.20447C7.75 10.4471 8.75736 11.4545 10 11.4545Z" fill="black"/>
</svg>
