<svg width="20" height="21" viewBox="0 0 20 21" fill="none" xmlns="http://www.w3.org/2000/svg">
<path fill-rule="evenodd" clip-rule="evenodd" d="M8.15686 2.38009C7.78961 2.22812 7.37706 2.22812 7.00981 2.38009L2.92647 4.06974C2.3657 4.30179 2 4.84888 2 5.45577V16.3324C2 17.4012 3.08594 18.1271 4.07353 17.7184L7.58333 16.2661L11.8431 18.0288C12.2104 18.1808 12.6229 18.1808 12.9902 18.0288L17.0735 16.3391C17.6343 16.1071 18 15.56 18 14.9531V4.07646C18 3.00767 16.9141 2.28178 15.9265 2.69043L12.4167 4.14277L8.15686 2.38009ZM7.58008 5.20447C7.99429 5.20447 8.33008 5.54025 8.33008 5.95447V12.4545C8.33008 12.8687 7.99429 13.2045 7.58008 13.2045C7.16586 13.2045 6.83008 12.8687 6.83008 12.4545V5.95447C6.83008 5.54025 7.16586 5.20447 7.58008 5.20447ZM13.1699 7.95447C13.1699 7.54025 12.8341 7.20447 12.4199 7.20447C12.0057 7.20447 11.6699 7.54025 11.6699 7.95447V14.4545C11.6699 14.8687 12.0057 15.2045 12.4199 15.2045C12.8341 15.2045 13.1699 14.8687 13.1699 14.4545V7.95447Z" fill="black"/>
</svg>
