<svg width="20" height="21" viewBox="0 0 20 21" fill="none" xmlns="http://www.w3.org/2000/svg">
<path d="M13.9202 4.04947C11.9859 5.04629 9.86368 5.72887 7.62054 6.03006C6.76376 6.14509 5.88902 6.20454 5 6.20454C2.79086 6.20454 1 7.9954 1 10.2045C1 12.243 2.52477 13.9253 4.49597 14.1731C4.78782 15.3108 5.20979 16.4314 5.76704 17.5144C6.1636 18.285 7.10902 18.5132 7.81763 18.1041L8.68366 17.6041C9.41014 17.1846 9.62418 16.283 9.27228 15.5827C9.10619 15.2523 8.95684 14.9174 8.82394 14.5792C10.6243 14.9371 12.3353 15.5429 13.9201 16.3596C14.6189 14.4393 15 12.3664 15 10.2045C15 8.04265 14.6189 5.96979 13.9202 4.04947Z" fill="black"/>
<path d="M15.2428 3.30109C16.0553 5.44708 16.5 7.77387 16.5 10.2045C16.5 12.6352 16.0553 14.962 15.2428 17.108C15.2427 17.1079 15.2428 17.108 15.2428 17.108L15.2135 17.1852C15.0652 17.572 15.2585 18.0057 15.6452 18.1541C16.032 18.3024 16.4657 18.1091 16.6141 17.7224C16.7002 17.4979 16.7825 17.2715 16.8611 17.0434C17.4152 15.4339 17.7791 13.7361 17.9262 11.9774C18.5645 11.6434 19 10.9753 19 10.2045C19 9.43381 18.5645 8.76573 17.9262 8.43168C17.7791 6.67295 17.4152 4.97522 16.8611 3.36567C16.7825 3.13754 16.7002 2.9112 16.6141 2.68672C16.4657 2.29997 16.032 2.10669 15.6452 2.25501C15.2585 2.40334 15.0652 2.8371 15.2135 3.22384L15.2428 3.30109C15.2428 3.30105 15.2427 3.30112 15.2428 3.30109Z" fill="black"/>
</svg>
