<svg width="20" height="21" viewBox="0 0 20 21" fill="none" xmlns="http://www.w3.org/2000/svg">
<path d="M7 4.20447C7 2.54761 8.34315 1.20447 10 1.20447C11.6569 1.20447 13 2.54761 13 4.20447V10.2045C13 11.8613 11.6569 13.2045 10 13.2045C8.34315 13.2045 7 11.8613 7 10.2045V4.20447Z" fill="black"/>
<path d="M5.5 9.84729C5.5 9.43308 5.16421 9.09729 4.75 9.09729C4.33579 9.09729 4 9.43308 4 9.84729V10.2044C4 13.2641 6.29027 15.7889 9.25 16.158V17.7045H7.75C7.33579 17.7045 7 18.0403 7 18.4545C7 18.8687 7.33579 19.2045 7.75 19.2045H12.25C12.6642 19.2045 13 18.8687 13 18.4545C13 18.0403 12.6642 17.7045 12.25 17.7045H10.75V16.158C13.7097 15.7889 16 13.2641 16 10.2044V9.84729C16 9.43308 15.6642 9.09729 15.25 9.09729C14.8358 9.09729 14.5 9.43308 14.5 9.84729V10.2044C14.5 12.6897 12.4853 14.7044 10 14.7044C7.51472 14.7044 5.5 12.6897 5.5 10.2044V9.84729Z" fill="black"/>
</svg>
