<svg width="20" height="21" viewBox="0 0 20 21" fill="none" xmlns="http://www.w3.org/2000/svg">
<path fill-rule="evenodd" clip-rule="evenodd" d="M7.45519 2.20842C7.68518 2.39211 7.78646 2.69337 7.71414 2.9787C7.57443 3.52993 7.5 4.10795 7.5 4.70443C7.5 8.57042 10.634 11.7044 14.5 11.7044C15.6435 11.7044 16.721 11.4308 17.6724 10.9461C17.9347 10.8125 18.2509 10.8447 18.4809 11.0284C18.7109 11.2121 18.8122 11.5133 18.7399 11.7987C17.8069 15.48 14.4725 18.2044 10.5 18.2044C5.80558 18.2044 2 14.3988 2 9.70443C2 6.39586 3.89048 3.53014 6.64671 2.12615C6.909 1.99254 7.22519 2.02472 7.45519 2.20842Z" fill="black"/>
</svg>
