<svg width="20" height="21" viewBox="0 0 20 21" fill="none" xmlns="http://www.w3.org/2000/svg">
<path fill-rule="evenodd" clip-rule="evenodd" d="M17.721 1.80316C17.8974 1.94554 18 2.16011 18 2.38685V13.6765C18 14.7359 17.261 15.6518 16.2255 15.8757L14.1848 16.3169C12.804 16.6155 11.5 15.5633 11.5 14.1506C11.5 13.1074 12.2275 12.2054 13.247 11.9845L15.9088 11.4077C16.2538 11.3329 16.5 11.0277 16.5 10.6747V6.31634L8.5 8.04607V15.7306C8.5 16.79 7.76097 17.7059 6.7255 17.9297L4.68397 18.3712C3.30357 18.6696 2 17.6178 2 16.2055C2 15.1617 2.72854 14.2594 3.74894 14.0395L6.408 13.4665C6.7534 13.392 7 13.0866 7 12.7333V4.4409C7 4.08777 7.24634 3.78247 7.5915 3.70784L17.0915 1.65379C17.3131 1.60587 17.5445 1.66078 17.721 1.80316Z" fill="black"/>
</svg>
