<svg width="20" height="21" viewBox="0 0 20 21" fill="none" xmlns="http://www.w3.org/2000/svg">
<path fill-rule="evenodd" clip-rule="evenodd" d="M2 3.70447C2 2.87604 2.67157 2.20447 3.5 2.20447H12.5C13.3284 2.20447 14 2.87604 14 3.70447V15.4545C14 16.9733 15.2312 18.2045 16.75 18.2045H4.75C3.23122 18.2045 2 16.9733 2 15.4545V3.70447ZM5.75 10.7045C5.33579 10.7045 5 11.0403 5 11.4545C5 11.8687 5.33579 12.2045 5.75 12.2045H10.25C10.6642 12.2045 11 11.8687 11 11.4545C11 11.0403 10.6642 10.7045 10.25 10.7045H5.75ZM5.75 13.7045C5.33579 13.7045 5 14.0403 5 14.4545C5 14.8687 5.33579 15.2045 5.75 15.2045H10.25C10.6642 15.2045 11 14.8687 11 14.4545C11 14.0403 10.6642 13.7045 10.25 13.7045H5.75ZM5 5.95447C5 5.54025 5.33579 5.20447 5.75 5.20447H10.25C10.6642 5.20447 11 5.54025 11 5.95447V8.45447C11 8.86868 10.6642 9.20447 10.25 9.20447H5.75C5.33579 9.20447 5 8.86868 5 8.45447V5.95447Z" fill="black"/>
<path d="M16.5 6.70447H15.5V15.4545C15.5 16.1448 16.0596 16.7045 16.75 16.7045C17.4404 16.7045 18 16.1448 18 15.4545V8.20447C18 7.37604 17.3284 6.70447 16.5 6.70447Z" fill="black"/>
</svg>
