<svg width="20" height="21" viewBox="0 0 20 21" fill="none" xmlns="http://www.w3.org/2000/svg">
<path fill-rule="evenodd" clip-rule="evenodd" d="M5.96461 5.10842L15.096 14.2399C15.9755 13.1309 16.5 11.7295 16.5 10.2045C16.5 6.61462 13.5899 3.70447 10 3.70447C8.475 3.70447 7.07353 4.22893 5.96461 5.10842ZM14.0354 15.3005L4.90395 6.16908C4.02446 7.27799 3.5 8.67947 3.5 10.2045C3.5 13.7943 6.41015 16.7045 10 16.7045C11.525 16.7045 12.9265 16.18 14.0354 15.3005ZM4.34315 4.54761C5.79004 3.10072 7.79107 2.20447 10 2.20447C14.4183 2.20447 18 5.78619 18 10.2045C18 12.4134 17.1037 14.4144 15.6569 15.8613C14.21 17.3082 12.2089 18.2045 10 18.2045C5.58172 18.2045 2 14.6227 2 10.2045C2 7.99554 2.89625 5.99451 4.34315 4.54761Z" fill="black"/>
</svg>
