<svg width="20" height="21" viewBox="0 0 20 21" fill="none" xmlns="http://www.w3.org/2000/svg">
<path d="M15.9932 1.58915C16.3195 1.33965 16.7188 1.20447 17.1295 1.20447C18.1626 1.20447 19.0002 2.04198 19.0002 3.0751C19.0002 3.48583 18.865 3.88514 18.6155 4.21141L14.5856 9.48121C13.4464 10.971 11.9978 12.1844 10.349 13.0435C9.93563 11.4913 8.71335 10.269 7.16113 9.85566C8.02023 8.20683 9.23359 6.75827 10.7234 5.61899L15.9932 1.58915Z" fill="black"/>
<path d="M5.99977 11.2045C4.34292 11.2045 2.99977 12.5476 2.99977 14.2045C2.99977 14.4806 2.77591 14.7045 2.49977 14.7045C2.41931 14.7045 2.3453 14.686 2.2798 14.6538C2.00461 14.5184 1.67475 14.5642 1.44686 14.7695C1.21898 14.9747 1.139 15.298 1.2449 15.5858C1.80692 17.1131 3.27495 18.2045 4.99977 18.2045C7.20742 18.2045 8.99735 16.4158 8.99977 14.2087L8.99977 14.2045C8.99977 13.7244 8.88647 13.2687 8.68446 12.8645C8.39396 12.2833 7.92089 11.8103 7.33969 11.5198C6.93554 11.3178 6.47981 11.2045 5.99977 11.2045Z" fill="black"/>
</svg>
