<svg width="20" height="21" viewBox="0 0 20 21" fill="none" xmlns="http://www.w3.org/2000/svg">
<path d="M3.10526 2.49291C2.85362 2.45724 2.60104 2.55144 2.43421 2.74317C2.26738 2.9349 2.209 3.19808 2.27911 3.44237L3.69276 8.36824C3.87733 9.01135 4.4655 9.45447 5.13456 9.45447H11.25C11.6642 9.45447 12 9.79026 12 10.2045C12 10.6187 11.6642 10.9545 11.25 10.9545H5.13457C4.4655 10.9545 3.87733 11.3976 3.69277 12.0407L2.27911 16.9666C2.209 17.2109 2.26738 17.4741 2.43421 17.6658C2.60104 17.8575 2.85362 17.9517 3.10526 17.9161C8.94303 17.0886 14.221 14.5232 18.3983 10.7618C18.5563 10.6196 18.6465 10.417 18.6465 10.2045C18.6465 9.99193 18.5563 9.78935 18.3983 9.64713C14.221 5.88576 8.94303 3.32032 3.10526 2.49291Z" fill="black"/>
</svg>
