<svg width="20" height="21" viewBox="0 0 20 21" fill="none" xmlns="http://www.w3.org/2000/svg">
<path fill-rule="evenodd" clip-rule="evenodd" d="M15.6213 4.58327C14.4497 3.4117 12.5503 3.4117 11.3787 4.58327L4.37868 11.5833C3.20711 12.7548 3.20711 14.6543 4.37868 15.8259C5.54995 16.9972 7.44878 16.9975 8.62042 15.8268C8.62072 15.8265 8.62102 15.8262 8.62132 15.8259L9.11792 15.326C9.40985 15.0322 9.88472 15.0306 10.1786 15.3225C10.4724 15.6144 10.474 16.0893 10.1821 16.3832L9.68373 16.8848L9.68198 16.8866C7.92462 18.6439 5.07538 18.6439 3.31802 16.8866C1.56066 15.1292 1.56066 12.28 3.31802 10.5226L10.318 3.52261C12.0754 1.76525 14.9246 1.76525 16.682 3.52261C18.438 5.27866 18.4393 8.12497 16.6859 9.88265L13.2312 13.4358C12.2061 14.4609 10.544 14.4609 9.51885 13.4358C8.49372 12.4106 8.49372 10.7486 9.51885 9.72345L12.9697 6.27263C13.2626 5.97974 13.7374 5.97974 14.0303 6.27263C14.3232 6.56553 14.3232 7.0404 14.0303 7.33329L10.5795 10.7841C10.1402 11.2235 10.1402 11.9358 10.5795 12.3751C11.0178 12.8133 11.7276 12.8144 12.1672 12.3784L15.6213 8.82586C16.7928 7.65429 16.7929 5.75484 15.6213 4.58327Z" fill="black"/>
</svg>
