<svg width="20" height="21" viewBox="0 0 20 21" fill="none" xmlns="http://www.w3.org/2000/svg">
<path fill-rule="evenodd" clip-rule="evenodd" d="M2 10.2046C2 5.78631 5.58172 2.20459 10 2.20459C14.4183 2.20459 18 5.78631 18 10.2046C18 14.6229 14.4183 18.2046 10 18.2046C5.58172 18.2046 2 14.6229 2 10.2046ZM7 7.95459C7 7.54038 7.33579 7.20459 7.75 7.20459H8.25C8.66421 7.20459 9 7.54038 9 7.95459V12.4546C9 12.8688 8.66421 13.2046 8.25 13.2046H7.75C7.33579 13.2046 7 12.8688 7 12.4546V7.95459ZM11 7.95459C11 7.54038 11.3358 7.20459 11.75 7.20459H12.25C12.6642 7.20459 13 7.54038 13 7.95459V12.4546C13 12.8688 12.6642 13.2046 12.25 13.2046H11.75C11.3358 13.2046 11 12.8688 11 12.4546V7.95459Z" fill="black"/>
</svg>
