<svg width="20" height="21" viewBox="0 0 20 21" fill="none" xmlns="http://www.w3.org/2000/svg">
<path d="M5.75 3.20459C5.33579 3.20459 5 3.54038 5 3.95459V16.4546C5 16.8688 5.33579 17.2046 5.75 17.2046H7.25C7.66421 17.2046 8 16.8688 8 16.4546V3.95459C8 3.54038 7.66421 3.20459 7.25 3.20459H5.75Z" fill="black"/>
<path d="M12.75 3.20459C12.3358 3.20459 12 3.54038 12 3.95459V16.4546C12 16.8688 12.3358 17.2046 12.75 17.2046H14.25C14.6642 17.2046 15 16.8688 15 16.4546V3.95459C15 3.54038 14.6642 3.20459 14.25 3.20459H12.75Z" fill="black"/>
</svg>
