<svg width="20" height="21" viewBox="0 0 20 21" fill="none" xmlns="http://www.w3.org/2000/svg">
<path d="M5.43306 14.1214L6.69485 10.9669C6.89603 10.4639 7.19728 10.0071 7.58033 9.62404L14.4995 2.7053C15.3279 1.87688 16.6711 1.87688 17.4995 2.70531C18.3279 3.53373 18.3279 4.87688 17.4995 5.70531L10.5803 12.624C10.1973 13.0071 9.74042 13.3083 9.23746 13.5095L6.08299 14.7713C5.67484 14.9345 5.2698 14.5295 5.43306 14.1214Z" fill="black"/>
<path d="M3.5 5.95459C3.5 5.26423 4.05964 4.70459 4.75 4.70459H10C10.4142 4.70459 10.75 4.3688 10.75 3.95459C10.75 3.54038 10.4142 3.20459 10 3.20459H4.75C3.23122 3.20459 2 4.43581 2 5.95459V15.4546C2 16.9734 3.23122 18.2046 4.75 18.2046H14.25C15.7688 18.2046 17 16.9734 17 15.4546V10.2046C17 9.79038 16.6642 9.45459 16.25 9.45459C15.8358 9.45459 15.5 9.79038 15.5 10.2046V15.4546C15.5 16.1449 14.9404 16.7046 14.25 16.7046H4.75C4.05964 16.7046 3.5 16.1449 3.5 15.4546V5.95459Z" fill="black"/>
</svg>
