<svg width="20" height="21" viewBox="0 0 20 21" fill="none" xmlns="http://www.w3.org/2000/svg">
<path fill-rule="evenodd" clip-rule="evenodd" d="M2 3.70459C2 2.87616 2.67157 2.20459 3.5 2.20459H4.64837C5.35142 2.20459 5.96014 2.69289 6.11265 3.37919L6.82887 6.60216C7.00105 7.37697 6.53984 8.15179 5.77667 8.36984L4.84388 8.63635C4.4331 8.75372 4.20107 9.19124 4.36396 9.58618C5.53001 12.4133 7.79126 14.6746 10.6184 15.8406C11.0134 16.0035 11.4509 15.7715 11.5682 15.3607L11.8348 14.4279C12.0528 13.6648 12.8276 13.2035 13.6024 13.3757L16.8254 14.0919C17.5117 14.2444 18 14.8532 18 15.5562V16.7046C18 17.533 17.3284 18.2046 16.5 18.2046H15C13.8514 18.2046 12.7366 18.0555 11.6742 17.7751C7.16665 16.5855 3.61908 13.0379 2.42949 8.53035C2.14913 7.468 2 6.35315 2 5.20459V3.70459Z" fill="black"/>
</svg>
