<svg width="20" height="21" viewBox="0 0 20 21" fill="none" xmlns="http://www.w3.org/2000/svg">
<path d="M3.5 2.20459C2.67157 2.20459 2 2.87616 2 3.70459V5.20459C2 6.35315 2.14913 7.468 2.42949 8.53035C3.61908 13.0379 7.16665 16.5855 11.6742 17.7751C12.7366 18.0555 13.8514 18.2046 15 18.2046H16.5C17.3284 18.2046 18 17.533 18 16.7046V15.5562C18 14.8532 17.5117 14.2444 16.8254 14.0919L13.6024 13.3757C12.8276 13.2035 12.0528 13.6648 11.8348 14.4279L11.5682 15.3607C11.4509 15.7715 11.0134 16.0035 10.6184 15.8406C7.79126 14.6746 5.53001 12.4133 4.36396 9.58618C4.20107 9.19124 4.4331 8.75372 4.84388 8.63635L5.77667 8.36984C6.53984 8.15179 7.00105 7.37697 6.82887 6.60216L6.11265 3.37919C5.96014 2.69289 5.35142 2.20459 4.64837 2.20459H3.5Z" fill="black"/>
<path d="M16.7197 2.42426C17.0126 2.13137 17.4874 2.13137 17.7803 2.42426C18.0732 2.71715 18.0732 3.19203 17.7803 3.48492L14.5607 6.70459L17.25 6.70459C17.6642 6.70459 18 7.04038 18 7.45459C18 7.8688 17.6642 8.20459 17.25 8.20459L12.75 8.20459C12.3358 8.20459 12 7.8688 12 7.45459V2.95459C12 2.54038 12.3358 2.20459 12.75 2.20459C13.1642 2.20459 13.5 2.54038 13.5 2.95459V5.64393L16.7197 2.42426Z" fill="black"/>
</svg>
