<svg width="20" height="21" viewBox="0 0 20 21" fill="none" xmlns="http://www.w3.org/2000/svg">
<path fill-rule="evenodd" clip-rule="evenodd" d="M3.5 2.20459C2.67157 2.20459 2 2.87616 2 3.70459V5.20459C2 6.35315 2.14913 7.468 2.42949 8.53035C3.61908 13.0379 7.16665 16.5855 11.6742 17.7751C12.7366 18.0555 13.8514 18.2046 15 18.2046H16.5C17.3284 18.2046 18 17.533 18 16.7046V15.5562C18 14.8532 17.5117 14.2444 16.8254 14.0919L13.6024 13.3757C12.8276 13.2035 12.0528 13.6648 11.8348 14.4279L11.5682 15.3607C11.4509 15.7715 11.0134 16.0035 10.6184 15.8406C7.79126 14.6746 5.53001 12.4133 4.36396 9.58618C4.20107 9.19124 4.4331 8.75372 4.84388 8.63635L5.77667 8.36984C6.53984 8.15179 7.00105 7.37697 6.82887 6.60216L6.11265 3.37919C5.96014 2.69289 5.35142 2.20459 4.64837 2.20459H3.5ZM13.2803 2.42426C12.9874 2.13137 12.5126 2.13137 12.2197 2.42426C11.9268 2.71715 11.9268 3.19203 12.2197 3.48492L13.9393 5.20459L12.2197 6.92426C11.9268 7.21715 11.9268 7.69203 12.2197 7.98492C12.5126 8.27781 12.9874 8.27781 13.2803 7.98492L15 6.26525L16.7197 7.98492C17.0126 8.27781 17.4874 8.27781 17.7803 7.98492C18.0732 7.69203 18.0732 7.21715 17.7803 6.92426L16.0607 5.20459L17.7803 3.48492C18.0732 3.19203 18.0732 2.71715 17.7803 2.42426C17.4874 2.13137 17.0126 2.13137 16.7197 2.42426L15 4.14393L13.2803 2.42426Z" fill="black"/>
</svg>
