<svg width="20" height="21" viewBox="0 0 20 21" fill="none" xmlns="http://www.w3.org/2000/svg">
<path fill-rule="evenodd" clip-rule="evenodd" d="M1 5.45459C1 4.21195 2.00736 3.20459 3.25 3.20459H16.75C17.9926 3.20459 19 4.21195 19 5.45459V14.9546C19 16.1972 17.9926 17.2046 16.75 17.2046H3.25C2.00736 17.2046 1 16.1972 1 14.9546V5.45459ZM2.5 11.2652V14.9546C2.5 15.3688 2.83579 15.7046 3.25 15.7046H16.75C17.1642 15.7046 17.5 15.3688 17.5 14.9546V12.2653L15.2803 10.0456C14.9874 9.75269 14.5126 9.75269 14.2197 10.0456L12.3107 11.9546L12.7803 12.4243C13.0732 12.7172 13.0732 13.192 12.7803 13.4849C12.4874 13.7778 12.0126 13.7778 11.7197 13.4849L6.53033 8.29558C6.23744 8.00269 5.76256 8.00269 5.46967 8.29558L2.5 11.2652ZM12 7.20459C12 7.75687 11.5523 8.20459 11 8.20459C10.4477 8.20459 10 7.75687 10 7.20459C10 6.65231 10.4477 6.20459 11 6.20459C11.5523 6.20459 12 6.65231 12 7.20459Z" fill="black"/>
</svg>
