<svg width="20" height="21" viewBox="0 0 20 21" fill="none" xmlns="http://www.w3.org/2000/svg">
<path d="M12.75 4.20459C12.3358 4.20459 12 4.54038 12 4.95459V15.4546C12 15.8688 12.3358 16.2046 12.75 16.2046H13.25C13.6642 16.2046 14 15.8688 14 15.4546V4.95459C14 4.54038 13.6642 4.20459 13.25 4.20459H12.75Z" fill="black"/>
<path d="M17.75 4.20459C17.3358 4.20459 17 4.54038 17 4.95459V15.4546C17 15.8688 17.3358 16.2046 17.75 16.2046H18.25C18.6642 16.2046 19 15.8688 19 15.4546V4.95459C19 4.54038 18.6642 4.20459 18.25 4.20459H17.75Z" fill="black"/>
<path d="M3.28824 5.02318C2.28891 4.40594 1 5.12479 1 6.29937V14.1099C1 15.2844 2.2889 16.0033 3.28824 15.386L9.61101 11.4808C10.56 10.8947 10.56 9.51457 9.61101 8.92841L3.28824 5.02318Z" fill="black"/>
</svg>
