<svg width="20" height="21" viewBox="0 0 20 21" fill="none" xmlns="http://www.w3.org/2000/svg">
<path fill-rule="evenodd" clip-rule="evenodd" d="M2 10.2046C2 5.78631 5.58172 2.20459 10 2.20459C14.4183 2.20459 18 5.78631 18 10.2046C18 14.6229 14.4183 18.2046 10 18.2046C5.58172 18.2046 2 14.6229 2 10.2046ZM8.39061 7.29631C8.63141 7.16484 8.92479 7.17535 9.15557 7.32371L12.6556 9.57371C12.8702 9.71171 13 9.94939 13 10.2046C13 10.4598 12.8702 10.6975 12.6556 10.8355L9.15557 13.0855C8.92479 13.2338 8.63141 13.2443 8.39061 13.1129C8.1498 12.9814 8 12.7289 8 12.4546V7.95459C8 7.68024 8.1498 7.42777 8.39061 7.29631Z" fill="black"/>
</svg>
