<svg width="20" height="21" viewBox="0 0 20 21" fill="none" xmlns="http://www.w3.org/2000/svg">
<path d="M10.75 4.95459C10.75 4.54038 10.4142 4.20459 10 4.20459C9.58579 4.20459 9.25 4.54038 9.25 4.95459V9.45459H4.75C4.33579 9.45459 4 9.79038 4 10.2046C4 10.6188 4.33579 10.9546 4.75 10.9546L9.25 10.9546V15.4546C9.25 15.8688 9.58579 16.2046 10 16.2046C10.4142 16.2046 10.75 15.8688 10.75 15.4546V10.9546L15.25 10.9546C15.6642 10.9546 16 10.6188 16 10.2046C16 9.79038 15.6642 9.45459 15.25 9.45459H10.75V4.95459Z" fill="black"/>
</svg>
