<svg width="20" height="21" viewBox="0 0 20 21" fill="none" xmlns="http://www.w3.org/2000/svg">
<path fill-rule="evenodd" clip-rule="evenodd" d="M10 18.2046C14.4183 18.2046 18 14.6229 18 10.2046C18 5.78631 14.4183 2.20459 10 2.20459C5.58172 2.20459 2 5.78631 2 10.2046C2 14.6229 5.58172 18.2046 10 18.2046ZM10.75 6.95459C10.75 6.54038 10.4142 6.20459 10 6.20459C9.58579 6.20459 9.25 6.54038 9.25 6.95459V9.45459H6.75C6.33579 9.45459 6 9.79038 6 10.2046C6 10.6188 6.33579 10.9546 6.75 10.9546H9.25V13.4546C9.25 13.8688 9.58579 14.2046 10 14.2046C10.4142 14.2046 10.75 13.8688 10.75 13.4546V10.9546H13.25C13.6642 10.9546 14 10.6188 14 10.2046C14 9.79038 13.6642 9.45459 13.25 9.45459H10.75V6.95459Z" fill="black"/>
</svg>
