<svg width="20" height="21" viewBox="0 0 20 21" fill="none" xmlns="http://www.w3.org/2000/svg">
<path fill-rule="evenodd" clip-rule="evenodd" d="M10 2.20459C10.4142 2.20459 10.75 2.54038 10.75 2.95459V10.4546C10.75 10.8688 10.4142 11.2046 10 11.2046C9.58579 11.2046 9.25 10.8688 9.25 10.4546V2.95459C9.25 2.54038 9.58579 2.20459 10 2.20459ZM5.40381 4.54774C5.6967 4.84063 5.6967 5.3155 5.40381 5.6084C2.8654 8.1468 2.8654 12.2624 5.40381 14.8008C7.94221 17.3392 12.0578 17.3392 14.5962 14.8008C17.1346 12.2624 17.1346 8.1468 14.5962 5.6084C14.3033 5.3155 14.3033 4.84063 14.5962 4.54774C14.8891 4.25484 15.364 4.25484 15.6569 4.54774C18.781 7.67193 18.781 12.7372 15.6569 15.8614C12.5327 18.9856 7.46734 18.9856 4.34315 15.8614C1.21895 12.7372 1.21895 7.67193 4.34315 4.54774C4.63604 4.25484 5.11091 4.25484 5.40381 4.54774Z" fill="black"/>
</svg>
