<svg width="20" height="21" viewBox="0 0 20 21" fill="none" xmlns="http://www.w3.org/2000/svg">
<path fill-rule="evenodd" clip-rule="evenodd" d="M1 2.95459C1 2.54038 1.33579 2.20459 1.75 2.20459H18.25C18.6642 2.20459 19 2.54038 19 2.95459C19 3.3688 18.6642 3.70459 18.25 3.70459H18V12.4546C18 13.9734 16.7688 15.2046 15.25 15.2046H14.1775L14.9759 18.2652C15.0805 18.666 14.8403 19.0757 14.4395 19.1802C14.0387 19.2848 13.629 19.0446 13.5245 18.6438L13.4099 18.2045H6.5905L6.4759 18.6438C6.37134 19.0446 5.96167 19.2848 5.56087 19.1802C5.16007 19.0757 4.91991 18.666 5.02447 18.2652L5.82289 15.2046H4.75C3.23122 15.2046 2 13.9734 2 12.4546V3.70459H1.75C1.33579 3.70459 1 3.3688 1 2.95459ZM7.37309 15.2046L6.9818 16.7045H13.0186L12.6273 15.2046H7.37309ZM13.25 5.20459C13.6642 5.20459 14 5.54038 14 5.95459V11.4546C14 11.8688 13.6642 12.2046 13.25 12.2046C12.8358 12.2046 12.5 11.8688 12.5 11.4546V5.95459C12.5 5.54038 12.8358 5.20459 13.25 5.20459ZM6.75 9.20459C7.16421 9.20459 7.5 9.54038 7.5 9.95459V11.4546C7.5 11.8688 7.16421 12.2046 6.75 12.2046C6.33579 12.2046 6 11.8688 6 11.4546V9.95459C6 9.54038 6.33579 9.20459 6.75 9.20459ZM10.75 7.95459C10.75 7.54038 10.4142 7.20459 10 7.20459C9.58579 7.20459 9.25 7.54038 9.25 7.95459V11.4546C9.25 11.8688 9.58579 12.2046 10 12.2046C10.4142 12.2046 10.75 11.8688 10.75 11.4546V7.95459Z" fill="black"/>
</svg>
