<svg width="20" height="21" viewBox="0 0 20 21" fill="none" xmlns="http://www.w3.org/2000/svg">
<path fill-rule="evenodd" clip-rule="evenodd" d="M1 2.95459C1 2.54038 1.33579 2.20459 1.75 2.20459H18.25C18.6642 2.20459 19 2.54038 19 2.95459C19 3.3688 18.6642 3.70459 18.25 3.70459H18V12.4546C18 13.9734 16.7688 15.2046 15.25 15.2046H14.1775L14.9759 18.2652C15.0805 18.666 14.8403 19.0757 14.4395 19.1802C14.0387 19.2848 13.629 19.0446 13.5245 18.6438L13.4099 18.2045H6.5905L6.4759 18.6438C6.37134 19.0446 5.96167 19.2848 5.56087 19.1802C5.16007 19.0757 4.91991 18.666 5.02447 18.2652L5.82289 15.2046H4.75C3.23122 15.2046 2 13.9734 2 12.4546V3.70459H1.75C1.33579 3.70459 1 3.3688 1 2.95459ZM7.37309 15.2046L6.9818 16.7045H13.0186L12.6273 15.2046H7.37309ZM14.8625 6.27339C15.1031 6.61058 15.0248 7.07895 14.6876 7.31952C13.4276 8.21849 12.2896 9.2617 11.2905 10.418C11.1542 10.5757 10.9585 10.6696 10.7503 10.6771C10.542 10.6847 10.34 10.6053 10.1927 10.458L8.5 8.76532L6.28033 10.985C5.98744 11.2779 5.51256 11.2779 5.21967 10.985C4.92678 10.6921 4.92678 10.2172 5.21967 9.92432L7.96967 7.17432C8.26256 6.88143 8.73744 6.88143 9.03033 7.17432L10.6938 8.83784C11.6347 7.82973 12.679 6.90993 13.8164 6.09845C14.1536 5.85787 14.6219 5.9362 14.8625 6.27339Z" fill="black"/>
</svg>
