<svg width="20" height="21" viewBox="0 0 20 21" fill="none" xmlns="http://www.w3.org/2000/svg">
<path fill-rule="evenodd" clip-rule="evenodd" d="M5 2.95459C5 1.98809 5.7835 1.20459 6.75 1.20459H13.25C14.2165 1.20459 15 1.98809 15 2.95459V6.45459C15 6.47192 14.9997 6.48918 14.9992 6.50639C15.3765 6.55226 15.7522 6.60326 16.1263 6.65931C17.2246 6.82389 18 7.77597 18 8.85756V12.9546C18 14.1972 16.9926 15.2046 15.75 15.2046H15.5086L15.8138 17.1885C15.9769 18.2486 15.1567 19.2046 14.0842 19.2046H5.91541C4.84287 19.2046 4.02268 18.2486 4.18576 17.1885L4.49098 15.2046H4.25C3.00736 15.2046 2 14.1972 2 12.9546V8.85757C2 7.77597 2.77538 6.82389 3.87368 6.65931C4.24776 6.60326 4.62347 6.55226 5.00075 6.50639C5.00025 6.48918 5 6.47192 5 6.45459V2.95459ZM13.5 6.35193C12.3461 6.25436 11.1788 6.20459 10 6.20459C8.82119 6.20459 7.65386 6.25436 6.5 6.35193V2.95459C6.5 2.81652 6.61193 2.70459 6.75 2.70459H13.25C13.3881 2.70459 13.5 2.81652 13.5 2.95459V6.35193ZM6.60772 12.7046C6.48433 12.7046 6.37939 12.7946 6.36063 12.9166L5.66832 17.4166C5.64502 17.568 5.76219 17.7046 5.91541 17.7046H14.0842C14.2374 17.7046 14.3546 17.568 14.3313 17.4166L13.639 12.9166C13.6202 12.7946 13.5153 12.7046 13.3919 12.7046H6.60772Z" fill="black"/>
</svg>
