<svg width="20" height="21" viewBox="0 0 20 21" fill="none" xmlns="http://www.w3.org/2000/svg">
<path d="M12 4.6715C12 4.26618 12.2623 3.92075 12.5588 3.64444C12.8348 3.38728 13 3.0604 13 2.70459C13 1.87616 12.1046 1.20459 11 1.20459C9.89543 1.20459 9 1.87616 9 2.70459C9 3.06659 9.17098 3.39865 9.45568 3.6578C9.74658 3.92259 10 4.25845 10 4.65181C10 5.21154 9.53506 5.66055 8.97644 5.62534C7.96056 5.56131 6.95522 5.45889 5.96183 5.31954C5.72871 5.28683 5.49377 5.36548 5.32731 5.53193C5.16086 5.69839 5.08221 5.93333 5.11492 6.16645C5.25427 7.15983 5.35669 8.16517 5.42072 9.18105C5.45593 9.73966 5.00693 10.2046 4.44721 10.2046C4.05385 10.2046 3.718 9.95117 3.45322 9.66028C3.19406 9.37558 2.86201 9.20459 2.5 9.20459C1.67157 9.20459 1 10.1 1 11.2046C1 12.3092 1.67157 13.2046 2.5 13.2046C2.85582 13.2046 3.1827 13.0394 3.43986 12.7634C3.71616 12.4669 4.06159 12.2046 4.4669 12.2046C5.03368 12.2046 5.4925 12.6679 5.47094 13.2343C5.42294 14.4953 5.31585 15.7409 5.1524 16.9686C5.09796 17.3775 5.38386 17.7535 5.79236 17.8104C6.84158 17.9566 7.90341 18.063 8.97626 18.1282C9.53523 18.1622 10 17.7127 10 17.1527C10 16.7588 9.74616 16.4225 9.45499 16.1572C9.17071 15.8981 9 15.5663 9 15.2046C9 14.3762 9.89543 13.7046 11 13.7046C12.1046 13.7046 13 14.3762 13 15.2046C13 15.5603 12.8349 15.8872 12.559 16.1443C12.2624 16.4207 12 16.7663 12 17.1717C12 17.7385 12.4632 18.1974 13.0296 18.1766C14.3674 18.1275 15.689 18.0143 16.9915 17.84C17.3267 17.7951 17.5905 17.5314 17.6353 17.1961C17.8097 15.8936 17.9229 14.572 17.972 13.2342C17.9928 12.6678 17.5339 12.2046 16.9671 12.2046C16.5617 12.2046 16.2161 12.467 15.9397 12.7636C15.6826 13.0395 15.3557 13.2046 15 13.2046C14.1716 13.2046 13.5 12.3092 13.5 11.2046C13.5 10.1 14.1716 9.20459 15 9.20459C15.3617 9.20459 15.6935 9.3753 15.9526 9.65959C16.2179 9.95076 16.5542 10.2046 16.9481 10.2046C17.5081 10.2046 17.9575 9.73983 17.9236 9.18087C17.8584 8.10802 17.752 7.0462 17.6058 5.99698C17.5489 5.58848 17.1728 5.30258 16.764 5.35702C15.5363 5.52047 14.2907 5.62756 13.0297 5.67556C12.4633 5.69712 12 5.23829 12 4.6715Z" fill="black"/>
</svg>
