<svg width="20" height="21" viewBox="0 0 20 21" fill="none" xmlns="http://www.w3.org/2000/svg">
<path fill-rule="evenodd" clip-rule="evenodd" d="M3.75 2.20447C2.7835 2.20447 2 2.98797 2 3.95447V7.45447C2 8.42097 2.7835 9.20447 3.75 9.20447H7.25C8.2165 9.20447 9 8.42097 9 7.45447V3.95447C9 2.98797 8.2165 2.20447 7.25 2.20447H3.75ZM3.5 3.95447C3.5 3.8164 3.61193 3.70447 3.75 3.70447H7.25C7.38807 3.70447 7.5 3.8164 7.5 3.95447V7.45447C7.5 7.59254 7.38807 7.70447 7.25 7.70447H3.75C3.61193 7.70447 3.5 7.59254 3.5 7.45447V3.95447ZM3.75 11.2045C2.7835 11.2045 2 11.988 2 12.9545V16.4545C2 17.421 2.7835 18.2045 3.75 18.2045H7.25C8.2165 18.2045 9 17.421 9 16.4545V12.9545C9 11.988 8.2165 11.2045 7.25 11.2045H3.75ZM3.5 12.9545C3.5 12.8164 3.61193 12.7045 3.75 12.7045H7.25C7.38807 12.7045 7.5 12.8164 7.5 12.9545V16.4545C7.5 16.5925 7.38807 16.7045 7.25 16.7045H3.75C3.61193 16.7045 3.5 16.5925 3.5 16.4545V12.9545ZM11 3.95447C11 2.98797 11.7835 2.20447 12.75 2.20447H16.25C17.2165 2.20447 18 2.98797 18 3.95447V7.45447C18 8.42097 17.2165 9.20447 16.25 9.20447H12.75C11.7835 9.20447 11 8.42097 11 7.45447V3.95447ZM12.75 3.70447C12.6119 3.70447 12.5 3.8164 12.5 3.95447V7.45447C12.5 7.59254 12.6119 7.70447 12.75 7.70447H16.25C16.3881 7.70447 16.5 7.59254 16.5 7.45447V3.95447C16.5 3.8164 16.3881 3.70447 16.25 3.70447H12.75ZM5.49023 4.70447C4.93795 4.70447 4.49023 5.15218 4.49023 5.70447V5.71447C4.49023 6.26675 4.93795 6.71447 5.49023 6.71447H5.50023C6.05252 6.71447 6.50023 6.26675 6.50023 5.71447V5.70447C6.50023 5.15218 6.05252 4.70447 5.50023 4.70447H5.49023ZM14.4902 4.70447C13.9379 4.70447 13.4902 5.15218 13.4902 5.70447V5.71447C13.4902 6.26675 13.9379 6.71447 14.4902 6.71447H14.5002C15.0525 6.71447 15.5002 6.26675 15.5002 5.71447V5.70447C15.5002 5.15218 15.0525 4.70447 14.5002 4.70447H14.4902ZM5.49023 13.7045C4.93795 13.7045 4.49023 14.1522 4.49023 14.7045V14.7145C4.49023 15.2668 4.93795 15.7145 5.49023 15.7145H5.50023C6.05252 15.7145 6.50023 15.2668 6.50023 14.7145V14.7045C6.50023 14.1522 6.05252 13.7045 5.50023 13.7045H5.49023ZM14.4902 13.7045C13.9379 13.7045 13.4902 14.1522 13.4902 14.7045V14.7145C13.4902 15.2668 13.9379 15.7145 14.4902 15.7145H14.5002C15.0525 15.7145 15.5002 15.2668 15.5002 14.7145V14.7045C15.5002 14.1522 15.0525 13.7045 14.5002 13.7045H14.4902ZM10.9902 12.2045C10.9902 11.6522 11.4379 11.2045 11.9902 11.2045H12.0002C12.5525 11.2045 13.0002 11.6522 13.0002 12.2045V12.2145C13.0002 12.7668 12.5525 13.2145 12.0002 13.2145H11.9902C11.4379 13.2145 10.9902 12.7668 10.9902 12.2145V12.2045ZM16.9902 11.2045C16.4379 11.2045 15.9902 11.6522 15.9902 12.2045V12.2145C15.9902 12.7668 16.4379 13.2145 16.9902 13.2145H17.0002C17.5525 13.2145 18.0002 12.7668 18.0002 12.2145V12.2045C18.0002 11.6522 17.5525 11.2045 17.0002 11.2045H16.9902ZM15.9902 17.2045C15.9902 16.6522 16.4379 16.2045 16.9902 16.2045H17.0002C17.5525 16.2045 18.0002 16.6522 18.0002 17.2045V17.2145C18.0002 17.7668 17.5525 18.2145 17.0002 18.2145H16.9902C16.4379 18.2145 15.9902 17.7668 15.9902 17.2145V17.2045ZM11.9902 16.2045C11.4379 16.2045 10.9902 16.6522 10.9902 17.2045V17.2145C10.9902 17.7668 11.4379 18.2145 11.9902 18.2145H12.0002C12.5525 18.2145 13.0002 17.7668 13.0002 17.2145V17.2045C13.0002 16.6522 12.5525 16.2045 12.0002 16.2045H11.9902Z" fill="black"/>
</svg>
