<svg width="20" height="21" viewBox="0 0 20 21" fill="none" xmlns="http://www.w3.org/2000/svg">
<path fill-rule="evenodd" clip-rule="evenodd" d="M18 10.2045C18 14.6227 14.4183 18.2045 10 18.2045C5.58172 18.2045 2 14.6227 2 10.2045C2 5.78619 5.58172 2.20447 10 2.20447C14.4183 2.20447 18 5.78619 18 10.2045ZM8.93934 7.14378C8.64645 7.43667 8.17157 7.43667 7.87868 7.14378C7.58579 6.85089 7.58579 6.37601 7.87868 6.08312C9.05025 4.91155 10.9497 4.91155 12.1213 6.08312C13.2929 7.25469 13.2929 9.15419 12.1213 10.3258C11.7288 10.7182 11.2528 10.9801 10.75 11.1095V11.4544C10.75 11.8687 10.4142 12.2044 10 12.2044C9.58579 12.2044 9.25 11.8687 9.25 11.4544V10.9544C9.25 10.2341 9.81995 9.78273 10.3313 9.66769C10.5982 9.60765 10.8516 9.47416 11.0607 9.2651C11.6464 8.67931 11.6464 7.72957 11.0607 7.14378C10.4749 6.55799 9.52513 6.55799 8.93934 7.14378ZM10 15.2045C10.5523 15.2045 11 14.7568 11 14.2045C11 13.6522 10.5523 13.2045 10 13.2045C9.44771 13.2045 9 13.6522 9 14.2045C9 14.7568 9.44771 15.2045 10 15.2045Z" fill="black"/>
</svg>
