<svg width="20" height="21" viewBox="0 0 20 21" fill="none" xmlns="http://www.w3.org/2000/svg">
<path d="M2 4.70447C2 3.32376 3.11929 2.20447 4.5 2.20447H15.5C16.8807 2.20447 18 3.32376 18 4.70447C18 6.08518 16.8807 7.20447 15.5 7.20447H4.5C3.11929 7.20447 2 6.08518 2 4.70447Z" fill="black"/>
<path d="M2.75 9.28784C2.33579 9.28784 2 9.62363 2 10.0378C2 10.4521 2.33579 10.7878 2.75 10.7878H17.25C17.6642 10.7878 18 10.4521 18 10.0378C18 9.62363 17.6642 9.28784 17.25 9.28784H2.75Z" fill="black"/>
<path d="M2.75 12.8678C2.33579 12.8678 2 13.2036 2 13.6178C2 14.032 2.33579 14.3678 2.75 14.3678H17.25C17.6642 14.3678 18 14.032 18 13.6178C18 13.2036 17.6642 12.8678 17.25 12.8678H2.75Z" fill="black"/>
<path d="M2.75 16.4545C2.33579 16.4545 2 16.7903 2 17.2045C2 17.6187 2.33579 17.9545 2.75 17.9545H17.25C17.6642 17.9545 18 17.6187 18 17.2045C18 16.7903 17.6642 16.4545 17.25 16.4545H2.75Z" fill="black"/>
</svg>
