<svg width="20" height="21" viewBox="0 0 20 21" fill="none" xmlns="http://www.w3.org/2000/svg">
<path fill-rule="evenodd" clip-rule="evenodd" d="M17.4497 3.67741C17.849 3.56726 18.0834 3.15427 17.9732 2.75497C17.8631 2.35567 17.4501 2.12127 17.0508 2.23142L5.31247 5.46957C4.47281 5.56516 3.64077 5.68612 2.81717 5.83167C1.74546 6.02107 1 6.9602 1 8.02048V15.9545C1 17.1971 2.00736 18.2045 3.25 18.2045H16.75C17.9926 18.2045 19 17.1971 19 15.9545V8.02048C19 6.9602 18.2545 6.02107 17.1828 5.83167C15.417 5.5196 13.6124 5.32059 11.777 5.2423L17.4497 3.67741ZM16 9.70447C16 10.5329 15.3284 11.2045 14.5 11.2045C13.6716 11.2045 13 10.5329 13 9.70447C13 8.87604 13.6716 8.20447 14.5 8.20447C15.3284 8.20447 16 8.87604 16 9.70447ZM14.5 16.2045C15.3284 16.2045 16 15.5329 16 14.7045C16 13.876 15.3284 13.2045 14.5 13.2045C13.6716 13.2045 13 13.876 13 14.7045C13 15.5329 13.6716 16.2045 14.5 16.2045ZM5.24023 11.2045C5.24023 10.7903 5.57602 10.4545 5.99023 10.4545H6.00023C6.41445 10.4545 6.75023 10.7903 6.75023 11.2045V11.2145C6.75023 11.6287 6.41445 11.9645 6.00023 11.9645H5.99023C5.57602 11.9645 5.24023 11.6287 5.24023 11.2145V11.2045ZM7.99023 10.4545C7.57602 10.4545 7.24023 10.7903 7.24023 11.2045V11.2145C7.24023 11.6287 7.57602 11.9645 7.99023 11.9645H8.00023C8.41445 11.9645 8.75023 11.6287 8.75023 11.2145V11.2045C8.75023 10.7903 8.41445 10.4545 8.00023 10.4545H7.99023ZM6.24023 8.95447C6.24023 8.54025 6.57602 8.20447 6.99023 8.20447H7.00023C7.41445 8.20447 7.75023 8.54025 7.75023 8.95447V8.96447C7.75023 9.37868 7.41445 9.71447 7.00023 9.71447H6.99023C6.57602 9.71447 6.24023 9.37868 6.24023 8.96447V8.95447ZM9.8233 9.37396C9.53041 9.08106 9.05553 9.08106 8.76264 9.37396L8.75557 9.38103C8.46267 9.67392 8.46267 10.1488 8.75557 10.4417L8.76264 10.4488C9.05553 10.7417 9.53041 10.7417 9.8233 10.4488L9.83037 10.4417C10.1233 10.1488 10.1233 9.67392 9.83037 9.38103L9.8233 9.37396ZM10.25 11.4545C10.6642 11.4545 11 11.7903 11 12.2045V12.2145C11 12.6287 10.6642 12.9645 10.25 12.9645H10.24C9.82579 12.9645 9.49 12.6287 9.49 12.2145V12.2045C9.49 11.7903 9.82579 11.4545 10.24 11.4545H10.25ZM9.83051 15.0379C10.1234 14.745 10.1234 14.2701 9.83051 13.9772L9.82344 13.9702C9.53055 13.6773 9.05567 13.6773 8.76278 13.9702L8.75571 13.9772C8.46281 14.2701 8.46281 14.745 8.75571 15.0379L8.76278 15.045C9.05567 15.3379 9.53055 15.3379 9.82344 15.045L9.83051 15.0379ZM6.24023 15.4545C6.24023 15.0403 6.57602 14.7045 6.99023 14.7045H7.00023C7.41445 14.7045 7.75023 15.0403 7.75023 15.4545V15.4645C7.75023 15.8787 7.41445 16.2145 7.00023 16.2145H6.99023C6.57602 16.2145 6.24023 15.8787 6.24023 15.4645V15.4545ZM5.22711 13.9701C4.93421 13.6773 4.45934 13.6773 4.16645 13.9701L4.15938 13.9772C3.86648 14.2701 3.86648 14.745 4.15938 15.0379L4.16645 15.045C4.45934 15.3378 4.93421 15.3378 5.22711 15.045L5.23418 15.0379C5.52707 14.745 5.52707 14.2701 5.23418 13.9772L5.22711 13.9701ZM3.75 11.4545C4.16421 11.4545 4.5 11.7903 4.5 12.2045V12.2145C4.5 12.6287 4.16421 12.9645 3.75 12.9645H3.74C3.32579 12.9645 2.99 12.6287 2.99 12.2145V12.2045C2.99 11.7903 3.32579 11.4545 3.74 11.4545H3.75ZM5.23432 10.4417C5.52721 10.1488 5.52721 9.67394 5.23432 9.38105L5.22725 9.37398C4.93435 9.08108 4.45948 9.08108 4.16659 9.37398L4.15952 9.38105C3.86662 9.67394 3.86662 10.1488 4.15952 10.4417L4.16659 10.4488C4.45948 10.7417 4.93435 10.7417 5.22725 10.4488L5.23432 10.4417ZM7.24023 13.2045C7.24023 12.7903 7.57602 12.4545 7.99023 12.4545H8.00023C8.41445 12.4545 8.75023 12.7903 8.75023 13.2045V13.2145C8.75023 13.6287 8.41445 13.9645 8.00023 13.9645H7.99023C7.57602 13.9645 7.24023 13.6287 7.24023 13.2145V13.2045ZM5.99023 12.4545C5.57602 12.4545 5.24023 12.7903 5.24023 13.2045V13.2145C5.24023 13.6287 5.57602 13.9645 5.99023 13.9645H6.00023C6.41445 13.9645 6.75023 13.6287 6.75023 13.2145V13.2045C6.75023 12.7903 6.41445 12.4545 6.00023 12.4545H5.99023Z" fill="black"/>
</svg>
