<svg width="20" height="21" viewBox="0 0 20 21" fill="none" xmlns="http://www.w3.org/2000/svg">
<path fill-rule="evenodd" clip-rule="evenodd" d="M4.93005 2.51492C6.5916 2.30997 8.28365 2.20447 10 2.20447C11.7163 2.20447 13.4084 2.30997 15.07 2.51492C16.1942 2.6536 17 3.61821 17 4.72108V17.4545C17 17.7122 16.8676 17.952 16.6494 18.0893C16.4312 18.2265 16.1578 18.2422 15.9255 18.1306L13.125 16.7864L10.3245 18.1306C10.1194 18.2291 9.88061 18.2291 9.67545 18.1306L6.875 16.7864L4.07455 18.1306C3.84215 18.2422 3.56875 18.2265 3.35057 18.0893C3.13239 17.952 3 17.7122 3 17.4545V4.72108C3 3.6182 3.80579 2.6536 4.93005 2.51492ZM13.7803 7.4848C14.0732 7.1919 14.0732 6.71703 13.7803 6.42414C13.4874 6.13124 13.0126 6.13124 12.7197 6.42414L6.21967 12.9241C5.92678 13.217 5.92678 13.6919 6.21967 13.9848C6.51256 14.2777 6.98744 14.2777 7.28033 13.9848L13.7803 7.4848ZM9 8.20447C9 8.75675 8.55228 9.20447 8 9.20447C7.44772 9.20447 7 8.75675 7 8.20447C7 7.65218 7.44772 7.20447 8 7.20447C8.55228 7.20447 9 7.65218 9 8.20447ZM12 13.2045C12.5523 13.2045 13 12.7568 13 12.2045C13 11.6522 12.5523 11.2045 12 11.2045C11.4477 11.2045 11 11.6522 11 12.2045C11 12.7568 11.4477 13.2045 12 13.2045Z" fill="black"/>
</svg>
