<svg width="20" height="21" viewBox="0 0 20 21" fill="none" xmlns="http://www.w3.org/2000/svg">
<path fill-rule="evenodd" clip-rule="evenodd" d="M4.93005 2.51492C6.5916 2.30997 8.28365 2.20447 10 2.20447C11.7163 2.20447 13.4084 2.30997 15.07 2.51492C16.1942 2.6536 17 3.61821 17 4.72108V17.4545C17 17.7122 16.8676 17.952 16.6494 18.0893C16.4312 18.2265 16.1578 18.2422 15.9255 18.1306L13.125 16.7864L10.3245 18.1306C10.1194 18.2291 9.88061 18.2291 9.67545 18.1306L6.875 16.7864L4.07455 18.1306C3.84215 18.2422 3.56875 18.2265 3.35057 18.0893C3.13239 17.952 3 17.7122 3 17.4545V4.72108C3 3.6182 3.80579 2.6536 4.93005 2.51492ZM9.75172 6.51194C10.0596 6.23484 10.0846 5.76063 9.80747 5.45274C9.53038 5.14486 9.05616 5.1199 8.74828 5.397L6.24828 7.647C6.09024 7.78923 6 7.99185 6 8.20447C6 8.41708 6.09024 8.61971 6.24828 8.76194L8.74828 11.0119C9.05616 11.289 9.53038 11.2641 9.80747 10.9562C10.0846 10.6483 10.0596 10.1741 9.75172 9.897L8.70447 8.95447H10.625C11.6605 8.95447 12.5 9.79393 12.5 10.8295C12.5 11.865 11.6605 12.7045 10.625 12.7045C10.2108 12.7045 9.875 13.0403 9.875 13.4545C9.875 13.8687 10.2108 14.2045 10.625 14.2045C12.489 14.2045 14 12.6934 14 10.8295C14 8.96551 12.489 7.45447 10.625 7.45447H8.70447L9.75172 6.51194Z" fill="black"/>
</svg>
