<svg width="20" height="21" viewBox="0 0 20 21" fill="none" xmlns="http://www.w3.org/2000/svg">
<path d="M5.12744 3.70644C5.16817 3.70513 5.20906 3.70447 5.25011 3.70447H14.7501C14.7912 3.70447 14.832 3.70513 14.8728 3.70644C14.5645 2.83152 13.7305 2.20447 12.7501 2.20447H7.25011C6.26971 2.20447 5.43576 2.83151 5.12744 3.70644Z" fill="black"/>
<path d="M1 10.4545C1 9.21183 2.00736 8.20447 3.25 8.20447H16.75C17.9926 8.20447 19 9.21183 19 10.4545V15.9545C19 17.1971 17.9926 18.2045 16.75 18.2045H3.25C2.00736 18.2045 1 17.1971 1 15.9545V10.4545Z" fill="black"/>
<path d="M3.25011 6.70447C3.20906 6.70447 3.16817 6.70513 3.12744 6.70644C3.43576 5.83151 4.26971 5.20447 5.25011 5.20447H14.7501C15.7305 5.20447 16.5645 5.83152 16.8728 6.70644C16.832 6.70513 16.7912 6.70447 16.7501 6.70447H3.25011Z" fill="black"/>
</svg>
