<svg width="20" height="21" viewBox="0 0 20 21" fill="none" xmlns="http://www.w3.org/2000/svg">
<path fill-rule="evenodd" clip-rule="evenodd" d="M2.5 3.20447C1.67157 3.20447 1 3.87604 1 4.70447V8.70447C1 9.5329 1.67157 10.2045 2.5 10.2045H8.5C9.32843 10.2045 10 9.5329 10 8.70447V4.70447C10 3.87604 9.32843 3.20447 8.5 3.20447H2.5ZM13.5 5.20447C12.6716 5.20447 12 5.87604 12 6.70447V13.7045C12 14.5329 12.6716 15.2045 13.5 15.2045H17.5C18.3284 15.2045 19 14.5329 19 13.7045V6.70447C19 5.87604 18.3284 5.20447 17.5 5.20447H13.5ZM3.5 12.2045C2.67157 12.2045 2 12.876 2 13.7045V15.7045C2 16.5329 2.67157 17.2045 3.5 17.2045H9.5C10.3284 17.2045 11 16.5329 11 15.7045V13.7045C11 12.876 10.3284 12.2045 9.5 12.2045H3.5Z" fill="black"/>
</svg>
