<svg width="20" height="21" viewBox="0 0 20 21" fill="none" xmlns="http://www.w3.org/2000/svg">
<path fill-rule="evenodd" clip-rule="evenodd" d="M4.60597 13.1736C4.85946 13.5012 4.79938 13.9723 4.47179 14.2257C3.87925 14.6842 3.5 15.3999 3.5 16.2045C3.5 16.3614 3.51437 16.5145 3.54177 16.6627C3.68996 16.6901 3.84307 16.7045 4 16.7045C4.80458 16.7045 5.52023 16.3252 5.97873 15.7327C6.23222 15.4051 6.70328 15.345 7.03087 15.5985C7.35846 15.852 7.41854 16.323 7.16505 16.6506C6.4347 17.5945 5.2884 18.2045 4 18.2045C3.54003 18.2045 3.09667 18.1265 2.6834 17.9825C2.46722 17.9072 2.29728 17.7372 2.22195 17.5211C2.07794 17.1078 2 16.6644 2 16.2045C2 14.9161 2.60997 13.7698 3.55383 13.0394C3.88142 12.7859 4.35248 12.846 4.60597 13.1736Z" fill="black"/>
<path fill-rule="evenodd" clip-rule="evenodd" d="M5.75236 12.2045C6.40714 13.0421 7.16237 13.7973 8 14.4521V18.4545C8 18.8687 8.33579 19.2045 8.75 19.2045C11.5114 19.2045 13.75 16.9659 13.75 14.2045C13.75 13.7142 13.6792 13.2395 13.5471 12.7906C16.8467 10.4341 19 6.57097 19 2.20447C19 2.11681 18.9991 2.02933 18.9974 1.94206C18.9894 1.53948 18.665 1.21505 18.2624 1.20707C18.1751 1.20534 18.0877 1.20447 18 1.20447C13.6335 1.20447 9.77032 3.35778 7.41387 6.65738C6.96496 6.52525 6.49028 6.45447 6 6.45447C3.23858 6.45447 1 8.69304 1 11.4545C1 11.8687 1.33579 12.2045 1.75 12.2045H5.75236ZM13 9.20447C14.1046 9.20447 15 8.30904 15 7.20447C15 6.0999 14.1046 5.20447 13 5.20447C11.8954 5.20447 11 6.0999 11 7.20447C11 8.30904 11.8954 9.20447 13 9.20447Z" fill="black"/>
</svg>
