<svg width="20" height="21" viewBox="0 0 20 21" fill="none" xmlns="http://www.w3.org/2000/svg">
<path d="M3.75 3.20447C3.33579 3.20447 3 3.54025 3 3.95447V4.45447C3 4.86868 3.33579 5.20447 3.75 5.20447H4C10.0751 5.20447 15 10.1293 15 16.2045V16.4545C15 16.8687 15.3358 17.2045 15.75 17.2045H16.25C16.6642 17.2045 17 16.8687 17 16.4545V16.2045C17 9.02477 11.1797 3.20447 4 3.20447H3.75Z" fill="black"/>
<path d="M3 8.95447C3 8.54025 3.33579 8.20447 3.75 8.20447H4C8.41828 8.20447 12 11.7862 12 16.2045V16.4545C12 16.8687 11.6642 17.2045 11.25 17.2045H10.75C10.3358 17.2045 10 16.8687 10 16.4545V16.2045C10 12.8908 7.31371 10.2045 4 10.2045H3.75C3.33579 10.2045 3 9.86868 3 9.45447V8.95447Z" fill="black"/>
<path d="M7 15.2045C7 16.309 6.10457 17.2045 5 17.2045C3.89543 17.2045 3 16.309 3 15.2045C3 14.0999 3.89543 13.2045 5 13.2045C6.10457 13.2045 7 14.0999 7 15.2045Z" fill="black"/>
</svg>
