<svg width="20" height="21" viewBox="0 0 20 21" fill="none" xmlns="http://www.w3.org/2000/svg">
<path fill-rule="evenodd" clip-rule="evenodd" d="M9.99998 2.20447C10.4142 2.20447 10.75 2.54025 10.75 2.95447V3.21283C12.2309 3.24587 13.6881 3.37651 15.1153 3.59865C15.8921 3.71956 16.66 3.86756 17.4179 4.04167C17.8216 4.13441 18.0737 4.53685 17.9809 4.94055C17.8882 5.34425 17.4858 5.59633 17.0821 5.5036C16.7168 5.41968 16.349 5.34211 15.9789 5.27102L17.6814 12.8168C17.7565 13.1496 17.5974 13.4912 17.2943 13.648C16.6063 14.0038 15.8255 14.2045 15 14.2045C14.1745 14.2045 13.3936 14.0038 12.7057 13.648C12.4026 13.4912 12.2435 13.1496 12.3186 12.8168L14.0895 4.96742C12.9932 4.82534 11.8791 4.73959 10.75 4.71322V16.2183C12.0445 16.266 13.3082 16.4369 14.5295 16.7197C14.933 16.8132 15.1844 17.2161 15.091 17.6196C14.9975 18.0231 14.5946 18.2745 14.1911 18.1811C12.8452 17.8694 11.4423 17.7045 9.99998 17.7045C8.55766 17.7045 7.1548 17.8694 5.80887 18.1811C5.40533 18.2745 5.00245 18.0231 4.909 17.6196C4.81555 17.2161 5.06693 16.8132 5.47046 16.7197C6.69177 16.4369 7.95547 16.266 9.24998 16.2183V4.71322C8.1209 4.73959 7.00673 4.82534 5.91045 4.96742L7.68136 12.8168C7.75646 13.1496 7.5974 13.4912 7.29431 13.648C6.60634 14.0038 5.82549 14.2045 4.99998 14.2045C4.17447 14.2045 3.39363 14.0038 2.70566 13.648C2.40257 13.4912 2.2435 13.1496 2.3186 12.8168L4.02102 5.27102C3.65096 5.34211 3.28321 5.41968 2.9179 5.5036C2.5142 5.59633 2.11176 5.34425 2.01902 4.94055C1.92628 4.53685 2.17837 4.13441 2.58207 4.04167C3.34 3.86756 4.10785 3.71956 4.88463 3.59865C6.31186 3.37651 7.76906 3.24587 9.24998 3.21283V2.95447C9.24998 2.54025 9.58577 2.20447 9.99998 2.20447ZM4.99998 7.74756L3.91991 12.5349C4.25956 12.6449 4.62235 12.7045 4.99998 12.7045C5.37761 12.7045 5.74041 12.6449 6.08006 12.5349L4.99998 7.74756ZM15 7.74756L13.9199 12.5349C14.2596 12.6449 14.6224 12.7045 15 12.7045C15.3776 12.7045 15.7404 12.6449 16.0801 12.5349L15 7.74756Z" fill="black"/>
</svg>
