<svg width="20" height="21" viewBox="0 0 20 21" fill="none" xmlns="http://www.w3.org/2000/svg">
<path fill-rule="evenodd" clip-rule="evenodd" d="M1.46876 3.95444C0.502265 5.62847 1.07583 7.76903 2.74985 8.73553C4.20093 9.57331 6.00256 9.25392 7.08619 8.06368L7.9695 8.57366C7.99431 8.66628 8.11599 8.69055 8.17843 8.61778C8.32967 8.44154 8.49725 8.27936 8.67914 8.13357C8.96545 7.9041 8.979 7.42444 8.66123 7.24098L7.83619 6.76464C8.32514 5.23107 7.70093 3.51113 6.24985 2.67335C4.57583 1.70685 2.43526 2.28042 1.46876 3.95444ZM3.49985 7.43649C2.54327 6.88421 2.21552 5.66103 2.7678 4.70444C3.32009 3.74786 4.54327 3.42011 5.49985 3.97239C6.45644 4.52468 6.78419 5.74786 6.2319 6.70444C5.67962 7.66103 4.45644 7.98878 3.49985 7.43649Z" fill="black"/>
<path fill-rule="evenodd" clip-rule="evenodd" d="M9.95556 8.52614C9.17367 8.85602 8.58789 9.5284 8.36825 10.3481L7.96977 11.8352L7.08628 12.3453C6.00265 11.155 4.20097 10.8356 2.74985 11.6734C1.07583 12.6399 0.502265 14.7805 1.46876 16.4545C2.43526 18.1285 4.57583 18.7021 6.24985 17.7356C7.70089 16.8978 8.32511 15.1779 7.83623 13.6444L18.5151 7.47896C18.7778 7.32728 18.9233 7.0323 18.8837 6.73154C18.8441 6.43079 18.6272 6.18351 18.3342 6.10499L17.631 5.91657C17.0403 5.7583 16.4137 5.80143 15.8503 6.03914L9.95556 8.52614ZM2.7678 15.7045C2.21552 14.7479 2.54327 13.5247 3.49985 12.9724C4.45644 12.4202 5.67962 12.7479 6.2319 13.7045C6.78419 14.6611 6.45644 15.8843 5.49985 16.4365C4.54327 16.9888 3.32009 16.6611 2.7678 15.7045Z" fill="black"/>
<path d="M12.5201 12.0947C12.1624 12.3012 12.1952 12.8278 12.5758 12.9884L15.85 14.3698C16.4134 14.6075 17.04 14.6506 17.6307 14.4923L18.3339 14.3039C18.6269 14.2254 18.8438 13.9781 18.8834 13.6774C18.923 13.3766 18.7775 13.0816 18.5148 12.9299L15.0441 10.9261C14.8894 10.8368 14.6988 10.8368 14.5441 10.9261L12.5201 12.0947Z" fill="black"/>
</svg>
