<svg width="20" height="21" viewBox="0 0 20 21" fill="none" xmlns="http://www.w3.org/2000/svg">
<path d="M4.46363 3.36635C4.79054 2.65805 5.49945 2.20447 6.27955 2.20447H13.7202C14.5003 2.20447 15.2092 2.65805 15.5361 3.36635L16.69 5.86635C16.7567 6.01099 16.8047 6.15787 16.8352 6.30477C16.5675 6.23923 16.2878 6.20447 15.9999 6.20447H3.99989C3.712 6.20447 3.43223 6.23923 3.16455 6.30477C3.19509 6.15787 3.24303 6.01099 3.30979 5.86635L4.46363 3.36635Z" fill="black"/>
<path fill-rule="evenodd" clip-rule="evenodd" d="M2 9.70447C2 8.5999 2.89543 7.70447 4 7.70447H16C17.1046 7.70447 18 8.5999 18 9.70447C18 10.809 17.1046 11.7045 16 11.7045H4C2.89543 11.7045 2 10.809 2 9.70447ZM15.2402 9.70447C15.2402 9.29025 15.576 8.95447 15.9902 8.95447H16.0002C16.4144 8.95447 16.7502 9.29025 16.7502 9.70447V9.71447C16.7502 10.1287 16.4144 10.4645 16.0002 10.4645H15.9902C15.576 10.4645 15.2402 10.1287 15.2402 9.71447V9.70447ZM12.9902 8.95447C12.576 8.95447 12.2402 9.29025 12.2402 9.70447V9.71447C12.2402 10.1287 12.576 10.4645 12.9902 10.4645H13.0002C13.4144 10.4645 13.7502 10.1287 13.7502 9.71447V9.70447C13.7502 9.29025 13.4144 8.95447 13.0002 8.95447H12.9902Z" fill="black"/>
<path fill-rule="evenodd" clip-rule="evenodd" d="M2 15.2045C2 14.0999 2.89543 13.2045 4 13.2045H16C17.1046 13.2045 18 14.0999 18 15.2045C18 16.309 17.1046 17.2045 16 17.2045H4C2.89543 17.2045 2 16.309 2 15.2045ZM15.2402 15.2045C15.2402 14.7903 15.576 14.4545 15.9902 14.4545H16.0002C16.4144 14.4545 16.7502 14.7903 16.7502 15.2045V15.2145C16.7502 15.6287 16.4144 15.9645 16.0002 15.9645H15.9902C15.576 15.9645 15.2402 15.6287 15.2402 15.2145V15.2045ZM12.9902 14.4545C12.576 14.4545 12.2402 14.7903 12.2402 15.2045V15.2145C12.2402 15.6287 12.576 15.9645 12.9902 15.9645H13.0002C13.4144 15.9645 13.7502 15.6287 13.7502 15.2145V15.2045C13.7502 14.7903 13.4144 14.4545 13.0002 14.4545H12.9902Z" fill="black"/>
</svg>
