<svg width="20" height="21" viewBox="0 0 20 21" fill="none" xmlns="http://www.w3.org/2000/svg">
<path d="M4.63196 3.73772C4.84778 2.83848 5.65196 2.20447 6.57674 2.20447H13.4231C14.3479 2.20447 15.1521 2.83848 15.3679 3.73772L17.3441 11.9719C16.9303 11.7996 16.4762 11.7045 15.9999 11.7045H3.99994C3.52368 11.7045 3.06963 11.7996 2.65576 11.9719L4.63196 3.73772Z" fill="black"/>
<path fill-rule="evenodd" clip-rule="evenodd" d="M4 13.2045C2.89543 13.2045 2 14.0999 2 15.2045C2 16.309 2.89543 17.2045 4 17.2045H16C17.1046 17.2045 18 16.309 18 15.2045C18 14.0999 17.1046 13.2045 16 13.2045H4ZM15.2402 15.2045C15.2402 14.7903 15.576 14.4545 15.9902 14.4545H16.0002C16.4144 14.4545 16.7502 14.7903 16.7502 15.2045V15.2145C16.7502 15.6287 16.4144 15.9645 16.0002 15.9645H15.9902C15.576 15.9645 15.2402 15.6287 15.2402 15.2145V15.2045ZM12.9902 14.4545C12.576 14.4545 12.2402 14.7903 12.2402 15.2045V15.2145C12.2402 15.6287 12.576 15.9645 12.9902 15.9645H13.0002C13.4144 15.9645 13.7502 15.6287 13.7502 15.2145V15.2045C13.7502 14.7903 13.4144 14.4545 13.0002 14.4545H12.9902Z" fill="black"/>
</svg>
