<svg width="20" height="21" viewBox="0 0 20 21" fill="none" xmlns="http://www.w3.org/2000/svg">
<path d="M13 4.70447C13 3.32376 14.1193 2.20447 15.5 2.20447C16.8807 2.20447 18 3.32376 18 4.70447C18 6.08518 16.8807 7.20447 15.5 7.20447C14.7943 7.20447 14.1569 6.91209 13.7024 6.44185L6.96884 9.80862C6.98935 9.93755 7 10.0698 7 10.2045C7 10.3392 6.98934 10.4714 6.96882 10.6004L13.7023 13.9671C14.1569 13.4969 14.7943 13.2045 15.5 13.2045C16.8807 13.2045 18 14.3238 18 15.7045C18 17.0852 16.8807 18.2045 15.5 18.2045C14.1193 18.2045 13 17.0852 13 15.7045C13 15.5698 13.0107 15.4375 13.0312 15.3086L6.29764 11.9419C5.84307 12.4121 5.20568 12.7045 4.5 12.7045C3.11929 12.7045 2 11.5852 2 10.2045C2 8.82376 3.11929 7.70447 4.5 7.70447C5.20571 7.70447 5.84312 7.99687 6.29769 8.46714L13.0312 5.1004C13.0107 4.97144 13 4.8392 13 4.70447Z" fill="black"/>
</svg>
