<svg width="20" height="21" viewBox="0 0 20 21" fill="none" xmlns="http://www.w3.org/2000/svg">
<path fill-rule="evenodd" clip-rule="evenodd" d="M9.66109 2.44104C9.85709 2.27828 10.1429 2.27828 10.3389 2.44104C12.2777 4.05089 14.7315 5.06194 17.4166 5.19048C17.658 5.20203 17.8641 5.37635 17.8957 5.6159C17.9645 6.13575 18 6.66611 18 7.20475C18 12.3672 14.7401 16.7682 10.1665 18.4617C10.0593 18.5014 9.94102 18.5014 9.83378 18.4617C5.26004 16.7683 2 12.3672 2 7.20463C2 6.66603 2.03548 6.13572 2.10424 5.6159C2.13593 5.37636 2.34202 5.20203 2.58337 5.19048C5.2685 5.06195 7.72231 4.0509 9.66109 2.44104ZM13.8566 8.3956C14.1002 8.06061 14.0261 7.59154 13.6911 7.34792C13.3561 7.10429 12.8871 7.17835 12.6434 7.51334L9.15969 12.3035L7.28033 10.4241C6.98744 10.1312 6.51256 10.1312 6.21967 10.4241C5.92678 10.717 5.92678 11.1919 6.21967 11.4848L8.71967 13.9848C8.87477 14.1399 9.08999 14.2193 9.30867 14.2022C9.52734 14.185 9.72754 14.073 9.85655 13.8956L13.8566 8.3956Z" fill="black"/>
</svg>
