<svg width="20" height="21" viewBox="0 0 20 21" fill="none" xmlns="http://www.w3.org/2000/svg">
<path fill-rule="evenodd" clip-rule="evenodd" d="M10.3389 2.4411C10.1429 2.27834 9.85709 2.27834 9.66109 2.4411C7.72231 4.05096 5.2685 5.06201 2.58337 5.19054C2.34202 5.20209 2.13593 5.37642 2.10424 5.61597C2.03548 6.13578 2 6.66609 2 7.20469C2 12.3672 5.26004 16.7684 9.83378 18.4617C9.94102 18.5014 10.0593 18.5014 10.1665 18.4617C14.7401 16.7683 18 12.3672 18 7.20481C18 6.66617 17.9645 6.13582 17.8957 5.61596C17.8641 5.37642 17.658 5.20209 17.4166 5.19054C14.7315 5.062 12.2777 4.05095 10.3389 2.4411ZM10 6.20447C10.4142 6.20447 10.75 6.54025 10.75 6.95447V10.4545C10.75 10.8687 10.4142 11.2045 10 11.2045C9.58579 11.2045 9.25 10.8687 9.25 10.4545L9.25 6.95447C9.25 6.54025 9.58579 6.20447 10 6.20447ZM10 15.2045C10.5523 15.2045 11 14.7568 11 14.2045C11 13.6522 10.5523 13.2045 10 13.2045C9.44772 13.2045 9 13.6522 9 14.2045C9 14.7568 9.44772 15.2045 10 15.2045Z" fill="black"/>
</svg>
