<svg width="20" height="21" viewBox="0 0 20 21" fill="none" xmlns="http://www.w3.org/2000/svg">
<path d="M1 1.95447C1 1.54025 1.33579 1.20447 1.75 1.20447H3.37846C4.25256 1.20447 4.99261 1.84945 5.11205 2.71535L5.17955 3.20471C9.75911 3.2171 14.2281 3.70319 18.5398 4.61683C18.9395 4.70153 19.1979 5.0906 19.1209 5.49187C18.7145 7.60994 18.1717 9.67961 17.502 11.6913C17.4 11.9978 17.1134 12.2045 16.7904 12.2045H6C5.88567 12.2045 5.77351 12.2121 5.66393 12.2268C4.78545 12.3445 4.05092 12.9198 3.70796 13.7045H17.25C17.6642 13.7045 18 14.0403 18 14.4545C18 14.8687 17.6642 15.2045 17.25 15.2045H2.75948C2.55068 15.2045 2.35133 15.1174 2.2094 14.9643C2.06747 14.8111 1.9958 14.6058 2.01164 14.3976C2.13566 12.7673 3.23526 11.4113 4.72829 10.911L3.62612 2.92031C3.60906 2.79661 3.50333 2.70447 3.37846 2.70447H1.75C1.33579 2.70447 1 2.36868 1 1.95447Z" fill="black"/>
<path d="M6 17.7045C6 18.5329 5.32843 19.2045 4.5 19.2045C3.67157 19.2045 3 18.5329 3 17.7045C3 16.876 3.67157 16.2045 4.5 16.2045C5.32843 16.2045 6 16.876 6 17.7045Z" fill="black"/>
<path d="M15.5 19.2045C16.3284 19.2045 17 18.5329 17 17.7045C17 16.876 16.3284 16.2045 15.5 16.2045C14.6716 16.2045 14 16.876 14 17.7045C14 18.5329 14.6716 19.2045 15.5 19.2045Z" fill="black"/>
</svg>
