<svg width="20" height="21" viewBox="0 0 20 21" fill="none" xmlns="http://www.w3.org/2000/svg">
<path fill-rule="evenodd" clip-rule="evenodd" d="M6 5.20447V6.20447H4.66704C3.7593 6.20447 3.00225 6.89854 2.92362 7.80287L2.09753 17.3029C2.00862 18.3253 2.81463 19.2045 3.84095 19.2045H16.1595C17.1858 19.2045 17.9918 18.3253 17.9029 17.3029L17.0768 7.80287C16.9982 6.89854 16.2411 6.20447 15.3334 6.20447H14V5.20447C14 2.99533 12.2091 1.20447 10 1.20447C7.79086 1.20447 6 2.99533 6 5.20447ZM10 2.70447C8.61929 2.70447 7.5 3.82376 7.5 5.20447V6.20447H12.5V5.20447C12.5 3.82376 11.3807 2.70447 10 2.70447ZM7.5 10.2045C7.5 11.5852 8.61929 12.7045 10 12.7045C11.3807 12.7045 12.5 11.5852 12.5 10.2045V8.95447C12.5 8.54025 12.8358 8.20447 13.25 8.20447C13.6642 8.20447 14 8.54025 14 8.95447V10.2045C14 12.4136 12.2091 14.2045 10 14.2045C7.79086 14.2045 6 12.4136 6 10.2045V8.95447C6 8.54025 6.33579 8.20447 6.75 8.20447C7.16421 8.20447 7.5 8.54025 7.5 8.95447V10.2045Z" fill="black"/>
</svg>
