<svg width="20" height="21" viewBox="0 0 20 21" fill="none" xmlns="http://www.w3.org/2000/svg">
<path d="M16.364 3.84052C16.0711 3.54763 15.5962 3.54763 15.3033 3.84052C15.0104 4.13341 15.0104 4.60829 15.3033 4.90118C18.2322 7.83011 18.2322 12.5788 15.3033 15.5078C15.0104 15.8007 15.0104 16.2755 15.3033 16.5684C15.5962 16.8613 16.0711 16.8613 16.364 16.5684C19.8787 13.0537 19.8787 7.35524 16.364 3.84052Z" fill="black"/>
<path d="M4.6967 4.90118C4.98959 4.60829 4.98959 4.13341 4.6967 3.84052C4.40381 3.54763 3.92893 3.54763 3.63604 3.84052C0.12132 7.35524 0.12132 13.0537 3.63604 16.5684C3.92893 16.8613 4.40381 16.8613 4.6967 16.5684C4.98959 16.2755 4.98959 15.8007 4.6967 15.5078C1.76777 12.5788 1.76777 7.83011 4.6967 4.90118Z" fill="black"/>
<path d="M12.4749 6.66895C12.7678 6.37606 13.2426 6.37606 13.5355 6.66895C15.4882 8.62157 15.4882 11.7874 13.5355 13.74C13.2426 14.0329 12.7678 14.0329 12.4749 13.74C12.182 13.4471 12.182 12.9723 12.4749 12.6794C13.8417 11.3125 13.8417 9.09645 12.4749 7.72961C12.182 7.43672 12.182 6.96185 12.4749 6.66895Z" fill="black"/>
<path d="M7.52513 6.66895C7.81802 6.96185 7.81802 7.43672 7.52513 7.72961C6.15829 9.09645 6.15829 11.3125 7.52513 12.6794C7.81802 12.9723 7.81802 13.4471 7.52513 13.74C7.23223 14.0329 6.75736 14.0329 6.46447 13.74C4.51184 11.7874 4.51184 8.62157 6.46447 6.66895C6.75736 6.37606 7.23223 6.37606 7.52513 6.66895Z" fill="black"/>
<path d="M11 10.2045C11 10.7567 10.5523 11.2045 10 11.2045C9.44772 11.2045 9 10.7567 9 10.2045C9 9.65218 9.44772 9.20446 10 9.20446C10.5523 9.20446 11 9.65218 11 10.2045Z" fill="black"/>
</svg>
