<svg width="20" height="21" viewBox="0 0 20 21" fill="none" xmlns="http://www.w3.org/2000/svg">
<path d="M2.21967 2.42414C2.51256 2.13124 2.98744 2.13124 3.28033 2.42414L10.0626 9.20639C10.565 9.23742 10.967 9.63945 10.9981 10.1419L17.7803 16.9241C18.0732 17.217 18.0732 17.6919 17.7803 17.9848C17.4874 18.2777 17.0126 18.2777 16.7197 17.9848L9.93741 11.2025C9.43498 11.1715 9.03295 10.7695 9.00193 10.2671L2.21967 3.4848C1.92678 3.1919 1.92678 2.71703 2.21967 2.42414Z" fill="black"/>
<path d="M3.63604 16.5684C0.670686 13.6031 0.207189 9.08328 2.24555 5.63199L3.3485 6.73495C1.87267 9.56234 2.32207 13.1332 4.6967 15.5078C4.98959 15.8007 4.98959 16.2755 4.6967 16.5684C4.40381 16.8613 3.92893 16.8613 3.63604 16.5684Z" fill="black"/>
<path d="M6.46447 13.74C5.08411 12.3597 4.67956 10.373 5.25082 8.63727L6.51322 9.89967C6.4268 10.8941 6.76411 11.9183 7.52513 12.6794C7.81802 12.9723 7.81802 13.4471 7.52513 13.74C7.23223 14.0329 6.75736 14.0329 6.46447 13.74Z" fill="black"/>
<path d="M16.364 3.84052C19.3293 6.80587 19.7928 11.3257 17.7545 14.7769L16.6515 13.674C18.1273 10.8466 17.6779 7.27581 15.3033 4.90118C15.0104 4.60829 15.0104 4.13341 15.3033 3.84052C15.5962 3.54763 16.0711 3.54763 16.364 3.84052Z" fill="black"/>
<path d="M13.5355 6.66895C14.9159 8.0493 15.3204 10.0359 14.7492 11.7717L13.4868 10.5093C13.5732 9.51489 13.2359 8.49062 12.4749 7.72961C12.182 7.43672 12.182 6.96185 12.4749 6.66895C12.7678 6.37606 13.2426 6.37606 13.5355 6.66895Z" fill="black"/>
</svg>
