<svg width="20" height="21" viewBox="0 0 20 21" fill="none" xmlns="http://www.w3.org/2000/svg">
<path d="M15.9806 2.00835C15.8871 1.54093 15.4767 1.20447 15 1.20447C14.5233 1.20447 14.1129 1.54093 14.0194 2.00835L13.7809 3.20091C13.7017 3.59677 13.3923 3.9062 12.9964 3.98538L11.8039 4.22389C11.3365 4.31737 11 4.72779 11 5.20447C11 5.68115 11.3365 6.09156 11.8039 6.18505L12.9964 6.42356C13.3923 6.50273 13.7017 6.81216 13.7809 7.20802L14.0194 8.40058C14.1129 8.86801 14.5233 9.20447 15 9.20447C15.4767 9.20447 15.8871 8.86801 15.9806 8.40058L16.2191 7.20802C16.2983 6.81216 16.6077 6.50273 17.0036 6.42356L18.1961 6.18505C18.6635 6.09156 19 5.68115 19 5.20447C19 4.72779 18.6635 4.31737 18.1961 4.22389L17.0036 3.98538C16.6077 3.9062 16.2983 3.59677 16.2191 3.20091L15.9806 2.00835Z" fill="black"/>
<path d="M6.94868 5.88824C6.81257 5.4799 6.43043 5.20447 6 5.20447C5.56957 5.20447 5.18743 5.4799 5.05132 5.88824L4.36754 7.93956C4.26801 8.23816 4.03369 8.47248 3.73509 8.57201L1.68377 9.25578C1.27543 9.3919 1 9.77404 1 10.2045C1 10.6349 1.27543 11.017 1.68377 11.1532L3.73509 11.8369C4.03369 11.9365 4.26801 12.1708 4.36754 12.4694L5.05132 14.5207C5.18743 14.929 5.56957 15.2045 6 15.2045C6.43043 15.2045 6.81257 14.929 6.94868 14.5207L7.63246 12.4694C7.73199 12.1708 7.96631 11.9365 8.26491 11.8369L10.3162 11.1532C10.7246 11.017 11 10.6349 11 10.2045C11 9.77404 10.7246 9.3919 10.3162 9.25578L8.26491 8.57201C7.96631 8.47248 7.73199 8.23816 7.63246 7.93956L6.94868 5.88824Z" fill="black"/>
<path d="M13.9487 13.8882C13.8126 13.4799 13.4304 13.2045 13 13.2045C12.5696 13.2045 12.1874 13.4799 12.0513 13.8882L11.8675 14.4396C11.768 14.7382 11.5337 14.9725 11.2351 15.072L10.6838 15.2558C10.2754 15.3919 10 15.774 10 16.2045C10 16.6349 10.2754 17.017 10.6838 17.1532L11.2351 17.3369C11.5337 17.4365 11.768 17.6708 11.8675 17.9694L12.0513 18.5207C12.1874 18.929 12.5696 19.2045 13 19.2045C13.4304 19.2045 13.8126 18.929 13.9487 18.5207L14.1325 17.9694C14.232 17.6708 14.4663 17.4365 14.7649 17.3369L15.3162 17.1532C15.7246 17.017 16 16.6349 16 16.2045C16 15.774 15.7246 15.3919 15.3162 15.2558L14.7649 15.072C14.4663 14.9725 14.232 14.7382 14.1325 14.4396L13.9487 13.8882Z" fill="black"/>
</svg>
