<svg width="20" height="21" viewBox="0 0 20 21" fill="none" xmlns="http://www.w3.org/2000/svg">
<path d="M9.54747 3.266C9.82215 3.38468 10 3.65527 10 3.95448V16.4545C10 16.7537 9.82215 17.0243 9.54747 17.143C9.2728 17.2616 8.95387 17.2057 8.73598 17.0006L4.70257 13.2045H3.16724C2.85725 13.2045 2.5792 13.0138 2.46756 12.7246C2.16534 11.9416 2 11.0915 2 10.2045C2 9.31749 2.16534 8.46734 2.46756 7.6844C2.5792 7.3952 2.85725 7.20448 3.16724 7.20448H4.70257L8.73598 3.40833C8.95387 3.20326 9.2728 3.14732 9.54747 3.266Z" fill="black"/>
<path d="M13.2803 7.42417C12.9874 7.13127 12.5126 7.13127 12.2197 7.42417C11.9268 7.71706 11.9268 8.19194 12.2197 8.48483L13.9393 10.2045L12.2197 11.9242C11.9268 12.2171 11.9268 12.6919 12.2197 12.9848C12.5126 13.2777 12.9874 13.2777 13.2803 12.9848L15 11.2652L16.7197 12.9848C17.0126 13.2777 17.4874 13.2777 17.7803 12.9848C18.0732 12.6919 18.0732 12.2171 17.7803 11.9242L16.0607 10.2045L17.7803 8.48483C18.0732 8.19194 18.0732 7.71706 17.7803 7.42417C17.4874 7.13127 17.0126 7.13127 16.7197 7.42417L15 9.14384L13.2803 7.42417Z" fill="black"/>
</svg>
