<svg width="20" height="21" viewBox="0 0 20 21" fill="none" xmlns="http://www.w3.org/2000/svg">
<path d="M10 3.95448C10 3.65527 9.82215 3.38468 9.54747 3.266C9.2728 3.14732 8.95387 3.20326 8.73598 3.40833L4.70257 7.20448H3.16724C2.85725 7.20448 2.5792 7.3952 2.46756 7.6844C2.16534 8.46734 2 9.31749 2 10.2045C2 11.0915 2.16534 11.9416 2.46756 12.7246C2.5792 13.0138 2.85725 13.2045 3.16724 13.2045H4.70257L8.73598 17.0006C8.95387 17.2057 9.2728 17.2616 9.54747 17.143C9.82215 17.0243 10 16.7537 10 16.4545V3.95448Z" fill="black"/>
<path d="M15.9498 5.25476C15.6569 4.96186 15.182 4.96186 14.8891 5.25476C14.5962 5.54765 14.5962 6.02252 14.8891 6.31542C17.037 8.4633 17.037 11.9457 14.8891 14.0936C14.5962 14.3865 14.5962 14.8614 14.8891 15.1543C15.182 15.4471 15.6569 15.4471 15.9498 15.1543C18.6834 12.4206 18.6834 7.98843 15.9498 5.25476Z" fill="black"/>
<path d="M13.8287 7.37606C13.5358 7.08317 13.0609 7.08317 12.768 7.37606C12.4751 7.66896 12.4751 8.14383 12.768 8.43672C13.7443 9.41303 13.7443 10.9959 12.768 11.9723C12.4751 12.2652 12.4751 12.74 12.768 13.0329C13.0609 13.3258 13.5358 13.3258 13.8287 13.0329C15.3908 11.4708 15.3908 8.93816 13.8287 7.37606Z" fill="black"/>
</svg>
