<svg width="20" height="21" viewBox="0 0 20 21" fill="none" xmlns="http://www.w3.org/2000/svg">
<path d="M2 4.45447C2 3.21183 3.00736 2.20447 4.25 2.20447H6.75C7.99264 2.20447 9 3.21183 9 4.45447V6.95447C9 8.19711 7.99264 9.20447 6.75 9.20447H4.25C3.00736 9.20447 2 8.19711 2 6.95447V4.45447Z" fill="black"/>
<path d="M2 13.4545C2 12.2118 3.00736 11.2045 4.25 11.2045H6.75C7.99264 11.2045 9 12.2118 9 13.4545V15.9545C9 17.1971 7.99264 18.2045 6.75 18.2045H4.25C3.00736 18.2045 2 17.1971 2 15.9545V13.4545Z" fill="black"/>
<path d="M11 4.45447C11 3.21183 12.0074 2.20447 13.25 2.20447H15.75C16.9926 2.20447 18 3.21183 18 4.45447V6.95447C18 8.19711 16.9926 9.20447 15.75 9.20447H13.25C12.0074 9.20447 11 8.19711 11 6.95447V4.45447Z" fill="black"/>
<path d="M15.25 11.9545C15.25 11.5403 14.9142 11.2045 14.5 11.2045C14.0858 11.2045 13.75 11.5403 13.75 11.9545V13.9545H11.75C11.3358 13.9545 11 14.2903 11 14.7045C11 15.1187 11.3358 15.4545 11.75 15.4545H13.75V17.4545C13.75 17.8687 14.0858 18.2045 14.5 18.2045C14.9142 18.2045 15.25 17.8687 15.25 17.4545V15.4545H17.25C17.6642 15.4545 18 15.1187 18 14.7045C18 14.2903 17.6642 13.9545 17.25 13.9545H15.25V11.9545Z" fill="black"/>
</svg>
