<svg width="20" height="21" viewBox="0 0 20 21" fill="none" xmlns="http://www.w3.org/2000/svg">
<path fill-rule="evenodd" clip-rule="evenodd" d="M4.25 2.20447C3.00736 2.20447 2 3.21183 2 4.45447V6.95447C2 8.19711 3.00736 9.20447 4.25 9.20447H6.75C7.99264 9.20447 9 8.19711 9 6.95447V4.45447C9 3.21183 7.99264 2.20447 6.75 2.20447H4.25ZM4.25 11.2045C3.00736 11.2045 2 12.2118 2 13.4545V15.9545C2 17.1971 3.00736 18.2045 4.25 18.2045H6.75C7.99264 18.2045 9 17.1971 9 15.9545V13.4545C9 12.2118 7.99264 11.2045 6.75 11.2045H4.25ZM13.25 2.20447C12.0074 2.20447 11 3.21183 11 4.45447V6.95447C11 8.19711 12.0074 9.20447 13.25 9.20447H15.75C16.9926 9.20447 18 8.19711 18 6.95447V4.45447C18 3.21183 16.9926 2.20447 15.75 2.20447H13.25ZM13.25 11.2045C12.0074 11.2045 11 12.2118 11 13.4545V15.9545C11 17.1971 12.0074 18.2045 13.25 18.2045H15.75C16.9926 18.2045 18 17.1971 18 15.9545V13.4545C18 12.2118 16.9926 11.2045 15.75 11.2045H13.25Z" fill="black"/>
</svg>
