<svg width="20" height="21" viewBox="0 0 20 21" fill="none" xmlns="http://www.w3.org/2000/svg">
<path d="M3.19569 13.0738L2.37071 13.5574C2.14108 13.6921 2 13.9383 2 14.2045C2 14.4706 2.14108 14.7169 2.37071 14.8515L9.62071 19.1015C9.85493 19.2388 10.1451 19.2388 10.3793 19.1015L17.6293 14.8515C17.8589 14.7169 18 14.4706 18 14.2045C18 13.9383 17.8589 13.6921 17.6293 13.5574L16.8043 13.0738L11.1379 16.3955C10.4352 16.8074 9.56479 16.8074 8.86213 16.3955L3.19569 13.0738Z" fill="black"/>
<path d="M3.19569 9.07383L2.37071 9.55744C2.14108 9.69205 2 9.93829 2 10.2045C2 10.4706 2.14108 10.7169 2.37071 10.8515L9.62071 15.1015C9.85493 15.2388 10.1451 15.2388 10.3793 15.1015L17.6293 10.8515C17.8589 10.7169 18 10.4706 18 10.2045C18 9.93829 17.8589 9.69205 17.6293 9.55744L16.8043 9.07383L11.1379 12.3955C10.4352 12.8074 9.56479 12.8074 8.86213 12.3955L3.19569 9.07383Z" fill="black"/>
<path d="M10.3793 1.30744C10.1451 1.17014 9.85493 1.17014 9.62071 1.30744L2.37071 5.55744C2.14108 5.69205 2 5.93829 2 6.20447C2 6.47064 2.14108 6.71688 2.37071 6.85149L9.62071 11.1015C9.85493 11.2388 10.1451 11.2388 10.3793 11.1015L17.6293 6.85149C17.8589 6.71688 18 6.47064 18 6.20447C18 5.93829 17.8589 5.69205 17.6293 5.55744L10.3793 1.30744Z" fill="black"/>
</svg>
