<svg width="20" height="21" viewBox="0 0 20 21" fill="none" xmlns="http://www.w3.org/2000/svg">
<path d="M2 4.45447C2 3.21183 3.00736 2.20447 4.25 2.20447H10.75C11.9926 2.20447 13 3.21183 13 4.45447V5.70447H9.25C7.17893 5.70447 5.5 7.3834 5.5 9.45447V13.2045H4.25C3.00736 13.2045 2 12.1971 2 10.9545V4.45447Z" fill="black"/>
<path d="M9.25 7.20447C8.00736 7.20447 7 8.21183 7 9.45447V15.9545C7 17.1971 8.00736 18.2045 9.25 18.2045H15.75C16.9926 18.2045 18 17.1971 18 15.9545V9.45447C18 8.21183 16.9926 7.20447 15.75 7.20447H9.25Z" fill="black"/>
</svg>
