<svg width="20" height="21" viewBox="0 0 20 21" fill="none" xmlns="http://www.w3.org/2000/svg">
<path d="M10 2.20447C10.4142 2.20447 10.75 2.54025 10.75 2.95447V4.45447C10.75 4.86868 10.4142 5.20447 10 5.20447C9.58579 5.20447 9.25 4.86868 9.25 4.45447V2.95447C9.25 2.54025 9.58579 2.20447 10 2.20447Z" fill="black"/>
<path d="M10 15.2045C10.4142 15.2045 10.75 15.5403 10.75 15.9545V17.4545C10.75 17.8687 10.4142 18.2045 10 18.2045C9.58579 18.2045 9.25 17.8687 9.25 17.4545V15.9545C9.25 15.5403 9.58579 15.2045 10 15.2045Z" fill="black"/>
<path d="M10 7.20447C8.34315 7.20447 7 8.54761 7 10.2045C7 11.8613 8.34315 13.2045 10 13.2045C11.6569 13.2045 13 11.8613 13 10.2045C13 8.54761 11.6569 7.20447 10 7.20447Z" fill="black"/>
<path d="M15.6568 5.60832C15.9497 5.31543 15.9497 4.84056 15.6568 4.54766C15.3639 4.25477 14.889 4.25477 14.5961 4.54766L13.5355 5.60832C13.2426 5.90122 13.2426 6.37609 13.5355 6.66898C13.8284 6.96188 14.3032 6.96188 14.5961 6.66898L15.6568 5.60832Z" fill="black"/>
<path d="M6.46441 14.8007C6.7573 14.5078 6.7573 14.0329 6.46441 13.7401C6.17151 13.4472 5.69664 13.4472 5.40375 13.7401L4.34309 14.8007C4.05019 15.0936 4.05019 15.5685 4.34309 15.8614C4.63598 16.1543 5.11085 16.1543 5.40375 15.8614L6.46441 14.8007Z" fill="black"/>
<path d="M18 10.2045C18 10.6187 17.6642 10.9545 17.25 10.9545H15.75C15.3358 10.9545 15 10.6187 15 10.2045C15 9.79025 15.3358 9.45447 15.75 9.45447H17.25C17.6642 9.45447 18 9.79025 18 10.2045Z" fill="black"/>
<path d="M5 10.2045C5 10.6187 4.66421 10.9545 4.25 10.9545H2.75C2.33579 10.9545 2 10.6187 2 10.2045C2 9.79025 2.33579 9.45447 2.75 9.45447H4.25C4.66421 9.45447 5 9.79025 5 10.2045Z" fill="black"/>
<path d="M14.596 15.8613C14.8889 16.1542 15.3638 16.1542 15.6567 15.8613C15.9496 15.5684 15.9496 15.0935 15.6567 14.8006L14.596 13.7399C14.3031 13.447 13.8283 13.447 13.5354 13.7399C13.2425 14.0328 13.2425 14.5077 13.5354 14.8006L14.596 15.8613Z" fill="black"/>
<path d="M5.40363 6.66887C5.69653 6.96177 6.1714 6.96177 6.46429 6.66887C6.75719 6.37598 6.75719 5.90111 6.46429 5.60821L5.40363 4.54755C5.11074 4.25466 4.63587 4.25466 4.34297 4.54755C4.05008 4.84045 4.05008 5.31532 4.34297 5.60821L5.40363 6.66887Z" fill="black"/>
</svg>
