<svg width="20" height="21" viewBox="0 0 20 21" fill="none" xmlns="http://www.w3.org/2000/svg">
<path fill-rule="evenodd" clip-rule="evenodd" d="M3.5 2.20447C2.67157 2.20447 2 2.87604 2 3.70447V15.2045C2 16.8613 3.34315 18.2045 5 18.2045C6.65685 18.2045 8 16.8613 8 15.2045V3.70447C8 2.87604 7.32843 2.20447 6.5 2.20447H3.5ZM15.253 9.19404L9.5 14.9471V6.46178L11.0104 4.95139C11.5962 4.36561 12.5459 4.36561 13.1317 4.95139L15.253 7.07271C15.8388 7.6585 15.8388 8.60825 15.253 9.19404ZM8.36395 18.2045H16.5C17.3284 18.2045 18 17.5329 18 16.7045V13.7045C18 12.876 17.3284 12.2045 16.5 12.2045H14.364L8.36395 18.2045ZM5 16.2045C5.55228 16.2045 6 15.7568 6 15.2045C6 14.6522 5.55228 14.2045 5 14.2045C4.44772 14.2045 4 14.6522 4 15.2045C4 15.7568 4.44772 16.2045 5 16.2045Z" fill="black"/>
</svg>
