<svg width="20" height="21" viewBox="0 0 20 21" fill="none" xmlns="http://www.w3.org/2000/svg">
<path fill-rule="evenodd" clip-rule="evenodd" d="M0.98999 5.44446C0.98999 4.20182 2.00736 3.20447 3.25 3.20447H16.75C17.9926 3.20447 19 4.21183 19 5.45447L19.01 14.9545C19.01 16.1971 18.0027 17.2045 16.76 17.2045C12.9267 17.2045 7.09334 17.2045 3.26001 17.2045C2.01737 17.2045 1 16.1871 1 14.9445L0.98999 5.44446ZM9.25 14.9645V14.3395C9.25 13.9253 8.91421 13.5895 8.5 13.5895H3.25C2.83579 13.5895 2.5 13.9253 2.5 14.3395V14.9545C2.5 15.3687 2.83579 15.7045 3.25 15.7045H8.62283C8.97861 15.6459 9.25 15.3369 9.25 14.9645ZM10.75 14.9645C10.75 15.3369 11.0214 15.6459 11.3772 15.7045H16.75C17.1642 15.7045 17.5 15.3687 17.5 14.9545V14.3395C17.5 13.9253 17.1642 13.5895 16.75 13.5895H11.5C11.0858 13.5895 10.75 13.9253 10.75 14.3395V14.9645ZM17.5 11.3345V10.7095C17.5 10.2953 17.1642 9.95947 16.75 9.95947H11.5C11.0858 9.95947 10.75 10.2953 10.75 10.7095V11.3345C10.75 11.7487 11.0858 12.0845 11.5 12.0845H16.75C17.1642 12.0845 17.5 11.7487 17.5 11.3345ZM9.25 11.3345V10.7095C9.25 10.2953 8.91421 9.95947 8.5 9.95947H3.25C2.83579 9.95947 2.5 10.2953 2.5 10.7095V11.3345C2.5 11.7487 2.83579 12.0845 3.25 12.0845H8.5C8.91421 12.0845 9.25 11.7487 9.25 11.3345ZM17.5 7.70447V7.07947C17.5 6.66525 17.1642 6.32947 16.75 6.32947H11.5C11.0858 6.32947 10.75 6.66525 10.75 7.07947V7.70447C10.75 8.11868 11.0858 8.45447 11.5 8.45447H16.75C17.1642 8.45447 17.5 8.11868 17.5 7.70447ZM9.25 7.70447V7.07947C9.25 6.66525 8.91421 6.32947 8.5 6.32947H3.25C2.83579 6.32947 2.5 6.66525 2.5 7.07947V7.70447C2.5 8.11868 2.83579 8.45447 3.25 8.45447H8.5C8.91421 8.45447 9.25 8.11868 9.25 7.70447Z" fill="black"/>
</svg>
