<svg width="20" height="21" viewBox="0 0 20 21" fill="none" xmlns="http://www.w3.org/2000/svg">
<path fill-rule="evenodd" clip-rule="evenodd" d="M5.5 3.20447C4.11929 3.20447 3 4.32376 3 5.70447V8.58315C3 9.24619 3.26339 9.88207 3.73223 10.3509L10.2322 16.8509C11.2085 17.8272 12.7915 17.8272 13.7678 16.8509L16.6464 13.9722C17.6228 12.9959 17.6228 11.413 16.6464 10.4367L10.1464 3.9367C9.67761 3.46786 9.04172 3.20447 8.37868 3.20447H5.5ZM6 7.20447C6.55228 7.20447 7 6.75675 7 6.20447C7 5.65218 6.55228 5.20447 6 5.20447C5.44772 5.20447 5 5.65218 5 6.20447C5 6.75675 5.44772 7.20447 6 7.20447Z" fill="black"/>
</svg>
