<svg width="20" height="21" viewBox="0 0 20 21" fill="none" xmlns="http://www.w3.org/2000/svg">
<path fill-rule="evenodd" clip-rule="evenodd" d="M13 3.20447V4.4753C13 4.88951 13.3358 5.2253 13.75 5.2253C14.1642 5.2253 14.5 4.88951 14.5 4.4753V3.20447H16.75C17.9926 3.20447 19 4.21183 19 5.45447V8.0825C19 8.40036 18.7996 8.6837 18.4999 8.78963C17.9163 8.9959 17.5 9.55253 17.5 10.2045C17.5 10.8564 17.9163 11.413 18.4999 11.6193C18.7996 11.7252 19 12.0086 19 12.3264V14.9545C19 16.1971 17.9926 17.2045 16.75 17.2045H14.5V15.9336C14.5 15.5194 14.1642 15.1836 13.75 15.1836C13.3358 15.1836 13 15.5194 13 15.9336V17.2045H3.25C2.00736 17.2045 1 16.1971 1 14.9545V12.3264C1 12.0086 1.20037 11.7252 1.50007 11.6193C2.08367 11.413 2.5 10.8564 2.5 10.2045C2.5 9.55253 2.08367 8.9959 1.50007 8.78963C1.20037 8.6837 1 8.40036 1 8.0825V5.45447C1 4.21183 2.00736 3.20447 3.25 3.20447H13ZM14.5 7.6003C14.5 7.18609 14.1642 6.8503 13.75 6.8503C13.3358 6.8503 13 7.18609 13 7.6003V8.64197C13 9.05618 13.3358 9.39197 13.75 9.39197C14.1642 9.39197 14.5 9.05618 14.5 8.64197V7.6003ZM14.5 11.767C14.5 11.3528 14.1642 11.017 13.75 11.017C13.3358 11.017 13 11.3528 13 11.767V12.8086C13 13.2228 13.3358 13.5586 13.75 13.5586C14.1642 13.5586 14.5 13.2228 14.5 12.8086V11.767ZM6 10.9545C6 10.5403 6.33579 10.2045 6.75 10.2045H10.25C10.6642 10.2045 11 10.5403 11 10.9545C11 11.3687 10.6642 11.7045 10.25 11.7045H6.75C6.33579 11.7045 6 11.3687 6 10.9545ZM6 13.4545C6 13.0403 6.33579 12.7045 6.75 12.7045H8.25C8.66421 12.7045 9 13.0403 9 13.4545C9 13.8687 8.66421 14.2045 8.25 14.2045H6.75C6.33579 14.2045 6 13.8687 6 13.4545Z" fill="black"/>
</svg>
