<svg width="20" height="21" viewBox="0 0 20 21" fill="none" xmlns="http://www.w3.org/2000/svg">
<path fill-rule="evenodd" clip-rule="evenodd" d="M8.75 1.20447C7.23122 1.20447 6 2.43569 6 3.95447V4.39716C5.20472 4.47419 4.41602 4.57393 3.63458 4.69576C3.22531 4.75957 2.94525 5.14307 3.00906 5.55234C3.07286 5.96161 3.45637 6.24166 3.86564 6.17786L4.01355 6.15509L4.85504 16.6738C4.96938 18.1029 6.16254 19.2045 7.59629 19.2045H12.4035C13.8372 19.2045 15.0304 18.1029 15.1447 16.6738L15.9862 6.15502L16.1346 6.17786C16.5438 6.24166 16.9274 5.96161 16.9912 5.55234C17.055 5.14307 16.7749 4.75957 16.3656 4.69576C15.5841 4.57392 14.7954 4.47417 14 4.39714V3.95447C14 2.43568 12.7688 1.20447 11.25 1.20447H8.75ZM10.0001 4.20447C10.8395 4.20447 11.673 4.2297 12.5 4.27945V3.95447C12.5 3.26411 11.9404 2.70447 11.25 2.70447H8.75C8.05964 2.70447 7.5 3.26411 7.5 3.95447V4.27947C8.32707 4.2297 9.16068 4.20447 10.0001 4.20447ZM8.57948 7.92449C8.56292 7.51061 8.21398 7.18851 7.8001 7.20507C7.38622 7.22162 7.06412 7.57056 7.08068 7.98445L7.38069 15.4844C7.39725 15.8983 7.74619 16.2204 8.16007 16.2039C8.57395 16.1873 8.89605 15.8384 8.87949 15.4245L8.57948 7.92449ZM12.9195 7.98444C12.936 7.57056 12.614 7.22162 12.2001 7.20507C11.7862 7.18851 11.4372 7.51061 11.4207 7.92449L11.1207 15.4245C11.1041 15.8384 11.4262 16.1873 11.8401 16.2039C12.254 16.2204 12.6029 15.8983 12.6195 15.4844L12.9195 7.98444Z" fill="black"/>
</svg>
