<svg width="20" height="21" viewBox="0 0 20 21" fill="none" xmlns="http://www.w3.org/2000/svg">
<path d="M6.5 3.20459C5.4488 3.20459 4.40669 3.24417 3.37512 3.32193C2.58952 3.38115 2 4.03911 2 4.81087V10.7046H11V4.81087C11 4.03911 10.4105 3.38115 9.62488 3.32193C8.59331 3.24417 7.5512 3.20459 6.5 3.20459Z" fill="black"/>
<path d="M2 12.2046V14.7046C2 15.533 2.67157 16.2046 3.5 16.2046H3.54148C3.77952 14.7857 5.0135 13.7046 6.5 13.7046C7.9865 13.7046 9.22048 14.7857 9.45852 16.2046H10.25C10.6642 16.2046 11 15.8688 11 15.4546V12.2046H2Z" fill="black"/>
<path d="M6.5 18.2046C7.32843 18.2046 8 17.533 8 16.7046C8 15.8762 7.32843 15.2046 6.5 15.2046C5.67157 15.2046 5 15.8762 5 16.7046C5 17.533 5.67157 18.2046 6.5 18.2046Z" fill="black"/>
<path d="M13.25 5.20459C12.8358 5.20459 12.5 5.54038 12.5 5.95459V14.4685C13.0308 13.9934 13.7316 13.7046 14.5 13.7046C15.8814 13.7046 17.0447 14.6382 17.3933 15.9089C17.7639 15.6335 18.0037 15.1898 17.9883 14.6818C17.8967 11.6685 17.2717 8.78804 16.204 6.13267C15.9743 5.56147 15.4206 5.20459 14.8229 5.20459H13.25Z" fill="black"/>
<path d="M14.5 18.2046C15.3284 18.2046 16 17.533 16 16.7046C16 15.8762 15.3284 15.2046 14.5 15.2046C13.6716 15.2046 13 15.8762 13 16.7046C13 17.533 13.6716 18.2046 14.5 18.2046Z" fill="black"/>
</svg>
