<svg width="20" height="21" viewBox="0 0 20 21" fill="none" xmlns="http://www.w3.org/2000/svg">
<path d="M4 5.20459H16V12.2046H4V5.20459Z" fill="black"/>
<path fill-rule="evenodd" clip-rule="evenodd" d="M1 3.70459C1 2.87616 1.67157 2.20459 2.5 2.20459H17.5C18.3284 2.20459 19 2.87616 19 3.70459V13.7046C19 14.533 18.3284 15.2046 17.5 15.2046H12V16.7046H15.25C15.6642 16.7046 16 17.0404 16 17.4546C16 17.8688 15.6642 18.2046 15.25 18.2046H4.75C4.33579 18.2046 4 17.8688 4 17.4546C4 17.0404 4.33579 16.7046 4.75 16.7046H8V15.2046H2.5C1.67157 15.2046 1 14.533 1 13.7046V3.70459ZM17.5 3.70459L2.5 3.70459V13.7046H17.5V3.70459Z" fill="black"/>
</svg>
