<svg width="20" height="21" viewBox="0 0 20 21" fill="none" xmlns="http://www.w3.org/2000/svg">
<path d="M10 9.20459C11.6569 9.20459 13 7.86144 13 6.20459C13 4.54774 11.6569 3.20459 10 3.20459C8.34315 3.20459 7 4.54774 7 6.20459C7 7.86144 8.34315 9.20459 10 9.20459Z" fill="black"/>
<path d="M6 8.20459C6 9.30916 5.10457 10.2046 4 10.2046C2.89543 10.2046 2 9.30916 2 8.20459C2 7.10002 2.89543 6.20459 4 6.20459C5.10457 6.20459 6 7.10002 6 8.20459Z" fill="black"/>
<path d="M1.49064 15.5303C1.32107 15.4317 1.19021 15.2764 1.13247 15.0889C1.04636 14.8094 1 14.5124 1 14.2046C1 12.5477 2.34315 11.2046 4 11.2046C4.522 11.2046 5.01287 11.3379 5.4404 11.5724C4.39329 12.6034 3.69414 13.9871 3.53478 15.5313C3.5118 15.754 3.52139 15.9738 3.55996 16.1855C2.81061 16.1202 2.10861 15.8895 1.49064 15.5303Z" fill="black"/>
<path d="M16.4405 16.1855C17.1897 16.1201 17.8915 15.8894 18.5094 15.5303C18.6789 15.4317 18.8098 15.2764 18.8675 15.0889C18.9536 14.8094 19 14.5124 19 14.2046C19 12.5477 17.6569 11.2046 16 11.2046C15.4781 11.2046 14.9873 11.3379 14.5599 11.5722C15.6071 12.6033 16.3063 13.987 16.4656 15.5313C16.4886 15.754 16.479 15.9737 16.4405 16.1855Z" fill="black"/>
<path d="M18 8.20459C18 9.30916 17.1046 10.2046 16 10.2046C14.8954 10.2046 14 9.30916 14 8.20459C14 7.10002 14.8954 6.20459 16 6.20459C17.1046 6.20459 18 7.10002 18 8.20459Z" fill="black"/>
<path d="M5.30383 16.3955C5.10473 16.2152 4.99922 15.9524 5.02679 15.6853C5.28657 13.1679 7.41408 11.2046 10.0001 11.2046C12.5862 11.2046 14.7137 13.1679 14.9735 15.6853C15.0011 15.9524 14.8956 16.2152 14.6965 16.3955C13.4545 17.5198 11.8073 18.2046 10.0001 18.2046C8.19298 18.2046 6.54576 17.5198 5.30383 16.3955Z" fill="black"/>
</svg>
