<svg width="20" height="21" viewBox="0 0 20 21" fill="none" xmlns="http://www.w3.org/2000/svg">
<path d="M10 8.20459C11.6569 8.20459 13 6.86144 13 5.20459C13 3.54774 11.6569 2.20459 10 2.20459C8.34315 2.20459 7 3.54774 7 5.20459C7 6.86144 8.34315 8.20459 10 8.20459Z" fill="black"/>
<path d="M3.46517 14.6981C3.27029 15.2062 3.44435 15.7756 3.8742 16.1092C5.56656 17.4226 7.69202 18.2046 10.0001 18.2046C12.3106 18.2046 14.438 17.421 16.1312 16.1052C16.5608 15.7713 16.7345 15.2017 16.5393 14.6938C15.5301 12.0681 12.9842 10.2046 10.0031 10.2046C7.02032 10.2046 4.47329 12.0702 3.46517 14.6981Z" fill="black"/>
</svg>
