<svg width="20" height="21" viewBox="0 0 20 21" fill="none" xmlns="http://www.w3.org/2000/svg">
<path d="M7 8.20459C8.65685 8.20459 10 6.86144 10 5.20459C10 3.54774 8.65685 2.20459 7 2.20459C5.34315 2.20459 4 3.54774 4 5.20459C4 6.86144 5.34315 8.20459 7 8.20459Z" fill="black"/>
<path d="M14.5 9.20459C15.8807 9.20459 17 8.0853 17 6.70459C17 5.32388 15.8807 4.20459 14.5 4.20459C13.1193 4.20459 12 5.32388 12 6.70459C12 8.0853 13.1193 9.20459 14.5 9.20459Z" fill="black"/>
<path d="M1.61528 16.6326C1.21798 16.3782 0.987847 15.9256 1.04605 15.4575C1.41416 12.4966 3.93944 10.2046 6.9999 10.2046C10.0604 10.2046 12.5856 12.496 12.9537 15.4568C13.012 15.9249 12.7818 16.3775 12.3845 16.6318C10.8302 17.6271 8.98243 18.2046 6.9999 18.2046C5.01737 18.2046 3.16959 17.6277 1.61528 16.6326Z" fill="black"/>
<path d="M14.5001 16.2046C14.4647 16.2046 14.4295 16.2043 14.3943 16.2039C14.4631 15.9071 14.4822 15.5931 14.4423 15.2717C14.2668 13.8608 13.7001 12.5716 12.854 11.5162C13.3646 11.3151 13.9208 11.2046 14.5028 11.2046C16.4426 11.2046 18.0956 12.4319 18.7279 14.1524C18.8638 14.5222 18.7045 14.9287 18.3671 15.1321C17.2379 15.8129 15.9147 16.2046 14.5001 16.2046Z" fill="black"/>
</svg>
