<svg width="20" height="21" viewBox="0 0 20 21" fill="none" xmlns="http://www.w3.org/2000/svg">
<path d="M10 5.20459C10 6.86144 8.65685 8.20459 7 8.20459C5.34315 8.20459 4 6.86144 4 5.20459C4 3.54774 5.34315 2.20459 7 2.20459C8.65685 2.20459 10 3.54774 10 5.20459Z" fill="black"/>
<path d="M1.61528 16.6326C1.21798 16.3782 0.987847 15.9256 1.04605 15.4575C1.41416 12.4966 3.93944 10.2046 6.9999 10.2046C10.0604 10.2046 12.5856 12.496 12.9537 15.4568C13.012 15.9249 12.7818 16.3775 12.3845 16.6318C10.8302 17.6271 8.98243 18.2046 6.9999 18.2046C5.01737 18.2046 3.16959 17.6277 1.61528 16.6326Z" fill="black"/>
<path d="M16.25 5.95459C16.25 5.54038 15.9142 5.20459 15.5 5.20459C15.0858 5.20459 14.75 5.54038 14.75 5.95459V7.95459H12.75C12.3358 7.95459 12 8.29038 12 8.70459C12 9.1188 12.3358 9.45459 12.75 9.45459H14.75V11.4546C14.75 11.8688 15.0858 12.2046 15.5 12.2046C15.9142 12.2046 16.25 11.8688 16.25 11.4546V9.45459H18.25C18.6642 9.45459 19 9.1188 19 8.70459C19 8.29038 18.6642 7.95459 18.25 7.95459H16.25V5.95459Z" fill="black"/>
</svg>
