<svg width="20" height="21" viewBox="0 0 20 21" fill="none" xmlns="http://www.w3.org/2000/svg">
<path d="M11 5.20459C11 6.86144 9.65685 8.20459 8 8.20459C6.34315 8.20459 5 6.86144 5 5.20459C5 3.54774 6.34315 2.20459 8 2.20459C9.65685 2.20459 11 3.54774 11 5.20459Z" fill="black"/>
<path d="M2.04605 15.4575C1.98785 15.9256 2.21798 16.3782 2.61528 16.6326C4.16959 17.6277 6.01737 18.2046 7.9999 18.2046C9.98243 18.2046 11.8302 17.6271 13.3845 16.6318C13.7818 16.3775 14.012 15.9249 13.9537 15.4568C13.5856 12.496 11.0604 10.2046 7.9999 10.2046C4.93944 10.2046 2.41416 12.4966 2.04605 15.4575Z" fill="black"/>
<path d="M12.75 7.95459C12.3358 7.95459 12 8.29038 12 8.70459C12 9.1188 12.3358 9.45459 12.75 9.45459H18.25C18.6642 9.45459 19 9.1188 19 8.70459C19 8.29038 18.6642 7.95459 18.25 7.95459H12.75Z" fill="black"/>
</svg>
