<svg width="20" height="21" viewBox="0 0 20 21" fill="none" xmlns="http://www.w3.org/2000/svg">
<path fill-rule="evenodd" clip-rule="evenodd" d="M18 10.2046C18 14.6229 14.4183 18.2046 10 18.2046C5.58172 18.2046 2 14.6229 2 10.2046C2 5.78631 5.58172 2.20459 10 2.20459C14.4183 2.20459 18 5.78631 18 10.2046ZM12.5 7.70459C12.5 9.0853 11.3807 10.2046 10 10.2046C8.61929 10.2046 7.5 9.0853 7.5 7.70459C7.5 6.32388 8.61929 5.20459 10 5.20459C11.3807 5.20459 12.5 6.32388 12.5 7.70459ZM10 12.2046C8.04133 12.2046 6.30187 13.1431 5.20679 14.595C6.39509 15.8916 8.1026 16.7046 10 16.7046C11.8974 16.7046 13.6049 15.8916 14.7932 14.595C13.6981 13.1431 11.9587 12.2046 10 12.2046Z" fill="black"/>
</svg>
