<svg width="20" height="21" viewBox="0 0 20 21" fill="none" xmlns="http://www.w3.org/2000/svg">
<path fill-rule="evenodd" clip-rule="evenodd" d="M15.212 2.28352C15.5825 2.09847 16.033 2.24887 16.218 2.61945C17.3587 4.90367 18 7.48027 18 10.2045C18 12.9288 17.3587 15.5054 16.218 17.7896C16.033 18.1602 15.5825 18.3106 15.212 18.1255C14.8414 17.9405 14.691 17.49 14.876 17.1194C15.9151 15.0386 16.5 12.691 16.5 10.2045C16.5 7.71806 15.9151 5.37038 14.876 3.28957C14.691 2.91899 14.8414 2.46856 15.212 2.28352ZM4.78803 2.28352C5.15861 2.46856 5.30901 2.91899 5.12397 3.28957C4.08491 5.37038 3.5 7.71806 3.5 10.2045C3.5 12.691 4.08491 15.0386 5.12397 17.1194C5.30901 17.49 5.15861 17.9405 4.78803 18.1255C4.41745 18.3106 3.96703 18.1602 3.78198 17.7896C2.64135 15.5054 2 12.9288 2 10.2045C2 7.48027 2.64135 4.90367 3.78198 2.61945C3.96703 2.24887 4.41745 2.09847 4.78803 2.28352ZM7.07277 5.83794C7.86037 5.31288 8.93143 5.63962 9.29184 6.51489L10.1483 8.59479L11.2942 6.8238C11.9758 5.77039 13.3873 5.47802 14.4313 6.174L14.666 6.33047C15.0107 6.56024 15.1038 7.02589 14.874 7.37054C14.6443 7.71518 14.1786 7.80831 13.834 7.57855L13.5993 7.42207C13.2513 7.19008 12.7808 7.28754 12.5536 7.63867L10.8431 10.2822L12.0952 13.323L12.834 12.8305C13.1786 12.6007 13.6443 12.6938 13.874 13.0385C14.1038 13.3831 14.0107 13.8488 13.666 14.0785L12.9272 14.5711C12.1396 15.0961 11.0686 14.7694 10.7082 13.8941L9.85173 11.8142L8.70579 13.5852C8.02418 14.6386 6.61265 14.931 5.56869 14.235L5.33397 14.0785C4.98933 13.8488 4.8962 13.3831 5.12596 13.0385C5.35573 12.6938 5.82138 12.6007 6.16603 12.8305L6.40074 12.9869C6.74873 13.2189 7.21923 13.1215 7.44644 12.7703L9.15693 10.1269L7.90482 7.08602L7.16603 7.57855C6.82138 7.80831 6.35573 7.71518 6.12596 7.37054C5.8962 7.02589 5.98933 6.56024 6.33397 6.33047L7.07277 5.83794Z" fill="black"/>
</svg>
