<svg width="20" height="21" viewBox="0 0 20 21" fill="none" xmlns="http://www.w3.org/2000/svg">
<path d="M3.25 4.20459C2.00736 4.20459 1 5.21195 1 6.45459V13.9546C1 15.1972 2.00736 16.2046 3.25 16.2046H10.75C11.9926 16.2046 13 15.1972 13 13.9546V6.45459C13 5.21195 11.9926 4.20459 10.75 4.20459H3.25Z" fill="black"/>
<path d="M19 4.95461C19 4.65127 18.8173 4.37779 18.537 4.2617C18.2568 4.14562 17.9342 4.20978 17.7197 4.42428L14.7197 7.42428C14.579 7.56493 14.5 7.7557 14.5 7.95461V12.4546C14.5 12.6535 14.579 12.8443 14.7197 12.9849L17.7197 15.9849C17.9342 16.1994 18.2568 16.2636 18.537 16.1475C18.8173 16.0314 19 15.758 19 15.4546V4.95461Z" fill="black"/>
</svg>
