<svg width="20" height="21" viewBox="0 0 20 21" fill="none" xmlns="http://www.w3.org/2000/svg">
<path d="M1 13.9546V7.38657L9.81802 16.2046H3.25C2.00736 16.2046 1 15.1972 1 13.9546Z" fill="black"/>
<path d="M13 6.45459V13.0226L4.18198 4.20459H10.75C11.9926 4.20459 13 5.21195 13 6.45459Z" fill="black"/>
<path d="M19 4.95461C19 4.65127 18.8173 4.37779 18.537 4.2617C18.2568 4.14562 17.9342 4.20978 17.7197 4.42428L14.7197 7.42428C14.579 7.56493 14.5 7.7557 14.5 7.95461V12.4546C14.5 12.6535 14.579 12.8443 14.7197 12.9849L17.7197 15.9849C17.9342 16.1994 18.2568 16.2636 18.537 16.1475C18.8173 16.0314 19 15.758 19 15.4546V4.95461Z" fill="black"/>
<path d="M2.28033 4.42426C1.98744 4.13137 1.51256 4.13137 1.21967 4.42426C0.926777 4.71715 0.926777 5.19203 1.21967 5.48492L11.7197 15.9849C12.0126 16.2778 12.4874 16.2778 12.7803 15.9849C13.0732 15.692 13.0732 15.2172 12.7803 14.9243L2.28033 4.42426Z" fill="black"/>
</svg>
