<svg width="20" height="21" viewBox="0 0 20 21" fill="none" xmlns="http://www.w3.org/2000/svg">
<path d="M4.25 2.20459C3.00736 2.20459 2 3.21195 2 4.45459V6.45459C2 6.8688 2.33579 7.20459 2.75 7.20459C3.16421 7.20459 3.5 6.8688 3.5 6.45459V4.45459C3.5 4.04038 3.83579 3.70459 4.25 3.70459H6.25C6.66421 3.70459 7 3.3688 7 2.95459C7 2.54038 6.66421 2.20459 6.25 2.20459H4.25Z" fill="black"/>
<path d="M13.75 2.20459C13.3358 2.20459 13 2.54038 13 2.95459C13 3.3688 13.3358 3.70459 13.75 3.70459H15.75C16.1642 3.70459 16.5 4.04038 16.5 4.45459V6.45459C16.5 6.8688 16.8358 7.20459 17.25 7.20459C17.6642 7.20459 18 6.8688 18 6.45459V4.45459C18 3.21195 16.9926 2.20459 15.75 2.20459H13.75Z" fill="black"/>
<path d="M3.5 13.9546C3.5 13.5404 3.16421 13.2046 2.75 13.2046C2.33579 13.2046 2 13.5404 2 13.9546V15.9546C2 17.1972 3.00736 18.2046 4.25 18.2046H6.25C6.66421 18.2046 7 17.8688 7 17.4546C7 17.0404 6.66421 16.7046 6.25 16.7046H4.25C3.83579 16.7046 3.5 16.3688 3.5 15.9546V13.9546Z" fill="black"/>
<path d="M18 13.9546C18 13.5404 17.6642 13.2046 17.25 13.2046C16.8358 13.2046 16.5 13.5404 16.5 13.9546V15.9546C16.5 16.3688 16.1642 16.7046 15.75 16.7046H13.75C13.3358 16.7046 13 17.0404 13 17.4546C13 17.8688 13.3358 18.2046 13.75 18.2046H15.75C16.9926 18.2046 18 17.1972 18 15.9546V13.9546Z" fill="black"/>
<path d="M7 10.2046C7 8.54774 8.34315 7.20459 10 7.20459C11.6569 7.20459 13 8.54774 13 10.2046C13 11.8614 11.6569 13.2046 10 13.2046C8.34315 13.2046 7 11.8614 7 10.2046Z" fill="black"/>
</svg>
