<svg width="20" height="21" viewBox="0 0 20 21" fill="none" xmlns="http://www.w3.org/2000/svg">
<path d="M1 4.45432C1.62675 3.98355 2.4058 3.70459 3.25 3.70459H16.75C17.5942 3.70459 18.3733 3.98355 19 4.45432C18.9999 3.2118 17.9926 2.20459 16.75 2.20459H3.25C2.00745 2.20459 1.00015 3.2118 1 4.45432Z" fill="black"/>
<path d="M1 7.45432C1.62675 6.98355 2.4058 6.70459 3.25 6.70459H16.75C17.5942 6.70459 18.3733 6.98355 19 7.45432C18.9999 6.2118 17.9926 5.20459 16.75 5.20459H3.25C2.00745 5.20459 1.00015 6.2118 1 7.45432Z" fill="black"/>
<path d="M7 8.20459C7.55228 8.20459 8 8.65231 8 9.20459C8 10.3092 8.89543 11.2046 10 11.2046C11.1046 11.2046 12 10.3092 12 9.20459C12 8.65231 12.4477 8.20459 13 8.20459H16.75C17.9926 8.20459 19 9.21195 19 10.4546V15.9546C19 17.1972 17.9926 18.2046 16.75 18.2046H3.25C2.00736 18.2046 1 17.1972 1 15.9546V10.4546C1 9.21195 2.00736 8.20459 3.25 8.20459H7Z" fill="black"/>
</svg>
