<svg width="20" height="21" viewBox="0 0 20 21" fill="none" xmlns="http://www.w3.org/2000/svg">
<path fill-rule="evenodd" clip-rule="evenodd" d="M0.675986 7.14576C3.03728 4.71575 6.34284 3.20459 10 3.20459C13.6572 3.20459 16.9628 4.71575 19.3241 7.14576C19.6098 7.43981 19.6064 7.90883 19.3165 8.19876L18.9629 8.55235C18.8209 8.69438 18.6278 8.7735 18.427 8.772C18.2261 8.7705 18.0343 8.6885 17.8944 8.54436C15.8944 6.48366 13.0973 5.20459 10 5.20459C6.90281 5.20459 4.10564 6.48366 2.10566 8.54436C1.96577 8.6885 1.77392 8.7705 1.57307 8.772C1.37222 8.7735 1.17916 8.69438 1.03713 8.55235L0.683537 8.19876C0.39361 7.90883 0.390247 7.43981 0.675986 7.14576ZM3.50123 9.97837C5.13848 8.26986 7.44548 7.20459 10 7.20459C12.5546 7.20459 14.8616 8.26986 16.4988 9.97837C16.7811 10.2729 16.7762 10.7391 16.4877 11.0276L16.134 11.3813C15.9913 11.524 15.797 11.6032 15.5952 11.6009C15.3933 11.5986 15.2009 11.515 15.0615 11.3691C13.786 10.0344 11.9906 9.20459 10 9.20459C8.00951 9.20459 6.21406 10.0344 4.93858 11.3691C4.79912 11.515 4.60672 11.5986 4.40487 11.6009C4.20302 11.6032 4.00877 11.524 3.86604 11.3813L3.5124 11.0276C3.22391 10.7391 3.21894 10.2729 3.50123 9.97837ZM6.32061 12.819C7.23335 11.8275 8.5445 11.2046 10 11.2046C11.4556 11.2046 12.7667 11.8275 13.6794 12.819C13.9518 13.1149 13.9423 13.5729 13.658 13.8573L13.3041 14.2112C13.1591 14.3562 12.9611 14.4355 12.7562 14.4307C12.5512 14.4259 12.3572 14.3374 12.2192 14.1858C11.6694 13.5819 10.8793 13.2046 10 13.2046C9.12075 13.2046 8.33066 13.5819 7.7809 14.1858C7.64289 14.3374 7.44884 14.4259 7.24388 14.4307C7.03893 14.4355 6.84094 14.3562 6.69598 14.2112L6.34208 13.8573C6.05771 13.5729 6.04824 13.1149 6.32061 12.819ZM9.11615 15.5707C9.34153 15.3453 9.65506 15.2046 10 15.2046C10.345 15.2046 10.6585 15.3453 10.8839 15.5707C11.1768 15.8636 11.1768 16.3385 10.8839 16.6314L10.5304 16.9849C10.2375 17.2778 9.76259 17.2778 9.4697 16.9849L9.11615 16.6314C8.82325 16.3385 8.82325 15.8636 9.11615 15.5707Z" fill="black"/>
</svg>
