<svg width="20" height="21" viewBox="0 0 20 21" fill="none" xmlns="http://www.w3.org/2000/svg">
<path fill-rule="evenodd" clip-rule="evenodd" d="M3.25 3.20459C2.00736 3.20459 1 4.21195 1 5.45459V14.9546C1 16.1972 2.00736 17.2046 3.25 17.2046H16.75C17.9926 17.2046 19 16.1972 19 14.9546V5.45459C19 4.21195 17.9926 3.20459 16.75 3.20459H3.25ZM2.5 9.20459V14.9546C2.5 15.3688 2.83579 15.7046 3.25 15.7046H16.75C17.1642 15.7046 17.5 15.3688 17.5 14.9546V9.20459H2.5ZM4 5.45459C3.58579 5.45459 3.25 5.79038 3.25 6.20459V6.21459C3.25 6.6288 3.58579 6.96459 4 6.96459H4.01C4.42421 6.96459 4.76 6.6288 4.76 6.21459V6.20459C4.76 5.79038 4.42421 5.45459 4.01 5.45459H4ZM6.25 6.20459C6.25 5.79038 6.58579 5.45459 7 5.45459H7.01C7.42421 5.45459 7.76 5.79038 7.76 6.20459V6.21459C7.76 6.6288 7.42421 6.96459 7.01 6.96459H7C6.58579 6.96459 6.25 6.6288 6.25 6.21459V6.20459ZM10 5.45459C9.58579 5.45459 9.25 5.79038 9.25 6.20459V6.21459C9.25 6.6288 9.58579 6.96459 10 6.96459H10.01C10.4242 6.96459 10.76 6.6288 10.76 6.21459V6.20459C10.76 5.79038 10.4242 5.45459 10.01 5.45459H10Z" fill="black"/>
</svg>
