<svg width="20" height="21" viewBox="0 0 20 21" fill="none" xmlns="http://www.w3.org/2000/svg">
<path fill-rule="evenodd" clip-rule="evenodd" d="M19 5.70459C19 8.18987 16.9853 10.2046 14.5 10.2046C14.4022 10.2046 14.3051 10.2015 14.2088 10.1953C13.3358 10.1396 12.4014 10.3229 11.8414 10.9949L5.81681 18.2244C5.29925 18.8455 4.53256 19.2046 3.7241 19.2046C2.21962 19.2046 1 17.985 1 16.4805C1 15.672 1.3591 14.9053 1.98017 14.3878L9.20974 8.36314C9.88173 7.80314 10.065 6.86877 10.0093 5.99581C10.0031 5.89953 10 5.80242 10 5.70459C10 3.21931 12.0147 1.20459 14.5 1.20459C14.9823 1.20459 15.4469 1.28047 15.8825 1.42095C16.2067 1.52551 16.2735 1.93131 16.0327 2.17219L13.3398 4.86501C13.2094 4.99547 13.1582 5.18862 13.2292 5.3589C13.5334 6.0881 14.1172 6.67154 14.8466 6.97533C15.0168 7.04622 15.2098 6.995 15.3402 6.86461L18.0325 4.17231C18.2734 3.93142 18.6792 3.99826 18.7838 4.3225C18.9242 4.75797 19 5.22242 19 5.70459ZM4 17.2046C4.55228 17.2046 5 16.7569 5 16.2046C5 15.6523 4.55228 15.2046 4 15.2046C3.44772 15.2046 3 15.6523 3 16.2046C3 16.7569 3.44772 17.2046 4 17.2046Z" fill="black"/>
</svg>
