<svg width="20" height="21" viewBox="0 0 20 21" fill="none" xmlns="http://www.w3.org/2000/svg">
<path fill-rule="evenodd" clip-rule="evenodd" d="M14.5 10.2046C16.9853 10.2046 19 8.18987 19 5.70459C19 5.22242 18.9242 4.75797 18.7838 4.3225C18.6792 3.99826 18.2734 3.93142 18.0325 4.17231L15.3402 6.86461C15.2098 6.995 15.0168 7.04622 14.8466 6.97533C14.1172 6.67154 13.5334 6.0881 13.2292 5.3589C13.1582 5.18862 13.2094 4.99547 13.3398 4.86501L16.0327 2.17219C16.2735 1.93131 16.2067 1.52551 15.8825 1.42095C15.4469 1.28047 14.9823 1.20459 14.5 1.20459C12.0147 1.20459 10 3.21931 10 5.70459C10 5.80242 10.0031 5.89953 10.0093 5.99581C10.065 6.86877 9.88174 7.80314 9.20974 8.36314L1.98017 14.3878C1.3591 14.9053 1 15.672 1 16.4805C1 17.985 2.21962 19.2046 3.7241 19.2046C4.53256 19.2046 5.29925 18.8455 5.81681 18.2244L11.8414 10.9949C12.4014 10.3229 13.3358 10.1396 14.2088 10.1953C14.3051 10.2015 14.4022 10.2046 14.5 10.2046ZM5 16.2046C5 16.7569 4.55228 17.2046 4 17.2046C3.44772 17.2046 3 16.7569 3 16.2046C3 15.6523 3.44772 15.2046 4 15.2046C4.55228 15.2046 5 15.6523 5 16.2046Z" fill="black"/>
<path d="M14.5 11.7046C14.6731 11.7046 14.8445 11.6973 15.0138 11.6829L18.7678 15.4369C19.7441 16.4132 19.7441 17.9961 18.7678 18.9724C17.7915 19.9487 16.2086 19.9487 15.2323 18.9724L10.8216 14.5617L12.9938 11.9551C13.0455 11.8931 13.1413 11.8177 13.3357 11.7598C13.5378 11.6997 13.805 11.6726 14.1132 11.6923C14.2413 11.7004 14.3702 11.7046 14.5 11.7046Z" fill="black"/>
<path d="M6.00003 4.79041L8.33056 7.12094C8.3027 7.16086 8.27496 7.18956 8.24946 7.21081L6.79994 8.41874L4.58582 6.20462H3.30905C3.11966 6.20462 2.94653 6.09762 2.86184 5.92823L1.1612 2.52696C1.06495 2.33446 1.10268 2.10198 1.25486 1.9498L1.74521 1.45945C1.89739 1.30727 2.12987 1.26954 2.32237 1.36579L5.72364 3.06643C5.89303 3.15112 6.00003 3.32425 6.00003 3.51364V4.79041Z" fill="black"/>
</svg>
