<svg width="20" height="21" viewBox="0 0 20 21" fill="none" xmlns="http://www.w3.org/2000/svg">
<path fill-rule="evenodd" clip-rule="evenodd" d="M10 18.2046C14.4183 18.2046 18 14.6229 18 10.2046C18 5.78631 14.4183 2.20459 10 2.20459C5.58172 2.20459 2 5.78631 2 10.2046C2 14.6229 5.58172 18.2046 10 18.2046ZM8.28033 7.42426C7.98744 7.13137 7.51256 7.13137 7.21967 7.42426C6.92678 7.71715 6.92678 8.19203 7.21967 8.48492L8.93934 10.2046L7.21967 11.9243C6.92678 12.2172 6.92678 12.692 7.21967 12.9849C7.51256 13.2778 7.98744 13.2778 8.28033 12.9849L10 11.2652L11.7197 12.9849C12.0126 13.2778 12.4874 13.2778 12.7803 12.9849C13.0732 12.692 13.0732 12.2172 12.7803 11.9243L11.0607 10.2046L12.7803 8.48492C13.0732 8.19203 13.0732 7.71715 12.7803 7.42426C12.4874 7.13137 12.0126 7.13137 11.7197 7.42426L10 9.14393L8.28033 7.42426Z" fill="black"/>
</svg>
