<svg width="20" height="21" viewBox="0 0 20 21" fill="none" xmlns="http://www.w3.org/2000/svg">
<path d="M6.28033 5.42426C5.98744 5.13137 5.51256 5.13137 5.21967 5.42426C4.92678 5.71715 4.92678 6.19203 5.21967 6.48492L8.93934 10.2046L5.21967 13.9243C4.92678 14.2172 4.92678 14.692 5.21967 14.9849C5.51256 15.2778 5.98744 15.2778 6.28033 14.9849L10 11.2652L13.7197 14.9849C14.0126 15.2778 14.4874 15.2778 14.7803 14.9849C15.0732 14.692 15.0732 14.2172 14.7803 13.9243L11.0607 10.2046L14.7803 6.48492C15.0732 6.19203 15.0732 5.71715 14.7803 5.42426C14.4874 5.13137 14.0126 5.13137 13.7197 5.42426L10 9.14393L6.28033 5.42426Z" fill="black"/>
</svg>
