<svg width="15" height="11" viewBox="0 0 15 11" fill="none" xmlns="http://www.w3.org/2000/svg">
<path d="M14.1588 4.30427C14.1897 3.40968 13.9941 2.52179 13.5901 1.72302C13.316 1.39527 12.9355 1.17409 12.5151 1.09802C10.776 0.940228 9.02979 0.875552 7.28383 0.904275C5.54423 0.874249 3.80427 0.936837 2.07133 1.09177C1.72872 1.1541 1.41165 1.3148 1.15883 1.55427C0.59633 2.07302 0.53383 2.96052 0.47133 3.71052C0.38065 5.059 0.38065 6.41205 0.47133 7.76052C0.489412 8.18265 0.552264 8.60167 0.65883 9.01052C0.73419 9.32619 0.886657 9.61824 1.10258 9.86052C1.35712 10.1127 1.68157 10.2825 2.03383 10.348C3.38128 10.5143 4.73897 10.5833 6.09633 10.5543C8.28383 10.5855 10.2026 10.5543 12.4713 10.3793C12.8322 10.3178 13.1658 10.1477 13.4276 9.89177C13.6026 9.71672 13.7333 9.50246 13.8088 9.26677C14.0323 8.58091 14.1421 7.86309 14.1338 7.14177C14.1588 6.79177 14.1588 4.67927 14.1588 4.30427ZM5.87133 7.51677V3.64802L9.57133 5.59177C8.53383 6.16677 7.16508 6.81677 5.87133 7.51677Z" fill="white"/>
</svg>
