<svg width="13" height="11" viewBox="0 0 13 11" fill="none" xmlns="http://www.w3.org/2000/svg">
<path d="M12.5342 1.86024C12.0644 2.06405 11.5676 2.19878 11.0592 2.26024C11.5955 1.93981 11.9975 1.43573 12.1904 0.841488C11.6864 1.14153 11.1347 1.35292 10.5592 1.46649C10.1745 1.04935 9.66228 0.771674 9.10281 0.677021C8.54334 0.582368 7.96827 0.676087 7.4678 0.943482C6.96733 1.21088 6.56976 1.63682 6.33745 2.15451C6.10515 2.6722 6.05124 3.25236 6.18418 3.80399C5.16507 3.75244 4.16821 3.48708 3.25834 3.02515C2.34847 2.56322 1.54596 1.91505 0.90293 1.12274C0.677391 1.51659 0.558879 1.96263 0.55918 2.41649C0.55838 2.83798 0.661815 3.25312 0.860277 3.62497C1.05874 3.99681 1.34607 4.31381 1.69668 4.54774C1.28917 4.53665 0.890358 4.4273 0.53418 4.22899V4.26024C0.537234 4.85079 0.744176 5.42217 1.12 5.87772C1.49583 6.33326 2.01746 6.64501 2.59668 6.76024C2.37371 6.82809 2.14223 6.86387 1.90918 6.86649C1.74786 6.8646 1.58694 6.84997 1.42793 6.82274C1.59287 7.33075 1.91207 7.7747 2.3411 8.09284C2.77013 8.41097 3.28766 8.58746 3.82168 8.59774C2.91993 9.30728 1.80661 9.69452 0.65918 9.69774C0.450264 9.69842 0.241514 9.6859 0.0341797 9.66024C1.2057 10.4166 2.57094 10.8182 3.96543 10.8165C4.92774 10.8265 5.88239 10.6446 6.77363 10.2815C7.66486 9.91845 8.47482 9.38142 9.15618 8.7018C9.83754 8.02218 10.3767 7.21361 10.742 6.3233C11.1074 5.433 11.2917 4.47882 11.2842 3.51649C11.2842 3.41024 11.2842 3.29774 11.2842 3.18524C11.7746 2.81949 12.1976 2.37113 12.5342 1.86024Z" fill="white"/>
</svg>
