<svg width="13" height="13" viewBox="0 0 13 13" fill="none" xmlns="http://www.w3.org/2000/svg">
<path d="M9.62168 2.64785C9.47334 2.64785 9.32834 2.69184 9.205 2.77425C9.08166 2.85666 8.98553 2.97379 8.92877 3.11084C8.872 3.24788 8.85715 3.39868 8.88609 3.54417C8.91503 3.68965 8.98646 3.82329 9.09135 3.92818C9.19624 4.03307 9.32988 4.1045 9.47536 4.13344C9.62085 4.16238 9.77165 4.14753 9.90869 4.09076C10.0457 4.034 10.1629 3.93787 10.2453 3.81453C10.3277 3.69119 10.3717 3.54619 10.3717 3.39785C10.3717 3.19894 10.2927 3.00817 10.152 2.86752C10.0114 2.72687 9.82059 2.64785 9.62168 2.64785ZM12.4967 4.16035C12.4845 3.64179 12.3874 3.12873 12.2092 2.6416C12.0503 2.22481 11.8029 1.8474 11.4842 1.53535C11.1747 1.21499 10.7964 0.969212 10.3779 0.816602C9.89209 0.632952 9.37846 0.533608 8.85918 0.522852C8.19668 0.485352 7.98418 0.485352 6.28418 0.485352C4.58418 0.485352 4.37168 0.485352 3.70918 0.522852C3.1899 0.533608 2.67627 0.632952 2.19043 0.816602C1.77273 0.970757 1.39476 1.21633 1.08418 1.53535C0.763821 1.84484 0.51804 2.22313 0.36543 2.6416C0.18178 3.12744 0.0824359 3.64107 0.0716796 4.16035C0.0341797 4.82285 0.0341797 5.03535 0.0341797 6.73535C0.0341797 8.43535 0.0341797 8.64785 0.0716796 9.31035C0.0824359 9.82963 0.18178 10.3433 0.36543 10.8291C0.51804 11.2476 0.763821 11.6259 1.08418 11.9354C1.39476 12.2544 1.77273 12.4999 2.19043 12.6541C2.67627 12.8377 3.1899 12.9371 3.70918 12.9479C4.37168 12.9854 4.58418 12.9854 6.28418 12.9854C7.98418 12.9854 8.19668 12.9854 8.85918 12.9479C9.37846 12.9371 9.89209 12.8377 10.3779 12.6541C10.7964 12.5015 11.1747 12.2557 11.4842 11.9354C11.8043 11.6245 12.0519 11.2467 12.2092 10.8291C12.3874 10.342 12.4845 9.82891 12.4967 9.31035C12.4967 8.64785 12.5342 8.43535 12.5342 6.73535C12.5342 5.03535 12.5342 4.82285 12.4967 4.16035ZM11.3717 9.23535C11.3671 9.63208 11.2953 10.0252 11.1592 10.3979C11.0594 10.6698 10.8991 10.9156 10.6904 11.1166C10.4877 11.3232 10.2424 11.4831 9.97168 11.5854C9.59899 11.7214 9.20591 11.7933 8.80918 11.7979C8.18418 11.8291 7.95293 11.8354 6.30918 11.8354C4.66543 11.8354 4.43418 11.8354 3.80918 11.7979C3.39724 11.8056 2.98705 11.7421 2.59668 11.6103C2.33779 11.5029 2.10378 11.3433 1.90918 11.1416C1.70173 10.9408 1.54346 10.6948 1.44668 10.4229C1.29409 10.0448 1.20946 9.64281 1.19668 9.23535C1.19668 8.61035 1.15918 8.3791 1.15918 6.73535C1.15918 5.0916 1.15918 4.86035 1.19668 4.23535C1.19948 3.82976 1.27352 3.42782 1.41543 3.04785C1.52546 2.78405 1.69435 2.54889 1.90918 2.36035C2.09906 2.14546 2.33373 1.97479 2.59668 1.86035C2.97765 1.72288 3.37918 1.65103 3.78418 1.64785C4.40918 1.64785 4.64043 1.61035 6.28418 1.61035C7.92793 1.61035 8.15918 1.61035 8.78418 1.64785C9.18091 1.6524 9.57399 1.72426 9.94668 1.86035C10.2307 1.96576 10.4856 2.13713 10.6904 2.36035C10.8952 2.55234 11.0553 2.78706 11.1592 3.04785C11.2981 3.42843 11.37 3.83021 11.3717 4.23535C11.4029 4.86035 11.4092 5.0916 11.4092 6.73535C11.4092 8.3791 11.4029 8.61035 11.3717 9.23535ZM6.28418 3.5291C5.65031 3.53034 5.03103 3.71943 4.50459 4.07249C3.97815 4.42554 3.56817 4.92672 3.32645 5.5127C3.08474 6.09867 3.02213 6.74314 3.14655 7.36468C3.27097 7.98622 3.57683 8.55694 4.02548 9.00471C4.47413 9.45249 5.04544 9.75724 5.66722 9.88044C6.289 10.0037 6.93335 9.93979 7.51885 9.69694C8.10435 9.45408 8.60473 9.04313 8.95676 8.516C9.30879 7.98887 9.49668 7.36922 9.49668 6.73535C9.49751 6.31354 9.41493 5.89573 9.2537 5.50595C9.09248 5.11617 8.85578 4.76211 8.55722 4.46413C8.25867 4.16616 7.90415 3.93015 7.51405 3.76968C7.12396 3.60921 6.70599 3.52745 6.28418 3.5291ZM6.28418 8.8166C5.87255 8.8166 5.47016 8.69454 5.1279 8.46585C4.78564 8.23716 4.51888 7.91211 4.36135 7.53181C4.20383 7.15151 4.16261 6.73304 4.24292 6.32932C4.32323 5.9256 4.52145 5.55475 4.81251 5.26369C5.10358 4.97262 5.47442 4.7744 5.87815 4.69409C6.28187 4.61379 6.70034 4.655 7.08064 4.81253C7.46094 4.97005 7.78598 5.23681 8.01468 5.57907C8.24337 5.92133 8.36543 6.32372 8.36543 6.73535C8.36543 7.00866 8.3116 7.2793 8.207 7.53181C8.10241 7.78432 7.94911 8.01375 7.75585 8.20702C7.56258 8.40028 7.33315 8.55358 7.08064 8.65818C6.82813 8.76277 6.55749 8.8166 6.28418 8.8166Z" fill="white"/>
</svg>
