<svg width="13" height="13" viewBox="0 0 13 13" fill="none" xmlns="http://www.w3.org/2000/svg">
<path d="M11.5775 0.485439H0.990039C0.871026 0.483786 0.752852 0.505594 0.642268 0.549616C0.531683 0.593639 0.430854 0.659014 0.345537 0.742009C0.260221 0.825004 0.19209 0.923992 0.145034 1.03332C0.0979781 1.14265 0.0729193 1.26018 0.0712891 1.37919V12.0917C0.0729193 12.2107 0.0979781 12.3282 0.145034 12.4376C0.19209 12.5469 0.260221 12.6459 0.345537 12.7289C0.430854 12.8119 0.531683 12.8772 0.642268 12.9213C0.752852 12.9653 0.871026 12.9871 0.990039 12.9854H11.5775C11.6966 12.9871 11.8147 12.9653 11.9253 12.9213C12.0359 12.8772 12.1367 12.8119 12.222 12.7289C12.3074 12.6459 12.3755 12.5469 12.4225 12.4376C12.4696 12.3282 12.4947 12.2107 12.4963 12.0917V1.37919C12.4947 1.26018 12.4696 1.14265 12.4225 1.03332C12.3755 0.923992 12.3074 0.825004 12.222 0.742009C12.1367 0.659014 12.0359 0.593639 11.9253 0.549616C11.8147 0.505594 11.6966 0.483786 11.5775 0.485439ZM3.84004 10.9479H1.96504V5.32294H3.84004V10.9479ZM2.90254 4.53544C2.64395 4.53544 2.39596 4.43272 2.21311 4.24987C2.03026 4.06702 1.92754 3.81903 1.92754 3.56044C1.92754 3.30185 2.03026 3.05386 2.21311 2.87101C2.39596 2.68816 2.64395 2.58544 2.90254 2.58544C3.03985 2.56987 3.1789 2.58347 3.31059 2.62537C3.44227 2.66726 3.56363 2.7365 3.6667 2.82854C3.76977 2.92058 3.85224 3.03336 3.90871 3.15949C3.96517 3.28562 3.99436 3.42225 3.99436 3.56044C3.99436 3.69863 3.96517 3.83526 3.90871 3.96139C3.85224 4.08751 3.76977 4.20029 3.6667 4.29234C3.56363 4.38438 3.44227 4.45362 3.31059 4.49551C3.1789 4.53741 3.03985 4.55101 2.90254 4.53544ZM10.6025 10.9479H8.72754V7.92919C8.72754 7.17294 8.45879 6.67919 7.77754 6.67919C7.5667 6.68073 7.36141 6.74686 7.18931 6.86867C7.01722 6.99048 6.88659 7.16211 6.81504 7.36044C6.76613 7.50734 6.74494 7.66205 6.75254 7.81669V10.9417H4.87754C4.87754 10.9417 4.87754 5.82919 4.87754 5.31669H6.75254V6.11044C6.92287 5.81488 7.17061 5.57139 7.46906 5.40619C7.76752 5.24099 8.10539 5.16035 8.44629 5.17294C9.69629 5.17294 10.6025 5.97919 10.6025 7.71044V10.9479Z" fill="white"/>
</svg>
