<svg width="139" height="36" viewBox="0 0 139 36" fill="none" xmlns="http://www.w3.org/2000/svg">
<path d="M121 0L125.041 12.4377H138.119L127.539 20.1246L131.58 32.5623L121 24.8754L110.42 32.5623L114.461 20.1246L103.881 12.4377H116.959L121 0Z" fill="#9FC733"/>
<path d="M2.27557 31V4.81818H12.7585C14.6847 4.81818 16.2912 5.10369 17.5781 5.67472C18.8651 6.24574 19.8324 7.03835 20.4801 8.05256C21.1278 9.05824 21.4517 10.2173 21.4517 11.5298C21.4517 12.5526 21.2472 13.4517 20.8381 14.2273C20.429 14.9943 19.8665 15.625 19.1506 16.1193C18.4432 16.6051 17.6335 16.9503 16.7216 17.1548V17.4105C17.7188 17.4531 18.652 17.7344 19.5213 18.2543C20.3991 18.7741 21.1108 19.5028 21.6562 20.4403C22.2017 21.3693 22.4744 22.4773 22.4744 23.7642C22.4744 25.1534 22.1293 26.3935 21.4389 27.4844C20.7571 28.5668 19.7472 29.4233 18.4091 30.054C17.071 30.6847 15.4219 31 13.4616 31H2.27557ZM7.81108 26.4744H12.3239C13.8665 26.4744 14.9915 26.1804 15.6989 25.5923C16.4063 24.9957 16.7599 24.2031 16.7599 23.2145C16.7599 22.4901 16.5852 21.8509 16.2358 21.2969C15.8864 20.7429 15.3878 20.3082 14.7401 19.9929C14.1009 19.6776 13.3381 19.5199 12.4517 19.5199H7.81108V26.4744ZM7.81108 15.7741H11.9148C12.6733 15.7741 13.3466 15.642 13.9347 15.3778C14.5313 15.1051 15 14.7216 15.3409 14.2273C15.6903 13.733 15.8651 13.1406 15.8651 12.4503C15.8651 11.5043 15.5284 10.7415 14.8551 10.1619C14.1903 9.58239 13.2443 9.29261 12.017 9.29261H7.81108V15.7741ZM30.5891 31H24.6573L33.6957 4.81818H40.8292L49.8548 31H43.9229L37.3647 10.8011H37.1602L30.5891 31ZM30.2184 20.7088H44.2298V25.0298H30.2184V20.7088ZM74.9052 4.81818V31H70.1239L58.7333 14.5213H58.5415V31H53.006V4.81818H57.864L69.1651 21.2841H69.3952V4.81818H74.9052ZM79.4787 31V4.81818H85.0142V16.3622H85.3594L94.7812 4.81818H101.416L91.7003 16.5412L101.531 31H94.9091L87.7372 20.2358L85.0142 23.5597V31H79.4787Z" fill="#0A142F"/>
</svg>
