<svg width="24" height="25" viewBox="0 0 24 25" fill="none" xmlns="http://www.w3.org/2000/svg">
<path d="M11.6998 3.00976C11.8912 2.92611 12.1089 2.92611 12.3003 3.00976C16.0192 4.63458 19.5437 6.62084 22.8295 8.92403C23.0673 9.0907 23.1875 9.37967 23.1381 9.66582C23.0887 9.95197 22.8785 10.1839 22.5986 10.2611C21.9137 10.4502 21.2347 10.6538 20.5618 10.8708C17.8307 11.7516 15.2018 12.8598 12.6972 14.1732L12.6939 14.175C12.5803 14.2345 12.467 14.2945 12.354 14.3549C12.1331 14.4729 11.8679 14.4729 11.6471 14.3549C11.533 14.2939 11.4186 14.2334 11.3039 14.1732C10.0655 13.5238 8.79658 12.9245 7.5 12.3781V12.1544C7.5 12.0231 7.56742 11.9065 7.67173 11.8433C9.17685 10.9315 10.7294 10.0901 12.3247 9.32383C12.6981 9.14448 12.8554 8.69642 12.6761 8.32304C12.4967 7.94967 12.0486 7.79237 11.6753 7.97171C10.036 8.75909 8.44086 9.62356 6.89449 10.5604C6.44111 10.8351 6.13632 11.2846 6.03607 11.7882C5.18115 11.4594 4.31499 11.1531 3.43829 10.8703C2.76546 10.6534 2.08644 10.4502 1.40154 10.2611C1.12162 10.1839 0.911461 9.95196 0.86204 9.66581C0.812619 9.37966 0.932824 9.09069 1.17061 8.92401C4.45645 6.62083 7.98097 4.63458 11.6998 3.00976Z" fill="black"/>
<path d="M13.0609 15.6779C15.4997 14.3748 18.0621 13.2731 20.7258 12.3951C20.8601 13.8099 20.9458 15.2387 20.9813 16.68C20.9889 16.9892 20.8059 17.2714 20.5205 17.3905C17.6693 18.5809 14.9574 20.0385 12.4159 21.7321C12.1641 21.9 11.836 21.9 11.5841 21.7321C9.04267 20.0385 6.33073 18.5809 3.4796 17.3905C3.19416 17.2714 3.01116 16.9892 3.01878 16.68C3.05429 15.2386 3.14001 13.8097 3.27427 12.3947C4.19527 12.6983 5.10415 13.0286 6 13.3847V14.6551C5.55165 14.9145 5.25 15.3993 5.25 15.9545C5.25 16.4498 5.49008 16.889 5.86022 17.1622C5.7707 17.5428 5.63822 17.9153 5.46277 18.2719C5.91546 18.4856 6.36428 18.7061 6.8091 18.9334C7.06243 18.4182 7.24612 17.8774 7.36014 17.3252C7.88449 17.0914 8.25 16.5656 8.25 15.9545C8.25 15.3993 7.94835 14.9145 7.5 14.6551V14.0104C8.6714 14.5222 9.81885 15.0787 10.9402 15.6779C11.6028 16.0319 12.3983 16.0319 13.0609 15.6779Z" fill="black"/>
<path d="M4.46222 19.6668C4.88136 19.2476 5.21502 18.7755 5.46277 18.2719C5.91546 18.4856 6.36428 18.7061 6.8091 18.9334C6.49055 19.5813 6.06164 20.1887 5.52288 20.7274C5.22999 21.0203 4.75512 21.0203 4.46222 20.7274C4.16933 20.4345 4.16933 19.9597 4.46222 19.6668Z" fill="black"/>
</svg>
