<svg width="24" height="25" viewBox="0 0 24 25" fill="none" xmlns="http://www.w3.org/2000/svg">
<path d="M18.75 12.9545L20.25 12.9545C20.6642 12.9545 21 12.6187 21 12.2045C21 11.7902 20.6642 11.4545 20.25 11.4545L18.75 11.4545C18.3358 11.4545 18 11.7903 18 12.2045C18 12.6187 18.3358 12.9545 18.75 12.9545Z" fill="black"/>
<path d="M12 6.20447C12 5.79025 12.3358 5.45447 12.75 5.45447L20.25 5.45448C20.6642 5.45448 21 5.79027 21 6.20448C21 6.6187 20.6642 6.95448 20.25 6.95448L12.75 6.95447C12.3358 6.95447 12 6.61868 12 6.20447Z" fill="black"/>
<path d="M12 18.2045C12 17.7903 12.3358 17.4545 12.75 17.4545L20.25 17.4545C20.6642 17.4545 21 17.7903 21 18.2045C21 18.6187 20.6642 18.9545 20.25 18.9545L12.75 18.9545C12.3358 18.9545 12 18.6187 12 18.2045Z" fill="black"/>
<path d="M3.75001 6.95448L5.25001 6.95447C5.66422 6.95446 6 6.61867 6 6.20446C6 5.79025 5.66421 5.45446 5.24999 5.45447L3.74999 5.45448C3.33578 5.45449 3 5.79028 3 6.20449C3 6.6187 3.33579 6.95449 3.75001 6.95448Z" fill="black"/>
<path d="M5.25001 18.9545L3.75001 18.9545C3.33579 18.9545 3 18.6187 3 18.2045C3 17.7903 3.33578 17.4545 3.74999 17.4545L5.24999 17.4545C5.66421 17.4545 6 17.7902 6 18.2045C6 18.6187 5.66422 18.9545 5.25001 18.9545Z" fill="black"/>
<path d="M3 12.2045C3 11.7903 3.33579 11.4545 3.75 11.4545H11.25C11.6642 11.4545 12 11.7903 12 12.2045C12 12.6187 11.6642 12.9545 11.25 12.9545H3.75C3.33579 12.9545 3 12.6187 3 12.2045Z" fill="black"/>
<path d="M9 3.95447C7.75736 3.95447 6.75 4.96183 6.75 6.20447C6.75 7.44711 7.75736 8.45447 9 8.45447C10.2426 8.45447 11.25 7.44711 11.25 6.20447C11.25 4.96183 10.2426 3.95447 9 3.95447Z" fill="black"/>
<path d="M12.75 12.2045C12.75 10.9618 13.7574 9.95447 15 9.95447C16.2426 9.95447 17.25 10.9618 17.25 12.2045C17.25 13.4471 16.2426 14.4545 15 14.4545C13.7574 14.4545 12.75 13.4471 12.75 12.2045Z" fill="black"/>
<path d="M9 15.9545C7.75736 15.9545 6.75 16.9618 6.75 18.2045C6.75 19.4471 7.75736 20.4545 9 20.4545C10.2426 20.4545 11.25 19.4471 11.25 18.2045C11.25 16.9618 10.2426 15.9545 9 15.9545Z" fill="black"/>
</svg>
