<svg width="24" height="25" viewBox="0 0 24 25" fill="none" xmlns="http://www.w3.org/2000/svg">
<path d="M6 12.2045C5.58579 12.2045 5.25 11.8687 5.25 11.4545L5.25002 3.95447C5.25002 3.54025 5.5858 3.20447 6.00002 3.20447C6.41423 3.20447 6.75002 3.54026 6.75002 3.95447L6.75 11.4545C6.75 11.8687 6.41421 12.2045 6 12.2045Z" fill="black"/>
<path d="M18 12.2045C17.5858 12.2045 17.25 11.8687 17.25 11.4545L17.25 3.95447C17.25 3.54025 17.5858 3.20447 18 3.20447C18.4142 3.20447 18.75 3.54026 18.75 3.95447L18.75 11.4545C18.75 11.8687 18.4142 12.2045 18 12.2045Z" fill="black"/>
<path d="M6.75001 20.4545L6.75 18.9545C6.75 18.5402 6.41421 18.2045 5.99999 18.2045C5.58578 18.2045 5.25 18.5403 5.25 18.9545L5.25001 20.4545C5.25002 20.8687 5.58581 21.2045 6.00002 21.2045C6.41424 21.2045 6.75002 20.8687 6.75001 20.4545Z" fill="black"/>
<path d="M18.75 18.9545L18.75 20.4545C18.75 20.8687 18.4142 21.2045 18 21.2045C17.5858 21.2045 17.25 20.8687 17.25 20.4545L17.25 18.9545C17.25 18.5403 17.5858 18.2045 18 18.2045C18.4142 18.2045 18.75 18.5402 18.75 18.9545Z" fill="black"/>
<path d="M12.75 5.45446L12.75 3.95446C12.75 3.54025 12.4142 3.20446 12 3.20447C11.5858 3.20447 11.25 3.54026 11.25 3.95448L11.25 5.45447C11.25 5.86869 11.5858 6.20447 12 6.20447C12.4142 6.20446 12.75 5.86867 12.75 5.45446Z" fill="black"/>
<path d="M12 21.2045C11.5858 21.2045 11.25 20.8687 11.25 20.4545V12.9545C11.25 12.5403 11.5858 12.2045 12 12.2045C12.4142 12.2045 12.75 12.5403 12.75 12.9545V20.4545C12.75 20.8687 12.4142 21.2045 12 21.2045Z" fill="black"/>
<path d="M3.75 15.2045C3.75 16.4471 4.75736 17.4545 6 17.4545C7.24264 17.4545 8.25 16.4471 8.25 15.2045C8.25 13.9618 7.24264 12.9545 6 12.9545C4.75736 12.9545 3.75 13.9618 3.75 15.2045Z" fill="black"/>
<path d="M12 11.4545C10.7574 11.4545 9.75 10.4471 9.75 9.20447C9.75 7.96183 10.7574 6.95447 12 6.95447C13.2426 6.95447 14.25 7.96183 14.25 9.20447C14.25 10.4471 13.2426 11.4545 12 11.4545Z" fill="black"/>
<path d="M15.75 15.2045C15.75 16.4471 16.7574 17.4545 18 17.4545C19.2426 17.4545 20.25 16.4471 20.25 15.2045C20.25 13.9618 19.2426 12.9545 18 12.9545C16.7574 12.9545 15.75 13.9618 15.75 15.2045Z" fill="black"/>
</svg>
