<svg width="24" height="25" viewBox="0 0 24 25" fill="none" xmlns="http://www.w3.org/2000/svg">
<path d="M3.375 3.20447C2.33947 3.20447 1.5 4.04393 1.5 5.07947V5.82947C1.5 6.865 2.33947 7.70447 3.375 7.70447H20.625C21.6605 7.70447 22.5 6.865 22.5 5.82947V5.07947C22.5 4.04393 21.6605 3.20447 20.625 3.20447H3.375Z" fill="black"/>
<path fill-rule="evenodd" clip-rule="evenodd" d="M3.08679 9.20447L3.62657 18.3806C3.71984 19.9663 5.03296 21.2045 6.62139 21.2045H17.3783C18.9667 21.2045 20.2799 19.9663 20.3731 18.3806L20.9129 9.20447H3.08679ZM9.21967 12.0491C9.51256 11.7562 9.98744 11.7562 10.2803 12.0491L12 13.7688L13.7197 12.0491C14.0126 11.7562 14.4874 11.7562 14.7803 12.0491C15.0732 12.342 15.0732 12.8169 14.7803 13.1098L13.0607 14.8295L14.7803 16.5491C15.0732 16.842 15.0732 17.3169 14.7803 17.6098C14.4874 17.9027 14.0126 17.9027 13.7197 17.6098L12 15.8901L10.2803 17.6098C9.98744 17.9027 9.51256 17.9027 9.21967 17.6098C8.92678 17.3169 8.92678 16.842 9.21967 16.5491L10.9393 14.8295L9.21967 13.1098C8.92678 12.8169 8.92678 12.342 9.21967 12.0491Z" fill="black"/>
</svg>
