<svg width="24" height="25" viewBox="0 0 24 25" fill="none" xmlns="http://www.w3.org/2000/svg">
<path d="M3.375 3.20447C2.33947 3.20447 1.5 4.04393 1.5 5.07947V5.82947C1.5 6.865 2.33947 7.70447 3.375 7.70447H20.625C21.6605 7.70447 22.5 6.865 22.5 5.82947V5.07947C22.5 4.04393 21.6605 3.20447 20.625 3.20447H3.375Z" fill="black"/>
<path fill-rule="evenodd" clip-rule="evenodd" d="M3.08679 9.20447L3.62657 18.3806C3.71984 19.9663 5.03296 21.2045 6.62139 21.2045H17.3783C18.9667 21.2045 20.2799 19.9663 20.3731 18.3806L20.9129 9.20447H3.08679ZM12 10.7045C12.4142 10.7045 12.75 11.0403 12.75 11.4545V16.3938L14.4697 14.6741C14.7626 14.3812 15.2374 14.3812 15.5303 14.6741C15.8232 14.967 15.8232 15.4419 15.5303 15.7348L12.5303 18.7348C12.2374 19.0277 11.7626 19.0277 11.4697 18.7348L8.46967 15.7348C8.17678 15.4419 8.17678 14.967 8.46967 14.6741C8.76256 14.3812 9.23744 14.3812 9.53033 14.6741L11.25 16.3938V11.4545C11.25 11.0403 11.5858 10.7045 12 10.7045Z" fill="black"/>
</svg>
