<svg width="24" height="25" viewBox="0 0 24 25" fill="none" xmlns="http://www.w3.org/2000/svg">
<path d="M3.375 3.20447C2.33947 3.20447 1.5 4.04393 1.5 5.07947V5.82947C1.5 6.865 2.33947 7.70447 3.375 7.70447H20.625C21.6605 7.70447 22.5 6.865 22.5 5.82947V5.07947C22.5 4.04393 21.6605 3.20447 20.625 3.20447H3.375Z" fill="black"/>
<path fill-rule="evenodd" clip-rule="evenodd" d="M3.08679 9.20447L3.62657 18.3806C3.71984 19.9663 5.03296 21.2045 6.62139 21.2045H17.3783C18.9667 21.2045 20.2799 19.9663 20.3731 18.3806L20.9129 9.20447H3.08679ZM9.24976 12.9545C9.24976 12.5403 9.58554 12.2045 9.99976 12.2045H13.9998C14.414 12.2045 14.7498 12.5403 14.7498 12.9545C14.7498 13.3687 14.414 13.7045 13.9998 13.7045H9.99976C9.58554 13.7045 9.24976 13.3687 9.24976 12.9545Z" fill="black"/>
</svg>
