<svg width="24" height="25" viewBox="0 0 24 25" fill="none" xmlns="http://www.w3.org/2000/svg">
<path fill-rule="evenodd" clip-rule="evenodd" d="M11.4697 2.67426C11.7626 2.38137 12.2374 2.38137 12.5303 2.67426L17.0303 7.17426C17.3232 7.46715 17.3232 7.94203 17.0303 8.23492C16.7374 8.52781 16.2626 8.52781 15.9697 8.23492L12.75 5.01525L12.75 16.7046C12.75 17.1188 12.4142 17.4546 12 17.4546C11.5858 17.4546 11.25 17.1188 11.25 16.7046L11.25 5.01525L8.03033 8.23492C7.73744 8.52781 7.26256 8.52781 6.96967 8.23492C6.67678 7.94203 6.67678 7.46715 6.96967 7.17426L11.4697 2.67426ZM3 15.9546C3.41421 15.9546 3.75 16.2904 3.75 16.7046V18.9546C3.75 19.783 4.42157 20.4546 5.25 20.4546H18.75C19.5784 20.4546 20.25 19.783 20.25 18.9546V16.7046C20.25 16.2904 20.5858 15.9546 21 15.9546C21.4142 15.9546 21.75 16.2904 21.75 16.7046V18.9546C21.75 20.6114 20.4069 21.9546 18.75 21.9546H5.25C3.59315 21.9546 2.25 20.6114 2.25 18.9546V16.7046C2.25 16.2904 2.58579 15.9546 3 15.9546Z" fill="black"/>
</svg>
