<svg width="24" height="25" viewBox="0 0 24 25" fill="none" xmlns="http://www.w3.org/2000/svg">
<path fill-rule="evenodd" clip-rule="evenodd" d="M12 2.45447C6.61522 2.45447 2.25 6.81969 2.25 12.2045C2.25 17.5892 6.61522 21.9545 12 21.9545C17.3848 21.9545 21.75 17.5892 21.75 12.2045C21.75 6.81969 17.3848 2.45447 12 2.45447ZM16.2803 12.7348C16.421 12.5941 16.5 12.4034 16.5 12.2045C16.5 12.0056 16.421 11.8148 16.2803 11.6741L13.2803 8.67414C12.9874 8.38124 12.5126 8.38124 12.2197 8.67414C11.9268 8.96703 11.9268 9.4419 12.2197 9.7348L13.9393 11.4545L8.25 11.4545C7.83579 11.4545 7.5 11.7903 7.5 12.2045C7.5 12.6187 7.83579 12.9545 8.25 12.9545L13.9393 12.9545L12.2197 14.6741C11.9268 14.967 11.9268 15.4419 12.2197 15.7348C12.5126 16.0277 12.9874 16.0277 13.2803 15.7348L16.2803 12.7348Z" fill="black"/>
</svg>
