<svg width="24" height="25" viewBox="0 0 24 25" fill="none" xmlns="http://www.w3.org/2000/svg">
<path fill-rule="evenodd" clip-rule="evenodd" d="M15.2194 6.47239C15.3679 6.08569 15.8017 5.89254 16.1884 6.04098L22.1297 8.32162C22.3154 8.39291 22.4651 8.53504 22.546 8.71676C22.627 8.89847 22.6324 9.10488 22.5611 9.29058L20.2804 15.2319C20.132 15.6186 19.6982 15.8117 19.3115 15.6633C18.9248 15.5148 18.7316 15.081 18.8801 14.6943L20.5118 10.4434L19.4253 10.9272C16.9721 12.0194 15.1036 13.8802 13.975 16.1007C13.8662 16.3149 13.6614 16.4639 13.4241 16.5016C13.1869 16.5393 12.946 16.4611 12.7761 16.2912L9 12.5151L2.78033 18.7348C2.48744 19.0277 2.01256 19.0277 1.71967 18.7348C1.42678 18.4419 1.42678 17.967 1.71967 17.6741L8.46967 10.9241C8.61032 10.7835 8.80109 10.7045 9 10.7045C9.19891 10.7045 9.38968 10.7835 9.53033 10.9241L13.1363 14.5301C14.4369 12.409 16.3711 10.6451 18.8152 9.55686L19.9017 9.07311L15.6508 7.44135C15.2641 7.29291 15.071 6.85909 15.2194 6.47239Z" fill="black"/>
</svg>
