<svg width="24" height="25" viewBox="0 0 24 25" fill="none" xmlns="http://www.w3.org/2000/svg">
<path fill-rule="evenodd" clip-rule="evenodd" d="M15 3.95459C12.1005 3.95459 9.75 6.3051 9.75 9.20459L9.75 19.3939L14.4697 14.6743C14.7626 14.3814 15.2374 14.3814 15.5303 14.6743C15.8232 14.9672 15.8232 15.442 15.5303 15.7349L9.53033 21.7349C9.38968 21.8756 9.19891 21.9546 9 21.9546C8.80109 21.9546 8.61032 21.8756 8.46967 21.7349L2.46967 15.7349C2.17678 15.442 2.17678 14.9672 2.46967 14.6743C2.76256 14.3814 3.23744 14.3814 3.53033 14.6743L8.25 19.3939V9.20459C8.25 5.47667 11.2721 2.45459 15 2.45459C18.7279 2.45459 21.75 5.47667 21.75 9.20459V12.2046C21.75 12.6188 21.4142 12.9546 21 12.9546C20.5858 12.9546 20.25 12.6188 20.25 12.2046V9.20459C20.25 6.3051 17.8995 3.95459 15 3.95459Z" fill="black"/>
</svg>
