<svg width="24" height="25" viewBox="0 0 24 25" fill="none" xmlns="http://www.w3.org/2000/svg">
<path fill-rule="evenodd" clip-rule="evenodd" d="M5.25 6.51513L5.25 15.9545C5.25 16.3687 4.91421 16.7045 4.5 16.7045C4.08579 16.7045 3.75 16.3687 3.75 15.9545L3.75 4.70447C3.75 4.50556 3.82902 4.31479 3.96967 4.17414C4.11032 4.03349 4.30109 3.95447 4.5 3.95447L15.75 3.95447C16.1642 3.95447 16.5 4.29025 16.5 4.70447C16.5 5.11868 16.1642 5.45447 15.75 5.45447L6.31066 5.45447L20.0303 19.1741C20.3232 19.467 20.3232 19.9419 20.0303 20.2348C19.7374 20.5277 19.2626 20.5277 18.9697 20.2348L5.25 6.51513Z" fill="black"/>
</svg>
