<svg width="24" height="25" viewBox="0 0 24 25" fill="none" xmlns="http://www.w3.org/2000/svg">
<path fill-rule="evenodd" clip-rule="evenodd" d="M8.25 3.95459L19.5 3.95459C19.6989 3.95459 19.8897 4.03361 20.0303 4.17426C20.171 4.31491 20.25 4.50568 20.25 4.70459V15.9546C20.25 16.3688 19.9142 16.7046 19.5 16.7046C19.0858 16.7046 18.75 16.3688 18.75 15.9546V6.51525L5.03033 20.2349C4.73744 20.5278 4.26256 20.5278 3.96967 20.2349C3.67678 19.942 3.67678 19.4672 3.96967 19.1743L17.6893 5.45459L8.25 5.45459C7.83579 5.45459 7.5 5.1188 7.5 4.70459C7.5 4.29038 7.83579 3.95459 8.25 3.95459Z" fill="black"/>
</svg>
