<svg width="24" height="25" viewBox="0 0 24 25" fill="none" xmlns="http://www.w3.org/2000/svg">
<path fill-rule="evenodd" clip-rule="evenodd" d="M12 2.45447C6.61522 2.45447 2.25 6.81969 2.25 12.2045C2.25 17.5892 6.61522 21.9545 12 21.9545C17.3848 21.9545 21.75 17.5892 21.75 12.2045C21.75 6.81969 17.3848 2.45447 12 2.45447ZM12.5303 7.92414C12.3897 7.78349 12.1989 7.70447 12 7.70447C11.8011 7.70447 11.6103 7.78349 11.4697 7.92414L8.46967 10.9241C8.17678 11.217 8.17678 11.6919 8.46967 11.9848C8.76256 12.2777 9.23744 12.2777 9.53033 11.9848L11.25 10.2651L11.25 15.9545C11.25 16.3687 11.5858 16.7045 12 16.7045C12.4142 16.7045 12.75 16.3687 12.75 15.9545L12.75 10.2651L14.4697 11.9848C14.7626 12.2777 15.2374 12.2777 15.5303 11.9848C15.8232 11.6919 15.8232 11.217 15.5303 10.9241L12.5303 7.92414Z" fill="black"/>
</svg>
