<svg width="24" height="25" viewBox="0 0 24 25" fill="none" xmlns="http://www.w3.org/2000/svg">
<g clip-path="url(#clip0_1_42)">
<path fill-rule="evenodd" clip-rule="evenodd" d="M9.75 6.95447H6.75C5.09315 6.95447 3.75 8.29761 3.75 9.95447V17.4545C3.75 19.1113 5.09315 20.4545 6.75 20.4545H14.25C15.9069 20.4545 17.25 19.1113 17.25 17.4545V9.95447C17.25 8.29761 15.9069 6.95447 14.25 6.95447H11.25L11.25 1.70447C11.25 1.29025 10.9142 0.954468 10.5 0.954468C10.0858 0.954468 9.75 1.29025 9.75 1.70447V6.95447ZM9.75 6.95447H11.25V12.6438L12.9697 10.9241C13.2626 10.6312 13.7374 10.6312 14.0303 10.9241C14.3232 11.217 14.3232 11.6919 14.0303 11.9848L11.0303 14.9848C10.7374 15.2777 10.2626 15.2777 9.96967 14.9848L6.96967 11.9848C6.67678 11.6919 6.67678 11.217 6.96967 10.9241C7.26256 10.6312 7.73744 10.6312 8.03033 10.9241L9.75 12.6438V6.95447Z" fill="black"/>
<path d="M7.15137 21.9545C7.67008 22.8512 8.6396 23.4545 9.75002 23.4545H17.25C18.9069 23.4545 20.25 22.1113 20.25 20.4545V12.9545C20.25 11.8441 19.6467 10.8745 18.75 10.3558V17.4545C18.75 19.9398 16.7353 21.9545 14.25 21.9545H7.15137Z" fill="black"/>
</g>
<defs>
<clipPath id="clip0_1_42">
<rect width="24" height="24" fill="white" transform="translate(0 0.204468)"/>
</clipPath>
</defs>
</svg>
