<svg width="24" height="25" viewBox="0 0 24 25" fill="none" xmlns="http://www.w3.org/2000/svg">
<path fill-rule="evenodd" clip-rule="evenodd" d="M15 3.95459C15 3.54038 15.3358 3.20459 15.75 3.20459L20.25 3.20459C20.6642 3.20459 21 3.54038 21 3.95459V8.45459C21 8.8688 20.6642 9.20459 20.25 9.20459C19.8358 9.20459 19.5 8.8688 19.5 8.45459V5.76525L15.5303 9.73492C15.2374 10.0278 14.7626 10.0278 14.4697 9.73492C14.1768 9.44203 14.1768 8.96715 14.4697 8.67426L18.4393 4.70459H15.75C15.3358 4.70459 15 4.3688 15 3.95459ZM3 3.95459C3 3.54038 3.33579 3.20459 3.75 3.20459H8.25C8.66421 3.20459 9 3.54038 9 3.95459C9 4.3688 8.66421 4.70459 8.25 4.70459H5.56066L9.53033 8.67426C9.82322 8.96715 9.82322 9.44203 9.53033 9.73492C9.23744 10.0278 8.76256 10.0278 8.46967 9.73492L4.5 5.76525V8.45459C4.5 8.8688 4.16421 9.20459 3.75 9.20459C3.33579 9.20459 3 8.8688 3 8.45459V3.95459ZM14.4697 15.7349C14.1768 15.442 14.1768 14.9672 14.4697 14.6743C14.7626 14.3814 15.2374 14.3814 15.5303 14.6743L19.5 18.6439V15.9546C19.5 15.5404 19.8358 15.2046 20.25 15.2046C20.6642 15.2046 21 15.5404 21 15.9546V20.4546C21 20.8688 20.6642 21.2046 20.25 21.2046H15.75C15.3358 21.2046 15 20.8688 15 20.4546C15 20.0404 15.3358 19.7046 15.75 19.7046H18.4393L14.4697 15.7349ZM9.53033 14.6743C9.82322 14.9672 9.82322 15.442 9.53033 15.7349L5.56066 19.7046H8.25C8.66421 19.7046 9 20.0404 9 20.4546C9 20.8688 8.66421 21.2046 8.25 21.2046H3.75C3.33579 21.2046 3 20.8688 3 20.4546V15.9546C3 15.5404 3.33579 15.2046 3.75 15.2046C4.16421 15.2046 4.5 15.5404 4.5 15.9546V18.6439L8.46967 14.6743C8.76256 14.3814 9.23744 14.3814 9.53033 14.6743Z" fill="black"/>
</svg>
