<svg width="24" height="25" viewBox="0 0 24 25" fill="none" xmlns="http://www.w3.org/2000/svg">
<path fill-rule="evenodd" clip-rule="evenodd" d="M12 2.45447C6.61522 2.45447 2.25 6.81969 2.25 12.2045C2.25 17.5892 6.61522 21.9545 12 21.9545C17.3848 21.9545 21.75 17.5892 21.75 12.2045C21.75 6.81969 17.3848 2.45447 12 2.45447ZM11.4697 16.4848C11.6103 16.6254 11.8011 16.7045 12 16.7045C12.1989 16.7045 12.3897 16.6255 12.5303 16.4848L15.5303 13.4848C15.8232 13.1919 15.8232 12.717 15.5303 12.4241C15.2374 12.1312 14.7626 12.1312 14.4697 12.4241L12.75 14.1438L12.75 8.45447C12.75 8.04025 12.4142 7.70447 12 7.70447C11.5858 7.70447 11.25 8.04025 11.25 8.45447L11.25 14.1438L9.53033 12.4241C9.23744 12.1312 8.76256 12.1312 8.46967 12.4241C8.17678 12.717 8.17678 13.1919 8.46967 13.4848L11.4697 16.4848Z" fill="black"/>
</svg>
