<svg width="24" height="25" viewBox="0 0 24 25" fill="none" xmlns="http://www.w3.org/2000/svg">
<path d="M12 1.70447C12.4142 1.70447 12.75 2.04025 12.75 2.45447L12.75 7.70447H11.25V2.45447C11.25 2.04025 11.5858 1.70447 12 1.70447Z" fill="black"/>
<path d="M11.25 7.70447L11.25 13.3938L9.53033 11.6741C9.23744 11.3812 8.76256 11.3812 8.46967 11.6741C8.17678 11.967 8.17678 12.4419 8.46967 12.7348L11.4697 15.7348C11.6103 15.8755 11.8011 15.9545 12 15.9545C12.1989 15.9545 12.3897 15.8755 12.5303 15.7348L15.5303 12.7348C15.8232 12.4419 15.8232 11.967 15.5303 11.6741C15.2374 11.3812 14.7626 11.3812 14.4697 11.6741L12.75 13.3938V7.70447H16.5C18.1569 7.70447 19.5 9.04761 19.5 10.7045V19.7045C19.5 21.3613 18.1569 22.7045 16.5 22.7045H7.5C5.84315 22.7045 4.5 21.3613 4.5 19.7045V10.7045C4.5 9.04761 5.84315 7.70447 7.5 7.70447H11.25Z" fill="black"/>
</svg>
