<svg width="24" height="25" viewBox="0 0 24 25" fill="none" xmlns="http://www.w3.org/2000/svg">
<path fill-rule="evenodd" clip-rule="evenodd" d="M12 2.45447C6.61522 2.45447 2.25 6.81969 2.25 12.2045C2.25 17.5892 6.61522 21.9545 12 21.9545C17.3848 21.9545 21.75 17.5892 21.75 12.2045C21.75 6.81969 17.3848 2.45447 12 2.45447ZM7.71967 11.6741C7.57902 11.8148 7.5 12.0056 7.5 12.2045C7.5 12.4034 7.57902 12.5941 7.71967 12.7348L10.7197 15.7348C11.0126 16.0277 11.4874 16.0277 11.7803 15.7348C12.0732 15.4419 12.0732 14.967 11.7803 14.6741L10.0607 12.9545H15.75C16.1642 12.9545 16.5 12.6187 16.5 12.2045C16.5 11.7903 16.1642 11.4545 15.75 11.4545L10.0607 11.4545L11.7803 9.7348C12.0732 9.44191 12.0732 8.96703 11.7803 8.67414C11.4874 8.38124 11.0126 8.38124 10.7197 8.67414L7.71967 11.6741Z" fill="black"/>
</svg>
