<svg width="24" height="25" viewBox="0 0 24 25" fill="none" xmlns="http://www.w3.org/2000/svg">
<path d="M11.4697 1.92414C11.7626 1.63124 12.2374 1.63124 12.5303 1.92414L15.5303 4.92414C15.8232 5.21703 15.8232 5.69191 15.5303 5.9848C15.2374 6.27769 14.7626 6.27769 14.4697 5.9848L12.75 4.26513L12.75 7.70447H11.25V4.26513L9.53033 5.9848C9.23744 6.27769 8.76256 6.27769 8.46967 5.9848C8.17678 5.6919 8.17678 5.21703 8.46967 4.92414L11.4697 1.92414Z" fill="black"/>
<path d="M11.25 7.70447L11.25 15.2045C11.25 15.6187 11.5858 15.9545 12 15.9545C12.4142 15.9545 12.75 15.6187 12.75 15.2045V7.70447H16.5C18.1569 7.70447 19.5 9.04761 19.5 10.7045V19.7045C19.5 21.3613 18.1569 22.7045 16.5 22.7045H7.5C5.84315 22.7045 4.5 21.3613 4.5 19.7045V10.7045C4.5 9.04761 5.84315 7.70447 7.5 7.70447H11.25Z" fill="black"/>
</svg>
