<svg width="24" height="25" viewBox="0 0 24 25" fill="none" xmlns="http://www.w3.org/2000/svg">
<g clip-path="url(#clip0_1_94)">
<path d="M9.96967 1.17414C10.2626 0.881244 10.7374 0.881244 11.0303 1.17414L14.0303 4.17414C14.3232 4.46703 14.3232 4.9419 14.0303 5.2348C13.7374 5.52769 13.2626 5.52769 12.9697 5.2348L11.25 3.51513V6.95447H9.75V3.51513L8.03033 5.2348C7.73744 5.52769 7.26256 5.52769 6.96967 5.2348C6.67678 4.9419 6.67678 4.46703 6.96967 4.17414L9.96967 1.17414Z" fill="black"/>
<path d="M9.75 6.95447V12.9545C9.75 13.3687 10.0858 13.7045 10.5 13.7045C10.9142 13.7045 11.25 13.3687 11.25 12.9545V6.95447H14.25C15.9069 6.95447 17.25 8.29761 17.25 9.95447V17.4545C17.25 19.1113 15.9069 20.4545 14.25 20.4545H6.75C5.09315 20.4545 3.75 19.1113 3.75 17.4545V9.95447C3.75 8.29761 5.09315 6.95447 6.75 6.95447H9.75Z" fill="black"/>
<path d="M7.15137 21.9545C7.67008 22.8512 8.6396 23.4545 9.75002 23.4545H17.25C18.9069 23.4545 20.25 22.1113 20.25 20.4545V12.9545C20.25 11.8441 19.6467 10.8745 18.75 10.3558V17.4545C18.75 19.9398 16.7353 21.9545 14.25 21.9545H7.15137Z" fill="black"/>
</g>
<defs>
<clipPath id="clip0_1_94">
<rect width="24" height="24" fill="white" transform="translate(0 0.204468)"/>
</clipPath>
</defs>
</svg>
