<svg width="24" height="25" viewBox="0 0 24 25" fill="none" xmlns="http://www.w3.org/2000/svg">
<path fill-rule="evenodd" clip-rule="evenodd" d="M15.9697 2.67426C16.2626 2.38137 16.7374 2.38137 17.0303 2.67426L21.5303 7.17426C21.671 7.31491 21.75 7.50568 21.75 7.70459C21.75 7.9035 21.671 8.09427 21.5303 8.23492L17.0303 12.7349C16.7374 13.0278 16.2626 13.0278 15.9697 12.7349C15.6768 12.442 15.6768 11.9672 15.9697 11.6743L19.1893 8.45459L7.5 8.45459C7.08579 8.45459 6.75 8.1188 6.75 7.70459C6.75 7.29038 7.08579 6.95459 7.5 6.95459L19.1893 6.95459L15.9697 3.73492C15.6768 3.44203 15.6768 2.96715 15.9697 2.67426ZM8.03033 11.6743C8.32322 11.9672 8.32322 12.442 8.03033 12.7349L4.81066 15.9546H16.5C16.9142 15.9546 17.25 16.2904 17.25 16.7046C17.25 17.1188 16.9142 17.4546 16.5 17.4546H4.81066L8.03033 20.6743C8.32322 20.9672 8.32322 21.442 8.03033 21.7349C7.73744 22.0278 7.26256 22.0278 6.96967 21.7349L2.46967 17.2349C2.17678 16.942 2.17678 16.4672 2.46967 16.1743L6.96967 11.6743C7.26256 11.3814 7.73744 11.3814 8.03033 11.6743Z" fill="black"/>
</svg>
