<svg width="24" height="25" viewBox="0 0 24 25" fill="none" xmlns="http://www.w3.org/2000/svg">
<path fill-rule="evenodd" clip-rule="evenodd" d="M12 5.45447C13.2131 5.45447 14.4153 5.50017 15.6052 5.58992C17.2196 5.7117 18.4928 6.98484 18.6146 8.59928C18.6586 9.18274 18.692 9.76918 18.7146 10.3584L17.0303 8.67414C16.7374 8.38124 16.2626 8.38124 15.9697 8.67414C15.6768 8.96703 15.6768 9.4419 15.9697 9.7348L18.9697 12.7348C19.2626 13.0277 19.7374 13.0277 20.0303 12.7348L23.0303 9.7348C23.3232 9.4419 23.3232 8.96703 23.0303 8.67414C22.7374 8.38124 22.2626 8.38124 21.9697 8.67414L20.2181 10.4257C20.1948 9.77598 20.1588 9.12949 20.1103 8.48646C19.9327 6.13258 18.0719 4.27172 15.718 4.09417C14.4907 4.00159 13.2508 3.95447 12 3.95447C10.7492 3.95447 9.50933 4.00159 8.28199 4.09417C5.92812 4.27172 4.06725 6.13258 3.8897 8.48646C3.87284 8.70999 3.85748 8.93394 3.84365 9.15831C3.81815 9.57174 4.13264 9.92755 4.54606 9.95305C4.95949 9.97854 5.31531 9.66406 5.3408 9.25063C5.35422 9.03311 5.3691 8.81599 5.38545 8.59928C5.50723 6.98485 6.78038 5.7117 8.39481 5.58992C9.58465 5.50017 10.7869 5.45447 12 5.45447ZM5.03033 11.6741C4.73744 11.3812 4.26256 11.3812 3.96967 11.6741L0.96967 14.6741C0.676777 14.967 0.676777 15.4419 0.96967 15.7348C1.26256 16.0277 1.73744 16.0277 2.03033 15.7348L3.78186 13.9833C3.80517 14.633 3.84119 15.2794 3.8897 15.9225C4.06725 18.2764 5.92812 20.1372 8.28199 20.3148C9.50933 20.4073 10.7492 20.4545 12 20.4545C13.2508 20.4545 14.4907 20.4073 15.718 20.3148C18.0719 20.1372 19.9327 18.2764 20.1103 15.9225C20.1272 15.6989 20.1425 15.475 20.1564 15.2506C20.1818 14.8372 19.8674 14.4814 19.4539 14.4559C19.0405 14.4304 18.6847 14.7449 18.6592 15.1583C18.6458 15.3758 18.6309 15.5929 18.6146 15.8097C18.4928 17.4241 17.2196 18.6972 15.6052 18.819C14.4153 18.9088 13.2131 18.9545 12 18.9545C10.7869 18.9545 9.58465 18.9088 8.39481 18.819C6.78038 18.6972 5.50723 17.4241 5.38545 15.8097C5.34144 15.2262 5.30802 14.6398 5.28539 14.0505L6.96967 15.7348C7.26256 16.0277 7.73744 16.0277 8.03033 15.7348C8.32322 15.4419 8.32322 14.967 8.03033 14.6741L5.03033 11.6741Z" fill="black"/>
</svg>
