<svg width="24" height="25" viewBox="0 0 24 25" fill="none" xmlns="http://www.w3.org/2000/svg">
<path fill-rule="evenodd" clip-rule="evenodd" d="M15.75 2.45447L21 2.45447C21.1989 2.45447 21.3897 2.53349 21.5303 2.67414C21.671 2.81479 21.75 3.00556 21.75 3.20447V8.45447C21.75 8.86868 21.4142 9.20447 21 9.20447C20.5858 9.20447 20.25 8.86868 20.25 8.45447V5.01513L8.03033 17.2348C7.73744 17.5277 7.26256 17.5277 6.96967 17.2348C6.67678 16.9419 6.67678 16.467 6.96967 16.1741L19.1893 3.95447L15.75 3.95447C15.3358 3.95447 15 3.61868 15 3.20447C15 2.79025 15.3358 2.45447 15.75 2.45447ZM5.25 6.95447C4.42157 6.95447 3.75 7.62604 3.75 8.45447V18.9545C3.75 19.7829 4.42157 20.4545 5.25 20.4545H15.75C16.5784 20.4545 17.25 19.7829 17.25 18.9545V10.7045C17.25 10.2903 17.5858 9.95447 18 9.95447C18.4142 9.95447 18.75 10.2903 18.75 10.7045V18.9545C18.75 20.6113 17.4069 21.9545 15.75 21.9545H5.25C3.59315 21.9545 2.25 20.6113 2.25 18.9545V8.45447C2.25 6.79761 3.59315 5.45447 5.25 5.45447H13.5C13.9142 5.45447 14.25 5.79026 14.25 6.20447C14.25 6.61868 13.9142 6.95447 13.5 6.95447H5.25Z" fill="black"/>
</svg>
