<svg width="24" height="25" viewBox="0 0 24 25" fill="none" xmlns="http://www.w3.org/2000/svg">
<path fill-rule="evenodd" clip-rule="evenodd" d="M12 2.45447C12.4142 2.45447 12.75 2.79025 12.75 3.20447V14.8938L15.9697 11.6741C16.2626 11.3812 16.7374 11.3812 17.0303 11.6741C17.3232 11.967 17.3232 12.4419 17.0303 12.7348L12.5303 17.2348C12.2374 17.5277 11.7626 17.5277 11.4697 17.2348L6.96967 12.7348C6.67678 12.4419 6.67678 11.967 6.96967 11.6741C7.26256 11.3812 7.73744 11.3812 8.03033 11.6741L11.25 14.8938V3.20447C11.25 2.79025 11.5858 2.45447 12 2.45447ZM3 15.9545C3.41421 15.9545 3.75 16.2903 3.75 16.7045V18.9545C3.75 19.7829 4.42157 20.4545 5.25 20.4545H18.75C19.5784 20.4545 20.25 19.7829 20.25 18.9545V16.7045C20.25 16.2903 20.5858 15.9545 21 15.9545C21.4142 15.9545 21.75 16.2903 21.75 16.7045V18.9545C21.75 20.6113 20.4069 21.9545 18.75 21.9545H5.25C3.59315 21.9545 2.25 20.6113 2.25 18.9545V16.7045C2.25 16.2903 2.58579 15.9545 3 15.9545Z" fill="black"/>
</svg>
