<svg width="24" height="25" viewBox="0 0 24 25" fill="none" xmlns="http://www.w3.org/2000/svg">
<path fill-rule="evenodd" clip-rule="evenodd" d="M9.53033 2.67426C9.82322 2.96715 9.82322 3.44203 9.53033 3.73492L4.81066 8.45459H15C18.7279 8.45459 21.75 11.4767 21.75 15.2046C21.75 18.9325 18.7279 21.9546 15 21.9546H12C11.5858 21.9546 11.25 21.6188 11.25 21.2046C11.25 20.7904 11.5858 20.4546 12 20.4546H15C17.8995 20.4546 20.25 18.1041 20.25 15.2046C20.25 12.3051 17.8995 9.95459 15 9.95459H4.81066L9.53033 14.6743C9.82322 14.9672 9.82322 15.442 9.53033 15.7349C9.23744 16.0278 8.76256 16.0278 8.46967 15.7349L2.46967 9.73492C2.17678 9.44203 2.17678 8.96715 2.46967 8.67426L8.46967 2.67426C8.76256 2.38137 9.23744 2.38137 9.53033 2.67426Z" fill="black"/>
</svg>
