<svg width="24" height="25" viewBox="0 0 24 25" fill="none" xmlns="http://www.w3.org/2000/svg">
<path fill-rule="evenodd" clip-rule="evenodd" d="M4.75518 10.2634C5.82724 6.26237 9.93977 3.888 13.9408 4.96006C15.2618 5.31402 16.4036 5.9982 17.3034 6.89975L19.2065 8.80282H16.0228C15.6085 8.80282 15.2728 9.1386 15.2728 9.55282C15.2728 9.96703 15.6085 10.3028 16.0228 10.3028H21.0154C21.2143 10.3028 21.4051 10.2238 21.5457 10.0831C21.6864 9.94243 21.7654 9.75164 21.7654 9.55271V4.56021C21.7654 4.146 21.4296 3.81021 21.0154 3.81021C20.6011 3.81021 20.2654 4.146 20.2654 4.56021V7.74038L18.3651 5.84008C17.2839 4.757 15.9114 3.93517 14.329 3.51117C9.5278 2.2247 4.59277 5.07394 3.30629 9.87513C3.19908 10.2752 3.43652 10.6865 3.83662 10.7937C4.23672 10.9009 4.64797 10.6635 4.75518 10.2634ZM20.1626 13.6153C19.7625 13.5081 19.3513 13.7455 19.2441 14.1456C18.172 18.1466 14.0595 20.521 10.0585 19.4489C8.7375 19.095 7.59571 18.4108 6.69586 17.5093L4.79397 15.6062H7.97678C8.39099 15.6062 8.72678 15.2704 8.72678 14.8562C8.72678 14.4419 8.39099 14.1062 7.97678 14.1062L2.98414 14.1062C2.56993 14.1062 2.23414 14.4419 2.23414 14.8562V19.8488C2.23414 20.263 2.56993 20.5988 2.98414 20.5988C3.39835 20.5988 3.73414 20.263 3.73414 19.8488V16.6676L5.63421 18.569C6.7154 19.6522 8.08772 20.4738 9.67025 20.8978C14.4714 22.1843 19.4065 19.3351 20.693 14.5339C20.8002 14.1338 20.5627 13.7225 20.1626 13.6153Z" fill="black"/>
</svg>
