<svg width="24" height="25" viewBox="0 0 24 25" fill="none" xmlns="http://www.w3.org/2000/svg">
<path fill-rule="evenodd" clip-rule="evenodd" d="M14.4697 2.67426C14.7626 2.38137 15.2374 2.38137 15.5303 2.67426L21.5303 8.67426C21.8232 8.96715 21.8232 9.44203 21.5303 9.73492L15.5303 15.7349C15.2374 16.0278 14.7626 16.0278 14.4697 15.7349C14.1768 15.442 14.1768 14.9672 14.4697 14.6743L19.1893 9.95459H9C6.10051 9.95459 3.75 12.3051 3.75 15.2046C3.75 18.1041 6.10051 20.4546 9 20.4546H12C12.4142 20.4546 12.75 20.7904 12.75 21.2046C12.75 21.6188 12.4142 21.9546 12 21.9546H9C5.27208 21.9546 2.25 18.9325 2.25 15.2046C2.25 11.4767 5.27208 8.45459 9 8.45459H19.1893L14.4697 3.73492C14.1768 3.44203 14.1768 2.96715 14.4697 2.67426Z" fill="black"/>
</svg>
