<svg width="24" height="25" viewBox="0 0 24 25" fill="none" xmlns="http://www.w3.org/2000/svg">
<path fill-rule="evenodd" clip-rule="evenodd" d="M7.5 3.95447C6.67157 3.95447 6 4.62604 6 5.45447L6 18.9545C6 19.7829 6.67157 20.4545 7.5 20.4545H13.5C14.3284 20.4545 15 19.7829 15 18.9545V15.2045C15 14.7903 15.3358 14.4545 15.75 14.4545C16.1642 14.4545 16.5 14.7903 16.5 15.2045V18.9545C16.5 20.6113 15.1569 21.9545 13.5 21.9545H7.5C5.84315 21.9545 4.5 20.6113 4.5 18.9545L4.5 5.45447C4.5 3.79761 5.84315 2.45447 7.5 2.45447L13.5 2.45447C15.1569 2.45447 16.5 3.79761 16.5 5.45447V9.20447C16.5 9.61868 16.1642 9.95447 15.75 9.95447C15.3358 9.95447 15 9.61868 15 9.20447V5.45447C15 4.62604 14.3284 3.95447 13.5 3.95447L7.5 3.95447ZM18.2197 8.67414C18.5126 8.38125 18.9874 8.38125 19.2803 8.67414L22.2803 11.6741C22.5732 11.967 22.5732 12.4419 22.2803 12.7348L19.2803 15.7348C18.9874 16.0277 18.5126 16.0277 18.2197 15.7348C17.9268 15.4419 17.9268 14.967 18.2197 14.6741L19.9393 12.9545L9 12.9545C8.58579 12.9545 8.25 12.6187 8.25 12.2045C8.25 11.7903 8.58579 11.4545 9 11.4545L19.9393 11.4545L18.2197 9.7348C17.9268 9.44191 17.9268 8.96703 18.2197 8.67414Z" fill="black"/>
</svg>
