<svg width="24" height="25" viewBox="0 0 24 25" fill="none" xmlns="http://www.w3.org/2000/svg">
<path fill-rule="evenodd" clip-rule="evenodd" d="M3.21967 3.42426C3.51256 3.13137 3.98744 3.13137 4.28033 3.42426L8.25 7.39393L8.25 4.70459C8.25 4.29038 8.58579 3.95459 9 3.95459C9.41421 3.95459 9.75 4.29038 9.75 4.70459L9.75 9.20459C9.75 9.6188 9.41421 9.95459 9 9.95459H4.5C4.08579 9.95459 3.75 9.6188 3.75 9.20459C3.75 8.79038 4.08579 8.45459 4.5 8.45459L7.18934 8.45459L3.21967 4.48492C2.92678 4.19203 2.92678 3.71715 3.21967 3.42426ZM20.7803 3.42426C21.0732 3.71715 21.0732 4.19203 20.7803 4.48492L16.8107 8.45459H19.5C19.9142 8.45459 20.25 8.79038 20.25 9.20459C20.25 9.6188 19.9142 9.95459 19.5 9.95459H15C14.5858 9.95459 14.25 9.6188 14.25 9.20459V4.70459C14.25 4.29038 14.5858 3.95459 15 3.95459C15.4142 3.95459 15.75 4.29038 15.75 4.70459V7.39393L19.7197 3.42426C20.0126 3.13137 20.4874 3.13137 20.7803 3.42426ZM3.75 15.2046C3.75 14.7904 4.08579 14.4546 4.5 14.4546L9 14.4546C9.41421 14.4546 9.75 14.7904 9.75 15.2046V19.7046C9.75 20.1188 9.41421 20.4546 9 20.4546C8.58579 20.4546 8.25 20.1188 8.25 19.7046L8.25 17.0153L4.28033 20.9849C3.98744 21.2778 3.51256 21.2778 3.21967 20.9849C2.92678 20.692 2.92678 20.2172 3.21967 19.9243L7.18934 15.9546H4.5C4.08579 15.9546 3.75 15.6188 3.75 15.2046ZM14.25 15.2046C14.25 14.7904 14.5858 14.4546 15 14.4546H19.5C19.9142 14.4546 20.25 14.7904 20.25 15.2046C20.25 15.6188 19.9142 15.9546 19.5 15.9546H16.8107L20.7803 19.9243C21.0732 20.2172 21.0732 20.692 20.7803 20.9849C20.4874 21.2778 20.0126 21.2778 19.7197 20.9849L15.75 17.0152V19.7046C15.75 20.1188 15.4142 20.4546 15 20.4546C14.5858 20.4546 14.25 20.1188 14.25 19.7046L14.25 15.2046Z" fill="black"/>
</svg>
