<svg width="24" height="25" viewBox="0 0 24 25" fill="none" xmlns="http://www.w3.org/2000/svg">
<path fill-rule="evenodd" clip-rule="evenodd" d="M21.5303 9.73492C21.2374 10.0278 20.7626 10.0278 20.4697 9.73492L15.75 5.01525V15.2046C15.75 18.9325 12.7279 21.9546 9 21.9546C5.27208 21.9546 2.25 18.9325 2.25 15.2046L2.25 12.2046C2.25 11.7904 2.58579 11.4546 3 11.4546C3.41421 11.4546 3.75 11.7904 3.75 12.2046L3.75 15.2046C3.75 18.1041 6.10051 20.4546 9 20.4546C11.8995 20.4546 14.25 18.1041 14.25 15.2046V5.01525L9.53033 9.73492C9.23744 10.0278 8.76256 10.0278 8.46967 9.73492C8.17678 9.44203 8.17678 8.96715 8.46967 8.67426L14.4697 2.67426C14.7626 2.38137 15.2374 2.38137 15.5303 2.67426L21.5303 8.67426C21.8232 8.96715 21.8232 9.44203 21.5303 9.73492Z" fill="black"/>
</svg>
