<svg width="24" height="25" viewBox="0 0 24 25" fill="none" xmlns="http://www.w3.org/2000/svg">
<path fill-rule="evenodd" clip-rule="evenodd" d="M6.96967 2.67426C7.26256 2.38137 7.73744 2.38137 8.03033 2.67426L12.5303 7.17426C12.8232 7.46715 12.8232 7.94203 12.5303 8.23492C12.2374 8.52781 11.7626 8.52781 11.4697 8.23492L8.25 5.01525V16.7046C8.25 17.1188 7.91421 17.4546 7.5 17.4546C7.08579 17.4546 6.75 17.1188 6.75 16.7046V5.01525L3.53033 8.23492C3.23744 8.52781 2.76256 8.52781 2.46967 8.23492C2.17678 7.94203 2.17678 7.46715 2.46967 7.17426L6.96967 2.67426ZM16.5 6.95459C16.9142 6.95459 17.25 7.29038 17.25 7.70459L17.25 19.3939L20.4697 16.1743C20.7626 15.8814 21.2374 15.8814 21.5303 16.1743C21.8232 16.4672 21.8232 16.942 21.5303 17.2349L17.0303 21.7349C16.8897 21.8756 16.6989 21.9546 16.5 21.9546C16.3011 21.9546 16.1103 21.8756 15.9697 21.7349L11.4697 17.2349C11.1768 16.942 11.1768 16.4672 11.4697 16.1743C11.7626 15.8814 12.2374 15.8814 12.5303 16.1743L15.75 19.3939L15.75 7.70459C15.75 7.29038 16.0858 6.95459 16.5 6.95459Z" fill="black"/>
</svg>
