<svg width="24" height="25" viewBox="0 0 24 25" fill="none" xmlns="http://www.w3.org/2000/svg">
<path fill-rule="evenodd" clip-rule="evenodd" d="M1.71967 5.67414C2.01256 5.38124 2.48744 5.38124 2.78033 5.67414L9 11.8938L12.7558 8.13797C13.0214 7.8724 13.4425 7.84421 13.7411 8.07199C15.9037 9.72178 17.5581 12.0746 18.3164 14.9045L18.6242 16.0533L20.9009 12.11C21.108 11.7513 21.5667 11.6284 21.9254 11.8355C22.2841 12.0426 22.407 12.5013 22.1999 12.86L19.0179 18.3714C18.9185 18.5436 18.7546 18.6693 18.5625 18.7208C18.3704 18.7723 18.1657 18.7454 17.9934 18.6459L12.482 15.4639C12.1233 15.2568 12.0004 14.7981 12.2075 14.4394C12.4146 14.0807 12.8733 13.9578 13.232 14.1649L17.1753 16.4415L16.8675 15.2927C16.2588 13.0209 14.9977 11.1001 13.3392 9.67588L9.53033 13.4848C9.23744 13.7777 8.76256 13.7777 8.46967 13.4848L1.71967 6.7348C1.42678 6.4419 1.42678 5.96703 1.71967 5.67414Z" fill="black"/>
</svg>
