<svg width="24" height="25" viewBox="0 0 24 25" fill="none" xmlns="http://www.w3.org/2000/svg">
<path fill-rule="evenodd" clip-rule="evenodd" d="M12.9697 4.17414C13.2626 3.88124 13.7374 3.88124 14.0303 4.17414L21.5303 11.6741C21.671 11.8148 21.75 12.0056 21.75 12.2045C21.75 12.4034 21.671 12.5941 21.5303 12.7348L14.0303 20.2348C13.7374 20.5277 13.2626 20.5277 12.9697 20.2348C12.6768 19.9419 12.6768 19.467 12.9697 19.1741L19.1893 12.9545H3C2.58579 12.9545 2.25 12.6187 2.25 12.2045C2.25 11.7903 2.58579 11.4545 3 11.4545H19.1893L12.9697 5.2348C12.6768 4.9419 12.6768 4.46703 12.9697 4.17414Z" fill="black"/>
</svg>
