<svg width="24" height="25" viewBox="0 0 24 25" fill="none" xmlns="http://www.w3.org/2000/svg">
<path fill-rule="evenodd" clip-rule="evenodd" d="M17.8336 6.37096C14.6118 3.14913 9.38819 3.14913 6.16637 6.37096C2.94454 9.59278 2.94454 14.8164 6.16637 18.0382C9.38819 21.26 14.6118 21.26 17.8336 18.0382C18.1265 17.7453 18.6014 17.7453 18.8943 18.0382C19.1872 18.3311 19.1872 18.806 18.8943 19.0989C15.0867 22.9065 8.91332 22.9065 5.10571 19.0989C1.2981 15.2913 1.2981 9.11791 5.10571 5.3103C8.91332 1.50269 15.0867 1.50269 18.8943 5.3103C20.798 7.21396 21.75 9.71052 21.75 12.2046C21.75 13.1796 21.4545 14.0912 20.941 14.7759C20.4273 15.4609 19.6603 15.9546 18.75 15.9546C17.8462 15.9546 17.0837 15.4679 16.57 14.7905C15.668 16.3813 13.9593 17.4546 12 17.4546C9.1005 17.4546 6.75 15.1041 6.75 12.2046C6.75 9.30509 9.1005 6.95459 12 6.95459C13.469 6.95459 14.7971 7.55794 15.75 8.53035V8.45459C15.75 8.04038 16.0858 7.70459 16.5 7.70459C16.9142 7.70459 17.25 8.04038 17.25 8.45459V12.2046C17.25 12.8864 17.4582 13.4749 17.759 13.8759C18.0596 14.2767 18.4177 14.4546 18.75 14.4546C19.0823 14.4546 19.4404 14.2767 19.741 13.8759C20.0418 13.4749 20.25 12.8864 20.25 12.2046C20.25 10.0921 19.4447 7.98202 17.8336 6.37096ZM15.75 12.2046C15.75 10.1335 14.0711 8.45459 12 8.45459C9.92893 8.45459 8.25 10.1335 8.25 12.2046C8.25 14.2757 9.92893 15.9546 12 15.9546C14.0711 15.9546 15.75 14.2757 15.75 12.2046Z" fill="black"/>
</svg>
