<svg width="24" height="25" viewBox="0 0 24 25" fill="none" xmlns="http://www.w3.org/2000/svg">
<path fill-rule="evenodd" clip-rule="evenodd" d="M2.515 10.8788C1.78276 11.611 1.78276 12.7982 2.51499 13.5304L8.89 19.9054C9.24163 20.257 9.71854 20.4546 10.2158 20.4546H19.4998C21.1567 20.4546 22.4998 19.1114 22.4998 17.4546V6.95459C22.4998 5.29774 21.1567 3.95459 19.4998 3.95459L10.2158 3.95459C9.71854 3.95459 9.24163 4.15213 8.89 4.50376L2.515 10.8788ZM12.5303 9.42426C12.2374 9.13137 11.7626 9.13137 11.4697 9.42426C11.1768 9.71715 11.1768 10.192 11.4697 10.4849L13.1893 12.2046L11.4697 13.9243C11.1768 14.2172 11.1768 14.692 11.4697 14.9849C11.7626 15.2778 12.2374 15.2778 12.5303 14.9849L14.25 13.2652L15.9697 14.9849C16.2626 15.2778 16.7374 15.2778 17.0303 14.9849C17.3232 14.692 17.3232 14.2172 17.0303 13.9243L15.3107 12.2046L17.0303 10.4849C17.3232 10.192 17.3232 9.71715 17.0303 9.42426C16.7374 9.13137 16.2626 9.13137 15.9697 9.42426L14.25 11.1439L12.5303 9.42426Z" fill="black"/>
</svg>
