<svg width="24" height="25" viewBox="0 0 24 25" fill="none" xmlns="http://www.w3.org/2000/svg">
<path d="M12 7.70459C10.7574 7.70459 9.75 8.71195 9.75 9.95459C9.75 11.1972 10.7574 12.2046 12 12.2046C13.2426 12.2046 14.25 11.1972 14.25 9.95459C14.25 8.71195 13.2426 7.70459 12 7.70459Z" fill="black"/>
<path fill-rule="evenodd" clip-rule="evenodd" d="M1.5 5.07959C1.5 4.04406 2.33947 3.20459 3.375 3.20459H20.625C21.6605 3.20459 22.5 4.04406 22.5 5.07959V14.8296C22.5 15.8651 21.6605 16.7046 20.625 16.7046H3.375C2.33947 16.7046 1.5 15.8651 1.5 14.8296V5.07959ZM8.25 9.95459C8.25 7.88352 9.92893 6.20459 12 6.20459C14.0711 6.20459 15.75 7.88352 15.75 9.95459C15.75 12.0257 14.0711 13.7046 12 13.7046C9.92893 13.7046 8.25 12.0257 8.25 9.95459ZM18.75 9.20459C18.3358 9.20459 18 9.54038 18 9.95459V9.96209C18 10.3763 18.3358 10.7121 18.75 10.7121H18.7575C19.1717 10.7121 19.5075 10.3763 19.5075 9.96209V9.95459C19.5075 9.54038 19.1717 9.20459 18.7575 9.20459H18.75ZM4.5 9.95459C4.5 9.54038 4.83579 9.20459 5.25 9.20459H5.2575C5.67171 9.20459 6.0075 9.54038 6.0075 9.95459V9.96209C6.0075 10.3763 5.67171 10.7121 5.2575 10.7121H5.25C4.83579 10.7121 4.5 10.3763 4.5 9.96209V9.95459Z" fill="black"/>
<path d="M2.25 18.2046C1.83579 18.2046 1.5 18.5404 1.5 18.9546C1.5 19.3688 1.83579 19.7046 2.25 19.7046C7.65005 19.7046 12.8802 20.4268 17.8498 21.7795C19.0404 22.1035 20.25 21.2214 20.25 19.9597V18.9546C20.25 18.5404 19.9142 18.2046 19.5 18.2046H2.25Z" fill="black"/>
</svg>
