<svg width="24" height="25" viewBox="0 0 24 25" fill="none" xmlns="http://www.w3.org/2000/svg">
<path fill-rule="evenodd" clip-rule="evenodd" d="M3 6.95459C3 6.54038 3.33579 6.20459 3.75 6.20459H20.25C20.6642 6.20459 21 6.54038 21 6.95459C21 7.3688 20.6642 7.70459 20.25 7.70459H3.75C3.33579 7.70459 3 7.3688 3 6.95459ZM3 12.2046C3 11.7904 3.33579 11.4546 3.75 11.4546H20.25C20.6642 11.4546 21 11.7904 21 12.2046C21 12.6188 20.6642 12.9546 20.25 12.9546H3.75C3.33579 12.9546 3 12.6188 3 12.2046ZM3 17.4546C3 17.0404 3.33579 16.7046 3.75 16.7046H12C12.4142 16.7046 12.75 17.0404 12.75 17.4546C12.75 17.8688 12.4142 18.2046 12 18.2046H3.75C3.33579 18.2046 3 17.8688 3 17.4546Z" fill="black"/>
</svg>
