<svg width="24" height="25" viewBox="0 0 24 25" fill="none" xmlns="http://www.w3.org/2000/svg">
<path fill-rule="evenodd" clip-rule="evenodd" d="M2.25 4.70459C2.25 4.29038 2.58579 3.95459 3 3.95459H17.25C17.6642 3.95459 18 4.29038 18 4.70459C18 5.1188 17.6642 5.45459 17.25 5.45459H3C2.58579 5.45459 2.25 5.1188 2.25 4.70459ZM16.7197 8.67426C17.0126 8.38137 17.4874 8.38137 17.7803 8.67426L21.5303 12.4243C21.8232 12.7172 21.8232 13.192 21.5303 13.4849C21.2374 13.7778 20.7626 13.7778 20.4697 13.4849L18 11.0152L18 21.2046C18 21.6188 17.6642 21.9546 17.25 21.9546C16.8358 21.9546 16.5 21.6188 16.5 21.2046L16.5 11.0152L14.0303 13.4849C13.7374 13.7778 13.2626 13.7778 12.9697 13.4849C12.6768 13.192 12.6768 12.7172 12.9697 12.4243L16.7197 8.67426ZM2.25 9.20459C2.25 8.79038 2.58579 8.45459 3 8.45459H12.75C13.1642 8.45459 13.5 8.79038 13.5 9.20459C13.5 9.6188 13.1642 9.95459 12.75 9.95459H3C2.58579 9.95459 2.25 9.6188 2.25 9.20459ZM2.25 13.7046C2.25 13.2904 2.58579 12.9546 3 12.9546H8.25C8.66421 12.9546 9 13.2904 9 13.7046C9 14.1188 8.66421 14.4546 8.25 14.4546H3C2.58579 14.4546 2.25 14.1188 2.25 13.7046Z" fill="black"/>
</svg>
