<svg width="24" height="25" viewBox="0 0 24 25" fill="none" xmlns="http://www.w3.org/2000/svg">
<path fill-rule="evenodd" clip-rule="evenodd" d="M2.25 4.70459C2.25 4.29038 2.58579 3.95459 3 3.95459H17.25C17.6642 3.95459 18 4.29038 18 4.70459C18 5.1188 17.6642 5.45459 17.25 5.45459H3C2.58579 5.45459 2.25 5.1188 2.25 4.70459ZM2.25 9.20459C2.25 8.79038 2.58579 8.45459 3 8.45459H12.75C13.1642 8.45459 13.5 8.79038 13.5 9.20459C13.5 9.6188 13.1642 9.95459 12.75 9.95459H3C2.58579 9.95459 2.25 9.6188 2.25 9.20459ZM17.25 8.45459C17.6642 8.45459 18 8.79038 18 9.20459V19.3939L20.4697 16.9243C20.7626 16.6314 21.2374 16.6314 21.5303 16.9243C21.8232 17.2172 21.8232 17.692 21.5303 17.9849L17.7803 21.7349C17.4874 22.0278 17.0126 22.0278 16.7197 21.7349L12.9697 17.9849C12.6768 17.692 12.6768 17.2172 12.9697 16.9243C13.2626 16.6314 13.7374 16.6314 14.0303 16.9243L16.5 19.3939V9.20459C16.5 8.79038 16.8358 8.45459 17.25 8.45459ZM2.25 13.7046C2.25 13.2904 2.58579 12.9546 3 12.9546H12.75C13.1642 12.9546 13.5 13.2904 13.5 13.7046C13.5 14.1188 13.1642 14.4546 12.75 14.4546H3C2.58579 14.4546 2.25 14.1188 2.25 13.7046Z" fill="black"/>
</svg>
