<svg width="24" height="25" viewBox="0 0 24 25" fill="none" xmlns="http://www.w3.org/2000/svg">
<path fill-rule="evenodd" clip-rule="evenodd" d="M3 5.45459C3 5.04038 3.33579 4.70459 3.75 4.70459H20.25C20.6642 4.70459 21 5.04038 21 5.45459C21 5.8688 20.6642 6.20459 20.25 6.20459H3.75C3.33579 6.20459 3 5.8688 3 5.45459ZM3 9.95459C3 9.54038 3.33579 9.20459 3.75 9.20459H20.25C20.6642 9.20459 21 9.54038 21 9.95459C21 10.3688 20.6642 10.7046 20.25 10.7046H3.75C3.33579 10.7046 3 10.3688 3 9.95459ZM3 14.4546C3 14.0404 3.33579 13.7046 3.75 13.7046H20.25C20.6642 13.7046 21 14.0404 21 14.4546C21 14.8688 20.6642 15.2046 20.25 15.2046H3.75C3.33579 15.2046 3 14.8688 3 14.4546ZM3 18.9546C3 18.5404 3.33579 18.2046 3.75 18.2046H20.25C20.6642 18.2046 21 18.5404 21 18.9546C21 19.3688 20.6642 19.7046 20.25 19.7046H3.75C3.33579 19.7046 3 19.3688 3 18.9546Z" fill="black"/>
</svg>
