<svg width="24" height="25" viewBox="0 0 24 25" fill="none" xmlns="http://www.w3.org/2000/svg">
<path d="M4.5 9.95447C4.08579 9.95447 3.75 10.2903 3.75 10.7045V15.2045C3.75 15.6187 4.08579 15.9545 4.5 15.9545H11.25C11.6642 15.9545 12 15.6187 12 15.2045V10.7045C12 10.2903 11.6642 9.95447 11.25 9.95447H4.5Z" fill="black"/>
<path fill-rule="evenodd" clip-rule="evenodd" d="M3.75 6.95447C2.09315 6.95447 0.75 8.29761 0.75 9.95447V15.9545C0.75 17.6113 2.09315 18.9545 3.75 18.9545H18.75C20.4069 18.9545 21.75 17.6113 21.75 15.9545V15.917C22.6058 15.7432 23.25 14.9866 23.25 14.0795V11.8295C23.25 10.9224 22.6058 10.1657 21.75 9.99197V9.95447C21.75 8.29761 20.4069 6.95447 18.75 6.95447H3.75ZM18.75 8.45447C19.5784 8.45447 20.25 9.12604 20.25 9.95447V15.9545C20.25 16.7829 19.5784 17.4545 18.75 17.4545H3.75C2.92157 17.4545 2.25 16.7829 2.25 15.9545V9.95447C2.25 9.12604 2.92157 8.45447 3.75 8.45447H18.75Z" fill="black"/>
</svg>
