<svg width="24" height="25" viewBox="0 0 24 25" fill="none" xmlns="http://www.w3.org/2000/svg">
<path fill-rule="evenodd" clip-rule="evenodd" d="M0.75 9.95447C0.75 8.29761 2.09315 6.95447 3.75 6.95447H18.75C20.4069 6.95447 21.75 8.29761 21.75 9.95447V9.99197C22.6058 10.1657 23.25 10.9224 23.25 11.8295V14.0795C23.25 14.9866 22.6058 15.7432 21.75 15.917V15.9545C21.75 17.6113 20.4069 18.9545 18.75 18.9545H3.75C2.09315 18.9545 0.75 17.6113 0.75 15.9545V9.95447ZM20.25 9.95447C20.25 9.12604 19.5784 8.45447 18.75 8.45447H3.75C2.92157 8.45447 2.25 9.12604 2.25 9.95447V15.9545C2.25 16.7829 2.92157 17.4545 3.75 17.4545H18.75C19.5784 17.4545 20.25 16.7829 20.25 15.9545V9.95447Z" fill="black"/>
</svg>
