<svg width="24" height="25" viewBox="0 0 24 25" fill="none" xmlns="http://www.w3.org/2000/svg">
<path fill-rule="evenodd" clip-rule="evenodd" d="M10.5 4.00205V9.02249C10.5 9.81814 10.1839 10.5812 9.62132 11.1438L7.24428 13.5208C8.99162 13.3965 10.7578 13.7448 12.3354 14.5336C14.0988 15.4153 16.1395 15.6465 18.048 15.1694L18.333 15.0981L14.3787 11.1438C13.8161 10.5812 13.5 9.81814 13.5 9.02249V4.00205C13.0042 3.97049 12.504 3.95447 12 3.95447C11.496 3.95447 10.9958 3.97049 10.5 4.00205ZM15 4.14023C15.3732 4.14069 15.6969 3.8628 15.7442 3.48295C15.7955 3.07192 15.5038 2.69717 15.0928 2.64591C14.8362 2.61391 14.5784 2.58584 14.3194 2.56177C13.5556 2.49075 12.782 2.45447 12 2.45447C11.2181 2.45447 10.4444 2.49075 9.68057 2.56177C9.42161 2.58584 9.1638 2.61391 8.9072 2.64591C8.49617 2.69717 8.20451 3.07192 8.25577 3.48295C8.30313 3.8628 8.62677 4.14069 9 4.14023V9.02249C9 9.42031 8.84197 9.80184 8.56066 10.0831L2.26747 16.3763C0.646328 17.9975 1.36447 20.8519 3.73837 21.2572C6.42421 21.7157 9.18452 21.9545 12 21.9545C14.8155 21.9545 17.5758 21.7157 20.2616 21.2572C22.6355 20.8519 23.3537 17.9975 21.7325 16.3763L15.4393 10.0831C15.158 9.80184 15 9.42031 15 9.02249V4.14023Z" fill="black"/>
</svg>
