<svg width="24" height="25" viewBox="0 0 24 25" fill="none" xmlns="http://www.w3.org/2000/svg">
<path fill-rule="evenodd" clip-rule="evenodd" d="M12 2.45447C8.27215 2.45447 5.25012 5.47644 5.25001 9.20427L5.24981 9.95447C5.24981 12.0776 4.44879 14.0119 3.13126 15.4743C2.96476 15.6592 2.90073 15.9145 2.96033 16.156C3.01992 16.3975 3.19539 16.5938 3.42875 16.6799C4.97287 17.25 6.58934 17.6704 8.2604 17.9237C8.25351 18.0165 8.25001 18.1101 8.25001 18.2045C8.25001 20.2755 9.92894 21.9545 12 21.9545C14.0711 21.9545 15.75 20.2755 15.75 18.2045C15.75 18.1101 15.7465 18.0164 15.7396 17.9237C17.4105 17.6703 19.0269 17.2499 20.5709 16.6799C20.8042 16.5938 20.9797 16.3975 21.0393 16.156C21.0989 15.9145 21.0349 15.6592 20.8684 15.4743C19.5508 14.0119 18.7498 12.0776 18.7498 9.95447V9.25365L18.75 9.20447C18.75 5.47655 15.7279 2.45447 12 2.45447ZM9.75001 18.2045C9.75001 18.1707 9.75075 18.1371 9.75221 18.1037C10.4927 18.1704 11.2424 18.2045 11.9998 18.2045C12.7574 18.2045 13.5072 18.1704 14.2478 18.1037C14.2493 18.1371 14.25 18.1707 14.25 18.2045C14.25 19.4471 13.2427 20.4545 12 20.4545C10.7574 20.4545 9.75001 19.4471 9.75001 18.2045ZM10.5 7.70447C10.0858 7.70447 9.75 8.04025 9.75 8.45447C9.75 8.86868 10.0858 9.20447 10.5 9.20447H12.0986L9.87596 12.5384C9.72253 12.7686 9.70823 13.0645 9.83874 13.3084C9.96926 13.5522 10.2234 13.7045 10.5 13.7045H13.5C13.9142 13.7045 14.25 13.3687 14.25 12.9545C14.25 12.5403 13.9142 12.2045 13.5 12.2045H11.9014L14.124 8.87049C14.2775 8.64035 14.2918 8.34444 14.1613 8.10057C14.0307 7.85671 13.7766 7.70447 13.5 7.70447H10.5Z" fill="black"/>
</svg>
