<svg width="24" height="25" viewBox="0 0 24 25" fill="none" xmlns="http://www.w3.org/2000/svg">
<path d="M5.85036 3.70466C6.1266 3.39602 6.10034 2.92187 5.79169 2.64562C5.48305 2.36938 5.0089 2.39564 4.73266 2.70429C3.5317 4.0461 2.69605 5.72395 2.3846 7.58038C2.31607 7.98889 2.59167 8.3756 3.00017 8.44414C3.40868 8.51267 3.79539 8.23707 3.86393 7.82857C4.12704 6.26028 4.83301 4.84133 5.85036 3.70466Z" fill="black"/>
<path d="M19.267 2.70429C18.9908 2.39564 18.5166 2.36938 18.208 2.64562C17.8993 2.92187 17.873 3.39602 18.1493 3.70466C19.1666 4.84133 19.8726 6.26028 20.1357 7.82857C20.2043 8.23707 20.591 8.51267 20.9995 8.44414C21.408 8.3756 21.6836 7.98889 21.6151 7.58038C21.3036 5.72395 20.4679 4.0461 19.267 2.70429Z" fill="black"/>
<path fill-rule="evenodd" clip-rule="evenodd" d="M12 2.45447C8.27215 2.45447 5.25012 5.47644 5.25001 9.20427L5.24981 9.95447C5.24981 12.0776 4.4488 14.0119 3.13126 15.4743C2.96476 15.6592 2.90073 15.9145 2.96033 16.156C3.01992 16.3975 3.19539 16.5938 3.42875 16.6799C4.97287 17.25 6.58934 17.6704 8.2604 17.9237C8.25351 18.0165 8.25001 18.1101 8.25001 18.2045C8.25001 20.2755 9.92894 21.9545 12 21.9545C14.0711 21.9545 15.75 20.2755 15.75 18.2045C15.75 18.1101 15.7465 18.0164 15.7396 17.9237C17.4105 17.6703 19.0269 17.2499 20.5709 16.6799C20.8042 16.5938 20.9797 16.3975 21.0393 16.156C21.0989 15.9145 21.0349 15.6592 20.8684 15.4743C19.5508 14.0119 18.7498 12.0776 18.7498 9.95447V9.25365L18.75 9.20447C18.75 5.47655 15.7279 2.45447 12 2.45447ZM9.75001 18.2045C9.75001 18.1707 9.75075 18.1371 9.75221 18.1037C10.4927 18.1704 11.2424 18.2045 11.9998 18.2045C12.7574 18.2045 13.5072 18.1704 14.2478 18.1037C14.2493 18.1371 14.25 18.1707 14.25 18.2045C14.25 19.4471 13.2427 20.4545 12 20.4545C10.7574 20.4545 9.75001 19.4471 9.75001 18.2045Z" fill="black"/>
</svg>
