<svg width="24" height="25" viewBox="0 0 24 25" fill="none" xmlns="http://www.w3.org/2000/svg">
<path d="M3.53033 2.67414C3.23744 2.38124 2.76256 2.38124 2.46967 2.67414C2.17678 2.96703 2.17678 3.4419 2.46967 3.7348L20.4697 21.7348C20.7626 22.0277 21.2374 22.0277 21.5303 21.7348C21.8232 21.4419 21.8232 20.967 21.5303 20.6741L3.53033 2.67414Z" fill="black"/>
<path d="M20.5709 16.6799C20.3473 16.7625 20.1222 16.8419 19.8956 16.9181L7.31889 4.34137C8.53246 3.17293 10.1823 2.45447 12 2.45447C15.7279 2.45447 18.75 5.47655 18.75 9.20447L18.7498 9.25365V9.95447C18.7498 12.0776 19.5508 14.0119 20.8684 15.4743C21.0349 15.6592 21.0989 15.9145 21.0393 16.156C20.9797 16.3975 20.8042 16.5938 20.5709 16.6799Z" fill="black"/>
<path fill-rule="evenodd" clip-rule="evenodd" d="M5.25001 9.20427C5.25002 9.02045 5.25737 8.83835 5.27179 8.65824L15.656 19.0425C15.2754 20.7101 13.783 21.9545 12 21.9545C9.92894 21.9545 8.25001 20.2755 8.25001 18.2045C8.25001 18.1101 8.25351 18.0165 8.2604 17.9237C6.58934 17.6704 4.97287 17.25 3.42875 16.6799C3.19539 16.5938 3.01992 16.3975 2.96033 16.156C2.90073 15.9145 2.96476 15.6592 3.13126 15.4743C4.4488 14.0119 5.24981 12.0776 5.24981 9.95447L5.25001 9.20427ZM9.75221 18.1037C9.75075 18.1371 9.75001 18.1707 9.75001 18.2045C9.75001 19.4471 10.7574 20.4545 12 20.4545C13.2427 20.4545 14.25 19.4471 14.25 18.2045C14.25 18.1707 14.2493 18.1371 14.2478 18.1037C13.5072 18.1704 12.7574 18.2045 11.9998 18.2045C11.2424 18.2045 10.4927 18.1704 9.75221 18.1037Z" fill="black"/>
</svg>
