<svg width="24" height="25" viewBox="0 0 24 25" fill="none" xmlns="http://www.w3.org/2000/svg">
<path fill-rule="evenodd" clip-rule="evenodd" d="M5.25 9.20427C5.2501 5.47644 8.27214 2.45447 12 2.45447C15.7279 2.45447 18.75 5.47655 18.75 9.20447L18.7498 9.25365V9.95447C18.7498 12.0776 19.5508 14.0119 20.8683 15.4743C21.0348 15.6592 21.0989 15.9145 21.0393 16.156C20.9797 16.3975 20.8042 16.5938 20.5709 16.6799C19.0269 17.2499 17.4105 17.6703 15.7396 17.9237C15.7465 18.0164 15.75 18.1101 15.75 18.2045C15.75 20.2755 14.0711 21.9545 12 21.9545C9.92893 21.9545 8.25 20.2755 8.25 18.2045C8.25 18.1101 8.2535 18.0165 8.26038 17.9237C6.58932 17.6704 4.97286 17.25 3.42874 16.6799C3.19537 16.5938 3.01991 16.3975 2.96031 16.156C2.90072 15.9145 2.96475 15.6592 3.13125 15.4743C4.44878 14.0119 5.2498 12.0776 5.2498 9.95447L5.25 9.20427ZM9.7522 18.1037C9.75074 18.1371 9.75 18.1707 9.75 18.2045C9.75 19.4471 10.7574 20.4545 12 20.4545C13.2426 20.4545 14.25 19.4471 14.25 18.2045C14.25 18.1707 14.2493 18.1371 14.2478 18.1037C13.5072 18.1704 12.7574 18.2045 11.9998 18.2045C11.2423 18.2045 10.4926 18.1704 9.7522 18.1037Z" fill="black"/>
</svg>
