<svg width="24" height="25" viewBox="0 0 24 25" fill="none" xmlns="http://www.w3.org/2000/svg">
<path d="M20.7983 11.2162L17.6099 14.6324L9.4624 6.48489L13.7017 1.94275C13.937 1.69062 14.314 1.63148 14.6152 1.79942C14.9165 1.96736 15.0643 2.31909 14.9736 2.65183L12.982 9.95449H20.25C20.5487 9.95449 20.8189 10.1317 20.9379 10.4056C21.0569 10.6795 21.0021 10.9979 20.7983 11.2162Z" fill="black"/>
<path d="M3.20173 13.1928L6.39014 9.77659L14.5376 17.9241L10.2983 22.4662C10.063 22.7184 9.68604 22.7775 9.38481 22.6096C9.08357 22.4416 8.9357 22.0899 9.02644 21.7572L11.0181 14.4545H3.75002C3.45137 14.4545 3.18118 14.2773 3.06216 14.0034C2.94313 13.7295 2.99795 13.4111 3.20173 13.1928Z" fill="black"/>
<path d="M3.53033 2.67414C3.23744 2.38124 2.76256 2.38124 2.46967 2.67414C2.17678 2.96703 2.17678 3.4419 2.46967 3.7348L20.4697 21.7348C20.7626 22.0277 21.2374 22.0277 21.5303 21.7348C21.8232 21.4419 21.8232 20.967 21.5303 20.6741L3.53033 2.67414Z" fill="black"/>
</svg>
