<svg width="24" height="25" viewBox="0 0 24 25" fill="none" xmlns="http://www.w3.org/2000/svg">
<path fill-rule="evenodd" clip-rule="evenodd" d="M14.6152 1.79942C14.9164 1.96736 15.0643 2.31909 14.9736 2.65183L12.9819 9.95449H20.25C20.5486 9.95449 20.8188 10.1317 20.9379 10.4056C21.0569 10.6795 21.0021 10.9979 20.7983 11.2162L10.2983 22.4662C10.063 22.7184 9.68603 22.7775 9.38479 22.6096C9.08355 22.4416 8.93568 22.0899 9.02643 21.7572L11.0181 14.4545H3.75C3.45135 14.4545 3.18117 14.2773 3.06214 14.0034C2.94312 13.7295 2.99794 13.4111 3.20171 13.1928L13.7017 1.94275C13.937 1.69062 14.314 1.63148 14.6152 1.79942Z" fill="black"/>
</svg>
