<svg width="24" height="25" viewBox="0 0 24 25" fill="none" xmlns="http://www.w3.org/2000/svg">
<path d="M11.25 4.73733C9.73455 3.76726 7.93246 3.20447 6 3.20447C4.86178 3.20447 3.76756 3.39982 2.75007 3.75945C2.45037 3.86538 2.25 4.14872 2.25 4.46658V18.7166C2.25 18.96 2.36818 19.1884 2.56696 19.3289C2.76574 19.4695 3.02039 19.5048 3.24993 19.4237C4.10911 19.12 5.03441 18.9545 6 18.9545C7.99502 18.9545 9.82325 19.6617 11.25 20.8402V4.73733Z" fill="black"/>
<path d="M12.75 20.8402C14.1768 19.6617 16.005 18.9545 18 18.9545C18.9656 18.9545 19.8909 19.12 20.7501 19.4237C20.9796 19.5048 21.2343 19.4695 21.433 19.3289C21.6318 19.1884 21.75 18.96 21.75 18.7166V4.46658C21.75 4.14872 21.5496 3.86538 21.2499 3.75945C20.2324 3.39982 19.1382 3.20447 18 3.20447C16.0675 3.20447 14.2655 3.76726 12.75 4.73733V20.8402Z" fill="black"/>
</svg>
