<svg width="24" height="25" viewBox="0 0 24 25" fill="none" xmlns="http://www.w3.org/2000/svg">
<path fill-rule="evenodd" clip-rule="evenodd" d="M6 3.20447C4.34315 3.20447 3 4.54761 3 6.20447V18.2045C3 19.8613 4.34315 21.2045 6 21.2045H18C19.6569 21.2045 21 19.8613 21 18.2045V6.20447C21 4.54761 19.6569 3.20447 18 3.20447H6ZM7.5 4.70447C7.08579 4.70447 6.75 5.04025 6.75 5.45447V16.7045C6.75 16.9644 6.88459 17.2058 7.1057 17.3425C7.32681 17.4791 7.60292 17.4915 7.83541 17.3753L12 15.293L16.1646 17.3753C16.3971 17.4915 16.6732 17.4791 16.8943 17.3425C17.1154 17.2058 17.25 16.9644 17.25 16.7045V5.45447C17.25 5.04025 16.9142 4.70447 16.5 4.70447H7.5Z" fill="black"/>
</svg>
