<svg width="24" height="25" viewBox="0 0 24 25" fill="none" xmlns="http://www.w3.org/2000/svg">
<path d="M3.53033 2.67414C3.23744 2.38124 2.76256 2.38124 2.46967 2.67414C2.17678 2.96703 2.17678 3.4419 2.46967 3.7348L20.4697 21.7348C20.7626 22.0277 21.2374 22.0277 21.5303 21.7348C21.8232 21.4419 21.8232 20.967 21.5303 20.6741L3.53033 2.67414Z" fill="black"/>
<path d="M20.25 5.71145V17.2725L5.85284 2.87533C6.00319 2.83209 6.15925 2.80056 6.32022 2.78188C8.18374 2.56561 10.079 2.45447 12 2.45447C13.921 2.45447 15.8163 2.56561 17.6798 2.78188C19.1772 2.95565 20.25 4.24169 20.25 5.71145Z" fill="black"/>
<path d="M3.75 21.2045V7.13645L17.8131 21.1995L12 18.293L4.83541 21.8753C4.60292 21.9915 4.32681 21.9791 4.1057 21.8425C3.88459 21.7058 3.75 21.4644 3.75 21.2045Z" fill="black"/>
</svg>
