<svg width="24" height="25" viewBox="0 0 24 25" fill="none" xmlns="http://www.w3.org/2000/svg">
<path fill-rule="evenodd" clip-rule="evenodd" d="M7.5 5.45447C7.5 3.79761 8.84315 2.45447 10.5 2.45447H13.5C15.1569 2.45447 16.5 3.79761 16.5 5.45447V5.65945C17.4325 5.7448 18.3574 5.85643 19.274 5.99358C20.7281 6.21115 21.75 7.4761 21.75 8.91016V11.9434C21.75 13.1545 21.0164 14.2957 19.8137 14.6956C17.3566 15.5125 14.7292 15.9545 12 15.9545C9.27087 15.9545 6.64342 15.5125 4.18627 14.6955C2.98364 14.2957 2.25 13.1545 2.25 11.9433V8.91016C2.25 7.4761 3.27191 6.21115 4.72596 5.99359C5.6426 5.85643 6.56753 5.74481 7.5 5.65945V5.45447ZM15 5.45447V5.54529C14.0077 5.48503 13.0074 5.45447 12 5.45447C10.9927 5.45447 9.99235 5.48503 9 5.54529V5.45447C9 4.62604 9.67157 3.95447 10.5 3.95447H13.5C14.3284 3.95447 15 4.62604 15 5.45447ZM12 13.7045C12.4142 13.7045 12.75 13.3687 12.75 12.9545C12.75 12.5403 12.4142 12.2045 12 12.2045C11.5858 12.2045 11.25 12.5403 11.25 12.9545C11.25 13.3687 11.5858 13.7045 12 13.7045Z" fill="black"/>
<path d="M3 18.6044V15.8084C3.22304 15.9307 3.46097 16.0351 3.71303 16.1189C6.32087 16.9859 9.10801 17.4545 12 17.4545C14.892 17.4545 17.6791 16.986 20.287 16.119C20.539 16.0351 20.777 15.9307 21 15.8084V18.6044C21 20.0563 19.9528 21.332 18.4769 21.5279C16.3575 21.8093 14.1955 21.9545 12 21.9545C9.80447 21.9545 7.64246 21.8093 5.52314 21.5279C4.04724 21.332 3 20.0563 3 18.6044Z" fill="black"/>
</svg>
