<svg width="24" height="25" viewBox="0 0 24 25" fill="none" xmlns="http://www.w3.org/2000/svg">
<path fill-rule="evenodd" clip-rule="evenodd" d="M8.4776 1.80527C8.83615 2.01267 8.95867 2.47147 8.75126 2.83001C8.55269 3.17328 8.4071 3.55071 8.32549 3.95157C8.38405 4.00904 8.44394 4.06515 8.50512 4.11984C9.32956 3.10459 10.5885 2.45447 12.0001 2.45447C13.4129 2.45447 14.6728 3.10564 15.4972 4.12229C15.5579 4.06811 15.6173 4.01255 15.6754 3.95564C15.5939 3.55326 15.448 3.17444 15.2488 2.83001C15.0414 2.47147 15.1639 2.01267 15.5225 1.80527C15.881 1.59786 16.3398 1.72038 16.5472 2.07893C16.9024 2.69289 17.137 3.38582 17.2183 4.12441C17.2416 4.33632 17.1737 4.54815 17.0314 4.70694C16.7896 4.97687 16.5263 5.22724 16.2442 5.45536C16.41 5.92484 16.5001 6.42966 16.5001 6.95447C16.5001 7.15803 16.4866 7.35881 16.4602 7.55588C16.3543 8.34761 15.7073 8.85027 15.0428 8.95873C14.8614 8.98835 14.6791 9.01536 14.4959 9.03973C14.6477 9.26684 14.7692 9.51584 14.8549 9.78099C16.1694 9.62007 17.4498 9.34948 18.6867 8.97869C18.6212 8.08539 18.5053 7.20631 18.3417 6.34425C18.2645 5.93729 18.5319 5.54481 18.9388 5.46761C19.3458 5.39041 19.7383 5.65774 19.8155 6.06469C20.0269 7.17952 20.1636 8.32056 20.2201 9.48233C20.2365 9.81975 20.0253 10.1265 19.7043 10.2316C18.1774 10.7313 16.5854 11.0865 14.9444 11.281C14.8703 11.6618 14.7242 12.0168 14.5208 12.3313C16.5869 12.5404 18.5788 13.0037 20.464 13.6898C20.7756 13.8032 20.9758 14.1078 20.9562 14.4388C20.8278 16.6086 20.4197 18.7038 19.7673 20.6887C19.638 21.0822 19.2142 21.2963 18.8207 21.167C18.4272 21.0376 18.213 20.6138 18.3423 20.2203C18.8983 18.529 19.2654 16.7516 19.4187 14.913C18.9182 14.7446 18.4101 14.5928 17.895 14.4582C17.9627 14.6928 17.9993 14.9425 17.9993 15.2045C17.9993 19.1603 15.4775 22.7045 11.9993 22.7045C8.52106 22.7045 5.99926 19.1603 5.99926 15.2045C5.99926 14.9426 6.03582 14.693 6.10346 14.4585C5.58886 14.593 5.08125 14.7447 4.58126 14.913C4.73455 16.7516 5.10171 18.529 5.65762 20.2203C5.78696 20.6138 5.57281 21.0376 5.17931 21.167C4.7858 21.2963 4.36196 21.0822 4.23262 20.6887C3.58024 18.7038 3.17219 16.6086 3.04379 14.4388C3.02419 14.1078 3.22436 13.8032 3.53601 13.6898C5.12187 13.1127 6.783 12.6932 8.50041 12.45C8.50367 12.4496 8.50693 12.4491 8.51019 12.4486C8.83113 12.4033 9.15402 12.3642 9.47874 12.3313C9.27537 12.0168 9.12925 11.6618 9.05513 11.281C7.41418 11.0865 5.82213 10.7313 4.29528 10.2316C3.97422 10.1265 3.76303 9.81975 3.77944 9.48233C3.83597 8.32056 3.97263 7.17952 4.18411 6.06469C4.26131 5.65774 4.65379 5.39041 5.06075 5.46761C5.4677 5.54481 5.73502 5.93729 5.65783 6.34425C5.4943 7.20631 5.37834 8.08539 5.31283 8.97869C6.54976 9.34949 7.83016 9.62008 9.14471 9.78099C9.23044 9.51581 9.35208 9.26679 9.50388 9.03967C9.32091 9.01532 9.13876 8.98832 8.95747 8.95873C8.29302 8.85027 7.64599 8.34761 7.54008 7.55588C7.51371 7.35881 7.50015 7.15803 7.50015 6.95447C7.50015 6.42855 7.59066 5.9227 7.75717 5.45238C7.47453 5.22349 7.21081 4.97226 6.96867 4.70138C6.82658 4.54243 6.75886 4.33053 6.78242 4.11864C6.86432 3.3822 7.09862 2.69128 7.45285 2.07893C7.66026 1.72038 8.11906 1.59786 8.4776 1.80527Z" fill="black"/>
</svg>
