<svg width="24" height="25" viewBox="0 0 24 25" fill="none" xmlns="http://www.w3.org/2000/svg">
<path d="M11.5841 2.58043C11.836 2.41248 12.1642 2.41248 12.4161 2.58043L21.4161 8.58043C21.7608 8.81019 21.8539 9.27585 21.6241 9.62049C21.3944 9.96514 20.9287 10.0583 20.5841 9.82851L12.0001 4.10586L3.4161 9.82851C3.07146 10.0583 2.60581 9.96514 2.37604 9.62049C2.14628 9.27585 2.23941 8.81019 2.58405 8.58043L11.5841 2.58043Z" fill="black"/>
<path fill-rule="evenodd" clip-rule="evenodd" d="M20.25 10.537V20.4545H21C21.4142 20.4545 21.75 20.7903 21.75 21.2045C21.75 21.6187 21.4142 21.9545 21 21.9545H3C2.58579 21.9545 2.25 21.6187 2.25 21.2045C2.25 20.7903 2.58579 20.4545 3 20.4545H3.75V10.537C3.75 10.1676 4.01888 9.85328 4.38374 9.79603C6.86578 9.40658 9.40954 9.20447 12 9.20447C14.5905 9.20447 17.1342 9.40658 19.6163 9.79603C19.9811 9.85328 20.25 10.1676 20.25 10.537ZM12.75 12.9545C12.75 12.5403 12.4142 12.2045 12 12.2045C11.5858 12.2045 11.25 12.5403 11.25 12.9545V19.7045C11.25 20.1187 11.5858 20.4545 12 20.4545C12.4142 20.4545 12.75 20.1187 12.75 19.7045V12.9545ZM15.75 12.2045C16.1642 12.2045 16.5 12.5403 16.5 12.9545V19.7045C16.5 20.1187 16.1642 20.4545 15.75 20.4545C15.3358 20.4545 15 20.1187 15 19.7045V12.9545C15 12.5403 15.3358 12.2045 15.75 12.2045ZM9 12.9545C9 12.5403 8.66421 12.2045 8.25 12.2045C7.83579 12.2045 7.5 12.5403 7.5 12.9545V19.7045C7.5 20.1187 7.83579 20.4545 8.25 20.4545C8.66421 20.4545 9 20.1187 9 19.7045V12.9545Z" fill="black"/>
<path d="M12 8.07947C12.6213 8.07947 13.125 7.57579 13.125 6.95447C13.125 6.33315 12.6213 5.82947 12 5.82947C11.3787 5.82947 10.875 6.33315 10.875 6.95447C10.875 7.57579 11.3787 8.07947 12 8.07947Z" fill="black"/>
</svg>
