<svg width="24" height="25" viewBox="0 0 24 25" fill="none" xmlns="http://www.w3.org/2000/svg">
<path d="M5.22335 2.45447C4.72607 2.45447 4.24916 2.65201 3.89752 3.00364L2.59835 4.30282C1.13388 5.76728 1.13388 8.14165 2.59835 9.60612C3.93551 10.9433 6.03124 11.0595 7.50029 9.95485C8.12669 10.4251 8.90598 10.7045 9.75 10.7045C10.5941 10.7045 11.3736 10.425 12 9.95463C12.6264 10.425 13.4059 10.7045 14.25 10.7045C15.094 10.7045 15.8733 10.4251 16.4997 9.95485C17.9688 11.0595 20.0645 10.9433 21.4016 9.60612C22.8661 8.14165 22.8661 5.76728 21.4016 4.30282L20.1025 3.00365C19.7508 2.65202 19.2739 2.45447 18.7767 2.45447L5.22335 2.45447Z" fill="black"/>
<path fill-rule="evenodd" clip-rule="evenodd" d="M3 20.4545V11.6996C4.42021 12.373 6.0799 12.3726 7.50044 11.6988C8.18265 12.0227 8.94611 12.2045 9.75 12.2045C10.5541 12.2045 11.3177 12.0226 12 11.6986C12.6823 12.0226 13.4459 12.2045 14.25 12.2045C15.0539 12.2045 15.8173 12.0227 16.4996 11.6988C17.9201 12.3726 19.5798 12.373 21 11.6996V20.4545H21.75C22.1642 20.4545 22.5 20.7903 22.5 21.2045C22.5 21.6187 22.1642 21.9545 21.75 21.9545H2.25C1.83579 21.9545 1.5 21.6187 1.5 21.2045C1.5 20.7903 1.83579 20.4545 2.25 20.4545H3ZM6 14.4545C6 14.0403 6.33579 13.7045 6.75 13.7045H9.75C10.1642 13.7045 10.5 14.0403 10.5 14.4545V17.4545C10.5 17.8687 10.1642 18.2045 9.75 18.2045H6.75C6.33579 18.2045 6 17.8687 6 17.4545V14.4545ZM14.25 13.7045C13.8358 13.7045 13.5 14.0403 13.5 14.4545V19.7045C13.5 20.1187 13.8358 20.4545 14.25 20.4545H17.25C17.6642 20.4545 18 20.1187 18 19.7045V14.4545C18 14.0403 17.6642 13.7045 17.25 13.7045H14.25Z" fill="black"/>
</svg>
