<svg width="24" height="25" viewBox="0 0 24 25" fill="none" xmlns="http://www.w3.org/2000/svg">
<path fill-rule="evenodd" clip-rule="evenodd" d="M4.5 2.45447C4.08579 2.45447 3.75 2.79025 3.75 3.20447C3.75 3.61868 4.08579 3.95447 4.5 3.95447V20.4545H3.75C3.33579 20.4545 3 20.7903 3 21.2045C3 21.6187 3.33579 21.9545 3.75 21.9545H20.25C20.6642 21.9545 21 21.6187 21 21.2045C21 20.7903 20.6642 20.4545 20.25 20.4545H19.5V3.95447C19.9142 3.95447 20.25 3.61868 20.25 3.20447C20.25 2.79025 19.9142 2.45447 19.5 2.45447H4.5ZM9 6.20447C8.58579 6.20447 8.25 6.54025 8.25 6.95447C8.25 7.36868 8.58579 7.70447 9 7.70447H10.5C10.9142 7.70447 11.25 7.36868 11.25 6.95447C11.25 6.54025 10.9142 6.20447 10.5 6.20447H9ZM8.25 9.95447C8.25 9.54025 8.58579 9.20447 9 9.20447H10.5C10.9142 9.20447 11.25 9.54025 11.25 9.95447C11.25 10.3687 10.9142 10.7045 10.5 10.7045H9C8.58579 10.7045 8.25 10.3687 8.25 9.95447ZM9 12.2045C8.58579 12.2045 8.25 12.5403 8.25 12.9545C8.25 13.3687 8.58579 13.7045 9 13.7045H10.5C10.9142 13.7045 11.25 13.3687 11.25 12.9545C11.25 12.5403 10.9142 12.2045 10.5 12.2045H9ZM12.75 6.95447C12.75 6.54025 13.0858 6.20447 13.5 6.20447H15C15.4142 6.20447 15.75 6.54025 15.75 6.95447C15.75 7.36868 15.4142 7.70447 15 7.70447H13.5C13.0858 7.70447 12.75 7.36868 12.75 6.95447ZM13.5 9.20447C13.0858 9.20447 12.75 9.54025 12.75 9.95447C12.75 10.3687 13.0858 10.7045 13.5 10.7045H15C15.4142 10.7045 15.75 10.3687 15.75 9.95447C15.75 9.54025 15.4142 9.20447 15 9.20447H13.5ZM12.75 12.9545C12.75 12.5403 13.0858 12.2045 13.5 12.2045H15C15.4142 12.2045 15.75 12.5403 15.75 12.9545C15.75 13.3687 15.4142 13.7045 15 13.7045H13.5C13.0858 13.7045 12.75 13.3687 12.75 12.9545ZM9 19.7045V17.4545C9 17.0403 9.33579 16.7045 9.75 16.7045H14.25C14.6642 16.7045 15 17.0403 15 17.4545V19.7045C15 20.1187 14.6642 20.4545 14.25 20.4545H9.75C9.33579 20.4545 9 20.1187 9 19.7045Z" fill="black"/>
</svg>
