<svg width="24" height="25" viewBox="0 0 24 25" fill="none" xmlns="http://www.w3.org/2000/svg">
<path fill-rule="evenodd" clip-rule="evenodd" d="M3 2.45447C2.58579 2.45447 2.25 2.79025 2.25 3.20447C2.25 3.61868 2.58579 3.95447 3 3.95447V20.4545H2.25C1.83579 20.4545 1.5 20.7903 1.5 21.2045C1.5 21.6187 1.83579 21.9545 2.25 21.9545H15V3.95447C15.4142 3.95447 15.75 3.61868 15.75 3.20447C15.75 2.79025 15.4142 2.45447 15 2.45447H3ZM6.75 19.7045V17.4545C6.75 17.0403 7.08579 16.7045 7.5 16.7045H10.5C10.9142 16.7045 11.25 17.0403 11.25 17.4545V19.7045C11.25 20.1187 10.9142 20.4545 10.5 20.4545H7.5C7.08579 20.4545 6.75 20.1187 6.75 19.7045ZM6 6.95447C6 6.54025 6.33579 6.20447 6.75 6.20447H7.5C7.91421 6.20447 8.25 6.54025 8.25 6.95447C8.25 7.36868 7.91421 7.70447 7.5 7.70447H6.75C6.33579 7.70447 6 7.36868 6 6.95447ZM6.75 9.20447C6.33579 9.20447 6 9.54025 6 9.95447C6 10.3687 6.33579 10.7045 6.75 10.7045H7.5C7.91421 10.7045 8.25 10.3687 8.25 9.95447C8.25 9.54025 7.91421 9.20447 7.5 9.20447H6.75ZM6 12.9545C6 12.5403 6.33579 12.2045 6.75 12.2045H7.5C7.91421 12.2045 8.25 12.5403 8.25 12.9545C8.25 13.3687 7.91421 13.7045 7.5 13.7045H6.75C6.33579 13.7045 6 13.3687 6 12.9545ZM10.5 6.20447C10.0858 6.20447 9.75 6.54025 9.75 6.95447C9.75 7.36868 10.0858 7.70447 10.5 7.70447H11.25C11.6642 7.70447 12 7.36868 12 6.95447C12 6.54025 11.6642 6.20447 11.25 6.20447H10.5ZM9.75 9.95447C9.75 9.54025 10.0858 9.20447 10.5 9.20447H11.25C11.6642 9.20447 12 9.54025 12 9.95447C12 10.3687 11.6642 10.7045 11.25 10.7045H10.5C10.0858 10.7045 9.75 10.3687 9.75 9.95447ZM10.5 12.2045C10.0858 12.2045 9.75 12.5403 9.75 12.9545C9.75 13.3687 10.0858 13.7045 10.5 13.7045H11.25C11.6642 13.7045 12 13.3687 12 12.9545C12 12.5403 11.6642 12.2045 11.25 12.2045H10.5Z" fill="black"/>
<path fill-rule="evenodd" clip-rule="evenodd" d="M16.5 6.95447V21.9545H21.75C22.1642 21.9545 22.5 21.6187 22.5 21.2045C22.5 20.7903 22.1642 20.4545 21.75 20.4545H21V8.45447C21.4142 8.45447 21.75 8.11868 21.75 7.70447C21.75 7.29025 21.4142 6.95447 21 6.95447H16.5ZM18 11.4545C18 11.0403 18.3358 10.7045 18.75 10.7045H18.7575C19.1717 10.7045 19.5075 11.0403 19.5075 11.4545V11.462C19.5075 11.8762 19.1717 12.212 18.7575 12.212H18.75C18.3358 12.212 18 11.8762 18 11.462V11.4545ZM18.75 13.7045C18.3358 13.7045 18 14.0403 18 14.4545V14.462C18 14.8762 18.3358 15.212 18.75 15.212H18.7575C19.1717 15.212 19.5075 14.8762 19.5075 14.462V14.4545C19.5075 14.0403 19.1717 13.7045 18.7575 13.7045H18.75ZM18 17.4545C18 17.0403 18.3358 16.7045 18.75 16.7045H18.7575C19.1717 16.7045 19.5075 17.0403 19.5075 17.4545V17.462C19.5075 17.8762 19.1717 18.212 18.7575 18.212H18.75C18.3358 18.212 18 17.8762 18 17.462V17.4545Z" fill="black"/>
</svg>
