<svg width="24" height="25" viewBox="0 0 24 25" fill="none" xmlns="http://www.w3.org/2000/svg">
<path d="M15 1.98853L14.2045 2.78403C13.7652 3.22337 13.7652 3.93568 14.2045 4.37502C14.6438 4.81436 15.3562 4.81436 15.7955 4.37502C16.2348 3.93568 16.2348 3.22337 15.7955 2.78403L15 1.98853Z" fill="black"/>
<path d="M12 1.98853L11.2045 2.78403C10.7652 3.22337 10.7652 3.93568 11.2045 4.37502C11.6438 4.81436 12.3562 4.81436 12.7955 4.37502C13.2348 3.93568 13.2348 3.22337 12.7955 2.78403L12 1.98853Z" fill="black"/>
<path d="M8.99999 1.98853L8.2045 2.78403C7.76516 3.22337 7.76516 3.93568 8.2045 4.37502C8.64384 4.81436 9.35616 4.81436 9.7955 4.37502C10.2348 3.93568 10.2348 3.22337 9.7955 2.78403L8.99999 1.98853Z" fill="black"/>
<path d="M9.75 7.75122C10.2483 7.7305 10.7483 7.71663 11.25 7.7097V6.95453C11.25 6.54032 11.5858 6.20453 12 6.20453C12.4142 6.20453 12.75 6.54032 12.75 6.95453V7.7097C13.2517 7.71663 13.7517 7.7305 14.25 7.75122V6.95453C14.25 6.54032 14.5858 6.20453 15 6.20453C15.4142 6.20453 15.75 6.54032 15.75 6.95453V7.83455C15.8524 7.84168 15.9547 7.84909 16.0569 7.85679C17.6071 7.97359 18.75 9.28385 18.75 10.8022V11.8207C16.5333 11.5787 14.2811 11.4545 12 11.4545C9.71886 11.4545 7.46673 11.5787 5.25 11.8207V10.8022C5.25 9.28385 6.39295 7.97359 7.94314 7.85679C8.04534 7.84909 8.14763 7.84168 8.25 7.83455V6.95453C8.25 6.54032 8.58579 6.20453 9 6.20453C9.41421 6.20453 9.75 6.54032 9.75 6.95453V7.75122Z" fill="black"/>
<path d="M12 12.9545C9.52847 12.9545 7.09944 13.1385 4.72596 13.4936C3.27191 13.7112 2.25 14.9762 2.25 16.4102V16.7945C3.11853 16.6331 4.02704 16.7545 4.83541 17.1587C5.56854 17.5253 6.43146 17.5253 7.16459 17.1587C8.32001 16.581 9.67999 16.581 10.8354 17.1587C11.5685 17.5253 12.4315 17.5253 13.1646 17.1587C14.32 16.581 15.68 16.581 16.8354 17.1587C17.5685 17.5253 18.4315 17.5253 19.1646 17.1587C19.973 16.7545 20.8815 16.6331 21.75 16.7945V16.4102C21.75 14.9762 20.7281 13.7112 19.274 13.4936C16.9006 13.1385 14.4715 12.9545 12 12.9545Z" fill="black"/>
<path d="M21.75 18.3357C21.1195 18.1461 20.4342 18.201 19.8354 18.5004C18.68 19.0781 17.32 19.0781 16.1646 18.5004C15.4315 18.1338 14.5685 18.1338 13.8354 18.5004C12.68 19.0781 11.32 19.0781 10.1646 18.5004C9.43146 18.1338 8.56854 18.1338 7.83541 18.5004C6.67999 19.0781 5.32001 19.0781 4.16459 18.5004C3.56583 18.201 2.88049 18.1461 2.25 18.3357V20.8295C2.25 21.8651 3.08947 22.7045 4.125 22.7045H19.875C20.9105 22.7045 21.75 21.8651 21.75 20.8295V18.3357Z" fill="black"/>
</svg>
