<svg width="24" height="25" viewBox="0 0 24 25" fill="none" xmlns="http://www.w3.org/2000/svg">
<path fill-rule="evenodd" clip-rule="evenodd" d="M6.32022 2.03188C8.18374 1.81561 10.079 1.70447 12 1.70447C13.921 1.70447 15.8163 1.81561 17.6798 2.03188C19.1772 2.20565 20.25 3.49169 20.25 4.96145V19.7045C20.25 21.3613 18.9069 22.7045 17.25 22.7045H6.75C5.09315 22.7045 3.75 21.3613 3.75 19.7045V4.96145C3.75 3.49169 4.82283 2.20565 6.32022 2.03188ZM7.5 11.4545C7.5 11.0403 7.83579 10.7045 8.25 10.7045H8.2575C8.67171 10.7045 9.0075 11.0403 9.0075 11.4545V11.462C9.0075 11.8762 8.67171 12.212 8.2575 12.212H8.25C7.83579 12.212 7.5 11.8762 7.5 11.462V11.4545ZM8.25 12.9545C7.83579 12.9545 7.5 13.2903 7.5 13.7045V13.712C7.5 14.1262 7.83579 14.462 8.25 14.462H8.2575C8.67171 14.462 9.0075 14.1262 9.0075 13.712V13.7045C9.0075 13.2903 8.67171 12.9545 8.2575 12.9545H8.25ZM7.5 15.9545C7.5 15.5403 7.83579 15.2045 8.25 15.2045H8.2575C8.67171 15.2045 9.0075 15.5403 9.0075 15.9545V15.962C9.0075 16.3762 8.67171 16.712 8.2575 16.712H8.25C7.83579 16.712 7.5 16.3762 7.5 15.962V15.9545ZM8.25 17.4545C7.83579 17.4545 7.5 17.7903 7.5 18.2045V18.212C7.5 18.6262 7.83579 18.962 8.25 18.962H8.2575C8.67171 18.962 9.0075 18.6262 9.0075 18.212V18.2045C9.0075 17.7903 8.67171 17.4545 8.2575 17.4545H8.25ZM9.99756 11.4545C9.99756 11.0403 10.3333 10.7045 10.7476 10.7045H10.7551C11.1693 10.7045 11.5051 11.0403 11.5051 11.4545V11.462C11.5051 11.8762 11.1693 12.212 10.7551 12.212H10.7476C10.3333 12.212 9.99756 11.8762 9.99756 11.462V11.4545ZM10.7476 12.9545C10.3333 12.9545 9.99756 13.2903 9.99756 13.7045V13.712C9.99756 14.1262 10.3333 14.462 10.7476 14.462H10.7551C11.1693 14.462 11.5051 14.1262 11.5051 13.712V13.7045C11.5051 13.2903 11.1693 12.9545 10.7551 12.9545H10.7476ZM9.99756 15.9545C9.99756 15.5403 10.3333 15.2045 10.7476 15.2045H10.7551C11.1693 15.2045 11.5051 15.5403 11.5051 15.9545V15.962C11.5051 16.3762 11.1693 16.712 10.7551 16.712H10.7476C10.3333 16.712 9.99756 16.3762 9.99756 15.962V15.9545ZM10.7476 17.4545C10.3333 17.4545 9.99756 17.7903 9.99756 18.2045V18.212C9.99756 18.6262 10.3333 18.962 10.7476 18.962H10.7551C11.1693 18.962 11.5051 18.6262 11.5051 18.212V18.2045C11.5051 17.7903 11.1693 17.4545 10.7551 17.4545H10.7476ZM12.5024 11.4545C12.5024 11.0403 12.8382 10.7045 13.2524 10.7045H13.2599C13.6742 10.7045 14.0099 11.0403 14.0099 11.4545V11.462C14.0099 11.8762 13.6742 12.212 13.2599 12.212H13.2524C12.8382 12.212 12.5024 11.8762 12.5024 11.462V11.4545ZM13.2524 12.9545C12.8382 12.9545 12.5024 13.2903 12.5024 13.7045V13.712C12.5024 14.1262 12.8382 14.462 13.2524 14.462H13.2599C13.6742 14.462 14.0099 14.1262 14.0099 13.712V13.7045C14.0099 13.2903 13.6742 12.9545 13.2599 12.9545H13.2524ZM12.5024 15.9545C12.5024 15.5403 12.8382 15.2045 13.2524 15.2045H13.2599C13.6742 15.2045 14.0099 15.5403 14.0099 15.9545V15.962C14.0099 16.3762 13.6742 16.712 13.2599 16.712H13.2524C12.8382 16.712 12.5024 16.3762 12.5024 15.962V15.9545ZM13.2524 17.4545C12.8382 17.4545 12.5024 17.7903 12.5024 18.2045V18.212C12.5024 18.6262 12.8382 18.962 13.2524 18.962H13.2599C13.6742 18.962 14.0099 18.6262 14.0099 18.212V18.2045C14.0099 17.7903 13.6742 17.4545 13.2599 17.4545H13.2524ZM15 11.4545C15 11.0403 15.3358 10.7045 15.75 10.7045H15.7575C16.1717 10.7045 16.5075 11.0403 16.5075 11.4545V11.462C16.5075 11.8762 16.1717 12.212 15.7575 12.212H15.75C15.3358 12.212 15 11.8762 15 11.462V11.4545ZM15.75 12.9545C15.3358 12.9545 15 13.2903 15 13.7045V13.712C15 14.1262 15.3358 14.462 15.75 14.462H15.7575C16.1717 14.462 16.5075 14.1262 16.5075 13.712V13.7045C16.5075 13.2903 16.1717 12.9545 15.7575 12.9545H15.75ZM7.5 6.95447C7.5 6.54025 7.83579 6.20447 8.25 6.20447H15.75C16.1642 6.20447 16.5 6.54025 16.5 6.95447V7.70447C16.5 8.11868 16.1642 8.45447 15.75 8.45447H8.25C7.83579 8.45447 7.5 8.11868 7.5 7.70447V6.95447ZM16.5 15.9545C16.5 15.5403 16.1642 15.2045 15.75 15.2045C15.3358 15.2045 15 15.5403 15 15.9545V18.2045C15 18.6187 15.3358 18.9545 15.75 18.9545C16.1642 18.9545 16.5 18.6187 16.5 18.2045V15.9545Z" fill="black"/>
</svg>
