<svg width="24" height="25" viewBox="0 0 24 25" fill="none" xmlns="http://www.w3.org/2000/svg">
<path fill-rule="evenodd" clip-rule="evenodd" d="M6.75 2.45447C7.16421 2.45447 7.5 2.79025 7.5 3.20447V4.70447H16.5V3.20447C16.5 2.79025 16.8358 2.45447 17.25 2.45447C17.6642 2.45447 18 2.79025 18 3.20447V4.70447H18.75C20.4069 4.70447 21.75 6.04761 21.75 7.70447V18.9545C21.75 20.6113 20.4069 21.9545 18.75 21.9545H5.25C3.59315 21.9545 2.25 20.6113 2.25 18.9545V7.70447C2.25 6.04761 3.59315 4.70447 5.25 4.70447H6V3.20447C6 2.79025 6.33579 2.45447 6.75 2.45447ZM20.25 11.4545C20.25 10.626 19.5784 9.95447 18.75 9.95447H5.25C4.42157 9.95447 3.75 10.626 3.75 11.4545V18.9545C3.75 19.7829 4.42157 20.4545 5.25 20.4545H18.75C19.5784 20.4545 20.25 19.7829 20.25 18.9545V11.4545Z" fill="black"/>
</svg>
