<svg width="24" height="25" viewBox="0 0 24 25" fill="none" xmlns="http://www.w3.org/2000/svg">
<path d="M12.75 12.9545C12.75 13.3687 12.4142 13.7045 12 13.7045C11.5858 13.7045 11.25 13.3687 11.25 12.9545C11.25 12.5403 11.5858 12.2045 12 12.2045C12.4142 12.2045 12.75 12.5403 12.75 12.9545Z" fill="black"/>
<path d="M7.5 15.9545C7.91421 15.9545 8.25 15.6187 8.25 15.2045C8.25 14.7903 7.91421 14.4545 7.5 14.4545C7.08579 14.4545 6.75 14.7903 6.75 15.2045C6.75 15.6187 7.08579 15.9545 7.5 15.9545Z" fill="black"/>
<path d="M8.25 17.4545C8.25 17.8687 7.91421 18.2045 7.5 18.2045C7.08579 18.2045 6.75 17.8687 6.75 17.4545C6.75 17.0403 7.08579 16.7045 7.5 16.7045C7.91421 16.7045 8.25 17.0403 8.25 17.4545Z" fill="black"/>
<path d="M9.75 15.9545C10.1642 15.9545 10.5 15.6187 10.5 15.2045C10.5 14.7903 10.1642 14.4545 9.75 14.4545C9.33579 14.4545 9 14.7903 9 15.2045C9 15.6187 9.33579 15.9545 9.75 15.9545Z" fill="black"/>
<path d="M10.5 17.4545C10.5 17.8687 10.1642 18.2045 9.75 18.2045C9.33579 18.2045 9 17.8687 9 17.4545C9 17.0403 9.33579 16.7045 9.75 16.7045C10.1642 16.7045 10.5 17.0403 10.5 17.4545Z" fill="black"/>
<path d="M12 15.9545C12.4142 15.9545 12.75 15.6187 12.75 15.2045C12.75 14.7903 12.4142 14.4545 12 14.4545C11.5858 14.4545 11.25 14.7903 11.25 15.2045C11.25 15.6187 11.5858 15.9545 12 15.9545Z" fill="black"/>
<path d="M12.75 17.4545C12.75 17.8687 12.4142 18.2045 12 18.2045C11.5858 18.2045 11.25 17.8687 11.25 17.4545C11.25 17.0403 11.5858 16.7045 12 16.7045C12.4142 16.7045 12.75 17.0403 12.75 17.4545Z" fill="black"/>
<path d="M14.25 15.9545C14.6642 15.9545 15 15.6187 15 15.2045C15 14.7903 14.6642 14.4545 14.25 14.4545C13.8358 14.4545 13.5 14.7903 13.5 15.2045C13.5 15.6187 13.8358 15.9545 14.25 15.9545Z" fill="black"/>
<path d="M15 17.4545C15 17.8687 14.6642 18.2045 14.25 18.2045C13.8358 18.2045 13.5 17.8687 13.5 17.4545C13.5 17.0403 13.8358 16.7045 14.25 16.7045C14.6642 16.7045 15 17.0403 15 17.4545Z" fill="black"/>
<path d="M16.5 15.9545C16.9142 15.9545 17.25 15.6187 17.25 15.2045C17.25 14.7903 16.9142 14.4545 16.5 14.4545C16.0858 14.4545 15.75 14.7903 15.75 15.2045C15.75 15.6187 16.0858 15.9545 16.5 15.9545Z" fill="black"/>
<path d="M15 12.9545C15 13.3687 14.6642 13.7045 14.25 13.7045C13.8358 13.7045 13.5 13.3687 13.5 12.9545C13.5 12.5403 13.8358 12.2045 14.25 12.2045C14.6642 12.2045 15 12.5403 15 12.9545Z" fill="black"/>
<path d="M16.5 13.7045C16.9142 13.7045 17.25 13.3687 17.25 12.9545C17.25 12.5403 16.9142 12.2045 16.5 12.2045C16.0858 12.2045 15.75 12.5403 15.75 12.9545C15.75 13.3687 16.0858 13.7045 16.5 13.7045Z" fill="black"/>
<path fill-rule="evenodd" clip-rule="evenodd" d="M6.75 2.45447C7.16421 2.45447 7.5 2.79025 7.5 3.20447V4.70447H16.5V3.20447C16.5 2.79025 16.8358 2.45447 17.25 2.45447C17.6642 2.45447 18 2.79025 18 3.20447V4.70447H18.75C20.4069 4.70447 21.75 6.04761 21.75 7.70447V18.9545C21.75 20.6113 20.4069 21.9545 18.75 21.9545H5.25C3.59315 21.9545 2.25 20.6113 2.25 18.9545V7.70447C2.25 6.04761 3.59315 4.70447 5.25 4.70447H6V3.20447C6 2.79025 6.33579 2.45447 6.75 2.45447ZM20.25 11.4545C20.25 10.626 19.5784 9.95447 18.75 9.95447H5.25C4.42157 9.95447 3.75 10.626 3.75 11.4545V18.9545C3.75 19.7829 4.42157 20.4545 5.25 20.4545H18.75C19.5784 20.4545 20.25 19.7829 20.25 18.9545V11.4545Z" fill="black"/>
</svg>
