<svg width="24" height="25" viewBox="0 0 24 25" fill="none" xmlns="http://www.w3.org/2000/svg">
<path d="M12 9.20447C9.92893 9.20447 8.25 10.8834 8.25 12.9545C8.25 15.0255 9.92893 16.7045 12 16.7045C14.0711 16.7045 15.75 15.0255 15.75 12.9545C15.75 10.8834 14.0711 9.20447 12 9.20447Z" fill="black"/>
<path fill-rule="evenodd" clip-rule="evenodd" d="M9.34429 3.27559C10.2236 3.22838 11.109 3.20447 12 3.20447C12.891 3.20447 13.7764 3.22838 14.6557 3.27559C15.6233 3.32755 16.4854 3.86059 16.9882 4.66631L17.8094 5.98232C18.0485 6.36546 18.4544 6.62578 18.9195 6.69188C19.3049 6.74664 19.6888 6.80592 20.0713 6.86965C21.5031 7.10825 22.5 8.36232 22.5 9.77849V18.2045C22.5 19.8613 21.1569 21.2045 19.5 21.2045H4.5C2.84315 21.2045 1.5 19.8613 1.5 18.2045V9.77849C1.5 8.36231 2.49686 7.10824 3.92872 6.86964C4.31116 6.80591 4.6951 6.74664 5.08048 6.69187C5.54556 6.62578 5.95152 6.36545 6.19061 5.98232L7.01181 4.66631C7.5146 3.86059 8.37667 3.32755 9.34429 3.27559ZM6.75 12.9545C6.75 10.055 9.1005 7.70447 12 7.70447C14.8995 7.70447 17.25 10.055 17.25 12.9545C17.25 15.854 14.8995 18.2045 12 18.2045C9.1005 18.2045 6.75 15.854 6.75 12.9545ZM18.75 11.4545C19.1642 11.4545 19.5 11.1187 19.5 10.7045C19.5 10.2903 19.1642 9.95447 18.75 9.95447C18.3358 9.95447 18 10.2903 18 10.7045C18 11.1187 18.3358 11.4545 18.75 11.4545Z" fill="black"/>
</svg>
