<svg width="24" height="25" viewBox="0 0 24 25" fill="none" xmlns="http://www.w3.org/2000/svg">
<path d="M18.375 2.45447C17.3395 2.45447 16.5 3.29393 16.5 4.32947V20.0795C16.5 21.115 17.3395 21.9545 18.375 21.9545H19.125C20.1605 21.9545 21 21.115 21 20.0795V4.32947C21 3.29393 20.1605 2.45447 19.125 2.45447H18.375Z" fill="black"/>
<path d="M9.75 8.82947C9.75 7.79393 10.5895 6.95447 11.625 6.95447H12.375C13.4105 6.95447 14.25 7.79393 14.25 8.82947V20.0795C14.25 21.115 13.4105 21.9545 12.375 21.9545H11.625C10.5895 21.9545 9.75 21.115 9.75 20.0795V8.82947Z" fill="black"/>
<path d="M3 13.3295C3 12.2939 3.83947 11.4545 4.875 11.4545H5.625C6.66053 11.4545 7.5 12.2939 7.5 13.3295V20.0795C7.5 21.115 6.66053 21.9545 5.625 21.9545H4.875C3.83947 21.9545 3 21.115 3 20.0795V13.3295Z" fill="black"/>
</svg>
