<svg width="24" height="25" viewBox="0 0 24 25" fill="none" xmlns="http://www.w3.org/2000/svg">
<path fill-rule="evenodd" clip-rule="evenodd" d="M2.25 13.7045C2.25 9.14812 5.94365 5.45447 10.5 5.45447C10.9142 5.45447 11.25 5.79025 11.25 6.20447V12.9545H18C18.4142 12.9545 18.75 13.2903 18.75 13.7045C18.75 18.2608 15.0563 21.9545 10.5 21.9545C5.94365 21.9545 2.25 18.2608 2.25 13.7045Z" fill="black"/>
<path fill-rule="evenodd" clip-rule="evenodd" d="M12.75 3.20447C12.75 2.79025 13.0858 2.45447 13.5 2.45447C18.0563 2.45447 21.75 6.14812 21.75 10.7045C21.75 11.1187 21.4142 11.4545 21 11.4545H13.5C13.0858 11.4545 12.75 11.1187 12.75 10.7045V3.20447Z" fill="black"/>
</svg>
