<svg width="24" height="25" viewBox="0 0 24 25" fill="none" xmlns="http://www.w3.org/2000/svg">
<path fill-rule="evenodd" clip-rule="evenodd" d="M3 6.20447C3 4.54761 4.34315 3.20447 6 3.20447H18C19.6569 3.20447 21 4.54761 21 6.20447V18.2045C21 19.8613 19.6569 21.2045 18 21.2045H6C4.34315 21.2045 3 19.8613 3 18.2045V6.20447ZM7.5 13.7045C7.91421 13.7045 8.25 14.0403 8.25 14.4545V16.7045C8.25 17.1187 7.91421 17.4545 7.5 17.4545C7.08579 17.4545 6.75 17.1187 6.75 16.7045V14.4545C6.75 14.0403 7.08579 13.7045 7.5 13.7045ZM11.25 12.2045C11.25 11.7903 10.9142 11.4545 10.5 11.4545C10.0858 11.4545 9.75 11.7903 9.75 12.2045V16.7045C9.75 17.1187 10.0858 17.4545 10.5 17.4545C10.9142 17.4545 11.25 17.1187 11.25 16.7045V12.2045ZM13.5 9.20447C13.9142 9.20447 14.25 9.54025 14.25 9.95447V16.7045C14.25 17.1187 13.9142 17.4545 13.5 17.4545C13.0858 17.4545 12.75 17.1187 12.75 16.7045V9.95447C12.75 9.54025 13.0858 9.20447 13.5 9.20447ZM17.25 7.70447C17.25 7.29025 16.9142 6.95447 16.5 6.95447C16.0858 6.95447 15.75 7.29025 15.75 7.70447V16.7045C15.75 17.1187 16.0858 17.4545 16.5 17.4545C16.9142 17.4545 17.25 17.1187 17.25 16.7045V7.70447Z" fill="black"/>
</svg>
