<svg width="24" height="25" viewBox="0 0 24 25" fill="none" xmlns="http://www.w3.org/2000/svg">
<path fill-rule="evenodd" clip-rule="evenodd" d="M4.84836 2.97547C7.18302 2.6322 9.57113 2.45447 12.0003 2.45447C14.4292 2.45447 16.8171 2.63216 19.1516 2.97538C21.1299 3.26624 22.5 4.99891 22.5 6.94502V12.9639C22.5 14.91 21.1299 16.6427 19.1516 16.9336C18.0054 17.1021 16.8464 17.2307 15.6759 17.318C15.5514 17.3272 15.4431 17.392 15.379 17.488L12.624 21.6205C12.4849 21.8291 12.2508 21.9545 12 21.9545C11.7492 21.9545 11.5151 21.8291 11.376 21.6205L8.62092 17.4879C8.5569 17.3919 8.44853 17.3272 8.32408 17.3179C7.15358 17.2306 5.99452 17.102 4.84836 16.9334C2.87004 16.6426 1.5 14.9099 1.5 12.9638V6.94511C1.5 4.99902 2.87004 3.26635 4.84836 2.97547ZM6.75 8.45447C6.75 8.04025 7.08579 7.70447 7.5 7.70447H16.5C16.9142 7.70447 17.25 8.04025 17.25 8.45447C17.25 8.86868 16.9142 9.20447 16.5 9.20447H7.5C7.08579 9.20447 6.75 8.86868 6.75 8.45447ZM7.5 10.7045C7.08579 10.7045 6.75 11.0403 6.75 11.4545C6.75 11.8687 7.08579 12.2045 7.5 12.2045H12C12.4142 12.2045 12.75 11.8687 12.75 11.4545C12.75 11.0403 12.4142 10.7045 12 10.7045H7.5Z" fill="black"/>
</svg>
