<svg width="24" height="25" viewBox="0 0 24 25" fill="none" xmlns="http://www.w3.org/2000/svg">
<path fill-rule="evenodd" clip-rule="evenodd" d="M4.84836 2.97547C7.18302 2.6322 9.57113 2.45447 12.0003 2.45447C14.4292 2.45447 16.8171 2.63216 19.1516 2.97538C21.1299 3.26624 22.5 4.99891 22.5 6.94502V12.9639C22.5 14.91 21.1299 16.6427 19.1516 16.9336C17.2123 17.2187 15.2361 17.3896 13.2302 17.4393C13.1266 17.4418 13.0318 17.4833 12.9638 17.5513L8.78033 21.7348C8.56583 21.9493 8.24324 22.0135 7.96299 21.8974C7.68273 21.7813 7.5 21.5078 7.5 21.2045V17.2495C6.60901 17.1679 5.72491 17.0623 4.84836 16.9334C2.87004 16.6426 1.5 14.9099 1.5 12.9638V6.94511C1.5 4.99902 2.87004 3.26635 4.84836 2.97547Z" fill="black"/>
</svg>
