<svg width="24" height="25" viewBox="0 0 24 25" fill="none" xmlns="http://www.w3.org/2000/svg">
<path fill-rule="evenodd" clip-rule="evenodd" d="M4.80365 21.8487C4.9793 21.8802 5.15732 21.9048 5.33691 21.9223C5.55516 21.9436 5.77647 21.9545 6 21.9545C7.3153 21.9545 8.54447 21.5775 9.58317 20.9258C10.3569 21.1079 11.1668 21.2045 12 21.2045C17.322 21.2045 21.75 17.2351 21.75 12.2045C21.75 7.17381 17.322 3.20447 12 3.20447C6.67799 3.20447 2.25 7.17381 2.25 12.2045C2.25 14.613 3.2746 16.7916 4.92371 18.3968C5.15571 18.6226 5.20107 18.8241 5.17822 18.9393C5.05254 19.5729 4.76687 20.1496 4.36357 20.6256C4.19016 20.8303 4.13927 21.112 4.23008 21.3644C4.3209 21.6168 4.5396 21.8014 4.80365 21.8487ZM8.25 11.0795C7.62868 11.0795 7.125 11.5831 7.125 12.2045C7.125 12.8258 7.62868 13.3295 8.25 13.3295C8.87132 13.3295 9.375 12.8258 9.375 12.2045C9.375 11.5831 8.87132 11.0795 8.25 11.0795ZM10.875 12.2045C10.875 11.5831 11.3787 11.0795 12 11.0795C12.6213 11.0795 13.125 11.5831 13.125 12.2045C13.125 12.8258 12.6213 13.3295 12 13.3295C11.3787 13.3295 10.875 12.8258 10.875 12.2045ZM15.75 11.0795C15.1287 11.0795 14.625 11.5831 14.625 12.2045C14.625 12.8258 15.1287 13.3295 15.75 13.3295C16.3713 13.3295 16.875 12.8258 16.875 12.2045C16.875 11.5831 16.3713 11.0795 15.75 11.0795Z" fill="black"/>
</svg>
