<svg width="24" height="25" viewBox="0 0 24 25" fill="none" xmlns="http://www.w3.org/2000/svg">
<path fill-rule="evenodd" clip-rule="evenodd" d="M12.0003 2.45447C9.57113 2.45447 7.18302 2.6322 4.84836 2.97547C2.87004 3.26635 1.5 4.99902 1.5 6.94511V12.9638C1.5 14.9099 2.87004 16.6426 4.84836 16.9334C5.72491 17.0623 6.60901 17.1679 7.5 17.2495V21.2045C7.5 21.5078 7.68273 21.7813 7.96299 21.8974C8.24324 22.0135 8.56583 21.9493 8.78033 21.7348L12.9638 17.5513C13.0318 17.4833 13.1266 17.4418 13.2302 17.4393C15.2361 17.3896 17.2123 17.2187 19.1516 16.9336C21.1299 16.6427 22.5 14.91 22.5 12.9639V6.94502C22.5 4.99891 21.1299 3.26624 19.1516 2.97538C16.8171 2.63216 14.4292 2.45447 12.0003 2.45447ZM8.25 8.82947C7.62868 8.82947 7.125 9.33315 7.125 9.95447C7.125 10.5758 7.62868 11.0795 8.25 11.0795C8.87132 11.0795 9.375 10.5758 9.375 9.95447C9.375 9.33315 8.87132 8.82947 8.25 8.82947ZM10.875 9.95447C10.875 9.33315 11.3787 8.82947 12 8.82947C12.6213 8.82947 13.125 9.33315 13.125 9.95447C13.125 10.5758 12.6213 11.0795 12 11.0795C11.3787 11.0795 10.875 10.5758 10.875 9.95447ZM15.75 8.82947C15.1287 8.82947 14.625 9.33315 14.625 9.95447C14.625 10.5758 15.1287 11.0795 15.75 11.0795C16.3713 11.0795 16.875 10.5758 16.875 9.95447C16.875 9.33315 16.3713 8.82947 15.75 8.82947Z" fill="black"/>
</svg>
