<svg width="24" height="25" viewBox="0 0 24 25" fill="none" xmlns="http://www.w3.org/2000/svg">
<path fill-rule="evenodd" clip-rule="evenodd" d="M5.33691 21.9223C5.15732 21.9048 4.9793 21.8802 4.80365 21.8487C4.5396 21.8014 4.3209 21.6168 4.23008 21.3644C4.13927 21.112 4.19016 20.8303 4.36357 20.6256C4.76687 20.1496 5.05254 19.5729 5.17822 18.9393C5.20107 18.8241 5.15571 18.6226 4.92371 18.3968C3.2746 16.7916 2.25 14.613 2.25 12.2045C2.25 7.17381 6.67799 3.20447 12 3.20447C17.322 3.20447 21.75 7.17381 21.75 12.2045C21.75 17.2351 17.322 21.2045 12 21.2045C11.1668 21.2045 10.3569 21.1079 9.58317 20.9258C8.54447 21.5775 7.3153 21.9545 6 21.9545C5.77647 21.9545 5.55516 21.9436 5.33691 21.9223Z" fill="black"/>
</svg>
