<svg width="24" height="25" viewBox="0 0 24 25" fill="none" xmlns="http://www.w3.org/2000/svg">
<path d="M4.91307 2.8627C6.9877 2.59335 9.10296 2.45447 11.2503 2.45447C13.3974 2.45447 15.5124 2.59332 17.5869 2.86262C19.5091 3.11216 20.8783 4.72384 20.9923 6.58941C20.6665 6.48061 20.3212 6.40843 19.96 6.37846C18.5715 6.26321 17.1673 6.20447 15.75 6.20447C14.3326 6.20447 12.9285 6.2632 11.54 6.37845C9.1817 6.57418 7.5 8.56913 7.5 10.8127V15.0982C7.5 16.7888 8.45468 18.3371 9.9328 19.0823L7.28033 21.7348C7.06583 21.9493 6.74324 22.0135 6.46299 21.8974C6.18273 21.7813 6 21.5078 6 21.2045V17.175C5.63649 17.1361 5.27417 17.0931 4.91308 17.0463C2.90466 16.7855 1.5 15.0378 1.5 13.0671V6.84185C1.5 4.87119 2.90466 3.12345 4.91307 2.8627Z" fill="black"/>
<path d="M15.75 7.70447C14.3741 7.70447 13.0114 7.76148 11.6641 7.87331C10.1248 8.00107 9 9.30728 9 10.8127V15.0982C9 16.6058 10.128 17.9128 11.6692 18.0386C12.9131 18.1401 14.17 18.1957 15.4384 18.2035L18.2197 20.9848C18.4342 21.1993 18.7568 21.2635 19.037 21.1474C19.3173 21.0313 19.5 20.7578 19.5 20.4545V18.0646C19.6103 18.0563 19.7206 18.0477 19.8307 18.0387C21.372 17.9129 22.5 16.606 22.5 15.0982V10.8127C22.5 9.30729 21.3752 8.00108 19.836 7.87332C18.4886 7.76149 17.1259 7.70447 15.75 7.70447Z" fill="black"/>
</svg>
