<svg width="24" height="25" viewBox="0 0 24 25" fill="none" xmlns="http://www.w3.org/2000/svg">
<path fill-rule="evenodd" clip-rule="evenodd" d="M2.25 12.2046C2.25 6.81981 6.61522 2.45459 12 2.45459C17.3848 2.45459 21.75 6.81981 21.75 12.2046C21.75 17.5894 17.3848 21.9546 12 21.9546C6.61522 21.9546 2.25 17.5894 2.25 12.2046ZM15.6103 10.3905C15.8511 10.0535 15.773 9.58505 15.4359 9.34429C15.0989 9.10353 14.6305 9.1816 14.3897 9.51866L11.1543 14.0482L9.53033 12.4243C9.23744 12.1314 8.76256 12.1314 8.46967 12.4243C8.17678 12.7172 8.17678 13.192 8.46967 13.4849L10.7197 15.7349C10.8756 15.8908 11.0921 15.9702 11.3119 15.952C11.5316 15.9339 11.7322 15.8199 11.8603 15.6405L15.6103 10.3905Z" fill="black"/>
</svg>
