<svg width="24" height="25" viewBox="0 0 24 25" fill="none" xmlns="http://www.w3.org/2000/svg">
<path fill-rule="evenodd" clip-rule="evenodd" d="M11.4697 4.92426C11.7626 4.63137 12.2374 4.63137 12.5303 4.92426L20.0303 12.4243C20.3232 12.7172 20.3232 13.192 20.0303 13.4849C19.7374 13.7778 19.2626 13.7778 18.9697 13.4849L12 6.51525L5.03033 13.4849C4.73744 13.7778 4.26256 13.7778 3.96967 13.4849C3.67678 13.192 3.67678 12.7172 3.96967 12.4243L11.4697 4.92426ZM12 12.5152L5.03033 19.4849C4.73744 19.7778 4.26256 19.7778 3.96967 19.4849C3.67678 19.192 3.67678 18.7172 3.96967 18.4243L11.4697 10.9243C11.7626 10.6314 12.2374 10.6314 12.5303 10.9243L20.0303 18.4243C20.3232 18.7172 20.3232 19.192 20.0303 19.4849C19.7374 19.7778 19.2626 19.7778 18.9697 19.4849L12 12.5152Z" fill="black"/>
</svg>
