<svg width="24" height="25" viewBox="0 0 24 25" fill="none" xmlns="http://www.w3.org/2000/svg">
<path fill-rule="evenodd" clip-rule="evenodd" d="M20.0303 4.92426C20.3232 5.21715 20.3232 5.69203 20.0303 5.98492L12.5303 13.4849C12.2374 13.7778 11.7626 13.7778 11.4697 13.4849L3.96967 5.98492C3.67678 5.69203 3.67678 5.21715 3.96967 4.92426C4.26256 4.63137 4.73744 4.63137 5.03033 4.92426L12 11.8939L18.9697 4.92426C19.2626 4.63137 19.7374 4.63137 20.0303 4.92426ZM20.0303 10.9243C20.3232 11.2172 20.3232 11.692 20.0303 11.9849L12.5303 19.4849C12.2374 19.7778 11.7626 19.7778 11.4697 19.4849L3.96967 11.9849C3.67678 11.692 3.67678 11.2172 3.96967 10.9243C4.26256 10.6314 4.73744 10.6314 5.03033 10.9243L12 17.8939L18.9697 10.9243C19.2626 10.6314 19.7374 10.6314 20.0303 10.9243Z" fill="black"/>
</svg>
