<svg width="24" height="25" viewBox="0 0 24 25" fill="none" xmlns="http://www.w3.org/2000/svg">
<path fill-rule="evenodd" clip-rule="evenodd" d="M13.2803 4.17426C13.5732 4.46715 13.5732 4.94203 13.2803 5.23492L6.31066 12.2046L13.2803 19.1743C13.5732 19.4672 13.5732 19.942 13.2803 20.2349C12.9874 20.5278 12.5126 20.5278 12.2197 20.2349L4.71967 12.7349C4.42678 12.442 4.42678 11.9672 4.71967 11.6743L12.2197 4.17426C12.5126 3.88137 12.9874 3.88137 13.2803 4.17426ZM19.2803 4.17426C19.5732 4.46715 19.5732 4.94203 19.2803 5.23492L12.3107 12.2046L19.2803 19.1743C19.5732 19.4672 19.5732 19.942 19.2803 20.2349C18.9874 20.5278 18.5126 20.5278 18.2197 20.2349L10.7197 12.7349C10.4268 12.442 10.4268 11.9672 10.7197 11.6743L18.2197 4.17426C18.5126 3.88137 18.9874 3.88137 19.2803 4.17426Z" fill="black"/>
</svg>
