<svg width="24" height="25" viewBox="0 0 24 25" fill="none" xmlns="http://www.w3.org/2000/svg">
<path fill-rule="evenodd" clip-rule="evenodd" d="M11.4697 4.92426C11.7626 4.63137 12.2374 4.63137 12.5303 4.92426L16.2803 8.67426C16.5732 8.96715 16.5732 9.44203 16.2803 9.73492C15.9874 10.0278 15.5126 10.0278 15.2197 9.73492L12 6.51525L8.78033 9.73492C8.48744 10.0278 8.01256 10.0278 7.71967 9.73492C7.42678 9.44203 7.42678 8.96715 7.71967 8.67426L11.4697 4.92426ZM7.71967 14.6743C8.01256 14.3814 8.48744 14.3814 8.78033 14.6743L12 17.8939L15.2197 14.6743C15.5126 14.3814 15.9874 14.3814 16.2803 14.6743C16.5732 14.9672 16.5732 15.442 16.2803 15.7349L12.5303 19.4849C12.2374 19.7778 11.7626 19.7778 11.4697 19.4849L7.71967 15.7349C7.42678 15.442 7.42678 14.9672 7.71967 14.6743Z" fill="black"/>
</svg>
