<svg width="24" height="25" viewBox="0 0 24 25" fill="none" xmlns="http://www.w3.org/2000/svg">
<path fill-rule="evenodd" clip-rule="evenodd" d="M4.71967 4.17426C5.01256 3.88137 5.48744 3.88137 5.78033 4.17426L13.2803 11.6743C13.5732 11.9672 13.5732 12.442 13.2803 12.7349L5.78033 20.2349C5.48744 20.5278 5.01256 20.5278 4.71967 20.2349C4.42678 19.942 4.42678 19.4672 4.71967 19.1743L11.6893 12.2046L4.71967 5.23492C4.42678 4.94203 4.42678 4.46715 4.71967 4.17426ZM10.7197 4.17426C11.0126 3.88137 11.4874 3.88137 11.7803 4.17426L19.2803 11.6743C19.5732 11.9672 19.5732 12.442 19.2803 12.7349L11.7803 20.2349C11.4874 20.5278 11.0126 20.5278 10.7197 20.2349C10.4268 19.942 10.4268 19.4672 10.7197 19.1743L17.6893 12.2046L10.7197 5.23492C10.4268 4.94203 10.4268 4.46715 10.7197 4.17426Z" fill="black"/>
</svg>
