<svg width="24" height="25" viewBox="0 0 24 25" fill="none" xmlns="http://www.w3.org/2000/svg">
<path d="M21 6.57959C21 9.27198 16.9706 11.4546 12 11.4546C7.02944 11.4546 3 9.27198 3 6.57959C3 3.8872 7.02944 1.70459 12 1.70459C16.9706 1.70459 21 3.8872 21 6.57959Z" fill="black"/>
<path d="M12 12.9546C14.6852 12.9546 17.1905 12.3683 19.0784 11.3457C19.7684 10.9719 20.4248 10.5089 20.9747 9.96133C20.9915 10.0829 21 10.2057 21 10.3296C21 13.022 16.9706 15.2046 12 15.2046C7.02944 15.2046 3 13.022 3 10.3296C3 10.2057 3.00853 10.0829 3.02529 9.96133C3.57523 10.5089 4.23162 10.9719 4.92161 11.3457C6.80949 12.3683 9.31481 12.9546 12 12.9546Z" fill="black"/>
<path d="M12 16.7046C14.6852 16.7046 17.1905 16.1183 19.0784 15.0957C19.7684 14.7219 20.4248 14.2589 20.9747 13.7113C20.9915 13.8329 21 13.9557 21 14.0796C21 16.772 16.9706 18.9546 12 18.9546C7.02944 18.9546 3 16.772 3 14.0796C3 13.9557 3.00853 13.8329 3.02529 13.7113C3.57523 14.2589 4.23162 14.7219 4.92161 15.0957C6.80949 16.1183 9.31481 16.7046 12 16.7046Z" fill="black"/>
<path d="M12 20.4546C14.6852 20.4546 17.1905 19.8683 19.0784 18.8457C19.7684 18.4719 20.4248 18.0089 20.9747 17.4613C20.9915 17.5829 21 17.7057 21 17.8296C21 20.522 16.9706 22.7046 12 22.7046C7.02944 22.7046 3 20.522 3 17.8296C3 17.7057 3.00853 17.5829 3.02529 17.4613C3.57523 18.0089 4.23162 18.4719 4.92161 18.8457C6.80949 19.8683 9.31481 20.4546 12 20.4546Z" fill="black"/>
</svg>
