<svg width="24" height="25" viewBox="0 0 24 25" fill="none" xmlns="http://www.w3.org/2000/svg">
<path fill-rule="evenodd" clip-rule="evenodd" d="M10.5 3.20459C9.81411 3.20459 9.23394 3.66558 9.0561 4.29608C9.01971 4.42509 9 4.56192 9 4.70459H15C15 4.56192 14.9803 4.42509 14.9439 4.29608C14.7661 3.66558 14.1859 3.20459 13.5 3.20459H10.5ZM7.80654 3.38248C8.29511 2.38895 9.31692 1.70459 10.5 1.70459H13.5C14.6831 1.70459 15.7049 2.38895 16.1935 3.38248C16.6911 3.42488 17.1865 3.47476 17.6798 3.532C19.1772 3.70578 20.25 4.99181 20.25 6.46158V19.7046C20.25 21.3614 18.9069 22.7046 17.25 22.7046H6.75C5.09315 22.7046 3.75 21.3614 3.75 19.7046V6.46158C3.75 4.99181 4.82283 3.70578 6.32022 3.532C6.81347 3.47476 7.30894 3.42488 7.80654 3.38248Z" fill="black"/>
</svg>
