<svg width="24" height="25" viewBox="0 0 24 25" fill="none" xmlns="http://www.w3.org/2000/svg">
<path fill-rule="evenodd" clip-rule="evenodd" d="M7.50183 6.20459H11.2477L11.25 6.20459H14.6299C16.4915 6.20727 17.9999 7.71728 17.9999 9.57959V18.9546C19.6567 18.9546 20.9999 17.6114 20.9999 15.9546V6.3128C20.9999 4.80741 19.8751 3.50119 18.3358 3.37343C18.1121 3.35486 17.8879 3.3378 17.6632 3.32226C17.1633 2.36106 16.1583 1.70459 15 1.70459H13.5C12.3417 1.70459 11.3367 2.36106 10.8368 3.32224C10.6121 3.33778 10.3878 3.35485 10.1639 3.37343C8.66165 3.49812 7.55421 4.74528 7.50183 6.20459ZM13.5 3.20459C12.6716 3.20459 12 3.87616 12 4.70459H16.5C16.5 3.87616 15.8284 3.20459 15 3.20459H13.5Z" fill="black"/>
<path fill-rule="evenodd" clip-rule="evenodd" d="M3 9.57959C3 8.54406 3.83947 7.70459 4.875 7.70459H14.625C15.6605 7.70459 16.5 8.54406 16.5 9.57959V20.8296C16.5 21.8651 15.6605 22.7046 14.625 22.7046H4.875C3.83947 22.7046 3 21.8651 3 20.8296V9.57959ZM12.5857 14.1731C12.8444 13.8497 12.792 13.3777 12.4685 13.1189C12.1451 12.8602 11.6731 12.9126 11.4143 13.2361L8.93781 16.3317L8.03033 15.4243C7.73744 15.1314 7.26256 15.1314 6.96967 15.4243C6.67678 15.7172 6.67678 16.192 6.96967 16.4849L8.46967 17.9849C8.62052 18.1358 8.82847 18.2152 9.04148 18.2034C9.25448 18.1916 9.45238 18.0897 9.58565 17.9231L12.5857 14.1731Z" fill="black"/>
</svg>
