<svg width="24" height="25" viewBox="0 0 24 25" fill="none" xmlns="http://www.w3.org/2000/svg">
<path fill-rule="evenodd" clip-rule="evenodd" d="M17.6633 3.32224C17.8879 3.33778 18.1122 3.35485 18.336 3.37342C19.8753 3.50118 21 4.8074 21 6.3128V15.9546C21 17.6114 19.6569 18.9546 18 18.9546V16.7046C18 10.7827 13.4244 5.92943 7.61572 5.4874C7.93989 4.35586 8.91565 3.47704 10.1641 3.37342C10.3879 3.35485 10.6121 3.33778 10.8368 3.32224C11.3367 2.36106 12.3417 1.70459 13.5 1.70459H15C16.1584 1.70459 17.1634 2.36106 17.6633 3.32224ZM12 4.70459C12 3.87616 12.6716 3.20459 13.5 3.20459H15C15.8285 3.20459 16.5 3.87616 16.5 4.70459H12Z" fill="black"/>
<path d="M3 8.82959C3 7.79406 3.83947 6.95459 4.875 6.95459H5.25C7.32107 6.95459 9 8.63352 9 10.7046V12.5796C9 13.6151 9.83947 14.4546 10.875 14.4546H12.75C14.8211 14.4546 16.5 16.1335 16.5 18.2046V20.8296C16.5 21.8651 15.6605 22.7046 14.625 22.7046H4.875C3.83947 22.7046 3 21.8651 3 20.8296V8.82959Z" fill="black"/>
<path d="M10.5 10.7046C10.5 9.39154 10.018 8.19107 9.22119 7.27049C12.6201 8.15836 15.2962 10.8345 16.1841 14.2334C15.2635 13.4366 14.0631 12.9546 12.75 12.9546H10.875C10.6679 12.9546 10.5 12.7867 10.5 12.5796V10.7046Z" fill="black"/>
</svg>
