<svg width="24" height="25" viewBox="0 0 24 25" fill="none" xmlns="http://www.w3.org/2000/svg">
<path fill-rule="evenodd" clip-rule="evenodd" d="M7.50183 6.20459H11.2477L11.25 6.20459H14.6299C16.4915 6.20727 17.9999 7.71728 17.9999 9.57959V18.9546C19.6567 18.9546 20.9999 17.6114 20.9999 15.9546V6.3128C20.9999 4.80741 19.8751 3.50119 18.3358 3.37343C18.1121 3.35486 17.8879 3.3378 17.6632 3.32226C17.1633 2.36106 16.1583 1.70459 15 1.70459H13.5C12.3417 1.70459 11.3367 2.36106 10.8368 3.32224C10.6121 3.33778 10.3878 3.35485 10.1639 3.37343C8.66165 3.49812 7.55421 4.74528 7.50183 6.20459ZM13.5 3.20459C12.6716 3.20459 12 3.87616 12 4.70459H16.5C16.5 3.87616 15.8284 3.20459 15 3.20459H13.5Z" fill="black"/>
<path fill-rule="evenodd" clip-rule="evenodd" d="M3 9.57959C3 8.54406 3.83947 7.70459 4.875 7.70459H14.625C15.6605 7.70459 16.5 8.54406 16.5 9.57959V20.8296C16.5 21.8651 15.6605 22.7046 14.625 22.7046H4.875C3.83947 22.7046 3 21.8651 3 20.8296V9.57959ZM6 12.2046C6 11.7904 6.33579 11.4546 6.75 11.4546H6.7575C7.17171 11.4546 7.5075 11.7904 7.5075 12.2046V12.2121C7.5075 12.6263 7.17171 12.9621 6.7575 12.9621H6.75C6.33579 12.9621 6 12.6263 6 12.2121V12.2046ZM8.25 12.2046C8.25 11.7904 8.58579 11.4546 9 11.4546H12.75C13.1642 11.4546 13.5 11.7904 13.5 12.2046C13.5 12.6188 13.1642 12.9546 12.75 12.9546H9C8.58579 12.9546 8.25 12.6188 8.25 12.2046ZM6 15.2046C6 14.7904 6.33579 14.4546 6.75 14.4546H6.7575C7.17171 14.4546 7.5075 14.7904 7.5075 15.2046V15.2121C7.5075 15.6263 7.17171 15.9621 6.7575 15.9621H6.75C6.33579 15.9621 6 15.6263 6 15.2121V15.2046ZM8.25 15.2046C8.25 14.7904 8.58579 14.4546 9 14.4546H12.75C13.1642 14.4546 13.5 14.7904 13.5 15.2046C13.5 15.6188 13.1642 15.9546 12.75 15.9546H9C8.58579 15.9546 8.25 15.6188 8.25 15.2046ZM6 18.2046C6 17.7904 6.33579 17.4546 6.75 17.4546H6.7575C7.17171 17.4546 7.5075 17.7904 7.5075 18.2046V18.2121C7.5075 18.6263 7.17171 18.9621 6.7575 18.9621H6.75C6.33579 18.9621 6 18.6263 6 18.2121V18.2046ZM8.25 18.2046C8.25 17.7904 8.58579 17.4546 9 17.4546H12.75C13.1642 17.4546 13.5 17.7904 13.5 18.2046C13.5 18.6188 13.1642 18.9546 12.75 18.9546H9C8.58579 18.9546 8.25 18.6188 8.25 18.2046Z" fill="black"/>
</svg>
