<svg width="24" height="25" viewBox="0 0 24 25" fill="none" xmlns="http://www.w3.org/2000/svg">
<path fill-rule="evenodd" clip-rule="evenodd" d="M12 2.45459C6.61522 2.45459 2.25 6.81981 2.25 12.2046C2.25 17.5894 6.61522 21.9546 12 21.9546C17.3848 21.9546 21.75 17.5894 21.75 12.2046C21.75 6.81981 17.3848 2.45459 12 2.45459ZM12.75 6.20459C12.75 5.79038 12.4142 5.45459 12 5.45459C11.5858 5.45459 11.25 5.79038 11.25 6.20459V12.2046C11.25 12.6188 11.5858 12.9546 12 12.9546H16.5C16.9142 12.9546 17.25 12.6188 17.25 12.2046C17.25 11.7904 16.9142 11.4546 16.5 11.4546H12.75V6.20459Z" fill="black"/>
</svg>
