<svg width="24" height="25" viewBox="0 0 24 25" fill="none" xmlns="http://www.w3.org/2000/svg">
<path fill-rule="evenodd" clip-rule="evenodd" d="M10.5 3.95459C7.18629 3.95459 4.5 6.64088 4.5 9.95459C4.5 10.1214 4.50683 10.2868 4.52024 10.4505C2.73627 11.2886 1.5 13.1014 1.5 15.2046C1.5 18.1041 3.85051 20.4546 6.75 20.4546H18C20.4853 20.4546 22.5 18.4399 22.5 15.9546C22.5 14.2698 21.5744 12.8027 20.2058 12.0316C20.2349 11.8432 20.25 11.6505 20.25 11.4546C20.25 9.38352 18.5711 7.70459 16.5 7.70459C16.3559 7.70459 16.2135 7.71275 16.0733 7.72867C15.1893 5.51741 13.028 3.95459 10.5 3.95459ZM12.5303 9.42426C12.2374 9.13137 11.7626 9.13137 11.4697 9.42426L8.46967 12.4243C8.17678 12.7172 8.17678 13.192 8.46967 13.4849C8.76256 13.7778 9.23744 13.7778 9.53033 13.4849L11.25 11.7652L11.25 16.7046C11.25 17.1188 11.5858 17.4546 12 17.4546C12.4142 17.4546 12.75 17.1188 12.75 16.7046V11.7652L14.4697 13.4849C14.7626 13.7778 15.2374 13.7778 15.5303 13.4849C15.8232 13.192 15.8232 12.7172 15.5303 12.4243L12.5303 9.42426Z" fill="black"/>
</svg>
