<svg width="24" height="25" viewBox="0 0 24 25" fill="none" xmlns="http://www.w3.org/2000/svg">
<path fill-rule="evenodd" clip-rule="evenodd" d="M10.5 3.95459C7.18629 3.95459 4.5 6.64088 4.5 9.95459C4.5 10.1214 4.50683 10.2868 4.52024 10.4505C2.73627 11.2886 1.5 13.1014 1.5 15.2046C1.5 18.1041 3.85051 20.4546 6.75 20.4546H18C20.4853 20.4546 22.5 18.4399 22.5 15.9546C22.5 14.2698 21.5744 12.8027 20.2058 12.0316C20.2349 11.8432 20.25 11.6505 20.25 11.4546C20.25 9.38352 18.5711 7.70459 16.5 7.70459C16.3559 7.70459 16.2135 7.71275 16.0733 7.72867C15.1893 5.51741 13.028 3.95459 10.5 3.95459ZM12.75 9.95459C12.75 9.54038 12.4142 9.20459 12 9.20459C11.5858 9.20459 11.25 9.54038 11.25 9.95459V14.8939L9.53033 13.1743C9.23744 12.8814 8.76256 12.8814 8.46967 13.1743C8.17678 13.4672 8.17678 13.942 8.46967 14.2349L11.4697 17.2349C11.7626 17.5278 12.2374 17.5278 12.5303 17.2349L15.5303 14.2349C15.8232 13.942 15.8232 13.4672 15.5303 13.1743C15.2374 12.8814 14.7626 12.8814 14.4697 13.1743L12.75 14.8939V9.95459Z" fill="black"/>
</svg>
