<svg width="24" height="25" viewBox="0 0 24 25" fill="none" xmlns="http://www.w3.org/2000/svg">
<path fill-rule="evenodd" clip-rule="evenodd" d="M4.5 9.95459C4.5 6.64088 7.18629 3.95459 10.5 3.95459C13.028 3.95459 15.1893 5.51741 16.0733 7.72867C16.2135 7.71275 16.3559 7.70459 16.5 7.70459C18.5711 7.70459 20.25 9.38352 20.25 11.4546C20.25 11.6505 20.2349 11.8432 20.2058 12.0316C21.5744 12.8027 22.5 14.2698 22.5 15.9546C22.5 18.4399 20.4853 20.4546 18 20.4546H6.75C3.85051 20.4546 1.5 18.1041 1.5 15.2046C1.5 13.1014 2.73627 11.2886 4.52024 10.4505C4.50683 10.2868 4.5 10.1214 4.5 9.95459Z" fill="black"/>
</svg>
