<svg width="24" height="25" viewBox="0 0 24 25" fill="none" xmlns="http://www.w3.org/2000/svg">
<path fill-rule="evenodd" clip-rule="evenodd" d="M14.4473 3.23096C14.847 3.33995 15.0826 3.75225 14.9736 4.15187L10.4736 20.6519C10.3646 21.0515 9.95228 21.2871 9.55266 21.1781C9.15304 21.0691 8.91744 20.6568 9.02643 20.2572L13.5264 3.7572C13.6354 3.35758 14.0477 3.12197 14.4473 3.23096ZM16.7197 6.4242C17.0126 6.13131 17.4874 6.13131 17.7803 6.4242L23.0303 11.6742C23.3232 11.9671 23.3232 12.442 23.0303 12.7349L17.7803 17.9849C17.4874 18.2778 17.0126 18.2778 16.7197 17.9849C16.4268 17.692 16.4268 17.2171 16.7197 16.9242L21.4393 12.2045L16.7197 7.48486C16.4268 7.19197 16.4268 6.7171 16.7197 6.4242ZM7.28033 6.4242C7.57322 6.7171 7.57322 7.19197 7.28033 7.48486L2.56066 12.2045L7.28033 16.9242C7.57322 17.2171 7.57322 17.692 7.28033 17.9849C6.98744 18.2778 6.51256 18.2778 6.21967 17.9849L0.96967 12.7349C0.676777 12.442 0.676777 11.9671 0.96967 11.6742L6.21967 6.4242C6.51256 6.13131 6.98744 6.13131 7.28033 6.4242Z" fill="black"/>
</svg>
