<svg width="24" height="25" viewBox="0 0 24 25" fill="none" xmlns="http://www.w3.org/2000/svg">
<path fill-rule="evenodd" clip-rule="evenodd" d="M3 6.20459C3 4.54774 4.34315 3.20459 6 3.20459H18C19.6569 3.20459 21 4.54774 21 6.20459V18.2046C21 19.8614 19.6569 21.2046 18 21.2046H6C4.34315 21.2046 3 19.8614 3 18.2046V6.20459ZM17.25 12.2046C17.25 12.4035 17.171 12.5943 17.0303 12.7349L14.7803 14.9849C14.4874 15.2778 14.0126 15.2778 13.7197 14.9849C13.4268 14.692 13.4268 14.2172 13.7197 13.9243L15.4393 12.2046L13.7197 10.4849C13.4268 10.192 13.4268 9.71715 13.7197 9.42426C14.0126 9.13137 14.4874 9.13137 14.7803 9.42426L17.0303 11.6743C17.171 11.8149 17.25 12.0057 17.25 12.2046ZM6.96967 11.6743C6.82902 11.8149 6.75 12.0057 6.75 12.2046C6.75 12.4035 6.82902 12.5943 6.96967 12.7349L9.21967 14.9849C9.51256 15.2778 9.98744 15.2778 10.2803 14.9849C10.5732 14.692 10.5732 14.2172 10.2803 13.9243L8.56066 12.2046L10.2803 10.4849C10.5732 10.192 10.5732 9.71715 10.2803 9.42426C9.98744 9.13137 9.51256 9.13137 9.21967 9.42426L6.96967 11.6743Z" fill="black"/>
</svg>
