<svg width="24" height="25" viewBox="0 0 24 25" fill="none" xmlns="http://www.w3.org/2000/svg">
<path fill-rule="evenodd" clip-rule="evenodd" d="M11.0779 2.45447C10.1613 2.45447 9.37909 3.11712 9.22841 4.02122L9.04974 5.0932C9.02959 5.21411 8.93542 5.35426 8.75311 5.44193C8.40905 5.60739 8.07967 5.79826 7.7674 6.01207C7.60091 6.12606 7.43259 6.13767 7.31769 6.09462L6.29851 5.7128C5.44019 5.39125 4.4752 5.73735 4.01692 6.53113L3.09493 8.12805C2.63665 8.92182 2.8194 9.93058 3.52704 10.5131L4.36756 11.2051C4.46219 11.283 4.53629 11.4343 4.52119 11.6352C4.50706 11.8232 4.49988 12.0131 4.49988 12.2045C4.49988 12.3959 4.50707 12.5858 4.52121 12.774C4.53632 12.9749 4.46221 13.1262 4.36758 13.2041L3.52704 13.896C2.8194 14.4786 2.63665 15.4874 3.09493 16.2811L4.01692 17.878C4.4752 18.6718 5.44019 19.0179 6.29851 18.6964L7.31791 18.3145C7.43281 18.2714 7.60113 18.283 7.76761 18.397C8.07982 18.6108 8.40913 18.8016 8.75311 18.967C8.93542 19.0547 9.02959 19.1948 9.04974 19.3157L9.22841 20.3877C9.37909 21.2918 10.1613 21.9545 11.0779 21.9545H12.9219C13.8384 21.9545 14.6207 21.2918 14.7713 20.3877L14.95 19.3157C14.9702 19.1948 15.0643 19.0547 15.2466 18.967C15.5907 18.8015 15.9201 18.6107 16.2324 18.3969C16.3988 18.2829 16.5672 18.2713 16.6821 18.3143L17.7012 18.6961C18.5596 19.0177 19.5246 18.6716 19.9828 17.8778L20.9048 16.2809C21.3631 15.4871 21.1804 14.4784 20.4727 13.8958L19.6322 13.2039C19.5376 13.126 19.4635 12.9746 19.4786 12.7737C19.4927 12.5857 19.4999 12.3959 19.4999 12.2045C19.4999 12.013 19.4927 11.8231 19.4785 11.635C19.4634 11.4341 19.5375 11.2828 19.6322 11.2048L20.4727 10.5129C21.1804 9.93034 21.3631 8.92158 20.9048 8.12781L19.9828 6.53089C19.5246 5.73711 18.5596 5.391 17.7012 5.71256L16.6818 6.09446C16.5669 6.13751 16.3986 6.12591 16.2321 6.01193C15.9199 5.79818 15.5906 5.60735 15.2466 5.44193C15.0643 5.35426 14.9702 5.21411 14.95 5.0932L14.7713 4.02122C14.6207 3.11712 13.8384 2.45447 12.9219 2.45447H11.0779ZM12 15.9545C14.0711 15.9545 15.75 14.2755 15.75 12.2045C15.75 10.1334 14.0711 8.45447 12 8.45447C9.92893 8.45447 8.25 10.1334 8.25 12.2045C8.25 14.2755 9.92893 15.9545 12 15.9545Z" fill="black"/>
</svg>
