<svg width="24" height="25" viewBox="0 0 24 25" fill="none" xmlns="http://www.w3.org/2000/svg">
<path fill-rule="evenodd" clip-rule="evenodd" d="M11.828 2.45447C10.9115 2.45447 10.1292 3.11712 9.97854 4.02122L9.88699 4.57049C9.84017 4.85142 9.63707 5.07854 9.37035 5.17841C9.20811 5.23916 9.04853 5.30537 8.89184 5.37681C8.63259 5.49503 8.32822 5.47809 8.09636 5.31248L7.64299 4.98865C6.89714 4.4559 5.87546 4.54046 5.22734 5.18857L4.98413 5.43179C4.33601 6.07991 4.25145 7.10159 4.7842 7.84744L5.10803 8.30079C5.27364 8.53266 5.29057 8.83703 5.17236 9.09629C5.10091 9.25298 5.0347 9.41256 4.97395 9.5748C4.87408 9.84153 4.64695 10.0446 4.36602 10.0914L3.81675 10.183C2.91265 10.3337 2.25 11.1159 2.25 12.0325V12.3764C2.25 13.293 2.91265 14.0752 3.81675 14.2259L4.36602 14.3175C4.64695 14.3643 4.87407 14.5674 4.97395 14.8341C5.03469 14.9964 5.1009 15.1559 5.17234 15.3126C5.29056 15.5719 5.27362 15.8762 5.10801 16.1081L4.78416 16.5615C4.25141 17.3073 4.33597 18.329 4.98408 18.9771L5.2273 19.2204C5.87541 19.8685 6.8971 19.953 7.64295 19.4203L8.09633 19.0964C8.32819 18.9308 8.63256 18.9139 8.89182 19.0321C9.04851 19.1036 9.20809 19.1698 9.37034 19.2305C9.63706 19.3304 9.84016 19.5575 9.88698 19.8384L9.97852 20.3877C10.1292 21.2918 10.9114 21.9545 11.828 21.9545H12.172C13.0885 21.9545 13.8708 21.2918 14.0215 20.3877L14.113 19.8384C14.1598 19.5575 14.3629 19.3304 14.6297 19.2305C14.7919 19.1698 14.9515 19.1036 15.1082 19.0321C15.3674 18.9139 15.6718 18.9308 15.9036 19.0965L16.357 19.4203C17.1029 19.953 18.1245 19.8685 18.7727 19.2204L19.0159 18.9771C19.664 18.329 19.7485 17.3073 19.2158 16.5615L18.892 16.1081C18.7264 15.8763 18.7094 15.5719 18.8276 15.3127C18.8991 15.156 18.9653 14.9964 19.026 14.8341C19.1259 14.5674 19.353 14.3643 19.634 14.3175L20.1832 14.2259C21.0873 14.0753 21.75 13.293 21.75 12.3765V12.0325C21.75 11.1159 21.0874 10.3337 20.1832 10.183L19.634 10.0915C19.3531 10.0446 19.1259 9.84154 19.0261 9.57482C18.9653 9.41258 18.8991 9.253 18.8277 9.09632C18.7094 8.83706 18.7264 8.53269 18.892 8.30083L19.2158 7.84744C19.7486 7.10159 19.664 6.07991 19.0159 5.43179L18.7727 5.18857C18.1246 4.54046 17.1029 4.4559 16.3571 4.98865L15.9037 5.31249C15.6718 5.47811 15.3674 5.49504 15.1082 5.37682C14.9515 5.30538 14.7919 5.23917 14.6297 5.17842C14.3629 5.07855 14.1598 4.85142 14.113 4.57049L14.0215 4.02122C13.8708 3.11712 13.0886 2.45447 12.172 2.45447H11.828ZM12 15.9545C14.0711 15.9545 15.75 14.2755 15.75 12.2045C15.75 10.1334 14.0711 8.45447 12 8.45447C9.92893 8.45447 8.25 10.1334 8.25 12.2045C8.25 14.2755 9.92893 15.9545 12 15.9545Z" fill="black"/>
</svg>
