<svg width="24" height="25" viewBox="0 0 24 25" fill="none" xmlns="http://www.w3.org/2000/svg">
<path d="M17.0039 10.6112C17.1423 11.0463 16.7882 11.4537 16.3317 11.4537H12.8667C12.5988 11.4537 12.3512 11.3108 12.2172 11.0787L10.4845 8.07783C10.2561 7.68224 10.4321 7.17169 10.8784 7.07456C11.2398 6.99592 11.6151 6.95449 12 6.95449C14.344 6.95449 16.3293 8.49069 17.0039 10.6112Z" fill="black"/>
<path d="M8.11938 8.66844C8.42728 8.33074 8.95767 8.43337 9.18619 8.82913L10.9182 11.8287C11.0522 12.0608 11.0522 12.3467 10.9182 12.5788L9.18577 15.5794C8.95726 15.9752 8.42679 16.0778 8.11891 15.74C7.26853 14.8071 6.75 13.5663 6.75 12.2045C6.75 10.8424 7.26872 9.60146 8.11938 8.66844Z" fill="black"/>
<path d="M10.8778 17.3343C10.4315 17.2371 10.2555 16.7266 10.4839 16.331L12.2172 13.3287C12.3512 13.0967 12.5988 12.9537 12.8668 12.9537H16.3322C16.7886 12.9537 17.1426 13.361 17.0044 13.796C16.3304 15.9175 14.3447 17.4545 12 17.4545C11.6148 17.4545 11.2393 17.413 10.8778 17.3343Z" fill="black"/>
<path fill-rule="evenodd" clip-rule="evenodd" d="M21.0007 12.9537C21.4149 12.9537 21.7507 12.6179 21.7507 12.2037C21.7507 11.7895 21.4149 11.4537 21.0007 11.4537H20.2171C20.1753 10.9896 20.095 10.5365 19.9795 10.0978L20.7143 9.83032C21.1035 9.68865 21.3042 9.25827 21.1625 8.86903C21.0209 8.4798 20.5905 8.27911 20.2012 8.42078L19.4664 8.68824C19.2695 8.27082 19.0386 7.87257 18.7773 7.49707L19.3771 6.99379C19.6944 6.72754 19.7358 6.25447 19.4695 5.93717C19.2033 5.61986 18.7302 5.57847 18.4129 5.84473L17.8126 6.34843C17.4869 6.02516 17.1344 5.72886 16.7588 5.46319L17.1502 4.78527C17.3573 4.42655 17.2344 3.96786 16.8756 3.76075C16.5169 3.55365 16.0582 3.67655 15.8511 4.03527L15.4604 4.712C15.0465 4.52053 14.614 4.36235 14.1664 4.24091L14.3021 3.47143C14.374 3.06351 14.1016 2.67451 13.6937 2.60258C13.2858 2.53066 12.8968 2.80303 12.8249 3.21095L12.6889 3.98202C12.462 3.96328 12.2325 3.95373 12.0007 3.95373C11.769 3.95373 11.5394 3.9633 11.3124 3.98207L11.1764 3.211C11.1045 2.80307 10.7155 2.5307 10.3076 2.60263C9.89966 2.67455 9.62728 3.06355 9.69921 3.47147L9.83492 4.24114C9.38749 4.36258 8.95506 4.52073 8.54113 4.71217L8.15018 4.03509C7.94306 3.67638 7.48436 3.55349 7.12565 3.76061C6.76694 3.96773 6.64405 4.42643 6.85117 4.78514L7.24273 5.46328C6.86722 5.72882 6.51483 6.02501 6.18921 6.34821L5.58845 5.84411C5.27114 5.57785 4.79807 5.61924 4.53182 5.93655C4.26557 6.25385 4.30696 6.72692 4.62426 6.99317L5.22448 7.49682C4.96309 7.87243 4.73209 8.27084 4.53509 8.68846L3.80006 8.42093C3.41082 8.27926 2.98044 8.47995 2.83877 8.86919C2.6971 9.25842 2.89779 9.6888 3.28703 9.83047L4.02196 10.098C3.90647 10.5366 3.8262 10.9896 3.78437 11.4537H3.00073C2.58652 11.4537 2.25073 11.7895 2.25073 12.2037C2.25073 12.6179 2.58652 12.9537 3.00073 12.9537H3.78437C3.82619 13.4178 3.90644 13.8708 4.02192 14.3096L3.28678 14.5771C2.89755 14.7188 2.69685 15.1492 2.83852 15.5384C2.98019 15.9277 3.41058 16.1283 3.79981 15.9867L4.53502 15.7191C4.73205 16.1368 4.9631 16.5353 5.22461 16.911L4.62411 17.4149C4.30681 17.6812 4.26542 18.1542 4.53167 18.4715C4.79792 18.7888 5.27099 18.8302 5.58829 18.564L6.1894 18.0596C6.51507 18.3828 6.86754 18.679 7.2432 18.9446L6.85112 19.6237C6.64401 19.9825 6.76692 20.4411 7.12564 20.6483C7.48436 20.8554 7.94305 20.7325 8.15016 20.3737L8.54161 19.6957C8.9554 19.8871 9.38772 20.0452 9.83514 20.1666L9.6992 20.9375C9.62727 21.3454 9.89965 21.7344 10.3076 21.8063C10.7155 21.8783 11.1045 21.6059 11.1764 21.198L11.3126 20.4254C11.5395 20.4442 11.769 20.4537 12.0007 20.4537C12.2324 20.4537 12.4618 20.4442 12.6887 20.4255L12.8249 21.198C12.8968 21.6059 13.2858 21.8783 13.6937 21.8064C14.1016 21.7345 14.374 21.3455 14.3021 20.9375L14.1662 20.1666C14.6136 20.0452 15.046 19.8871 15.4598 19.6957L15.8512 20.3736C16.0583 20.7323 16.517 20.8552 16.8757 20.6481C17.2344 20.441 17.3573 19.9823 17.1502 19.6236L16.7582 18.9446C17.134 18.6789 17.4866 18.3826 17.8123 18.0593L18.4131 18.5634C18.7304 18.8296 19.2034 18.7882 19.4697 18.4709C19.7359 18.1536 19.6946 17.6805 19.3772 17.4143L18.7771 16.9107C19.0385 16.5351 19.2694 16.1368 19.4664 15.7193L20.2015 15.9868C20.5907 16.1285 21.0211 15.9278 21.1628 15.5386C21.3044 15.1493 21.1038 14.719 20.7145 14.5773L19.9795 14.3098C20.095 13.871 20.1753 13.4179 20.2171 12.9537H21.0007ZM18.3435 9.89509C18.3374 9.87846 18.332 9.86176 18.3272 9.84501C18.0593 9.12696 17.6728 8.46678 17.1913 7.88834C17.1846 7.8809 17.1779 7.8733 17.1714 7.86553C17.165 7.85792 17.1588 7.85023 17.1528 7.84245C16.6625 7.26389 16.0766 6.76899 15.4194 6.38222C15.4046 6.37495 15.3901 6.36716 15.3756 6.35883C15.3608 6.35028 15.3464 6.34129 15.3324 6.3319C14.6882 5.96559 13.9778 5.70223 13.2236 5.56421C13.2067 5.5624 13.1897 5.56 13.1728 5.55701C13.1563 5.55411 13.1401 5.55069 13.1241 5.54678C12.7588 5.48558 12.3835 5.45373 12.0007 5.45373C11.6183 5.45373 11.2435 5.48546 10.8788 5.54643C10.8623 5.55051 10.8455 5.55405 10.8285 5.55705C10.8109 5.56015 10.7934 5.56261 10.7759 5.56444C10.005 5.70565 9.28044 5.97776 8.62548 6.35676C7.94757 6.74903 7.34445 7.25551 6.84231 7.84979C6.83827 7.85487 6.83415 7.85991 6.82995 7.86491C6.82783 7.86745 6.82568 7.86997 6.82353 7.87247C6.82127 7.87509 6.819 7.87769 6.81671 7.88027C6.33198 8.46084 5.94308 9.12395 5.67409 9.84537C5.66929 9.86205 5.66388 9.87869 5.65785 9.89525C5.65182 9.91181 5.64527 9.92804 5.63822 9.94391C5.38727 10.6505 5.25073 11.4112 5.25073 12.2037C5.25073 12.9981 5.38795 13.7604 5.63997 14.4682C5.64626 14.4827 5.65215 14.4974 5.6576 14.5124C5.66305 14.5273 5.66799 14.5423 5.67243 14.5574C6.21997 16.029 7.26613 17.258 8.60555 18.039C8.60934 18.041 8.61311 18.0431 8.61688 18.0452C8.6198 18.0468 8.62272 18.0485 8.62564 18.0502C8.63265 18.0542 8.63958 18.0584 8.64641 18.0626C9.3043 18.4401 10.0318 18.7099 10.8049 18.8481C10.8128 18.8493 10.8207 18.8505 10.8285 18.8519C10.8358 18.8532 10.8431 18.8546 10.8504 18.8561C11.2242 18.9203 11.6086 18.9537 12.0007 18.9537C12.3929 18.9537 12.7773 18.9203 13.1512 18.8561C13.1584 18.8546 13.1655 18.8532 13.1728 18.852C13.1805 18.8506 13.1883 18.8493 13.1961 18.8482C13.9675 18.7104 14.6935 18.4415 15.3503 18.0653C15.3586 18.0601 15.3671 18.055 15.3757 18.05C15.3839 18.0453 15.3922 18.0407 15.4006 18.0363C16.07 17.6452 16.666 17.1422 17.163 16.553L17.1716 16.5425L17.1808 16.5317C17.6679 15.9493 18.0587 15.2836 18.3285 14.5589C18.333 14.5434 18.3381 14.5279 18.3437 14.5125C18.3493 14.4971 18.3554 14.4819 18.3619 14.4671C18.6137 13.7596 18.7507 12.9976 18.7507 12.2037C18.7507 11.4112 18.6141 10.6505 18.3632 9.94404C18.3561 9.92808 18.3495 9.91176 18.3435 9.89509Z" fill="black"/>
</svg>
