<svg width="24" height="25" viewBox="0 0 24 25" fill="none" xmlns="http://www.w3.org/2000/svg">
<path fill-rule="evenodd" clip-rule="evenodd" d="M2.25 6.20447C2.25 4.54761 3.59315 3.20447 5.25 3.20447H18.75C20.4069 3.20447 21.75 4.54761 21.75 6.20447V18.2045C21.75 19.8613 20.4069 21.2045 18.75 21.2045H5.25C3.59315 21.2045 2.25 19.8613 2.25 18.2045V6.20447ZM6.21967 7.17414C6.51256 6.88124 6.98744 6.88124 7.28033 7.17414L9.53033 9.42414C9.82322 9.71703 9.82322 10.1919 9.53033 10.4848L7.28033 12.7348C6.98744 13.0277 6.51256 13.0277 6.21967 12.7348C5.92678 12.4419 5.92678 11.967 6.21967 11.6741L7.93934 9.95447L6.21967 8.2348C5.92678 7.94191 5.92678 7.46703 6.21967 7.17414ZM10.5 11.4545C10.0858 11.4545 9.75 11.7903 9.75 12.2045C9.75 12.6187 10.0858 12.9545 10.5 12.9545H13.5C13.9142 12.9545 14.25 12.6187 14.25 12.2045C14.25 11.7903 13.9142 11.4545 13.5 11.4545H10.5Z" fill="black"/>
</svg>
