<svg width="24" height="25" viewBox="0 0 24 25" fill="none" xmlns="http://www.w3.org/2000/svg">
<path fill-rule="evenodd" clip-rule="evenodd" d="M2.25 5.45447C2.25 3.79761 3.59315 2.45447 5.25 2.45447H18.75C20.4069 2.45447 21.75 3.79761 21.75 5.45447V15.2045C21.75 16.8613 20.4069 18.2045 18.75 18.2045H15.75V18.4618C15.75 19.0586 15.9871 19.6309 16.409 20.0528L17.0303 20.6741C17.2448 20.8886 17.309 21.2112 17.1929 21.4915C17.0768 21.7717 16.8033 21.9545 16.5 21.9545H7.5C7.19665 21.9545 6.92318 21.7717 6.80709 21.4915C6.691 21.2112 6.75517 20.8886 6.96967 20.6741L7.59099 20.0528C8.01295 19.6309 8.25 19.0586 8.25 18.4618V18.2045H5.25C3.59315 18.2045 2.25 16.8613 2.25 15.2045V5.45447ZM3.75 5.45447V12.9545C3.75 13.7829 4.42157 14.4545 5.25 14.4545H18.75C19.5784 14.4545 20.25 13.7829 20.25 12.9545V5.45447C20.25 4.62604 19.5784 3.95447 18.75 3.95447H5.25C4.42157 3.95447 3.75 4.62604 3.75 5.45447Z" fill="black"/>
</svg>
