<svg width="24" height="25" viewBox="0 0 24 25" fill="none" xmlns="http://www.w3.org/2000/svg">
<path d="M16.5 7.70447H7.5V16.7045H16.5V7.70447Z" fill="black"/>
<path fill-rule="evenodd" clip-rule="evenodd" d="M8.25 2.45447C8.66421 2.45447 9 2.79025 9 3.20447V3.95447H11.25V3.20447C11.25 2.79025 11.5858 2.45447 12 2.45447C12.4142 2.45447 12.75 2.79025 12.75 3.20447V3.95447H15V3.20447C15 2.79025 15.3358 2.45447 15.75 2.45447C16.1642 2.45447 16.5 2.79025 16.5 3.20447V3.95447H17.25C18.9069 3.95447 20.25 5.29761 20.25 6.95447V7.70447H21C21.4142 7.70447 21.75 8.04025 21.75 8.45447C21.75 8.86868 21.4142 9.20447 21 9.20447H20.25V11.4545H21C21.4142 11.4545 21.75 11.7903 21.75 12.2045C21.75 12.6187 21.4142 12.9545 21 12.9545H20.25V15.2045H21C21.4142 15.2045 21.75 15.5403 21.75 15.9545C21.75 16.3687 21.4142 16.7045 21 16.7045H20.25V17.4545C20.25 19.1113 18.9069 20.4545 17.25 20.4545H16.5V21.2045C16.5 21.6187 16.1642 21.9545 15.75 21.9545C15.3358 21.9545 15 21.6187 15 21.2045V20.4545H12.75V21.2045C12.75 21.6187 12.4142 21.9545 12 21.9545C11.5858 21.9545 11.25 21.6187 11.25 21.2045V20.4545H9V21.2045C9 21.6187 8.66421 21.9545 8.25 21.9545C7.83579 21.9545 7.5 21.6187 7.5 21.2045V20.4545H6.75C5.09315 20.4545 3.75 19.1113 3.75 17.4545V16.7045H3C2.58579 16.7045 2.25 16.3687 2.25 15.9545C2.25 15.5403 2.58579 15.2045 3 15.2045H3.75V12.9545H3C2.58579 12.9545 2.25 12.6187 2.25 12.2045C2.25 11.7903 2.58579 11.4545 3 11.4545H3.75V9.20447H3C2.58579 9.20447 2.25 8.86868 2.25 8.45447C2.25 8.04025 2.58579 7.70447 3 7.70447H3.75V6.95447C3.75 5.29761 5.09315 3.95447 6.75 3.95447H7.5V3.20447C7.5 2.79025 7.83579 2.45447 8.25 2.45447ZM6 6.95447C6 6.54025 6.33579 6.20447 6.75 6.20447H17.25C17.6642 6.20447 18 6.54025 18 6.95447V17.4545C18 17.8687 17.6642 18.2045 17.25 18.2045H6.75C6.33579 18.2045 6 17.8687 6 17.4545V6.95447Z" fill="black"/>
</svg>
