<svg width="24" height="25" viewBox="0 0 24 25" fill="none" xmlns="http://www.w3.org/2000/svg">
<path d="M4.5 3.95447C2.84315 3.95447 1.5 5.29761 1.5 6.95447V7.70447H22.5V6.95447C22.5 5.29761 21.1569 3.95447 19.5 3.95447H4.5Z" fill="black"/>
<path fill-rule="evenodd" clip-rule="evenodd" d="M22.5 9.95447H1.5V17.4545C1.5 19.1113 2.84315 20.4545 4.5 20.4545H19.5C21.1569 20.4545 22.5 19.1113 22.5 17.4545V9.95447ZM4.5 13.7045C4.5 13.2903 4.83579 12.9545 5.25 12.9545H11.25C11.6642 12.9545 12 13.2903 12 13.7045C12 14.1187 11.6642 14.4545 11.25 14.4545H5.25C4.83579 14.4545 4.5 14.1187 4.5 13.7045ZM5.25 15.9545C4.83579 15.9545 4.5 16.2903 4.5 16.7045C4.5 17.1187 4.83579 17.4545 5.25 17.4545H8.25C8.66421 17.4545 9 17.1187 9 16.7045C9 16.2903 8.66421 15.9545 8.25 15.9545H5.25Z" fill="black"/>
</svg>
