<svg width="24" height="25" viewBox="0 0 24 25" fill="none" xmlns="http://www.w3.org/2000/svg">
<path fill-rule="evenodd" clip-rule="evenodd" d="M11.6221 1.80663C11.8556 1.67041 12.1444 1.67041 12.3779 1.80663L14.6279 3.11913C14.9857 3.32784 15.1065 3.78708 14.8978 4.14487C14.6891 4.50266 14.2299 4.62351 13.8721 4.4148L12 3.32275L10.1279 4.4148C9.77011 4.62351 9.31088 4.50266 9.10217 4.14487C8.89346 3.78708 9.01431 3.32784 9.3721 3.11913L11.6221 1.80663ZM5.89783 6.01406C6.10654 6.37185 5.98569 6.83109 5.6279 7.0398L4.48848 7.70447L5.6279 8.36913C5.98569 8.57784 6.10654 9.03708 5.89783 9.39487C5.68912 9.75266 5.22989 9.87351 4.8721 9.6648L3.75 9.01025V9.95447C3.75 10.3687 3.41421 10.7045 3 10.7045C2.58579 10.7045 2.25 10.3687 2.25 9.95447V7.70447C2.25 7.43772 2.39168 7.19104 2.6221 7.05663L4.8721 5.74413C5.22989 5.53542 5.68912 5.65628 5.89783 6.01406ZM18.1022 6.01406C18.3109 5.65628 18.7701 5.53542 19.1279 5.74413L21.3779 7.05663C21.6083 7.19104 21.75 7.43772 21.75 7.70447V9.95447C21.75 10.3687 21.4142 10.7045 21 10.7045C20.5858 10.7045 20.25 10.3687 20.25 9.95447V9.01025L19.1279 9.6648C18.7701 9.87351 18.3109 9.75266 18.1022 9.39487C17.8935 9.03708 18.0143 8.57784 18.3721 8.36913L19.5115 7.70447L18.3721 7.0398C18.0143 6.83109 17.8935 6.37185 18.1022 6.01406ZM9.10217 11.2641C9.31088 10.9063 9.77011 10.7854 10.1279 10.9941L12 12.0862L13.8721 10.9941C14.2299 10.7854 14.6891 10.9063 14.8978 11.2641C15.1065 11.6219 14.9857 12.0811 14.6279 12.2898L12.75 13.3852V15.2045C12.75 15.6187 12.4142 15.9545 12 15.9545C11.5858 15.9545 11.25 15.6187 11.25 15.2045V13.3852L9.3721 12.2898C9.01431 12.0811 8.89346 11.6219 9.10217 11.2641ZM3 13.7045C3.41421 13.7045 3.75 14.0403 3.75 14.4545V16.2737L5.6279 17.3691C5.98569 17.5778 6.10654 18.0371 5.89783 18.3949C5.68912 18.7527 5.22989 18.8735 4.8721 18.6648L2.6221 17.3523C2.39168 17.2179 2.25 16.9712 2.25 16.7045V14.4545C2.25 14.0403 2.58579 13.7045 3 13.7045ZM21 13.7045C21.4142 13.7045 21.75 14.0403 21.75 14.4545V16.7045C21.75 16.9712 21.6083 17.2179 21.3779 17.3523L19.1279 18.6648C18.7701 18.8735 18.3109 18.7527 18.1022 18.3949C17.8935 18.0371 18.0143 17.5778 18.3721 17.3691L20.25 16.2737V14.4545C20.25 14.0403 20.5858 13.7045 21 13.7045ZM12 18.9545C12.4142 18.9545 12.75 19.2903 12.75 19.7045V20.6487L13.8721 19.9941C14.2299 19.7854 14.6891 19.9063 14.8978 20.2641C15.1065 20.6219 14.9857 21.0811 14.6279 21.2898L12.3779 22.6023C12.1444 22.7385 11.8556 22.7385 11.6221 22.6023L9.3721 21.2898C9.01431 21.0811 8.89346 20.6219 9.10217 20.2641C9.31088 19.9063 9.77011 19.7854 10.1279 19.9941L11.25 20.6487V19.7045C11.25 19.2903 11.5858 18.9545 12 18.9545Z" fill="black"/>
</svg>
