<svg width="24" height="25" viewBox="0 0 24 25" fill="none" xmlns="http://www.w3.org/2000/svg">
<path fill-rule="evenodd" clip-rule="evenodd" d="M12 2.45447C6.61522 2.45447 2.25 6.81969 2.25 12.2045C2.25 17.5892 6.61522 21.9545 12 21.9545C17.3848 21.9545 21.75 17.5892 21.75 12.2045C21.75 6.81969 17.3848 2.45447 12 2.45447ZM9.76273 9.71449C9.81529 9.22068 10.0302 8.74231 10.409 8.36348C11.2877 7.4848 12.7123 7.4848 13.591 8.36348C13.8839 8.65637 14.3588 8.65637 14.6517 8.36348C14.9445 8.07058 14.9445 7.59571 14.6517 7.30282C13.1872 5.83835 10.8128 5.83835 9.34835 7.30282C8.7183 7.93286 8.3587 8.73328 8.27116 9.55573C8.23849 9.86267 8.27044 10.1507 8.30277 10.3771L8.45668 11.4545H8.25C7.83579 11.4545 7.5 11.7903 7.5 12.2045C7.5 12.6187 7.83579 12.9545 8.25 12.9545H8.67097L8.80874 13.9189C8.91661 14.674 8.79165 15.444 8.45053 16.1263L8.32918 16.369C8.19352 16.6403 8.23466 16.9666 8.43341 17.1958C8.63216 17.4249 8.94939 17.5118 9.23717 17.4159L10.7757 16.9031C11.0836 16.8004 11.4164 16.8004 11.7243 16.9031L12.3787 17.1212C13.1335 17.3728 13.9573 17.3142 14.669 16.9584L15.3354 16.6252C15.7059 16.44 15.8561 15.9895 15.6708 15.619C15.4856 15.2485 15.0351 15.0983 14.6646 15.2836L13.9982 15.6168C13.6424 15.7947 13.2304 15.824 12.853 15.6981L12.1987 15.48C11.5829 15.2748 10.9171 15.2748 10.3013 15.48L10.2401 15.5004C10.3601 14.9133 10.3794 14.3067 10.2937 13.7067L10.1862 12.9545H12C12.4142 12.9545 12.75 12.6187 12.75 12.2045C12.75 11.7903 12.4142 11.4545 12 11.4545H9.97191L9.7877 10.165C9.7598 9.96965 9.75032 9.83111 9.76273 9.71449Z" fill="black"/>
</svg>
