<svg width="24" height="25" viewBox="0 0 24 25" fill="none" xmlns="http://www.w3.org/2000/svg">
<path fill-rule="evenodd" clip-rule="evenodd" d="M12 21.9545C17.3848 21.9545 21.75 17.5892 21.75 12.2045C21.75 6.81969 17.3848 2.45447 12 2.45447C6.61522 2.45447 2.25 6.81969 2.25 12.2045C2.25 17.5892 6.61522 21.9545 12 21.9545ZM10.5002 8.16792C10.5002 7.05285 9.3267 6.3276 8.32934 6.82628L7.91475 7.03357C7.54427 7.21882 7.3941 7.66932 7.57934 8.03981C7.76459 8.41029 8.21509 8.56046 8.58557 8.37522L9.00016 8.16792V9.9544H8.25016C7.83595 9.9544 7.50016 10.2902 7.50016 10.7044C7.50016 11.1186 7.83595 11.4544 8.25016 11.4544H9.00016V16.1427C9.00016 16.7059 9.25961 17.34 9.8671 17.6676C10.5027 18.0103 11.2299 18.2044 12.0002 18.2044C14.1781 18.2044 15.9932 16.658 16.4102 14.6036C16.6086 13.6262 15.7739 12.9544 14.9952 12.9544H14.2502C13.836 12.9544 13.5002 13.2902 13.5002 13.7044C13.5002 14.1186 13.836 14.4544 14.2502 14.4544H14.9058C14.5731 15.7484 13.3975 16.7044 12.0002 16.7044C11.4844 16.7044 11.0012 16.5749 10.579 16.3473C10.5674 16.341 10.5508 16.3283 10.5338 16.296C10.5155 16.2611 10.5002 16.2081 10.5002 16.1427V11.4544H15.7502C16.1644 11.4544 16.5002 11.1186 16.5002 10.7044C16.5002 10.2902 16.1644 9.9544 15.7502 9.9544H10.5002V8.16792Z" fill="black"/>
</svg>
