<svg width="24" height="25" viewBox="0 0 24 25" fill="none" xmlns="http://www.w3.org/2000/svg">
<path d="M10.4636 8.95073C10.6908 8.77024 10.9607 8.63898 11.25 8.55696V11.3519C10.9552 11.2682 10.686 11.1349 10.4636 10.9582C10.0699 10.6454 9.91752 10.2774 9.91752 9.95447C9.91752 9.63152 10.0699 9.26351 10.4636 8.95073Z" fill="black"/>
<path d="M12.75 15.8661V13.0428C13.0972 13.1272 13.4138 13.2703 13.6713 13.4634C14.0978 13.7833 14.25 14.1493 14.25 14.4544C14.25 14.7596 14.0978 15.1256 13.6713 15.4454C13.4138 15.6386 13.0972 15.7816 12.75 15.8661Z" fill="black"/>
<path fill-rule="evenodd" clip-rule="evenodd" d="M12 2.45447C6.61522 2.45447 2.25 6.81969 2.25 12.2045C2.25 17.5892 6.61522 21.9545 12 21.9545C17.3848 21.9545 21.75 17.5892 21.75 12.2045C21.75 6.81969 17.3848 2.45447 12 2.45447ZM12.75 6.20447C12.75 5.79025 12.4142 5.45447 12 5.45447C11.5858 5.45447 11.25 5.79025 11.25 6.20447V7.02009C10.6231 7.13116 10.0253 7.3832 9.53058 7.77622C8.81822 8.34212 8.41752 9.12577 8.41752 9.95447C8.41752 10.7832 8.81822 11.5668 9.53058 12.1327C10.033 12.5319 10.6327 12.7795 11.25 12.8888V15.866C10.9028 15.7816 10.5864 15.6386 10.3289 15.4454L9.45001 14.7863C9.11865 14.5377 8.64854 14.6049 8.40001 14.9362C8.15147 15.2676 8.21862 15.7377 8.54999 15.9862L9.42886 16.6454C9.96206 17.0453 10.5979 17.29 11.25 17.3948V18.2045C11.25 18.6187 11.5858 18.9545 12 18.9545C12.4142 18.9545 12.75 18.6187 12.75 18.2045V17.3948C13.4021 17.2901 14.0381 17.0454 14.5714 16.6454C15.3164 16.0866 15.75 15.301 15.75 14.4544C15.75 13.6079 15.3164 12.8223 14.5714 12.2635C14.0381 11.8635 13.4021 11.6188 12.75 11.5141V8.55704C13.0392 8.63906 13.309 8.7703 13.5361 8.95073L13.951 9.28032C14.2753 9.53797 14.7471 9.48391 15.0048 9.15958C15.2624 8.83525 15.2084 8.36346 14.884 8.10581L14.4691 7.77622C13.9745 7.38326 13.3768 7.13123 12.75 7.02014V6.20447Z" fill="black"/>
</svg>
