<svg width="24" height="25" viewBox="0 0 24 25" fill="none" xmlns="http://www.w3.org/2000/svg">
<path fill-rule="evenodd" clip-rule="evenodd" d="M12 2.45447C6.61522 2.45447 2.25 6.81969 2.25 12.2045C2.25 17.5892 6.61522 21.9545 12 21.9545C17.3848 21.9545 21.75 17.5892 21.75 12.2045C21.75 6.81969 17.3848 2.45447 12 2.45447ZM10.0983 9.55282C11.1527 8.49851 12.6796 8.20215 14.0006 8.66802C14.3912 8.80579 14.8195 8.6008 14.9573 8.21017C15.0951 7.81953 14.8901 7.39118 14.4994 7.25342C12.6545 6.60275 10.5156 7.01422 9.03769 8.49216C8.60004 8.92981 8.25581 9.42551 8.005 9.95447H7.5C7.08579 9.95447 6.75 10.2903 6.75 10.7045C6.75 11.1187 7.08579 11.4545 7.5 11.4545H7.55353C7.48216 11.9517 7.48216 12.4572 7.55353 12.9545H7.5C7.08579 12.9545 6.75 13.2903 6.75 13.7045C6.75 14.1187 7.08579 14.4545 7.5 14.4545H8.005C8.25581 14.9834 8.60004 15.4791 9.03769 15.9168C10.5156 17.3947 12.6545 17.8062 14.4994 17.1555C14.8901 17.0178 15.0951 16.5894 14.9573 16.1988C14.8195 15.8081 14.3912 15.6031 14.0006 15.7409C12.6796 16.2068 11.1527 15.9104 10.0983 14.8561C9.97095 14.7287 9.85464 14.5944 9.74941 14.4545H12.75C13.1642 14.4545 13.5 14.1187 13.5 13.7045C13.5 13.2903 13.1642 12.9545 12.75 12.9545H9.07535C8.97488 12.4599 8.97488 11.949 9.07535 11.4545H12.75C13.1642 11.4545 13.5 11.1187 13.5 10.7045C13.5 10.2903 13.1642 9.95447 12.75 9.95447H9.74941C9.85464 9.8145 9.97095 9.68021 10.0983 9.55282Z" fill="black"/>
</svg>
