<svg width="24" height="25" viewBox="0 0 24 25" fill="none" xmlns="http://www.w3.org/2000/svg">
<path fill-rule="evenodd" clip-rule="evenodd" d="M12 2.45447C6.61522 2.45447 2.25 6.81969 2.25 12.2045C2.25 17.5892 6.61522 21.9545 12 21.9545C17.3848 21.9545 21.75 17.5892 21.75 12.2045C21.75 6.81969 17.3848 2.45447 12 2.45447ZM9.62404 7.28844C9.39427 6.9438 8.92862 6.85067 8.58397 7.08043C8.23933 7.31019 8.1462 7.77585 8.37596 8.12049L10.5986 11.4545H9C8.58579 11.4545 8.25 11.7903 8.25 12.2045C8.25 12.6187 8.58579 12.9545 9 12.9545H11.25V14.4545H9C8.58579 14.4545 8.25 14.7903 8.25 15.2045C8.25 15.6187 8.58579 15.9545 9 15.9545H11.25V17.4545C11.25 17.8687 11.5858 18.2045 12 18.2045C12.4142 18.2045 12.75 17.8687 12.75 17.4545V15.9545H15C15.4142 15.9545 15.75 15.6187 15.75 15.2045C15.75 14.7903 15.4142 14.4545 15 14.4545H12.75V12.9545H15C15.4142 12.9545 15.75 12.6187 15.75 12.2045C15.75 11.7903 15.4142 11.4545 15 11.4545H13.4014L15.624 8.12049C15.8538 7.77585 15.7607 7.31019 15.416 7.08043C15.0714 6.85067 14.6057 6.9438 14.376 7.28844L12 10.8524L9.62404 7.28844Z" fill="black"/>
</svg>
