<svg width="24" height="25" viewBox="0 0 24 25" fill="none" xmlns="http://www.w3.org/2000/svg">
<path fill-rule="evenodd" clip-rule="evenodd" d="M12 2.45447C6.61522 2.45447 2.25 6.81969 2.25 12.2045C2.25 17.5892 6.61522 21.9545 12 21.9545C17.3848 21.9545 21.75 17.5892 21.75 12.2045C21.75 6.81969 17.3848 2.45447 12 2.45447ZM9 7.70447C8.58579 7.70447 8.25 8.04025 8.25 8.45447C8.25 8.86868 8.58579 9.20447 9 9.20447H10.5C11.4797 9.20447 12.3131 9.83057 12.622 10.7045H9C8.58579 10.7045 8.25 11.0403 8.25 11.4545C8.25 11.8687 8.58579 12.2045 9 12.2045H12.622C12.3131 13.0784 11.4797 13.7045 10.5 13.7045H9C8.69665 13.7045 8.42318 13.8872 8.30709 14.1675C8.191 14.4477 8.25517 14.7703 8.46967 14.9848L11.4697 17.9848C11.7626 18.2777 12.2374 18.2777 12.5303 17.9848C12.8232 17.6919 12.8232 17.217 12.5303 16.9241L10.7989 15.1927C12.4785 15.0603 13.8468 13.8212 14.175 12.2045H15C15.4142 12.2045 15.75 11.8687 15.75 11.4545C15.75 11.0403 15.4142 10.7045 15 10.7045H14.175C14.0625 10.1503 13.8278 9.64053 13.5003 9.20447H15C15.4142 9.20447 15.75 8.86868 15.75 8.45447C15.75 8.04025 15.4142 7.70447 15 7.70447H9Z" fill="black"/>
</svg>
