<svg width="24" height="25" viewBox="0 0 24 25" fill="none" xmlns="http://www.w3.org/2000/svg">
<path d="M10.5 18.2045C10.0858 18.2045 9.75 18.5403 9.75 18.9545C9.75 19.3687 10.0858 19.7045 10.5 19.7045H13.5C13.9142 19.7045 14.25 19.3687 14.25 18.9545C14.25 18.5403 13.9142 18.2045 13.5 18.2045H10.5Z" fill="black"/>
<path fill-rule="evenodd" clip-rule="evenodd" d="M7.125 1.70447C5.26104 1.70447 3.75 3.21551 3.75 5.07947V19.3295C3.75 21.1934 5.26104 22.7045 7.125 22.7045H16.875C18.739 22.7045 20.25 21.1934 20.25 19.3295V5.07947C20.25 3.21551 18.739 1.70447 16.875 1.70447H7.125ZM6 5.07947C6 4.45815 6.50368 3.95447 7.125 3.95447H16.875C17.4963 3.95447 18 4.45815 18 5.07947V19.3295C18 19.9508 17.4963 20.4545 16.875 20.4545H7.125C6.50368 20.4545 6 19.9508 6 19.3295V5.07947Z" fill="black"/>
</svg>
