<svg width="24" height="25" viewBox="0 0 24 25" fill="none" xmlns="http://www.w3.org/2000/svg">
<g clip-path="url(#clip0_1_292)">
<path d="M10.5 18.9545C10.0858 18.9545 9.75 19.2903 9.75 19.7045C9.75 20.1187 10.0858 20.4545 10.5 20.4545H13.5C13.9142 20.4545 14.25 20.1187 14.25 19.7045C14.25 19.2903 13.9142 18.9545 13.5 18.9545H10.5Z" fill="black"/>
<path fill-rule="evenodd" clip-rule="evenodd" d="M8.625 0.954468C6.76104 0.954468 5.25 2.46551 5.25 4.32947V20.0795C5.25 21.9434 6.76104 23.4545 8.625 23.4545H15.375C17.239 23.4545 18.75 21.9434 18.75 20.0795V4.32947C18.75 2.46551 17.239 0.954468 15.375 0.954468H8.625ZM7.5 4.32947C7.5 3.70815 8.00368 3.20447 8.625 3.20447H9.75V3.57947C9.75 4.20079 10.2537 4.70447 10.875 4.70447H13.125C13.7463 4.70447 14.25 4.20079 14.25 3.57947V3.20447H15.375C15.9963 3.20447 16.5 3.70815 16.5 4.32947V20.0795C16.5 20.7008 15.9963 21.2045 15.375 21.2045H8.625C8.00368 21.2045 7.5 20.7008 7.5 20.0795V4.32947Z" fill="black"/>
</g>
<defs>
<clipPath id="clip0_1_292">
<rect width="24" height="24" fill="white" transform="translate(0 0.204468)"/>
</clipPath>
</defs>
</svg>
