<svg width="24" height="25" viewBox="0 0 24 25" fill="none" xmlns="http://www.w3.org/2000/svg">
<path d="M7.5 3.57947C7.5 2.54393 8.33947 1.70447 9.375 1.70447H9.75C11.8211 1.70447 13.5 3.3834 13.5 5.45447V7.32947C13.5 8.365 14.3395 9.20447 15.375 9.20447H17.25C19.3211 9.20447 21 10.8834 21 12.9545V16.3295C21 17.365 20.1605 18.2045 19.125 18.2045H9.375C8.33947 18.2045 7.5 17.365 7.5 16.3295V3.57947Z" fill="black"/>
<path d="M15 5.45447C15 4.14141 14.518 2.94095 13.7212 2.02037C17.1201 2.90824 19.7962 5.58434 20.6841 8.98327C19.7635 8.18651 18.5631 7.70447 17.25 7.70447H15.375C15.1679 7.70447 15 7.53657 15 7.32947V5.45447Z" fill="black"/>
<path d="M4.875 6.20447H6V16.3295C6 18.1934 7.51104 19.7045 9.375 19.7045H16.5V20.8295C16.5 21.865 15.6605 22.7045 14.625 22.7045H4.875C3.83947 22.7045 3 21.865 3 20.8295V8.07947C3 7.04393 3.83947 6.20447 4.875 6.20447Z" fill="black"/>
</svg>
