<svg width="24" height="25" viewBox="0 0 24 25" fill="none" xmlns="http://www.w3.org/2000/svg">
<path fill-rule="evenodd" clip-rule="evenodd" d="M9 1.70447H5.625C4.58947 1.70447 3.75 2.54393 3.75 3.57947V20.8295C3.75 21.865 4.58947 22.7045 5.625 22.7045H18.375C19.4105 22.7045 20.25 21.865 20.25 20.8295V12.9545C20.25 10.8834 18.5711 9.20447 16.5 9.20447H14.625C13.5895 9.20447 12.75 8.365 12.75 7.32947V5.45447C12.75 3.3834 11.0711 1.70447 9 1.70447ZM15.6103 12.6404C15.8511 12.3033 15.773 11.8349 15.4359 11.5942C15.0989 11.3534 14.6305 11.4315 14.3897 11.7685L11.1543 16.2981L9.53033 14.6741C9.23744 14.3812 8.76256 14.3812 8.46967 14.6741C8.17678 14.967 8.17678 15.4419 8.46967 15.7348L10.7197 17.9848C10.8756 18.1407 11.0921 18.2201 11.3119 18.2019C11.5316 18.1837 11.7322 18.0698 11.8603 17.8904L15.6103 12.6404Z" fill="black"/>
<path d="M12.9712 2.02037C13.768 2.94095 14.25 4.14141 14.25 5.45447V7.32947C14.25 7.53657 14.4179 7.70447 14.625 7.70447H16.5C17.8131 7.70447 19.0135 8.18651 19.9341 8.98327C19.0462 5.58434 16.3701 2.90824 12.9712 2.02037Z" fill="black"/>
</svg>
