<svg width="24" height="25" viewBox="0 0 24 25" fill="none" xmlns="http://www.w3.org/2000/svg">
<path d="M11.625 16.7045C12.6605 16.7045 13.5 15.865 13.5 14.8295C13.5 13.7939 12.6605 12.9545 11.625 12.9545C10.5895 12.9545 9.75 13.7939 9.75 14.8295C9.75 15.865 10.5895 16.7045 11.625 16.7045Z" fill="black"/>
<path fill-rule="evenodd" clip-rule="evenodd" d="M5.625 1.70447H9C11.0711 1.70447 12.75 3.3834 12.75 5.45447V7.32947C12.75 8.365 13.5895 9.20447 14.625 9.20447H16.5C18.5711 9.20447 20.25 10.8834 20.25 12.9545V20.8295C20.25 21.865 19.4105 22.7045 18.375 22.7045H5.625C4.58947 22.7045 3.75 21.865 3.75 20.8295V3.57947C3.75 2.54393 4.58947 1.70447 5.625 1.70447ZM11.625 18.2045C12.2854 18.2045 12.9016 18.0148 13.4219 17.6869L14.4698 18.7348C14.7627 19.0277 15.2376 19.0277 15.5305 18.7348C15.8234 18.4419 15.8234 17.967 15.5305 17.6741L14.4825 16.6262C14.8103 16.1059 15 15.4898 15 14.8295C15 12.9655 13.489 11.4545 11.625 11.4545C9.76104 11.4545 8.25 12.9655 8.25 14.8295C8.25 16.6934 9.76104 18.2045 11.625 18.2045Z" fill="black"/>
<path d="M14.25 5.45447C14.25 4.14141 13.768 2.94095 12.9712 2.02037C16.3701 2.90824 19.0462 5.58434 19.9341 8.98327C19.0135 8.18651 17.8131 7.70447 16.5 7.70447H14.625C14.4179 7.70447 14.25 7.53657 14.25 7.32947V5.45447Z" fill="black"/>
</svg>
