<svg width="24" height="25" viewBox="0 0 24 25" fill="none" xmlns="http://www.w3.org/2000/svg">
<path fill-rule="evenodd" clip-rule="evenodd" d="M5.625 1.70447H9C11.0711 1.70447 12.75 3.3834 12.75 5.45447V7.32947C12.75 8.365 13.5895 9.20447 14.625 9.20447H16.5C18.5711 9.20447 20.25 10.8834 20.25 12.9545V20.8295C20.25 21.865 19.4105 22.7045 18.375 22.7045H5.625C4.58947 22.7045 3.75 21.865 3.75 20.8295V3.57947C3.75 2.54393 4.58947 1.70447 5.625 1.70447ZM12.75 12.2045C12.75 11.7903 12.4142 11.4545 12 11.4545C11.5858 11.4545 11.25 11.7903 11.25 12.2045V14.4545H9C8.58579 14.4545 8.25 14.7903 8.25 15.2045C8.25 15.6187 8.58579 15.9545 9 15.9545H11.25V18.2045C11.25 18.6187 11.5858 18.9545 12 18.9545C12.4142 18.9545 12.75 18.6187 12.75 18.2045V15.9545H15C15.4142 15.9545 15.75 15.6187 15.75 15.2045C15.75 14.7903 15.4142 14.4545 15 14.4545H12.75V12.2045Z" fill="black"/>
<path d="M14.25 5.45447C14.25 4.14141 13.768 2.94095 12.9712 2.02037C16.3701 2.90824 19.0462 5.58434 19.9341 8.98327C19.0135 8.18651 17.8131 7.70447 16.5 7.70447H14.625C14.4179 7.70447 14.25 7.53657 14.25 7.32947V5.45447Z" fill="black"/>
</svg>
