<svg width="24" height="25" viewBox="0 0 24 25" fill="none" xmlns="http://www.w3.org/2000/svg">
<path fill-rule="evenodd" clip-rule="evenodd" d="M12 2.45447C6.61522 2.45447 2.25 6.81969 2.25 12.2045C2.25 17.5892 6.61522 21.9545 12 21.9545C17.3848 21.9545 21.75 17.5892 21.75 12.2045C21.75 6.81969 17.3848 2.45447 12 2.45447ZM12 11.0795C11.3787 11.0795 10.875 11.5831 10.875 12.2045C10.875 12.8258 11.3787 13.3295 12 13.3295C12.6213 13.3295 13.125 12.8258 13.125 12.2045C13.125 11.5831 12.6213 11.0795 12 11.0795ZM15.375 12.2045C15.375 11.5831 15.8787 11.0795 16.5 11.0795C17.1213 11.0795 17.625 11.5831 17.625 12.2045C17.625 12.8258 17.1213 13.3295 16.5 13.3295C15.8787 13.3295 15.375 12.8258 15.375 12.2045ZM7.5 11.0795C6.87868 11.0795 6.375 11.5831 6.375 12.2045C6.375 12.8258 6.87868 13.3295 7.5 13.3295C8.12132 13.3295 8.625 12.8258 8.625 12.2045C8.625 11.5831 8.12132 11.0795 7.5 11.0795Z" fill="black"/>
</svg>
