<svg width="24" height="25" viewBox="0 0 24 25" fill="none" xmlns="http://www.w3.org/2000/svg">
<path fill-rule="evenodd" clip-rule="evenodd" d="M4.5 12.2045C4.5 11.376 5.17157 10.7045 6 10.7045C6.82843 10.7045 7.5 11.376 7.5 12.2045C7.5 13.0329 6.82843 13.7045 6 13.7045C5.17157 13.7045 4.5 13.0329 4.5 12.2045ZM10.5 12.2045C10.5 11.376 11.1716 10.7045 12 10.7045C12.8284 10.7045 13.5 11.376 13.5 12.2045C13.5 13.0329 12.8284 13.7045 12 13.7045C11.1716 13.7045 10.5 13.0329 10.5 12.2045ZM16.5 12.2045C16.5 11.376 17.1716 10.7045 18 10.7045C18.8284 10.7045 19.5 11.376 19.5 12.2045C19.5 13.0329 18.8284 13.7045 18 13.7045C17.1716 13.7045 16.5 13.0329 16.5 12.2045Z" fill="black"/>
</svg>
