<svg width="24" height="25" viewBox="0 0 24 25" fill="none" xmlns="http://www.w3.org/2000/svg">
<path fill-rule="evenodd" clip-rule="evenodd" d="M10.5 6.20447C10.5 5.37604 11.1716 4.70447 12 4.70447C12.8284 4.70447 13.5 5.37604 13.5 6.20447C13.5 7.03289 12.8284 7.70447 12 7.70447C11.1716 7.70447 10.5 7.03289 10.5 6.20447ZM10.5 12.2045C10.5 11.376 11.1716 10.7045 12 10.7045C12.8284 10.7045 13.5 11.376 13.5 12.2045C13.5 13.0329 12.8284 13.7045 12 13.7045C11.1716 13.7045 10.5 13.0329 10.5 12.2045ZM10.5 18.2045C10.5 17.376 11.1716 16.7045 12 16.7045C12.8284 16.7045 13.5 17.376 13.5 18.2045C13.5 19.0329 12.8284 19.7045 12 19.7045C11.1716 19.7045 10.5 19.0329 10.5 18.2045Z" fill="black"/>
</svg>
