<svg width="24" height="25" viewBox="0 0 24 25" fill="none" xmlns="http://www.w3.org/2000/svg">
<path d="M19.5 22.7044C21.1569 22.7044 22.5 21.3613 22.5 19.7044V11.5307L15.6212 15.5525L19.1056 17.4287C19.4703 17.6251 19.6067 18.08 19.4104 18.4447C19.214 18.8094 18.7591 18.9458 18.3944 18.7494L12.7112 15.6892C12.2672 15.4502 11.7328 15.4502 11.2889 15.6892L5.60558 18.7494C5.24087 18.9458 4.78603 18.8094 4.58965 18.4447C4.39327 18.08 4.52972 17.6251 4.89442 17.4287L8.37878 15.5525L1.5 11.5307V19.7044C1.5 21.3613 2.84315 22.7044 4.5 22.7044L19.5 22.7044Z" fill="black"/>
<path d="M1.5 9.79308V9.04835C1.5 7.9447 2.10597 6.93017 3.0777 6.40694L10.5777 2.36847C11.4656 1.89036 12.5344 1.89036 13.4223 2.36847L20.9223 6.40694C21.894 6.93018 22.5 7.9447 22.5 9.04835V9.79308L14.0742 14.7195L13.4223 14.3685C12.5344 13.8904 11.4656 13.8904 10.5777 14.3685L9.92585 14.7195L1.5 9.79308Z" fill="black"/>
</svg>
