<svg width="24" height="25" viewBox="0 0 24 25" fill="none" xmlns="http://www.w3.org/2000/svg">
<path fill-rule="evenodd" clip-rule="evenodd" d="M2.25 12.2045C2.25 6.81969 6.61522 2.45447 12 2.45447C17.3848 2.45447 21.75 6.81969 21.75 12.2045C21.75 17.5892 17.3848 21.9545 12 21.9545C6.61522 21.9545 2.25 17.5892 2.25 12.2045ZM12 8.45447C12.4142 8.45447 12.75 8.79025 12.75 9.20447V12.9545C12.75 13.3687 12.4142 13.7045 12 13.7045C11.5858 13.7045 11.25 13.3687 11.25 12.9545V9.20447C11.25 8.79025 11.5858 8.45447 12 8.45447ZM12 16.7045C12.4142 16.7045 12.75 16.3687 12.75 15.9545C12.75 15.5403 12.4142 15.2045 12 15.2045C11.5858 15.2045 11.25 15.5403 11.25 15.9545C11.25 16.3687 11.5858 16.7045 12 16.7045Z" fill="black"/>
</svg>
