<svg width="24" height="25" viewBox="0 0 24 25" fill="none" xmlns="http://www.w3.org/2000/svg">
<path fill-rule="evenodd" clip-rule="evenodd" d="M9.40123 3.20786C10.5557 1.20675 13.4439 1.20675 14.5983 3.20786L21.9527 15.9554C23.1065 17.9554 21.6631 20.4545 19.3541 20.4545H4.64546C2.33649 20.4545 0.893061 17.9554 2.04691 15.9554L9.40123 3.20786ZM12 8.45447C12.4142 8.45447 12.75 8.79025 12.75 9.20447V12.9545C12.75 13.3687 12.4142 13.7045 12 13.7045C11.5858 13.7045 11.25 13.3687 11.25 12.9545V9.20447C11.25 8.79025 11.5858 8.45447 12 8.45447ZM12 16.7045C12.4142 16.7045 12.75 16.3687 12.75 15.9545C12.75 15.5403 12.4142 15.2045 12 15.2045C11.5858 15.2045 11.25 15.5403 11.25 15.9545C11.25 16.3687 11.5858 16.7045 12 16.7045Z" fill="black"/>
</svg>
