<svg width="24" height="25" viewBox="0 0 24 25" fill="none" xmlns="http://www.w3.org/2000/svg">
<path fill-rule="evenodd" clip-rule="evenodd" d="M16.0982 2.80282C17.5627 1.33835 19.9371 1.33835 21.4015 2.80282C22.866 4.26728 22.866 6.64165 21.4015 8.10612C20.9192 8.58847 20.3362 8.91257 19.7198 9.07711L18 9.53794V12.2045C18 12.4034 17.921 12.5941 17.7803 12.7348L17.0303 13.4848C16.7374 13.7777 16.2626 13.7777 15.9697 13.4848L15 12.5151L7.06066 20.4545C6.58044 20.9347 5.92913 21.2045 5.25 21.2045C4.9687 21.2045 4.69891 21.3162 4.5 21.5151L3.53033 22.4848C3.23744 22.7777 2.76256 22.7777 2.46967 22.4848L1.71967 21.7348C1.42678 21.4419 1.42678 20.967 1.71967 20.6741L2.68934 19.7045C2.88825 19.5056 3 19.2358 3 18.9545C3 18.2753 3.26978 17.624 3.75 17.1438L11.6893 9.20446L10.7197 8.23478C10.4268 7.94189 10.4268 7.46702 10.7197 7.17412L11.4697 6.42412C11.6103 6.28347 11.8011 6.20445 12 6.20445H14.6661L15.127 4.48423C15.2917 3.86769 15.6161 3.28495 16.0982 2.80282ZM12.75 10.2651L4.81066 18.2045C4.61175 18.4034 4.5 18.6732 4.5 18.9545C4.5 19.2727 4.44077 19.5848 4.32841 19.8761C4.61967 19.7637 4.93178 19.7045 5.25 19.7045C5.5313 19.7045 5.80109 19.5927 6 19.3938L13.9393 11.4545L12.75 10.2651Z" fill="black"/>
</svg>
