<svg width="24" height="25" viewBox="0 0 24 25" fill="none" xmlns="http://www.w3.org/2000/svg">
<path d="M3.53033 2.67426C3.23744 2.38137 2.76256 2.38137 2.46967 2.67426C2.17678 2.96715 2.17678 3.44203 2.46967 3.73492L20.4697 21.7349C20.7626 22.0278 21.2374 22.0278 21.5303 21.7349C21.8232 21.442 21.8232 20.9672 21.5303 20.6743L3.53033 2.67426Z" fill="black"/>
<path d="M22.6759 12.7579C22.1319 14.3933 21.2226 15.8621 20.0447 17.0673L16.9462 13.9688C17.1429 13.4174 17.25 12.8235 17.25 12.2046C17.25 9.30509 14.8995 6.95459 12 6.95459C11.3811 6.95459 10.7871 7.06169 10.2358 7.25838L7.75898 4.78159C9.06783 4.2484 10.4998 3.95459 12.0005 3.95459C16.9708 3.95459 21.1864 7.1773 22.6755 11.645C22.7959 12.0061 22.796 12.3968 22.6759 12.7579Z" fill="black"/>
<path d="M15.75 12.2046C15.75 12.3848 15.7373 12.562 15.7127 12.7353L11.4692 8.49186C11.6426 8.46729 11.8198 8.45459 12 8.45459C14.0711 8.45459 15.75 10.1335 15.75 12.2046Z" fill="black"/>
<path d="M12.5308 15.9173L8.28727 11.6738C8.2627 11.8472 8.25 12.0244 8.25 12.2046C8.25 14.2757 9.92893 15.9546 12 15.9546C12.1802 15.9546 12.3574 15.9419 12.5308 15.9173Z" fill="black"/>
<path d="M6.75 12.2046C6.75 11.5857 6.8571 10.9917 7.05379 10.4404L3.95492 7.34149C2.77687 8.54681 1.86747 10.0157 1.32341 11.6513C1.20328 12.0124 1.2034 12.4031 1.32374 12.7641C2.81284 17.2319 7.02847 20.4546 11.9988 20.4546C13.4997 20.4546 14.9318 20.1607 16.2408 19.6274L13.7642 17.1508C13.2129 17.3475 12.6189 17.4546 12 17.4546C9.1005 17.4546 6.75 15.1041 6.75 12.2046Z" fill="black"/>
</svg>
