<svg width="24" height="25" viewBox="0 0 24 25" fill="none" xmlns="http://www.w3.org/2000/svg">
<path d="M12 15.2045C13.6569 15.2045 15 13.8613 15 12.2045C15 10.5476 13.6569 9.20447 12 9.20447C10.3431 9.20447 9 10.5476 9 12.2045C9 13.8613 10.3431 15.2045 12 15.2045Z" fill="black"/>
<path fill-rule="evenodd" clip-rule="evenodd" d="M1.32341 11.6512C2.81066 7.18018 7.02791 3.95447 12.0005 3.95447C16.9708 3.95447 21.1864 7.17718 22.6755 11.6449C22.7959 12.006 22.796 12.3966 22.6759 12.7578C21.1886 17.2288 16.9714 20.4545 11.9988 20.4545C7.02847 20.4545 2.81284 17.2318 1.32374 12.764C1.2034 12.403 1.20328 12.0123 1.32341 11.6512ZM17.25 12.2045C17.25 15.104 14.8995 17.4545 12 17.4545C9.1005 17.4545 6.75 15.104 6.75 12.2045C6.75 9.30497 9.1005 6.95447 12 6.95447C14.8995 6.95447 17.25 9.30497 17.25 12.2045Z" fill="black"/>
</svg>
