<svg width="24" height="25" viewBox="0 0 24 25" fill="none" xmlns="http://www.w3.org/2000/svg">
<path fill-rule="evenodd" clip-rule="evenodd" d="M12 2.45459C6.61522 2.45459 2.25 6.81981 2.25 12.2046C2.25 17.5894 6.61522 21.9546 12 21.9546C17.3848 21.9546 21.75 17.5894 21.75 12.2046C21.75 6.81981 17.3848 2.45459 12 2.45459ZM9.375 8.45459C8.83433 8.45459 8.54674 8.8734 8.43901 9.08885C8.30886 9.34916 8.25 9.6563 8.25 9.95459C8.25 10.2529 8.30886 10.56 8.43901 10.8203C8.54674 11.0358 8.83433 11.4546 9.375 11.4546C9.91567 11.4546 10.2033 11.0358 10.311 10.8203C10.4411 10.56 10.5 10.2529 10.5 9.95459C10.5 9.6563 10.4411 9.34916 10.311 9.08885C10.2033 8.8734 9.91567 8.45459 9.375 8.45459ZM13.689 9.08885C13.7967 8.8734 14.0843 8.45459 14.625 8.45459C15.1657 8.45459 15.4533 8.8734 15.561 9.08885C15.6911 9.34916 15.75 9.6563 15.75 9.95459C15.75 10.2529 15.6911 10.56 15.561 10.8203C15.4533 11.0358 15.1657 11.4546 14.625 11.4546C14.0843 11.4546 13.7967 11.0358 13.689 10.8203C13.5589 10.56 13.5 10.2529 13.5 9.95459C13.5 9.6563 13.5589 9.34916 13.689 9.08885ZM9.34869 17.0528C9.0558 17.3457 8.58092 17.3457 8.28803 17.0528C7.99514 16.7599 7.99514 16.2851 8.28803 15.9922C9.31761 14.9626 10.6699 14.4499 12.0184 14.4545C13.3548 14.4591 14.6923 14.9718 15.7126 15.9922C16.0055 16.2851 16.0055 16.7599 15.7126 17.0528C15.4198 17.3457 14.9449 17.3457 14.652 17.0528C13.9229 16.3237 12.9698 15.9578 12.0132 15.9545C11.048 15.9512 10.0843 16.3172 9.34869 17.0528Z" fill="black"/>
</svg>
