<svg width="24" height="25" viewBox="0 0 24 25" fill="none" xmlns="http://www.w3.org/2000/svg">
<path fill-rule="evenodd" clip-rule="evenodd" d="M12 2.45459C6.61522 2.45459 2.25 6.81981 2.25 12.2046C2.25 17.5894 6.61522 21.9546 12 21.9546C17.3848 21.9546 21.75 17.5894 21.75 12.2046C21.75 6.81981 17.3848 2.45459 12 2.45459ZM9.375 8.45459C8.83433 8.45459 8.54674 8.8734 8.43901 9.08885C8.30886 9.34916 8.25 9.6563 8.25 9.95459C8.25 10.2529 8.30886 10.56 8.43901 10.8203C8.54674 11.0358 8.83433 11.4546 9.375 11.4546C9.91567 11.4546 10.2033 11.0358 10.311 10.8203C10.4411 10.56 10.5 10.2529 10.5 9.95459C10.5 9.6563 10.4411 9.34916 10.311 9.08885C10.2033 8.8734 9.91567 8.45459 9.375 8.45459ZM13.689 9.08885C13.7967 8.8734 14.0843 8.45459 14.625 8.45459C15.1657 8.45459 15.4533 8.8734 15.561 9.08885C15.6911 9.34916 15.75 9.6563 15.75 9.95459C15.75 10.2529 15.6911 10.56 15.561 10.8203C15.4533 11.0358 15.1657 11.4546 14.625 11.4546C14.0843 11.4546 13.7967 11.0358 13.689 10.8203C13.5589 10.56 13.5 10.2529 13.5 9.95459C13.5 9.6563 13.5589 9.34916 13.689 9.08885ZM15.7123 15.9169C16.0052 15.624 16.0052 15.1492 15.7123 14.8563C15.4194 14.5634 14.9445 14.5634 14.6517 14.8563C13.1872 16.3207 10.8128 16.3207 9.34835 14.8563C9.05546 14.5634 8.58058 14.5634 8.28769 14.8563C7.9948 15.1492 7.9948 15.624 8.28769 15.9169C10.3379 17.9672 13.6621 17.9672 15.7123 15.9169Z" fill="black"/>
</svg>
