<svg width="24" height="25" viewBox="0 0 24 25" fill="none" xmlns="http://www.w3.org/2000/svg">
<path fill-rule="evenodd" clip-rule="evenodd" d="M1.5 5.82959C1.5 4.79406 2.33947 3.95459 3.375 3.95459H20.625C21.6605 3.95459 22.5 4.79406 22.5 5.82959V18.5796C22.5 19.6151 21.6605 20.4546 20.625 20.4546H3.375C2.33947 20.4546 1.5 19.6151 1.5 18.5796V5.82959ZM3 5.82959V7.32959C3 7.5367 3.16789 7.70459 3.375 7.70459H4.875C5.08211 7.70459 5.25 7.5367 5.25 7.32959V5.82959C5.25 5.62248 5.08211 5.45459 4.875 5.45459H3.375C3.16789 5.45459 3 5.62248 3 5.82959ZM19.125 5.45459C18.9179 5.45459 18.75 5.62248 18.75 5.82959V7.32959C18.75 7.5367 18.9179 7.70459 19.125 7.70459H20.625C20.8321 7.70459 21 7.5367 21 7.32959V5.82959C21 5.62248 20.8321 5.45459 20.625 5.45459H19.125ZM21 9.57959C21 9.37248 20.8321 9.20459 20.625 9.20459H19.125C18.9179 9.20459 18.75 9.37248 18.75 9.57959V11.0796C18.75 11.2867 18.9179 11.4546 19.125 11.4546H20.625C20.8321 11.4546 21 11.2867 21 11.0796V9.57959ZM21 13.3296C21 13.1225 20.8321 12.9546 20.625 12.9546H19.125C18.9179 12.9546 18.75 13.1225 18.75 13.3296V14.8296C18.75 15.0367 18.9179 15.2046 19.125 15.2046H20.625C20.8321 15.2046 21 15.0367 21 14.8296V13.3296ZM21 17.0796C21 16.8725 20.8321 16.7046 20.625 16.7046H19.125C18.9179 16.7046 18.75 16.8725 18.75 17.0796V18.5796C18.75 18.7867 18.9179 18.9546 19.125 18.9546H20.625C20.8321 18.9546 21 18.7867 21 18.5796V17.0796ZM4.875 18.9546C5.08211 18.9546 5.25 18.7867 5.25 18.5796V17.0796C5.25 16.8725 5.08211 16.7046 4.875 16.7046H3.375C3.16789 16.7046 3 16.8725 3 17.0796V18.5796C3 18.7867 3.16789 18.9546 3.375 18.9546H4.875ZM3.375 15.2046H4.875C5.08211 15.2046 5.25 15.0367 5.25 14.8296V13.3296C5.25 13.1225 5.08211 12.9546 4.875 12.9546H3.375C3.16789 12.9546 3 13.1225 3 13.3296V14.8296C3 15.0367 3.16789 15.2046 3.375 15.2046ZM3.375 11.4546H4.875C5.08211 11.4546 5.25 11.2867 5.25 11.0796V9.57959C5.25 9.37248 5.08211 9.20459 4.875 9.20459H3.375C3.16789 9.20459 3 9.37248 3 9.57959V11.0796C3 11.2867 3.16789 11.4546 3.375 11.4546ZM7.5 11.4546C7.08579 11.4546 6.75 11.7904 6.75 12.2046C6.75 12.6188 7.08579 12.9546 7.5 12.9546H16.5C16.9142 12.9546 17.25 12.6188 17.25 12.2046C17.25 11.7904 16.9142 11.4546 16.5 11.4546H7.5Z" fill="black"/>
</svg>
