<svg width="24" height="25" viewBox="0 0 24 25" fill="none" xmlns="http://www.w3.org/2000/svg">
<path fill-rule="evenodd" clip-rule="evenodd" d="M12 3.95459C10.6232 3.95459 9.3447 4.36602 8.27806 5.07247C7.93272 5.3012 7.46736 5.20666 7.23863 4.86133C7.00991 4.51599 7.10444 4.05062 7.44978 3.8219C8.75444 2.95779 10.3196 2.45459 12 2.45459C16.5564 2.45459 20.25 6.14824 20.25 10.7046C20.25 13.7199 19.6759 16.6029 18.6299 19.2488C18.4776 19.634 18.0419 19.8228 17.6567 19.6705C17.2715 19.5183 17.0827 19.0825 17.2349 18.6973C18.2127 16.2242 18.75 13.5281 18.75 10.7046C18.75 6.97667 15.7279 3.95459 12 3.95459ZM6.15674 5.94322C6.50208 6.17194 6.59661 6.63731 6.36789 6.98265C5.66143 8.04928 5.25001 9.32775 5.25001 10.7046C5.25001 12.3178 4.78656 13.825 3.98462 15.0976C3.76378 15.448 3.30068 15.5531 2.95024 15.3322C2.59981 15.1114 2.49475 14.6483 2.71559 14.2978C3.37095 13.2579 3.75001 12.0267 3.75001 10.7046C3.75001 9.02418 4.25321 7.45902 5.11731 6.15436C5.34604 5.80903 5.81141 5.71449 6.15674 5.94322ZM12 7.70459C10.3432 7.70459 9.00001 9.04774 9.00001 10.7046C9.00001 13.8043 7.82404 16.6312 5.89465 18.7602C5.6165 19.0671 5.1422 19.0905 4.83527 18.8123C4.52834 18.5342 4.505 18.0599 4.78315 17.753C6.47221 15.8891 7.50001 13.4178 7.50001 10.7046C7.50001 8.21931 9.51473 6.20459 12 6.20459C14.4853 6.20459 16.5 8.21931 16.5 10.7046C16.5 11.2518 16.4778 11.7943 16.4334 12.331C16.3993 12.7438 16.037 13.0508 15.6242 13.0167C15.2114 12.9826 14.9044 12.6203 14.9385 12.2075C14.9794 11.7124 15 11.2112 15 10.7046C15 9.04774 13.6569 7.70459 12 7.70459ZM12.0003 9.95459C12.4145 9.95459 12.7503 10.2904 12.7503 10.7046C12.7503 14.6127 11.3259 18.1901 8.96887 20.943C8.69948 21.2576 8.22602 21.2943 7.91138 21.0249C7.59674 20.7555 7.56007 20.2821 7.82946 19.9674C9.9626 17.476 11.2503 14.2417 11.2503 10.7046C11.2503 10.2904 11.5861 9.95459 12.0003 9.95459ZM15.2387 15.1377C15.6371 15.2513 15.8678 15.6663 15.7542 16.0646C15.1843 18.0622 14.3041 19.9285 13.1694 21.6081C12.9375 21.9513 12.4713 22.0415 12.128 21.8097C11.7848 21.5778 11.6946 21.1116 11.9264 20.7683C12.974 19.2178 13.7861 17.4956 14.3118 15.6531C14.4254 15.2548 14.8404 15.024 15.2387 15.1377Z" fill="black"/>
</svg>
