<svg width="24" height="25" viewBox="0 0 24 25" fill="none" xmlns="http://www.w3.org/2000/svg">
<path fill-rule="evenodd" clip-rule="evenodd" d="M12.9633 2.49038C12.8416 2.32708 12.6586 2.22034 12.4565 2.19469C12.2545 2.16905 12.0506 2.2267 11.8919 2.3544C10.0218 3.85922 8.7174 6.04235 8.35322 8.53096C7.69665 8.055 7.11999 7.47511 6.6476 6.8154C6.51764 6.63392 6.3136 6.51975 6.09095 6.50393C5.8683 6.48812 5.65017 6.5723 5.49587 6.73359C3.95047 8.34901 3 10.5414 3 12.9542C3 17.9248 7.02944 21.9542 12 21.9542C16.9706 21.9542 21 17.9248 21 12.9542C21 9.29335 18.8143 6.14458 15.6798 4.73865C14.5706 4.19715 13.6547 3.41743 12.9633 2.49038ZM15.75 14.4546C15.75 16.5257 14.0711 18.2046 12 18.2046C9.92893 18.2046 8.25 16.5257 8.25 14.4546C8.25 14.0453 8.31559 13.6513 8.43682 13.2825C9.06529 13.7471 9.78769 14.0919 10.5703 14.2832C10.7862 12.8825 11.4866 11.6415 12.4949 10.737C14.3321 10.9792 15.75 12.5513 15.75 14.4546Z" fill="black"/>
</svg>
