<svg width="24" height="25" viewBox="0 0 24 25" fill="none" xmlns="http://www.w3.org/2000/svg">
<path fill-rule="evenodd" clip-rule="evenodd" d="M3 2.45459C3.41421 2.45459 3.75 2.79038 3.75 3.20459V3.74401L5.58819 3.28446C7.84613 2.71998 10.2315 2.98183 12.3132 4.02269L12.421 4.07655C14.1472 4.93966 16.1214 5.17026 18 4.72821L21.1096 3.99655C21.3465 3.94081 21.5958 4.00347 21.7781 4.16464C21.9605 4.3258 22.0533 4.56542 22.0271 4.80737C21.844 6.49772 21.75 8.21505 21.75 9.95459C21.75 11.7086 21.8455 13.4401 22.0317 15.1441C22.0728 15.5207 21.8266 15.8688 21.4579 15.9556L18.3436 16.6883C16.1234 17.2107 13.7902 16.9382 11.7501 15.9182L11.6424 15.8643C9.88097 14.9836 7.86256 14.762 5.95199 15.2397L3.75 15.7902V21.2046C3.75 21.6188 3.41421 21.9546 3 21.9546C2.58579 21.9546 2.25 21.6188 2.25 21.2046V3.20459C2.25 2.79038 2.58579 2.45459 3 2.45459Z" fill="black"/>
</svg>
