<svg width="24" height="25" viewBox="0 0 24 25" fill="none" xmlns="http://www.w3.org/2000/svg">
<path d="M19.5 21.2046C21.1569 21.2046 22.5 19.8614 22.5 18.2046V13.7046C22.5 12.0477 21.1569 10.7046 19.5 10.7046H4.5C2.84315 10.7046 1.5 12.0477 1.5 13.7046V18.2046C1.5 19.8614 2.84315 21.2046 4.5 21.2046H19.5Z" fill="black"/>
<path d="M1.5 10.3504V6.20459C1.5 4.54774 2.84315 3.20459 4.5 3.20459H9.87868C10.4754 3.20459 11.0477 3.44164 11.4697 3.8636L13.591 5.98492C13.7316 6.12557 13.9224 6.20459 14.1213 6.20459H19.5C21.1569 6.20459 22.5 7.54774 22.5 9.20459V10.3504C21.7039 9.63787 20.6525 9.20459 19.5 9.20459H4.5C3.34747 9.20459 2.29613 9.63787 1.5 10.3504Z" fill="black"/>
</svg>
