<svg width="24" height="25" viewBox="0 0 24 25" fill="none" xmlns="http://www.w3.org/2000/svg">
<path d="M19.9057 9.20459C20.2877 9.20459 20.6549 9.26123 21 9.36615V9.20459C21 7.54774 19.6569 6.20459 18 6.20459H14.1213C13.9224 6.20459 13.7316 6.12557 13.591 5.98492L11.4697 3.8636C11.0477 3.44164 10.4754 3.20459 9.87868 3.20459H6C4.34315 3.20459 3 4.54774 3 6.20459V9.36611C3.34508 9.26122 3.71223 9.20459 4.09421 9.20459H19.9057Z" fill="black"/>
<path d="M4.0943 10.7046C2.72506 10.7046 1.67327 11.9173 1.86691 13.2728L2.72405 19.2728C2.8824 20.3812 3.83173 21.2046 4.95144 21.2046H19.0486C20.1683 21.2046 21.1176 20.3813 21.276 19.2728L22.1331 13.2728C22.3268 11.9173 21.275 10.7046 19.9058 10.7046H4.0943Z" fill="black"/>
</svg>
