<svg width="24" height="25" viewBox="0 0 24 25" fill="none" xmlns="http://www.w3.org/2000/svg">
<path fill-rule="evenodd" clip-rule="evenodd" d="M19.5 21.2046C21.1569 21.2046 22.5 19.8614 22.5 18.2046V9.20459C22.5 7.54774 21.1569 6.20459 19.5 6.20459H14.1213C13.9224 6.20459 13.7316 6.12557 13.591 5.98492L11.4697 3.8636C11.0477 3.44164 10.4754 3.20459 9.87868 3.20459H4.5C2.84315 3.20459 1.5 4.54774 1.5 6.20459V18.2046C1.5 19.8614 2.84315 21.2046 4.5 21.2046H19.5ZM12.75 10.7046C12.75 10.2904 12.4142 9.95459 12 9.95459C11.5858 9.95459 11.25 10.2904 11.25 10.7046V12.9546H9C8.58579 12.9546 8.25 13.2904 8.25 13.7046C8.25 14.1188 8.58579 14.4546 9 14.4546H11.25V16.7046C11.25 17.1188 11.5858 17.4546 12 17.4546C12.4142 17.4546 12.75 17.1188 12.75 16.7046V14.4546H15C15.4142 14.4546 15.75 14.1188 15.75 13.7046C15.75 13.2904 15.4142 12.9546 15 12.9546H12.75V10.7046Z" fill="black"/>
</svg>
