<svg width="24" height="25" viewBox="0 0 24 25" fill="none" xmlns="http://www.w3.org/2000/svg">
<path fill-rule="evenodd" clip-rule="evenodd" d="M19.5 21.2046C21.1569 21.2046 22.5 19.8614 22.5 18.2046V9.20459C22.5 7.54774 21.1569 6.20459 19.5 6.20459H14.1213C13.9224 6.20459 13.7316 6.12557 13.591 5.98492L11.4697 3.8636C11.0477 3.44164 10.4754 3.20459 9.87868 3.20459H4.5C2.84315 3.20459 1.5 4.54774 1.5 6.20459V18.2046C1.5 19.8614 2.84315 21.2046 4.5 21.2046H19.5ZM12.75 10.7046C12.75 10.2904 12.4142 9.95459 12 9.95459C11.5858 9.95459 11.25 10.2904 11.25 10.7046L11.25 14.8939L9.53033 13.1743C9.23744 12.8814 8.76256 12.8814 8.46967 13.1743C8.17678 13.4672 8.17678 13.942 8.46967 14.2349L11.4697 17.2349C11.6103 17.3756 11.8011 17.4546 12 17.4546C12.1989 17.4546 12.3897 17.3756 12.5303 17.2349L15.5303 14.2349C15.8232 13.942 15.8232 13.4672 15.5303 13.1743C15.2374 12.8814 14.7626 12.8814 14.4697 13.1743L12.75 14.8939L12.75 10.7046Z" fill="black"/>
</svg>
