<svg width="24" height="25" viewBox="0 0 24 25" fill="none" xmlns="http://www.w3.org/2000/svg">
<path fill-rule="evenodd" clip-rule="evenodd" d="M3.79154 3.14284C6.46066 2.69021 9.20314 2.45459 12.0001 2.45459C14.7969 2.45459 17.5394 2.6902 20.2085 3.14281C21.1108 3.29583 21.75 4.08135 21.75 4.97861V6.02261C21.75 6.81826 21.4339 7.58132 20.8713 8.14393L14.6893 14.3259C14.408 14.6072 14.25 14.9887 14.25 15.3866V18.314C14.25 19.4503 13.608 20.4891 12.5916 20.9973L10.8354 21.8754C10.6029 21.9917 10.3268 21.9792 10.1057 21.8426C9.88459 21.7059 9.75 21.4645 9.75 21.2046V15.3866C9.75 14.9887 9.59196 14.6072 9.31066 14.3259L3.12868 8.14393C2.56607 7.58132 2.25 6.81826 2.25 6.02261V4.97863C2.25 4.08137 2.88917 3.29586 3.79154 3.14284Z" fill="black"/>
</svg>
