<svg width="24" height="25" viewBox="0 0 24 25" fill="none" xmlns="http://www.w3.org/2000/svg">
<path fill-rule="evenodd" clip-rule="evenodd" d="M4.5 3.95459C2.84315 3.95459 1.5 5.29774 1.5 6.95459V17.4546C1.5 19.1114 2.84315 20.4546 4.5 20.4546H19.5C21.1569 20.4546 22.5 19.1114 22.5 17.4546V6.95459C22.5 5.29774 21.1569 3.95459 19.5 3.95459H4.5ZM13.5 8.45459C13.5 8.04038 13.1642 7.70459 12.75 7.70459C12.3358 7.70459 12 8.04038 12 8.45459V15.9546C12 16.3688 12.3358 16.7046 12.75 16.7046C13.1642 16.7046 13.5 16.3688 13.5 15.9546V8.45459ZM15 8.45459C15 8.04038 15.3358 7.70459 15.75 7.70459H18.75C19.1642 7.70459 19.5 8.04038 19.5 8.45459C19.5 8.8688 19.1642 9.20459 18.75 9.20459H16.5V11.4546H18C18.4142 11.4546 18.75 11.7904 18.75 12.2046C18.75 12.6188 18.4142 12.9546 18 12.9546H16.5V15.9546C16.5 16.3688 16.1642 16.7046 15.75 16.7046C15.3358 16.7046 15 16.3688 15 15.9546V8.45459ZM6.63565 9.98425C7.03978 9.40934 7.5033 9.20459 7.88604 9.20459C8.26878 9.20459 8.7323 9.40934 9.13643 9.98425C9.37463 10.3231 9.84244 10.4047 10.1813 10.1665C10.5202 9.92831 10.6018 9.4605 10.3636 9.12163C9.73827 8.23207 8.85254 7.70459 7.88604 7.70459C6.91953 7.70459 6.03381 8.23207 5.4085 9.12163C4.7885 10.0036 4.5 11.1219 4.5 12.2046C4.5 13.2873 4.7885 14.4055 5.4085 15.2875C6.03381 16.1771 6.91953 16.7046 7.88604 16.7046C8.85254 16.7046 9.73827 16.1771 10.3636 15.2875C10.4524 15.1612 10.5 15.0106 10.5 14.8562V12.2046C10.5 11.7904 10.1642 11.4546 9.75 11.4546H8.25C7.83579 11.4546 7.5 11.7904 7.5 12.2046C7.5 12.6188 7.83579 12.9546 8.25 12.9546H9V14.6027C8.6305 15.0427 8.22634 15.2046 7.88604 15.2046C7.5033 15.2046 7.03978 14.9998 6.63565 14.4249C6.22622 13.8425 6 13.0413 6 12.2046C6 11.3678 6.22622 10.5667 6.63565 9.98425Z" fill="black"/>
</svg>
