<svg width="24" height="25" viewBox="0 0 24 25" fill="none" xmlns="http://www.w3.org/2000/svg">
<path d="M11.25 3.20459V7.25098C10.0748 6.13169 8.21463 6.14903 7.06066 7.303C5.91897 8.44469 5.88985 10.2776 6.9733 11.4546H1.5V5.45459C1.5 4.21195 2.50736 3.20459 3.75 3.20459H11.25Z" fill="black"/>
<path d="M12.75 3.20459V7.21561C13.927 6.13216 15.7599 6.16128 16.9016 7.30297C18.0433 8.44467 18.0724 10.2776 16.9889 11.4546H22.5V5.45459C22.5 4.21195 21.4926 3.20459 20.25 3.20459H12.75Z" fill="black"/>
<path d="M22.5 12.9546H13.5168C13.7063 15.057 15.4732 16.7046 17.625 16.7046C18.0392 16.7046 18.375 17.0404 18.375 17.4546C18.375 17.8688 18.0392 18.2046 17.625 18.2046C15.5412 18.2046 13.722 17.0714 12.75 15.3877V21.2046H20.25C21.4926 21.2046 22.5 20.1972 22.5 18.9546V12.9546Z" fill="black"/>
<path d="M11.25 21.2046V15.3877C10.278 17.0714 8.45885 18.2046 6.375 18.2046C5.96079 18.2046 5.625 17.8688 5.625 17.4546C5.625 17.0404 5.96079 16.7046 6.375 16.7046C8.52677 16.7046 10.2937 15.057 10.4832 12.9546H1.5V18.9546C1.5 20.1972 2.50736 21.2046 3.75 21.2046H11.25Z" fill="black"/>
<path d="M11.0855 10.5581C11.1154 10.856 11.1234 11.1332 11.1215 11.3638C10.8908 11.3657 10.6136 11.3578 10.3158 11.3278C9.48292 11.2439 8.63902 11.0027 8.12132 10.485C7.53553 9.89919 7.53553 8.94944 8.12132 8.36366C8.70711 7.77787 9.65685 7.77787 10.2426 8.36366C10.7603 8.88136 11.0016 9.72526 11.0855 10.5581Z" fill="black"/>
<path d="M12.8768 10.5581C12.8468 10.8559 12.8389 11.1331 12.8408 11.3638C13.0714 11.3657 13.3486 11.3577 13.6464 11.3278C14.4793 11.2439 15.3232 11.0026 15.8409 10.485C16.4267 9.89916 16.4267 8.94942 15.8409 8.36363C15.2551 7.77784 14.3054 7.77784 13.7196 8.36363C13.2019 8.88133 12.9606 9.72523 12.8768 10.5581Z" fill="black"/>
</svg>
