<svg width="24" height="25" viewBox="0 0 24 25" fill="none" xmlns="http://www.w3.org/2000/svg">
<path d="M9.375 3.20459C8.33947 3.20459 7.5 4.04406 7.5 5.07959C7.5 6.11512 8.33947 6.95459 9.375 6.95459H11.25V11.4546H3.375C2.33947 11.4546 1.5 10.6151 1.5 9.57959V8.82959C1.5 7.79406 2.33947 6.95459 3.375 6.95459H6.56833C6.20935 6.4183 6 5.77339 6 5.07959C6 3.21563 7.51104 1.70459 9.375 1.70459C10.4352 1.70459 11.3813 2.19347 12 2.95809C12.6187 2.19347 13.5648 1.70459 14.625 1.70459C16.489 1.70459 18 3.21563 18 5.07959C18 5.77339 17.7906 6.4183 17.4317 6.95459H21.375C22.4105 6.95459 23.25 7.79406 23.25 8.82959V9.57959C23.25 10.6151 22.4105 11.4546 21.375 11.4546H12.75V6.95459H14.625C15.6605 6.95459 16.5 6.11512 16.5 5.07959C16.5 4.04406 15.6605 3.20459 14.625 3.20459C13.5895 3.20459 12.75 4.04406 12.75 5.07959V6.95459H11.25V5.07959C11.25 4.04406 10.4105 3.20459 9.375 3.20459Z" fill="black"/>
<path d="M11.25 12.9546H3V19.7046C3 20.9472 4.00736 21.9546 5.25 21.9546H11.25V12.9546Z" fill="black"/>
<path d="M12.75 12.9546V21.9546H19.5C20.7426 21.9546 21.75 20.9472 21.75 19.7046V12.9546H12.75Z" fill="black"/>
</svg>
