<svg width="24" height="25" viewBox="0 0 24 25" fill="none" xmlns="http://www.w3.org/2000/svg">
<path d="M21.7214 12.9563C21.7404 12.7082 21.75 12.4575 21.75 12.2045C21.75 10.6804 21.4003 9.23787 20.7767 7.95294C19.5396 9.12728 18.0671 10.056 16.4374 10.6611C16.4789 11.1701 16.5 11.6848 16.5 12.2045C16.5 13.3057 16.4051 14.3847 16.2229 15.4339C18.2163 14.9323 20.0717 14.0838 21.7214 12.9563Z" fill="black"/>
<path d="M14.6343 15.7546C14.874 14.6089 15 13.4214 15 12.2045C15 11.8361 14.9885 11.4704 14.9657 11.1078C14.0141 11.3345 13.021 11.4545 12 11.4545C10.979 11.4545 9.98594 11.3345 9.0343 11.1078C9.01155 11.4704 9 11.8361 9 12.2045C9 13.4214 9.12601 14.6089 9.3657 15.7546C10.2246 15.8863 11.1043 15.9545 12 15.9545C12.8957 15.9545 13.7754 15.8863 14.6343 15.7546Z" fill="black"/>
<path d="M9.77224 17.3236C10.5028 17.41 11.2462 17.4545 12 17.4545C12.7538 17.4545 13.4972 17.41 14.2278 17.3236C13.714 18.9792 12.9575 20.5281 12 21.9286C11.0425 20.5281 10.286 18.9792 9.77224 17.3236Z" fill="black"/>
<path d="M7.77705 15.4339C7.59493 14.3847 7.5 13.3057 7.5 12.2045C7.5 11.6848 7.52114 11.1701 7.56261 10.6611C5.93286 10.056 4.46039 9.12728 3.22333 7.95294C2.59973 9.23787 2.25 10.6804 2.25 12.2045C2.25 12.4575 2.25964 12.7082 2.27856 12.9563C3.92826 14.0838 5.78374 14.9323 7.77705 15.4339Z" fill="black"/>
<path d="M21.3561 14.957C20.3404 18.415 17.4597 21.0751 13.8776 21.7739C14.744 20.3169 15.4185 18.7324 15.8664 17.0554C17.8263 16.6446 19.6736 15.9277 21.3561 14.957Z" fill="black"/>
<path d="M2.64395 14.957C4.32642 15.9277 6.17372 16.6446 8.13356 17.0554C8.58146 18.7324 9.25602 20.3169 10.1224 21.7739C6.54027 21.0751 3.65964 18.415 2.64395 14.957Z" fill="black"/>
<path d="M13.8776 2.63514C16.3991 3.12704 18.5731 4.59079 19.9937 6.62058C18.9351 7.68943 17.6637 8.5471 16.2483 9.12476C15.862 6.78741 15.0435 4.59591 13.8776 2.63514Z" fill="black"/>
<path d="M12 2.48047C13.4287 4.57007 14.4097 6.98996 14.805 9.60203C13.9083 9.83215 12.9684 9.95452 12 9.95452C11.0316 9.95452 10.0917 9.83215 9.19503 9.60203C9.5903 6.98996 10.5713 4.57007 12 2.48047Z" fill="black"/>
<path d="M10.1224 2.63514C8.95648 4.59591 8.13795 6.78741 7.75171 9.12476C6.33629 8.5471 5.06489 7.68943 4.00635 6.62058C5.42689 4.59079 7.60085 3.12704 10.1224 2.63514Z" fill="black"/>
</svg>
