<svg width="24" height="25" viewBox="0 0 24 25" fill="none" xmlns="http://www.w3.org/2000/svg">
<path fill-rule="evenodd" clip-rule="evenodd" d="M12 2.45459C6.61522 2.45459 2.25 6.81981 2.25 12.2046C2.25 17.5894 6.61522 21.9546 12 21.9546C17.3848 21.9546 21.75 17.5894 21.75 12.2046C21.75 6.81981 17.3848 2.45459 12 2.45459ZM8.54688 4.70984C5.71517 6.01669 3.75 8.88114 3.75 12.2046C3.75 16.7609 7.44365 20.4546 12 20.4546C16.3141 20.4546 19.8548 17.1433 20.2191 12.9237L19.7582 12.4628C19.5872 12.2918 19.4449 12.0943 19.3367 11.878L18.2567 9.71789C18.1304 9.46537 17.7939 9.41075 17.5942 9.61039C17.3818 9.82283 17.0709 9.9034 16.782 9.82086L15.5091 9.45718C15.0257 9.31906 14.524 9.60883 14.402 10.0966C14.3109 10.4612 14.4588 10.8438 14.7715 11.0522L15.3582 11.4434C15.9489 11.8372 16.0317 12.6729 15.5297 13.1749L15.3295 13.3751C15.1186 13.5861 15 13.8722 15 14.1706V14.5814C15 14.9892 14.8892 15.3893 14.6794 15.739L13.3648 17.93C12.9834 18.5657 12.2965 18.9546 11.5552 18.9546C10.9724 18.9546 10.5 18.4822 10.5 17.8994V16.7279C10.5 15.8079 9.93989 14.9805 9.08565 14.6388L8.43151 14.3772C7.44978 13.9845 6.87393 12.9612 7.04776 11.9182L7.05479 11.876C7.1012 11.5975 7.19959 11.3303 7.34482 11.0883L7.43423 10.9392C7.92346 10.1239 8.87244 9.70407 9.80485 9.89056L10.9827 10.1261C11.5574 10.2411 12.124 9.89555 12.285 9.33203L12.4935 8.60233C12.6423 8.0818 12.3991 7.52915 11.9149 7.28704L11.25 6.95459L11.159 7.04558C10.7371 7.46754 10.1648 7.70459 9.56805 7.70459H9.38712C9.13927 7.70459 8.90098 7.80364 8.72572 7.97889C8.44225 8.26237 8.00817 8.33366 7.64961 8.15438C7.16435 7.91175 6.98836 7.30737 7.26749 6.84216L8.54688 4.70984Z" fill="black"/>
</svg>
