<svg width="24" height="25" viewBox="0 0 24 25" fill="none" xmlns="http://www.w3.org/2000/svg">
<path d="M15.7498 8.45459C16.164 8.45459 16.4998 8.79038 16.4998 9.20459C16.4998 10.3247 16.0077 11.3309 15.2304 12.0169C14.9199 12.291 14.4459 12.2614 14.1718 11.9509C13.8977 11.6403 13.9273 11.1664 14.2378 10.8923C14.7062 10.4789 14.9998 9.8765 14.9998 9.20459C14.9998 8.79038 15.3356 8.45459 15.7498 8.45459Z" fill="black"/>
<path fill-rule="evenodd" clip-rule="evenodd" d="M12 2.45459C6.61522 2.45459 2.25 6.81981 2.25 12.2046C2.25 17.5894 6.61522 21.9546 12 21.9546C17.3848 21.9546 21.75 17.5894 21.75 12.2046C21.75 6.81981 17.3848 2.45459 12 2.45459ZM4.5749 15.8048C5.91195 18.5572 8.7344 20.4546 12 20.4546C12.6623 20.4546 13.3063 20.3766 13.9234 20.2292C13.6364 19.4649 12.9044 18.9546 12.0828 18.9546C11.6022 18.9546 11.1921 18.6071 11.1131 18.1331L11.0401 17.6953C10.9461 17.1309 11.2906 16.5858 11.8408 16.4287L12.8295 16.1462C13.2567 16.0241 13.6131 15.7283 13.8119 15.3309L13.8484 15.2579C14.0945 14.7656 14.5977 14.4546 15.1481 14.4546C15.5335 14.4546 15.9031 14.6077 16.1756 14.8802L16.5 15.2046H17.1283C17.9669 15.2046 18.724 15.6692 19.1108 16.3903C19.8347 15.1632 20.25 13.7324 20.25 12.2046C20.25 7.90639 16.963 4.37591 12.7656 3.98965C12.81 4.25261 12.9468 4.49359 13.1548 4.66692L14.2234 5.55743C14.6651 5.92549 14.7582 6.56734 14.4393 7.04571L13.9282 7.81225C13.6507 8.22857 13.2423 8.54049 12.7676 8.69872L12.6254 8.74613C11.9327 8.97702 11.6492 9.80336 12.0542 10.4109C12.4237 10.9651 12.2238 11.7177 11.6281 12.0156L9 13.3296L9.4234 14.3881C9.608 14.8496 9.40803 15.3756 8.96343 15.5979C8.5503 15.8044 8.04855 15.686 7.77142 15.3165L7.09217 14.4108C6.59039 13.7418 5.55995 13.8347 5.18594 14.5827L4.5749 15.8048Z" fill="black"/>
</svg>
