<svg width="24" height="25" viewBox="0 0 24 25" fill="none" xmlns="http://www.w3.org/2000/svg">
<path fill-rule="evenodd" clip-rule="evenodd" d="M12 2.45459C6.61522 2.45459 2.25 6.81981 2.25 12.2046C2.25 17.5894 6.61522 21.9546 12 21.9546C17.3848 21.9546 21.75 17.5894 21.75 12.2046C21.75 6.81981 17.3848 2.45459 12 2.45459ZM6.26197 6.27689C4.71293 7.77667 3.75 9.87818 3.75 12.2046C3.75 16.7609 7.44365 20.4546 12 20.4546C16.5563 20.4546 20.25 16.7609 20.25 12.2046C20.25 9.4492 18.8992 7.00931 16.8237 5.51099C16.4863 6.05004 16.0374 6.5129 15.5056 6.86748L14.2499 7.70459L14.4145 8.03377C14.6835 8.57169 14.2923 9.20459 13.6909 9.20459C13.5653 9.20459 13.4414 9.17535 13.3291 9.11918L12.7252 8.81721C12.2921 8.60066 11.769 8.68554 11.4266 9.02795L11.2954 9.15909C10.8561 9.59843 10.8561 10.3107 11.2954 10.7501L11.5905 11.0452C11.8474 11.3021 12.2126 11.4191 12.571 11.3594L13.7411 11.1644C14.0641 11.1106 14.3946 11.2002 14.6462 11.4098L15.9755 12.5176C16.2962 12.7848 16.4356 13.2119 16.3344 13.6168C15.9519 15.1465 15.1609 16.5436 14.046 17.6585L13.3233 18.3812C12.9809 18.7236 12.4578 18.8085 12.0247 18.592L11.8718 18.5155C11.4907 18.325 11.2499 17.9354 11.2499 17.5093V16.4206C11.2499 16.1222 11.1314 15.8361 10.9204 15.6251L9.57328 14.278C9.23087 13.9355 9.14599 13.4125 9.36254 12.9793L9.74992 12.2046L8.10954 10.5642C7.22527 9.67994 6.6394 8.54148 6.43381 7.30796L6.26197 6.27689Z" fill="black"/>
</svg>
