<svg width="24" height="25" viewBox="0 0 24 25" fill="none" xmlns="http://www.w3.org/2000/svg">
<g clip-path="url(#clip0_1_377)">
<path d="M10.5 2.07947C10.5 1.45815 11.0037 0.954468 11.625 0.954468C12.2463 0.954468 12.75 1.45815 12.75 2.07947V10.2983C13.2674 10.4605 13.7708 10.6801 14.25 10.9571V3.57947C14.25 2.95815 14.7537 2.45447 15.375 2.45447C15.9963 2.45447 16.5 2.95815 16.5 3.57947V14.5167C15.0821 14.7546 13.8891 15.6555 13.2506 16.8897C14.4554 16.2911 15.8134 15.9545 17.25 15.9545C17.6642 15.9545 18 15.6187 18 15.2045V12.9545L18 12.9381C18.0042 12.0815 18.3339 11.2226 18.9885 10.568C19.4278 10.1286 20.1402 10.1286 20.5795 10.568C21.0188 11.0073 21.0188 11.7196 20.5795 12.159C20.361 12.3775 20.2514 12.6612 20.25 12.949L20.25 12.9545L20.25 15.9545H20.2454C20.1863 17.4603 19.5623 18.8922 18.4926 19.9618L16.7574 21.6971C15.6321 22.8223 14.106 23.4545 12.5147 23.4545H10.5C6.35786 23.4545 3 20.0966 3 15.9545V6.57947C3 5.95815 3.50368 5.45447 4.125 5.45447C4.74632 5.45447 5.25 5.95815 5.25 6.57947V12.0984C5.71078 11.6465 6.2154 11.2661 6.75 10.9571V3.57947C6.75 2.95815 7.25368 2.45447 7.875 2.45447C8.49632 2.45447 9 2.95815 9 3.57947V10.1052C9.49455 10.0047 9.99728 9.95447 10.5 9.95447V2.07947Z" fill="black"/>
</g>
<defs>
<clipPath id="clip0_1_377">
<rect width="24" height="24" fill="white" transform="translate(0 0.204468)"/>
</clipPath>
</defs>
</svg>
