<svg width="24" height="25" viewBox="0 0 24 25" fill="none" xmlns="http://www.w3.org/2000/svg">
<path d="M7.49281 18.7045C7.06823 18.7045 6.67296 18.468 6.51759 18.0728C6.18349 17.2232 6 16.2977 6 15.3295C6 13.5804 6.59874 11.9711 7.60244 10.6955C7.75335 10.5037 7.97456 10.3865 8.20214 10.2984C8.67496 10.1154 9.09254 9.78415 9.4141 9.37414C10.1873 8.38831 11.1617 7.56786 12.2755 6.97468C12.9977 6.5901 13.6243 6.01875 13.9281 5.2591C14.1408 4.72756 14.25 4.16033 14.25 3.58785V2.95447C14.25 2.54025 14.5858 2.20447 15 2.20447C16.2426 2.20447 17.25 3.21183 17.25 4.45447C17.25 5.6061 16.9904 6.6971 16.5266 7.67217C16.261 8.23051 16.6336 8.95447 17.2519 8.95447H20.3777C21.4044 8.95447 22.3233 9.64846 22.432 10.6693C22.4769 11.0916 22.5 11.5203 22.5 11.9545C22.5 14.8021 21.5081 17.418 19.851 19.4757C19.4634 19.957 18.8642 20.2045 18.2462 20.2045H14.2302C13.7466 20.2045 13.2661 20.1265 12.8072 19.9735L9.69278 18.9354C9.23393 18.7824 8.75342 18.7045 8.26975 18.7045H7.49281Z" fill="black"/>
<path d="M2.33149 10.9316C1.79481 12.2934 1.5 13.777 1.5 15.3295C1.5 16.5495 1.68208 17.7271 2.02056 18.8364C2.27991 19.6864 3.10418 20.2045 3.99289 20.2045H4.90067C5.3462 20.2045 5.62137 19.7062 5.42423 19.3067C4.83248 18.1074 4.5 16.7573 4.5 15.3295C4.5 13.6213 4.97588 12.0243 5.8023 10.6637C6.0473 10.2604 5.77404 9.70447 5.30212 9.70447H4.24936C3.41733 9.70447 2.63655 10.1575 2.33149 10.9316Z" fill="black"/>
</svg>
