<svg width="24" height="25" viewBox="0 0 24 25" fill="none" xmlns="http://www.w3.org/2000/svg">
<path d="M15.7303 5.70447L16.7647 5.70447C17.5455 6.88789 18 8.30561 18 9.82947C18 11.3533 17.5455 12.771 16.7647 13.9545L16.6174 13.9545C15.8111 13.9545 15.0835 14.4003 14.5859 15.0348C13.8127 16.0206 12.8383 16.8411 11.7245 17.4343C11.0023 17.8188 10.3757 18.3902 10.0719 19.1498C9.85924 19.6814 9.75 20.2486 9.75 20.8211V21.4545C9.75 21.8687 9.41421 22.2045 9 22.2045C7.75736 22.2045 6.75 21.1971 6.75 19.9545C6.75 18.8028 7.00956 17.7118 7.47337 16.7368C7.73896 16.1784 7.36638 15.4545 6.74809 15.4545L3.62227 15.4545C2.59564 15.4545 1.6767 14.7605 1.56801 13.7396C1.52306 13.3174 1.5 12.8886 1.5 12.4545C1.5 9.60685 2.49188 6.99089 4.149 4.93325C4.5366 4.45195 5.13581 4.20447 5.75377 4.20447L9.76975 4.20447C10.2534 4.20447 10.7339 4.28244 11.1928 4.43539L14.3072 5.47355C14.7661 5.62649 15.2466 5.70447 15.7303 5.70447Z" fill="black"/>
<path d="M21.6685 14.2274C22.2052 12.8655 22.5 11.3819 22.5 9.82947C22.5 8.60939 22.3179 7.43184 21.9794 6.32251C21.7201 5.47249 20.8958 4.95447 20.0071 4.95447L19.0993 4.95447C18.6538 4.95447 18.3786 5.45274 18.5758 5.85227C19.1675 7.05155 19.5 8.40168 19.5 9.82947C19.5 11.5376 19.0241 13.1347 18.1977 14.4952C17.9527 14.8986 18.226 15.4545 18.6979 15.4545H19.7506C20.5827 15.4545 21.3635 15.0014 21.6685 14.2274Z" fill="black"/>
</svg>
