<svg width="24" height="25" viewBox="0 0 24 25" fill="none" xmlns="http://www.w3.org/2000/svg">
<path fill-rule="evenodd" clip-rule="evenodd" d="M11.0974 1.71902C11.5035 1.80026 11.767 2.19538 11.6857 2.60155L10.6651 7.70446H15.1351L16.2146 2.30737C16.2958 1.9012 16.6909 1.63779 17.0971 1.71902C17.5033 1.80026 17.7667 2.19538 17.6854 2.60155L16.6649 7.70446H20.25C20.6642 7.70446 21 8.04025 21 8.45446C21 8.86867 20.6642 9.20446 20.25 9.20446H16.3649L15.1649 15.2045H18.75C19.1642 15.2045 19.5 15.5402 19.5 15.9545C19.5 16.3687 19.1642 16.7045 18.75 16.7045H14.8649L13.7854 22.1015C13.7042 22.5077 13.3091 22.7711 12.9029 22.6899C12.4967 22.6087 12.2333 22.2135 12.3146 21.8074L13.3351 16.7045H8.86515L7.78573 22.1015C7.70449 22.5077 7.30938 22.7711 6.90321 22.6899C6.49704 22.6087 6.23362 22.2135 6.31486 21.8074L7.33544 16.7045H3.75C3.33579 16.7045 3 16.3687 3 15.9545C3 15.5402 3.33579 15.2045 3.75 15.2045H7.63544L8.83544 9.20446H5.25C4.83579 9.20446 4.5 8.86867 4.5 8.45446C4.5 8.04025 4.83579 7.70446 5.25 7.70446H9.13544L10.2149 2.30737C10.2961 1.9012 10.6912 1.63779 11.0974 1.71902ZM10.3651 9.20446L9.16515 15.2045H13.6351L14.8351 9.20446H10.3651Z" fill="black"/>
</svg>
