<svg width="24" height="25" viewBox="0 0 24 25" fill="none" xmlns="http://www.w3.org/2000/svg">
<path d="M11.645 21.1151L11.6384 21.1116L11.6158 21.0994C11.5965 21.0889 11.5689 21.0737 11.5336 21.054C11.4629 21.0146 11.3612 20.9569 11.233 20.8814C10.9765 20.7305 10.6132 20.5084 10.1785 20.2194C9.31074 19.6426 8.15122 18.7946 6.9886 17.7108C4.68781 15.566 2.25 12.3796 2.25 8.45447C2.25 5.52641 4.7136 3.20447 7.6875 3.20447C9.43638 3.20447 11.0023 4.00356 12 5.25606C12.9977 4.00356 14.5636 3.20447 16.3125 3.20447C19.2864 3.20447 21.75 5.52641 21.75 8.45447C21.75 12.3796 19.3122 15.566 17.0114 17.7108C15.8488 18.7946 14.6893 19.6426 13.8215 20.2194C13.3868 20.5084 13.0235 20.7305 12.767 20.8814C12.6388 20.9569 12.5371 21.0146 12.4664 21.054C12.4311 21.0737 12.4035 21.0889 12.3842 21.0994L12.3616 21.1116L12.355 21.1151L12.3523 21.1166C12.1323 21.2334 11.8677 21.2334 11.6477 21.1166L11.645 21.1151Z" fill="black"/>
</svg>
