<svg width="24" height="25" viewBox="0 0 24 25" fill="none" xmlns="http://www.w3.org/2000/svg">
<path d="M11.4697 4.04548C11.7626 3.75258 12.2374 3.75258 12.5303 4.04548L21.2197 12.7348C21.5126 13.0277 21.9874 13.0277 22.2803 12.7348C22.5732 12.4419 22.5732 11.967 22.2803 11.6742L13.591 2.98481C12.7123 2.10613 11.2877 2.10614 10.409 2.98482L1.71967 11.6742C1.42678 11.967 1.42678 12.4419 1.71967 12.7348C2.01256 13.0277 2.48744 13.0277 2.78033 12.7348L11.4697 4.04548Z" fill="black"/>
<path d="M12 5.63647L20.159 13.7955C20.1887 13.8252 20.2191 13.8539 20.25 13.8816V20.0795C20.25 21.115 19.4105 21.9545 18.375 21.9545H15C14.5858 21.9545 14.25 21.6187 14.25 21.2045V16.7045C14.25 16.2903 13.9142 15.9545 13.5 15.9545H10.5C10.0858 15.9545 9.75 16.2903 9.75 16.7045V21.2045C9.75 21.6187 9.41421 21.9545 9 21.9545H5.625C4.58947 21.9545 3.75 21.115 3.75 20.0795V13.8816C3.78093 13.8539 3.81127 13.8252 3.84099 13.7955L12 5.63647Z" fill="black"/>
</svg>
