<svg width="24" height="25" viewBox="0 0 24 25" fill="none" xmlns="http://www.w3.org/2000/svg">
<path d="M19.0061 3.9093C19.3954 3.76775 19.5962 3.33743 19.4547 2.94815C19.3131 2.55888 18.8828 2.35806 18.4935 2.49961L6 7.04272V3.20446C6 2.79025 5.66421 2.45446 5.25 2.45446H3.75C3.33579 2.45446 3 2.79025 3 3.20446V8.13362L1.99353 8.49961C1.60426 8.64117 1.40344 9.07149 1.54499 9.46077C1.68655 9.85004 2.11687 10.0509 2.50615 9.9093L19.0061 3.9093Z" fill="black"/>
<path fill-rule="evenodd" clip-rule="evenodd" d="M3.01896 11.319L18 5.87133V9.29283L22.0061 10.7496C22.3954 10.8912 22.5962 11.3215 22.4547 11.7108C22.3131 12.1 21.8828 12.3009 21.4935 12.1593L20.9998 11.9798V20.4545H21.75C22.1642 20.4545 22.5 20.7902 22.5 21.2045C22.5 21.6187 22.1642 21.9545 21.75 21.9545H2.25C1.83579 21.9545 1.5 21.6187 1.5 21.2045C1.5 20.7902 1.83579 20.4545 2.25 20.4545H3V11.3258L3.01896 11.319ZM18 20.4545V10.8889L19.4998 11.4343V20.4545H18ZM9 14.4545C8.58579 14.4545 8.25 14.7902 8.25 15.2045V19.7045C8.25 20.1187 8.58579 20.4545 9 20.4545H12C12.4142 20.4545 12.75 20.1187 12.75 19.7045V15.2045C12.75 14.7902 12.4142 14.4545 12 14.4545H9Z" fill="black"/>
</svg>
