<svg width="24" height="25" viewBox="0 0 24 25" fill="none" xmlns="http://www.w3.org/2000/svg">
<path fill-rule="evenodd" clip-rule="evenodd" d="M4.5 3.95447C2.84315 3.95447 1.5 5.29761 1.5 6.95447V17.4545C1.5 19.1113 2.84315 20.4545 4.5 20.4545H19.5C21.1569 20.4545 22.5 19.1113 22.5 17.4545V6.95447C22.5 5.29761 21.1569 3.95447 19.5 3.95447H4.5ZM8.625 6.95447C7.38236 6.95447 6.375 7.96183 6.375 9.20447C6.375 10.4471 7.38236 11.4545 8.625 11.4545C9.86764 11.4545 10.875 10.4471 10.875 9.20447C10.875 7.96183 9.86764 6.95447 8.625 6.95447ZM4.75191 15.6572C5.3309 14.0809 6.84542 12.9545 8.62496 12.9545C10.4045 12.9545 11.919 14.0809 12.498 15.6572C12.6271 16.0088 12.4771 16.4017 12.1466 16.5778C11.0958 17.1375 9.89627 17.4545 8.62496 17.4545C7.35364 17.4545 6.15413 17.1375 5.10331 16.5778C4.77278 16.4017 4.62279 16.0088 4.75191 15.6572ZM15 8.45447C14.5858 8.45447 14.25 8.79025 14.25 9.20447C14.25 9.61868 14.5858 9.95447 15 9.95447H18.75C19.1642 9.95447 19.5 9.61868 19.5 9.20447C19.5 8.79025 19.1642 8.45447 18.75 8.45447H15ZM14.25 12.2045C14.25 11.7903 14.5858 11.4545 15 11.4545H18.75C19.1642 11.4545 19.5 11.7903 19.5 12.2045C19.5 12.6187 19.1642 12.9545 18.75 12.9545H15C14.5858 12.9545 14.25 12.6187 14.25 12.2045ZM15 14.4545C14.5858 14.4545 14.25 14.7903 14.25 15.2045C14.25 15.6187 14.5858 15.9545 15 15.9545H18.75C19.1642 15.9545 19.5 15.6187 19.5 15.2045C19.5 14.7903 19.1642 14.4545 18.75 14.4545H15Z" fill="black"/>
</svg>
