<svg width="24" height="25" viewBox="0 0 24 25" fill="none" xmlns="http://www.w3.org/2000/svg">
<path fill-rule="evenodd" clip-rule="evenodd" d="M1.5 10.0368V11.8295C1.5 12.865 2.33947 13.7045 3.375 13.7045H20.625C21.6605 13.7045 22.5 12.865 22.5 11.8295V10.0368C22.5 9.32066 22.2438 8.62815 21.7778 8.08442L18.4929 4.25209C17.923 3.58716 17.0909 3.20447 16.2151 3.20447H7.78485C6.90908 3.20447 6.07703 3.58716 5.50708 4.25209L2.22223 8.08442C1.75618 8.62815 1.5 9.32066 1.5 10.0368ZM7.78485 4.70447C7.34697 4.70447 6.93094 4.89581 6.64597 5.22828L3.88067 8.45447H7.04584C8.0489 8.45447 8.98559 8.95577 9.54199 9.79037L9.70609 10.0365C9.98429 10.4538 10.4526 10.7045 10.9542 10.7045H13.0458C13.5474 10.7045 14.0157 10.4538 14.2939 10.0365L14.458 9.79037C15.0144 8.95577 15.9511 8.45447 16.9542 8.45447H20.1193L17.354 5.22828C17.0691 4.89581 16.653 4.70447 16.2151 4.70447H7.78485Z" fill="black"/>
<path d="M2.8125 15.2045C2.08763 15.2045 1.5 15.7921 1.5 16.517V18.2045C1.5 19.8613 2.84315 21.2045 4.5 21.2045H19.5C21.1569 21.2045 22.5 19.8613 22.5 18.2045V16.517C22.5 15.7921 21.9124 15.2045 21.1875 15.2045H16.9542C15.9511 15.2045 15.0144 15.7058 14.458 16.5404L14.2939 16.7865C14.0157 17.2038 13.5474 17.4545 13.0458 17.4545H10.9542C10.4526 17.4545 9.98429 17.2038 9.70609 16.7865L9.54199 16.5404C8.98559 15.7058 8.0489 15.2045 7.04584 15.2045H2.8125Z" fill="black"/>
</svg>
