<svg width="24" height="25" viewBox="0 0 24 25" fill="none" xmlns="http://www.w3.org/2000/svg">
<path fill-rule="evenodd" clip-rule="evenodd" d="M6.91179 3.20447C5.59478 3.20447 4.43177 4.06344 4.04446 5.32221L1.63266 13.1605C1.54472 13.4464 1.5 13.7437 1.5 14.0428V18.2045C1.5 19.8613 2.84315 21.2045 4.5 21.2045H19.5C21.1569 21.2045 22.5 19.8613 22.5 18.2045V14.0428C22.5 13.7437 22.4553 13.4464 22.3673 13.1605L19.9555 5.32221C19.5682 4.06344 18.4052 3.20447 17.0882 3.20447H6.91179ZM20.7345 12.9545L18.5219 5.76334C18.3282 5.13395 17.7467 4.70447 17.0882 4.70447H6.91179C6.25329 4.70447 5.67178 5.13395 5.47812 5.76334L3.26547 12.9545H6.10942C7.24574 12.9545 8.28453 13.5965 8.79271 14.6128L9.04894 15.1253C9.30302 15.6335 9.82242 15.9545 10.3906 15.9545H13.6094C14.1776 15.9545 14.697 15.6335 14.9511 15.1253L15.2073 14.6128C15.7155 13.5965 16.7543 12.9545 17.8906 12.9545H20.7345Z" fill="black"/>
</svg>
