<svg width="24" height="25" viewBox="0 0 24 25" fill="none" xmlns="http://www.w3.org/2000/svg">
<path fill-rule="evenodd" clip-rule="evenodd" d="M5.47812 5.76334C5.67178 5.13395 6.25329 4.70447 6.91179 4.70447H9C9.41421 4.70447 9.75 4.36868 9.75 3.95447C9.75 3.54025 9.41421 3.20447 9 3.20447H6.91179C5.59478 3.20447 4.43177 4.06344 4.04446 5.32221L1.63266 13.1605C1.54472 13.4464 1.5 13.7437 1.5 14.0428V18.2045C1.5 19.8613 2.84315 21.2045 4.5 21.2045H19.5C21.1569 21.2045 22.5 19.8613 22.5 18.2045V14.0428C22.5 13.7437 22.4553 13.4464 22.3673 13.1605L19.9555 5.32221C19.5682 4.06344 18.4052 3.20447 17.0882 3.20447H15C14.5858 3.20447 14.25 3.54025 14.25 3.95447C14.25 4.36868 14.5858 4.70447 15 4.70447H17.0882C17.7467 4.70447 18.3282 5.13395 18.5219 5.76334L20.7345 12.9545H17.8906C16.7543 12.9545 15.7155 13.5965 15.2073 14.6128L14.9511 15.1253C14.697 15.6335 14.1776 15.9545 13.6094 15.9545H10.3906C9.82242 15.9545 9.30302 15.6335 9.04894 15.1253L8.79271 14.6128C8.28453 13.5965 7.24574 12.9545 6.10942 12.9545H3.26547L5.47812 5.76334Z" fill="black"/>
<path fill-rule="evenodd" clip-rule="evenodd" d="M12 2.45447C12.4142 2.45447 12.75 2.79025 12.75 3.20447V9.64381L14.4697 7.92414C14.7626 7.63124 15.2374 7.63124 15.5303 7.92414C15.8232 8.21703 15.8232 8.69191 15.5303 8.9848L12.5303 11.9848C12.2374 12.2777 11.7626 12.2777 11.4697 11.9848L8.46967 8.9848C8.17678 8.69191 8.17678 8.21703 8.46967 7.92414C8.76256 7.63124 9.23744 7.63124 9.53033 7.92414L11.25 9.64381V3.20447C11.25 2.79025 11.5858 2.45447 12 2.45447Z" fill="black"/>
</svg>
