<svg width="24" height="25" viewBox="0 0 24 25" fill="none" xmlns="http://www.w3.org/2000/svg">
<path fill-rule="evenodd" clip-rule="evenodd" d="M2.25 12.2045C2.25 6.81969 6.61522 2.45447 12 2.45447C17.3848 2.45447 21.75 6.81969 21.75 12.2045C21.75 17.5892 17.3848 21.9545 12 21.9545C6.61522 21.9545 2.25 17.5892 2.25 12.2045ZM10.9562 10.7629C12.1025 10.1898 13.3931 11.2251 13.0823 12.4684L12.3733 15.3044L12.4148 15.2837C12.7852 15.0984 13.2357 15.2486 13.421 15.6191C13.6062 15.9896 13.4561 16.4401 13.0856 16.6253L13.0441 16.646C11.8979 17.2192 10.6072 16.1839 10.9181 14.9406L11.6271 12.1046L11.5856 12.1253C11.2151 12.3105 10.7646 12.1604 10.5793 11.7899C10.3941 11.4194 10.5443 10.9689 10.9148 10.7837L10.9562 10.7629ZM12 9.20447C12.4142 9.20447 12.75 8.86868 12.75 8.45447C12.75 8.04025 12.4142 7.70447 12 7.70447C11.5858 7.70447 11.25 8.04025 11.25 8.45447C11.25 8.86868 11.5858 9.20447 12 9.20447Z" fill="black"/>
</svg>
