<svg width="24" height="25" viewBox="0 0 24 25" fill="none" xmlns="http://www.w3.org/2000/svg">
<path fill-rule="evenodd" clip-rule="evenodd" d="M15.75 1.70447C12.0221 1.70447 9 4.72655 9 8.45447C9 8.84819 9.03379 9.23462 9.0988 9.61086C9.16599 9.99974 9.06678 10.327 8.87767 10.5161L2.37868 17.0151C1.81607 17.5777 1.5 18.3408 1.5 19.1364V21.9545C1.5 22.3687 1.83579 22.7045 2.25 22.7045H6C6.41421 22.7045 6.75 22.3687 6.75 21.9545V20.4545H8.25C8.66421 20.4545 9 20.1187 9 19.7045V18.2045H10.5C10.6989 18.2045 10.8897 18.1255 11.0303 17.9848L13.6883 15.3268C13.8774 15.1377 14.2047 15.0385 14.5936 15.1057C14.9698 15.1707 15.3563 15.2045 15.75 15.2045C19.4779 15.2045 22.5 12.1824 22.5 8.45447C22.5 4.72655 19.4779 1.70447 15.75 1.70447ZM15.75 4.70447C15.3358 4.70447 15 5.04025 15 5.45447C15 5.86868 15.3358 6.20447 15.75 6.20447C16.9926 6.20447 18 7.21183 18 8.45447C18 8.86868 18.3358 9.20447 18.75 9.20447C19.1642 9.20447 19.5 8.86868 19.5 8.45447C19.5 6.3834 17.8211 4.70447 15.75 4.70447Z" fill="black"/>
</svg>
