<svg width="24" height="25" viewBox="0 0 24 25" fill="none" xmlns="http://www.w3.org/2000/svg">
<path fill-rule="evenodd" clip-rule="evenodd" d="M9 2.45447C9.41422 2.45447 9.75 2.79025 9.75 3.20447V4.71012C10.6344 4.72346 11.5131 4.76036 12.3856 4.82023C13.295 4.88262 14.1977 4.96997 15.0928 5.08159C15.5038 5.13285 15.7955 5.5076 15.7442 5.91864C15.693 6.32967 15.3182 6.62132 14.9072 6.57007C14.2477 6.48783 13.5839 6.41917 12.9162 6.3644C12.3254 8.67417 11.306 10.8118 9.94794 12.6878C10.2648 13.0711 10.5979 13.4405 10.9462 13.7949C11.2365 14.0903 11.2324 14.5652 10.937 14.8555C10.6416 15.1459 10.1667 15.1417 9.87636 14.8463C9.57349 14.5381 9.28117 14.2195 9 13.891C7.42887 15.7265 5.50941 17.2546 3.34423 18.3731C2.97622 18.5632 2.52378 18.419 2.33367 18.051C2.14355 17.683 2.28777 17.2305 2.65578 17.0404C4.73757 15.965 6.57213 14.4782 8.05208 12.6878C7.18599 11.4914 6.45757 10.1885 5.89021 8.80221C5.73332 8.41885 5.9169 7.9809 6.30025 7.82401C6.6836 7.66711 7.12155 7.85069 7.27845 8.23404C7.74076 9.36366 8.31957 10.4335 9 11.4286C10.0649 9.87121 10.881 8.1305 11.3912 6.26391C10.5992 6.22444 9.80196 6.20447 9 6.20447C6.99914 6.20447 5.02766 6.32879 3.09281 6.57007C2.68178 6.62132 2.30702 6.32967 2.25577 5.91864C2.20451 5.5076 2.49617 5.13285 2.9072 5.08159C4.66114 4.86288 6.4438 4.73737 8.25 4.71012V3.20447C8.25 2.79025 8.58579 2.45447 9 2.45447ZM15.75 9.20447C16.0414 9.20447 16.3064 9.37325 16.4296 9.6373L21.6796 20.8873C21.8548 21.2627 21.6925 21.7089 21.3172 21.8841C20.9418 22.0593 20.4955 21.897 20.3204 21.5216L19.1224 18.9545H12.3777L11.1796 21.5216C11.0045 21.897 10.5582 22.0593 10.1828 21.8841C9.80749 21.7089 9.6452 21.2627 9.82037 20.8873L15.0704 9.6373C15.1936 9.37325 15.4586 9.20447 15.75 9.20447ZM13.0777 17.4545H18.4224L15.75 11.728L13.0777 17.4545Z" fill="black"/>
</svg>
