<svg width="24" height="25" viewBox="0 0 24 25" fill="none" xmlns="http://www.w3.org/2000/svg">
<path fill-rule="evenodd" clip-rule="evenodd" d="M19.449 8.65264L16.3878 11.2036C16.5374 11.8619 16.5374 12.547 16.3878 13.2053L19.449 15.7563C20.517 13.5162 20.517 10.8927 19.449 8.65264ZM15.5518 19.6534L13.0008 16.5923C12.3426 16.7419 11.6574 16.7419 10.9992 16.5923L8.44818 19.6534C10.6882 20.7215 13.3118 20.7215 15.5518 19.6534ZM4.55102 15.7563L7.6122 13.2053C7.4626 12.547 7.4626 11.8619 7.6122 11.2036L4.55102 8.65264C3.48299 10.8927 3.48299 13.5162 4.55102 15.7563ZM8.44818 4.75549L10.9992 7.81667C11.6574 7.66707 12.3426 7.66707 13.0008 7.81667L15.5518 4.75549C13.3118 3.68746 10.6882 3.68746 8.44818 4.75549ZM17.1055 3.89567C17.7424 4.28772 18.3435 4.75939 18.8943 5.31018C19.4451 5.86096 19.9167 6.46202 20.3088 7.09895C22.2304 10.2208 22.2304 14.1882 20.3088 17.31C19.9167 17.9469 19.4451 18.548 18.8943 19.0988C18.3435 19.6495 17.7424 20.1212 17.1055 20.5133C13.9837 22.4349 10.0163 22.4349 6.89448 20.5133C6.25755 20.1212 5.65649 19.6495 5.10571 19.0988C4.55493 18.548 4.08325 17.9469 3.6912 17.31C1.7696 14.1882 1.7696 10.2208 3.6912 7.09895C4.08325 6.46202 4.55493 5.86096 5.10571 5.31018C5.65649 4.75939 6.25755 4.28772 6.89448 3.89567C10.0163 1.97407 13.9837 1.97407 17.1055 3.89567ZM14.1213 10.0831C13.7958 9.75759 13.4158 9.52353 13.0115 9.37918C12.359 9.14623 11.641 9.14623 10.9886 9.37918C10.5842 9.52353 10.2042 9.75759 9.87868 10.0831C9.55313 10.4087 9.31907 10.7887 9.17471 11.193C8.94176 11.8455 8.94176 12.5635 9.17471 13.2159C9.31907 13.6202 9.55313 14.0002 9.87868 14.3258C10.2042 14.6513 10.5842 14.8854 10.9886 15.0298C11.641 15.2627 12.359 15.2627 13.0115 15.0298C13.4158 14.8854 13.7958 14.6513 14.1213 14.3258C14.4469 14.0002 14.6809 13.6202 14.8253 13.2159C15.0582 12.5635 15.0582 11.8455 14.8253 11.193C14.6809 10.7887 14.4469 10.4087 14.1213 10.0831Z" fill="black"/>
</svg>
