<svg width="24" height="25" viewBox="0 0 24 25" fill="none" xmlns="http://www.w3.org/2000/svg">
<g clip-path="url(#clip0_1_407)">
<path d="M12 0.954468C7.44365 0.954468 3.75 4.64812 3.75 9.20447C3.75 12.2552 5.40631 14.9183 7.86516 16.3449C8.55062 16.7426 8.97985 17.3529 8.99928 17.967C9.00999 18.3058 9.24656 18.5953 9.5764 18.6732C9.92778 18.7563 10.2859 18.8216 10.6496 18.8684C10.9732 18.9099 11.2502 18.6507 11.2502 18.3244V13.6634C10.9309 13.6281 10.618 13.5705 10.3132 13.492C9.9121 13.3888 9.67061 12.9799 9.77385 12.5787C9.8771 12.1776 10.286 11.9361 10.6871 12.0394C11.1059 12.1472 11.5458 12.2046 12.0002 12.2046C12.4546 12.2046 12.8944 12.1472 13.3132 12.0394C13.7144 11.9361 14.1233 12.1776 14.2265 12.5787C14.3298 12.9799 14.0883 13.3888 13.6871 13.492C13.3823 13.5705 13.0695 13.6281 12.7502 13.6634V18.3244C12.7502 18.6507 13.0272 18.9099 13.3508 18.8683C13.7144 18.8216 14.0723 18.7562 14.4236 18.6732C14.7534 18.5953 14.99 18.3058 15.0007 17.967C15.0201 17.3529 15.4494 16.7426 16.1348 16.3449C18.5937 14.9183 20.25 12.2552 20.25 9.20447C20.25 4.64812 16.5563 0.954468 12 0.954468Z" fill="black"/>
<path fill-rule="evenodd" clip-rule="evenodd" d="M9.01314 20.1041C9.09034 19.6972 9.48282 19.4298 9.88978 19.507C10.5727 19.6366 11.2781 19.7045 12 19.7045C12.7219 19.7045 13.4273 19.6366 14.1102 19.507C14.5172 19.4298 14.9097 19.6972 14.9869 20.1041C15.0641 20.5111 14.7967 20.9036 14.3898 20.9808C13.6151 21.1277 12.8162 21.2045 12 21.2045C11.1838 21.2045 10.3849 21.1277 9.61022 20.9808C9.20327 20.9036 8.93594 20.5111 9.01314 20.1041Z" fill="black"/>
<path fill-rule="evenodd" clip-rule="evenodd" d="M9.75407 22.5484C9.79717 22.1365 10.1661 21.8374 10.578 21.8805C11.0451 21.9294 11.5195 21.9545 12 21.9545C12.4805 21.9545 12.9549 21.9294 13.422 21.8805C13.8339 21.8374 14.2028 22.1365 14.2459 22.5484C14.289 22.9604 13.99 23.3293 13.578 23.3724C13.0592 23.4267 12.5327 23.4545 12 23.4545C11.4673 23.4545 10.9408 23.4267 10.422 23.3724C10.01 23.3293 9.71097 22.9604 9.75407 22.5484Z" fill="black"/>
</g>
<defs>
<clipPath id="clip0_1_407">
<rect width="24" height="24" fill="white" transform="translate(0 0.204468)"/>
</clipPath>
</defs>
</svg>
