<svg width="24" height="25" viewBox="0 0 24 25" fill="none" xmlns="http://www.w3.org/2000/svg">
<path fill-rule="evenodd" clip-rule="evenodd" d="M19.9016 4.30282C18.4372 2.83835 16.0628 2.83835 14.5984 4.30282L10.0983 8.80282C8.63388 10.2673 8.63388 12.6417 10.0983 14.1061C10.4092 14.417 10.7598 14.661 11.133 14.8393C11.5068 15.0178 11.665 15.4656 11.4865 15.8393C11.3079 16.2131 10.8602 16.3713 10.4865 16.1928C9.96169 15.9421 9.47063 15.5997 9.03769 15.1668C6.98744 13.1165 6.98744 9.79241 9.03769 7.74216L13.5377 3.24216C15.5879 1.1919 18.9121 1.1919 20.9623 3.24216C23.0126 5.29241 23.0126 8.61653 20.9623 10.6668L19.2053 12.4237C18.9124 12.7166 18.4376 12.7166 18.1447 12.4237C17.8518 12.1309 17.8518 11.656 18.1447 11.3631L19.9016 9.60612C21.3661 8.14165 21.3661 5.76728 19.9016 4.30282ZM12.5135 8.5696C12.6921 8.19585 13.1398 8.03759 13.5135 8.21614C14.0383 8.46683 14.5294 8.80922 14.9623 9.24216C17.0126 11.2924 17.0126 14.6165 14.9623 16.6668L10.4623 21.1668C8.41206 23.217 5.08794 23.217 3.03769 21.1668C0.987437 19.1165 0.987437 15.7924 3.03769 13.7422L4.79466 11.9852C5.08755 11.6923 5.56243 11.6923 5.85532 11.9852C6.14821 12.2781 6.14821 12.753 5.85532 13.0458L4.09835 14.8028C2.63388 16.2673 2.63388 18.6417 4.09835 20.1061C5.56282 21.5706 7.93718 21.5706 9.40165 20.1061L13.9017 15.6061C15.3661 14.1417 15.3661 11.7673 13.9017 10.3028C13.5908 9.99195 13.2402 9.74794 12.867 9.56964C12.4932 9.39109 12.335 8.94336 12.5135 8.5696Z" fill="black"/>
</svg>
