<svg width="24" height="25" viewBox="0 0 24 25" fill="none" xmlns="http://www.w3.org/2000/svg">
<path fill-rule="evenodd" clip-rule="evenodd" d="M2.625 6.95447C2.625 6.33315 3.12868 5.82947 3.75 5.82947C4.37132 5.82947 4.875 6.33315 4.875 6.95447C4.875 7.57579 4.37132 8.07947 3.75 8.07947C3.12868 8.07947 2.625 7.57579 2.625 6.95447ZM7.5 6.95447C7.5 6.54025 7.83579 6.20447 8.25 6.20447H20.25C20.6642 6.20447 21 6.54025 21 6.95447C21 7.36868 20.6642 7.70447 20.25 7.70447H8.25C7.83579 7.70447 7.5 7.36868 7.5 6.95447ZM2.625 12.2045C2.625 11.5831 3.12868 11.0795 3.75 11.0795C4.37132 11.0795 4.875 11.5831 4.875 12.2045C4.875 12.8258 4.37132 13.3295 3.75 13.3295C3.12868 13.3295 2.625 12.8258 2.625 12.2045ZM7.5 12.2045C7.5 11.7903 7.83579 11.4545 8.25 11.4545H20.25C20.6642 11.4545 21 11.7903 21 12.2045C21 12.6187 20.6642 12.9545 20.25 12.9545H8.25C7.83579 12.9545 7.5 12.6187 7.5 12.2045ZM2.625 17.4545C2.625 16.8331 3.12868 16.3295 3.75 16.3295C4.37132 16.3295 4.875 16.8331 4.875 17.4545C4.875 18.0758 4.37132 18.5795 3.75 18.5795C3.12868 18.5795 2.625 18.0758 2.625 17.4545ZM7.5 17.4545C7.5 17.0403 7.83579 16.7045 8.25 16.7045H20.25C20.6642 16.7045 21 17.0403 21 17.4545C21 17.8687 20.6642 18.2045 20.25 18.2045H8.25C7.83579 18.2045 7.5 17.8687 7.5 17.4545Z" fill="black"/>
</svg>
