<svg width="24" height="25" viewBox="0 0 24 25" fill="none" xmlns="http://www.w3.org/2000/svg">
<path fill-rule="evenodd" clip-rule="evenodd" d="M12 1.70447C9.10051 1.70447 6.75 4.05497 6.75 6.95447V9.95447C5.09315 9.95447 3.75 11.2976 3.75 12.9545V19.7045C3.75 21.3613 5.09315 22.7045 6.75 22.7045H17.25C18.9069 22.7045 20.25 21.3613 20.25 19.7045V12.9545C20.25 11.2976 18.9069 9.95447 17.25 9.95447V6.95447C17.25 4.05497 14.8995 1.70447 12 1.70447ZM15.75 9.95447V6.95447C15.75 4.8834 14.0711 3.20447 12 3.20447C9.92893 3.20447 8.25 4.8834 8.25 6.95447V9.95447H15.75Z" fill="black"/>
</svg>
