<svg width="24" height="25" viewBox="0 0 24 25" fill="none" xmlns="http://www.w3.org/2000/svg">
<path d="M18 1.70447C20.8995 1.70447 23.25 4.05497 23.25 6.95447V10.7045C23.25 11.1187 22.9142 11.4545 22.5 11.4545C22.0858 11.4545 21.75 11.1187 21.75 10.7045V6.95447C21.75 4.8834 20.0711 3.20447 18 3.20447C15.9289 3.20447 14.25 4.8834 14.25 6.95447V9.95447C15.9069 9.95447 17.25 11.2976 17.25 12.9545V19.7045C17.25 21.3613 15.9069 22.7045 14.25 22.7045H3.75C2.09315 22.7045 0.75 21.3613 0.75 19.7045V12.9545C0.75 11.2976 2.09315 9.95447 3.75 9.95447H12.75V6.95447C12.75 4.05497 15.1005 1.70447 18 1.70447Z" fill="black"/>
</svg>
