<svg width="24" height="25" viewBox="0 0 24 25" fill="none" xmlns="http://www.w3.org/2000/svg">
<path fill-rule="evenodd" clip-rule="evenodd" d="M10.5 3.95447C6.77208 3.95447 3.75 6.97655 3.75 10.7045C3.75 14.4324 6.77208 17.4545 10.5 17.4545C12.3642 17.4545 14.0506 16.6998 15.273 15.4774C16.4953 14.2551 17.25 12.5686 17.25 10.7045C17.25 6.97655 14.2279 3.95447 10.5 3.95447ZM2.25 10.7045C2.25 6.14812 5.94365 2.45447 10.5 2.45447C15.0563 2.45447 18.75 6.14812 18.75 10.7045C18.75 12.7123 18.032 14.5535 16.8399 15.9837L21.5303 20.6741C21.8232 20.967 21.8232 21.4419 21.5303 21.7348C21.2374 22.0277 20.7626 22.0277 20.4697 21.7348L15.7793 17.0444C14.3491 18.2364 12.5078 18.9545 10.5 18.9545C5.94365 18.9545 2.25 15.2608 2.25 10.7045ZM6.75 10.7045C6.75 10.2903 7.08579 9.95447 7.5 9.95447H13.5C13.9142 9.95447 14.25 10.2903 14.25 10.7045C14.25 11.1187 13.9142 11.4545 13.5 11.4545H7.5C7.08579 11.4545 6.75 11.1187 6.75 10.7045Z" fill="black"/>
</svg>
