<svg width="24" height="25" viewBox="0 0 24 25" fill="none" xmlns="http://www.w3.org/2000/svg">
<path d="M8.25 11.0795C8.25 9.62972 9.42525 8.45447 10.875 8.45447C12.3247 8.45447 13.5 9.62972 13.5 11.0795C13.5 11.8045 13.207 12.4598 12.7312 12.9356C12.2553 13.4115 11.6001 13.7045 10.875 13.7045C9.42525 13.7045 8.25 12.5292 8.25 11.0795Z" fill="black"/>
<path fill-rule="evenodd" clip-rule="evenodd" d="M12 2.45447C6.61522 2.45447 2.25 6.81969 2.25 12.2045C2.25 17.5892 6.61522 21.9545 12 21.9545C17.3848 21.9545 21.75 17.5892 21.75 12.2045C21.75 6.81969 17.3848 2.45447 12 2.45447ZM10.875 6.95447C8.59683 6.95447 6.75 8.80129 6.75 11.0795C6.75 13.3576 8.59683 15.2045 10.875 15.2045C11.7428 15.2045 12.5487 14.9359 13.2131 14.4782L15.2197 16.4848C15.5126 16.7777 15.9874 16.7777 16.2803 16.4848C16.5732 16.1919 16.5732 15.717 16.2803 15.4241L14.2737 13.4175C14.7315 12.7532 15 11.9473 15 11.0795C15 8.80129 13.1532 6.95447 10.875 6.95447Z" fill="black"/>
</svg>
