<svg width="24" height="25" viewBox="0 0 24 25" fill="none" xmlns="http://www.w3.org/2000/svg">
<path fill-rule="evenodd" clip-rule="evenodd" d="M11.5397 22.5555C11.57 22.573 11.5937 22.5865 11.6105 22.596L11.6384 22.6116C11.8613 22.7339 12.1378 22.733 12.3608 22.612L12.3895 22.596C12.4063 22.5865 12.43 22.573 12.4603 22.5555C12.5207 22.5205 12.607 22.4695 12.7155 22.4027C12.9325 22.2691 13.2388 22.072 13.6046 21.8136C14.3351 21.2976 15.3097 20.5319 16.2865 19.5318C18.2307 17.5413 20.25 14.5506 20.25 10.7045C20.25 6.14812 16.5563 2.45447 12 2.45447C7.44365 2.45447 3.75 6.14812 3.75 10.7045C3.75 14.5506 5.76932 17.5413 7.71346 19.5318C8.69025 20.5319 9.66491 21.2976 10.3954 21.8136C10.7612 22.072 11.0675 22.2691 11.2845 22.4027C11.393 22.4695 11.4793 22.5205 11.5397 22.5555ZM12 13.7045C13.6569 13.7045 15 12.3613 15 10.7045C15 9.04761 13.6569 7.70447 12 7.70447C10.3431 7.70447 9 9.04761 9 10.7045C9 12.3613 10.3431 13.7045 12 13.7045Z" fill="black"/>
</svg>
