<svg width="24" height="25" viewBox="0 0 24 25" fill="none" xmlns="http://www.w3.org/2000/svg">
<path fill-rule="evenodd" clip-rule="evenodd" d="M8.16147 2.78523C8.68934 2.5213 9.31066 2.5213 9.83853 2.78523L14.8323 5.28211C14.9379 5.3349 15.0621 5.3349 15.1677 5.28211L19.0365 3.34773C20.2832 2.72438 21.75 3.63094 21.75 5.02478V17.5092C21.75 18.2194 21.3487 18.8686 20.7135 19.1863L15.8385 21.6238C15.3107 21.8877 14.6893 21.8877 14.1615 21.6238L9.16771 19.1269C9.06213 19.0741 8.93787 19.0741 8.8323 19.1269L4.96353 21.0613C3.71683 21.6846 2.25 20.778 2.25 19.3842V6.89978C2.25 6.18958 2.65125 5.54034 3.28647 5.22273L8.16147 2.78523ZM9 6.20448C9.41421 6.20448 9.75 6.54027 9.75 6.95448V15.2045C9.75 15.6187 9.41421 15.9545 9 15.9545C8.58579 15.9545 8.25 15.6187 8.25 15.2045V6.95448C8.25 6.54027 8.58579 6.20448 9 6.20448ZM15.75 9.20448C15.75 8.79027 15.4142 8.45448 15 8.45448C14.5858 8.45448 14.25 8.79027 14.25 9.20448V17.4545C14.25 17.8687 14.5858 18.2045 15 18.2045C15.4142 18.2045 15.75 17.8687 15.75 17.4545V9.20448Z" fill="black"/>
</svg>
