<svg width="24" height="25" viewBox="0 0 24 25" fill="none" xmlns="http://www.w3.org/2000/svg">
<path d="M16.8812 4.54996C14.81 5.37854 12.5917 5.91773 10.276 6.11755C9.60847 6.17514 8.93276 6.20455 8.25 6.20455H7.5C4.60051 6.20455 2.25 8.55505 2.25 11.4545C2.25 14.0542 4.13945 16.2125 6.61997 16.6311C6.95424 18.0001 7.41805 19.3183 7.99764 20.5719C8.46171 21.5757 9.67181 21.892 10.5803 21.3675L11.2366 20.9886C12.1167 20.4804 12.4023 19.3959 12.0087 18.5204C11.7738 17.9981 11.5642 17.4619 11.3814 16.9135C13.2988 17.1716 15.1419 17.6633 16.8812 18.3591C17.6069 16.1898 18 13.8681 18 11.4545C18 9.04101 17.6069 6.71931 16.8812 4.54996Z" fill="black"/>
<path d="M18.2606 3.94525C19.0641 6.30095 19.5 8.82683 19.5 11.4545C19.5 14.0822 19.0641 16.6081 18.2606 18.9638C18.2054 19.1256 18.1487 19.2866 18.0901 19.4467C17.9477 19.8357 18.1476 20.2665 18.5366 20.4088C18.9256 20.5512 19.3563 20.3513 19.4987 19.9624C19.6387 19.5798 19.7696 19.1929 19.891 18.8018C20.4147 17.1151 20.7627 15.3514 20.914 13.5323C21.431 12.9938 21.75 12.2612 21.75 11.4545C21.75 10.6479 21.431 9.91526 20.914 9.37681C20.7627 7.55772 20.4147 5.79401 19.891 4.10726C19.7696 3.71618 19.6387 3.32925 19.4987 2.94674C19.3563 2.55777 18.9256 2.35787 18.5366 2.50025C18.1476 2.64263 17.9477 3.07338 18.0901 3.46236C18.1487 3.62248 18.2055 3.7835 18.2606 3.94525Z" fill="black"/>
</svg>
