<svg width="24" height="25" viewBox="0 0 24 25" fill="none" xmlns="http://www.w3.org/2000/svg">
<g clip-path="url(#clip0_1_431)">
<path d="M8.25 4.70447C8.25 2.6334 9.92893 0.954468 12 0.954468C14.0711 0.954468 15.75 2.6334 15.75 4.70447V12.9545C15.75 15.0255 14.0711 16.7045 12 16.7045C9.92893 16.7045 8.25 15.0255 8.25 12.9545V4.70447Z" fill="black"/>
<path d="M6 10.7045C6.41421 10.7045 6.75 11.0403 6.75 11.4545V12.9545C6.75 15.854 9.1005 18.2045 12 18.2045C14.8995 18.2045 17.25 15.854 17.25 12.9545V11.4545C17.25 11.0403 17.5858 10.7045 18 10.7045C18.4142 10.7045 18.75 11.0403 18.75 11.4545V12.9545C18.75 16.4289 16.125 19.2902 12.75 19.6633V21.9545H15.75C16.1642 21.9545 16.5 22.2903 16.5 22.7045C16.5 23.1187 16.1642 23.4545 15.75 23.4545H8.25C7.83579 23.4545 7.5 23.1187 7.5 22.7045C7.5 22.2903 7.83579 21.9545 8.25 21.9545H11.25V19.6633C7.87504 19.2902 5.25 16.4289 5.25 12.9545V11.4545C5.25 11.0403 5.58579 10.7045 6 10.7045Z" fill="black"/>
</g>
<defs>
<clipPath id="clip0_1_431">
<rect width="24" height="24" fill="white" transform="translate(0 0.204468)"/>
</clipPath>
</defs>
</svg>
