<svg width="24" height="25" viewBox="0 0 24 25" fill="none" xmlns="http://www.w3.org/2000/svg">
<path fill-rule="evenodd" clip-rule="evenodd" d="M9.52839 1.92233C9.74339 2.13733 9.80731 2.46087 9.69021 2.74148C9.2458 3.80651 9 4.9759 9 6.2046C9 11.1752 13.0294 15.2046 18 15.2046C19.2287 15.2046 20.3981 14.9588 21.4631 14.5144C21.7437 14.3973 22.0673 14.4612 22.2823 14.6762C22.4973 14.8912 22.5612 15.2148 22.4441 15.4954C20.8618 19.2873 17.1183 21.9546 12.75 21.9546C6.95101 21.9546 2.25 17.2536 2.25 11.4546C2.25 7.08631 4.91735 3.34276 8.70924 1.7605C8.98985 1.64341 9.31338 1.70733 9.52839 1.92233Z" fill="black"/>
</svg>
