<svg width="24" height="25" viewBox="0 0 24 25" fill="none" xmlns="http://www.w3.org/2000/svg">
<path fill-rule="evenodd" clip-rule="evenodd" d="M19.9516 1.85571C20.1395 1.99744 20.25 2.21913 20.25 2.45447V6.18791C20.2503 6.19923 20.2503 6.21053 20.25 6.22179V16.5073C20.25 17.8467 19.3621 19.0239 18.0742 19.3919L16.7542 19.769C15.1234 20.235 13.5 19.0104 13.5 17.3144C13.5 16.1746 14.2556 15.1729 15.3515 14.8597L17.6621 14.1996C18.306 14.0156 18.75 13.427 18.75 12.7573V7.19877L9.75 9.7702V19.5073C9.75 20.8467 8.86207 22.0239 7.57416 22.3919L6.25418 22.769C4.62337 23.235 3 22.0104 3 20.3144C3 19.1746 3.75559 18.1729 4.85153 17.8597L7.16208 17.1996C7.80603 17.0156 8.25 16.427 8.25 15.7573V9.22106C8.24974 9.20972 8.24974 9.19842 8.25 9.18715V5.45447C8.25 5.11961 8.47198 4.82532 8.79396 4.73333L19.294 1.73333C19.5202 1.66868 19.7638 1.71399 19.9516 1.85571Z" fill="black"/>
</svg>
