<svg width="24" height="25" viewBox="0 0 24 25" fill="none" xmlns="http://www.w3.org/2000/svg">
<path fill-rule="evenodd" clip-rule="evenodd" d="M4.125 3.20447C3.08947 3.20447 2.25 4.04393 2.25 5.07947V18.2045C2.25 19.8613 3.59315 21.2045 5.25 21.2045H20.25C18.5931 21.2045 17.25 19.8613 17.25 18.2045V5.07947C17.25 4.04393 16.4105 3.20447 15.375 3.20447H4.125ZM12 9.95447C11.5858 9.95447 11.25 10.2903 11.25 10.7045C11.25 11.1187 11.5858 11.4545 12 11.4545H13.5C13.9142 11.4545 14.25 11.1187 14.25 10.7045C14.25 10.2903 13.9142 9.95447 13.5 9.95447H12ZM11.25 7.70447C11.25 7.29025 11.5858 6.95447 12 6.95447H13.5C13.9142 6.95447 14.25 7.29025 14.25 7.70447C14.25 8.11868 13.9142 8.45447 13.5 8.45447H12C11.5858 8.45447 11.25 8.11868 11.25 7.70447ZM6 12.9545C5.58579 12.9545 5.25 13.2903 5.25 13.7045C5.25 14.1187 5.58579 14.4545 6 14.4545H13.5C13.9142 14.4545 14.25 14.1187 14.25 13.7045C14.25 13.2903 13.9142 12.9545 13.5 12.9545H6ZM5.25 16.7045C5.25 16.2903 5.58579 15.9545 6 15.9545H13.5C13.9142 15.9545 14.25 16.2903 14.25 16.7045C14.25 17.1187 13.9142 17.4545 13.5 17.4545H6C5.58579 17.4545 5.25 17.1187 5.25 16.7045ZM6 6.95447C5.58579 6.95447 5.25 7.29025 5.25 7.70447V10.7045C5.25 11.1187 5.58579 11.4545 6 11.4545H9C9.41421 11.4545 9.75 11.1187 9.75 10.7045V7.70447C9.75 7.29025 9.41421 6.95447 9 6.95447H6Z" fill="black"/>
<path d="M18.75 6.95447H20.625C21.2463 6.95447 21.75 7.45815 21.75 8.07947V18.2045C21.75 19.0329 21.0784 19.7045 20.25 19.7045C19.4216 19.7045 18.75 19.0329 18.75 18.2045V6.95447Z" fill="black"/>
</svg>
