<svg width="24" height="25" viewBox="0 0 24 25" fill="none" xmlns="http://www.w3.org/2000/svg">
<path fill-rule="evenodd" clip-rule="evenodd" d="M6.72048 5.86429L18.3402 17.484C21.0455 14.2428 20.8767 9.41389 17.8336 6.37084C14.7906 3.32778 9.96171 3.15893 6.72048 5.86429ZM17.2795 18.5446L5.65982 6.92495C2.95446 10.1662 3.12331 14.995 6.16637 18.0381C9.20943 21.0812 14.0383 21.25 17.2795 18.5446ZM5.10571 5.31018C8.91332 1.50256 15.0867 1.50256 18.8943 5.31018C22.7019 9.11779 22.7019 15.2911 18.8943 19.0988C15.0867 22.9064 8.91332 22.9064 5.10571 19.0988C1.2981 15.2911 1.2981 9.11779 5.10571 5.31018Z" fill="black"/>
</svg>
