<svg width="24" height="25" viewBox="0 0 24 25" fill="none" xmlns="http://www.w3.org/2000/svg">
<path fill-rule="evenodd" clip-rule="evenodd" d="M20.5986 1.70447C20.2232 1.70447 19.8562 1.81558 19.5439 2.02381L14.4649 5.4098C13.1853 6.26282 12.0203 7.26687 10.993 8.39665C13.1064 9.38837 14.8161 11.098 15.8078 13.2114C16.9376 12.1842 17.9416 11.0191 18.7946 9.73954L22.1806 4.66056C22.3888 4.34822 22.5 3.98124 22.5 3.60586C22.5 2.55575 21.6487 1.70447 20.5986 1.70447ZM12.2995 15.7294C12.9568 15.3642 13.5898 14.9608 14.1954 14.522C13.3836 12.4625 11.742 10.8208 9.68246 10.009C9.24361 10.6147 8.84023 11.2476 8.47506 11.9049L8.19653 12.4063C9.93302 12.903 11.3015 14.2714 11.7981 16.0079L12.2995 15.7294ZM6.74995 13.7045C4.67886 13.7045 2.99995 15.3834 2.99995 17.4545C2.99995 18.2829 2.32839 18.9545 1.49995 18.9545C1.46599 18.9545 1.43219 18.9533 1.3986 18.9511C1.12245 18.9329 0.858681 19.0682 0.712418 19.3031C0.566154 19.5381 0.561166 19.8345 0.699441 20.0742C1.60524 21.6447 3.30337 22.7045 5.24995 22.7045C8.14946 22.7045 10.5 20.354 10.5 17.4545C10.5 15.3834 8.82104 13.7045 6.74995 13.7045Z" fill="black"/>
</svg>
