<svg width="24" height="25" viewBox="0 0 24 25" fill="none" xmlns="http://www.w3.org/2000/svg">
<path fill-rule="evenodd" clip-rule="evenodd" d="M18.9696 3.8636C18.0909 2.98492 16.6663 2.98492 15.7876 3.8636L4.84835 14.8029C3.38388 16.2674 3.38388 18.6418 4.84835 20.1062C6.31282 21.5707 8.68718 21.5707 10.1517 20.1062L17.8446 12.4132C18.1375 12.1203 18.6124 12.1203 18.9053 12.4132C19.1982 12.7061 19.1982 13.181 18.9053 13.4739L11.2123 21.1669C9.16206 23.2171 5.83794 23.2171 3.78769 21.1669C1.73744 19.1166 1.73744 15.7925 3.78769 13.7423L14.7269 2.80294C16.1914 1.33847 18.5658 1.33847 20.0302 2.80294C21.4947 4.2674 21.4947 6.64177 20.0302 8.10624L9.09735 19.0391C9.09452 19.042 9.09167 19.0449 9.08878 19.0478L9.08191 19.0546L9.07971 19.0568L9.07747 19.059C8.19765 19.9242 6.78319 19.9198 5.90901 19.0456C5.03033 18.1669 5.03033 16.7423 5.90901 15.8636L13.7195 8.05292C14.0124 7.76002 14.4873 7.76001 14.7802 8.0529C15.0731 8.34579 15.0731 8.82067 14.7802 9.11356L6.96968 16.9242C6.67678 17.2171 6.67678 17.692 6.96967 17.9849C7.26041 18.2757 7.73056 18.2778 8.02383 17.9913L18.9696 7.04558C19.8483 6.1669 19.8483 4.74228 18.9696 3.8636Z" fill="black"/>
</svg>
