<svg width="24" height="25" viewBox="0 0 24 25" fill="none" xmlns="http://www.w3.org/2000/svg">
<path d="M3.47804 2.60877C3.2133 2.53187 2.92771 2.6064 2.73432 2.80287C2.54093 2.99934 2.47091 3.28607 2.55198 3.54956L4.98426 11.4545H13.5C13.9142 11.4545 14.25 11.7903 14.25 12.2045C14.25 12.6187 13.9142 12.9545 13.5 12.9545H4.98427L2.55207 20.8591C2.471 21.1226 2.54102 21.4093 2.73441 21.6058C2.92781 21.8023 3.2134 21.8768 3.47814 21.7999C10.1767 19.8539 16.3974 16.7859 21.9233 12.8132C22.1193 12.6723 22.2355 12.4456 22.2355 12.2042C22.2355 11.9628 22.1193 11.7362 21.9233 11.5953C16.3974 7.62263 10.1767 4.55468 3.47804 2.60877Z" fill="black"/>
</svg>
