<svg width="24" height="25" viewBox="0 0 24 25" fill="none" xmlns="http://www.w3.org/2000/svg">
<path fill-rule="evenodd" clip-rule="evenodd" d="M6.75 5.45459C6.75 5.04038 7.08579 4.70459 7.5 4.70459H9C9.41421 4.70459 9.75 5.04038 9.75 5.45459V18.9546C9.75 19.3688 9.41421 19.7046 9 19.7046H7.5C7.30109 19.7046 7.11032 19.6256 6.96967 19.4849C6.82902 19.3443 6.75 19.1535 6.75 18.9546L6.75 5.45459ZM14.25 5.45459C14.25 5.04038 14.5858 4.70459 15 4.70459H16.5C16.6989 4.70459 16.8897 4.78361 17.0303 4.92426C17.171 5.06491 17.25 5.25568 17.25 5.45459V18.9546C17.25 19.3688 16.9142 19.7046 16.5 19.7046H15C14.5858 19.7046 14.25 19.3688 14.25 18.9546V5.45459Z" fill="black"/>
</svg>
