<svg width="24" height="25" viewBox="0 0 24 25" fill="none" xmlns="http://www.w3.org/2000/svg">
<path fill-rule="evenodd" clip-rule="evenodd" d="M2.25 12.2046C2.25 6.81981 6.61522 2.45459 12 2.45459C17.3848 2.45459 21.75 6.81981 21.75 12.2046C21.75 17.5894 17.3848 21.9546 12 21.9546C6.61522 21.9546 2.25 17.5894 2.25 12.2046ZM9 8.45459C8.58579 8.45459 8.25 8.79038 8.25 9.20459V15.2046C8.25 15.6188 8.58579 15.9546 9 15.9546H9.75C10.1642 15.9546 10.5 15.6188 10.5 15.2046V9.20459C10.5 8.79038 10.1642 8.45459 9.75 8.45459H9ZM14.25 8.45459C13.8358 8.45459 13.5 8.79038 13.5 9.20459V15.2046C13.5 15.6188 13.8358 15.9546 14.25 15.9546H15C15.4142 15.9546 15.75 15.6188 15.75 15.2046V9.20459C15.75 8.79038 15.4142 8.45459 15 8.45459H14.25Z" fill="black"/>
</svg>
