<svg width="24" height="25" viewBox="0 0 24 25" fill="none" xmlns="http://www.w3.org/2000/svg">
<path d="M21.7312 2.47343C20.706 1.44831 19.044 1.44831 18.0188 2.47343L16.8617 3.63058L20.574 7.34289L21.7312 6.18575C22.7563 5.16062 22.7563 3.49856 21.7312 2.47343Z" fill="black"/>
<path d="M19.5133 8.40355L15.801 4.69124L7.40019 13.0921C6.78341 13.7089 6.33002 14.4696 6.081 15.3056L5.28122 17.9905C5.2026 18.2544 5.27494 18.5402 5.46967 18.7349C5.6644 18.9296 5.95019 19.002 6.21412 18.9234L8.89901 18.1236C9.73498 17.8746 10.4957 17.4212 11.1125 16.8044L19.5133 8.40355Z" fill="black"/>
<path d="M5.25 5.45458C3.59315 5.45458 2.25 6.79773 2.25 8.45458V18.9546C2.25 20.6114 3.59315 21.9546 5.25 21.9546H15.75C17.4069 21.9546 18.75 20.6114 18.75 18.9546V13.7046C18.75 13.2904 18.4142 12.9546 18 12.9546C17.5858 12.9546 17.25 13.2904 17.25 13.7046V18.9546C17.25 19.783 16.5784 20.4546 15.75 20.4546H5.25C4.42157 20.4546 3.75 19.783 3.75 18.9546V8.45458C3.75 7.62615 4.42157 6.95458 5.25 6.95458H10.5C10.9142 6.95458 11.25 6.6188 11.25 6.20458C11.25 5.79037 10.9142 5.45458 10.5 5.45458H5.25Z" fill="black"/>
</svg>
