<svg width="24" height="25" viewBox="0 0 24 25" fill="none" xmlns="http://www.w3.org/2000/svg">
<path fill-rule="evenodd" clip-rule="evenodd" d="M19.5 9.95459C19.5 10.3688 19.1642 10.7046 18.75 10.7046L14.25 10.7046C13.8358 10.7046 13.5 10.3688 13.5 9.95459V5.45459C13.5 5.04038 13.8358 4.70459 14.25 4.70459C14.6642 4.70459 15 5.04038 15 5.45459V8.14393L19.7197 3.42426C20.0126 3.13137 20.4874 3.13137 20.7803 3.42426C21.0732 3.71715 21.0732 4.19203 20.7803 4.48492L16.0607 9.20459L18.75 9.20459C19.1642 9.20459 19.5 9.54038 19.5 9.95459Z" fill="black"/>
<path fill-rule="evenodd" clip-rule="evenodd" d="M1.5 4.70459C1.5 3.04774 2.84315 1.70459 4.5 1.70459H5.87163C6.732 1.70459 7.48197 2.29015 7.69064 3.12484L8.79644 7.54802C8.97941 8.27989 8.70594 9.05014 8.10242 9.50277L6.8088 10.473C6.67447 10.5737 6.64527 10.7213 6.683 10.8243C7.81851 13.9241 10.2805 16.3861 13.3803 17.5216C13.4833 17.5593 13.6309 17.5301 13.7316 17.3958L14.7018 16.1022C15.1545 15.4987 15.9247 15.2252 16.6566 15.4082L21.0798 16.5139C21.9144 16.7226 22.5 17.4726 22.5 18.333V19.7046C22.5 21.3614 21.1569 22.7046 19.5 22.7046H17.25C8.55151 22.7046 1.5 15.6531 1.5 6.95459V4.70459Z" fill="black"/>
</svg>
