<svg width="24" height="25" viewBox="0 0 24 25" fill="none" xmlns="http://www.w3.org/2000/svg">
<path fill-rule="evenodd" clip-rule="evenodd" d="M15 3.95459C15 3.54038 15.3358 3.20459 15.75 3.20459H20.25C20.6642 3.20459 21 3.54038 21 3.95459V8.45459C21 8.8688 20.6642 9.20459 20.25 9.20459C19.8358 9.20459 19.5 8.8688 19.5 8.45459V5.76525L14.7803 10.4849C14.4874 10.7778 14.0126 10.7778 13.7197 10.4849C13.4268 10.192 13.4268 9.71715 13.7197 9.42426L18.4393 4.70459H15.75C15.3358 4.70459 15 4.3688 15 3.95459Z" fill="black"/>
<path fill-rule="evenodd" clip-rule="evenodd" d="M1.5 4.70459C1.5 3.04774 2.84315 1.70459 4.5 1.70459H5.87163C6.732 1.70459 7.48197 2.29015 7.69064 3.12484L8.79644 7.54802C8.97941 8.27989 8.70594 9.05014 8.10242 9.50277L6.8088 10.473C6.67447 10.5737 6.64527 10.7213 6.683 10.8243C7.81851 13.9241 10.2805 16.3861 13.3803 17.5216C13.4833 17.5593 13.6309 17.5301 13.7316 17.3958L14.7018 16.1022C15.1545 15.4987 15.9247 15.2252 16.6566 15.4082L21.0798 16.5139C21.9144 16.7226 22.5 17.4726 22.5 18.333V19.7046C22.5 21.3614 21.1569 22.7046 19.5 22.7046H17.25C8.55151 22.7046 1.5 15.6531 1.5 6.95459V4.70459Z" fill="black"/>
</svg>
