<svg width="24" height="25" viewBox="0 0 24 25" fill="none" xmlns="http://www.w3.org/2000/svg">
<path fill-rule="evenodd" clip-rule="evenodd" d="M15.2197 3.42426C15.5126 3.13137 15.9874 3.13137 16.2803 3.42426L18 5.14393L19.7197 3.42426C20.0126 3.13137 20.4874 3.13137 20.7803 3.42426C21.0732 3.71715 21.0732 4.19203 20.7803 4.48492L19.0607 6.20459L20.7803 7.92426C21.0732 8.21715 21.0732 8.69203 20.7803 8.98492C20.4874 9.27781 20.0126 9.27781 19.7197 8.98492L18 7.26525L16.2803 8.98492C15.9874 9.27781 15.5126 9.27781 15.2197 8.98492C14.9268 8.69203 14.9268 8.21715 15.2197 7.92426L16.9393 6.20459L15.2197 4.48492C14.9268 4.19203 14.9268 3.71715 15.2197 3.42426Z" fill="black"/>
<path fill-rule="evenodd" clip-rule="evenodd" d="M1.5 4.70459C1.5 3.04774 2.84315 1.70459 4.5 1.70459H5.87163C6.732 1.70459 7.48197 2.29015 7.69064 3.12484L8.79644 7.54802C8.97941 8.27989 8.70594 9.05014 8.10242 9.50277L6.8088 10.473C6.67447 10.5737 6.64527 10.7213 6.683 10.8243C7.81851 13.9241 10.2805 16.3861 13.3803 17.5216C13.4833 17.5593 13.6309 17.5301 13.7316 17.3958L14.7018 16.1022C15.1545 15.4987 15.9247 15.2252 16.6566 15.4082L21.0798 16.5139C21.9144 16.7226 22.5 17.4726 22.5 18.333V19.7046C22.5 21.3614 21.1569 22.7046 19.5 22.7046H17.25C8.55151 22.7046 1.5 15.6531 1.5 6.95459V4.70459Z" fill="black"/>
</svg>
