<svg width="24" height="25" viewBox="0 0 24 25" fill="none" xmlns="http://www.w3.org/2000/svg">
<path fill-rule="evenodd" clip-rule="evenodd" d="M1.5 6.20459C1.5 4.96195 2.50736 3.95459 3.75 3.95459H20.25C21.4926 3.95459 22.5 4.96195 22.5 6.20459V18.2046C22.5 19.4472 21.4926 20.4546 20.25 20.4546H3.75C2.50736 20.4546 1.5 19.4472 1.5 18.2046V6.20459ZM3 16.2652V18.2046C3 18.6188 3.33579 18.9546 3.75 18.9546H20.25C20.6642 18.9546 21 18.6188 21 18.2046V16.2653L18.3107 13.5759C17.7249 12.9901 16.7751 12.9901 16.1893 13.5759L15.3107 14.4546L16.2803 15.4243C16.5732 15.7172 16.5732 16.192 16.2803 16.4849C15.9874 16.7778 15.5126 16.7778 15.2197 16.4849L10.0607 11.3259C9.47487 10.7401 8.52513 10.7401 7.93934 11.3259L3 16.2652ZM13.125 8.45459C13.125 7.83327 13.6287 7.32959 14.25 7.32959C14.8713 7.32959 15.375 7.83327 15.375 8.45459C15.375 9.07591 14.8713 9.57959 14.25 9.57959C13.6287 9.57959 13.125 9.07591 13.125 8.45459Z" fill="black"/>
</svg>
