<svg width="24" height="25" viewBox="0 0 24 25" fill="none" xmlns="http://www.w3.org/2000/svg">
<path d="M15 6.95459C14.5858 6.95459 14.25 7.29038 14.25 7.70459V18.2046C14.25 18.4035 14.329 18.5943 14.4697 18.7349C14.6103 18.8756 14.8011 18.9546 15 18.9546H15.75C16.1642 18.9546 16.5 18.6188 16.5 18.2046V7.70459C16.5 7.29038 16.1642 6.95459 15.75 6.95459H15Z" fill="black"/>
<path d="M20.25 6.95459C19.8358 6.95459 19.5 7.29038 19.5 7.70459V18.2046C19.5 18.6188 19.8358 18.9546 20.25 18.9546H21C21.4142 18.9546 21.75 18.6188 21.75 18.2046L21.75 7.70459C21.75 7.50568 21.671 7.31491 21.5303 7.17426C21.3897 7.03361 21.1989 6.95459 21 6.95459H20.25Z" fill="black"/>
<path d="M5.05526 7.2652C3.80528 6.55092 2.25 7.45348 2.25 8.89315V17.016C2.25 18.4557 3.80528 19.3582 5.05526 18.644L12.1628 14.5825C13.4224 13.8627 13.4224 12.0464 12.1628 11.3266L5.05526 7.2652Z" fill="black"/>
</svg>
