<svg width="24" height="25" viewBox="0 0 24 25" fill="none" xmlns="http://www.w3.org/2000/svg">
<path fill-rule="evenodd" clip-rule="evenodd" d="M12 2.45459C6.61522 2.45459 2.25 6.81981 2.25 12.2046C2.25 17.5894 6.61522 21.9546 12 21.9546C17.3848 21.9546 21.75 17.5894 21.75 12.2046C21.75 6.81981 17.3848 2.45459 12 2.45459ZM12.75 9.20459C12.75 8.79038 12.4142 8.45459 12 8.45459C11.5858 8.45459 11.25 8.79038 11.25 9.20459V11.4546H9C8.58579 11.4546 8.25 11.7904 8.25 12.2046C8.25 12.6188 8.58579 12.9546 9 12.9546H11.25V15.2046C11.25 15.6188 11.5858 15.9546 12 15.9546C12.4142 15.9546 12.75 15.6188 12.75 15.2046V12.9546H15C15.4142 12.9546 15.75 12.6188 15.75 12.2046C15.75 11.7904 15.4142 11.4546 15 11.4546H12.75V9.20459Z" fill="black"/>
</svg>
