<svg width="24" height="25" viewBox="0 0 24 25" fill="none" xmlns="http://www.w3.org/2000/svg">
<path fill-rule="evenodd" clip-rule="evenodd" d="M12 3.95459C12.4142 3.95459 12.75 4.29038 12.75 4.70459V11.4546H19.5C19.9142 11.4546 20.25 11.7904 20.25 12.2046C20.25 12.6188 19.9142 12.9546 19.5 12.9546H12.75V19.7046C12.75 20.1188 12.4142 20.4546 12 20.4546C11.5858 20.4546 11.25 20.1188 11.25 19.7046V12.9546H4.5C4.08579 12.9546 3.75 12.6188 3.75 12.2046C3.75 11.7904 4.08579 11.4546 4.5 11.4546H11.25V4.70459C11.25 4.29038 11.5858 3.95459 12 3.95459Z" fill="black"/>
</svg>
