<svg width="24" height="25" viewBox="0 0 24 25" fill="none" xmlns="http://www.w3.org/2000/svg">
<path fill-rule="evenodd" clip-rule="evenodd" d="M12 2.45459C12.4142 2.45459 12.75 2.79038 12.75 3.20459V12.2046C12.75 12.6188 12.4142 12.9546 12 12.9546C11.5858 12.9546 11.25 12.6188 11.25 12.2046V3.20459C11.25 2.79038 11.5858 2.45459 12 2.45459ZM6.16637 5.3103C6.45926 5.60319 6.45926 6.07807 6.16637 6.37096C2.94454 9.59278 2.94454 14.8164 6.16637 18.0382C9.38819 21.26 14.6118 21.26 17.8336 18.0382C21.0555 14.8164 21.0555 9.59278 17.8336 6.37096C17.5407 6.07807 17.5407 5.60319 17.8336 5.3103C18.1265 5.01741 18.6014 5.01741 18.8943 5.3103C22.7019 9.11791 22.7019 15.2913 18.8943 19.0989C15.0867 22.9065 8.91332 22.9065 5.10571 19.0989C1.2981 15.2913 1.2981 9.11791 5.10571 5.3103C5.3986 5.01741 5.87348 5.01741 6.16637 5.3103Z" fill="black"/>
</svg>
