<svg width="24" height="25" viewBox="0 0 24 25" fill="none" xmlns="http://www.w3.org/2000/svg">
<path fill-rule="evenodd" clip-rule="evenodd" d="M2.25 2.45459C1.83579 2.45459 1.5 2.79038 1.5 3.20459C1.5 3.6188 1.83579 3.95459 2.25 3.95459H3V14.4546C3 16.1114 4.34315 17.4546 6 17.4546H7.20943L6.03849 20.9674C5.9075 21.3604 6.11987 21.7851 6.51283 21.9161C6.90579 22.0471 7.33053 21.8347 7.46151 21.4418L7.79057 20.4546H16.2094L16.5385 21.4418C16.6695 21.8347 17.0942 22.0471 17.4872 21.9161C17.8801 21.7851 18.0925 21.3604 17.9615 20.9674L16.7906 17.4546H18C19.6569 17.4546 21 16.1114 21 14.4546V3.95459H21.75C22.1642 3.95459 22.5 3.6188 22.5 3.20459C22.5 2.79038 22.1642 2.45459 21.75 2.45459H2.25ZM8.79057 17.4546H15.2094L15.7094 18.9546H8.29057L8.79057 17.4546ZM16.8755 8.45926C17.2341 8.25186 17.3566 7.79306 17.1492 7.43451C16.9418 7.07597 16.483 6.95345 16.1245 7.16085C14.7577 7.95147 13.5517 8.9883 12.5667 10.2107L11.0303 8.67434C10.7374 8.38145 10.2626 8.38145 9.96967 8.67434L6.96967 11.6743C6.67678 11.9672 6.67678 12.4421 6.96967 12.735C7.26256 13.0279 7.73744 13.0279 8.03033 12.735L10.5 10.2653L12.1173 11.8826C12.2742 12.0396 12.4927 12.1189 12.7138 12.0993C12.9349 12.0797 13.136 11.9632 13.2629 11.781C14.207 10.4263 15.4414 9.28887 16.8755 8.45926Z" fill="black"/>
</svg>
