<svg width="24" height="25" viewBox="0 0 24 25" fill="none" xmlns="http://www.w3.org/2000/svg">
<path fill-rule="evenodd" clip-rule="evenodd" d="M2.25 2.45459C1.83579 2.45459 1.5 2.79038 1.5 3.20459C1.5 3.6188 1.83579 3.95459 2.25 3.95459H3V14.4546C3 16.1114 4.34315 17.4546 6 17.4546H7.20943L6.03849 20.9674C5.9075 21.3604 6.11987 21.7851 6.51283 21.9161C6.90579 22.0471 7.33053 21.8347 7.46151 21.4418L7.79057 20.4546H16.2094L16.5385 21.4418C16.6695 21.8347 17.0942 22.0471 17.4872 21.9161C17.8801 21.7851 18.0925 21.3604 17.9615 20.9674L16.7906 17.4546H18C19.6569 17.4546 21 16.1114 21 14.4546V3.95459H21.75C22.1642 3.95459 22.5 3.6188 22.5 3.20459C22.5 2.79038 22.1642 2.45459 21.75 2.45459H2.25ZM8.29057 18.9546L8.79057 17.4546H15.2094L15.7094 18.9546H8.29057ZM15.75 6.95459C15.75 6.54038 15.4142 6.20459 15 6.20459C14.5858 6.20459 14.25 6.54038 14.25 6.95459V12.9546C14.25 13.3688 14.5858 13.7046 15 13.7046C15.4142 13.7046 15.75 13.3688 15.75 12.9546V6.95459ZM12.75 9.20459C12.75 8.79038 12.4142 8.45459 12 8.45459C11.5858 8.45459 11.25 8.79038 11.25 9.20459V12.9546C11.25 13.3688 11.5858 13.7046 12 13.7046C12.4142 13.7046 12.75 13.3688 12.75 12.9546V9.20459ZM9.75 11.4546C9.75 11.0404 9.41421 10.7046 9 10.7046C8.58579 10.7046 8.25 11.0404 8.25 11.4546V12.9546C8.25 13.3688 8.58579 13.7046 9 13.7046C9.41421 13.7046 9.75 13.3688 9.75 12.9546V11.4546Z" fill="black"/>
</svg>
