<svg width="24" height="25" viewBox="0 0 24 25" fill="none" xmlns="http://www.w3.org/2000/svg">
<path fill-rule="evenodd" clip-rule="evenodd" d="M7.875 1.70459C6.83947 1.70459 6 2.54406 6 3.57959V6.57023C5.5736 6.62258 5.1489 6.68042 4.72596 6.74371C3.27191 6.96127 2.25 8.22622 2.25 9.66028V15.9546C2.25 17.6114 3.59315 18.9546 5.25 18.9546H5.51963L5.36461 20.6598C5.26479 21.7579 6.12935 22.7046 7.23191 22.7046H16.7681C17.8706 22.7046 18.7352 21.7579 18.6354 20.6598L18.4804 18.9546H18.75C20.4069 18.9546 21.75 17.6114 21.75 15.9546V9.66028C21.75 8.22622 20.7281 6.96127 19.274 6.74371C18.8511 6.68042 18.4264 6.62258 18 6.57023V3.57959C18 2.54406 17.1605 1.70459 16.125 1.70459H7.875ZM16.5 6.40957V3.57959C16.5 3.37248 16.3321 3.20459 16.125 3.20459H7.875C7.66789 3.20459 7.5 3.37248 7.5 3.57959V6.40957C8.98198 6.2739 10.483 6.20459 12 6.20459C13.517 6.20459 15.018 6.2739 16.5 6.40957ZM16.2834 14.6742C16.4607 14.6925 16.5996 14.8343 16.6158 15.0119L17.1415 20.7956C17.1615 21.0152 16.9886 21.2046 16.7681 21.2046H7.23191C7.0114 21.2046 6.83849 21.0152 6.85845 20.7956L7.38425 15.0119C7.40039 14.8343 7.53926 14.6925 7.71659 14.6742C9.12438 14.529 10.5534 14.4546 12 14.4546C13.4466 14.4546 14.8756 14.529 16.2834 14.6742ZM17.25 10.7046C17.25 10.2904 17.5858 9.95459 18 9.95459H18.0075C18.4217 9.95459 18.7575 10.2904 18.7575 10.7046V10.7121C18.7575 11.1263 18.4217 11.4621 18.0075 11.4621H18C17.5858 11.4621 17.25 11.1263 17.25 10.7121V10.7046ZM15 9.95459C14.5858 9.95459 14.25 10.2904 14.25 10.7046V10.7121C14.25 11.1263 14.5858 11.4621 15 11.4621H15.0075C15.4217 11.4621 15.7575 11.1263 15.7575 10.7121V10.7046C15.7575 10.2904 15.4217 9.95459 15.0075 9.95459H15Z" fill="black"/>
</svg>
