<svg width="24" height="25" viewBox="0 0 24 25" fill="none" xmlns="http://www.w3.org/2000/svg">
<path d="M11.25 5.54153C11.25 5.18637 11.064 4.86535 10.8488 4.58279C10.6279 4.29269 10.5 3.94859 10.5 3.57959C10.5 2.54406 11.5074 1.70459 12.75 1.70459C13.9926 1.70459 15 2.54406 15 3.57959C15 3.94859 14.8721 4.29269 14.6512 4.58279C14.436 4.86535 14.25 5.18637 14.25 5.54153C14.25 5.87388 14.5277 6.13919 14.8595 6.11939C16.7701 6.00538 18.6498 5.77787 20.4922 5.44357C20.6949 5.40678 20.9039 5.45503 21.07 5.577C21.2361 5.69896 21.3447 5.88389 21.3703 6.08836C21.5943 7.87783 21.7213 9.69722 21.7459 11.541C21.7508 11.9074 21.4533 12.2045 21.0869 12.2046C20.7318 12.2046 20.4108 12.0185 20.1282 11.8034C19.8381 11.5825 19.494 11.4546 19.125 11.4546C18.0895 11.4546 17.25 12.4619 17.25 13.7046C17.25 14.9472 18.0895 15.9546 19.125 15.9546C19.494 15.9546 19.8381 15.8267 20.1282 15.6058C20.4108 15.3906 20.7318 15.2046 21.0869 15.2046C21.3974 15.2046 21.6439 15.4663 21.6214 15.7759C21.5028 17.4144 21.3031 19.0307 21.0263 20.6207C20.9721 20.9325 20.7279 21.1767 20.416 21.231C18.5969 21.5476 16.7434 21.7633 14.8615 21.8722C14.5285 21.8915 14.25 21.6251 14.25 21.2915C14.25 20.9364 14.436 20.6154 14.6512 20.3328C14.8721 20.0427 15 19.6986 15 19.3296C15 18.2941 13.9926 17.4546 12.75 17.4546C11.5074 17.4546 10.5 18.2941 10.5 19.3296C10.5 19.6986 10.6279 20.0427 10.8488 20.3328C11.064 20.6154 11.25 20.9364 11.25 21.2915C11.25 21.6531 10.954 21.9451 10.5925 21.9349C9.00303 21.8898 7.43238 21.7686 5.88413 21.5747C5.67966 21.5491 5.49473 21.4405 5.37277 21.2745C5.25081 21.1084 5.20256 20.8994 5.23935 20.6966C5.53223 19.0827 5.74315 17.4399 5.8676 15.7729C5.89058 15.4651 5.64563 15.2046 5.33694 15.2046C4.98178 15.2046 4.66076 15.3906 4.3782 15.6058C4.0881 15.8267 3.744 15.9546 3.375 15.9546C2.33947 15.9546 1.5 14.9472 1.5 13.7046C1.5 12.4619 2.33947 11.4546 3.375 11.4546C3.744 11.4546 4.0881 11.5825 4.3782 11.8034C4.66076 12.0185 4.98178 12.2046 5.33694 12.2046C5.7033 12.2046 6.00078 11.9076 5.99574 11.5412C5.97334 9.91304 5.86862 8.30485 5.68559 6.72087C5.6593 6.4934 5.73838 6.26637 5.9003 6.10445C6.06222 5.94253 6.28924 5.86345 6.51672 5.88974C7.85902 6.04484 9.2186 6.14371 10.5931 6.1839C10.9541 6.19446 11.25 5.90276 11.25 5.54153Z" fill="black"/>
</svg>
