<svg width="24" height="25" viewBox="0 0 24 25" fill="none" xmlns="http://www.w3.org/2000/svg">
<path fill-rule="evenodd" clip-rule="evenodd" d="M3 5.07947C3 4.04393 3.83947 3.20447 4.875 3.20447H9.375C10.4105 3.20447 11.25 4.04393 11.25 5.07947V9.57947C11.25 10.615 10.4105 11.4545 9.375 11.4545H4.875C3.83947 11.4545 3 10.615 3 9.57947V5.07947ZM4.875 4.70447C4.66789 4.70447 4.5 4.87236 4.5 5.07947V9.57947C4.5 9.78657 4.66789 9.95447 4.875 9.95447H9.375C9.58211 9.95447 9.75 9.78657 9.75 9.57947V5.07947C9.75 4.87236 9.58211 4.70447 9.375 4.70447H4.875ZM12.75 5.07947C12.75 4.04393 13.5895 3.20447 14.625 3.20447H19.125C20.1605 3.20447 21 4.04393 21 5.07947V9.57947C21 10.615 20.1605 11.4545 19.125 11.4545H14.625C13.5895 11.4545 12.75 10.615 12.75 9.57947V5.07947ZM14.625 4.70447C14.4179 4.70447 14.25 4.87236 14.25 5.07947V9.57947C14.25 9.78657 14.4179 9.95447 14.625 9.95447H19.125C19.3321 9.95447 19.5 9.78657 19.5 9.57947V5.07947C19.5 4.87236 19.3321 4.70447 19.125 4.70447H14.625ZM6 6.95447C6 6.54025 6.33579 6.20447 6.75 6.20447H7.5C7.91421 6.20447 8.25 6.54025 8.25 6.95447V7.70447C8.25 8.11868 7.91421 8.45447 7.5 8.45447H6.75C6.33579 8.45447 6 8.11868 6 7.70447V6.95447ZM15.75 6.95447C15.75 6.54025 16.0858 6.20447 16.5 6.20447H17.25C17.6642 6.20447 18 6.54025 18 6.95447V7.70447C18 8.11868 17.6642 8.45447 17.25 8.45447H16.5C16.0858 8.45447 15.75 8.11868 15.75 7.70447V6.95447ZM3 14.8295C3 13.7939 3.83947 12.9545 4.875 12.9545H9.375C10.4105 12.9545 11.25 13.7939 11.25 14.8295V19.3295C11.25 20.365 10.4105 21.2045 9.375 21.2045H4.875C3.83947 21.2045 3 20.365 3 19.3295V14.8295ZM4.875 14.4545C4.66789 14.4545 4.5 14.6224 4.5 14.8295V19.3295C4.5 19.5366 4.66789 19.7045 4.875 19.7045H9.375C9.58211 19.7045 9.75 19.5366 9.75 19.3295V14.8295C9.75 14.6224 9.58211 14.4545 9.375 14.4545H4.875ZM12.75 13.7045C12.75 13.2903 13.0858 12.9545 13.5 12.9545H14.25C14.6642 12.9545 15 13.2903 15 13.7045V14.4545C15 14.8687 14.6642 15.2045 14.25 15.2045H13.5C13.0858 15.2045 12.75 14.8687 12.75 14.4545V13.7045ZM18.75 13.7045C18.75 13.2903 19.0858 12.9545 19.5 12.9545H20.25C20.6642 12.9545 21 13.2903 21 13.7045V14.4545C21 14.8687 20.6642 15.2045 20.25 15.2045H19.5C19.0858 15.2045 18.75 14.8687 18.75 14.4545V13.7045ZM6 16.7045C6 16.2903 6.33579 15.9545 6.75 15.9545H7.5C7.91421 15.9545 8.25 16.2903 8.25 16.7045V17.4545C8.25 17.8687 7.91421 18.2045 7.5 18.2045H6.75C6.33579 18.2045 6 17.8687 6 17.4545V16.7045ZM15.75 16.7045C15.75 16.2903 16.0858 15.9545 16.5 15.9545H17.25C17.6642 15.9545 18 16.2903 18 16.7045V17.4545C18 17.8687 17.6642 18.2045 17.25 18.2045H16.5C16.0858 18.2045 15.75 17.8687 15.75 17.4545V16.7045ZM12.75 19.7045C12.75 19.2903 13.0858 18.9545 13.5 18.9545H14.25C14.6642 18.9545 15 19.2903 15 19.7045V20.4545C15 20.8687 14.6642 21.2045 14.25 21.2045H13.5C13.0858 21.2045 12.75 20.8687 12.75 20.4545V19.7045ZM18.75 19.7045C18.75 19.2903 19.0858 18.9545 19.5 18.9545H20.25C20.6642 18.9545 21 19.2903 21 19.7045V20.4545C21 20.8687 20.6642 21.2045 20.25 21.2045H19.5C19.0858 21.2045 18.75 20.8687 18.75 20.4545V19.7045Z" fill="black"/>
</svg>
