<svg width="24" height="25" viewBox="0 0 24 25" fill="none" xmlns="http://www.w3.org/2000/svg">
<path fill-rule="evenodd" clip-rule="evenodd" d="M2.25 12.2045C2.25 6.81969 6.61522 2.45447 12 2.45447C17.3848 2.45447 21.75 6.81969 21.75 12.2045C21.75 17.5892 17.3848 21.9545 12 21.9545C6.61522 21.9545 2.25 17.5892 2.25 12.2045ZM13.6277 8.28775C12.7389 7.51004 11.2616 7.51004 10.3728 8.28775C10.0611 8.56051 9.58723 8.52892 9.31447 8.21719C9.04171 7.90546 9.0733 7.43164 9.38503 7.15888C10.8394 5.88633 13.1611 5.88633 14.6154 7.15888C16.1285 8.48281 16.1285 10.6761 14.6154 12.0001C14.3588 12.2246 14.0761 12.4086 13.778 12.5528C13.1018 12.8801 12.7502 13.3266 12.7502 13.7045V14.4545C12.7502 14.8687 12.4144 15.2045 12.0002 15.2045C11.586 15.2045 11.2502 14.8687 11.2502 14.4545V13.7045C11.2502 12.4254 12.3095 11.5971 13.1246 11.2026C13.3073 11.1142 13.4765 11.0035 13.6277 10.8712C14.4577 10.1449 14.4577 9.01406 13.6277 8.28775ZM12 18.2045C12.4142 18.2045 12.75 17.8687 12.75 17.4545C12.75 17.0403 12.4142 16.7045 12 16.7045C11.5858 16.7045 11.25 17.0403 11.25 17.4545C11.25 17.8687 11.5858 18.2045 12 18.2045Z" fill="black"/>
</svg>
