<svg width="24" height="25" viewBox="0 0 24 25" fill="none" xmlns="http://www.w3.org/2000/svg">
<path d="M5.625 3.95447C4.17525 3.95447 3 5.12972 3 6.57947C3 8.02922 4.17525 9.20447 5.625 9.20447H18.375C19.8247 9.20447 21 8.02921 21 6.57947C21 5.12972 19.8247 3.95447 18.375 3.95447H5.625Z" fill="black"/>
<path d="M3.75 11.4545C3.33579 11.4545 3 11.7903 3 12.2045C3 12.6187 3.33579 12.9545 3.75 12.9545H20.25C20.6642 12.9545 21 12.6187 21 12.2045C21 11.7903 20.6642 11.4545 20.25 11.4545H3.75Z" fill="black"/>
<path d="M3 15.9545C3 15.5403 3.33579 15.2045 3.75 15.2045H20.25C20.6642 15.2045 21 15.5403 21 15.9545C21 16.3687 20.6642 16.7045 20.25 16.7045H3.75C3.33579 16.7045 3 16.3687 3 15.9545Z" fill="black"/>
<path d="M3.75 18.9545C3.33579 18.9545 3 19.2903 3 19.7045C3 20.1187 3.33579 20.4545 3.75 20.4545H20.25C20.6642 20.4545 21 20.1187 21 19.7045C21 19.2903 20.6642 18.9545 20.25 18.9545H3.75Z" fill="black"/>
</svg>
