<svg width="24" height="25" viewBox="0 0 24 25" fill="none" xmlns="http://www.w3.org/2000/svg">
<path fill-rule="evenodd" clip-rule="evenodd" d="M20.4321 4.30707C20.8339 4.20661 21.0782 3.79941 20.9778 3.39756C20.8773 2.99571 20.4701 2.75139 20.0683 2.85186L4.12873 6.83674C4.06201 6.84757 3.99534 6.85854 3.92872 6.86964C2.49686 7.10824 1.5 8.36231 1.5 9.77849V18.9545C1.5 20.6113 2.84315 21.9545 4.5 21.9545H19.5C21.1569 21.9545 22.5 20.6113 22.5 18.9545V9.77849C22.5 8.36231 21.5031 7.10824 20.0713 6.86964C17.7057 6.47544 15.2828 6.25164 12.8157 6.21116L20.4321 4.30707ZM10.8471 12.8673C11.14 13.1601 11.14 13.635 10.8471 13.9279L10.8418 13.9332C10.5489 14.2261 10.074 14.2261 9.78115 13.9332L9.77584 13.9279C9.48295 13.635 9.48295 13.1601 9.77584 12.8673L9.78115 12.8619C10.074 12.5691 10.5489 12.5691 10.8418 12.8619L10.8471 12.8673ZM9.78144 16.0543C10.0743 16.3472 10.5492 16.3472 10.8421 16.0543L10.8474 16.049C11.1403 15.7561 11.1403 15.2812 10.8474 14.9883L10.8421 14.983C10.5492 14.6901 10.0743 14.6901 9.78144 14.983L9.77613 14.9883C9.48324 15.2812 9.48324 15.7561 9.77613 16.049L9.78144 16.0543ZM8.72602 14.9885C9.01891 15.2814 9.01891 15.7563 8.72602 16.0492L8.72071 16.0545C8.42782 16.3474 7.95295 16.3474 7.66005 16.0545L7.65475 16.0492C7.36186 15.7563 7.36186 15.2814 7.65475 14.9885L7.66005 14.9832C7.95295 14.6903 8.42782 14.6903 8.72071 14.9832L8.72602 14.9885ZM7.66034 13.933C7.95324 14.2259 8.42811 14.2259 8.721 13.933L8.72631 13.9277C9.0192 13.6348 9.0192 13.1599 8.72631 12.8671L8.721 12.8618C8.42811 12.5689 7.95324 12.5689 7.66034 12.8618L7.65504 12.8671C7.36215 13.1599 7.36215 13.6348 7.65504 13.9277L7.66034 13.933ZM9.25488 9.95447C9.6691 9.95447 10.0049 10.2903 10.0049 10.7045V10.712C10.0049 11.1262 9.6691 11.462 9.25488 11.462H9.24738C8.83317 11.462 8.49738 11.1262 8.49738 10.712V10.7045C8.49738 10.2903 8.83317 9.95447 9.24738 9.95447H9.25488ZM12.879 13.2341C13.2378 13.027 13.3607 12.5683 13.1536 12.2096L13.1498 12.2031C12.9427 11.8443 12.484 11.7214 12.1253 11.9285L12.1188 11.9323C11.7601 12.1394 11.6372 12.5981 11.8443 12.9568L11.848 12.9633C12.0551 13.322 12.5138 13.4449 12.8726 13.2378L12.879 13.2341ZM11.4996 18.3603C11.1409 18.5674 10.6822 18.4445 10.4751 18.0858L10.4713 18.0793C10.2642 17.7206 10.3871 17.2619 10.7459 17.0548L10.7524 17.051C11.1111 16.8439 11.5698 16.9668 11.7769 17.3255L11.7806 17.332C11.9877 17.6907 11.8648 18.1494 11.5061 18.3565L11.4996 18.3603ZM11.781 11.5843C11.9881 11.2256 11.8652 10.7669 11.5065 10.5598L11.5 10.5561C11.1413 10.349 10.6826 10.4719 10.4755 10.8306L10.4717 10.8371C10.2646 11.1958 10.3875 11.6545 10.7462 11.8616L10.7527 11.8653C11.1115 12.0725 11.5701 11.9495 11.7773 11.5908L11.781 11.5843ZM13.1499 16.7132C12.9428 17.0719 12.4841 17.1948 12.1254 16.9877L12.1189 16.984C11.7602 16.7769 11.6373 16.3182 11.8444 15.9595L11.8481 15.953C12.0552 15.5942 12.5139 15.4713 12.8726 15.6784L12.8791 15.6822C13.2379 15.8893 13.3608 16.348 13.1537 16.7067L13.1499 16.7132ZM13.0049 15.2118C13.4191 15.2118 13.7549 14.876 13.7549 14.4618V14.4543C13.7549 14.0401 13.4191 13.7043 13.0049 13.7043H12.9974C12.5832 13.7043 12.2474 14.0401 12.2474 14.4543V14.4618C12.2474 14.876 12.5832 15.2118 12.9974 15.2118H13.0049ZM9.25488 17.4545C9.6691 17.4545 10.0049 17.7903 10.0049 18.2045V18.212C10.0049 18.6262 9.6691 18.962 9.25488 18.962H9.24738C8.83317 18.962 8.49738 18.6262 8.49738 18.212V18.2045C8.49738 17.7903 8.83317 17.4545 9.24738 17.4545H9.25488ZM6.38393 16.9841C6.74265 16.777 6.86555 16.3183 6.65845 15.9596L6.6547 15.9531C6.44759 15.5943 5.9889 15.4714 5.63018 15.6785L5.62368 15.6823C5.26496 15.8894 5.14206 16.3481 5.34916 16.7068L5.35291 16.7133C5.56002 17.072 6.01871 17.1949 6.37743 16.9878L6.38393 16.9841ZM7.74962 11.8652C7.3909 12.0723 6.9322 11.9494 6.7251 11.5907L6.72135 11.5842C6.51424 11.2254 6.63715 10.7667 6.99587 10.5596L7.00236 10.5559C7.36108 10.3488 7.81977 10.4717 8.02688 10.8304L8.03063 10.8369C8.23774 11.1956 8.11483 11.6543 7.75611 11.8614L7.74962 11.8652ZM8.03101 18.0795C8.23811 17.7207 8.11521 17.262 7.75649 17.0549L7.74999 17.0512C7.39127 16.8441 6.93258 16.967 6.72547 17.3257L6.72172 17.3322C6.51462 17.6909 6.63752 18.1496 6.99624 18.3567L7.00274 18.3605C7.36146 18.5676 7.82015 18.4447 8.02726 18.0859L8.03101 18.0795ZM6.65479 12.9632C6.44768 13.3219 5.98899 13.4448 5.63027 13.2377L5.62377 13.234C5.26505 13.0269 5.14215 12.5682 5.34925 12.2095L5.353 12.203C5.56011 11.8442 6.0188 11.7213 6.37752 11.9284L6.38402 11.9322C6.74274 12.1393 6.86564 12.598 6.65854 12.9567L6.65479 12.9632ZM5.50488 15.2118C5.9191 15.2118 6.25488 14.876 6.25488 14.4618V14.4543C6.25488 14.0401 5.9191 13.7043 5.50488 13.7043H5.49738C5.08317 13.7043 4.74738 14.0401 4.74738 14.4543V14.4618C4.74738 14.876 5.08317 15.2118 5.49738 15.2118H5.50488ZM17.25 10.7045C18.0784 10.7045 18.75 11.376 18.75 12.2045C18.75 13.0329 18.0784 13.7045 17.25 13.7045C16.4216 13.7045 15.75 13.0329 15.75 12.2045C15.75 11.376 16.4216 10.7045 17.25 10.7045ZM18.75 16.7045C18.75 15.876 18.0784 15.2045 17.25 15.2045C16.4216 15.2045 15.75 15.876 15.75 16.7045C15.75 17.5329 16.4216 18.2045 17.25 18.2045C18.0784 18.2045 18.75 17.5329 18.75 16.7045Z" fill="black"/>
</svg>
