<svg width="24" height="25" viewBox="0 0 24 25" fill="none" xmlns="http://www.w3.org/2000/svg">
<path fill-rule="evenodd" clip-rule="evenodd" d="M12 1.70447C10.079 1.70447 8.18374 1.81561 6.32022 2.03188C4.82283 2.20565 3.75 3.49169 3.75 4.96146V21.9545C3.75 22.2033 3.87345 22.436 4.07953 22.5755C4.28561 22.715 4.54748 22.7433 4.77854 22.6508L8.25 21.2622L11.7215 22.6508C11.9003 22.7224 12.0997 22.7224 12.2785 22.6508L15.75 21.2622L19.2215 22.6508C19.4525 22.7433 19.7144 22.715 19.9205 22.5755C20.1266 22.436 20.25 22.2033 20.25 21.9545V4.96145C20.25 3.49169 19.1772 2.20565 17.6798 2.03188C15.8163 1.81561 13.921 1.70447 12 1.70447ZM11.0303 8.2348C11.3232 7.94191 11.3232 7.46703 11.0303 7.17414C10.7374 6.88124 10.2626 6.88124 9.96967 7.17414L7.71967 9.42414C7.42678 9.71703 7.42678 10.1919 7.71967 10.4848L9.96967 12.7348C10.2626 13.0277 10.7374 13.0277 11.0303 12.7348C11.3232 12.4419 11.3232 11.967 11.0303 11.6741L10.0607 10.7045H13.125C14.1605 10.7045 15 11.5439 15 12.5795C15 13.615 14.1605 14.4545 13.125 14.4545H12C11.5858 14.4545 11.25 14.7903 11.25 15.2045C11.25 15.6187 11.5858 15.9545 12 15.9545H13.125C14.989 15.9545 16.5 14.4434 16.5 12.5795C16.5 10.7155 14.989 9.20447 13.125 9.20447H10.0607L11.0303 8.2348Z" fill="black"/>
</svg>
