<svg width="24" height="25" viewBox="0 0 24 25" fill="none" xmlns="http://www.w3.org/2000/svg">
<path fill-rule="evenodd" clip-rule="evenodd" d="M12 1.70447C10.079 1.70447 8.18374 1.81561 6.32022 2.03188C4.82283 2.20565 3.75 3.49169 3.75 4.96146V21.9545C3.75 22.2033 3.87345 22.436 4.07953 22.5755C4.28561 22.715 4.54748 22.7433 4.77854 22.6508L8.25 21.2622L11.7215 22.6508C11.9003 22.7224 12.0997 22.7224 12.2785 22.6508L15.75 21.2622L19.2215 22.6508C19.4525 22.7433 19.7144 22.715 19.9205 22.5755C20.1266 22.436 20.25 22.2033 20.25 21.9545V4.96145C20.25 3.49169 19.1772 2.20565 17.6798 2.03188C15.8163 1.81561 13.921 1.70447 12 1.70447ZM15.5303 8.9848C15.8232 8.69191 15.8232 8.21703 15.5303 7.92414C15.2374 7.63124 14.7626 7.63124 14.4697 7.92414L8.46967 13.9241C8.17678 14.217 8.17678 14.6919 8.46967 14.9848C8.76256 15.2777 9.23744 15.2777 9.53033 14.9848L15.5303 8.9848ZM8.625 9.20447C8.625 8.58315 9.12868 8.07947 9.75 8.07947C10.3713 8.07947 10.875 8.58315 10.875 9.20447C10.875 9.82579 10.3713 10.3295 9.75 10.3295C9.12868 10.3295 8.625 9.82579 8.625 9.20447ZM14.25 12.5795C13.6287 12.5795 13.125 13.0831 13.125 13.7045C13.125 14.3258 13.6287 14.8295 14.25 14.8295C14.8713 14.8295 15.375 14.3258 15.375 13.7045C15.375 13.0831 14.8713 12.5795 14.25 12.5795Z" fill="black"/>
</svg>
