<svg width="24" height="25" viewBox="0 0 24 25" fill="none" xmlns="http://www.w3.org/2000/svg">
<path fill-rule="evenodd" clip-rule="evenodd" d="M1.5 7.32947C1.5 6.29393 2.33947 5.45447 3.375 5.45447H9.375C10.4105 5.45447 11.25 6.29393 11.25 7.32947V11.0795C11.25 12.115 10.4105 12.9545 9.375 12.9545H3.375C2.33947 12.9545 1.5 12.115 1.5 11.0795V7.32947ZM13.5 8.82947C13.5 7.79393 14.3395 6.95447 15.375 6.95447H20.625C21.6605 6.95447 22.5 7.79393 22.5 8.82947V17.0795C22.5 18.115 21.6605 18.9545 20.625 18.9545H15.375C14.3395 18.9545 13.5 18.115 13.5 17.0795V8.82947ZM3 16.3295C3 15.2939 3.83947 14.4545 4.875 14.4545H10.125C11.1605 14.4545 12 15.2939 12 16.3295V18.5795C12 19.615 11.1605 20.4545 10.125 20.4545H4.875C3.83947 20.4545 3 19.615 3 18.5795V16.3295Z" fill="black"/>
</svg>
