<svg width="24" height="25" viewBox="0 0 24 25" fill="none" xmlns="http://www.w3.org/2000/svg">
<path d="M5.56641 4.8617C5.9435 4.75918 6.34029 4.70447 6.74986 4.70447H17.2499C17.6594 4.70447 18.0562 4.75919 18.4333 4.86171C17.9406 3.87901 16.924 3.20447 15.7499 3.20447H8.24986C7.0757 3.20447 6.0591 3.879 5.56641 4.8617Z" fill="black"/>
<path d="M2.25 12.2045C2.25 10.5476 3.59315 9.20447 5.25 9.20447H18.75C20.4069 9.20447 21.75 10.5476 21.75 12.2045V18.2045C21.75 19.8613 20.4069 21.2045 18.75 21.2045H5.25C3.59315 21.2045 2.25 19.8613 2.25 18.2045V12.2045Z" fill="black"/>
<path d="M5.24986 7.70447C4.84029 7.70447 4.4435 7.75918 4.06641 7.8617C4.5591 6.879 5.5757 6.20447 6.74986 6.20447H17.2499C18.424 6.20447 19.4406 6.879 19.9333 7.86171C19.5562 7.75919 19.1594 7.70447 18.7499 7.70447H5.24986Z" fill="black"/>
</svg>
