<svg width="24" height="25" viewBox="0 0 24 25" fill="none" xmlns="http://www.w3.org/2000/svg">
<path fill-rule="evenodd" clip-rule="evenodd" d="M9.315 7.78812C12.1956 4.08742 16.6946 1.70468 21.75 1.70447C21.9489 1.70446 22.1397 1.78347 22.2803 1.92413C22.421 2.06478 22.5 2.25555 22.5 2.45447C22.5 7.51011 20.1173 12.0095 16.4165 14.8903C16.4715 15.2373 16.5 15.5928 16.5 15.9545C16.5 19.6824 13.4779 22.7045 9.75 22.7045C9.33579 22.7045 9 22.3687 9 21.9545V17.8229C8.99075 17.8163 8.98163 17.8094 8.97264 17.8022C8.02063 17.0474 7.15799 16.1847 6.40312 15.2327C6.39577 15.2234 6.38866 15.214 6.38179 15.2045H2.25C1.83579 15.2045 1.5 14.8687 1.5 14.4545C1.5 10.7265 4.52208 7.70447 8.25 7.70447C8.61198 7.70447 8.96772 7.73303 9.315 7.78812ZM15 6.95447C13.7574 6.95447 12.75 7.96183 12.75 9.20447C12.75 10.4471 13.7574 11.4545 15 11.4545C16.2426 11.4545 17.25 10.4471 17.25 9.20447C17.25 7.96183 16.2426 6.95447 15 6.95447Z" fill="black"/>
<path d="M5.26036 17.4463C5.59237 17.1986 5.66074 16.7287 5.41306 16.3967C5.16539 16.0647 4.69546 15.9963 4.36345 16.244C3.08209 17.1999 2.25 18.7301 2.25 20.4544C2.25 20.7299 2.27129 21.001 2.31246 21.266C2.36259 21.5886 2.61574 21.8418 2.93842 21.8919C3.20336 21.9331 3.47445 21.9544 3.75 21.9544C5.47434 21.9544 7.00452 21.1223 7.9604 19.8409C8.20808 19.5089 8.13971 19.039 7.8077 18.7913C7.47569 18.5436 7.00576 18.612 6.75809 18.944C6.07313 19.8622 4.98081 20.4544 3.75 20.4544C3.75 19.2236 4.34218 18.1313 5.26036 17.4463Z" fill="black"/>
</svg>
