<svg width="24" height="25" viewBox="0 0 24 25" fill="none" xmlns="http://www.w3.org/2000/svg">
<path fill-rule="evenodd" clip-rule="evenodd" d="M3.75 4.70447C3.75 4.29025 4.08579 3.95447 4.5 3.95447H5.25C13.5343 3.95447 20.25 10.6702 20.25 18.9545V19.7045C20.25 20.1187 19.9142 20.4545 19.5 20.4545H18.75C18.3358 20.4545 18 20.1187 18 19.7045V18.9545C18 11.9128 12.2916 6.20447 5.25 6.20447H4.5C4.08579 6.20447 3.75 5.86868 3.75 5.45447V4.70447ZM3.75 11.4545C3.75 11.0403 4.08579 10.7045 4.5 10.7045H5.25C9.80635 10.7045 13.5 14.3981 13.5 18.9545V19.7045C13.5 20.1187 13.1642 20.4545 12.75 20.4545H12C11.5858 20.4545 11.25 20.1187 11.25 19.7045V18.9545C11.25 15.6408 8.56371 12.9545 5.25 12.9545H4.5C4.08579 12.9545 3.75 12.6187 3.75 12.2045V11.4545ZM3.75 18.9545C3.75 18.126 4.42157 17.4545 5.25 17.4545C6.07843 17.4545 6.75 18.126 6.75 18.9545C6.75 19.7829 6.07843 20.4545 5.25 20.4545C4.42157 20.4545 3.75 19.7829 3.75 18.9545Z" fill="black"/>
</svg>
