<svg width="24" height="25" viewBox="0 0 24 25" fill="none" xmlns="http://www.w3.org/2000/svg">
<path fill-rule="evenodd" clip-rule="evenodd" d="M12 2.45447C12.4142 2.45447 12.75 2.79025 12.75 3.20447V3.96012C14.8183 3.99132 16.8558 4.15137 18.8546 4.43268C19.8808 4.57711 20.8968 4.7535 21.9016 4.96081C22.2784 5.03855 22.5352 5.38878 22.4962 5.77151C22.4571 6.15424 22.1348 6.44534 21.75 6.44534H19.8324L22.306 16.5699C22.3872 16.9023 22.2331 17.2476 21.9313 17.4091C20.9827 17.9169 19.8988 18.2045 18.75 18.2045C17.6012 18.2045 16.5174 17.9169 15.5688 17.4091C15.267 17.2476 15.1129 16.9023 15.1941 16.5699L17.6677 6.44534H12.75V19.7262C14.0425 19.8013 15.2843 20.069 16.4466 20.5016C16.7867 20.6282 16.9874 20.9802 16.9231 21.3374C16.8588 21.6946 16.5479 21.9545 16.185 21.9545H7.81465C7.4517 21.9545 7.14083 21.6946 7.07652 21.3374C7.0122 20.9802 7.2129 20.6282 7.55305 20.5016C8.71543 20.069 9.9574 19.8012 11.25 19.7262V6.44534H6.33238L8.80598 16.5699C8.88721 16.9023 8.73307 17.2476 8.43134 17.4091C7.48271 17.9169 6.39885 18.2045 5.25004 18.2045C4.10124 18.2045 3.01738 17.9169 2.06875 17.4091C1.76702 17.2476 1.61288 16.9023 1.69411 16.5699L4.16771 6.44534H2.25004C1.86532 6.44534 1.54299 6.15424 1.50392 5.77151C1.46485 5.38878 1.7217 5.03855 2.09849 4.96081C3.10325 4.7535 4.11928 4.57711 5.14552 4.43268C7.14429 4.15138 9.18169 3.99133 11.25 3.96012V3.20447C11.25 2.79025 11.5858 2.45447 12 2.45447ZM16.878 15.9979L18.75 8.33543L20.6221 15.9979H16.878ZM7.12211 15.9979L5.25004 8.33543L3.37797 15.9979H7.12211Z" fill="black"/>
</svg>
