<svg width="24" height="25" viewBox="0 0 24 25" fill="none" xmlns="http://www.w3.org/2000/svg">
<path fill-rule="evenodd" clip-rule="evenodd" d="M8.12833 9.35912C6.98188 10.7348 4.97858 11.1281 3.37489 10.2022C1.5813 9.16667 0.966765 6.8732 2.0023 5.07961C3.03783 3.28601 5.3313 2.67148 7.12489 3.70701C8.66319 4.59515 9.33419 6.40859 8.84075 8.03838L9.97714 8.69448C10.1638 8.80222 10.295 8.98503 10.3374 9.19629C10.3799 9.40755 10.3294 9.62687 10.1989 9.79832L10.1933 9.80567C9.94809 10.1277 9.49126 10.1976 9.16144 9.96292C9.12519 9.93713 9.08749 9.91289 9.04842 9.89033L8.12833 9.35912ZM3.30134 5.82961C3.92266 4.75345 5.29874 4.38473 6.37489 5.00605C7.3896 5.59189 7.77536 6.84876 7.29525 7.89253C7.27427 7.91951 7.25489 7.94824 7.23732 7.97867C7.21056 8.02503 7.1893 8.07307 7.17336 8.12201C6.54071 9.16536 5.18679 9.51625 4.12489 8.90316C3.04874 8.28184 2.68002 6.90576 3.30134 5.82961Z" fill="black"/>
<path fill-rule="evenodd" clip-rule="evenodd" d="M13.3484 8.47613C12.3744 8.77401 11.5401 9.34687 10.9215 10.0941C10.4538 10.659 10.109 11.3241 9.91984 12.0464C9.81853 12.4333 9.76198 12.8362 9.75505 13.2483C9.74669 13.7452 9.47822 14.2013 9.04782 14.4498L8.08883 15.0035C6.93631 13.6656 4.96032 13.2917 3.37489 14.207C1.5813 15.2425 0.966765 17.536 2.0023 19.3296C3.03783 21.1232 5.3313 21.7377 7.12489 20.7022C8.68172 19.8034 9.35023 17.9568 8.8224 16.312L22.5507 8.38598C22.8134 8.2343 22.9588 7.93931 22.9193 7.63856C22.8797 7.33781 22.6628 7.09052 22.3698 7.01201L21.5674 6.797C20.6169 6.54234 19.6141 6.55989 18.6731 6.84766L13.3484 8.47613ZM4.12489 15.506C3.04874 16.1274 2.68002 17.5034 3.30134 18.5796C3.92266 19.6558 5.29874 20.0245 6.37489 19.4032C7.45105 18.7818 7.81977 17.4058 7.19845 16.3296C6.57713 15.2534 5.20105 14.8847 4.12489 15.506ZM12 12.9544C12.4142 12.9544 12.75 12.6187 12.75 12.2044C12.75 11.7902 12.4142 11.4544 12 11.4544C11.5858 11.4544 11.25 11.7902 11.25 12.2044C11.25 12.6187 11.5858 12.9544 12 12.9544Z" fill="black"/>
<path d="M16.3718 12.8194C16.6038 12.6855 16.8897 12.6855 17.1218 12.8194L22.5513 15.9542C22.814 16.1058 22.9594 16.4008 22.9198 16.7016C22.8803 17.0023 22.6634 17.2496 22.3704 17.3281L21.5679 17.5431C20.6175 17.7978 19.6147 17.7802 18.6737 17.4925L13.5271 15.9184C13.2415 15.8311 13.035 15.5828 13.0012 15.2861C12.9674 14.9895 13.1128 14.701 13.3714 14.5517L16.3718 12.8194Z" fill="black"/>
</svg>
