<svg width="24" height="25" viewBox="0 0 24 25" fill="none" xmlns="http://www.w3.org/2000/svg">
<path d="M5.50701 4.25209C6.07695 3.58716 6.909 3.20447 7.78478 3.20447H16.2151C17.0908 3.20447 17.9229 3.58716 18.4928 4.25209L20.2147 6.26092C19.9819 6.22377 19.7432 6.20447 19.4999 6.20447H4.49992C4.25668 6.20447 4.01794 6.22377 3.78516 6.26092L5.50701 4.25209Z" fill="black"/>
<path fill-rule="evenodd" clip-rule="evenodd" d="M1.5 10.7045C1.5 9.04761 2.84315 7.70447 4.5 7.70447H19.5C21.1569 7.70447 22.5 9.04761 22.5 10.7045C22.5 12.3613 21.1569 13.7045 19.5 13.7045H4.5C2.84315 13.7045 1.5 12.3613 1.5 10.7045ZM16.5 10.7045C16.5 11.1187 16.1642 11.4545 15.75 11.4545C15.3358 11.4545 15 11.1187 15 10.7045C15 10.2903 15.3358 9.95447 15.75 9.95447C16.1642 9.95447 16.5 10.2903 16.5 10.7045ZM18.75 11.4545C19.1642 11.4545 19.5 11.1187 19.5 10.7045C19.5 10.2903 19.1642 9.95447 18.75 9.95447C18.3358 9.95447 18 10.2903 18 10.7045C18 11.1187 18.3358 11.4545 18.75 11.4545Z" fill="black"/>
<path fill-rule="evenodd" clip-rule="evenodd" d="M4.5 15.2045C2.84315 15.2045 1.5 16.5476 1.5 18.2045C1.5 19.8613 2.84315 21.2045 4.5 21.2045H19.5C21.1569 21.2045 22.5 19.8613 22.5 18.2045C22.5 16.5476 21.1569 15.2045 19.5 15.2045H4.5ZM15.75 18.9545C16.1642 18.9545 16.5 18.6187 16.5 18.2045C16.5 17.7903 16.1642 17.4545 15.75 17.4545C15.3358 17.4545 15 17.7903 15 18.2045C15 18.6187 15.3358 18.9545 15.75 18.9545ZM19.5 18.2045C19.5 18.6187 19.1642 18.9545 18.75 18.9545C18.3358 18.9545 18 18.6187 18 18.2045C18 17.7903 18.3358 17.4545 18.75 17.4545C19.1642 17.4545 19.5 17.7903 19.5 18.2045Z" fill="black"/>
</svg>
