<svg width="24" height="25" viewBox="0 0 24 25" fill="none" xmlns="http://www.w3.org/2000/svg">
<path d="M4.07993 5.43148C4.43013 4.11822 5.61948 3.20447 6.97863 3.20447H17.0214C18.3805 3.20447 19.5699 4.11822 19.9201 5.43148L22.0338 13.358C21.1346 12.6363 19.9927 12.2045 18.75 12.2045H5.25C4.00727 12.2045 2.86538 12.6363 1.96619 13.358L4.07993 5.43148Z" fill="black"/>
<path fill-rule="evenodd" clip-rule="evenodd" d="M5.25 13.7045C3.17893 13.7045 1.5 15.3834 1.5 17.4545C1.5 19.5255 3.17893 21.2045 5.25 21.2045H18.75C20.8211 21.2045 22.5 19.5255 22.5 17.4545C22.5 15.3834 20.8211 13.7045 18.75 13.7045H5.25ZM15.75 18.2045C16.1642 18.2045 16.5 17.8687 16.5 17.4545C16.5 17.0403 16.1642 16.7045 15.75 16.7045C15.3358 16.7045 15 17.0403 15 17.4545C15 17.8687 15.3358 18.2045 15.75 18.2045ZM19.5 17.4545C19.5 17.8687 19.1642 18.2045 18.75 18.2045C18.3358 18.2045 18 17.8687 18 17.4545C18 17.0403 18.3358 16.7045 18.75 16.7045C19.1642 16.7045 19.5 17.0403 19.5 17.4545Z" fill="black"/>
</svg>
