<svg width="24" height="25" viewBox="0 0 24 25" fill="none" xmlns="http://www.w3.org/2000/svg">
<path fill-rule="evenodd" clip-rule="evenodd" d="M15.75 4.70447C15.75 3.04761 17.0931 1.70447 18.75 1.70447C20.4069 1.70447 21.75 3.04761 21.75 4.70447C21.75 6.36132 20.4069 7.70447 18.75 7.70447C17.8933 7.70447 17.1212 7.34521 16.5751 6.7707L8.15392 11.4491C8.21665 11.6908 8.25 11.944 8.25 12.2045C8.25 12.4649 8.21665 12.7181 8.15392 12.9598L16.5751 17.6382C17.1212 17.0637 17.8933 16.7045 18.75 16.7045C20.4069 16.7045 21.75 18.0476 21.75 19.7045C21.75 21.3613 20.4069 22.7045 18.75 22.7045C17.0931 22.7045 15.75 21.3613 15.75 19.7045C15.75 19.444 15.7833 19.1908 15.8461 18.9491L7.42488 14.2707C6.87885 14.8452 6.10667 15.2045 5.25 15.2045C3.59315 15.2045 2.25 13.8613 2.25 12.2045C2.25 10.5476 3.59315 9.20447 5.25 9.20447C6.10667 9.20447 6.87885 9.56372 7.42488 10.1382L15.8461 5.45979C15.7833 5.21813 15.75 4.96492 15.75 4.70447Z" fill="black"/>
</svg>
