<svg width="24" height="25" viewBox="0 0 24 25" fill="none" xmlns="http://www.w3.org/2000/svg">
<path fill-rule="evenodd" clip-rule="evenodd" d="M11.4843 2.37415C11.7735 2.10022 12.2265 2.10022 12.5157 2.37415C14.5325 4.28412 17.2538 5.45445 20.25 5.45445C20.2977 5.45445 20.3453 5.45416 20.3928 5.45357C20.7202 5.4495 21.0123 5.65825 21.1146 5.96926C21.5271 7.22402 21.75 8.56398 21.75 9.9545C21.75 15.8965 17.6859 20.8874 12.1869 22.3028C12.0643 22.3343 11.9357 22.3343 11.8131 22.3028C6.31406 20.8874 2.25 15.8965 2.25 9.9545C2.25 8.56398 2.47287 7.22402 2.88541 5.96926C2.98767 5.65825 3.27984 5.4495 3.60721 5.45357C3.65473 5.45416 3.70233 5.45445 3.75 5.45445C6.74624 5.45445 9.46752 4.28412 11.4843 2.37415ZM12 8.45444C12.4142 8.45444 12.75 8.79022 12.75 9.20444V12.9544C12.75 13.3687 12.4142 13.7044 12 13.7044C11.5858 13.7044 11.25 13.3687 11.25 12.9544V9.20444C11.25 8.79022 11.5858 8.45444 12 8.45444ZM12 15.2044C11.5858 15.2044 11.25 15.5402 11.25 15.9544V15.9619C11.25 16.3762 11.5858 16.7119 12 16.7119H12.0075C12.4217 16.7119 12.7575 16.3762 12.7575 15.9619V15.9544C12.7575 15.5402 12.4217 15.2044 12.0075 15.2044H12Z" fill="black"/>
</svg>
