<svg width="24" height="25" viewBox="0 0 24 25" fill="none" xmlns="http://www.w3.org/2000/svg">
<path fill-rule="evenodd" clip-rule="evenodd" d="M12.5157 2.37427C12.2265 2.10034 11.7735 2.10034 11.4843 2.37427C9.46752 4.28424 6.74624 5.45457 3.75 5.45457C3.70233 5.45457 3.65473 5.45428 3.60721 5.45369C3.27984 5.44962 2.98767 5.65837 2.88541 5.96938C2.47287 7.22414 2.25 8.5641 2.25 9.95462C2.25 15.8966 6.31406 20.8876 11.8131 22.3029C11.9357 22.3345 12.0643 22.3345 12.1869 22.3029C17.6859 20.8876 21.75 15.8966 21.75 9.95462C21.75 8.5641 21.5271 7.22414 21.1146 5.96938C21.0123 5.65837 20.7202 5.44962 20.3928 5.45369C20.3453 5.45428 20.2977 5.45457 20.25 5.45457C17.2538 5.45457 14.5325 4.28424 12.5157 2.37427ZM15.6103 10.3904C15.8511 10.0533 15.773 9.58492 15.4359 9.34417C15.0989 9.10341 14.6305 9.18148 14.3897 9.51854L11.1543 14.0481L9.53033 12.4241C9.23744 12.1312 8.76256 12.1312 8.46967 12.4241C8.17678 12.717 8.17678 13.1919 8.46967 13.4848L10.7197 15.7348C10.8756 15.8907 11.0921 15.9701 11.3119 15.9519C11.5316 15.9337 11.7322 15.8198 11.8603 15.6404L15.6103 10.3904Z" fill="black"/>
</svg>
