<svg width="24" height="25" viewBox="0 0 24 25" fill="none" xmlns="http://www.w3.org/2000/svg">
<path d="M2.25 2.45447C1.83579 2.45447 1.5 2.79025 1.5 3.20447C1.5 3.61868 1.83579 3.95447 2.25 3.95447H3.63568C3.80558 3.95447 3.95425 4.06869 3.99803 4.23284L6.55576 13.8244C4.94178 14.243 3.75 15.7095 3.75 17.4545C3.75 17.8687 4.08579 18.2045 4.5 18.2045H20.25C20.6642 18.2045 21 17.8687 21 17.4545C21 17.0403 20.6642 16.7045 20.25 16.7045H5.37803C5.68691 15.8306 6.52034 15.2045 7.5 15.2045H18.7183C19.0051 15.2045 19.2668 15.0409 19.3925 14.783C20.5277 12.4535 21.5183 10.0405 22.3527 7.55573C22.4191 7.35804 22.4002 7.14163 22.3005 6.95846C22.2008 6.77529 22.0294 6.64189 21.8273 6.59029C17.0055 5.35889 11.9536 4.70447 6.75 4.70447C6.39217 4.70447 6.03505 4.70756 5.67868 4.71373L5.44738 3.84635C5.2285 3.02556 4.48515 2.45447 3.63568 2.45447H2.25Z" fill="black"/>
<path d="M3.75 20.4545C3.75 19.626 4.42157 18.9545 5.25 18.9545C6.07843 18.9545 6.75 19.626 6.75 20.4545C6.75 21.2829 6.07843 21.9545 5.25 21.9545C4.42157 21.9545 3.75 21.2829 3.75 20.4545Z" fill="black"/>
<path d="M16.5 20.4545C16.5 19.626 17.1716 18.9545 18 18.9545C18.8284 18.9545 19.5 19.626 19.5 20.4545C19.5 21.2829 18.8284 21.9545 18 21.9545C17.1716 21.9545 16.5 21.2829 16.5 20.4545Z" fill="black"/>
</svg>
