<svg width="24" height="25" viewBox="0 0 24 25" fill="none" xmlns="http://www.w3.org/2000/svg">
<path fill-rule="evenodd" clip-rule="evenodd" d="M7.5 6.20447V6.95447H5.51287C4.55332 6.95447 3.74862 7.67891 3.64817 8.63318L2.38502 20.6332C2.26848 21.7403 3.13652 22.7045 4.24971 22.7045H19.7504C20.8636 22.7045 21.7317 21.7403 21.6151 20.6332L20.352 8.63318C20.2515 7.67891 19.4468 6.95447 18.4873 6.95447H16.5V6.20447C16.5 3.71919 14.4853 1.70447 12 1.70447C9.51472 1.70447 7.5 3.71919 7.5 6.20447ZM12 3.20447C10.3431 3.20447 9 4.54761 9 6.20447V6.95447H15V6.20447C15 4.54761 13.6569 3.20447 12 3.20447ZM9 11.4545C9 13.1113 10.3431 14.4545 12 14.4545C13.6569 14.4545 15 13.1113 15 11.4545V10.7045C15 10.2903 15.3358 9.95447 15.75 9.95447C16.1642 9.95447 16.5 10.2903 16.5 10.7045V11.4545C16.5 13.9397 14.4853 15.9545 12 15.9545C9.51472 15.9545 7.5 13.9397 7.5 11.4545V10.7045C7.5 10.2903 7.83579 9.95447 8.25 9.95447C8.66421 9.95447 9 10.2903 9 10.7045V11.4545Z" fill="black"/>
</svg>
