<svg width="24" height="25" viewBox="0 0 24 25" fill="none" xmlns="http://www.w3.org/2000/svg">
<path fill-rule="evenodd" clip-rule="evenodd" d="M5.63604 4.77985C5.92893 5.07274 5.92893 5.54762 5.63604 5.84051C2.12132 9.35523 2.12132 15.0537 5.63604 18.5684C5.92893 18.8613 5.92893 19.3362 5.63604 19.6291C5.34315 19.922 4.86827 19.922 4.57538 19.6291C0.474874 15.5286 0.474873 8.88036 4.57538 4.77985C4.86827 4.48696 5.34315 4.48696 5.63604 4.77985ZM18.364 4.77985C18.6569 4.48696 19.1317 4.48696 19.4246 4.77985C23.5251 8.88036 23.5251 15.5286 19.4246 19.6291C19.1317 19.922 18.6569 19.922 18.364 19.6291C18.0711 19.3362 18.0711 18.8613 18.364 18.5684C21.8787 15.0537 21.8787 9.35523 18.364 5.84051C18.0711 5.54762 18.0711 5.07274 18.364 4.77985ZM7.75736 6.90117C8.05025 7.19406 8.05025 7.66894 7.75736 7.96183C5.41421 10.305 5.41421 14.104 7.75736 16.4471C8.05025 16.74 8.05025 17.2149 7.75736 17.5078C7.46447 17.8007 6.98959 17.8007 6.6967 17.5078C3.76777 14.5788 3.76777 9.8301 6.6967 6.90117C6.98959 6.60828 7.46447 6.60828 7.75736 6.90117ZM16.2426 6.90117C16.5355 6.60828 17.0104 6.60828 17.3033 6.90117C20.2322 9.8301 20.2322 14.5788 17.3033 17.5078C17.0104 17.8007 16.5355 17.8007 16.2426 17.5078C15.9497 17.2149 15.9497 16.74 16.2426 16.4471C18.5858 14.104 18.5858 10.305 16.2426 7.96183C15.9497 7.66894 15.9497 7.19406 16.2426 6.90117ZM9.87868 9.02249C10.1716 9.31538 10.1716 9.79026 9.87868 10.0832C8.70711 11.2547 8.70711 13.1542 9.87868 14.3258C10.1716 14.6187 10.1716 15.0936 9.87868 15.3865C9.58579 15.6793 9.11091 15.6793 8.81802 15.3865C7.06066 13.6291 7.06066 10.7799 8.81802 9.02249C9.11091 8.7296 9.58579 8.7296 9.87868 9.02249ZM14.1213 9.02249C14.4142 8.7296 14.8891 8.7296 15.182 9.02249C16.9393 10.7799 16.9393 13.6291 15.182 15.3865C14.8891 15.6793 14.4142 15.6793 14.1213 15.3865C13.8284 15.0936 13.8284 14.6187 14.1213 14.3258C15.2929 13.1542 15.2929 11.2547 14.1213 10.0832C13.8284 9.79026 13.8284 9.31538 14.1213 9.02249ZM10.875 12.2045C10.875 11.5832 11.3787 11.0795 12 11.0795C12.6213 11.0795 13.125 11.5832 13.125 12.2045C13.125 12.8258 12.6213 13.3295 12 13.3295C11.3787 13.3295 10.875 12.8258 10.875 12.2045Z" fill="black"/>
</svg>
