<svg width="24" height="25" viewBox="0 0 24 25" fill="none" xmlns="http://www.w3.org/2000/svg">
<path fill-rule="evenodd" clip-rule="evenodd" d="M2.46968 2.67414C2.76257 2.38124 3.23744 2.38124 3.53034 2.67414L11.9374 11.0812C11.9581 11.08 11.979 11.0795 12 11.0795C12.6213 11.0795 13.125 11.5831 13.125 12.2045C13.125 12.2255 13.1244 12.2464 13.1233 12.2671L14.5848 13.7286C15.2643 12.5782 15.1098 11.0716 14.1213 10.0831C13.8284 9.79025 13.8284 9.31538 14.1213 9.02249C14.4142 8.72959 14.8891 8.72959 15.182 9.02249C16.7587 10.5992 16.9208 13.0547 15.6683 14.8121L16.7402 15.884C18.572 13.5301 18.4062 10.1254 16.2426 7.96183C15.9498 7.66893 15.9498 7.19406 16.2426 6.90117C16.5355 6.60827 17.0104 6.60827 17.3033 6.90117C20.0533 9.65111 20.2213 14.0052 17.8075 16.9513L18.8725 18.0163C21.8696 14.4802 21.7001 9.17664 18.364 5.84051C18.0711 5.54761 18.0711 5.07274 18.364 4.77985C18.6569 4.48695 19.1317 4.48695 19.4246 4.77985C23.3468 8.70204 23.5174 14.9552 19.9363 19.0801L21.5303 20.6741C21.8232 20.967 21.8232 21.4419 21.5303 21.7348C21.2374 22.0277 20.7626 22.0277 20.4697 21.7348L18.3644 19.6295L16.2426 17.5078L16.242 17.5072L11.5366 12.8017C11.4896 12.7648 11.4472 12.7223 11.4103 12.6754L2.46968 3.7348C2.17678 3.4419 2.17678 2.96703 2.46968 2.67414ZM3.65854 7.09634C4.02729 7.28501 4.17326 7.73689 3.98459 8.10564C2.25352 11.4889 2.80534 15.7377 5.63605 18.5684C5.92894 18.8613 5.92894 19.3362 5.63605 19.6291C5.34315 19.922 4.86828 19.922 4.57539 19.6291C1.27115 16.3248 0.630437 11.3679 2.64924 7.42239C2.83791 7.05364 3.28979 6.90766 3.65854 7.09634ZM5.84076 9.33802C6.23339 9.46996 6.44473 9.89522 6.31278 10.2879C5.6094 12.381 6.09233 14.7821 7.75737 16.4471C8.05026 16.74 8.05026 17.2149 7.75737 17.5078C7.46447 17.8007 6.9896 17.8007 6.69671 17.5078C4.61367 15.4247 4.01314 12.4221 4.89092 9.81005C5.02286 9.41741 5.44812 9.20608 5.84076 9.33802ZM8.182 11.992C8.5921 11.9338 8.97176 12.219 9.02999 12.6291C9.11816 13.25 9.40043 13.8475 9.87869 14.3258C10.1716 14.6187 10.1716 15.0936 9.87869 15.3864C9.58579 15.6793 9.11092 15.6793 8.81803 15.3864C8.10217 14.6706 7.67717 13.7715 7.54489 12.84C7.48666 12.4299 7.7719 12.0502 8.182 11.992Z" fill="black"/>
</svg>
