<svg width="24" height="25" viewBox="0 0 24 25" fill="none" xmlns="http://www.w3.org/2000/svg">
<path fill-rule="evenodd" clip-rule="evenodd" d="M9 4.70447C9.33486 4.70447 9.62915 4.92645 9.72114 5.24843L10.5343 8.09462C10.8903 9.3404 11.8641 10.3142 13.1099 10.6701L15.956 11.4833C16.278 11.5753 16.5 11.8696 16.5 12.2045C16.5 12.5393 16.278 12.8336 15.956 12.9256L13.1098 13.7388C11.8641 14.0947 10.8903 15.0685 10.5343 16.3143L9.72114 19.1605C9.62915 19.4825 9.33486 19.7045 9 19.7045C8.66514 19.7045 8.37085 19.4825 8.27886 19.1605L7.46566 16.3143C7.10972 15.0685 6.13593 14.0947 4.89015 13.7388L2.04396 12.9256C1.72198 12.8336 1.5 12.5393 1.5 12.2045C1.5 11.8696 1.72198 11.5753 2.04396 11.4833L4.89015 10.6701C6.13593 10.3142 7.10972 9.34039 7.46566 8.09462L8.27886 5.24843C8.37085 4.92645 8.66514 4.70447 9 4.70447Z" fill="black"/>
<path fill-rule="evenodd" clip-rule="evenodd" d="M18 1.70447C18.3442 1.70447 18.6441 1.93869 18.7276 2.27257L18.9865 3.30803C19.2216 4.24853 19.9559 4.98287 20.8964 5.218L21.9319 5.47686C22.2658 5.56033 22.5 5.86032 22.5 6.20447C22.5 6.54862 22.2658 6.84861 21.9319 6.93207L20.8964 7.19094C19.9559 7.42606 19.2216 8.16041 18.9865 9.10091L18.7276 10.1364C18.6441 10.4702 18.3442 10.7045 18 10.7045C17.6558 10.7045 17.3559 10.4702 17.2724 10.1364L17.0135 9.10091C16.7784 8.16041 16.0441 7.42606 15.1036 7.19094L14.0681 6.93207C13.7342 6.84861 13.5 6.54862 13.5 6.20447C13.5 5.86032 13.7342 5.56033 14.0681 5.47686L15.1036 5.218C16.0441 4.98287 16.7784 4.24853 17.0135 3.30803L17.2724 2.27257C17.3559 1.93869 17.6558 1.70447 18 1.70447Z" fill="black"/>
<path fill-rule="evenodd" clip-rule="evenodd" d="M16.5 15.2045C16.8228 15.2045 17.1094 15.411 17.2115 15.7173L17.6058 16.9C17.7551 17.3479 18.1065 17.6994 18.5544 17.8487L19.7372 18.243C20.0434 18.345 20.25 18.6316 20.25 18.9545C20.25 19.2773 20.0434 19.5639 19.7372 19.666L18.5544 20.0602C18.1065 20.2095 17.7551 20.561 17.6058 21.0089L17.2115 22.1916C17.1094 22.4979 16.8228 22.7045 16.5 22.7045C16.1772 22.7045 15.8906 22.4979 15.7885 22.1916L15.3942 21.0089C15.2449 20.561 14.8935 20.2095 14.4456 20.0602L13.2628 19.666C12.9566 19.5639 12.75 19.2773 12.75 18.9545C12.75 18.6316 12.9566 18.345 13.2628 18.243L14.4456 17.8487C14.8935 17.6994 15.2449 17.3479 15.3942 16.9L15.7885 15.7173C15.8906 15.411 16.1772 15.2045 16.5 15.2045Z" fill="black"/>
</svg>
