<svg width="24" height="25" viewBox="0 0 24 25" fill="none" xmlns="http://www.w3.org/2000/svg">
<path d="M13.5 4.26509C13.5 2.92874 11.8843 2.25948 10.9393 3.20443L6.43934 7.70443H4.50905C3.36772 7.70443 2.19106 8.36887 1.8493 9.60949C1.62147 10.4366 1.5 11.3069 1.5 12.2044C1.5 13.102 1.62147 13.9723 1.8493 14.7994C2.19106 16.04 3.36772 16.7044 4.50905 16.7044H6.43934L10.9393 21.2044C11.8843 22.1494 13.5 21.4801 13.5 20.1438V4.26509Z" fill="black"/>
<path d="M17.7803 9.42409C17.4874 9.1312 17.0126 9.1312 16.7197 9.42409C16.4268 9.71698 16.4268 10.1919 16.7197 10.4848L18.4393 12.2044L16.7197 13.9241C16.4268 14.217 16.4268 14.6919 16.7197 14.9848C17.0126 15.2776 17.4874 15.2776 17.7803 14.9848L19.5 13.2651L21.2197 14.9848C21.5126 15.2776 21.9874 15.2776 22.2803 14.9848C22.5732 14.6919 22.5732 14.217 22.2803 13.9241L20.5607 12.2044L22.2803 10.4848C22.5732 10.1919 22.5732 9.71698 22.2803 9.42409C21.9874 9.1312 21.5126 9.1312 21.2197 9.42409L19.5 11.1438L17.7803 9.42409Z" fill="black"/>
</svg>
