<svg width="24" height="25" viewBox="0 0 24 25" fill="none" xmlns="http://www.w3.org/2000/svg">
<path d="M13.5 4.26509C13.5 2.92874 11.8843 2.25948 10.9393 3.20443L6.43934 7.70443H4.50905C3.36772 7.70443 2.19106 8.36887 1.8493 9.60949C1.62147 10.4366 1.5 11.3069 1.5 12.2044C1.5 13.102 1.62147 13.9723 1.8493 14.7994C2.19106 16.04 3.36772 16.7044 4.50905 16.7044H6.43934L10.9393 21.2044C11.8843 22.1494 13.5 21.4801 13.5 20.1438V4.26509Z" fill="black"/>
<path d="M18.5837 5.31008C18.8766 5.01718 19.3514 5.01718 19.6443 5.31008C23.452 9.11769 23.452 15.291 19.6443 19.0987C19.3514 19.3916 18.8766 19.3916 18.5837 19.0987C18.2908 18.8058 18.2908 18.3309 18.5837 18.038C21.8055 14.8162 21.8055 9.59256 18.5837 6.37074C18.2908 6.07784 18.2908 5.60297 18.5837 5.31008Z" fill="black"/>
<path d="M15.9323 7.96181C16.2252 7.66892 16.7001 7.66892 16.993 7.96181C19.3361 10.305 19.3361 14.1039 16.993 16.4471C16.7001 16.74 16.2252 16.74 15.9323 16.4471C15.6394 16.1542 15.6394 15.6793 15.9323 15.3864C17.6897 13.6291 17.6897 10.7798 15.9323 9.02247C15.6394 8.72958 15.6394 8.2547 15.9323 7.96181Z" fill="black"/>
</svg>
