<svg width="24" height="25" viewBox="0 0 24 25" fill="none" xmlns="http://www.w3.org/2000/svg">
<path fill-rule="evenodd" clip-rule="evenodd" d="M3 6.20447C3 4.54761 4.34315 3.20447 6 3.20447H8.25C9.90685 3.20447 11.25 4.54761 11.25 6.20447V8.45447C11.25 10.1113 9.90685 11.4545 8.25 11.4545H6C4.34315 11.4545 3 10.1113 3 8.45447V6.20447ZM12.75 6.20447C12.75 4.54761 14.0931 3.20447 15.75 3.20447H18C19.6569 3.20447 21 4.54761 21 6.20447V8.45447C21 10.1113 19.6569 11.4545 18 11.4545H15.75C14.0931 11.4545 12.75 10.1113 12.75 8.45447V6.20447ZM3 15.9545C3 14.2976 4.34315 12.9545 6 12.9545H8.25C9.90685 12.9545 11.25 14.2976 11.25 15.9545V18.2045C11.25 19.8613 9.90685 21.2045 8.25 21.2045H6C4.34315 21.2045 3 19.8613 3 18.2045V15.9545ZM12.75 15.9545C12.75 14.2976 14.0931 12.9545 15.75 12.9545H18C19.6569 12.9545 21 14.2976 21 15.9545V18.2045C21 19.8613 19.6569 21.2045 18 21.2045H15.75C14.0931 21.2045 12.75 19.8613 12.75 18.2045V15.9545Z" fill="black"/>
</svg>
