<svg width="24" height="25" viewBox="0 0 24 25" fill="none" xmlns="http://www.w3.org/2000/svg">
<path d="M11.6444 1.79411C11.8664 1.67459 12.1336 1.67459 12.3556 1.79411L22.1056 7.04411C22.3485 7.17492 22.5 7.42856 22.5 7.70447C22.5 7.98038 22.3485 8.23401 22.1056 8.36482L12.3556 13.6148C12.1336 13.7344 11.8664 13.7344 11.6444 13.6148L1.89443 8.36482C1.65149 8.23401 1.5 7.98038 1.5 7.70447C1.5 7.42856 1.65149 7.17492 1.89443 7.04411L11.6444 1.79411Z" fill="black"/>
<path d="M3.26468 10.8063L10.9333 14.9355C11.5992 15.2941 12.4008 15.2941 13.0667 14.9355L20.7353 10.8063L22.1056 11.5441C22.3485 11.6749 22.5 11.9285 22.5 12.2045C22.5 12.4804 22.3485 12.734 22.1056 12.8648L12.3556 18.1148C12.1336 18.2343 11.8664 18.2343 11.6444 18.1148L1.89443 12.8648C1.65149 12.734 1.5 12.4804 1.5 12.2045C1.5 11.9285 1.65149 11.6749 1.89443 11.5441L3.26468 10.8063Z" fill="black"/>
<path d="M10.9333 19.4355L3.26468 15.3063L1.89443 16.0441C1.65149 16.1749 1.5 16.4285 1.5 16.7045C1.5 16.9804 1.65149 17.234 1.89443 17.3648L11.6444 22.6148C11.8664 22.7343 12.1336 22.7343 12.3556 22.6148L22.1056 17.3648C22.3485 17.234 22.5 16.9804 22.5 16.7045C22.5 16.4285 22.3485 16.1749 22.1056 16.0441L20.7353 15.3063L13.0667 19.4355C12.4008 19.7941 11.5992 19.7941 10.9333 19.4355Z" fill="black"/>
</svg>
