<svg width="24" height="25" viewBox="0 0 24 25" fill="none" xmlns="http://www.w3.org/2000/svg">
<path d="M16.5 6.20447C16.5 4.54761 15.1569 3.20447 13.5 3.20447H6C4.34315 3.20447 3 4.54761 3 6.20447V13.7045C3 15.3613 4.34315 16.7045 6 16.7045V10.7045C6 8.21919 8.01472 6.20447 10.5 6.20447H16.5Z" fill="black"/>
<path d="M18 7.70447C19.6569 7.70447 21 9.04761 21 10.7045V18.2045C21 19.8613 19.6569 21.2045 18 21.2045H10.5C8.84315 21.2045 7.5 19.8613 7.5 18.2045V10.7045C7.5 9.04761 8.84315 7.70447 10.5 7.70447H18Z" fill="black"/>
</svg>
