<svg width="24" height="25" viewBox="0 0 24 25" fill="none" xmlns="http://www.w3.org/2000/svg">
<path d="M6 3.20447C4.34315 3.20447 3 4.54761 3 6.20447V8.45447C3 10.1113 4.34315 11.4545 6 11.4545H8.25C9.90685 11.4545 11.25 10.1113 11.25 8.45447V6.20447C11.25 4.54761 9.90685 3.20447 8.25 3.20447H6Z" fill="black"/>
<path d="M15.75 3.20447C14.0931 3.20447 12.75 4.54761 12.75 6.20447V8.45447C12.75 10.1113 14.0931 11.4545 15.75 11.4545H18C19.6569 11.4545 21 10.1113 21 8.45447V6.20447C21 4.54761 19.6569 3.20447 18 3.20447H15.75Z" fill="black"/>
<path d="M6 12.9545C4.34315 12.9545 3 14.2976 3 15.9545V18.2045C3 19.8613 4.34315 21.2045 6 21.2045H8.25C9.90685 21.2045 11.25 19.8613 11.25 18.2045V15.9545C11.25 14.2976 9.90685 12.9545 8.25 12.9545H6Z" fill="black"/>
<path d="M17.625 13.7045C17.625 13.2903 17.2892 12.9545 16.875 12.9545C16.4608 12.9545 16.125 13.2903 16.125 13.7045V16.3295H13.5C13.0858 16.3295 12.75 16.6653 12.75 17.0795C12.75 17.4937 13.0858 17.8295 13.5 17.8295H16.125V20.4545C16.125 20.8687 16.4608 21.2045 16.875 21.2045C17.2892 21.2045 17.625 20.8687 17.625 20.4545V17.8295H20.25C20.6642 17.8295 21 17.4937 21 17.0795C21 16.6653 20.6642 16.3295 20.25 16.3295H17.625V13.7045Z" fill="black"/>
</svg>
