<svg width="24" height="25" viewBox="0 0 24 25" fill="none" xmlns="http://www.w3.org/2000/svg">
<path d="M12 2.45447C12.4142 2.45447 12.75 2.79025 12.75 3.20447V5.45447C12.75 5.86868 12.4142 6.20447 12 6.20447C11.5858 6.20447 11.25 5.86868 11.25 5.45447V3.20447C11.25 2.79025 11.5858 2.45447 12 2.45447Z" fill="black"/>
<path d="M7.5 12.2045C7.5 9.71919 9.51472 7.70447 12 7.70447C14.4853 7.70447 16.5 9.71919 16.5 12.2045C16.5 14.6897 14.4853 16.7045 12 16.7045C9.51472 16.7045 7.5 14.6897 7.5 12.2045Z" fill="black"/>
<path d="M18.8943 6.37081C19.1872 6.07791 19.1872 5.60304 18.8943 5.31015C18.6014 5.01725 18.1266 5.01725 17.8337 5.31015L16.2427 6.90114C15.9498 7.19403 15.9498 7.6689 16.2427 7.9618C16.5356 8.25469 17.0105 8.25469 17.3034 7.9618L18.8943 6.37081Z" fill="black"/>
<path d="M21.75 12.2045C21.75 12.6187 21.4142 12.9545 21 12.9545H18.75C18.3358 12.9545 18 12.6187 18 12.2045C18 11.7903 18.3358 11.4545 18.75 11.4545H21C21.4142 11.4545 21.75 11.7903 21.75 12.2045Z" fill="black"/>
<path d="M17.8336 19.0987C18.1265 19.3916 18.6013 19.3916 18.8942 19.0987C19.1871 18.8058 19.1871 18.331 18.8942 18.0381L17.3032 16.4471C17.0103 16.1542 16.5355 16.1542 16.2426 16.4471C15.9497 16.74 15.9497 17.2148 16.2426 17.5077L17.8336 19.0987Z" fill="black"/>
<path d="M12 18.2045C12.4142 18.2045 12.75 18.5403 12.75 18.9545V21.2045C12.75 21.6187 12.4142 21.9545 12 21.9545C11.5858 21.9545 11.25 21.6187 11.25 21.2045V18.9545C11.25 18.5403 11.5858 18.2045 12 18.2045Z" fill="black"/>
<path d="M7.7575 17.5077C8.0504 17.2148 8.0504 16.74 7.7575 16.4471C7.46461 16.1542 6.98974 16.1542 6.69684 16.4471L5.10585 18.0381C4.81296 18.331 4.81296 18.8058 5.10585 19.0987C5.39875 19.3916 5.87362 19.3916 6.16651 19.0987L7.7575 17.5077Z" fill="black"/>
<path d="M6 12.2045C6 12.6187 5.66421 12.9545 5.25 12.9545H3C2.58579 12.9545 2.25 12.6187 2.25 12.2045C2.25 11.7903 2.58579 11.4545 3 11.4545H5.25C5.66421 11.4545 6 11.7903 6 12.2045Z" fill="black"/>
<path d="M6.69673 7.96179C6.98962 8.25468 7.4645 8.25468 7.75739 7.96179C8.05028 7.66889 8.05028 7.19402 7.75739 6.90113L6.1664 5.31014C5.87351 5.01724 5.39863 5.01724 5.10574 5.31014C4.81285 5.60303 4.81285 6.0779 5.10574 6.3708L6.69673 7.96179Z" fill="black"/>
</svg>
