<svg width="24" height="25" viewBox="0 0 24 25" fill="none" xmlns="http://www.w3.org/2000/svg">
<path fill-rule="evenodd" clip-rule="evenodd" d="M2.25 4.32947C2.25 3.29393 3.08947 2.45447 4.125 2.45447H9.375C10.4105 2.45447 11.25 3.29393 11.25 4.32947V17.4545C11.25 19.9398 9.23528 21.9545 6.75 21.9545C4.26472 21.9545 2.25 19.9398 2.25 17.4545V4.32947ZM6.75 18.5795C7.37132 18.5795 7.875 18.0758 7.875 17.4545C7.875 16.8331 7.37132 16.3295 6.75 16.3295C6.12868 16.3295 5.625 16.8331 5.625 17.4545C5.625 18.0758 6.12868 18.5795 6.75 18.5795Z" fill="black"/>
<path d="M10.719 21.9545H19.8751C20.9106 21.9545 21.7501 21.115 21.7501 20.0795V14.8295C21.7501 13.7939 20.9106 12.9545 19.8751 12.9545H19.7353L10.9927 21.6971C10.9035 21.7863 10.8122 21.8721 10.719 21.9545Z" fill="black"/>
<path d="M12.7383 17.8299L19.2125 11.3557C19.9448 10.6234 19.9448 9.43625 19.2125 8.70402L15.5002 4.99171C14.768 4.25948 13.5808 4.25948 12.8486 4.99171L12.7498 5.09045V17.4545C12.7498 17.5806 12.7459 17.7058 12.7383 17.8299Z" fill="black"/>
</svg>
