<svg width="24" height="25" viewBox="0 0 24 25" fill="none" xmlns="http://www.w3.org/2000/svg">
<path fill-rule="evenodd" clip-rule="evenodd" d="M1.5 5.82947C1.5 4.79393 2.33947 3.95447 3.375 3.95447H20.625C21.6605 3.95447 22.5 4.79393 22.5 5.82947V18.5795C22.5 19.615 21.6605 20.4545 20.625 20.4545H3.375C2.33947 20.4545 1.5 19.615 1.5 18.5795V5.82947ZM21 9.57947C21 9.37236 20.8321 9.20447 20.625 9.20447H13.125C12.9179 9.20447 12.75 9.37236 12.75 9.57947V11.0795C12.75 11.2866 12.9179 11.4545 13.125 11.4545H20.625C20.8321 11.4545 21 11.2866 21 11.0795V9.57947ZM21 13.3295C21 13.1224 20.8321 12.9545 20.625 12.9545H13.125C12.9179 12.9545 12.75 13.1224 12.75 13.3295V14.8295C12.75 15.0366 12.9179 15.2045 13.125 15.2045H20.625C20.8321 15.2045 21 15.0366 21 14.8295V13.3295ZM21 17.0795C21 16.8724 20.8321 16.7045 20.625 16.7045H13.125C12.9179 16.7045 12.75 16.8724 12.75 17.0795V18.5795C12.75 18.7866 12.9179 18.9545 13.125 18.9545H20.625C20.8321 18.9545 21 18.7866 21 18.5795V17.0795ZM10.875 18.9545C11.0821 18.9545 11.25 18.7866 11.25 18.5795V17.0795C11.25 16.8724 11.0821 16.7045 10.875 16.7045H3.375C3.16789 16.7045 3 16.8724 3 17.0795V18.5795C3 18.7866 3.16789 18.9545 3.375 18.9545H10.875ZM3.375 15.2045H10.875C11.0821 15.2045 11.25 15.0366 11.25 14.8295V13.3295C11.25 13.1224 11.0821 12.9545 10.875 12.9545H3.375C3.16789 12.9545 3 13.1224 3 13.3295V14.8295C3 15.0366 3.16789 15.2045 3.375 15.2045ZM3.375 11.4545H10.875C11.0821 11.4545 11.25 11.2866 11.25 11.0795V9.57947C11.25 9.37236 11.0821 9.20447 10.875 9.20447H3.375C3.16789 9.20447 3 9.37236 3 9.57947V11.0795C3 11.2866 3.16789 11.4545 3.375 11.4545Z" fill="black"/>
</svg>
