<svg width="24" height="25" viewBox="0 0 24 25" fill="none" xmlns="http://www.w3.org/2000/svg">
<path fill-rule="evenodd" clip-rule="evenodd" d="M5.25 2.45447C3.59315 2.45447 2.25 3.79761 2.25 5.45447V9.77249C2.25 10.5681 2.56607 11.3312 3.12868 11.8938L12.7098 21.4749C13.6291 22.3942 15.0989 22.6609 16.2573 21.9025C18.4242 20.4838 20.2793 18.6287 21.698 16.4618C22.4564 15.3034 22.1898 13.8336 21.2705 12.9143L11.6893 3.33315C11.1267 2.77054 10.3637 2.45447 9.56802 2.45447H5.25ZM6.375 7.70447C6.99632 7.70447 7.5 7.20079 7.5 6.57947C7.5 5.95815 6.99632 5.45447 6.375 5.45447C5.75368 5.45447 5.25 5.95815 5.25 6.57947C5.25 7.20079 5.75368 7.70447 6.375 7.70447Z" fill="black"/>
</svg>
