<svg width="24" height="25" viewBox="0 0 24 25" fill="none" xmlns="http://www.w3.org/2000/svg">
<path fill-rule="evenodd" clip-rule="evenodd" d="M1.5 6.57947C1.5 5.54393 2.33947 4.70447 3.375 4.70447H20.625C21.6605 4.70447 22.5 5.54393 22.5 6.57947V9.60581C22.5 9.87354 22.3573 10.121 22.1255 10.255C21.4511 10.6452 21 11.3726 21 12.2045C21 13.0363 21.4511 13.7637 22.1255 14.1539C22.3573 14.288 22.5 14.5354 22.5 14.8031V17.8295C22.5 18.865 21.6605 19.7045 20.625 19.7045H3.375C2.33947 19.7045 1.5 18.865 1.5 17.8295V14.8031C1.5 14.5354 1.64271 14.288 1.87446 14.1539C2.54894 13.7638 3 13.0363 3 12.2045C3 11.3726 2.54894 10.6452 1.87446 10.255C1.64271 10.121 1.5 9.87354 1.5 9.60581V6.57947ZM16.5 5.45447C16.9142 5.45447 17.25 5.79025 17.25 6.20447V6.95447C17.25 7.36868 16.9142 7.70447 16.5 7.70447C16.0858 7.70447 15.75 7.36868 15.75 6.95447V6.20447C15.75 5.79025 16.0858 5.45447 16.5 5.45447ZM17.25 9.95447C17.25 9.54025 16.9142 9.20447 16.5 9.20447C16.0858 9.20447 15.75 9.54025 15.75 9.95447V10.7045C15.75 11.1187 16.0858 11.4545 16.5 11.4545C16.9142 11.4545 17.25 11.1187 17.25 10.7045V9.95447ZM16.5 12.9545C16.9142 12.9545 17.25 13.2903 17.25 13.7045V14.4545C17.25 14.8687 16.9142 15.2045 16.5 15.2045C16.0858 15.2045 15.75 14.8687 15.75 14.4545V13.7045C15.75 13.2903 16.0858 12.9545 16.5 12.9545ZM17.25 17.4545C17.25 17.0403 16.9142 16.7045 16.5 16.7045C16.0858 16.7045 15.75 17.0403 15.75 17.4545V18.2045C15.75 18.6187 16.0858 18.9545 16.5 18.9545C16.9142 18.9545 17.25 18.6187 17.25 18.2045V17.4545ZM6 12.2045C6 11.7903 6.33579 11.4545 6.75 11.4545H12C12.4142 11.4545 12.75 11.7903 12.75 12.2045C12.75 12.6187 12.4142 12.9545 12 12.9545H6.75C6.33579 12.9545 6 12.6187 6 12.2045ZM6.75 14.4545C6.33579 14.4545 6 14.7903 6 15.2045C6 15.6187 6.33579 15.9545 6.75 15.9545H9.75C10.1642 15.9545 10.5 15.6187 10.5 15.2045C10.5 14.7903 10.1642 14.4545 9.75 14.4545H6.75Z" fill="black"/>
</svg>
