<svg width="24" height="25" viewBox="0 0 24 25" fill="none" xmlns="http://www.w3.org/2000/svg">
<path fill-rule="evenodd" clip-rule="evenodd" d="M16.5001 4.68265V4.90945C17.4548 4.99684 18.4017 5.11177 19.3398 5.25345C19.6871 5.3059 20.0332 5.36202 20.3781 5.42176C20.7863 5.49246 21.0598 5.88063 20.9891 6.28877C20.9184 6.69691 20.5302 6.97045 20.1221 6.89975C20.0525 6.8877 19.9829 6.87579 19.9131 6.86404L18.9077 19.9346C18.7875 21.4975 17.4842 22.7045 15.9166 22.7045H8.08369C6.51608 22.7045 5.21276 21.4975 5.09253 19.9346L4.0871 6.86404C4.0174 6.87579 3.94774 6.8877 3.87813 6.89975C3.47 6.97045 3.08183 6.69691 3.01113 6.28877C2.94043 5.88063 3.21398 5.49246 3.62211 5.42176C3.96701 5.36202 4.31315 5.3059 4.66048 5.25345C5.59858 5.11177 6.5454 4.99684 7.50012 4.90945V4.68265C7.50012 3.11818 8.71265 1.78265 10.3156 1.73137C10.8749 1.71348 11.4365 1.70447 12.0001 1.70447C12.5638 1.70447 13.1253 1.71348 13.6847 1.73137C15.2876 1.78265 16.5001 3.11818 16.5001 4.68265ZM10.3635 3.23061C10.9069 3.21323 11.4525 3.20447 12.0001 3.20447C12.5478 3.20447 13.0934 3.21323 13.6367 3.23061C14.3913 3.25475 15.0001 3.8884 15.0001 4.68265V4.79529C14.0078 4.73503 13.0075 4.70447 12.0001 4.70447C10.9928 4.70447 9.99249 4.73503 9.00012 4.79529V4.68265C9.00012 3.8884 9.6089 3.25475 10.3635 3.23061ZM10.0087 9.17564C9.9928 8.76173 9.64436 8.4391 9.23045 8.45502C8.81654 8.47094 8.49391 8.81938 8.50983 9.23329L8.85599 18.2333C8.8719 18.6472 9.22035 18.9698 9.63426 18.9539C10.0482 18.938 10.3708 18.5896 10.3549 18.1756L10.0087 9.17564ZM15.4895 9.23329C15.5054 8.81938 15.1828 8.47094 14.7689 8.45502C14.355 8.4391 14.0065 8.76173 13.9906 9.17564L13.6444 18.1756C13.6285 18.5896 13.9512 18.938 14.3651 18.9539C14.779 18.9698 15.1274 18.6472 15.1433 18.2333L15.4895 9.23329Z" fill="black"/>
</svg>
