<svg width="24" height="25" viewBox="0 0 24 25" fill="none" xmlns="http://www.w3.org/2000/svg">
<path d="M3.375 4.70459C2.33947 4.70459 1.5 5.54406 1.5 6.57959V13.7046H13.5V6.57959C13.5 5.54406 12.6605 4.70459 11.625 4.70459H3.375Z" fill="black"/>
<path d="M13.5 15.2046H1.5V17.8296C1.5 18.8651 2.33947 19.7046 3.375 19.7046H3.75C3.75 18.0477 5.09315 16.7046 6.75 16.7046C8.40685 16.7046 9.75 18.0477 9.75 19.7046H12.75C13.1642 19.7046 13.5 19.3688 13.5 18.9546V15.2046Z" fill="black"/>
<path d="M8.25 19.7046C8.25 18.8762 7.57843 18.2046 6.75 18.2046C5.92157 18.2046 5.25 18.8762 5.25 19.7046C5.25 20.533 5.92157 21.2046 6.75 21.2046C7.57843 21.2046 8.25 20.533 8.25 19.7046Z" fill="black"/>
<path d="M15.75 6.95459C15.3358 6.95459 15 7.29038 15 7.70459V18.9546C15 19.0414 15.0147 19.1247 15.0419 19.2023C15.2809 17.7846 16.5143 16.7046 18 16.7046C19.6442 16.7046 20.9794 18.0272 20.9998 19.6666C21.8531 19.4915 22.5224 18.7312 22.464 17.784C22.231 14.0036 20.8775 10.5256 18.7324 7.67949C18.378 7.20922 17.8265 6.95459 17.2621 6.95459H15.75Z" fill="black"/>
<path d="M19.5 19.7046C19.5 18.8762 18.8284 18.2046 18 18.2046C17.1716 18.2046 16.5 18.8762 16.5 19.7046C16.5 20.533 17.1716 21.2046 18 21.2046C18.8284 21.2046 19.5 20.533 19.5 19.7046Z" fill="black"/>
</svg>
