<svg width="24" height="25" viewBox="0 0 24 25" fill="none" xmlns="http://www.w3.org/2000/svg">
<path d="M19.5 6.20459H4.5V15.2046H19.5V6.20459Z" fill="black"/>
<path fill-rule="evenodd" clip-rule="evenodd" d="M3.375 3.20459C2.33947 3.20459 1.5 4.04406 1.5 5.07959V16.3296C1.5 17.3651 2.33947 18.2046 3.375 18.2046H9.75V19.7046H6C5.58579 19.7046 5.25 20.0404 5.25 20.4546C5.25 20.8688 5.58579 21.2046 6 21.2046H18C18.4142 21.2046 18.75 20.8688 18.75 20.4546C18.75 20.0404 18.4142 19.7046 18 19.7046H14.25V18.2046H20.625C21.6605 18.2046 22.5 17.3651 22.5 16.3296V5.07959C22.5 4.04406 21.6605 3.20459 20.625 3.20459H3.375ZM3.375 16.7046H20.625C20.8321 16.7046 21 16.5367 21 16.3296V5.07959C21 4.87248 20.8321 4.70459 20.625 4.70459H3.375C3.16789 4.70459 3 4.87248 3 5.07959V16.3296C3 16.5367 3.16789 16.7046 3.375 16.7046Z" fill="black"/>
</svg>
