<svg width="24" height="25" viewBox="0 0 24 25" fill="none" xmlns="http://www.w3.org/2000/svg">
<path d="M5.25 6.57959C5.25 4.30142 7.09683 2.45459 9.375 2.45459C11.6532 2.45459 13.5 4.30142 13.5 6.57959C13.5 8.85776 11.6532 10.7046 9.375 10.7046C7.09683 10.7046 5.25 8.85776 5.25 6.57959Z" fill="black"/>
<path d="M2.25 19.3296C2.25 15.3946 5.43997 12.2046 9.375 12.2046C13.31 12.2046 16.5 15.3946 16.5 19.3296V19.3321C16.5 19.3719 16.4996 19.4119 16.499 19.4515C16.4946 19.71 16.3574 19.9481 16.1359 20.0814C14.1607 21.2707 11.8466 21.9546 9.375 21.9546C6.90343 21.9546 4.5893 21.2707 2.61406 20.0814C2.39256 19.9481 2.25537 19.71 2.25103 19.4515C2.25034 19.411 2.25 19.3703 2.25 19.3296Z" fill="black"/>
<path d="M18.75 7.70459C18.75 7.29038 18.4142 6.95459 18 6.95459C17.5858 6.95459 17.25 7.29038 17.25 7.70459V9.95459H15C14.5858 9.95459 14.25 10.2904 14.25 10.7046C14.25 11.1188 14.5858 11.4546 15 11.4546H17.25V13.7046C17.25 14.1188 17.5858 14.4546 18 14.4546C18.4142 14.4546 18.75 14.1188 18.75 13.7046V11.4546H21C21.4142 11.4546 21.75 11.1188 21.75 10.7046C21.75 10.2904 21.4142 9.95459 21 9.95459H18.75V7.70459Z" fill="black"/>
</svg>
