<svg width="24" height="25" viewBox="0 0 24 25" fill="none" xmlns="http://www.w3.org/2000/svg">
<path fill-rule="evenodd" clip-rule="evenodd" d="M7.5 6.20459C7.5 3.71931 9.51471 1.70459 12 1.70459C14.4853 1.70459 16.5 3.71931 16.5 6.20459C16.5 8.68987 14.4853 10.7046 12 10.7046C9.51471 10.7046 7.5 8.68987 7.5 6.20459Z" fill="black"/>
<path fill-rule="evenodd" clip-rule="evenodd" d="M3.75124 20.3099C3.82858 15.8202 7.49198 12.2046 12 12.2046C16.5081 12.2046 20.1716 15.8203 20.2488 20.3102C20.2539 20.608 20.0823 20.8806 19.8117 21.0048C17.4327 22.0964 14.7865 22.7046 12.0003 22.7046C9.21386 22.7046 6.56743 22.0963 4.18832 21.0045C3.91765 20.8803 3.74611 20.6077 3.75124 20.3099Z" fill="black"/>
</svg>
