<svg width="24" height="25" viewBox="0 0 24 25" fill="none" xmlns="http://www.w3.org/2000/svg">
<path fill-rule="evenodd" clip-rule="evenodd" d="M8.25 6.95459C8.25 4.88352 9.92893 3.20459 12 3.20459C14.0711 3.20459 15.75 4.88352 15.75 6.95459C15.75 9.02566 14.0711 10.7046 12 10.7046C9.92893 10.7046 8.25 9.02566 8.25 6.95459Z" fill="black"/>
<path fill-rule="evenodd" clip-rule="evenodd" d="M15.75 9.95459C15.75 8.29774 17.0931 6.95459 18.75 6.95459C20.4069 6.95459 21.75 8.29774 21.75 9.95459C21.75 11.6114 20.4069 12.9546 18.75 12.9546C17.0931 12.9546 15.75 11.6114 15.75 9.95459Z" fill="black"/>
<path fill-rule="evenodd" clip-rule="evenodd" d="M2.25 9.95459C2.25 8.29774 3.59315 6.95459 5.25 6.95459C6.90685 6.95459 8.25 8.29774 8.25 9.95459C8.25 11.6114 6.90685 12.9546 5.25 12.9546C3.59315 12.9546 2.25 11.6114 2.25 9.95459Z" fill="black"/>
<path fill-rule="evenodd" clip-rule="evenodd" d="M6.30986 15.3221C7.50783 13.449 9.60835 12.2046 12 12.2046C14.3919 12.2046 16.4927 13.4493 17.6906 15.3228C18.5187 16.618 18.877 18.1798 18.709 19.7025C18.6827 19.9405 18.5444 20.1516 18.3368 20.2708C16.4694 21.3422 14.3051 21.9546 12 21.9546C9.69492 21.9546 7.53059 21.3422 5.66325 20.2708C5.45559 20.1516 5.3173 19.9405 5.29103 19.7025C5.12293 18.1795 5.48141 16.6175 6.30986 15.3221Z" fill="black"/>
<path d="M5.08228 14.4583C5.07024 14.4768 5.05827 14.4953 5.04638 14.5139C4.08091 16.0235 3.63908 17.8213 3.77471 19.5936C3.16667 19.5012 2.5767 19.3527 2.01043 19.1533L1.89547 19.1128C1.68576 19.0389 1.53923 18.8485 1.52159 18.6268L1.51192 18.5053C1.50402 18.406 1.5 18.3057 1.5 18.2046C1.5 16.1897 3.08905 14.546 5.08228 14.4583Z" fill="black"/>
<path d="M20.2256 19.5935C20.3612 17.8216 19.9196 16.0242 18.9545 14.5148C18.9424 14.4959 18.9303 14.4771 18.9181 14.4583C20.9111 14.5462 22.5 16.1898 22.5 18.2046C22.5 18.3057 22.496 18.406 22.4881 18.5053L22.4784 18.6268C22.4608 18.8485 22.3142 19.0389 22.1045 19.1128L21.9896 19.1533C21.4234 19.3526 20.8336 19.5012 20.2256 19.5935Z" fill="black"/>
</svg>
