<svg width="24" height="25" viewBox="0 0 24 25" fill="none" xmlns="http://www.w3.org/2000/svg">
<path fill-rule="evenodd" clip-rule="evenodd" d="M18.6854 19.3017C20.5721 17.5237 21.75 15.0017 21.75 12.2046C21.75 6.81981 17.3848 2.45459 12 2.45459C6.61522 2.45459 2.25 6.81981 2.25 12.2046C2.25 15.0017 3.42785 17.5237 5.31463 19.3017C7.06012 20.9465 9.41234 21.9546 12 21.9546C14.5877 21.9546 16.9399 20.9465 18.6854 19.3017ZM6.14512 18.0169C7.51961 16.3024 9.63161 15.2046 12 15.2046C14.3684 15.2046 16.4804 16.3024 17.8549 18.0169C16.3603 19.5224 14.289 20.4546 12 20.4546C9.711 20.4546 7.63973 19.5224 6.14512 18.0169ZM15.75 9.20459C15.75 11.2757 14.0711 12.9546 12 12.9546C9.92893 12.9546 8.25 11.2757 8.25 9.20459C8.25 7.13352 9.92893 5.45459 12 5.45459C14.0711 5.45459 15.75 7.13352 15.75 9.20459Z" fill="black"/>
</svg>
