<svg width="24" height="25" viewBox="0 0 24 25" fill="none" xmlns="http://www.w3.org/2000/svg">
<path d="M4.5 6.57959C4.5 4.30142 6.34683 2.45459 8.625 2.45459C10.9032 2.45459 12.75 4.30142 12.75 6.57959C12.75 8.85776 10.9032 10.7046 8.625 10.7046C6.34683 10.7046 4.5 8.85776 4.5 6.57959Z" fill="black"/>
<path d="M14.25 8.82959C14.25 6.96563 15.761 5.45459 17.625 5.45459C19.489 5.45459 21 6.96563 21 8.82959C21 10.6936 19.489 12.2046 17.625 12.2046C15.761 12.2046 14.25 10.6936 14.25 8.82959Z" fill="black"/>
<path d="M1.5 19.3296C1.5 15.3946 4.68997 12.2046 8.625 12.2046C12.56 12.2046 15.75 15.3946 15.75 19.3296V19.3321C15.75 19.3719 15.7496 19.4119 15.749 19.4515C15.7446 19.71 15.6074 19.9481 15.3859 20.0814C13.4107 21.2707 11.0966 21.9546 8.625 21.9546C6.15343 21.9546 3.8393 21.2707 1.86406 20.0814C1.64256 19.9481 1.50537 19.71 1.50103 19.4515C1.50034 19.411 1.5 19.3703 1.5 19.3296Z" fill="black"/>
<path d="M17.2498 19.3327C17.2498 19.3808 17.2494 19.429 17.2486 19.4767C17.2429 19.8154 17.1612 20.1423 17.0157 20.4365C17.2172 20.4485 17.4203 20.4546 17.6248 20.4546C19.2206 20.4546 20.732 20.0849 22.0764 19.4258C22.3234 19.3047 22.4843 19.0581 22.4957 18.7833C22.4984 18.7157 22.4998 18.6478 22.4998 18.5796C22.4998 15.8872 20.3172 13.7046 17.6248 13.7046C16.8784 13.7046 16.1711 13.8724 15.5387 14.1722C16.6135 15.6107 17.2498 17.3958 17.2498 19.3296V19.3327Z" fill="black"/>
</svg>
