<svg width="24" height="25" viewBox="0 0 24 25" fill="none" xmlns="http://www.w3.org/2000/svg">
<path d="M10.375 2.45459C8.09683 2.45459 6.25 4.30142 6.25 6.57959C6.25 8.85776 8.09683 10.7046 10.375 10.7046C12.6532 10.7046 14.5 8.85776 14.5 6.57959C14.5 4.30142 12.6532 2.45459 10.375 2.45459Z" fill="black"/>
<path d="M10.375 12.2046C6.43997 12.2046 3.25 15.3946 3.25 19.3296C3.25 19.3703 3.25034 19.411 3.25103 19.4515C3.25537 19.71 3.39256 19.9481 3.61406 20.0814C5.5893 21.2707 7.90343 21.9546 10.375 21.9546C12.8466 21.9546 15.1607 21.2707 17.1359 20.0814C17.3574 19.9481 17.4946 19.71 17.499 19.4515C17.4996 19.4119 17.5 19.3719 17.5 19.3321V19.3296C17.5 15.3946 14.31 12.2046 10.375 12.2046Z" fill="black"/>
<path d="M16 9.95459C15.5858 9.95459 15.25 10.2904 15.25 10.7046C15.25 11.1188 15.5858 11.4546 16 11.4546H22C22.4142 11.4546 22.75 11.1188 22.75 10.7046C22.75 10.2904 22.4142 9.95459 22 9.95459H16Z" fill="black"/>
</svg>
