<svg width="24" height="25" viewBox="0 0 24 25" fill="none" xmlns="http://www.w3.org/2000/svg">
<path fill-rule="evenodd" clip-rule="evenodd" d="M19.2535 2.49623C19.6447 2.36007 20.0722 2.56682 20.2083 2.95802C21.2033 5.81676 21.75 8.93811 21.75 12.2045C21.75 15.471 21.2033 18.5923 20.2083 21.4511C20.0722 21.8423 19.6447 22.049 19.2535 21.9129C18.8623 21.7767 18.6555 21.3492 18.7917 20.958C19.7313 18.2582 20.25 15.3035 20.25 12.2045C20.25 9.10559 19.7313 6.15093 18.7917 3.45108C18.6555 3.05988 18.8623 2.63238 19.2535 2.49623ZM5.02596 2.50935C5.40991 2.66477 5.59517 3.10201 5.43975 3.48596C4.3503 6.17737 3.75 9.11993 3.75 12.2045C3.75 15.2892 4.3503 18.2317 5.43975 20.9231C5.59517 21.3071 5.40991 21.7443 5.02596 21.8998C4.64201 22.0552 4.20477 21.8699 4.04935 21.486C2.88874 18.6188 2.25 15.4853 2.25 12.2045C2.25 8.92377 2.88874 5.79032 4.04935 2.92314C4.20477 2.53919 4.64201 2.35393 5.02596 2.50935ZM9.30143 7.5615C10.1246 7.05493 11.205 7.4477 11.5106 8.36464L12.2266 10.5126L13.601 8.45095C14.2504 7.47683 15.5007 7.10201 16.5789 7.55818L16.7922 7.64844C17.1737 7.80983 17.3521 8.24992 17.1907 8.63139C17.0293 9.01287 16.5892 9.19128 16.2078 9.02989L15.9944 8.93963C15.5797 8.76418 15.0989 8.90834 14.8491 9.283L12.8275 12.3154L13.9124 15.5701L15.3569 14.6812C15.7097 14.4641 16.1717 14.5741 16.3887 14.9269C16.6058 15.2796 16.4958 15.7416 16.1431 15.9587L14.6986 16.8476C13.8754 17.3542 12.795 16.9614 12.4894 16.0445L11.7734 13.8965L10.399 15.9581C9.74958 16.9323 8.49934 17.3071 7.42112 16.8509L7.20777 16.7607C6.82629 16.5993 6.64788 16.1592 6.80927 15.7777C6.97067 15.3962 7.41075 15.2178 7.79223 15.3792L8.00558 15.4695C8.42028 15.6449 8.90114 15.5008 9.15091 15.1261L11.1725 12.0937L10.0876 8.83898L8.64307 9.72791C8.2903 9.945 7.82834 9.83501 7.61126 9.48224C7.39417 9.12947 7.50416 8.66751 7.85693 8.45042L9.30143 7.5615Z" fill="black"/>
</svg>
