<svg width="24" height="25" viewBox="0 0 24 25" fill="none" xmlns="http://www.w3.org/2000/svg">
<path d="M3.53033 2.67426C3.23744 2.38137 2.76256 2.38137 2.46967 2.67426C2.17678 2.96715 2.17678 3.44203 2.46967 3.73492L20.4697 21.7349C20.7626 22.0278 21.2374 22.0278 21.5303 21.7349C21.8232 21.442 21.8232 20.9672 21.5303 20.6743L3.53033 2.67426Z" fill="black"/>
<path d="M22.5 17.8939C22.5 18.3659 22.2984 18.7548 21.996 19.0186L17.25 14.2726V8.1439L19.9393 5.45455C20.8843 4.5096 22.5 5.17886 22.5 6.51522V17.8939Z" fill="black"/>
<path d="M15.75 7.70459V12.7726L7.68198 4.70459H12.75C14.4069 4.70459 15.75 6.04774 15.75 7.70459Z" fill="black"/>
<path d="M1.5 7.70459C1.5 6.92246 1.79931 6.21023 2.28963 5.6762L15.1363 18.5229C14.5882 19.2412 13.7232 19.7046 12.75 19.7046H4.5C2.84315 19.7046 1.5 18.3614 1.5 16.7046V7.70459Z" fill="black"/>
</svg>
