<svg width="24" height="25" viewBox="0 0 24 25" fill="none" xmlns="http://www.w3.org/2000/svg">
<path d="M6 3.20459C4.34315 3.20459 3 4.54774 3 6.20459V7.70459C3 8.1188 3.33579 8.45459 3.75 8.45459C4.16421 8.45459 4.5 8.1188 4.5 7.70459V6.20459C4.5 5.37616 5.17157 4.70459 6 4.70459H7.5C7.91421 4.70459 8.25 4.3688 8.25 3.95459C8.25 3.54038 7.91421 3.20459 7.5 3.20459H6Z" fill="black"/>
<path d="M16.5 3.20459C16.0858 3.20459 15.75 3.54038 15.75 3.95459C15.75 4.3688 16.0858 4.70459 16.5 4.70459H18C18.8284 4.70459 19.5 5.37616 19.5 6.20459V7.70459C19.5 8.1188 19.8358 8.45459 20.25 8.45459C20.6642 8.45459 21 8.1188 21 7.70459V6.20459C21 4.54774 19.6569 3.20459 18 3.20459H16.5Z" fill="black"/>
<path d="M12 8.45459C9.92893 8.45459 8.25 10.1335 8.25 12.2046C8.25 14.2757 9.92893 15.9546 12 15.9546C14.0711 15.9546 15.75 14.2757 15.75 12.2046C15.75 10.1335 14.0711 8.45459 12 8.45459Z" fill="black"/>
<path d="M4.5 16.7046C4.5 16.2904 4.16421 15.9546 3.75 15.9546C3.33579 15.9546 3 16.2904 3 16.7046V18.2046C3 19.8614 4.34315 21.2046 6 21.2046H7.5C7.91421 21.2046 8.25 20.8688 8.25 20.4546C8.25 20.0404 7.91421 19.7046 7.5 19.7046H6C5.17157 19.7046 4.5 19.033 4.5 18.2046V16.7046Z" fill="black"/>
<path d="M21 16.7046C21 16.2904 20.6642 15.9546 20.25 15.9546C19.8358 15.9546 19.5 16.2904 19.5 16.7046V18.2046C19.5 19.033 18.8284 19.7046 18 19.7046H16.5C16.0858 19.7046 15.75 20.0404 15.75 20.4546C15.75 20.8688 16.0858 21.2046 16.5 21.2046H18C19.6569 21.2046 21 19.8614 21 18.2046V16.7046Z" fill="black"/>
</svg>
