<svg width="24" height="25" viewBox="0 0 24 25" fill="none" xmlns="http://www.w3.org/2000/svg">
<path d="M2.27307 5.82983C3.06638 5.12953 4.10851 4.70459 5.24989 4.70459H18.7499C19.8913 4.70459 20.9334 5.12953 21.7267 5.82983C21.5423 4.34985 20.2798 3.20459 18.7499 3.20459H5.24989C3.71995 3.20459 2.4575 4.34984 2.27307 5.82983Z" fill="black"/>
<path d="M2.27307 8.82983C3.06638 8.12953 4.10851 7.70459 5.24989 7.70459H18.7499C19.8913 7.70459 20.9334 8.12953 21.7267 8.82983C21.5423 7.34985 20.2798 6.20459 18.7499 6.20459H5.24989C3.71995 6.20459 2.4575 7.34984 2.27307 8.82983Z" fill="black"/>
<path d="M5.25 9.20459C3.59315 9.20459 2.25 10.5477 2.25 12.2046V18.2046C2.25 19.8614 3.59315 21.2046 5.25 21.2046H18.75C20.4069 21.2046 21.75 19.8614 21.75 18.2046V12.2046C21.75 10.5477 20.4069 9.20459 18.75 9.20459H15C14.5858 9.20459 14.25 9.54038 14.25 9.95459C14.25 11.1972 13.2426 12.2046 12 12.2046C10.7574 12.2046 9.75 11.1972 9.75 9.95459C9.75 9.54038 9.41421 9.20459 9 9.20459H5.25Z" fill="black"/>
</svg>
