<svg width="24" height="25" viewBox="0 0 24 25" fill="none" xmlns="http://www.w3.org/2000/svg">
<path fill-rule="evenodd" clip-rule="evenodd" d="M1.37131 8.34799C7.22918 2.49012 16.7267 2.49012 22.5845 8.34799C22.8774 8.64087 22.8774 9.11573 22.5845 9.40863L22.0542 9.939C21.9136 10.0797 21.7228 10.1587 21.5239 10.1587C21.325 10.1587 21.1342 10.0797 20.9935 9.93902C16.0143 4.95984 7.94149 4.95984 2.9623 9.93902C2.82165 10.0797 2.63087 10.1587 2.43196 10.1587C2.23304 10.1587 2.04227 10.0797 1.90162 9.939L1.37129 9.40863C1.07842 9.11573 1.07843 8.64087 1.37131 8.34799ZM4.55329 11.53C8.6538 7.42952 15.302 7.42952 19.4025 11.53C19.6954 11.8229 19.6954 12.2978 19.4025 12.5907L18.8722 13.121C18.7316 13.2617 18.5408 13.3407 18.3419 13.3407C18.143 13.3407 17.9522 13.2617 17.8116 13.121C14.5897 9.89919 9.36613 9.89919 6.14431 13.121C5.85142 13.4139 5.37655 13.4139 5.08366 13.121L4.5533 12.5907C4.41265 12.45 4.33362 12.2593 4.33362 12.0604C4.33362 11.8614 4.41264 11.6707 4.55329 11.53ZM7.75736 14.7119C10.1005 12.3688 13.8995 12.3688 16.2426 14.7119C16.5355 15.0048 16.5355 15.4797 16.2426 15.7726L15.7123 16.3029C15.5717 16.4436 15.3809 16.5226 15.182 16.5226C14.9831 16.5226 14.7923 16.4436 14.6517 16.3029C13.1872 14.8385 10.8128 14.8385 9.34835 16.3029C9.05546 16.5958 8.58058 16.5958 8.28769 16.3029L7.75736 15.7726C7.46447 15.4797 7.46447 15.0048 7.75736 14.7119ZM10.9393 17.8939C11.5251 17.3081 12.4749 17.3081 13.0607 17.8939C13.3536 18.1868 13.3536 18.6617 13.0607 18.9546L12.5303 19.4849C12.3897 19.6256 12.1989 19.7046 12 19.7046C11.8011 19.7046 11.6103 19.6256 11.4697 19.4849L10.9393 18.9546C10.6464 18.6617 10.6464 18.1868 10.9393 17.8939Z" fill="black"/>
</svg>
