<svg width="24" height="25" viewBox="0 0 24 25" fill="none" xmlns="http://www.w3.org/2000/svg">
<path fill-rule="evenodd" clip-rule="evenodd" d="M2.25 6.20459C2.25 4.54774 3.59315 3.20459 5.25 3.20459H18.75C20.4069 3.20459 21.75 4.54774 21.75 6.20459V18.2046C21.75 19.8614 20.4069 21.2046 18.75 21.2046H5.25C3.59315 21.2046 2.25 19.8614 2.25 18.2046V6.20459ZM20.25 9.20459H3.75V18.2046C3.75 19.033 4.42157 19.7046 5.25 19.7046H18.75C19.5784 19.7046 20.25 19.033 20.25 18.2046V9.20459ZM5.25 5.45459C4.83579 5.45459 4.5 5.79038 4.5 6.20459V6.21209C4.5 6.6263 4.83579 6.96209 5.25 6.96209H5.2575C5.67171 6.96209 6.0075 6.6263 6.0075 6.21209V6.20459C6.0075 5.79038 5.67171 5.45459 5.2575 5.45459H5.25ZM6.75 6.20459C6.75 5.79038 7.08579 5.45459 7.5 5.45459H7.5075C7.92171 5.45459 8.2575 5.79038 8.2575 6.20459V6.21209C8.2575 6.6263 7.92171 6.96209 7.5075 6.96209H7.5C7.08579 6.96209 6.75 6.6263 6.75 6.21209V6.20459ZM9.75 5.45459C9.33579 5.45459 9 5.79038 9 6.20459V6.21209C9 6.6263 9.33579 6.96209 9.75 6.96209H9.7575C10.1717 6.96209 10.5075 6.6263 10.5075 6.21209V6.20459C10.5075 5.79038 10.1717 5.45459 9.7575 5.45459H9.75Z" fill="black"/>
</svg>
