<svg width="24" height="25" viewBox="0 0 24 25" fill="none" xmlns="http://www.w3.org/2000/svg">
<path fill-rule="evenodd" clip-rule="evenodd" d="M12 6.95459C12 4.0551 14.3505 1.70459 17.25 1.70459C17.7791 1.70459 18.2913 1.78311 18.7747 1.92964C19.027 2.0061 19.2206 2.20938 19.2847 2.46507C19.3488 2.72077 19.2739 2.99133 19.0875 3.17772L15.7688 6.49642C15.8305 6.972 16.0438 7.4304 16.409 7.79558C16.7742 8.16076 17.2326 8.37406 17.7082 8.43576L21.0269 5.11706C21.2133 4.93067 21.4838 4.85581 21.7395 4.91989C21.9952 4.98397 22.1985 5.17758 22.275 5.42985C22.4215 5.91329 22.5 6.42545 22.5 6.95459C22.5 9.85408 20.1495 12.2046 17.25 12.2046C17.0995 12.2046 16.9503 12.1982 16.8027 12.1858C15.7855 12.0998 14.9338 12.2862 14.4944 12.8197L7.34327 21.5033C6.71684 22.2639 5.78308 22.7046 4.79769 22.7046C2.97642 22.7046 1.5 21.2282 1.5 19.4069C1.5 18.4215 1.94067 17.4877 2.70132 16.8613L11.3849 9.71016C11.9184 9.27082 12.1048 8.41912 12.0188 7.40187C12.0064 7.25427 12 7.10509 12 6.95459ZM4.11723 19.3296C4.11723 18.9154 4.45302 18.5796 4.86723 18.5796H4.87473C5.28895 18.5796 5.62473 18.9154 5.62473 19.3296V19.3371C5.62473 19.7513 5.28895 20.0871 4.87473 20.0871H4.86723C4.45302 20.0871 4.11723 19.7513 4.11723 19.3371V19.3296Z" fill="black"/>
</svg>
