<svg width="24" height="25" viewBox="0 0 24 25" fill="none" xmlns="http://www.w3.org/2000/svg">
<path fill-rule="evenodd" clip-rule="evenodd" d="M12 6.95459C12 4.0551 14.3505 1.70459 17.25 1.70459C17.7791 1.70459 18.2913 1.78311 18.7747 1.92964C19.027 2.0061 19.2206 2.20938 19.2847 2.46507C19.3488 2.72077 19.2739 2.99133 19.0875 3.17772L15.7688 6.49642C15.8305 6.972 16.0438 7.4304 16.409 7.79558C16.7742 8.16076 17.2326 8.37406 17.7082 8.43576L21.0269 5.11706C21.2133 4.93067 21.4838 4.85581 21.7395 4.91989C21.9952 4.98397 22.1985 5.17758 22.275 5.42985C22.4215 5.91329 22.5 6.42545 22.5 6.95459C22.5 9.85408 20.1495 12.2046 17.25 12.2046C17.0995 12.2046 16.9503 12.1982 16.8027 12.1858C15.7855 12.0998 14.9338 12.2862 14.4944 12.8197L7.34327 21.5033C6.71684 22.2639 5.78308 22.7046 4.79769 22.7046C2.97642 22.7046 1.5 21.2282 1.5 19.4069C1.5 18.4215 1.94067 17.4877 2.70132 16.8613L11.3849 9.71016C11.9184 9.27082 12.1048 8.41912 12.0188 7.40187C12.0064 7.25427 12 7.10509 12 6.95459ZM4.11723 19.3296C4.11723 18.9154 4.45302 18.5796 4.86723 18.5796H4.87473C5.28895 18.5796 5.62473 18.9154 5.62473 19.3296V19.3371C5.62473 19.7513 5.28895 20.0871 4.87473 20.0871H4.86723C4.45302 20.0871 4.11723 19.7513 4.11723 19.3371V19.3296Z" fill="black"/>
<path d="M10.076 8.8449L7.87502 6.64395V5.07961C7.87502 4.81616 7.73679 4.57203 7.51089 4.43649L3.76089 2.18649C3.46578 2.00942 3.08804 2.05592 2.84469 2.29928L2.09469 3.04928C1.85133 3.29263 1.80483 3.67037 1.9819 3.96548L4.2319 7.71548C4.36744 7.94138 4.61157 8.07961 4.87502 8.07961H6.43936L8.50138 10.1416L10.076 8.8449Z" fill="black"/>
<path fill-rule="evenodd" clip-rule="evenodd" d="M12.5559 17.5333L16.7386 21.716C18.0567 23.034 20.1936 23.034 21.5116 21.716C22.8296 20.398 22.8296 18.2611 21.5116 16.943L18.206 13.6374C17.8937 13.6817 17.5746 13.7045 17.2501 13.7045C17.0574 13.7045 16.866 13.6964 16.6765 13.6804C16.2822 13.6471 15.994 13.6742 15.8089 13.7223C15.7053 13.7492 15.6574 13.7758 15.6419 13.786L12.5559 17.5333ZM15.9698 16.1743C16.2627 15.8814 16.7375 15.8814 17.0304 16.1743L18.9054 18.0493C19.1983 18.3422 19.1983 18.817 18.9054 19.1099C18.6125 19.4028 18.1377 19.4028 17.8448 19.1099L15.9698 17.2349C15.6769 16.942 15.6769 16.4672 15.9698 16.1743Z" fill="black"/>
</svg>
