<svg width="24" height="25" viewBox="0 0 24 25" fill="none" xmlns="http://www.w3.org/2000/svg">
<path fill-rule="evenodd" clip-rule="evenodd" d="M12 2.45459C6.61522 2.45459 2.25 6.81981 2.25 12.2046C2.25 17.5894 6.61522 21.9546 12 21.9546C17.3848 21.9546 21.75 17.5894 21.75 12.2046C21.75 6.81981 17.3848 2.45459 12 2.45459ZM10.2803 9.42426C9.98744 9.13137 9.51256 9.13137 9.21967 9.42426C8.92678 9.71715 8.92678 10.192 9.21967 10.4849L10.9393 12.2046L9.21967 13.9243C8.92678 14.2172 8.92678 14.692 9.21967 14.9849C9.51256 15.2778 9.98744 15.2778 10.2803 14.9849L12 13.2652L13.7197 14.9849C14.0126 15.2778 14.4874 15.2778 14.7803 14.9849C15.0732 14.692 15.0732 14.2172 14.7803 13.9243L13.0607 12.2046L14.7803 10.4849C15.0732 10.192 15.0732 9.71715 14.7803 9.42426C14.4874 9.13137 14.0126 9.13137 13.7197 9.42426L12 11.1439L10.2803 9.42426Z" fill="black"/>
</svg>
