<svg width="24" height="25" viewBox="0 0 24 25" fill="none" xmlns="http://www.w3.org/2000/svg">
<path fill-rule="evenodd" clip-rule="evenodd" d="M5.46967 5.67426C5.76256 5.38137 6.23744 5.38137 6.53033 5.67426L12 11.1439L17.4697 5.67426C17.7626 5.38137 18.2374 5.38137 18.5303 5.67426C18.8232 5.96715 18.8232 6.44203 18.5303 6.73492L13.0607 12.2046L18.5303 17.6743C18.8232 17.9672 18.8232 18.442 18.5303 18.7349C18.2374 19.0278 17.7626 19.0278 17.4697 18.7349L12 13.2653L6.53033 18.7349C6.23744 19.0278 5.76256 19.0278 5.46967 18.7349C5.17678 18.442 5.17678 17.9672 5.46967 17.6743L10.9393 12.2046L5.46967 6.73492C5.17678 6.44203 5.17678 5.96715 5.46967 5.67426Z" fill="black"/>
</svg>
