<svg width="24" height="25" viewBox="0 0 24 25" fill="none" xmlns="http://www.w3.org/2000/svg">
<path d="M4.25933 10.3511C3.98688 12.4351 3.82139 14.5528 3.76853 16.6984C6.66451 17.9075 9.41893 19.388 12 21.108C14.5811 19.388 17.3355 17.9075 20.2315 16.6984C20.1786 14.5528 20.0131 12.4352 19.7407 10.3512M4.25933 10.3511C3.38362 10.0568 2.49729 9.78554 1.60107 9.53817C4.84646 7.26333 8.32741 5.30166 12 3.69702C15.6727 5.30167 19.1536 7.26334 22.399 9.53818C21.5028 9.78556 20.6164 10.0568 19.7407 10.3512M4.25933 10.3511C6.94656 11.2544 9.5338 12.3754 12.0001 13.6931C14.4663 12.3754 17.0535 11.2544 19.7407 10.3512M6.75 15.2045C7.16421 15.2045 7.5 14.8687 7.5 14.4545C7.5 14.0403 7.16421 13.7045 6.75 13.7045C6.33579 13.7045 6 14.0403 6 14.4545C6 14.8687 6.33579 15.2045 6.75 15.2045ZM6.75 15.2045V11.5289C8.44147 10.478 10.1936 9.51541 12 8.64776M4.99264 20.1971C6.16421 19.0255 6.75 17.49 6.75 15.9545V14.4545" stroke="black" stroke-width="1.5" stroke-linecap="round" stroke-linejoin="round"/>
</svg>
