<svg width="24" height="25" viewBox="0 0 24 25" fill="none" xmlns="http://www.w3.org/2000/svg">
<path d="M6 13.7045L6 3.95447M6 13.7045C6.82843 13.7045 7.5 14.376 7.5 15.2045C7.5 16.0329 6.82843 16.7045 6 16.7045M6 13.7045C5.17157 13.7045 4.5 14.376 4.5 15.2045C4.5 16.0329 5.17157 16.7045 6 16.7045M6 20.4545L6 16.7045M18 13.7045V3.95447M18 13.7045C18.8284 13.7045 19.5 14.376 19.5 15.2045C19.5 16.0329 18.8284 16.7045 18 16.7045M18 13.7045C17.1716 13.7045 16.5 14.376 16.5 15.2045C16.5 16.0329 17.1716 16.7045 18 16.7045M18 20.4545L18 16.7045M12 7.70447V3.95447M12 7.70447C12.8284 7.70447 13.5 8.37604 13.5 9.20447C13.5 10.0329 12.8284 10.7045 12 10.7045M12 7.70447C11.1716 7.70447 10.5 8.37604 10.5 9.20447C10.5 10.0329 11.1716 10.7045 12 10.7045M12 20.4545V10.7045" stroke="black" stroke-width="1.5" stroke-linecap="round" stroke-linejoin="round"/>
</svg>
