<svg width="24" height="25" viewBox="0 0 24 25" fill="none" xmlns="http://www.w3.org/2000/svg">
<path d="M10.5 6.20447L20.25 6.20447M10.5 6.20447C10.5 7.0329 9.82843 7.70447 9 7.70447C8.17157 7.70447 7.5 7.03289 7.5 6.20447M10.5 6.20447C10.5 5.37604 9.82843 4.70447 9 4.70447C8.17157 4.70447 7.5 5.37604 7.5 6.20447M3.75 6.20447H7.5M10.5 18.2045H20.25M10.5 18.2045C10.5 19.0329 9.82843 19.7045 9 19.7045C8.17157 19.7045 7.5 19.0329 7.5 18.2045M10.5 18.2045C10.5 17.376 9.82843 16.7045 9 16.7045C8.17157 16.7045 7.5 17.376 7.5 18.2045M3.75 18.2045L7.5 18.2045M16.5 12.2045L20.25 12.2045M16.5 12.2045C16.5 13.0329 15.8284 13.7045 15 13.7045C14.1716 13.7045 13.5 13.0329 13.5 12.2045M16.5 12.2045C16.5 11.376 15.8284 10.7045 15 10.7045C14.1716 10.7045 13.5 11.376 13.5 12.2045M3.75 12.2045H13.5" stroke="black" stroke-width="1.5" stroke-linecap="round" stroke-linejoin="round"/>
</svg>
