<svg width="24" height="25" viewBox="0 0 24 25" fill="none" xmlns="http://www.w3.org/2000/svg">
<path d="M20.25 7.70447L19.6246 18.3366C19.5546 19.5259 18.5698 20.4545 17.3785 20.4545H6.62154C5.43022 20.4545 4.44538 19.5259 4.37542 18.3366L3.75 7.70447M9.75 11.8295L12 14.0795M12 14.0795L14.25 16.3295M12 14.0795L14.25 11.8295M12 14.0795L9.75 16.3295M3.375 7.70447H20.625C21.2463 7.70447 21.75 7.20079 21.75 6.57947V5.07947C21.75 4.45815 21.2463 3.95447 20.625 3.95447H3.375C2.75368 3.95447 2.25 4.45815 2.25 5.07947V6.57947C2.25 7.20079 2.75368 7.70447 3.375 7.70447Z" stroke="black" stroke-width="1.5" stroke-linecap="round" stroke-linejoin="round"/>
</svg>
