<svg width="24" height="25" viewBox="0 0 24 25" fill="none" xmlns="http://www.w3.org/2000/svg">
<g clip-path="url(#clip0_1_1462)">
<path d="M7.5 7.70447H6.75C5.50736 7.70447 4.5 8.71183 4.5 9.95447V17.4545C4.5 18.6971 5.50736 19.7045 6.75 19.7045H14.25C15.4926 19.7045 16.5 18.6971 16.5 17.4545V9.95447C16.5 8.71183 15.4926 7.70447 14.25 7.70447H13.5M13.5 4.70447L10.5 1.70447M10.5 1.70447L7.5 4.70447M10.5 1.70447L10.5 12.9545M16.5 10.7045H17.25C18.4926 10.7045 19.5 11.7118 19.5 12.9545V20.4545C19.5 21.6971 18.4926 22.7045 17.25 22.7045H9.75C8.50736 22.7045 7.5 21.6971 7.5 20.4545V19.7045" stroke="black" stroke-width="1.5" stroke-linecap="round" stroke-linejoin="round"/>
</g>
<defs>
<clipPath id="clip0_1_1462">
<rect width="24" height="24" fill="white" transform="translate(0 0.204468)"/>
</clipPath>
</defs>
</svg>
