<svg width="24" height="25" viewBox="0 0 24 25" fill="none" xmlns="http://www.w3.org/2000/svg">
<path d="M19.5 12.2045C19.5 10.9725 19.4536 9.75146 19.3624 8.54287C19.2128 6.55871 17.6458 4.99171 15.6616 4.84204C14.453 4.75088 13.2319 4.70447 12 4.70447C10.7681 4.70447 9.54699 4.75088 8.3384 4.84204C6.35425 4.99171 4.78724 6.55871 4.63757 8.54287C4.62097 8.76299 4.60585 8.98353 4.59222 9.20447M19.5 12.2045L22.5 9.20447M19.5 12.2045L16.5 9.20447M4.5 12.2045C4.5 13.4364 4.54641 14.6575 4.63757 15.8661C4.78724 17.8502 6.35425 19.4172 8.3384 19.5669C9.54699 19.6581 10.7681 19.7045 12 19.7045C13.2319 19.7045 14.453 19.6581 15.6616 19.5669C17.6458 19.4172 19.2128 17.8502 19.3624 15.8661C19.379 15.6459 19.3941 15.4254 19.4078 15.2045M4.5 12.2045L7.5 15.2045M4.5 12.2045L1.5 15.2045" stroke="black" stroke-width="1.5" stroke-linecap="round" stroke-linejoin="round"/>
</svg>
