<svg width="24" height="25" viewBox="0 0 24 25" fill="none" xmlns="http://www.w3.org/2000/svg">
<path d="M16.5 12.2046C16.5 14.6899 14.4853 16.7046 12 16.7046C9.51472 16.7046 7.5 14.6899 7.5 12.2046C7.5 9.71931 9.51472 7.70459 12 7.70459C14.4853 7.70459 16.5 9.71931 16.5 12.2046ZM16.5 12.2046C16.5 13.8614 17.5074 15.2046 18.75 15.2046C19.9926 15.2046 21 13.8615 21 12.2046C21 9.9013 20.1213 7.59799 18.364 5.84063C14.8492 2.32591 9.15076 2.32591 5.63604 5.84063C2.12132 9.35535 2.12132 15.0538 5.63604 18.5686C9.15076 22.0833 14.8492 22.0833 18.364 18.5686M16.5 12.2046V8.45459" stroke="black" stroke-width="1.5" stroke-linecap="round" stroke-linejoin="round"/>
</svg>
