<svg width="24" height="25" viewBox="0 0 24 25" fill="none" xmlns="http://www.w3.org/2000/svg">
<path d="M2.25 18.9546C7.71719 18.9546 13.0136 19.6858 18.0468 21.0558C18.7738 21.2537 19.5 20.7132 19.5 19.9597V18.9546M3.75 4.70459V5.45459C3.75 5.8688 3.41421 6.20459 3 6.20459H2.25M2.25 6.20459V5.82959C2.25 5.20827 2.75368 4.70459 3.375 4.70459H20.25M2.25 6.20459V15.2046M20.25 4.70459V5.45459C20.25 5.8688 20.5858 6.20459 21 6.20459H21.75M20.25 4.70459H20.625C21.2463 4.70459 21.75 5.20827 21.75 5.82959V15.5796C21.75 16.2009 21.2463 16.7046 20.625 16.7046H20.25M21.75 15.2046H21C20.5858 15.2046 20.25 15.5404 20.25 15.9546V16.7046M20.25 16.7046H3.75M3.75 16.7046H3.375C2.75368 16.7046 2.25 16.2009 2.25 15.5796V15.2046M3.75 16.7046V15.9546C3.75 15.5404 3.41421 15.2046 3 15.2046H2.25M15 10.7046C15 12.3614 13.6569 13.7046 12 13.7046C10.3431 13.7046 9 12.3614 9 10.7046C9 9.04774 10.3431 7.70459 12 7.70459C13.6569 7.70459 15 9.04774 15 10.7046ZM18 10.7046H18.0075V10.7121H18V10.7046ZM6 10.7046H6.0075V10.7121H6V10.7046Z" stroke="black" stroke-width="1.5" stroke-linecap="round" stroke-linejoin="round"/>
</svg>
