<svg width="24" height="25" viewBox="0 0 24 25" fill="none" xmlns="http://www.w3.org/2000/svg">
<path d="M9.74997 3.30855V9.02249C9.74997 9.61923 9.51292 10.1915 9.09097 10.6135L4.99998 14.7045M9.74997 3.30855C9.49883 3.3319 9.24881 3.35912 8.99997 3.39015M9.74997 3.30855C10.4907 3.23967 11.2412 3.20447 12 3.20447C12.7587 3.20447 13.5092 3.23967 14.25 3.30855M14.25 3.30855V9.02249C14.25 9.61922 14.487 10.1915 14.909 10.6135L19.8 15.5045M14.25 3.30855C14.5011 3.3319 14.7511 3.35912 15 3.39015M19.8 15.5045L18.2299 15.897C16.1456 16.4181 13.9216 16.1653 12 15.2045C10.0784 14.2437 7.85432 13.9909 5.77007 14.5119L4.99998 14.7045M19.8 15.5045L21.2022 16.9067C22.4341 18.1386 21.8527 20.2247 20.1354 20.5179C17.4911 20.9693 14.773 21.2045 12 21.2045C9.22696 21.2045 6.50888 20.9693 3.86456 20.5179C2.14725 20.2247 1.56588 18.1386 2.79777 16.9067L4.99998 14.7045" stroke="black" stroke-width="1.5" stroke-linecap="round" stroke-linejoin="round"/>
</svg>
