<svg width="24" height="25" viewBox="0 0 24 25" fill="none" xmlns="http://www.w3.org/2000/svg">
<path d="M14.8568 17.2862C16.7514 17.0615 18.5783 16.616 20.3111 15.9763C18.8743 14.3815 17.9998 12.2701 17.9998 9.95447V9.25365C17.9999 9.23727 18 9.22088 18 9.20447C18 5.89076 15.3137 3.20447 12 3.20447C8.68624 3.20447 5.99995 5.89076 5.99995 9.20447L5.99975 9.95447C5.99975 12.2701 5.12523 14.3815 3.68843 15.9763C5.42136 16.6161 7.24839 17.0615 9.14309 17.2862M14.8568 17.2862C13.9199 17.3973 12.9665 17.4545 11.9998 17.4545C11.0331 17.4545 10.0798 17.3973 9.14309 17.2862M14.8568 17.2862C14.9498 17.5756 15 17.8842 15 18.2045C15 19.8613 13.6568 21.2045 12 21.2045C10.3431 21.2045 8.99995 19.8613 8.99995 18.2045C8.99995 17.8842 9.05014 17.5756 9.14309 17.2862M3.12439 7.70447C3.41167 5.99211 4.18248 4.44371 5.29163 3.20447M18.7083 3.20447C19.8174 4.44371 20.5882 5.99211 20.8755 7.70447" stroke="black" stroke-width="1.5" stroke-linecap="round" stroke-linejoin="round"/>
</svg>
