<svg width="24" height="25" viewBox="0 0 24 25" fill="none" xmlns="http://www.w3.org/2000/svg">
<path d="M14.8569 17.2862C16.7514 17.0615 18.5783 16.616 20.3111 15.9763C18.8743 14.3815 17.9998 12.2701 17.9998 9.95447V9.25365C17.9999 9.23727 18 9.22088 18 9.20447C18 5.89076 15.3137 3.20447 12 3.20447C8.68629 3.20447 6 5.89076 6 9.20447L5.9998 9.95447C5.9998 12.2701 5.12527 14.3815 3.68848 15.9763C5.4214 16.6161 7.24843 17.0615 9.14314 17.2862M14.8569 17.2862C13.92 17.3973 12.9666 17.4545 11.9998 17.4545C11.0332 17.4545 10.0799 17.3973 9.14314 17.2862M14.8569 17.2862C14.9498 17.5756 15 17.8842 15 18.2045C15 19.8613 13.6569 21.2045 12 21.2045C10.3431 21.2045 9 19.8613 9 18.2045C9 17.8842 9.05019 17.5756 9.14314 17.2862" stroke="black" stroke-width="1.5" stroke-linecap="round" stroke-linejoin="round"/>
</svg>
