<svg width="24" height="25" viewBox="0 0 24 25" fill="none" xmlns="http://www.w3.org/2000/svg">
<path d="M9.14314 17.2862C10.0799 17.3973 11.0332 17.4545 11.9998 17.4545C12.3306 17.4545 12.6599 17.4478 12.9874 17.4345M9.14314 17.2862C7.24843 17.0615 5.4214 16.6161 3.68848 15.9763C5.02539 14.4924 5.87549 12.5612 5.98723 10.4343M9.14314 17.2862C9.05019 17.5756 9 17.8842 9 18.2045C9 19.8613 10.3431 21.2045 12 21.2045C13.2864 21.2045 14.3837 20.3948 14.8101 19.2572M16.7749 16.9794L21 21.2045M16.7749 16.9794C17.9894 16.7342 19.1706 16.3974 20.3111 15.9763C18.8743 14.3815 17.9998 12.2701 17.9998 9.95447V9.25365L18 9.20447C18 5.89076 15.3137 3.20447 12 3.20447C9.5667 3.20447 7.47171 4.65296 6.53026 6.73473M16.7749 16.9794L6.53026 6.73473M3 3.20447L6.53026 6.73473" stroke="black" stroke-width="1.5" stroke-linecap="round" stroke-linejoin="round"/>
</svg>
