<svg width="24" height="25" viewBox="0 0 24 25" fill="none" xmlns="http://www.w3.org/2000/svg">
<path d="M20.25 14.3544V18.6044C20.25 19.6989 19.4631 20.6404 18.3782 20.7844C16.2915 21.0615 14.1624 21.2045 12 21.2045C9.83757 21.2045 7.70854 21.0615 5.62185 20.7844C4.5369 20.6404 3.75 19.6989 3.75 18.6044V14.3544M20.25 14.3544C20.7219 13.9521 21 13.3433 21 12.6934V8.91016C21 7.82922 20.2321 6.89528 19.1631 6.73533C18.0377 6.56694 16.8995 6.43762 15.75 6.34879M20.25 14.3544C20.0564 14.5194 19.8302 14.6497 19.5771 14.7338C17.1953 15.5257 14.6477 15.9545 12 15.9545C9.35229 15.9545 6.80469 15.5257 4.42289 14.7338C4.16984 14.6497 3.94361 14.5194 3.75 14.3544M3.75 14.3544C3.27808 13.9521 3 13.3433 3 12.6933V8.91016C3 7.82922 3.7679 6.89528 4.83694 6.73533C5.96233 6.56694 7.10049 6.43762 8.25 6.34879M15.75 6.34879V5.45447C15.75 4.21183 14.7426 3.20447 13.5 3.20447H10.5C9.25736 3.20447 8.25 4.21183 8.25 5.45447V6.34879M15.75 6.34879C14.5126 6.25317 13.262 6.20447 12 6.20447C10.738 6.20447 9.48744 6.25317 8.25 6.34879M12 12.9545H12.0075V12.962H12V12.9545Z" stroke="black" stroke-width="1.5" stroke-linecap="round" stroke-linejoin="round"/>
</svg>
