<svg width="24" height="25" viewBox="0 0 24 25" fill="none" xmlns="http://www.w3.org/2000/svg">
<path d="M11.9997 12.9545C13.1482 12.9545 14.2778 13.0351 15.3833 13.1911C16.4196 13.3374 17.2493 14.1579 17.2493 15.2045C17.2493 18.9324 14.8988 21.9545 11.9993 21.9545C9.09977 21.9545 6.74927 18.9324 6.74927 15.2045C6.74927 14.158 7.57879 13.3375 8.61502 13.1913C9.72081 13.0352 10.8508 12.9545 11.9997 12.9545ZM11.9997 12.9545C14.8825 12.9545 17.6469 13.4627 20.2075 14.3945C20.083 16.499 19.6873 18.5304 19.0549 20.4545M11.9997 12.9545C9.11689 12.9545 6.35312 13.4627 3.79248 14.3945C3.91702 16.4989 4.31272 18.5304 4.94512 20.4545M11.9997 12.9545C13.2423 12.9545 14.2498 11.9471 14.2498 10.7045C14.2498 10.6697 14.249 10.635 14.2475 10.6006M11.9997 12.9545C10.757 12.9545 9.74979 11.9471 9.74979 10.7045C9.74979 10.6697 9.75058 10.635 9.75214 10.6006M12.0002 8.45447C12.995 8.45447 13.971 8.37376 14.922 8.21853C15.3246 8.15282 15.6628 7.8607 15.7168 7.45643C15.7388 7.29223 15.7502 7.12467 15.7502 6.95447C15.7502 6.32291 15.594 5.72781 15.3183 5.20568M12.0002 8.45447C11.0053 8.45447 10.0293 8.37376 9.0783 8.21853C8.67576 8.15282 8.33754 7.8607 8.28346 7.45643C8.26149 7.29223 8.25015 7.12467 8.25015 6.95447C8.25015 6.32197 8.40675 5.72604 8.68327 5.20334M12.0002 8.45447C10.7923 8.45447 9.80641 9.40618 9.75214 10.6006M12.0002 8.45447C13.208 8.45447 14.1932 9.40618 14.2475 10.6006M8.68327 5.20334C8.25654 4.91943 7.86824 4.58234 7.52783 4.20153C7.59799 3.57062 7.7986 2.97907 8.10206 2.45447M8.68327 5.20334C9.31221 4.0145 10.5616 3.20447 12.0002 3.20447C13.4397 3.20447 14.6897 4.01557 15.3183 5.20568M15.3183 5.20568C15.7445 4.92251 16.1325 4.58631 16.4728 4.20648C16.4031 3.57371 16.2023 2.98044 15.898 2.45447M4.92097 6.20447C4.71594 7.28533 4.58339 8.39184 4.52856 9.51877C6.19671 10.0647 7.94538 10.4328 9.75214 10.6006M19.0786 6.20447C19.2836 7.28533 19.4162 8.39184 19.471 9.51877C17.8029 10.0647 16.0542 10.4328 14.2475 10.6006" stroke="black" stroke-width="1.5" stroke-linecap="round" stroke-linejoin="round"/>
</svg>
