<svg width="24" height="25" viewBox="0 0 24 25" fill="none" xmlns="http://www.w3.org/2000/svg">
<path d="M13.5 21.2044V13.7044C13.5 13.2902 13.8358 12.9544 14.25 12.9544H17.25C17.6642 12.9544 18 13.2902 18 13.7044V21.2044M13.5 21.2044H2.36088M13.5 21.2044H18M18 21.2044H21.6391M20.25 21.2044V9.55322M3.75 21.2044V9.55347M3.75 9.55347C4.89729 10.2166 6.38977 10.0574 7.37132 9.07586C7.41594 9.03124 7.45886 8.98556 7.50008 8.93891C8.04979 9.56167 8.85402 9.95445 9.75 9.95445C10.646 9.95445 11.4503 9.56163 12 8.93882C12.5497 9.56163 13.354 9.95445 14.25 9.95445C15.1459 9.95445 15.9501 9.56172 16.4998 8.93902C16.541 8.9856 16.5838 9.03121 16.6284 9.07577C17.61 10.0574 19.1027 10.2165 20.25 9.55322M3.75 9.55347C3.52788 9.42509 3.31871 9.26588 3.12868 9.07586C1.95711 7.90428 1.95711 6.00479 3.12868 4.83322L4.31797 3.64393C4.59927 3.36263 4.9808 3.20459 5.37863 3.20459H18.6212C19.019 3.20459 19.4005 3.36263 19.6818 3.64393L20.871 4.83313C22.0426 6.0047 22.0426 7.9042 20.871 9.07577C20.6811 9.26572 20.472 9.42487 20.25 9.55322M6.75 18.2044H10.5C10.9142 18.2044 11.25 17.8687 11.25 17.4544V13.7044C11.25 13.2902 10.9142 12.9544 10.5 12.9544H6.75C6.33579 12.9544 6 13.2902 6 13.7044V17.4544C6 17.8687 6.33579 18.2044 6.75 18.2044Z" stroke="black" stroke-width="1.5" stroke-linecap="round" stroke-linejoin="round"/>
</svg>
