<svg width="24" height="25" viewBox="0 0 24 25" fill="none" xmlns="http://www.w3.org/2000/svg">
<path d="M2.25 21.2045H21.75M3.75 3.20447V21.2045M14.25 3.20447V21.2045M20.25 7.70447V21.2045M6.75 6.95447H7.5M6.75 9.95447H7.5M6.75 12.9545H7.5M10.5 6.95447H11.25M10.5 9.95447H11.25M10.5 12.9545H11.25M6.75 21.2045V17.8295C6.75 17.2081 7.25368 16.7045 7.875 16.7045H10.125C10.7463 16.7045 11.25 17.2081 11.25 17.8295V21.2045M3 3.20447H15M14.25 7.70447H21M17.25 11.4545H17.2575V11.462H17.25V11.4545ZM17.25 14.4545H17.2575V14.462H17.25V14.4545ZM17.25 17.4545H17.2575V17.462H17.25V17.4545Z" stroke="black" stroke-width="1.5" stroke-linecap="round" stroke-linejoin="round"/>
</svg>
