<svg width="24" height="25" viewBox="0 0 24 25" fill="none" xmlns="http://www.w3.org/2000/svg">
<path d="M12 8.45453V6.95453M12 8.45453C10.6448 8.45453 9.30281 8.51069 7.97608 8.6208C6.84499 8.71468 6 9.67776 6 10.8127V13.3259M12 8.45453C13.3552 8.45453 14.6972 8.51069 16.0239 8.6208C17.155 8.71468 18 9.67776 18 10.8127V13.3259M15 8.45453V6.95453M9 8.45453V6.95453M21 16.7045L19.5 17.4545C18.5557 17.9267 17.4443 17.9267 16.5 17.4545C15.5557 16.9824 14.4443 16.9824 13.5 17.4545C12.5557 17.9267 11.4443 17.9267 10.5 17.4545C9.55573 16.9824 8.44427 16.9824 7.5 17.4545C6.55573 17.9267 5.44427 17.9267 4.5 17.4545L3 16.7045M18 13.3259C16.0344 13.0808 14.032 12.9545 12 12.9545C9.96804 12.9545 7.96557 13.0808 6 13.3259M18 13.3259C18.3891 13.3744 18.7768 13.4276 19.163 13.4854C20.2321 13.6453 21 14.5793 21 15.6602V20.8295C21 21.4508 20.4963 21.9545 19.875 21.9545H4.125C3.50368 21.9545 3 21.4508 3 20.8295V15.6602C3 14.5793 3.76793 13.6453 4.83697 13.4854C5.22316 13.4276 5.61086 13.3744 6 13.3259M12.2652 3.31436C12.4117 3.46081 12.4117 3.69825 12.2652 3.84469C12.1188 3.99114 11.8813 3.99114 11.7349 3.84469C11.5884 3.69825 11.5884 3.46081 11.7349 3.31436C11.8104 3.23881 12.0001 3.04919 12.0001 3.04919C12.0001 3.04919 12.1943 3.24346 12.2652 3.31436ZM9.26522 3.31436C9.41167 3.46081 9.41167 3.69825 9.26522 3.84469C9.11878 3.99114 8.88134 3.99114 8.73489 3.84469C8.58844 3.69825 8.58844 3.46081 8.73489 3.31436C8.81044 3.23881 9.00005 3.04919 9.00005 3.04919C9.00005 3.04919 9.19432 3.24346 9.26522 3.31436ZM15.2652 3.31436C15.4117 3.46081 15.4117 3.69825 15.2652 3.84469C15.1188 3.99114 14.8813 3.99114 14.7349 3.84469C14.5884 3.69825 14.5884 3.46081 14.7349 3.31436C14.8104 3.23881 15.0001 3.04919 15.0001 3.04919C15.0001 3.04919 15.1943 3.24346 15.2652 3.31436Z" stroke="black" stroke-width="1.5" stroke-linecap="round" stroke-linejoin="round"/>
</svg>
