<svg width="24" height="25" viewBox="0 0 24 25" fill="none" xmlns="http://www.w3.org/2000/svg">
<path d="M15.75 15.9545V18.2045M8.25 11.4545H8.2575V11.462H8.25V11.4545ZM8.25 13.7045H8.2575V13.712H8.25V13.7045ZM8.25 15.9545H8.2575V15.962H8.25V15.9545ZM8.25 18.2045H8.2575V18.212H8.25V18.2045ZM10.7476 11.4545H10.7551V11.462H10.7476V11.4545ZM10.7476 13.7045H10.7551V13.712H10.7476V13.7045ZM10.7476 15.9545H10.7551V15.962H10.7476V15.9545ZM10.7476 18.2045H10.7551V18.212H10.7476V18.2045ZM13.2524 11.4545H13.2599V11.462H13.2524V11.4545ZM13.2524 13.7045H13.2599V13.712H13.2524V13.7045ZM13.2524 15.9545H13.2599V15.962H13.2524V15.9545ZM13.2524 18.2045H13.2599V18.212H13.2524V18.2045ZM15.75 11.4545H15.7575V11.462H15.75V11.4545ZM15.75 13.7045H15.7575V13.712H15.75V13.7045ZM8.25 6.20447H15.75V8.45447H8.25V6.20447ZM12 2.45447C10.108 2.45447 8.24156 2.56393 6.40668 2.77688C5.30608 2.90461 4.5 3.85347 4.5 4.96145V19.7045C4.5 20.9471 5.50736 21.9545 6.75 21.9545H17.25C18.4926 21.9545 19.5 20.9471 19.5 19.7045V4.96145C19.5 3.85347 18.6939 2.90461 17.5933 2.77688C15.7584 2.56393 13.892 2.45447 12 2.45447Z" stroke="black" stroke-width="1.5" stroke-linecap="round" stroke-linejoin="round"/>
</svg>
