<svg width="24" height="25" viewBox="0 0 24 25" fill="none" xmlns="http://www.w3.org/2000/svg">
<path d="M6.75 3.20447V5.45447M17.25 3.20447V5.45447M3 18.9545V7.70447C3 6.46183 4.00736 5.45447 5.25 5.45447H18.75C19.9926 5.45447 21 6.46183 21 7.70447V18.9545M3 18.9545C3 20.1971 4.00736 21.2045 5.25 21.2045H18.75C19.9926 21.2045 21 20.1971 21 18.9545M3 18.9545V11.4545C3 10.2118 4.00736 9.20447 5.25 9.20447H18.75C19.9926 9.20447 21 10.2118 21 11.4545V18.9545M12 12.9545H12.0075V12.962H12V12.9545ZM12 15.2045H12.0075V15.212H12V15.2045ZM12 17.4545H12.0075V17.462H12V17.4545ZM9.75 15.2045H9.7575V15.212H9.75V15.2045ZM9.75 17.4545H9.7575V17.462H9.75V17.4545ZM7.5 15.2045H7.5075V15.212H7.5V15.2045ZM7.5 17.4545H7.5075V17.462H7.5V17.4545ZM14.25 12.9545H14.2575V12.962H14.25V12.9545ZM14.25 15.2045H14.2575V15.212H14.25V15.2045ZM14.25 17.4545H14.2575V17.462H14.25V17.4545ZM16.5 12.9545H16.5075V12.962H16.5V12.9545ZM16.5 15.2045H16.5075V15.212H16.5V15.2045Z" stroke="black" stroke-width="1.5" stroke-linecap="round" stroke-linejoin="round"/>
</svg>
