<svg width="24" height="25" viewBox="0 0 24 25" fill="none" xmlns="http://www.w3.org/2000/svg">
<path d="M6.82689 6.37936C6.46581 6.958 5.86127 7.33844 5.186 7.43441C4.80655 7.48833 4.42853 7.54669 4.05199 7.60944C2.99912 7.78488 2.25 8.71109 2.25 9.77849V18.2045C2.25 19.4471 3.25736 20.4545 4.5 20.4545H19.5C20.7426 20.4545 21.75 19.4471 21.75 18.2045V9.7785C21.75 8.7111 21.0009 7.78489 19.948 7.60945C19.5715 7.5467 19.1934 7.48834 18.814 7.43441C18.1387 7.33845 17.5342 6.95801 17.1731 6.37937L16.3519 5.06336C15.9734 4.45683 15.3294 4.06285 14.6155 4.02452C13.7496 3.97802 12.8775 3.95447 12 3.95447C11.1225 3.95447 10.2504 3.97802 9.3845 4.02452C8.6706 4.06285 8.02658 4.45683 7.64809 5.06336L6.82689 6.37936Z" stroke="black" stroke-width="1.5" stroke-linecap="round" stroke-linejoin="round"/>
<path d="M16.5 12.9545C16.5 15.4397 14.4853 17.4545 12 17.4545C9.51472 17.4545 7.5 15.4397 7.5 12.9545C7.5 10.4692 9.51472 8.45447 12 8.45447C14.4853 8.45447 16.5 10.4692 16.5 12.9545Z" stroke="black" stroke-width="1.5" stroke-linecap="round" stroke-linejoin="round"/>
<path d="M18.75 10.7045H18.7575V10.712H18.75V10.7045Z" stroke="black" stroke-width="1.5" stroke-linecap="round" stroke-linejoin="round"/>
</svg>
