<svg width="24" height="25" viewBox="0 0 24 25" fill="none" xmlns="http://www.w3.org/2000/svg">
<path d="M3 13.3295C3 12.7081 3.50368 12.2045 4.125 12.2045H6.375C6.99632 12.2045 7.5 12.7081 7.5 13.3295V20.0795C7.5 20.7008 6.99632 21.2045 6.375 21.2045H4.125C3.50368 21.2045 3 20.7008 3 20.0795V13.3295Z" stroke="black" stroke-width="1.5" stroke-linecap="round" stroke-linejoin="round"/>
<path d="M9.75 8.82947C9.75 8.20815 10.2537 7.70447 10.875 7.70447H13.125C13.7463 7.70447 14.25 8.20815 14.25 8.82947V20.0795C14.25 20.7008 13.7463 21.2045 13.125 21.2045H10.875C10.2537 21.2045 9.75 20.7008 9.75 20.0795V8.82947Z" stroke="black" stroke-width="1.5" stroke-linecap="round" stroke-linejoin="round"/>
<path d="M16.5 4.32947C16.5 3.70815 17.0037 3.20447 17.625 3.20447H19.875C20.4963 3.20447 21 3.70815 21 4.32947V20.0795C21 20.7008 20.4963 21.2045 19.875 21.2045H17.625C17.0037 21.2045 16.5 20.7008 16.5 20.0795V4.32947Z" stroke="black" stroke-width="1.5" stroke-linecap="round" stroke-linejoin="round"/>
</svg>
