<svg width="24" height="25" viewBox="0 0 24 25" fill="none" xmlns="http://www.w3.org/2000/svg">
<path d="M7.5 8.45447H16.5M7.5 11.4545H12M2.25 12.9638C2.25 14.5649 3.37341 15.9585 4.95746 16.1914C6.08596 16.3574 7.22724 16.484 8.37985 16.57C8.73004 16.5961 9.05017 16.7797 9.24496 17.0719L12 21.2045L14.755 17.072C14.9498 16.7798 15.2699 16.5961 15.6201 16.57C16.7727 16.4841 17.914 16.3575 19.0425 16.1915C20.6266 15.9587 21.75 14.565 21.75 12.9639V6.94502C21.75 5.34393 20.6266 3.95029 19.0425 3.7174C16.744 3.37948 14.3926 3.20447 12.0003 3.20447C9.60776 3.20447 7.25612 3.37951 4.95747 3.71749C3.37342 3.9504 2.25 5.34403 2.25 6.94511V12.9638Z" stroke="black" stroke-width="1.5" stroke-linecap="round" stroke-linejoin="round"/>
</svg>
