<svg width="24" height="25" viewBox="0 0 24 25" fill="none" xmlns="http://www.w3.org/2000/svg">
<path d="M12 20.4545C16.9706 20.4545 21 16.7608 21 12.2045C21 7.64812 16.9706 3.95447 12 3.95447C7.02944 3.95447 3 7.64812 3 12.2045C3 14.3081 3.85891 16.2278 5.2728 17.6851C5.70538 18.1309 6.01357 18.7237 5.85933 19.3254C5.68829 19.9928 5.368 20.6003 4.93579 21.1104C5.0918 21.1384 5.25 21.1602 5.40967 21.1758C5.60376 21.1948 5.80078 21.2045 6 21.2045C7.28201 21.2045 8.47016 20.8023 9.44517 20.1173C10.2551 20.3367 11.1125 20.4545 12 20.4545Z" stroke="black" stroke-width="1.5" stroke-linecap="round" stroke-linejoin="round"/>
</svg>
