<svg width="24" height="25" viewBox="0 0 24 25" fill="none" xmlns="http://www.w3.org/2000/svg">
<path d="M8.625 9.95447C8.625 10.1616 8.45711 10.3295 8.25 10.3295C8.04289 10.3295 7.875 10.1616 7.875 9.95447C7.875 9.74736 8.04289 9.57947 8.25 9.57947C8.45711 9.57947 8.625 9.74736 8.625 9.95447ZM8.625 9.95447H8.25M12.375 9.95447C12.375 10.1616 12.2071 10.3295 12 10.3295C11.7929 10.3295 11.625 10.1616 11.625 9.95447C11.625 9.74736 11.7929 9.57947 12 9.57947C12.2071 9.57947 12.375 9.74736 12.375 9.95447ZM12.375 9.95447H12M16.125 9.95447C16.125 10.1616 15.9571 10.3295 15.75 10.3295C15.5429 10.3295 15.375 10.1616 15.375 9.95447C15.375 9.74736 15.5429 9.57947 15.75 9.57947C15.9571 9.57947 16.125 9.74736 16.125 9.95447ZM16.125 9.95447H15.75M2.25 12.9638C2.25 14.5649 3.37341 15.9585 4.95746 16.1914C6.04357 16.3511 7.14151 16.4744 8.25 16.5601V21.2045L12.4335 17.021C12.6402 16.8143 12.9193 16.6967 13.2116 16.6895C15.1872 16.6406 17.1331 16.4723 19.0425 16.1915C20.6266 15.9587 21.75 14.565 21.75 12.9639V6.94502C21.75 5.34393 20.6266 3.95029 19.0425 3.7174C16.744 3.37948 14.3926 3.20447 12.0003 3.20447C9.60776 3.20447 7.25612 3.37951 4.95747 3.71749C3.37342 3.9504 2.25 5.34403 2.25 6.94511V12.9638Z" stroke="black" stroke-width="1.5" stroke-linecap="round" stroke-linejoin="round"/>
</svg>
