<svg width="24" height="25" viewBox="0 0 24 25" fill="none" xmlns="http://www.w3.org/2000/svg">
<path d="M20.25 8.7155C21.1341 8.99995 21.75 9.84367 21.75 10.8127V15.0983C21.75 16.2349 20.9026 17.1987 19.7697 17.2912C19.4308 17.3188 19.0909 17.343 18.75 17.3637V20.4545L15.75 17.4545C14.3963 17.4545 13.0556 17.3993 11.7302 17.2911C11.4319 17.2667 11.1534 17.182 10.9049 17.0495M20.25 8.7155C20.0986 8.66679 19.9393 8.63447 19.7739 8.62075C18.4472 8.51063 17.1051 8.45447 15.75 8.45447C14.3948 8.45447 13.0528 8.51062 11.7261 8.62074C10.595 8.71462 9.75 9.6777 9.75 10.8127V15.0982C9.75 15.9355 10.2099 16.679 10.9049 17.0495M20.25 8.7155V6.84178C20.25 5.22036 19.0983 3.81511 17.4903 3.60638C15.4478 3.34122 13.365 3.20447 11.2503 3.20447C9.13533 3.20447 7.05233 3.34125 5.00963 3.60646C3.40173 3.81521 2.25 5.22045 2.25 6.84185V13.0671C2.25 14.6885 3.40173 16.0937 5.00964 16.3025C5.58661 16.3774 6.16679 16.4421 6.75 16.4963V21.2045L10.9049 17.0495" stroke="black" stroke-width="1.5" stroke-linecap="round" stroke-linejoin="round"/>
</svg>
