<svg width="24" height="25" viewBox="0 0 24 25" fill="none" xmlns="http://www.w3.org/2000/svg">
<path d="M2.25 12.9638C2.25 14.5649 3.37341 15.9585 4.95746 16.1914C6.04357 16.3511 7.14151 16.4744 8.25 16.5601V21.2045L12.326 17.1284C12.6017 16.8528 12.9738 16.6964 13.3635 16.6855C15.2869 16.6319 17.1821 16.4651 19.0425 16.1915C20.6266 15.9587 21.75 14.565 21.75 12.9639V6.94502C21.75 5.34393 20.6266 3.95029 19.0425 3.7174C16.744 3.37948 14.3926 3.20447 12.0003 3.20447C9.60776 3.20447 7.25612 3.37951 4.95747 3.71749C3.37342 3.9504 2.25 5.34403 2.25 6.94511V12.9638Z" stroke="black" stroke-width="1.5" stroke-linecap="round" stroke-linejoin="round"/>
</svg>
