<svg width="24" height="25" viewBox="0 0 24 25" fill="none" xmlns="http://www.w3.org/2000/svg">
<path d="M2.25 12.9638C2.25 14.5649 3.37341 15.9585 4.95746 16.1914C6.02548 16.3485 7.10495 16.4703 8.19464 16.5558C8.66142 16.5924 9.08828 16.8369 9.348 17.2265L12 21.2045L14.652 17.2265C14.9117 16.8369 15.3386 16.5925 15.8053 16.5559C16.895 16.4704 17.9745 16.3486 19.0425 16.1915C20.6266 15.9587 21.75 14.565 21.75 12.9639V6.94502C21.75 5.34393 20.6266 3.95029 19.0425 3.7174C16.744 3.37948 14.3926 3.20447 12.0003 3.20447C9.60776 3.20447 7.25612 3.37951 4.95747 3.71749C3.37342 3.9504 2.25 5.34403 2.25 6.94511V12.9638Z" stroke="black" stroke-width="1.5" stroke-linecap="round" stroke-linejoin="round"/>
</svg>
