<svg width="24" height="25" viewBox="0 0 24 25" fill="none" xmlns="http://www.w3.org/2000/svg">
<path d="M20.25 6.57959C20.25 8.85776 16.5563 10.7046 12 10.7046C7.44365 10.7046 3.75 8.85776 3.75 6.57959M20.25 6.57959C20.25 4.30142 16.5563 2.45459 12 2.45459C7.44365 2.45459 3.75 4.30142 3.75 6.57959M20.25 6.57959V17.8296C20.25 20.1078 16.5563 21.9546 12 21.9546C7.44365 21.9546 3.75 20.1078 3.75 17.8296V6.57959M20.25 6.57959V10.3296M3.75 6.57959V10.3296M20.25 10.3296V14.0796C20.25 16.3578 16.5563 18.2046 12 18.2046C7.44365 18.2046 3.75 16.3578 3.75 14.0796V10.3296M20.25 10.3296C20.25 12.6078 16.5563 14.4546 12 14.4546C7.44365 14.4546 3.75 12.6078 3.75 10.3296" stroke="black" stroke-width="1.5" stroke-linecap="round" stroke-linejoin="round"/>
</svg>
