<svg width="24" height="25" viewBox="0 0 24 25" fill="none" xmlns="http://www.w3.org/2000/svg">
<path d="M15.6657 4.09248C15.3991 3.14731 14.5305 2.45459 13.5 2.45459H10.5C9.46954 2.45459 8.60087 3.14731 8.33426 4.09248M15.6657 4.09248C15.7206 4.28709 15.75 4.49241 15.75 4.70459V4.70459C15.75 5.1188 15.4142 5.45459 15 5.45459H9C8.58579 5.45459 8.25 5.1188 8.25 4.70459V4.70459C8.25 4.49241 8.27937 4.28709 8.33426 4.09248M15.6657 4.09248C16.3119 4.14127 16.9545 4.20287 17.5933 4.277C18.6939 4.40473 19.5 5.35359 19.5 6.46158V19.7046C19.5 20.9472 18.4926 21.9546 17.25 21.9546H6.75C5.50736 21.9546 4.5 20.9472 4.5 19.7046V6.46158C4.5 5.35359 5.30608 4.40473 6.40668 4.277C7.04547 4.20287 7.68808 4.14127 8.33426 4.09248" stroke="black" stroke-width="1.5" stroke-linecap="round" stroke-linejoin="round"/>
</svg>
