<svg width="24" height="25" viewBox="0 0 24 25" fill="none" xmlns="http://www.w3.org/2000/svg">
<path d="M9 12.2046H12.75M9 15.2046H12.75M9 18.2046H12.75M15.75 18.9546H18C19.2426 18.9546 20.25 17.9472 20.25 16.7046V6.31281C20.25 5.17783 19.405 4.21474 18.2739 4.12086C17.9006 4.08988 17.5261 4.06317 17.1505 4.04078M11.3495 4.04078C11.2848 4.25061 11.25 4.47353 11.25 4.70459C11.25 5.1188 11.5858 5.45459 12 5.45459H16.5C16.9142 5.45459 17.25 5.1188 17.25 4.70459C17.25 4.47353 17.2152 4.25061 17.1505 4.04078M11.3495 4.04078C11.6328 3.12216 12.4884 2.45459 13.5 2.45459H15C16.0116 2.45459 16.8672 3.12216 17.1505 4.04078M11.3495 4.04078C10.9739 4.06317 10.5994 4.08988 10.2261 4.12086C9.09499 4.21474 8.25 5.17783 8.25 6.31281V8.45459M8.25 8.45459H4.875C4.25368 8.45459 3.75 8.95827 3.75 9.57959V20.8296C3.75 21.4509 4.25368 21.9546 4.875 21.9546H14.625C15.2463 21.9546 15.75 21.4509 15.75 20.8296V9.57959C15.75 8.95827 15.2463 8.45459 14.625 8.45459H8.25ZM6.75 12.2046H6.7575V12.2121H6.75V12.2046ZM6.75 15.2046H6.7575V15.2121H6.75V15.2046ZM6.75 18.2046H6.7575V18.2121H6.75V18.2046Z" stroke="black" stroke-width="1.5" stroke-linecap="round" stroke-linejoin="round"/>
</svg>
