<svg width="24" height="25" viewBox="0 0 24 25" fill="none" xmlns="http://www.w3.org/2000/svg">
<path d="M8.25 7.70459V6.31281C8.25 5.17783 9.09499 4.21474 10.2261 4.12086C10.5994 4.08988 10.9739 4.06317 11.3495 4.04078M15.75 18.2046H18C19.2426 18.2046 20.25 17.1972 20.25 15.9546V6.31281C20.25 5.17783 19.405 4.21474 18.2739 4.12086C17.9006 4.08988 17.5261 4.06317 17.1505 4.04078M15.75 18.9546V17.0796C15.75 15.2156 14.239 13.7046 12.375 13.7046H10.875C10.2537 13.7046 9.75 13.2009 9.75 12.5796V11.0796C9.75 9.21563 8.23896 7.70459 6.375 7.70459H5.25M17.1505 4.04078C16.8672 3.12216 16.0116 2.45459 15 2.45459H13.5C12.4884 2.45459 11.6328 3.12216 11.3495 4.04078M17.1505 4.04078C17.2152 4.25061 17.25 4.47353 17.25 4.70459V5.45459H11.25V4.70459C11.25 4.47353 11.2848 4.25061 11.3495 4.04078M6.75 7.70459H4.875C4.25368 7.70459 3.75 8.20827 3.75 8.82959V20.8296C3.75 21.4509 4.25368 21.9546 4.875 21.9546H14.625C15.2463 21.9546 15.75 21.4509 15.75 20.8296V16.7046C15.75 11.734 11.7206 7.70459 6.75 7.70459Z" stroke="black" stroke-width="1.5" stroke-linecap="round" stroke-linejoin="round"/>
</svg>
