<svg width="24" height="25" viewBox="0 0 24 25" fill="none" xmlns="http://www.w3.org/2000/svg">
<path d="M2.25 15.2046C2.25 17.6899 4.26472 19.7046 6.75 19.7046H18C20.0711 19.7046 21.75 18.0257 21.75 15.9546C21.75 14.3525 20.7453 12.985 19.3316 12.4479C19.4407 12.137 19.5 11.8027 19.5 11.4546C19.5 9.79774 18.1569 8.45459 16.5 8.45459C16.1767 8.45459 15.8654 8.50572 15.5737 8.60034C14.9765 6.35719 12.9312 4.70459 10.5 4.70459C7.6005 4.70459 5.25 7.05509 5.25 9.95459C5.25 10.2878 5.28105 10.6138 5.3404 10.9298C3.54555 11.5213 2.25 13.2116 2.25 15.2046Z" stroke="black" stroke-width="1.5" stroke-linecap="round" stroke-linejoin="round"/>
</svg>
