<svg width="24" height="25" viewBox="0 0 24 25" fill="none" xmlns="http://www.w3.org/2000/svg">
<path d="M12 16.7046L12 9.95459M12 9.95459L15 12.9546M12 9.95459L9 12.9546M6.75 19.7046C4.26472 19.7046 2.25 17.6899 2.25 15.2046C2.25 13.2116 3.54555 11.5213 5.3404 10.9298C5.28105 10.6138 5.25 10.2878 5.25 9.95459C5.25 7.05509 7.60051 4.70459 10.5 4.70459C12.9312 4.70459 14.9765 6.35719 15.5737 8.60034C15.8654 8.50572 16.1767 8.45459 16.5 8.45459C18.1569 8.45459 19.5 9.79774 19.5 11.4546C19.5 11.8027 19.4407 12.137 19.3316 12.4479C20.7453 12.985 21.75 14.3525 21.75 15.9546C21.75 18.0257 20.0711 19.7046 18 19.7046H6.75Z" stroke="black" stroke-width="1.5" stroke-linecap="round" stroke-linejoin="round"/>
</svg>
