<svg width="24" height="25" viewBox="0 0 24 25" fill="none" xmlns="http://www.w3.org/2000/svg">
<path d="M9.59353 4.1446C9.68394 3.60213 10.1533 3.20454 10.7032 3.20454H13.2972C13.8471 3.20454 14.3165 3.60213 14.4069 4.1446L14.6204 5.42564C14.6827 5.79969 14.9327 6.11126 15.2645 6.2949C15.3386 6.33596 15.412 6.37838 15.4844 6.42212C15.8094 6.61838 16.2048 6.67941 16.5603 6.5462L17.7772 6.09032C18.2922 5.89739 18.8712 6.10505 19.1461 6.58132L20.4431 8.82776C20.7181 9.30402 20.6084 9.90928 20.1839 10.2588L19.1795 11.0856C18.887 11.3264 18.742 11.6983 18.749 12.0771C18.7498 12.1195 18.7502 12.162 18.7502 12.2045C18.7502 12.2471 18.7498 12.2896 18.749 12.332C18.742 12.7108 18.887 13.0827 19.1795 13.3235L20.1839 14.1503C20.6084 14.4998 20.7181 15.1051 20.4431 15.5813L19.1461 17.8278C18.8712 18.304 18.2922 18.5117 17.7772 18.3188L16.5603 17.8629C16.2048 17.7297 15.8094 17.7907 15.4844 17.987C15.412 18.0307 15.3386 18.0731 15.2645 18.1142C14.9327 18.2978 14.6827 18.6094 14.6204 18.9834L14.4069 20.2645C14.3165 20.807 13.8471 21.2045 13.2972 21.2045H10.7032C10.1533 21.2045 9.68394 20.807 9.59353 20.2645L9.38002 18.9834C9.31768 18.6094 9.06771 18.2978 8.73594 18.1142C8.66176 18.0731 8.58844 18.0307 8.51601 17.987C8.19098 17.7907 7.79565 17.7297 7.44008 17.8629L6.22322 18.3188C5.70822 18.5117 5.12923 18.304 4.85426 17.8278L3.55728 15.5813C3.28231 15.1051 3.39196 14.4998 3.81654 14.1503L4.82089 13.3235C5.1134 13.0827 5.2584 12.7108 5.25138 12.332C5.2506 12.2896 5.2502 12.2471 5.2502 12.2045C5.2502 12.162 5.2506 12.1195 5.25138 12.0771C5.2584 11.6983 5.1134 11.3264 4.82089 11.0856L3.81654 10.2588C3.39196 9.90929 3.28231 9.30404 3.55728 8.82777L4.85426 6.58133C5.12923 6.10507 5.70822 5.8974 6.22321 6.09034L7.44007 6.54621C7.79563 6.67942 8.19096 6.61839 8.516 6.42212C8.58843 6.37838 8.66176 6.33597 8.73594 6.2949C9.06771 6.11126 9.31768 5.79969 9.38002 5.42564L9.59353 4.1446Z" stroke="black" stroke-width="1.5" stroke-linecap="round" stroke-linejoin="round"/>
<path d="M15 12.2045C15 13.8613 13.6568 15.2045 12 15.2045C10.3431 15.2045 8.99997 13.8613 8.99997 12.2045C8.99997 10.5476 10.3431 9.20446 12 9.20446C13.6568 9.20446 15 10.5476 15 12.2045Z" stroke="black" stroke-width="1.5" stroke-linecap="round" stroke-linejoin="round"/>
</svg>
