<svg width="24" height="25" viewBox="0 0 24 25" fill="none" xmlns="http://www.w3.org/2000/svg">
<path d="M10.3426 4.14449C10.433 3.60203 10.9023 3.20444 11.4523 3.20444H12.5462C13.0962 3.20444 13.5655 3.60203 13.6559 4.14449L13.8049 5.0383C13.8756 5.46257 14.1886 5.80282 14.5858 5.96775C14.9832 6.13276 15.4396 6.11072 15.7897 5.86061L16.5273 5.33377C16.9748 5.01412 17.5878 5.06486 17.9767 5.45373L18.7502 6.22728C19.1391 6.61615 19.1898 7.22916 18.8702 7.67666L18.3432 8.4145C18.0931 8.76456 18.0711 9.22077 18.236 9.61807C18.4009 10.0152 18.7411 10.3281 19.1652 10.3988L20.0592 10.5478C20.6017 10.6382 20.9993 11.1075 20.9993 11.6575V12.7514C20.9993 13.3014 20.6017 13.7707 20.0592 13.8611L19.1654 14.0101C18.7411 14.0808 18.4009 14.3937 18.236 14.791C18.071 15.1884 18.093 15.6447 18.3431 15.9948L18.8698 16.7323C19.1895 17.1798 19.1388 17.7928 18.7499 18.1817L17.9763 18.9552C17.5875 19.3441 16.9745 19.3948 16.5269 19.0752L15.7893 18.5483C15.4393 18.2982 14.983 18.2762 14.5857 18.4412C14.1885 18.6061 13.8756 18.9463 13.8049 19.3705L13.6559 20.2644C13.5655 20.8068 13.0962 21.2044 12.5462 21.2044H11.4523C10.9023 21.2044 10.433 20.8068 10.3426 20.2644L10.1936 19.3706C10.1229 18.9463 9.80999 18.6061 9.41275 18.4411C9.01535 18.2761 8.55902 18.2982 8.20887 18.5483L7.47125 19.0751C7.02374 19.3948 6.41073 19.3441 6.02186 18.9552L5.24831 18.1816C4.85944 17.7928 4.80871 17.1798 5.12835 16.7322L5.65539 15.9944C5.90543 15.6443 5.92747 15.1881 5.76252 14.7908C5.59764 14.3937 5.25746 14.0808 4.83329 14.0101L3.93932 13.8611C3.39686 13.7707 2.99927 13.3014 2.99927 12.7514V11.6575C2.99927 11.1075 3.39686 10.6382 3.93932 10.5478L4.83312 10.3988C5.2574 10.3281 5.59765 10.0152 5.76259 9.61791C5.92759 9.22049 5.90556 8.76413 5.65544 8.41397L5.12875 7.6766C4.8091 7.22909 4.85983 6.61608 5.2487 6.22721L6.02225 5.45366C6.41112 5.06479 7.02413 5.01406 7.47164 5.33371L8.20924 5.86056C8.55931 6.11061 9.01555 6.13266 9.41287 5.9677C9.81004 5.80281 10.1229 5.46262 10.1936 5.03844L10.3426 4.14449Z" stroke="black" stroke-width="1.5" stroke-linecap="round" stroke-linejoin="round"/>
<path d="M15 12.2045C15 13.8613 13.6568 15.2045 12 15.2045C10.3431 15.2045 8.99997 13.8613 8.99997 12.2045C8.99997 10.5476 10.3431 9.20446 12 9.20446C13.6568 9.20446 15 10.5476 15 12.2045Z" stroke="black" stroke-width="1.5" stroke-linecap="round" stroke-linejoin="round"/>
</svg>
