<svg width="24" height="25" viewBox="0 0 24 25" fill="none" xmlns="http://www.w3.org/2000/svg">
<path d="M4.50073 12.2038C4.50073 16.346 7.8586 19.7038 12.0007 19.7038C16.1429 19.7038 19.5007 16.346 19.5007 12.2038M4.50073 12.2038C4.50073 8.06171 7.8586 4.70384 12.0007 4.70384C16.1429 4.70384 19.5007 8.06171 19.5007 12.2038M4.50073 12.2038L3.00073 12.2038M19.5007 12.2038L21.0007 12.2038M19.5007 12.2038L12.0007 12.2038M3.54329 15.282L4.95283 14.769M19.0482 9.6387L20.4578 9.12567M5.1062 17.9896L6.25527 17.0254M17.7459 7.38356L18.895 6.41938M7.50064 19.9988L8.25064 18.6998M15.7506 5.70943L16.5006 4.41039M10.4378 21.0678L10.6983 19.5906M13.303 4.81852L13.5635 3.34131M13.5635 21.0679L13.303 19.5907M10.6983 4.81856L10.4378 3.34135M16.5007 19.9987L15.7507 18.6997M7.50068 4.41024L12.0007 12.2038M18.8952 17.9889L17.7461 17.0248M6.25542 7.38294L5.10635 6.41876M20.458 15.2822L19.0485 14.7692M4.95308 9.63885L3.54354 9.12582M12.0007 12.2038L8.25073 18.699" stroke="black" stroke-width="1.5" stroke-linecap="round" stroke-linejoin="round"/>
</svg>
