<svg width="24" height="25" viewBox="0 0 24 25" fill="none" xmlns="http://www.w3.org/2000/svg">
<path d="M9 17.4545V18.4618C9 19.2575 8.68393 20.0205 8.12132 20.5831L7.5 21.2045H16.5L15.8787 20.5831C15.3161 20.0205 15 19.2575 15 18.4618V17.4545M21 5.45447V15.2045C21 16.4471 19.9926 17.4545 18.75 17.4545H5.25C4.00736 17.4545 3 16.4471 3 15.2045V5.45447M21 5.45447C21 4.21183 19.9926 3.20447 18.75 3.20447H5.25C4.00736 3.20447 3 4.21183 3 5.45447M21 5.45447V12.2045C21 13.4471 19.9926 14.4545 18.75 14.4545H5.25C4.00736 14.4545 3 13.4471 3 12.2045V5.45447" stroke="black" stroke-width="1.5" stroke-linecap="round" stroke-linejoin="round"/>
</svg>
