<svg width="24" height="25" viewBox="0 0 24 25" fill="none" xmlns="http://www.w3.org/2000/svg">
<path d="M8.25 3.20447V4.70447M4.5 8.45447H3M21 8.45447H19.5M4.5 12.2045H3M21 12.2045H19.5M4.5 15.9545H3M21 15.9545H19.5M8.25 19.7045V21.2045M12 3.20447V4.70447M12 19.7045V21.2045M15.75 3.20447V4.70447M15.75 19.7045V21.2045M6.75 19.7045H17.25C18.4926 19.7045 19.5 18.6971 19.5 17.4545V6.95447C19.5 5.71183 18.4926 4.70447 17.25 4.70447H6.75C5.50736 4.70447 4.5 5.71183 4.5 6.95447V17.4545C4.5 18.6971 5.50736 19.7045 6.75 19.7045ZM7.5 7.70447H16.5V16.7045H7.5V7.70447Z" stroke="black" stroke-width="1.5" stroke-linecap="round" stroke-linejoin="round"/>
</svg>
