<svg width="24" height="25" viewBox="0 0 24 25" fill="none" xmlns="http://www.w3.org/2000/svg">
<path d="M21 7.70447L18.75 6.39197M21 7.70447V9.95447M21 7.70447L18.75 9.01697M3 7.70447L5.25 6.39197M3 7.70447L5.25 9.01697M3 7.70447V9.95447M12 12.9545L14.25 11.642M12 12.9545L9.75 11.642M12 12.9545V15.2045M12 21.9545L14.25 20.642M12 21.9545V19.7045M12 21.9545L9.75 20.642M9.75 3.76697L12 2.45447L14.25 3.76697M21 14.4545V16.7045L18.75 18.017M5.25 18.017L3 16.7045V14.4545" stroke="black" stroke-width="1.5" stroke-linecap="round" stroke-linejoin="round"/>
</svg>
