<svg width="24" height="25" viewBox="0 0 24 25" fill="none" xmlns="http://www.w3.org/2000/svg">
<path d="M14.1213 7.83323C12.9497 6.66166 11.0503 6.66166 9.87868 7.83323C9.37424 8.33768 9.08699 8.97706 9.01694 9.63519C8.9944 9.84698 9.01512 10.0603 9.04524 10.2711L9.5512 13.8129C9.68065 14.719 9.5307 15.6431 9.12135 16.4618L9 16.7045L10.5385 16.1916C11.0003 16.0377 11.4997 16.0377 11.9615 16.1916L12.6158 16.4097C13.182 16.5985 13.7999 16.5545 14.3336 16.2877L15 15.9545M8.25 12.2045H12M21 12.2045C21 17.175 16.9706 21.2045 12 21.2045C7.02944 21.2045 3 17.175 3 12.2045C3 7.2339 7.02944 3.20447 12 3.20447C16.9706 3.20447 21 7.2339 21 12.2045Z" stroke="black" stroke-width="1.5" stroke-linecap="round" stroke-linejoin="round"/>
</svg>
