<svg width="24" height="25" viewBox="0 0 24 25" fill="none" xmlns="http://www.w3.org/2000/svg">
<path d="M12 6.20447V18.2045M9 15.3863L9.87887 16.0455C11.0504 16.9241 12.9498 16.9241 14.1214 16.0455C15.2929 15.1668 15.2929 13.7422 14.1214 12.8635C13.5355 12.4241 12.7677 12.2044 11.9999 12.2045C11.275 12.2045 10.5502 11.9849 9.99709 11.5455C8.891 10.6668 8.891 9.24218 9.9971 8.3635C11.1032 7.48482 12.8965 7.48483 14.0026 8.3635L14.4175 8.69309M21 12.2045C21 17.175 16.9706 21.2045 12 21.2045C7.02944 21.2045 3 17.175 3 12.2045C3 7.2339 7.02944 3.20447 12 3.20447C16.9706 3.20447 21 7.2339 21 12.2045Z" stroke="black" stroke-width="1.5" stroke-linecap="round" stroke-linejoin="round"/>
</svg>
