<svg width="24" height="25" viewBox="0 0 24 25" fill="none" xmlns="http://www.w3.org/2000/svg">
<path d="M8.25 7.70443L8.66459 7.49714C9.16327 7.2478 9.75 7.61042 9.75 8.16796V10.7044M9.75 10.7044H15.75M9.75 10.7044H8.25M9.75 10.7044V16.1428C9.75 16.4966 9.91144 16.8395 10.2229 17.0075C10.7518 17.2926 11.357 17.4545 12 17.4545C13.8142 17.4545 15.3275 16.1661 15.675 14.4545C15.7579 14.0458 15.412 13.7045 14.995 13.7045H14.25M21 12.2045C21 17.175 16.9706 21.2045 12 21.2045C7.02944 21.2045 3 17.175 3 12.2045C3 7.2339 7.02944 3.20447 12 3.20447C16.9706 3.20447 21 7.2339 21 12.2045Z" stroke="black" stroke-width="1.5" stroke-linecap="round" stroke-linejoin="round"/>
</svg>
