<svg width="24" height="25" viewBox="0 0 24 25" fill="none" xmlns="http://www.w3.org/2000/svg">
<path d="M10.125 2.45447H5.625C5.00368 2.45447 4.5 2.95815 4.5 3.57947V20.8295C4.5 21.4508 5.00368 21.9545 5.625 21.9545H18.375C18.9963 21.9545 19.5 21.4508 19.5 20.8295V11.8295M10.125 2.45447H10.5C15.4706 2.45447 19.5 6.48391 19.5 11.4545V11.8295M10.125 2.45447C11.989 2.45447 13.5 3.96551 13.5 5.82947V7.32947C13.5 7.95079 14.0037 8.45447 14.625 8.45447H16.125C17.989 8.45447 19.5 9.96551 19.5 11.8295M9 15.2045L11.25 17.4545L15 12.2045" stroke="black" stroke-width="1.5" stroke-linecap="round" stroke-linejoin="round"/>
</svg>
