<svg width="24" height="25" viewBox="0 0 24 25" fill="none" xmlns="http://www.w3.org/2000/svg">
<path d="M19.5 14.4545V11.8295C19.5 9.96551 17.989 8.45447 16.125 8.45447H14.625C14.0037 8.45447 13.5 7.95079 13.5 7.32947V5.82947C13.5 3.96551 11.989 2.45447 10.125 2.45447H8.25M13.4812 15.9356L15 17.4545M10.5 2.45447H5.625C5.00368 2.45447 4.5 2.95815 4.5 3.57947V20.0795C4.5 20.7008 5.00368 21.2045 5.625 21.2045H18.375C18.9963 21.2045 19.5 20.7008 19.5 20.0795V11.4545C19.5 6.48391 15.4706 2.45447 10.5 2.45447ZM14.25 14.0795C14.25 15.5292 13.0747 16.7045 11.625 16.7045C10.1753 16.7045 9 15.5292 9 14.0795C9 12.6297 10.1753 11.4545 11.625 11.4545C13.0747 11.4545 14.25 12.6297 14.25 14.0795Z" stroke="black" stroke-width="1.5" stroke-linecap="round" stroke-linejoin="round"/>
</svg>
