<svg width="24" height="25" viewBox="0 0 24 25" fill="none" xmlns="http://www.w3.org/2000/svg">
<path d="M15.75 17.4545V20.8295C15.75 21.4508 15.2463 21.9545 14.625 21.9545H4.875C4.25368 21.9545 3.75 21.4508 3.75 20.8295V8.07947C3.75 7.45815 4.25368 6.95447 4.875 6.95447H6.75C7.26107 6.95447 7.76219 6.99707 8.25 7.07891M15.75 17.4545H19.125C19.7463 17.4545 20.25 16.9508 20.25 16.3295V11.4545C20.25 6.99497 17.0066 3.29302 12.75 2.57891C12.2622 2.49707 11.7611 2.45447 11.25 2.45447H9.375C8.75368 2.45447 8.25 2.95815 8.25 3.57947V7.07891M15.75 17.4545H9.375C8.75368 17.4545 8.25 16.9508 8.25 16.3295V7.07891M20.25 13.7045V11.8295C20.25 9.96551 18.739 8.45447 16.875 8.45447H15.375C14.7537 8.45447 14.25 7.95079 14.25 7.32947V5.82947C14.25 3.96551 12.739 2.45447 10.875 2.45447H9.75" stroke="black" stroke-width="1.5" stroke-linecap="round" stroke-linejoin="round"/>
</svg>
