<svg width="24" height="25" viewBox="0 0 24 25" fill="none" xmlns="http://www.w3.org/2000/svg">
<path d="M12 6.95447C11.5858 6.95447 11.25 6.61868 11.25 6.20447C11.25 5.79025 11.5858 5.45447 12 5.45447C12.4142 5.45447 12.75 5.79025 12.75 6.20447C12.75 6.61868 12.4142 6.95447 12 6.95447Z" stroke="black" stroke-width="1.5" stroke-linecap="round" stroke-linejoin="round"/>
<path d="M12 12.9545C11.5858 12.9545 11.25 12.6187 11.25 12.2045C11.25 11.7903 11.5858 11.4545 12 11.4545C12.4142 11.4545 12.75 11.7903 12.75 12.2045C12.75 12.6187 12.4142 12.9545 12 12.9545Z" stroke="black" stroke-width="1.5" stroke-linecap="round" stroke-linejoin="round"/>
<path d="M12 18.9545C11.5858 18.9545 11.25 18.6187 11.25 18.2045C11.25 17.7903 11.5858 17.4545 12 17.4545C12.4142 17.4545 12.75 17.7903 12.75 18.2045C12.75 18.6187 12.4142 18.9545 12 18.9545Z" stroke="black" stroke-width="1.5" stroke-linecap="round" stroke-linejoin="round"/>
</svg>
