<svg width="24" height="25" viewBox="0 0 24 25" fill="none" xmlns="http://www.w3.org/2000/svg">
<path d="M8.625 12.2045C8.625 12.4116 8.45711 12.5795 8.25 12.5795C8.04289 12.5795 7.875 12.4116 7.875 12.2045C7.875 11.9974 8.04289 11.8295 8.25 11.8295C8.45711 11.8295 8.625 11.9974 8.625 12.2045ZM8.625 12.2045H8.25M12.375 12.2045C12.375 12.4116 12.2071 12.5795 12 12.5795C11.7929 12.5795 11.625 12.4116 11.625 12.2045C11.625 11.9974 11.7929 11.8295 12 11.8295C12.2071 11.8295 12.375 11.9974 12.375 12.2045ZM12.375 12.2045H12M16.125 12.2045C16.125 12.4116 15.9571 12.5795 15.75 12.5795C15.5429 12.5795 15.375 12.4116 15.375 12.2045C15.375 11.9974 15.5429 11.8295 15.75 11.8295C15.9571 11.8295 16.125 11.9974 16.125 12.2045ZM16.125 12.2045H15.75M21 12.2045C21 17.175 16.9706 21.2045 12 21.2045C7.02944 21.2045 3 17.175 3 12.2045C3 7.2339 7.02944 3.20447 12 3.20447C16.9706 3.20447 21 7.2339 21 12.2045Z" stroke="black" stroke-width="1.5" stroke-linecap="round" stroke-linejoin="round"/>
</svg>
