<svg width="24" height="25" viewBox="0 0 24 25" fill="none" xmlns="http://www.w3.org/2000/svg">
<path d="M6.75 12.2045C6.75 12.6187 6.41421 12.9545 6 12.9545C5.58579 12.9545 5.25 12.6187 5.25 12.2045C5.25 11.7903 5.58579 11.4545 6 11.4545C6.41421 11.4545 6.75 11.7903 6.75 12.2045Z" stroke="black" stroke-width="1.5" stroke-linecap="round" stroke-linejoin="round"/>
<path d="M12.75 12.2045C12.75 12.6187 12.4142 12.9545 12 12.9545C11.5858 12.9545 11.25 12.6187 11.25 12.2045C11.25 11.7903 11.5858 11.4545 12 11.4545C12.4142 11.4545 12.75 11.7903 12.75 12.2045Z" stroke="black" stroke-width="1.5" stroke-linecap="round" stroke-linejoin="round"/>
<path d="M18.75 12.2045C18.75 12.6187 18.4142 12.9545 18 12.9545C17.5858 12.9545 17.25 12.6187 17.25 12.2045C17.25 11.7903 17.5858 11.4545 18 11.4545C18.4142 11.4545 18.75 11.7903 18.75 12.2045Z" stroke="black" stroke-width="1.5" stroke-linecap="round" stroke-linejoin="round"/>
</svg>
