<svg width="24" height="25" viewBox="0 0 24 25" fill="none" xmlns="http://www.w3.org/2000/svg">
<path d="M21.75 9.20444V10.1105C21.75 10.9383 21.2955 11.6992 20.5667 12.0916L14.0893 15.5795M2.25 9.20444V10.1105C2.25 10.9383 2.70448 11.6992 3.43328 12.0916L9.91074 15.5795M18.75 18.0891L14.0893 15.5795M14.0893 15.5795L13.0667 15.0289C12.4008 14.6703 11.5992 14.6703 10.9333 15.0289L9.91074 15.5795M9.91074 15.5795L5.25 18.0891M21.75 19.7044C21.75 20.9471 20.7426 21.9544 19.5 21.9544H4.5C3.25736 21.9544 2.25 20.9471 2.25 19.7044L2.25 9.04835C2.25 8.22061 2.70448 7.45972 3.43328 7.06729L10.9333 3.02883C11.5992 2.67024 12.4008 2.67024 13.0667 3.02883L20.5667 7.06729C21.2955 7.45972 21.75 8.22061 21.75 9.04835V19.7044Z" stroke="black" stroke-width="1.5" stroke-linecap="round" stroke-linejoin="round"/>
</svg>
