<svg width="24" height="25" viewBox="0 0 24 25" fill="none" xmlns="http://www.w3.org/2000/svg">
<path d="M21.75 6.95447V17.4545C21.75 18.6971 20.7426 19.7045 19.5 19.7045H4.5C3.25736 19.7045 2.25 18.6971 2.25 17.4545V6.95447M21.75 6.95447C21.75 5.71183 20.7426 4.70447 19.5 4.70447H4.5C3.25736 4.70447 2.25 5.71183 2.25 6.95447M21.75 6.95447V7.19718C21.75 7.97852 21.3447 8.70391 20.6792 9.11341L13.1792 13.7288C12.4561 14.1738 11.5439 14.1738 10.8208 13.7288L3.32078 9.11341C2.65535 8.70391 2.25 7.97852 2.25 7.19718V6.95447" stroke="black" stroke-width="1.5" stroke-linecap="round" stroke-linejoin="round"/>
</svg>
