<svg width="24" height="25" viewBox="0 0 24 25" fill="none" xmlns="http://www.w3.org/2000/svg">
<path d="M15 11.4545L16.5 12.9545L17.25 12.2045V8.96245L19.5264 8.35249C20.019 8.22098 20.4847 7.96224 20.8712 7.57579C22.0428 6.40421 22.0428 4.50472 20.8712 3.33315C19.6996 2.16157 17.8001 2.16157 16.6286 3.33315C16.2421 3.71956 15.9832 4.18516 15.8517 4.67771L15.2416 6.95445H12L11.25 7.70445L12.75 9.20446M15 11.4545L6.53033 19.9241C6.19077 20.2637 5.73022 20.4545 5.25 20.4545C4.76978 20.4545 4.30924 20.6452 3.96967 20.9848L3 21.9545L2.25 21.2045L3.21967 20.2348C3.55923 19.8952 3.75 19.4347 3.75 18.9545C3.75 18.4743 3.94077 18.0137 4.28033 17.6741L12.75 9.20446M15 11.4545L12.75 9.20446" stroke="black" stroke-width="1.5" stroke-linecap="round" stroke-linejoin="round"/>
</svg>
