<svg width="24" height="25" viewBox="0 0 24 25" fill="none" xmlns="http://www.w3.org/2000/svg">
<path d="M3.9799 8.42716C3.05679 9.51841 2.35239 10.8006 1.93433 12.2061C3.22562 16.5425 7.24308 19.7046 11.9991 19.7046C12.9916 19.7046 13.952 19.5669 14.8622 19.3095M6.2276 6.43222C7.88385 5.34017 9.86768 4.70459 11.9999 4.70459C16.7559 4.70459 20.7734 7.86664 22.0647 12.2031C21.3528 14.5965 19.8105 16.6323 17.772 17.9766M6.2276 6.43222L2.99997 3.20459M6.2276 6.43222L9.87865 10.0833M17.772 17.9766L21 21.2046M17.772 17.9766L14.1213 14.3259M14.1213 14.3259C14.6642 13.783 15 13.033 15 12.2046C15 10.5477 13.6568 9.20459 12 9.20459C11.1715 9.20459 10.4215 9.54038 9.87865 10.0833M14.1213 14.3259L9.87865 10.0833" stroke="black" stroke-width="1.5" stroke-linecap="round" stroke-linejoin="round"/>
</svg>
