<svg width="24" height="25" viewBox="0 0 24 25" fill="none" xmlns="http://www.w3.org/2000/svg">
<path d="M2.0355 12.5269C1.96642 12.3196 1.96635 12.0952 2.03531 11.8879C3.42368 7.71419 7.36074 4.70447 12.0008 4.70447C16.6386 4.70447 20.5742 7.71139 21.9643 11.8821C22.0334 12.0893 22.0334 12.3137 21.9645 12.521C20.5761 16.6947 16.639 19.7045 11.999 19.7045C7.36115 19.7045 3.42559 16.6975 2.0355 12.5269Z" stroke="black" stroke-width="1.5" stroke-linecap="round" stroke-linejoin="round"/>
<path d="M15 12.2045C15 13.8613 13.6568 15.2045 12 15.2045C10.3431 15.2045 8.99995 13.8613 8.99995 12.2045C8.99995 10.5476 10.3431 9.20447 12 9.20447C13.6568 9.20447 15 10.5476 15 12.2045Z" stroke="black" stroke-width="1.5" stroke-linecap="round" stroke-linejoin="round"/>
</svg>
