<svg width="24" height="25" viewBox="0 0 24 25" fill="none" xmlns="http://www.w3.org/2000/svg">
<path d="M15.1823 16.5225C14.3075 15.6478 13.1623 15.2084 12.0158 15.2045C10.859 15.2006 9.70095 15.6399 8.81834 16.5225M21 12.2046C21 17.1752 16.9706 21.2046 12 21.2046C7.02944 21.2046 3 17.1752 3 12.2046C3 7.23403 7.02944 3.20459 12 3.20459C16.9706 3.20459 21 7.23403 21 12.2046ZM9.75 9.95459C9.75 10.3688 9.58211 10.7046 9.375 10.7046C9.16789 10.7046 9 10.3688 9 9.95459C9 9.54038 9.16789 9.20459 9.375 9.20459C9.58211 9.20459 9.75 9.54038 9.75 9.95459ZM9.375 9.95459H9.3825V9.96959H9.375V9.95459ZM15 9.95459C15 10.3688 14.8321 10.7046 14.625 10.7046C14.4179 10.7046 14.25 10.3688 14.25 9.95459C14.25 9.54038 14.4179 9.20459 14.625 9.20459C14.8321 9.20459 15 9.54038 15 9.95459ZM14.625 9.95459H14.6325V9.96959H14.625V9.95459Z" stroke="black" stroke-width="1.5" stroke-linecap="round" stroke-linejoin="round"/>
</svg>
