<svg width="24" height="25" viewBox="0 0 24 25" fill="none" xmlns="http://www.w3.org/2000/svg">
<path d="M3.375 19.7046H20.625M3.375 19.7046C2.75368 19.7046 2.25 19.2009 2.25 18.5796M3.375 19.7046H4.875C5.49632 19.7046 6 19.2009 6 18.5796M2.25 18.5796V5.82959M2.25 18.5796V17.0796C2.25 16.4583 2.75368 15.9546 3.375 15.9546M21.75 18.5796V5.82959M21.75 18.5796C21.75 19.2009 21.2463 19.7046 20.625 19.7046M21.75 18.5796V17.0796C21.75 16.4583 21.2463 15.9546 20.625 15.9546M20.625 19.7046H19.125C18.5037 19.7046 18 19.2009 18 18.5796M20.625 4.70459H3.375M20.625 4.70459C21.2463 4.70459 21.75 5.20827 21.75 5.82959M20.625 4.70459H19.125C18.5037 4.70459 18 5.20827 18 5.82959M21.75 5.82959V7.32959C21.75 7.95091 21.2463 8.45459 20.625 8.45459M3.375 4.70459C2.75368 4.70459 2.25 5.20827 2.25 5.82959M3.375 4.70459H4.875C5.49632 4.70459 6 5.20827 6 5.82959M2.25 5.82959V7.32959C2.25 7.95091 2.75368 8.45459 3.375 8.45459M3.375 8.45459H4.875M3.375 8.45459C2.75368 8.45459 2.25 8.95827 2.25 9.57959V11.0796C2.25 11.7009 2.75368 12.2046 3.375 12.2046M4.875 8.45459C5.49632 8.45459 6 7.95091 6 7.32959V5.82959M4.875 8.45459C5.49632 8.45459 6 8.95827 6 9.57959V11.0796M6 5.82959V11.0796M6 5.82959C6 5.20827 6.50368 4.70459 7.125 4.70459H16.875C17.4963 4.70459 18 5.20827 18 5.82959M19.125 8.45459H20.625M19.125 8.45459C18.5037 8.45459 18 7.95091 18 7.32959V5.82959M19.125 8.45459C18.5037 8.45459 18 8.95827 18 9.57959V11.0796M20.625 8.45459C21.2463 8.45459 21.75 8.95827 21.75 9.57959V11.0796C21.75 11.7009 21.2463 12.2046 20.625 12.2046M18 5.82959V11.0796M7.125 12.2046H16.875M7.125 12.2046C6.50368 12.2046 6 11.7009 6 11.0796M7.125 12.2046C6.50368 12.2046 6 12.7083 6 13.3296M6 11.0796C6 11.7009 5.49632 12.2046 4.875 12.2046M18 11.0796C18 11.7009 17.4963 12.2046 16.875 12.2046M18 11.0796C18 11.7009 18.5037 12.2046 19.125 12.2046M16.875 12.2046C17.4963 12.2046 18 12.7083 18 13.3296M6 18.5796V13.3296M6 18.5796C6 19.2009 6.50368 19.7046 7.125 19.7046H16.875C17.4963 19.7046 18 19.2009 18 18.5796M6 18.5796V17.0796C6 16.4583 5.49632 15.9546 4.875 15.9546M18 18.5796V13.3296M18 18.5796V17.0796C18 16.4583 18.5037 15.9546 19.125 15.9546M18 13.3296V14.8296C18 15.4509 18.5037 15.9546 19.125 15.9546M18 13.3296C18 12.7083 18.5037 12.2046 19.125 12.2046M6 13.3296V14.8296C6 15.4509 5.49632 15.9546 4.875 15.9546M6 13.3296C6 12.7083 5.49632 12.2046 4.875 12.2046M3.375 12.2046H4.875M3.375 12.2046C2.75368 12.2046 2.25 12.7083 2.25 13.3296V14.8296C2.25 15.4509 2.75368 15.9546 3.375 15.9546M19.125 12.2046H20.625M20.625 12.2046C21.2463 12.2046 21.75 12.7083 21.75 13.3296V14.8296C21.75 15.4509 21.2463 15.9546 20.625 15.9546M3.375 15.9546H4.875M19.125 15.9546H20.625" stroke="black" stroke-width="1.5" stroke-linecap="round" stroke-linejoin="round"/>
</svg>
