<svg width="24" height="25" viewBox="0 0 24 25" fill="none" xmlns="http://www.w3.org/2000/svg">
<path d="M7.86391 4.44718C9.04956 3.6619 10.4714 3.20459 12 3.20459C16.1421 3.20459 19.5 6.56245 19.5 10.7046C19.5 13.624 18.9443 16.4135 17.9324 18.9731M5.7426 6.5685C4.95732 7.75415 4.5 9.17597 4.5 10.7046C4.5 12.1723 4.07875 13.5415 3.3501 14.6977M5.33889 18.2566C7.14811 16.2601 8.25 13.6111 8.25 10.7046C8.25 8.63352 9.92893 6.95459 12 6.95459C14.0711 6.95459 15.75 8.63352 15.75 10.7046C15.75 11.2315 15.7286 11.7533 15.686 12.2692M12.0003 10.7046C12.0003 14.4272 10.6443 17.8331 8.39916 20.4552M15.033 15.8589C14.4852 17.7789 13.6391 19.5731 12.5479 21.1882" stroke="black" stroke-width="1.5" stroke-linecap="round" stroke-linejoin="round"/>
</svg>
