<svg width="24" height="25" viewBox="0 0 24 25" fill="none" xmlns="http://www.w3.org/2000/svg">
<path d="M15.3622 5.4182C18.2427 6.70528 20.25 9.59534 20.25 12.9542C20.25 17.5106 16.5563 21.2042 12 21.2042C7.44365 21.2042 3.75 17.5106 3.75 12.9542C3.75 10.7422 4.62058 8.73348 6.03781 7.25205C6.8043 8.32246 7.82048 9.2019 9.00121 9.80523C9.04632 7.02956 10.348 4.55937 12.3621 2.93872C13.1255 3.96247 14.1379 4.8228 15.3622 5.4182Z" stroke="black" stroke-width="1.5" stroke-linecap="round" stroke-linejoin="round"/>
<path d="M12 18.2046C14.0711 18.2046 15.75 16.5257 15.75 14.4546C15.75 12.5513 14.3321 10.9792 12.4949 10.737C11.4866 11.6415 10.7862 12.8825 10.5703 14.2832C9.78769 14.0919 9.06529 13.7471 8.43682 13.2825C8.31559 13.6513 8.25 14.0453 8.25 14.4546C8.25 16.5257 9.92893 18.2046 12 18.2046Z" stroke="black" stroke-width="1.5" stroke-linecap="round" stroke-linejoin="round"/>
</svg>
