<svg width="24" height="25" viewBox="0 0 24 25" fill="none" xmlns="http://www.w3.org/2000/svg">
<path d="M3 3.20459V4.70459M3 21.2046V15.2046M3 15.2046L5.77009 14.5121C7.85435 13.991 10.0562 14.2327 11.9778 15.1935L12.0856 15.2474C13.9687 16.1889 16.1224 16.4405 18.1718 15.9583L21.2861 15.2255C21.097 13.4945 21 11.7359 21 9.95459C21 8.18801 21.0954 6.44373 21.2814 4.72661L18.1718 5.45828C16.1224 5.9405 13.9687 5.68894 12.0856 4.74737L11.9778 4.69351C10.0562 3.73271 7.85435 3.491 5.77009 4.01207L3 4.70459M3 15.2046V4.70459" stroke="black" stroke-width="1.5" stroke-linecap="round" stroke-linejoin="round"/>
</svg>
