<svg width="24" height="25" viewBox="0 0 24 25" fill="none" xmlns="http://www.w3.org/2000/svg">
<path d="M3.75002 9.98061C3.86206 9.96349 3.97701 9.95459 4.0943 9.95459H19.9058C20.023 9.95459 20.138 9.96349 20.25 9.98061M3.75002 9.98061C2.55402 10.1634 1.68986 11.2834 1.86691 12.5228L2.72405 18.5228C2.8824 19.6312 3.83173 20.4546 4.95144 20.4546H19.0486C20.1683 20.4546 21.1176 19.6312 21.276 18.5228L22.1331 12.5228C22.3102 11.2834 21.446 10.1634 20.25 9.98061M3.75002 9.98061V6.20459C3.75002 4.96195 4.75738 3.95459 6.00002 3.95459H9.8787C10.2765 3.95459 10.6581 4.11263 10.9394 4.39393L13.0607 6.51525C13.342 6.79656 13.7235 6.95459 14.1213 6.95459H18C19.2427 6.95459 20.25 7.96195 20.25 9.20459V9.98061" stroke="black" stroke-width="1.5" stroke-linecap="round" stroke-linejoin="round"/>
</svg>
