<svg width="24" height="25" viewBox="0 0 24 25" fill="none" xmlns="http://www.w3.org/2000/svg">
<path d="M12.0001 3.20459C14.7548 3.20459 17.4552 3.43664 20.0831 3.88226C20.6159 3.97262 21 4.43814 21 4.97861V6.02261C21 6.61935 20.7629 7.19164 20.341 7.6136L14.909 13.0456C14.4871 13.4675 14.25 14.0398 14.25 14.6366V17.564C14.25 18.4163 13.7685 19.1953 13.0062 19.5765L9.75 21.2046V14.6366C9.75 14.0398 9.51295 13.4675 9.09099 13.0456L3.65901 7.6136C3.23705 7.19164 3 6.61935 3 6.02261V4.97863C3 4.43816 3.38408 3.97264 3.91694 3.88228C6.54479 3.43665 9.24533 3.20459 12.0001 3.20459Z" stroke="black" stroke-width="1.5" stroke-linecap="round" stroke-linejoin="round"/>
</svg>
