<svg width="24" height="25" viewBox="0 0 24 25" fill="none" xmlns="http://www.w3.org/2000/svg">
<path d="M12.75 8.45459V15.9546M18.75 8.45459H15.75V12.2046M15.75 12.2046V15.9546M15.75 12.2046H18M9.75 9.55294C8.72056 8.08847 7.05152 8.08847 6.02208 9.55294C4.99264 11.0174 4.99264 13.3918 6.02208 14.8562C7.05152 16.3207 8.72056 16.3207 9.75 14.8562V12.2046H8.25M4.5 19.7046H19.5C20.7426 19.7046 21.75 18.6972 21.75 17.4546V6.95459C21.75 5.71195 20.7426 4.70459 19.5 4.70459H4.5C3.25736 4.70459 2.25 5.71195 2.25 6.95459V17.4546C2.25 18.6972 3.25736 19.7046 4.5 19.7046Z" stroke="black" stroke-width="1.5" stroke-linecap="round" stroke-linejoin="round"/>
</svg>
