<svg width="24" height="25" viewBox="0 0 24 25" fill="none" xmlns="http://www.w3.org/2000/svg">
<path d="M12 3.95459V20.4546M2.25 12.2046H21.75M6.375 17.4546C9.06739 17.4546 11.25 15.272 11.25 12.5796V12.2046M17.625 17.4546C14.9326 17.4546 12.75 15.272 12.75 12.5796V12.2046M3.75 20.4546H20.25C21.0784 20.4546 21.75 19.783 21.75 18.9546V5.45459C21.75 4.62616 21.0784 3.95459 20.25 3.95459H3.75C2.92157 3.95459 2.25 4.62616 2.25 5.45459V18.9546C2.25 19.783 2.92157 20.4546 3.75 20.4546ZM16.3713 11.0153C14.9623 12.4243 12.1286 12.0759 12.1286 12.0759C12.1286 12.0759 11.7803 9.24231 13.1893 7.8333C14.068 6.95462 15.4926 6.95462 16.3713 7.8333C17.2499 8.71198 17.2499 10.1366 16.3713 11.0153ZM10.773 7.83333C12.182 9.24234 11.8336 12.076 11.8336 12.076C11.8336 12.076 9 12.4243 7.59099 11.0153C6.71231 10.1366 6.71231 8.71201 7.59099 7.83333C8.46967 6.95465 9.89429 6.95465 10.773 7.83333Z" stroke="black" stroke-width="1.5" stroke-linecap="round" stroke-linejoin="round"/>
</svg>
