<svg width="24" height="25" viewBox="0 0 24 25" fill="none" xmlns="http://www.w3.org/2000/svg">
<path d="M21 11.4546V19.7046C21 20.533 20.3284 21.2046 19.5 21.2046H5.25C4.42157 21.2046 3.75 20.533 3.75 19.7046V11.4546M12 5.07959C12 3.62984 10.8247 2.45459 9.375 2.45459C7.92525 2.45459 6.75 3.62984 6.75 5.07959C6.75 6.52934 7.92525 7.70459 9.375 7.70459C10.1095 7.70459 12 7.70459 12 7.70459M12 5.07959C12 5.79483 12 7.70459 12 7.70459M12 5.07959C12 3.62984 13.1753 2.45459 14.625 2.45459C16.0747 2.45459 17.25 3.62984 17.25 5.07959C17.25 6.52934 16.0747 7.70459 14.625 7.70459C13.8905 7.70459 12 7.70459 12 7.70459M12 7.70459V21.2046M3.375 11.4546H21.375C21.9963 11.4546 22.5 10.9509 22.5 10.3296V8.82959C22.5 8.20827 21.9963 7.70459 21.375 7.70459H3.375C2.75368 7.70459 2.25 8.20827 2.25 8.82959V10.3296C2.25 10.9509 2.75368 11.4546 3.375 11.4546Z" stroke="black" stroke-width="1.5" stroke-linecap="round" stroke-linejoin="round"/>
</svg>
