<svg width="24" height="25" viewBox="0 0 24 25" fill="none" xmlns="http://www.w3.org/2000/svg">
<path d="M12 21.2046C16.1926 21.2046 19.7156 18.3378 20.7157 14.4575M12 21.2046C7.80742 21.2046 4.28442 18.3378 3.2843 14.4575M12 21.2046C14.4853 21.2046 16.5 17.1752 16.5 12.2046C16.5 7.23403 14.4853 3.20459 12 3.20459M12 21.2046C9.51472 21.2046 7.5 17.1752 7.5 12.2046C7.5 7.23403 9.51472 3.20459 12 3.20459M12 3.20459C15.3652 3.20459 18.299 5.05153 19.8431 7.78704M12 3.20459C8.63481 3.20459 5.70099 5.05153 4.15692 7.78704M19.8431 7.78704C17.7397 9.60498 14.9983 10.7046 12 10.7046C9.00172 10.7046 6.26027 9.60498 4.15692 7.78704M19.8431 7.78704C20.5797 9.09202 21 10.5992 21 12.2046C21 12.9826 20.9013 13.7375 20.7157 14.4575M20.7157 14.4575C18.1334 15.8893 15.1619 16.7046 12 16.7046C8.8381 16.7046 5.86662 15.8893 3.2843 14.4575M3.2843 14.4575C3.09871 13.7375 3 12.9826 3 12.2046C3 10.5992 3.42032 9.09202 4.15692 7.78704" stroke="black" stroke-width="1.5" stroke-linecap="round" stroke-linejoin="round"/>
</svg>
