<svg width="24" height="25" viewBox="0 0 24 25" fill="none" xmlns="http://www.w3.org/2000/svg">
<path d="M6.11507 5.39502L6.4339 7.30796C6.63948 8.54148 7.22535 9.67994 8.10962 10.5642L9.75 12.2046L9.36262 12.9793C9.14607 13.4125 9.23096 13.9355 9.57336 14.278L10.9205 15.6251C11.1315 15.8361 11.25 16.1222 11.25 16.4206V17.5093C11.25 17.9354 11.4908 18.325 11.8719 18.5155L12.0247 18.592C12.4579 18.8085 12.981 18.7236 13.3234 18.3812L14.0461 17.6585C15.161 16.5436 15.952 15.1465 16.3344 13.6168C16.4357 13.2119 16.2962 12.7848 15.9756 12.5176L14.6463 11.4098C14.3947 11.2002 14.0642 11.1106 13.7411 11.1644L12.5711 11.3594C12.2127 11.4191 11.8475 11.3021 11.5906 11.0452L11.2955 10.7501C10.8562 10.3107 10.8562 9.59843 11.2955 9.15909L11.4266 9.02795C11.769 8.68554 12.2921 8.60066 12.7253 8.81721L13.3292 9.11918C13.4415 9.17535 13.5654 9.20459 13.691 9.20459C14.2924 9.20459 14.6835 8.57169 14.4146 8.03377L14.25 7.70459L15.5057 6.86748C16.1573 6.43308 16.6842 5.83616 17.0344 5.13571L17.1803 4.84401M6.11507 5.39502C4.20716 7.04532 3 9.48398 3 12.2046C3 17.1752 7.02944 21.2046 12 21.2046C16.9706 21.2046 21 17.1752 21 12.2046C21 9.1626 19.4908 6.4731 17.1803 4.84401M6.11507 5.39502C7.69292 4.03021 9.75004 3.20459 12 3.20459C13.9286 3.20459 15.7155 3.81119 17.1803 4.84401" stroke="black" stroke-width="1.5" stroke-linecap="round" stroke-linejoin="round"/>
</svg>
