<svg width="24" height="25" viewBox="0 0 24 25" fill="none" xmlns="http://www.w3.org/2000/svg">
<path d="M20.8929 13.5975L19.7582 12.4628C19.5872 12.2918 19.4449 12.0943 19.3367 11.878L18.2567 9.71789C18.1304 9.46537 17.7938 9.41075 17.5942 9.61039C17.3818 9.82283 17.0708 9.9034 16.782 9.82086L15.5091 9.45718C15.0257 9.31906 14.5239 9.60883 14.402 10.0966C14.3108 10.4612 14.4587 10.8438 14.7715 11.0522L15.3582 11.4434C15.9489 11.8372 16.0316 12.6729 15.5297 13.1749L15.3295 13.3751C15.1185 13.5861 15 13.8722 15 14.1706V14.5814C15 14.9892 14.8892 15.3893 14.6794 15.739L13.3647 17.93C12.9834 18.5657 12.2964 18.9546 11.5552 18.9546C10.9724 18.9546 10.5 18.4822 10.5 17.8994V16.7279C10.5 15.8079 9.93986 14.9805 9.08563 14.6388L8.43149 14.3772C7.44975 13.9845 6.8739 12.9612 7.04773 11.9182L7.05477 11.876C7.10117 11.5975 7.19956 11.3303 7.3448 11.0883L7.43421 10.9392C7.92343 10.1239 8.87241 9.70407 9.80483 9.89056L10.9827 10.1261C11.5574 10.2411 12.124 9.89555 12.285 9.33203L12.4935 8.60233C12.6422 8.0818 12.3991 7.52915 11.9149 7.28704L11.25 6.95459L11.159 7.04558C10.7371 7.46754 10.1648 7.70459 9.56802 7.70459H9.38709C9.13924 7.70459 8.90095 7.80364 8.7257 7.97889C8.44222 8.26237 8.00814 8.33366 7.64958 8.15438C7.16433 7.91175 6.98833 7.30737 7.26746 6.84216L8.67936 4.48899C8.82024 4.2542 8.91649 3.99666 8.96453 3.72933M20.8929 13.5975C20.9634 13.1435 21 12.6783 21 12.2046C21 7.23403 16.9706 3.20459 12 3.20459C10.9348 3.20459 9.91287 3.38963 8.96453 3.72933M20.8929 13.5975C20.2234 17.9066 16.4968 21.2046 12 21.2046C7.02944 21.2046 3 17.1752 3 12.2046C3 8.2992 5.48749 4.9748 8.96453 3.72933" stroke="black" stroke-width="1.5" stroke-linecap="round" stroke-linejoin="round"/>
</svg>
