<svg width="24" height="25" viewBox="0 0 24 25" fill="none" xmlns="http://www.w3.org/2000/svg">
<path d="M12.75 3.2354V3.80267C12.75 4.13655 12.8983 4.45317 13.1548 4.66692L14.2234 5.55743C14.6651 5.92549 14.7582 6.56734 14.4393 7.04571L13.9282 7.81225C13.6507 8.22857 13.2423 8.54049 12.7676 8.69872L12.6254 8.74613C11.9327 8.97702 11.6492 9.80336 12.0542 10.4109C12.4237 10.9651 12.2238 11.7177 11.6281 12.0156L9 13.3296L9.42339 14.3881C9.608 14.8496 9.40803 15.3756 8.96343 15.5979C8.5503 15.8044 8.04855 15.686 7.77142 15.3165L7.09217 14.4108C6.59039 13.7418 5.55995 13.8347 5.18594 14.5827L4.5 15.9546L3.88804 16.1076M12.75 3.2354C12.5027 3.21499 12.2526 3.20459 12 3.20459C7.02944 3.20459 3 7.23403 3 12.2046C3 13.603 3.31894 14.9269 3.88804 16.1076M12.75 3.2354C17.3696 3.61651 21 7.48659 21 12.2046C21 14.0838 20.4241 15.8285 19.4391 17.2718M19.4391 17.2718L19.2628 16.7431C18.9566 15.8243 18.0968 15.2046 17.1283 15.2046H16.5L16.1756 14.8802C15.9031 14.6077 15.5335 14.4546 15.1481 14.4546C14.5977 14.4546 14.0945 14.7656 13.8484 15.2579L13.8119 15.3309C13.6131 15.7283 13.2567 16.0241 12.8295 16.1462L11.8408 16.4287C11.2906 16.5858 10.9461 17.1309 11.0401 17.6953L11.1131 18.1331C11.1921 18.6071 11.6022 18.9546 12.0828 18.9546C12.9291 18.9546 13.6805 19.4961 13.9482 20.299L14.1628 20.943M19.4391 17.2718C18.2095 19.0734 16.3425 20.4053 14.1628 20.943M14.1628 20.943C13.47 21.1139 12.7456 21.2046 12 21.2046C8.42785 21.2046 5.34177 19.1235 3.88804 16.1076M15.7498 9.20459C15.7498 10.1006 15.3569 10.9049 14.7341 11.4546" stroke="black" stroke-width="1.5" stroke-linecap="round" stroke-linejoin="round"/>
</svg>
