<svg width="24" height="25" viewBox="0 0 24 25" fill="none" xmlns="http://www.w3.org/2000/svg">
<g clip-path="url(#clip0_1_1732)">
<path d="M10.05 4.77947C10.05 3.90962 9.34486 3.20447 8.47501 3.20447C7.60516 3.20447 6.90001 3.90962 6.90001 4.77947L6.9 7.77947M10.05 4.77947L10.05 3.27947C10.05 2.40962 10.7552 1.70447 11.625 1.70447C12.4949 1.70447 13.2 2.40962 13.2 3.27947L13.2 4.77947M10.05 4.77947L10.125 10.7045M13.2 11.4545V4.77947M13.2 4.77947C13.2 3.90962 13.9052 3.20447 14.775 3.20447C15.6449 3.20447 16.35 3.90962 16.35 4.77947V15.2045M6.9 7.77947C6.9 6.90962 6.19485 6.20447 5.325 6.20447C4.45515 6.20447 3.75 6.90962 3.75 7.77947V15.9545C3.75 19.6824 6.77208 22.7045 10.5 22.7045H12.5179C13.9103 22.7045 15.2456 22.1513 16.2302 21.1668L17.9623 19.4347C18.9469 18.4501 19.5 17.1147 19.5 15.7223L19.5031 13.6984C19.5046 13.5254 19.5701 13.3578 19.7007 13.2272C20.3158 12.6121 20.3158 11.6148 19.7007 10.9998C19.0857 10.3847 18.0884 10.3847 17.4733 10.9998C16.7315 11.7416 16.3578 12.7156 16.3531 13.6859M6.9 7.77947V12.2045M13.17 16.5225C13.5599 16.1326 14.0035 15.8292 14.477 15.6123C15.0701 15.3407 15.71 15.2047 16.35 15.2045M16.3519 15.2045H16.35" stroke="black" stroke-width="1.5" stroke-linecap="round" stroke-linejoin="round"/>
</g>
<defs>
<clipPath id="clip0_1_1732">
<rect width="24" height="24" fill="white" transform="translate(0 0.204468)"/>
</clipPath>
</defs>
</svg>
