<svg width="24" height="25" viewBox="0 0 24 25" fill="none" xmlns="http://www.w3.org/2000/svg">
<path d="M6.63257 10.4545C7.43892 10.4545 8.16648 10.0086 8.6641 9.37414C9.43726 8.38831 10.4117 7.56786 11.5255 6.97468C12.2477 6.5901 12.8743 6.01875 13.1781 5.2591C13.3908 4.72756 13.5 4.16033 13.5 3.58785V2.95447C13.5 2.54025 13.8358 2.20447 14.25 2.20447C15.4926 2.20447 16.5 3.21183 16.5 4.45447C16.5 5.6061 16.2404 6.6971 15.7766 7.67217C15.511 8.23051 15.8836 8.95447 16.5019 8.95447M16.5019 8.95447H19.6277C20.6544 8.95447 21.5733 9.64846 21.682 10.6693C21.7269 11.0916 21.75 11.5203 21.75 11.9545C21.75 14.8021 20.7581 17.418 19.101 19.4757C18.7134 19.957 18.1142 20.2045 17.4962 20.2045H13.4802C12.9966 20.2045 12.5161 20.1265 12.0572 19.9735L8.94278 18.9354C8.48393 18.7824 8.00342 18.7045 7.51975 18.7045H5.90421M16.5019 8.95447H14.25M5.90421 18.7045C5.98702 18.909 6.07713 19.1099 6.17423 19.3067C6.37137 19.7062 6.0962 20.2045 5.65067 20.2045H4.74289C3.85418 20.2045 3.02991 19.6865 2.77056 18.8364C2.43208 17.7271 2.25 16.5495 2.25 15.3295C2.25 13.777 2.54481 12.2934 3.08149 10.9316C3.38655 10.1575 4.16733 9.70447 4.99936 9.70447H6.05212C6.52404 9.70447 6.7973 10.2604 6.5523 10.6637C5.72588 12.0243 5.25 13.6213 5.25 15.3295C5.25 16.523 5.48232 17.6622 5.90421 18.7045Z" stroke="black" stroke-width="1.5" stroke-linecap="round" stroke-linejoin="round"/>
</svg>
