<svg width="24" height="25" viewBox="0 0 24 25" fill="none" xmlns="http://www.w3.org/2000/svg">
<path d="M7.49809 15.4545H4.37227C3.34564 15.4545 2.4267 14.7605 2.31801 13.7396C2.27306 13.3174 2.25 12.8886 2.25 12.4545C2.25 9.60685 3.24188 6.99089 4.899 4.93325C5.2866 4.45195 5.88581 4.20447 6.50377 4.20447L10.5198 4.20447C11.0034 4.20447 11.4839 4.28244 11.9428 4.43539L15.0572 5.47354C15.5161 5.62649 15.9966 5.70447 16.4803 5.70447L17.7745 5.70447M7.49809 15.4545C8.11638 15.4545 8.48896 16.1784 8.22337 16.7368C7.75956 17.7118 7.5 18.8028 7.5 19.9545C7.5 21.1971 8.50736 22.2045 9.75 22.2045C10.1642 22.2045 10.5 21.8687 10.5 21.4545V20.8211C10.5 20.2486 10.6092 19.6814 10.8219 19.1498C11.1257 18.3902 11.7523 17.8188 12.4745 17.4343C13.5883 16.8411 14.5627 16.0206 15.3359 15.0348C15.8335 14.4003 16.5611 13.9545 17.3674 13.9545H17.7511M7.49809 15.4545H9.7M17.7745 5.70447C17.7851 5.75447 17.802 5.80409 17.8258 5.85227C18.4175 7.05155 18.75 8.40168 18.75 9.82947C18.75 11.3162 18.3895 12.7188 17.7511 13.9545M17.7745 5.70447C17.6975 5.33981 17.9575 4.95447 18.3493 4.95447H19.2571C20.1458 4.95447 20.9701 5.47249 21.2294 6.32251C21.5679 7.43184 21.75 8.60939 21.75 9.82947C21.75 11.3819 21.4552 12.8655 20.9185 14.2274C20.6135 15.0014 19.8327 15.4545 19.0006 15.4545H17.9479C17.476 15.4545 17.2027 14.8986 17.4477 14.4952C17.5548 14.3188 17.6561 14.1385 17.7511 13.9545" stroke="black" stroke-width="1.5" stroke-linecap="round" stroke-linejoin="round"/>
</svg>
