<svg width="24" height="25" viewBox="0 0 24 25" fill="none" xmlns="http://www.w3.org/2000/svg">
<path d="M15 9.20447H18.75M15 12.2045H18.75M15 15.2045H18.75M4.5 19.7045H19.5C20.7426 19.7045 21.75 18.6971 21.75 17.4545V6.95447C21.75 5.71183 20.7426 4.70447 19.5 4.70447H4.5C3.25736 4.70447 2.25 5.71183 2.25 6.95447V17.4545C2.25 18.6971 3.25736 19.7045 4.5 19.7045ZM10.5 9.57947C10.5 10.615 9.66053 11.4545 8.625 11.4545C7.58947 11.4545 6.75 10.615 6.75 9.57947C6.75 8.54393 7.58947 7.70447 8.625 7.70447C9.66053 7.70447 10.5 8.54393 10.5 9.57947ZM11.7939 15.9158C10.8489 16.4192 9.77021 16.7045 8.62484 16.7045C7.47948 16.7045 6.40074 16.4192 5.45581 15.9158C5.92986 14.6252 7.16983 13.7045 8.62484 13.7045C10.0799 13.7045 11.3198 14.6252 11.7939 15.9158Z" stroke="black" stroke-width="1.5" stroke-linecap="round" stroke-linejoin="round"/>
</svg>
