<svg width="24" height="25" viewBox="0 0 24 25" fill="none" xmlns="http://www.w3.org/2000/svg">
<path d="M9 3.95447H6.91179C5.92403 3.95447 5.05178 4.59869 4.76129 5.54277L2.3495 13.3811C2.28354 13.5955 2.25 13.8185 2.25 14.0428V18.2045C2.25 19.4471 3.25736 20.4545 4.5 20.4545H19.5C20.7426 20.4545 21.75 19.4471 21.75 18.2045V14.0428C21.75 13.8185 21.7165 13.5955 21.6505 13.3811L19.2387 5.54277C18.9482 4.59869 18.076 3.95447 17.0882 3.95447H15M2.25 13.7045H6.10942C6.96166 13.7045 7.74075 14.186 8.12188 14.9482L8.37812 15.4607C8.75925 16.223 9.53834 16.7045 10.3906 16.7045H13.6094C14.4617 16.7045 15.2408 16.223 15.6219 15.4607L15.8781 14.9482C16.2592 14.186 17.0383 13.7045 17.8906 13.7045H21.75M12 3.20447V11.4545M12 11.4545L9 8.45447M12 11.4545L15 8.45447" stroke="black" stroke-width="1.5" stroke-linecap="round" stroke-linejoin="round"/>
</svg>
