<svg width="24" height="25" viewBox="0 0 24 25" fill="none" xmlns="http://www.w3.org/2000/svg">
<path d="M7.875 14.4545L9.08906 16.397C9.50022 17.0548 10.2213 17.4545 10.9971 17.4545H13.0029C13.7787 17.4545 14.4998 17.0548 14.9109 16.397L16.125 14.4545M2.40961 9.20447H7.04584C7.79813 9.20447 8.50065 9.58045 8.91795 10.2064L9.08205 10.4525C9.49935 11.0785 10.2019 11.4545 10.9542 11.4545H13.0458C13.7981 11.4545 14.5007 11.0785 14.9179 10.4525L15.0821 10.2064C15.4993 9.58045 16.2019 9.20447 16.9542 9.20447H21.5904M2.40961 9.20447C2.30498 9.46726 2.25 9.7495 2.25 10.0368V12.2045C2.25 13.4471 3.25736 14.4545 4.5 14.4545H19.5C20.7426 14.4545 21.75 13.4471 21.75 12.2045V10.0368C21.75 9.7495 21.695 9.46726 21.5904 9.20447M2.40961 9.20447C2.50059 8.97598 2.62911 8.76218 2.79167 8.57252L6.07653 4.74019C6.50399 4.24148 7.12802 3.95447 7.78485 3.95447H16.2151C16.872 3.95447 17.496 4.24148 17.9235 4.74019L21.2083 8.57252C21.3709 8.76218 21.4994 8.97598 21.5904 9.20447M4.5 20.4545H19.5C20.7426 20.4545 21.75 19.4471 21.75 18.2045V15.5795C21.75 14.9581 21.2463 14.4545 20.625 14.4545H3.375C2.75368 14.4545 2.25 14.9581 2.25 15.5795V18.2045C2.25 19.4471 3.25736 20.4545 4.5 20.4545Z" stroke="black" stroke-width="1.5" stroke-linecap="round" stroke-linejoin="round"/>
</svg>
