<svg width="24" height="25" viewBox="0 0 24 25" fill="none" xmlns="http://www.w3.org/2000/svg">
<path d="M15.75 5.45447C17.4069 5.45447 18.75 6.79761 18.75 8.45447M21.75 8.45447C21.75 11.7682 19.0637 14.4545 15.75 14.4545C15.3993 14.4545 15.0555 14.4244 14.7213 14.3666C14.1583 14.2693 13.562 14.3925 13.158 14.7965L10.5 17.4545H8.25V19.7045H6V21.9545H2.25V19.1364C2.25 18.5397 2.48705 17.9674 2.90901 17.5455L9.408 11.0465C9.81202 10.6425 9.93512 10.0462 9.83785 9.48317C9.7801 9.14893 9.75 8.80521 9.75 8.45447C9.75 5.14076 12.4363 2.45447 15.75 2.45447C19.0637 2.45447 21.75 5.14076 21.75 8.45447Z" stroke="black" stroke-width="1.5" stroke-linecap="round" stroke-linejoin="round"/>
</svg>
