<svg width="24" height="25" viewBox="0 0 24 25" fill="none" xmlns="http://www.w3.org/2000/svg">
<path d="M16.7124 4.53437C17.2999 4.896 17.8548 5.33138 18.364 5.84051C18.8731 6.34964 19.3085 6.90459 19.6701 7.4921M16.7124 4.53437L13.2636 8.67285M16.7124 4.53437C13.8316 2.76117 10.1684 2.76117 7.28763 4.53437M19.6701 7.4921L15.5316 10.9408M19.6701 7.4921C21.4433 10.3728 21.4433 14.0361 19.6701 16.9168M15.5316 10.9408C15.3507 10.4341 15.0574 9.95855 14.6517 9.55282C14.2459 9.14709 13.7703 8.85376 13.2636 8.67285M15.5316 10.9408C15.8228 11.7564 15.8228 12.6526 15.5316 13.4681M13.2636 8.67285C12.4481 8.38167 11.5519 8.38167 10.7364 8.67285M15.5316 13.4681C15.3507 13.9748 15.0574 14.4504 14.6517 14.8561C14.2459 15.2618 13.7703 15.5552 13.2636 15.7361M15.5316 13.4681L19.6701 16.9168M19.6701 16.9168C19.3085 17.5043 18.8731 18.0593 18.364 18.5684C17.8548 19.0776 17.2999 19.5129 16.7124 19.8746M16.7124 19.8746L13.2636 15.7361M16.7124 19.8746C13.8316 21.6478 10.1684 21.6478 7.28763 19.8746M13.2636 15.7361C12.4481 16.0273 11.5519 16.0273 10.7364 15.7361M10.7364 15.7361C10.2297 15.5552 9.75408 15.2618 9.34835 14.8561C8.94262 14.4504 8.6493 13.9748 8.46838 13.4681M10.7364 15.7361L7.28763 19.8746M7.28763 19.8746C6.70012 19.5129 6.14517 19.0776 5.63604 18.5684C5.12691 18.0593 4.69153 17.5043 4.3299 16.9168M4.3299 16.9168L8.46838 13.4681M4.3299 16.9168C2.5567 14.0361 2.5567 10.3728 4.3299 7.4921M8.46838 13.4681C8.17721 12.6526 8.17721 11.7564 8.46838 10.9408M8.46838 10.9408C8.6493 10.4341 8.94262 9.95855 9.34835 9.55282C9.75408 9.14709 10.2297 8.85376 10.7364 8.67285M8.46838 10.9408L4.3299 7.4921M10.7364 8.67285L7.28763 4.53437M7.28763 4.53437C6.70012 4.896 6.14517 5.33138 5.63604 5.84051C5.12691 6.34964 4.69153 6.90459 4.3299 7.4921" stroke="black" stroke-width="1.5" stroke-linecap="round" stroke-linejoin="round"/>
</svg>
