<svg width="24" height="25" viewBox="0 0 24 25" fill="none" xmlns="http://www.w3.org/2000/svg">
<g clip-path="url(#clip0_1_1762)">
<path d="M12 18.2045V12.9545M12 12.9545C12.5179 12.9545 13.0206 12.8889 13.5 12.7655M12 12.9545C11.4821 12.9545 10.9794 12.8889 10.5 12.7655M14.25 20.2439C13.5212 20.3821 12.769 20.4545 12 20.4545C11.231 20.4545 10.4788 20.3821 9.75 20.2439M13.5 22.6265C13.007 22.678 12.5066 22.7045 12 22.7045C11.4934 22.7045 10.993 22.678 10.5 22.6265M14.25 18.2045V18.0128C14.25 17.0299 14.9083 16.1895 15.7585 15.6962C17.9955 14.3982 19.5 11.977 19.5 9.20447C19.5 5.06233 16.1421 1.70447 12 1.70447C7.85786 1.70447 4.5 5.06233 4.5 9.20447C4.5 11.977 6.00446 14.3982 8.24155 15.6962C9.09173 16.1895 9.75 17.0299 9.75 18.0128V18.2045" stroke="black" stroke-width="1.5" stroke-linecap="round" stroke-linejoin="round"/>
</g>
<defs>
<clipPath id="clip0_1_1762">
<rect width="24" height="24" fill="white" transform="translate(0 0.204468)"/>
</clipPath>
</defs>
</svg>
