<svg width="24" height="25" viewBox="0 0 24 25" fill="none" xmlns="http://www.w3.org/2000/svg">
<path d="M13.1903 8.89289C13.6393 9.10738 14.0601 9.40058 14.432 9.77249C16.1893 11.5298 16.1893 14.3791 14.432 16.1364L9.93198 20.6364C8.17462 22.3938 5.32538 22.3938 3.56802 20.6364C1.81066 18.8791 1.81066 16.0298 3.56802 14.2725L5.32499 12.5155M18.675 11.8934L20.432 10.1364C22.1893 8.37909 22.1893 5.52985 20.432 3.77249C18.6746 2.01513 15.8254 2.01513 14.068 3.77249L9.56802 8.27249C7.81066 10.0298 7.81066 12.8791 9.56802 14.6364C9.93992 15.0084 10.3607 15.3016 10.8097 15.516" stroke="black" stroke-width="1.5" stroke-linecap="round" stroke-linejoin="round"/>
</svg>
