<svg width="24" height="25" viewBox="0 0 24 25" fill="none" xmlns="http://www.w3.org/2000/svg">
<path d="M15.75 15.9545L13.2615 13.466M13.2615 13.466C13.8722 12.8552 14.25 12.0114 14.25 11.0795C14.25 9.21551 12.739 7.70447 10.875 7.70447C9.01104 7.70447 7.5 9.21551 7.5 11.0795C7.5 12.9434 9.01104 14.4545 10.875 14.4545C11.807 14.4545 12.6507 14.0767 13.2615 13.466ZM21 12.2045C21 17.175 16.9706 21.2045 12 21.2045C7.02944 21.2045 3 17.175 3 12.2045C3 7.2339 7.02944 3.20447 12 3.20447C16.9706 3.20447 21 7.2339 21 12.2045Z" stroke="black" stroke-width="1.5" stroke-linecap="round" stroke-linejoin="round"/>
</svg>
