<svg width="24" height="25" viewBox="0 0 24 25" fill="none" xmlns="http://www.w3.org/2000/svg">
<path d="M9 6.95449V15.2045M15 9.20449V17.4545M15.5031 20.9529L20.3781 18.5154C20.7592 18.3249 21 17.9353 21 17.5092V5.02478C21 4.18848 20.1199 3.64454 19.3719 4.01855L15.5031 5.95293C15.1864 6.11129 14.8136 6.11129 14.4969 5.95293L9.50312 3.45605C9.1864 3.29769 8.8136 3.29769 8.49688 3.45605L3.62188 5.89355C3.24075 6.08412 3 6.47366 3 6.89978V19.3842C3 20.2205 3.8801 20.7644 4.62811 20.3904L8.49688 18.456C8.8136 18.2977 9.1864 18.2977 9.50312 18.456L14.4969 20.9529C14.8136 21.1113 15.1864 21.1113 15.5031 20.9529Z" stroke="black" stroke-width="1.5" stroke-linecap="round" stroke-linejoin="round"/>
</svg>
