<svg width="24" height="25" viewBox="0 0 24 25" fill="none" xmlns="http://www.w3.org/2000/svg">
<path d="M10.3404 16.0442C9.65153 15.9848 8.95431 15.9545 8.25 15.9545H7.5C5.01472 15.9545 3 13.9397 3 11.4545C3 8.96918 5.01472 6.95447 7.5 6.95447H8.25C8.95431 6.95447 9.65153 6.92413 10.3404 6.86469M10.3404 16.0442C10.5933 17.0059 10.9237 17.9362 11.3246 18.8279C11.5721 19.3783 11.3842 20.0372 10.8616 20.339L10.2053 20.7179C9.6539 21.0362 8.9456 20.835 8.67841 20.2571C8.0518 18.9018 7.56541 17.4684 7.23786 15.9754M10.3404 16.0442C9.95517 14.579 9.75 13.0407 9.75 11.4545C9.75 9.86826 9.95518 8.32997 10.3404 6.86469M10.3404 16.0442C13.5 16.3169 16.4845 17.2016 19.1747 18.5794M10.3404 6.86469C13.5 6.59207 16.4845 5.7073 19.1747 4.32956M19.1747 4.32956C19.057 3.95041 18.9302 3.5753 18.7944 3.20447M19.1747 4.32956C19.7097 6.05274 20.0557 7.85909 20.1886 9.72438M19.1747 18.5794C19.057 18.9585 18.9302 19.3336 18.7944 19.7045M19.1747 18.5794C19.7097 16.8562 20.0557 15.0498 20.1886 13.1846M20.1886 9.72438C20.6844 10.1371 21 10.7589 21 11.4545C21 12.15 20.6844 12.7718 20.1886 13.1846M20.1886 9.72438C20.2293 10.2958 20.25 10.8727 20.25 11.4545C20.25 12.0362 20.2293 12.6132 20.1886 13.1846" stroke="black" stroke-width="1.5" stroke-linecap="round" stroke-linejoin="round"/>
</svg>
