<svg width="24" height="25" viewBox="0 0 24 25" fill="none" xmlns="http://www.w3.org/2000/svg">
<path d="M9 9.20447L19.5 6.20447M19.5 12.7573V16.5073C19.5 17.5119 18.834 18.3947 17.8681 18.6707L16.5481 19.0479C15.3964 19.3769 14.25 18.5121 14.25 17.3144C14.25 16.5094 14.7836 15.802 15.5576 15.5809L17.8681 14.9207C18.834 14.6447 19.5 13.7619 19.5 12.7573ZM19.5 12.7573V2.45447L9 5.45447V15.7573M9 15.7573V19.5073C9 20.5119 8.33405 21.3947 7.36812 21.6707L6.04814 22.0479C4.89645 22.3769 3.75 21.5121 3.75 20.3144C3.75 19.5094 4.2836 18.802 5.05757 18.5809L7.36812 17.9207C8.33405 17.6447 9 16.7619 9 15.7573Z" stroke="black" stroke-width="1.5" stroke-linecap="round" stroke-linejoin="round"/>
</svg>
