<svg width="24" height="25" viewBox="0 0 24 25" fill="none" xmlns="http://www.w3.org/2000/svg">
<path d="M12 7.70447H13.5M12 10.7045H13.5M6 13.7045H13.5M6 16.7045H13.5M16.5 7.70447H19.875C20.4963 7.70447 21 8.20815 21 8.82947V18.2045C21 19.4471 19.9926 20.4545 18.75 20.4545M16.5 7.70447V18.2045C16.5 19.4471 17.5074 20.4545 18.75 20.4545M16.5 7.70447V5.07947C16.5 4.45815 15.9963 3.95447 15.375 3.95447H4.125C3.50368 3.95447 3 4.45815 3 5.07947V18.2045C3 19.4471 4.00736 20.4545 5.25 20.4545H18.75M6 7.70447H9V10.7045H6V7.70447Z" stroke="black" stroke-width="1.5" stroke-linecap="round" stroke-linejoin="round"/>
</svg>
