<svg width="24" height="25" viewBox="0 0 24 25" fill="none" xmlns="http://www.w3.org/2000/svg">
<path d="M9.53086 16.3268C9.08517 15.2288 8.00801 14.4545 6.75 14.4545C5.09315 14.4545 3.75 15.7976 3.75 17.4545C3.75 18.6971 2.74262 19.7045 1.49998 19.7045C1.44928 19.7045 1.39898 19.7028 1.34912 19.6995C2.12648 21.0473 3.58229 21.9545 5.24998 21.9545C7.72821 21.9545 9.73854 19.9512 9.74993 17.4756C9.74998 17.4686 9.75 17.4615 9.75 17.4545C9.75 17.0556 9.67217 16.675 9.53086 16.3268ZM9.53086 16.3268C10.7252 15.9198 11.8612 15.3749 12.9175 14.7072M7.875 14.6813C8.2823 13.4842 8.8281 12.3456 9.49724 11.287M12.9175 14.7072C14.798 13.5186 16.4259 11.9407 17.6806 10.0585L21.5566 4.24453C21.6827 4.0554 21.75 3.83317 21.75 3.60586C21.75 2.96996 21.2345 2.45447 20.5986 2.45447C20.3713 2.45447 20.1491 2.52175 19.9599 2.64784L14.1459 6.52384C12.2638 7.7786 10.6859 9.4065 9.49724 11.287M12.9175 14.7072C12.2396 13.1877 11.0167 11.9648 9.49724 11.287" stroke="black" stroke-width="1.5" stroke-linecap="round" stroke-linejoin="round"/>
</svg>
