<svg width="24" height="25" viewBox="0 0 24 25" fill="none" xmlns="http://www.w3.org/2000/svg">
<path d="M16.8617 4.69126L18.5492 3.00376C19.2814 2.27153 20.4686 2.27153 21.2008 3.00376C21.9331 3.736 21.9331 4.92318 21.2008 5.65542L10.5822 16.2741C10.0535 16.8027 9.40144 17.1914 8.68489 17.4048L6 18.2046L6.79978 15.5197C7.01323 14.8032 7.40185 14.1511 7.93052 13.6224L16.8617 4.69126ZM16.8617 4.69126L19.5 7.32958M18 14.2046V18.9546C18 20.1972 16.9926 21.2046 15.75 21.2046H5.25C4.00736 21.2046 3 20.1972 3 18.9546V8.45458C3 7.21194 4.00736 6.20458 5.25 6.20458H10" stroke="black" stroke-width="1.5" stroke-linecap="round" stroke-linejoin="round"/>
</svg>
