<svg width="24" height="25" viewBox="0 0 24 25" fill="none" xmlns="http://www.w3.org/2000/svg">
<path d="M15.75 3.95459L18 6.20459M18 6.20459L20.25 8.45459M18 6.20459L20.25 3.95459M18 6.20459L15.75 8.45459M17.25 21.9546C8.96573 21.9546 2.25 15.2389 2.25 6.95459V4.70459C2.25 3.46195 3.25736 2.45459 4.5 2.45459H5.87163C6.38785 2.45459 6.83783 2.80592 6.96304 3.30674L8.06883 7.72992C8.17861 8.16904 8.01453 8.63119 7.65242 8.90277L6.3588 9.87299C5.98336 10.1546 5.81734 10.6416 5.97876 11.0822C7.19015 14.3892 9.81539 17.0144 13.1223 18.2258C13.563 18.3873 14.05 18.2212 14.3316 17.8458L15.3018 16.5522C15.5734 16.1901 16.0355 16.026 16.4747 16.1358L20.8979 17.2416C21.3987 17.3668 21.75 17.8167 21.75 18.333V19.7046C21.75 20.9472 20.7426 21.9546 19.5 21.9546H17.25Z" stroke="black" stroke-width="1.5" stroke-linecap="round" stroke-linejoin="round"/>
</svg>
