<svg width="24" height="25" viewBox="0 0 24 25" fill="none" xmlns="http://www.w3.org/2000/svg">
<path d="M2.25 6.95459C2.25 15.2389 8.96573 21.9546 17.25 21.9546H19.5C20.7426 21.9546 21.75 20.9472 21.75 19.7046V18.333C21.75 17.8167 21.3987 17.3668 20.8979 17.2416L16.4747 16.1358C16.0355 16.026 15.5734 16.1901 15.3018 16.5522L14.3316 17.8458C14.05 18.2212 13.563 18.3873 13.1223 18.2258C9.81539 17.0144 7.19015 14.3892 5.97876 11.0822C5.81734 10.6416 5.98336 10.1546 6.3588 9.87299L7.65242 8.90277C8.01453 8.63119 8.17861 8.16904 8.06883 7.72992L6.96304 3.30674C6.83783 2.80592 6.38785 2.45459 5.87163 2.45459H4.5C3.25736 2.45459 2.25 3.46195 2.25 4.70459V6.95459Z" stroke="black" stroke-width="1.5" stroke-linecap="round" stroke-linejoin="round"/>
</svg>
