<svg width="24" height="25" viewBox="0 0 24 25" fill="none" xmlns="http://www.w3.org/2000/svg">
<path d="M2.25 15.9546L7.40901 10.7956C8.28769 9.9169 9.71231 9.9169 10.591 10.7956L15.75 15.9546M14.25 14.4546L15.659 13.0456C16.5377 12.1669 17.9623 12.1669 18.841 13.0456L21.75 15.9546M3.75 19.7046H20.25C21.0784 19.7046 21.75 19.033 21.75 18.2046V6.20459C21.75 5.37616 21.0784 4.70459 20.25 4.70459H3.75C2.92157 4.70459 2.25 5.37616 2.25 6.20459V18.2046C2.25 19.033 2.92157 19.7046 3.75 19.7046ZM14.25 8.45459H14.2575V8.46209H14.25V8.45459ZM14.625 8.45459C14.625 8.6617 14.4571 8.82959 14.25 8.82959C14.0429 8.82959 13.875 8.6617 13.875 8.45459C13.875 8.24748 14.0429 8.07959 14.25 8.07959C14.4571 8.07959 14.625 8.24748 14.625 8.45459Z" stroke="black" stroke-width="1.5" stroke-linecap="round" stroke-linejoin="round"/>
</svg>
