<svg width="24" height="25" viewBox="0 0 24 25" fill="none" xmlns="http://www.w3.org/2000/svg">
<path fill-rule="evenodd" clip-rule="evenodd" d="M12 5.45459C12.4142 5.45459 12.75 5.79038 12.75 6.20459V11.4546L18 11.4546C18.4142 11.4546 18.75 11.7904 18.75 12.2046C18.75 12.6188 18.4142 12.9546 18 12.9546H12.75V18.2046C12.75 18.6188 12.4142 18.9546 12 18.9546C11.5858 18.9546 11.25 18.6188 11.25 18.2046V12.9546H6C5.58579 12.9546 5.25 12.6188 5.25 12.2046C5.25 11.7904 5.58579 11.4546 6 11.4546L11.25 11.4546V6.20459C11.25 5.79038 11.5858 5.45459 12 5.45459Z" fill="black"/>
</svg>
