<svg width="24" height="25" viewBox="0 0 24 25" fill="none" xmlns="http://www.w3.org/2000/svg">
<path d="M3.75 3.20459V14.4546C3.75 15.6972 4.75736 16.7046 6 16.7046H8.25M3.75 3.20459H2.25M3.75 3.20459H20.25M20.25 3.20459H21.75M20.25 3.20459V14.4546C20.25 15.6972 19.2426 16.7046 18 16.7046H15.75M8.25 16.7046H15.75M8.25 16.7046L7.25 19.7046M15.75 16.7046L16.75 19.7046M16.75 19.7046L17.25 21.2046M16.75 19.7046H7.25M7.25 19.7046L6.75 21.2046M9 11.4546V12.9546M12 9.20459V12.9546M15 6.95459V12.9546" stroke="black" stroke-width="1.5" stroke-linecap="round" stroke-linejoin="round"/>
</svg>
