<svg width="24" height="25" viewBox="0 0 24 25" fill="none" xmlns="http://www.w3.org/2000/svg">
<path d="M6.72012 14.0333C6.47944 14.0635 6.23939 14.0957 6 14.1299M6.72012 14.0333C8.44957 13.8164 10.2117 13.7046 12 13.7046C13.7883 13.7046 15.5504 13.8164 17.2799 14.0333M6.72012 14.0333L6.34091 18.2046M17.2799 14.0333C17.5206 14.0635 17.7606 14.0957 18 14.1299M17.2799 14.0333L17.6591 18.2046M17.6591 18.2046L17.8885 20.7277C17.9484 21.3866 17.4296 21.9546 16.7681 21.9546H7.23191C6.57038 21.9546 6.05164 21.3866 6.11153 20.7277L6.34091 18.2046M17.6591 18.2046H18.75C19.9926 18.2046 21 17.1972 21 15.9546V9.66028C21 8.57934 20.2321 7.64541 19.1631 7.48545C18.5293 7.39063 17.8916 7.3082 17.25 7.2384M6.34091 18.2046H5.25C4.00736 18.2046 3 17.1972 3 15.9546V9.66028C3 8.57934 3.7679 7.64541 4.83694 7.48545C5.47066 7.39063 6.10843 7.3082 6.75 7.2384M17.25 7.2384C15.5258 7.05084 13.7741 6.95459 12 6.95459C10.2259 6.95459 8.47423 7.05084 6.75 7.2384M17.25 7.2384V3.57959C17.25 2.95827 16.7463 2.45459 16.125 2.45459H7.875C7.25368 2.45459 6.75 2.95827 6.75 3.57959V7.2384M18 10.7046H18.0075V10.7121H18V10.7046ZM15 10.7046H15.0075V10.7121H15V10.7046Z" stroke="black" stroke-width="1.5" stroke-linecap="round" stroke-linejoin="round"/>
</svg>
