<svg width="24" height="25" viewBox="0 0 24 25" fill="none" xmlns="http://www.w3.org/2000/svg">
<path d="M14.25 6.29153C14.25 5.93637 14.4361 5.61535 14.6512 5.33279C14.8721 5.04269 15 4.69859 15 4.32959C15 3.29406 13.9926 2.45459 12.75 2.45459C11.5074 2.45459 10.5 3.29406 10.5 4.32959C10.5 4.69859 10.6279 5.04269 10.8488 5.33279C11.064 5.61535 11.25 5.93637 11.25 6.29153V6.29153C11.25 6.65281 10.9542 6.94456 10.593 6.93416C9.18939 6.89373 7.80084 6.79304 6.42989 6.63459C6.61626 8.24735 6.72269 9.88446 6.74511 11.5419C6.75007 11.9078 6.45293 12.2045 6.08694 12.2046V12.2046C5.73178 12.2046 5.41076 12.0185 5.1282 11.8034C4.8381 11.5825 4.494 11.4546 4.125 11.4546C3.08947 11.4546 2.25 12.4619 2.25 13.7046C2.25 14.9472 3.08947 15.9546 4.125 15.9546C4.494 15.9546 4.8381 15.8267 5.1282 15.6058C5.41076 15.3906 5.73178 15.2046 6.08694 15.2046V15.2046C6.39613 15.2046 6.64157 15.4654 6.6189 15.7737C6.49306 17.4857 6.27742 19.1728 5.97668 20.8302C7.49458 21.0203 9.03451 21.1394 10.5931 21.1843C10.9542 21.1947 11.2501 20.9029 11.2501 20.5416V20.5416C11.2501 20.1864 11.0641 19.8654 10.8489 19.5828C10.628 19.2927 10.5001 18.9486 10.5001 18.5796C10.5001 17.5441 11.5075 16.7046 12.7501 16.7046C13.9928 16.7046 15.0001 17.5441 15.0001 18.5796C15.0001 18.9486 14.8722 19.2927 14.6513 19.5828C14.4362 19.8654 14.2501 20.1864 14.2501 20.5416V20.5416C14.2501 20.8745 14.5281 21.1403 14.8605 21.1207C16.6992 21.0127 18.5102 20.8011 20.2876 20.4918C20.5571 18.9435 20.7523 17.3698 20.8696 15.7744C20.8923 15.4657 20.6466 15.2046 20.3371 15.2046V15.2046C19.9819 15.2046 19.6609 15.3907 19.3783 15.6058C19.0882 15.8267 18.7441 15.9546 18.3751 15.9546C17.3396 15.9546 16.5001 14.9473 16.5001 13.7046C16.5001 12.462 17.3396 11.4546 18.3751 11.4546C18.7441 11.4546 19.0882 11.5825 19.3783 11.8034C19.6609 12.0186 19.9819 12.2046 20.3371 12.2046V12.2046C20.7034 12.2046 21.0008 11.9076 20.9959 11.5413C20.9713 9.72872 20.8463 7.94031 20.6261 6.18157C18.7403 6.52375 16.816 6.75574 14.8603 6.87064C14.528 6.89016 14.25 6.62438 14.25 6.29153V6.29153Z" stroke="black" stroke-width="1.5" stroke-linecap="round" stroke-linejoin="round"/>
</svg>
