<svg width="24" height="25" viewBox="0 0 24 25" fill="none" xmlns="http://www.w3.org/2000/svg">
<path d="M3.75 5.07947C3.75 4.45815 4.25368 3.95447 4.875 3.95447H9.375C9.99632 3.95447 10.5 4.45815 10.5 5.07947V9.57947C10.5 10.2008 9.99632 10.7045 9.375 10.7045H4.875C4.25368 10.7045 3.75 10.2008 3.75 9.57947V5.07947Z" stroke="black" stroke-width="1.5" stroke-linecap="round" stroke-linejoin="round"/>
<path d="M3.75 14.8295C3.75 14.2081 4.25368 13.7045 4.875 13.7045H9.375C9.99632 13.7045 10.5 14.2081 10.5 14.8295V19.3295C10.5 19.9508 9.99632 20.4545 9.375 20.4545H4.875C4.25368 20.4545 3.75 19.9508 3.75 19.3295V14.8295Z" stroke="black" stroke-width="1.5" stroke-linecap="round" stroke-linejoin="round"/>
<path d="M13.5 5.07947C13.5 4.45815 14.0037 3.95447 14.625 3.95447H19.125C19.7463 3.95447 20.25 4.45815 20.25 5.07947V9.57947C20.25 10.2008 19.7463 10.7045 19.125 10.7045H14.625C14.0037 10.7045 13.5 10.2008 13.5 9.57947V5.07947Z" stroke="black" stroke-width="1.5" stroke-linecap="round" stroke-linejoin="round"/>
<path d="M6.75 6.95447H7.5V7.70447H6.75V6.95447Z" stroke="black" stroke-width="1.5" stroke-linecap="round" stroke-linejoin="round"/>
<path d="M6.75 16.7045H7.5V17.4545H6.75V16.7045Z" stroke="black" stroke-width="1.5" stroke-linecap="round" stroke-linejoin="round"/>
<path d="M16.5 6.95447H17.25V7.70447H16.5V6.95447Z" stroke="black" stroke-width="1.5" stroke-linecap="round" stroke-linejoin="round"/>
<path d="M13.5 13.7045H14.25V14.4545H13.5V13.7045Z" stroke="black" stroke-width="1.5" stroke-linecap="round" stroke-linejoin="round"/>
<path d="M13.5 19.7045H14.25V20.4545H13.5V19.7045Z" stroke="black" stroke-width="1.5" stroke-linecap="round" stroke-linejoin="round"/>
<path d="M19.5 13.7045H20.25V14.4545H19.5V13.7045Z" stroke="black" stroke-width="1.5" stroke-linecap="round" stroke-linejoin="round"/>
<path d="M19.5 19.7045H20.25V20.4545H19.5V19.7045Z" stroke="black" stroke-width="1.5" stroke-linecap="round" stroke-linejoin="round"/>
<path d="M16.5 16.7045H17.25V17.4545H16.5V16.7045Z" stroke="black" stroke-width="1.5" stroke-linecap="round" stroke-linejoin="round"/>
</svg>
