<svg width="24" height="25" viewBox="0 0 24 25" fill="none" xmlns="http://www.w3.org/2000/svg">
<path d="M9.87891 7.72331C11.0505 6.69819 12.95 6.69819 14.1215 7.72331C15.2931 8.74844 15.2931 10.4105 14.1215 11.4356C13.9176 11.614 13.6917 11.7614 13.4513 11.8777C12.7056 12.2386 12.0002 12.876 12.0002 13.7045V14.4545M21 12.2045C21 17.175 16.9706 21.2045 12 21.2045C7.02944 21.2045 3 17.175 3 12.2045C3 7.2339 7.02944 3.20447 12 3.20447C16.9706 3.20447 21 7.2339 21 12.2045ZM12 17.4545H12.0075V17.462H12V17.4545Z" stroke="black" stroke-width="1.5" stroke-linecap="round" stroke-linejoin="round"/>
</svg>
