<svg width="24" height="25" viewBox="0 0 24 25" fill="none" xmlns="http://www.w3.org/2000/svg">
<path d="M3.75 7.70447L20.25 3.57947M12 6.95447C9.29246 6.95447 6.63727 7.17864 4.05199 7.60944C2.99912 7.78489 2.25 8.7111 2.25 9.77849V18.9545C2.25 20.1971 3.25736 21.2045 4.5 21.2045H19.5C20.7426 21.2045 21.75 20.1971 21.75 18.9545V9.77849C21.75 8.7111 21.0009 7.78489 19.948 7.60944C17.3627 7.17864 14.7075 6.95447 12 6.95447ZM10.3169 13.3976L10.3116 13.4029L10.3063 13.3976L10.3116 13.3923L10.3169 13.3976ZM10.3118 15.524L10.3065 15.5187L10.3118 15.5134L10.3171 15.5187L10.3118 15.524ZM8.1958 15.5189L8.1905 15.5242L8.18519 15.5189L8.1905 15.5136L8.1958 15.5189ZM8.19067 13.4027L8.18537 13.3974L8.19067 13.3921L8.19598 13.3974L8.19067 13.4027ZM9.25488 10.7045V10.712H9.24738V10.7045H9.25488ZM12.5039 12.5846L12.4974 12.5883L12.4937 12.5818L12.5002 12.5781L12.5039 12.5846ZM11.1248 17.7108L11.121 17.7043L11.1275 17.7006L11.1313 17.7071L11.1248 17.7108ZM11.1313 11.2093L11.1276 11.2158L11.1211 11.212L11.1249 11.2055L11.1313 11.2093ZM12.5002 16.3383L12.4937 16.3345L12.4975 16.328L12.504 16.3318L12.5002 16.3383ZM13.0049 14.4618H12.9974V14.4543H13.0049V14.4618ZM9.25488 18.2045V18.212H9.24738V18.2045H9.25488ZM6.00879 16.3346L6.00229 16.3383L5.99854 16.3318L6.00504 16.3281L6.00879 16.3346ZM7.37476 11.2157L7.37101 11.2092L7.3775 11.2055L7.38125 11.2119L7.37476 11.2157ZM7.38135 17.7044L7.3776 17.7109L7.3711 17.7072L7.37485 17.7007L7.38135 17.7044ZM6.00513 12.5883L5.99863 12.5845L6.00238 12.578L6.00888 12.5818L6.00513 12.5883ZM5.50488 14.4618H5.49738V14.4543H5.50488V14.4618ZM17.25 12.9545C16.8358 12.9545 16.5 12.6187 16.5 12.2045C16.5 11.7903 16.8358 11.4545 17.25 11.4545C17.6642 11.4545 18 11.7903 18 12.2045C18 12.6187 17.6642 12.9545 17.25 12.9545ZM17.25 17.4545C16.8358 17.4545 16.5 17.1187 16.5 16.7045C16.5 16.2903 16.8358 15.9545 17.25 15.9545C17.6642 15.9545 18 16.2903 18 16.7045C18 17.1187 17.6642 17.4545 17.25 17.4545Z" stroke="black" stroke-width="1.5" stroke-linecap="round" stroke-linejoin="round"/>
</svg>
