<svg width="24" height="25" viewBox="0 0 24 25" fill="none" xmlns="http://www.w3.org/2000/svg">
<path d="M8.25 9.95447H13.125C14.5747 9.95447 15.75 11.1297 15.75 12.5795C15.75 14.0292 14.5747 15.2045 13.125 15.2045H12M8.25 9.95447L10.5 7.70447M8.25 9.95447L10.5 12.2045M19.5 4.96145V21.9545L15.75 20.4545L12 21.9545L8.25 20.4545L4.5 21.9545V4.96145C4.5 3.85347 5.30608 2.9046 6.40668 2.77688C8.24156 2.56393 10.108 2.45447 12 2.45447C13.892 2.45447 15.7584 2.56393 17.5933 2.77688C18.6939 2.90461 19.5 3.85347 19.5 4.96145Z" stroke="black" stroke-width="1.5" stroke-linecap="round" stroke-linejoin="round"/>
</svg>
