<svg width="24" height="25" viewBox="0 0 24 25" fill="none" xmlns="http://www.w3.org/2000/svg">
<path d="M9 14.4545L15 8.45447M19.5 4.96145V21.9545L15.75 20.4545L12 21.9545L8.25 20.4545L4.5 21.9545V4.96145C4.5 3.85347 5.30608 2.9046 6.40668 2.77688C8.24156 2.56393 10.108 2.45447 12 2.45447C13.892 2.45447 15.7584 2.56393 17.5933 2.77688C18.6939 2.90461 19.5 3.85347 19.5 4.96145ZM9.75 9.20447H9.7575V9.21197H9.75V9.20447ZM10.125 9.20447C10.125 9.41157 9.95711 9.57947 9.75 9.57947C9.54289 9.57947 9.375 9.41157 9.375 9.20447C9.375 8.99736 9.54289 8.82947 9.75 8.82947C9.95711 8.82947 10.125 8.99736 10.125 9.20447ZM14.25 13.7045H14.2575V13.712H14.25V13.7045ZM14.625 13.7045C14.625 13.9116 14.4571 14.0795 14.25 14.0795C14.0429 14.0795 13.875 13.9116 13.875 13.7045C13.875 13.4974 14.0429 13.3295 14.25 13.3295C14.4571 13.3295 14.625 13.4974 14.625 13.7045Z" stroke="black" stroke-width="1.5" stroke-linecap="round" stroke-linejoin="round"/>
</svg>
