<svg width="24" height="25" viewBox="0 0 24 25" fill="none" xmlns="http://www.w3.org/2000/svg">
<path d="M6 7.0825V6.20447C6 4.96183 7.00736 3.95447 8.25 3.95447H15.75C16.9926 3.95447 18 4.96183 18 6.20447V7.0825M6 7.0825C6.23458 6.99958 6.48702 6.95447 6.75 6.95447H17.25C17.513 6.95447 17.7654 6.99958 18 7.0825M6 7.0825C5.12611 7.39137 4.5 8.2248 4.5 9.20447V10.0825M18 7.0825C18.8739 7.39137 19.5 8.2248 19.5 9.20447V10.0825M19.5 10.0825C19.2654 9.99958 19.013 9.95447 18.75 9.95447H5.25C4.98702 9.95447 4.73458 9.99958 4.5 10.0825M19.5 10.0825C20.3739 10.3914 21 11.2248 21 12.2045V18.2045C21 19.4471 19.9926 20.4545 18.75 20.4545H5.25C4.00736 20.4545 3 19.4471 3 18.2045V12.2045C3 11.2248 3.62611 10.3914 4.5 10.0825" stroke="black" stroke-width="1.5" stroke-linecap="round" stroke-linejoin="round"/>
</svg>
