<svg width="24" height="25" viewBox="0 0 24 25" fill="none" xmlns="http://www.w3.org/2000/svg">
<path d="M2.25 7.32947C2.25 6.70815 2.75368 6.20447 3.375 6.20447H9.375C9.99632 6.20447 10.5 6.70815 10.5 7.32947V11.0795C10.5 11.7008 9.99632 12.2045 9.375 12.2045H3.375C2.75368 12.2045 2.25 11.7008 2.25 11.0795V7.32947Z" stroke="black" stroke-width="1.5" stroke-linecap="round" stroke-linejoin="round"/>
<path d="M14.25 8.82947C14.25 8.20815 14.7537 7.70447 15.375 7.70447H20.625C21.2463 7.70447 21.75 8.20815 21.75 8.82947V17.0795C21.75 17.7008 21.2463 18.2045 20.625 18.2045H15.375C14.7537 18.2045 14.25 17.7008 14.25 17.0795V8.82947Z" stroke="black" stroke-width="1.5" stroke-linecap="round" stroke-linejoin="round"/>
<path d="M3.75 16.3295C3.75 15.7081 4.25368 15.2045 4.875 15.2045H10.125C10.7463 15.2045 11.25 15.7081 11.25 16.3295V18.5795C11.25 19.2008 10.7463 19.7045 10.125 19.7045H4.875C4.25368 19.7045 3.75 19.2008 3.75 18.5795V16.3295Z" stroke="black" stroke-width="1.5" stroke-linecap="round" stroke-linejoin="round"/>
</svg>
