<svg width="24" height="25" viewBox="0 0 24 25" fill="none" xmlns="http://www.w3.org/2000/svg">
<path d="M15.5904 14.5741C15.6948 15.0173 15.75 15.4794 15.75 15.9545C15.75 19.2682 13.0637 21.9545 9.75 21.9545V17.1548M15.5904 14.5741C19.3244 11.8456 21.75 7.4332 21.75 2.45447C16.7715 2.45468 12.3595 4.88033 9.63122 8.61422M15.5904 14.5741C13.8819 15.8226 11.8994 16.7185 9.75 17.1548M9.63122 8.61422C9.18777 8.50974 8.72534 8.45447 8.25 8.45447C4.93629 8.45447 2.25 11.1408 2.25 14.4545H7.05072M9.63122 8.61422C8.38285 10.3227 7.48701 12.3052 7.05072 14.4545M9.75 17.1548C9.64659 17.1758 9.54279 17.1957 9.43862 17.2146C8.53171 16.4954 7.70991 15.6736 6.99079 14.7667C7.00969 14.6623 7.02967 14.5582 7.05072 14.4545M4.81191 16.8452C3.71213 17.6656 3 18.9769 3 20.4545C3 20.6913 3.0183 20.9239 3.05356 21.1509C3.28054 21.1862 3.51313 21.2045 3.75 21.2045C5.22758 21.2045 6.53883 20.4923 7.35925 19.3926M16.5 9.20447C16.5 10.0329 15.8284 10.7045 15 10.7045C14.1716 10.7045 13.5 10.0329 13.5 9.20447C13.5 8.37604 14.1716 7.70447 15 7.70447C15.8284 7.70447 16.5 8.37604 16.5 9.20447Z" stroke="black" stroke-width="1.5" stroke-linecap="round" stroke-linejoin="round"/>
</svg>
