<svg width="24" height="25" viewBox="0 0 24 25" fill="none" xmlns="http://www.w3.org/2000/svg">
<path d="M12 3.20447V20.4545M12 20.4545C10.528 20.4545 9.1179 20.7195 7.81483 21.2045M12 20.4545C13.472 20.4545 14.8821 20.7195 16.1852 21.2045M18.75 5.17536C16.5446 4.86498 14.291 4.70447 12 4.70447C9.70897 4.70447 7.45542 4.86498 5.25 5.17536M18.75 5.17536C19.7604 5.31757 20.7608 5.49123 21.75 5.69534M18.75 5.17536L21.3704 15.9006C21.4922 16.3993 21.2642 16.9282 20.7811 17.102C20.1468 17.3301 19.4629 17.4545 18.75 17.4545C18.0371 17.4545 17.3532 17.3301 16.7189 17.102C16.2358 16.9282 16.0078 16.3993 16.1296 15.9006L18.75 5.17536ZM2.25 5.69534C3.23922 5.49123 4.23956 5.31757 5.25 5.17536M5.25 5.17536L7.87036 15.9006C7.9922 16.3993 7.76419 16.9282 7.28114 17.102C6.6468 17.3301 5.96292 17.4545 5.25 17.4545C4.53708 17.4545 3.8532 17.3301 3.21886 17.102C2.73581 16.9282 2.5078 16.3993 2.62964 15.9006L5.25 5.17536Z" stroke="black" stroke-width="1.5" stroke-linecap="round" stroke-linejoin="round"/>
</svg>
