<svg width="24" height="25" viewBox="0 0 24 25" fill="none" xmlns="http://www.w3.org/2000/svg">
<path d="M7.84786 8.45453L9.38443 9.34167M7.84786 8.45453C7.01943 9.88941 5.18501 10.381 3.75013 9.55256C2.31526 8.72413 1.82363 6.88936 2.65206 5.45448C3.48049 4.0196 5.31526 3.52798 6.75013 4.3564C8.18501 5.18483 8.67629 7.01966 7.84786 8.45453ZM9.38443 9.34167C10.043 9.72189 10.4538 10.4198 10.4666 11.1801C10.4725 11.5317 10.5207 11.8751 10.607 12.2046M9.38443 9.34167L11.4608 10.5405M7.84786 15.9546L9.38443 15.0675M7.84786 15.9546C8.67629 17.3895 8.18501 19.2241 6.75013 20.0526C5.31526 20.881 3.48049 20.3894 2.65206 18.9545C1.82363 17.5196 2.31526 15.6848 3.75013 14.8564C5.18501 14.028 7.01943 14.5197 7.84786 15.9546ZM9.38443 15.0675C10.043 14.6873 10.4538 13.9894 10.4666 13.2291C10.4725 12.8775 10.5207 12.5341 10.607 12.2046M9.38443 15.0675L11.4608 13.8687M11.4608 10.5405C11.9882 9.90347 12.6991 9.41543 13.5294 9.16149L18.8541 7.53301C19.6606 7.28636 20.5202 7.27131 21.3348 7.4896L22.1373 7.70461L14.3431 12.2046M11.4608 10.5405C11.062 11.0222 10.7681 11.5892 10.607 12.2046M14.3431 12.2046L22.1373 16.7045L21.3348 16.9195C20.5202 17.1378 19.6606 17.1228 18.8541 16.8761L13.5294 15.2477C12.6991 14.9937 11.9882 14.5057 11.4608 13.8687M14.3431 12.2046L11.4608 13.8687" stroke="black" stroke-width="1.5" stroke-linecap="round" stroke-linejoin="round"/>
</svg>
