<svg width="24" height="25" viewBox="0 0 24 25" fill="none" xmlns="http://www.w3.org/2000/svg">
<path d="M21.75 17.4545V17.2267C21.75 16.8797 21.7099 16.5339 21.6304 16.1961L19.3622 6.55646C19.0035 5.03192 17.6431 3.95447 16.077 3.95447H7.92305C6.35688 3.95447 4.99648 5.03192 4.63777 6.55646L2.36962 16.1961C2.29014 16.5339 2.25 16.8797 2.25 17.2267V17.4545M21.75 17.4545C21.75 19.1113 20.4069 20.4545 18.75 20.4545H5.25C3.59315 20.4545 2.25 19.1113 2.25 17.4545M21.75 17.4545C21.75 15.7976 20.4069 14.4545 18.75 14.4545H5.25C3.59315 14.4545 2.25 15.7976 2.25 17.4545M18.75 17.4545H18.7575V17.462H18.75V17.4545ZM15.75 17.4545H15.7575V17.462H15.75V17.4545Z" stroke="black" stroke-width="1.5" stroke-linecap="round" stroke-linejoin="round"/>
</svg>
