<svg width="24" height="25" viewBox="0 0 24 25" fill="none" xmlns="http://www.w3.org/2000/svg">
<path d="M5.25 14.4545H18.75M5.25 14.4545C3.59315 14.4545 2.25 13.1113 2.25 11.4545M5.25 14.4545C3.59315 14.4545 2.25 15.7976 2.25 17.4545C2.25 19.1113 3.59315 20.4545 5.25 20.4545H18.75C20.4069 20.4545 21.75 19.1113 21.75 17.4545C21.75 15.7976 20.4069 14.4545 18.75 14.4545M2.25 11.4545C2.25 9.79761 3.59315 8.45447 5.25 8.45447H18.75C20.4069 8.45447 21.75 9.79761 21.75 11.4545M2.25 11.4545C2.25 10.4808 2.5658 9.5334 3.15 8.75447L5.7375 5.30447C6.37488 4.45462 7.37519 3.95447 8.4375 3.95447H15.5625C16.6248 3.95447 17.6251 4.45462 18.2625 5.30447L20.85 8.75447C21.4342 9.5334 21.75 10.4808 21.75 11.4545M21.75 11.4545C21.75 13.1113 20.4069 14.4545 18.75 14.4545M18.75 17.4545H18.7575V17.462H18.75V17.4545ZM18.75 11.4545H18.7575V11.462H18.75V11.4545ZM15.75 17.4545H15.7575V17.462H15.75V17.4545ZM15.75 11.4545H15.7575V11.462H15.75V11.4545Z" stroke="black" stroke-width="1.5" stroke-linecap="round" stroke-linejoin="round"/>
</svg>
