<svg width="24" height="25" viewBox="0 0 24 25" fill="none" xmlns="http://www.w3.org/2000/svg">
<path d="M7.21721 11.1116C6.83295 10.4214 6.096 9.95447 5.25 9.95447C4.00736 9.95447 3 10.9618 3 12.2045C3 13.4471 4.00736 14.4545 5.25 14.4545C6.096 14.4545 6.83295 13.9876 7.21721 13.2974M7.21721 11.1116C7.39737 11.4352 7.5 11.8078 7.5 12.2045C7.5 12.6011 7.39737 12.9738 7.21721 13.2974M7.21721 11.1116L16.7828 5.79736M7.21721 13.2974L16.7828 18.6116M16.7828 18.6116C16.6026 18.9352 16.5 19.3078 16.5 19.7045C16.5 20.9471 17.5074 21.9545 18.75 21.9545C19.9926 21.9545 21 20.9471 21 19.7045C21 18.4618 19.9926 17.4545 18.75 17.4545C17.904 17.4545 17.1671 17.9214 16.7828 18.6116ZM16.7828 5.79736C17.1671 6.48755 17.904 6.95447 18.75 6.95447C19.9926 6.95447 21 5.94711 21 4.70447C21 3.46183 19.9926 2.45447 18.75 2.45447C17.5074 2.45447 16.5 3.46183 16.5 4.70447C16.5 5.10111 16.6026 5.47377 16.7828 5.79736Z" stroke="black" stroke-width="1.5" stroke-linecap="round" stroke-linejoin="round"/>
</svg>
