<svg width="24" height="25" viewBox="0 0 24 25" fill="none" xmlns="http://www.w3.org/2000/svg">
<path d="M12 9.20444V12.9544M12 2.9187C9.8495 4.95532 6.94563 6.20445 3.75 6.20445C3.69922 6.20445 3.64852 6.20414 3.59789 6.20351C3.2099 7.38362 3 8.64454 3 9.9545C3 15.546 6.82432 20.2443 12 21.5764C17.1757 20.2443 21 15.546 21 9.9545C21 8.64454 20.7901 7.38362 20.4021 6.20351C20.3515 6.20414 20.3008 6.20445 20.25 6.20445C17.0544 6.20445 14.1505 4.95532 12 2.9187ZM12 15.9544H12.0075V15.9619H12V15.9544Z" stroke="black" stroke-width="1.5" stroke-linecap="round" stroke-linejoin="round"/>
</svg>
