<svg width="24" height="25" viewBox="0 0 24 25" fill="none" xmlns="http://www.w3.org/2000/svg">
<path d="M2.25 3.20447H3.63568C4.14537 3.20447 4.59138 3.54712 4.7227 4.03959L5.1059 5.47656M7.5 14.4545C5.84315 14.4545 4.5 15.7976 4.5 17.4545H20.25M7.5 14.4545H18.7183C19.8394 12.1538 20.8177 9.77082 21.6417 7.31697C16.88 6.10092 11.8905 5.45447 6.75 5.45447C6.20021 5.45447 5.65214 5.46187 5.1059 5.47656M7.5 14.4545L5.1059 5.47656M6 20.4545C6 20.8687 5.66421 21.2045 5.25 21.2045C4.83579 21.2045 4.5 20.8687 4.5 20.4545C4.5 20.0403 4.83579 19.7045 5.25 19.7045C5.66421 19.7045 6 20.0403 6 20.4545ZM18.75 20.4545C18.75 20.8687 18.4142 21.2045 18 21.2045C17.5858 21.2045 17.25 20.8687 17.25 20.4545C17.25 20.0403 17.5858 19.7045 18 19.7045C18.4142 19.7045 18.75 20.0403 18.75 20.4545Z" stroke="black" stroke-width="1.5" stroke-linecap="round" stroke-linejoin="round"/>
</svg>
