<svg width="24" height="25" viewBox="0 0 24 25" fill="none" xmlns="http://www.w3.org/2000/svg">
<path d="M15.75 10.7045V6.20447C15.75 4.1334 14.0711 2.45447 12 2.45447C9.92893 2.45447 8.25 4.1334 8.25 6.20447V10.7045M19.606 8.7117L20.8692 20.7117C20.9391 21.3759 20.4183 21.9545 19.7504 21.9545H4.24963C3.58172 21.9545 3.06089 21.3759 3.13081 20.7117L4.39397 8.7117C4.45424 8.13913 4.93706 7.70447 5.51279 7.70447H18.4872C19.0629 7.70447 19.5458 8.13913 19.606 8.7117ZM8.625 10.7045C8.625 10.9116 8.4571 11.0795 8.25 11.0795C8.04289 11.0795 7.875 10.9116 7.875 10.7045C7.875 10.4974 8.04289 10.3295 8.25 10.3295C8.4571 10.3295 8.625 10.4974 8.625 10.7045ZM16.125 10.7045C16.125 10.9116 15.9571 11.0795 15.75 11.0795C15.5429 11.0795 15.375 10.9116 15.375 10.7045C15.375 10.4974 15.5429 10.3295 15.75 10.3295C15.9571 10.3295 16.125 10.4974 16.125 10.7045Z" stroke="black" stroke-width="1.5" stroke-linecap="round" stroke-linejoin="round"/>
</svg>
