<svg width="24" height="25" viewBox="0 0 24 25" fill="none" xmlns="http://www.w3.org/2000/svg">
<path d="M9.34835 14.8561C7.88388 13.3917 7.88388 11.0173 9.34835 9.55282M14.6517 9.55282C16.1161 11.0173 16.1161 13.3917 14.6517 14.8561M7.22703 16.9774C4.59099 14.3414 4.59099 10.0675 7.22703 7.4315M16.773 7.4315C19.409 10.0675 19.409 14.3414 16.773 16.9774M5.10571 19.0988C1.2981 15.2912 1.2981 9.11779 5.10571 5.31018M18.8943 5.31018C22.7019 9.11779 22.7019 15.2912 18.8943 19.0988M12 12.2045H12.0075V12.212H12V12.2045ZM12.375 12.2045C12.375 12.4116 12.2071 12.5795 12 12.5795C11.7929 12.5795 11.625 12.4116 11.625 12.2045C11.625 11.9974 11.7929 11.8295 12 11.8295C12.2071 11.8295 12.375 11.9974 12.375 12.2045Z" stroke="black" stroke-width="1.5" stroke-linecap="round" stroke-linejoin="round"/>
</svg>
