<svg width="24" height="25" viewBox="0 0 24 25" fill="none" xmlns="http://www.w3.org/2000/svg">
<path d="M3 3.20447L11.7348 11.9393M11.7348 11.9393C11.8027 11.8714 11.8964 11.8295 12 11.8295C12.2071 11.8295 12.375 11.9974 12.375 12.2045C12.375 12.308 12.333 12.4018 12.2652 12.4696M11.7348 11.9393L12.2652 12.4696M12.2652 12.4696L21 21.2045M14.6517 9.55282C16.1161 11.0173 16.1161 13.3917 14.6517 14.8561M16.773 7.4315C19.409 10.0675 19.409 14.3414 16.773 16.9774M18.8943 5.31018C22.7019 9.11779 22.7019 15.2911 18.8943 19.0988M9.34835 14.8561C8.75129 14.2591 8.39765 13.5108 8.28743 12.7345M7.22703 16.9774C5.35299 15.1034 4.81126 12.4016 5.60184 10.049M5.10571 19.0988C2.03824 16.0313 1.44197 11.4284 3.3169 7.76401M12 12.2045H12.0075V12.212H12V12.2045Z" stroke="black" stroke-width="1.5" stroke-linecap="round" stroke-linejoin="round"/>
</svg>
