<svg width="24" height="25" viewBox="0 0 24 25" fill="none" xmlns="http://www.w3.org/2000/svg">
<path d="M9.8132 16.1083L9 18.9545L8.1868 16.1083C7.75968 14.6133 6.59112 13.4448 5.09619 13.0177L2.25 12.2045L5.09619 11.3913C6.59113 10.9641 7.75968 9.79559 8.1868 8.30066L9 5.45447L9.8132 8.30066C10.2403 9.79559 11.4089 10.9641 12.9038 11.3913L15.75 12.2045L12.9038 13.0177C11.4089 13.4448 10.2403 14.6133 9.8132 16.1083Z" stroke="black" stroke-width="1.5" stroke-linecap="round" stroke-linejoin="round"/>
<path d="M18.2589 8.91901L18 9.95447L17.7411 8.91901C17.4388 7.70979 16.4947 6.76564 15.2855 6.46333L14.25 6.20447L15.2855 5.9456C16.4947 5.6433 17.4388 4.69914 17.7411 3.48993L18 2.45447L18.2589 3.48993C18.5612 4.69914 19.5053 5.6433 20.7145 5.9456L21.75 6.20447L20.7145 6.46333C19.5053 6.76564 18.5612 7.70979 18.2589 8.91901Z" stroke="black" stroke-width="1.5" stroke-linecap="round" stroke-linejoin="round"/>
<path d="M16.8942 20.7717L16.5 21.9545L16.1058 20.7717C15.8818 20.0999 15.3546 19.5727 14.6827 19.3487L13.5 18.9545L14.6827 18.5602C15.3546 18.3363 15.8818 17.8091 16.1058 17.1372L16.5 15.9545L16.8942 17.1372C17.1182 17.8091 17.6454 18.3363 18.3173 18.5602L19.5 18.9545L18.3173 19.3487C17.6454 19.5727 17.1182 20.0999 16.8942 20.7717Z" stroke="black" stroke-width="1.5" stroke-linecap="round" stroke-linejoin="round"/>
</svg>
