<svg width="24" height="25" viewBox="0 0 24 25" fill="none" xmlns="http://www.w3.org/2000/svg">
<path d="M19.114 5.8405C22.6287 9.35522 22.6287 15.0537 19.114 18.5684M16.4626 8.49224C18.5129 10.5425 18.5129 13.8666 16.4626 15.9169M6.75 8.45452L11.4697 3.73485C11.9421 3.26237 12.75 3.597 12.75 4.26518V20.1439C12.75 20.812 11.9421 21.1467 11.4697 20.6742L6.75 15.9545H4.50905C3.62971 15.9545 2.8059 15.448 2.57237 14.6003C2.36224 13.8375 2.25 13.0341 2.25 12.2045C2.25 11.3749 2.36224 10.5716 2.57237 9.80875C2.8059 8.96099 3.62971 8.45452 4.50905 8.45452H6.75Z" stroke="black" stroke-width="1.5" stroke-linecap="round" stroke-linejoin="round"/>
</svg>
