<svg width="24" height="25" viewBox="0 0 24 25" fill="none" xmlns="http://www.w3.org/2000/svg">
<path d="M16.5 8.45447V6.20447C16.5 4.96183 15.4926 3.95447 14.25 3.95447H6C4.75736 3.95447 3.75 4.96183 3.75 6.20447V14.4545C3.75 15.6971 4.75736 16.7045 6 16.7045H8.25M16.5 8.45447H18C19.2426 8.45447 20.25 9.46183 20.25 10.7045V18.2045C20.25 19.4471 19.2426 20.4545 18 20.4545H10.5C9.25736 20.4545 8.25 19.4471 8.25 18.2045V16.7045M16.5 8.45447H10.5C9.25736 8.45447 8.25 9.46183 8.25 10.7045V16.7045" stroke="black" stroke-width="1.5" stroke-linecap="round" stroke-linejoin="round"/>
</svg>
