<svg width="24" height="25" viewBox="0 0 24 25" fill="none" xmlns="http://www.w3.org/2000/svg">
<path d="M13.5 17.0795H16.875M16.875 17.0795H20.25M16.875 17.0795V13.7045M16.875 17.0795V20.4545M6 10.7045H8.25C9.49264 10.7045 10.5 9.69711 10.5 8.45447V6.20447C10.5 4.96183 9.49264 3.95447 8.25 3.95447H6C4.75736 3.95447 3.75 4.96183 3.75 6.20447V8.45447C3.75 9.69711 4.75736 10.7045 6 10.7045ZM6 20.4545H8.25C9.49264 20.4545 10.5 19.4471 10.5 18.2045V15.9545C10.5 14.7118 9.49264 13.7045 8.25 13.7045H6C4.75736 13.7045 3.75 14.7118 3.75 15.9545V18.2045C3.75 19.4471 4.75736 20.4545 6 20.4545ZM15.75 10.7045H18C19.2426 10.7045 20.25 9.69711 20.25 8.45447V6.20447C20.25 4.96183 19.2426 3.95447 18 3.95447H15.75C14.5074 3.95447 13.5 4.96183 13.5 6.20447V8.45447C13.5 9.69711 14.5074 10.7045 15.75 10.7045Z" stroke="black" stroke-width="1.5" stroke-linecap="round" stroke-linejoin="round"/>
</svg>
