<svg width="24" height="25" viewBox="0 0 24 25" fill="none" xmlns="http://www.w3.org/2000/svg">
<path d="M3.75 6.20447C3.75 4.96183 4.75736 3.95447 6 3.95447H8.25C9.49264 3.95447 10.5 4.96183 10.5 6.20447V8.45447C10.5 9.69711 9.49264 10.7045 8.25 10.7045H6C4.75736 10.7045 3.75 9.69711 3.75 8.45447V6.20447Z" stroke="black" stroke-width="1.5" stroke-linecap="round" stroke-linejoin="round"/>
<path d="M3.75 15.9545C3.75 14.7118 4.75736 13.7045 6 13.7045H8.25C9.49264 13.7045 10.5 14.7118 10.5 15.9545V18.2045C10.5 19.4471 9.49264 20.4545 8.25 20.4545H6C4.75736 20.4545 3.75 19.4471 3.75 18.2045V15.9545Z" stroke="black" stroke-width="1.5" stroke-linecap="round" stroke-linejoin="round"/>
<path d="M13.5 6.20447C13.5 4.96183 14.5074 3.95447 15.75 3.95447H18C19.2426 3.95447 20.25 4.96183 20.25 6.20447V8.45447C20.25 9.69711 19.2426 10.7045 18 10.7045H15.75C14.5074 10.7045 13.5 9.69711 13.5 8.45447V6.20447Z" stroke="black" stroke-width="1.5" stroke-linecap="round" stroke-linejoin="round"/>
<path d="M13.5 15.9545C13.5 14.7118 14.5074 13.7045 15.75 13.7045H18C19.2426 13.7045 20.25 14.7118 20.25 15.9545V18.2045C20.25 19.4471 19.2426 20.4545 18 20.4545H15.75C14.5074 20.4545 13.5 19.4471 13.5 18.2045V15.9545Z" stroke="black" stroke-width="1.5" stroke-linecap="round" stroke-linejoin="round"/>
</svg>
