<svg width="24" height="25" viewBox="0 0 24 25" fill="none" xmlns="http://www.w3.org/2000/svg">
<path d="M11.4806 3.70317C11.6728 3.2412 12.3272 3.2412 12.5193 3.70317L14.6453 8.81463C14.7263 9.00939 14.9095 9.14246 15.1197 9.15931L20.638 9.60171C21.1367 9.64169 21.339 10.2641 20.959 10.5896L16.7546 14.1911C16.5945 14.3283 16.5245 14.5436 16.5734 14.7488L17.8579 20.1336C17.974 20.6203 17.4446 21.005 17.0176 20.7442L12.2932 17.8586C12.1132 17.7486 11.8868 17.7486 11.7068 17.8586L6.98238 20.7442C6.55539 21.005 6.02594 20.6203 6.14203 20.1336L7.42652 14.7488C7.47546 14.5436 7.4055 14.3283 7.24531 14.1911L3.04099 10.5896C2.661 10.2641 2.86323 9.64169 3.36197 9.60171L8.88022 9.15931C9.09048 9.14246 9.27363 9.00939 9.35464 8.81463L11.4806 3.70317Z" stroke="black" stroke-width="1.5" stroke-linecap="round" stroke-linejoin="round"/>
</svg>
