<svg width="24" height="25" viewBox="0 0 24 25" fill="none" xmlns="http://www.w3.org/2000/svg">
<path d="M4.09835 20.1061C5.56282 21.5706 7.93719 21.5706 9.40165 20.1061L15.8033 13.7045M6.75 21.2045C4.67893 21.2045 3 19.5255 3 17.4545V4.32947C3 3.70815 3.50368 3.20447 4.125 3.20447H9.375C9.99632 3.20447 10.5 3.70815 10.5 4.32947V8.40117M6.75 21.2045C8.82107 21.2045 10.5 19.5255 10.5 17.4545V8.40117M6.75 21.2045H19.875C20.4963 21.2045 21 20.7008 21 20.0795V14.8295C21 14.2081 20.4963 13.7045 19.875 13.7045H15.8033M10.5 8.40117L13.3791 5.52204C13.8185 5.0827 14.5308 5.0827 14.9701 5.52204L18.6824 9.23435C19.1218 9.67369 19.1218 10.386 18.6824 10.8253L15.8033 13.7045M6.75 17.4545H6.7575V17.462H6.75V17.4545Z" stroke="black" stroke-width="1.5" stroke-linecap="round" stroke-linejoin="round"/>
</svg>
