<svg width="24" height="25" viewBox="0 0 24 25" fill="none" xmlns="http://www.w3.org/2000/svg">
<path d="M3.375 19.7045H20.625M3.375 19.7045C2.75368 19.7045 2.25 19.2008 2.25 18.5795M3.375 19.7045H10.875C11.4963 19.7045 12 19.2008 12 18.5795M2.25 18.5795V5.82947M2.25 18.5795V17.0795C2.25 16.4581 2.75368 15.9545 3.375 15.9545M21.75 18.5795V5.82947M21.75 18.5795C21.75 19.2008 21.2463 19.7045 20.625 19.7045M21.75 18.5795V17.0795C21.75 16.4581 21.2463 15.9545 20.625 15.9545M20.625 19.7045H13.125C12.5037 19.7045 12 19.2008 12 18.5795M21.75 5.82947C21.75 5.20815 21.2463 4.70447 20.625 4.70447H3.375C2.75368 4.70447 2.25 5.20815 2.25 5.82947M21.75 5.82947V7.32947C21.75 7.95079 21.2463 8.45447 20.625 8.45447M2.25 5.82947V7.32947C2.25 7.95079 2.75368 8.45447 3.375 8.45447M3.375 8.45447H20.625M3.375 8.45447H10.875C11.4963 8.45447 12 8.95815 12 9.57947M3.375 8.45447C2.75368 8.45447 2.25 8.95815 2.25 9.57947V11.0795C2.25 11.7008 2.75368 12.2045 3.375 12.2045M20.625 8.45447H13.125C12.5037 8.45447 12 8.95815 12 9.57947M20.625 8.45447C21.2463 8.45447 21.75 8.95815 21.75 9.57947V11.0795C21.75 11.7008 21.2463 12.2045 20.625 12.2045M3.375 12.2045H10.875M3.375 12.2045C2.75368 12.2045 2.25 12.7081 2.25 13.3295V14.8295C2.25 15.4508 2.75368 15.9545 3.375 15.9545M12 11.0795V9.57947M12 11.0795C12 11.7008 11.4963 12.2045 10.875 12.2045M12 11.0795C12 11.7008 12.5037 12.2045 13.125 12.2045M10.875 12.2045C11.4963 12.2045 12 12.7081 12 13.3295M13.125 12.2045H20.625M13.125 12.2045C12.5037 12.2045 12 12.7081 12 13.3295M20.625 12.2045C21.2463 12.2045 21.75 12.7081 21.75 13.3295V14.8295C21.75 15.4508 21.2463 15.9545 20.625 15.9545M3.375 15.9545H10.875M12 14.8295V13.3295M12 14.8295C12 15.4508 11.4963 15.9545 10.875 15.9545M12 14.8295C12 15.4508 12.5037 15.9545 13.125 15.9545M10.875 15.9545C11.4963 15.9545 12 16.4581 12 17.0795M12 18.5795V17.0795M12 17.0795C12 16.4581 12.5037 15.9545 13.125 15.9545M13.125 15.9545H20.625" stroke="black" stroke-width="1.5" stroke-linecap="round" stroke-linejoin="round"/>
</svg>
