<svg width="24" height="25" viewBox="0 0 24 25" fill="none" xmlns="http://www.w3.org/2000/svg">
<path d="M16.5 6.20447V6.95447M16.5 9.95447V10.7045M16.5 13.7045V14.4545M16.5 17.4545V18.2045M7.5 12.9545H12.75M7.5 15.2045H10.5M3.375 5.45447C2.75368 5.45447 2.25 5.95815 2.25 6.57947V9.60581C3.1467 10.1245 3.75 11.094 3.75 12.2045C3.75 13.3149 3.1467 14.2844 2.25 14.8031V17.8295C2.25 18.4508 2.75368 18.9545 3.375 18.9545H20.625C21.2463 18.9545 21.75 18.4508 21.75 17.8295V14.8031C20.8533 14.2844 20.25 13.3149 20.25 12.2045C20.25 11.094 20.8533 10.1245 21.75 9.60581V6.57947C21.75 5.95815 21.2463 5.45447 20.625 5.45447H3.375Z" stroke="black" stroke-width="1.5" stroke-linecap="round" stroke-linejoin="round"/>
</svg>
