<svg width="24" height="25" viewBox="0 0 24 25" fill="none" xmlns="http://www.w3.org/2000/svg">
<path d="M14.7404 9.20447L14.3942 18.2045M9.60577 18.2045L9.25962 9.20447M19.2276 5.99504C19.5696 6.04668 19.9104 6.10194 20.25 6.16076M19.2276 5.99504L18.1598 19.877C18.0696 21.0493 17.0921 21.9545 15.9164 21.9545H8.08357C6.90786 21.9545 5.93037 21.0493 5.8402 19.877L4.77235 5.99504M19.2276 5.99504C18.0812 5.8219 16.9215 5.68932 15.75 5.59879M3.75 6.16076C4.08957 6.10194 4.43037 6.04668 4.77235 5.99504M4.77235 5.99504C5.91878 5.8219 7.07849 5.68932 8.25 5.59879M15.75 5.59879V4.68265C15.75 3.50329 14.8393 2.5187 13.6606 2.48099C13.1092 2.46335 12.5556 2.45447 12 2.45447C11.4444 2.45447 10.8908 2.46335 10.3394 2.48099C9.16065 2.5187 8.25 3.50329 8.25 4.68265V5.59879M15.75 5.59879C14.5126 5.50317 13.262 5.45447 12 5.45447C10.738 5.45447 9.48744 5.50317 8.25 5.59879" stroke="black" stroke-width="1.5" stroke-linecap="round" stroke-linejoin="round"/>
</svg>
