<svg width="24" height="25" viewBox="0 0 24 25" fill="none" xmlns="http://www.w3.org/2000/svg">
<path d="M8.25 18.9546C8.25 19.783 7.57843 20.4546 6.75 20.4546C5.92157 20.4546 5.25 19.783 5.25 18.9546M8.25 18.9546C8.25 18.1262 7.57843 17.4546 6.75 17.4546C5.92157 17.4546 5.25 18.1262 5.25 18.9546M8.25 18.9546H14.25M5.25 18.9546H3.375C2.75368 18.9546 2.25 18.4509 2.25 17.8296V14.455M19.5 18.9546C19.5 19.783 18.8284 20.4546 18 20.4546C17.1716 20.4546 16.5 19.783 16.5 18.9546M19.5 18.9546C19.5 18.1262 18.8284 17.4546 18 17.4546C17.1716 17.4546 16.5 18.1262 16.5 18.9546M19.5 18.9546L20.625 18.9546C21.2463 18.9546 21.7537 18.4503 21.7154 17.8302C21.5054 14.4226 20.3473 11.2715 18.5016 8.63743C18.1394 8.12051 17.5529 7.81233 16.9227 7.77774H14.25M16.5 18.9546H14.25M14.25 7.77774V6.81938C14.25 6.25189 13.8275 5.7718 13.263 5.71322C11.6153 5.54223 9.94291 5.45459 8.25 5.45459C6.55709 5.45459 4.88466 5.54223 3.23698 5.71322C2.67252 5.7718 2.25 6.25189 2.25 6.81938V14.455M14.25 7.77774V14.455M14.25 18.9546V14.455M14.25 14.455H2.25" stroke="black" stroke-width="1.5" stroke-linecap="round" stroke-linejoin="round"/>
</svg>
