<svg width="24" height="25" viewBox="0 0 24 25" fill="none" xmlns="http://www.w3.org/2000/svg">
<path d="M22 10.7046H16M13.75 6.57959C13.75 8.44355 12.239 9.95459 10.375 9.95459C8.51104 9.95459 7 8.44355 7 6.57959C7 4.71563 8.51104 3.20459 10.375 3.20459C12.239 3.20459 13.75 4.71563 13.75 6.57959ZM4.00092 19.4389C4.00031 19.4025 4 19.3661 4 19.3296C4 15.8088 6.85418 12.9546 10.375 12.9546C13.8958 12.9546 16.75 15.8088 16.75 19.3296V19.3321C16.75 19.3678 16.7497 19.4034 16.7491 19.4389C14.8874 20.5598 12.7065 21.2046 10.375 21.2046C8.04353 21.2046 5.86264 20.5598 4.00092 19.4389Z" stroke="black" stroke-width="1.5" stroke-linecap="round" stroke-linejoin="round"/>
</svg>
