<svg width="24" height="25" viewBox="0 0 24 25" fill="none" xmlns="http://www.w3.org/2000/svg">
<path d="M15 19.3321C15.8329 19.5746 16.7138 19.7046 17.625 19.7046C19.1037 19.7046 20.5025 19.3622 21.7464 18.7524C21.7488 18.6951 21.75 18.6375 21.75 18.5796C21.75 16.3014 19.9031 14.4546 17.625 14.4546C16.2069 14.4546 14.956 15.1701 14.2136 16.2598M15 19.3321V19.3296C15 18.2167 14.7148 17.1704 14.2136 16.2598M15 19.3321C15 19.3678 14.9997 19.4034 14.9991 19.4389C13.1374 20.5598 10.9565 21.2046 8.625 21.2046C6.29353 21.2046 4.11264 20.5598 2.25092 19.4389C2.25031 19.4025 2.25 19.3661 2.25 19.3296C2.25 15.8088 5.10418 12.9546 8.625 12.9546C11.0329 12.9546 13.129 14.2896 14.2136 16.2598M12 6.57959C12 8.44355 10.489 9.95459 8.625 9.95459C6.76104 9.95459 5.25 8.44355 5.25 6.57959C5.25 4.71563 6.76104 3.20459 8.625 3.20459C10.489 3.20459 12 4.71563 12 6.57959ZM20.25 8.82959C20.25 10.2793 19.0747 11.4546 17.625 11.4546C16.1753 11.4546 15 10.2793 15 8.82959C15 7.37984 16.1753 6.20459 17.625 6.20459C19.0747 6.20459 20.25 7.37984 20.25 8.82959Z" stroke="black" stroke-width="1.5" stroke-linecap="round" stroke-linejoin="round"/>
</svg>
