<svg width="24" height="25" viewBox="0 0 24 25" fill="none" xmlns="http://www.w3.org/2000/svg">
<path d="M17.9999 18.9237C18.2474 18.9442 18.4978 18.9546 18.7506 18.9546C19.7989 18.9546 20.8054 18.7754 21.741 18.4458C21.7473 18.3663 21.7506 18.2858 21.7506 18.2046C21.7506 16.5477 20.4074 15.2046 18.7506 15.2046C18.123 15.2046 17.5403 15.3973 17.0587 15.7268M17.9999 18.9237C18 18.934 18 18.9443 18 18.9546C18 19.1796 17.9876 19.4017 17.9635 19.6202C16.2067 20.6282 14.1707 21.2046 12 21.2046C9.82933 21.2046 7.79327 20.6282 6.03651 19.6202C6.01238 19.4017 6 19.1796 6 18.9546C6 18.9443 6.00003 18.9341 6.00008 18.9238M17.9999 18.9237C17.994 17.7472 17.6494 16.6507 17.0587 15.7268M17.0587 15.7268C15.9928 14.0598 14.1255 12.9546 12 12.9546C9.87479 12.9546 8.00765 14.0595 6.94169 15.7262M6.94169 15.7262C6.46023 15.3971 5.87796 15.2046 5.25073 15.2046C3.59388 15.2046 2.25073 16.5477 2.25073 18.2046C2.25073 18.2858 2.25396 18.3663 2.26029 18.4458C3.19593 18.7754 4.2024 18.9546 5.25073 18.9546C5.50307 18.9546 5.75299 18.9442 6.00008 18.9238M6.94169 15.7262C6.35071 16.6503 6.00598 17.747 6.00008 18.9238M15 6.95459C15 8.61144 13.6569 9.95459 12 9.95459C10.3431 9.95459 9 8.61144 9 6.95459C9 5.29774 10.3431 3.95459 12 3.95459C13.6569 3.95459 15 5.29774 15 6.95459ZM21 9.95459C21 11.1972 19.9926 12.2046 18.75 12.2046C17.5074 12.2046 16.5 11.1972 16.5 9.95459C16.5 8.71195 17.5074 7.70459 18.75 7.70459C19.9926 7.70459 21 8.71195 21 9.95459ZM7.5 9.95459C7.5 11.1972 6.49264 12.2046 5.25 12.2046C4.00736 12.2046 3 11.1972 3 9.95459C3 8.71195 4.00736 7.70459 5.25 7.70459C6.49264 7.70459 7.5 8.71195 7.5 9.95459Z" stroke="black" stroke-width="1.5" stroke-linecap="round" stroke-linejoin="round"/>
</svg>
