<svg width="24" height="25" viewBox="0 0 24 25" fill="none" xmlns="http://www.w3.org/2000/svg">
<path d="M18 7.70459V10.7046M18 10.7046V13.7046M18 10.7046H21M18 10.7046H15M12.75 6.57959C12.75 8.44355 11.239 9.95459 9.375 9.95459C7.51104 9.95459 6 8.44355 6 6.57959C6 4.71563 7.51104 3.20459 9.375 3.20459C11.239 3.20459 12.75 4.71563 12.75 6.57959ZM3.00092 19.4389C3.00031 19.4025 3 19.3661 3 19.3296C3 15.8088 5.85418 12.9546 9.375 12.9546C12.8958 12.9546 15.75 15.8088 15.75 19.3296V19.3321C15.75 19.3678 15.7497 19.4034 15.7491 19.4389C13.8874 20.5598 11.7065 21.2046 9.375 21.2046C7.04353 21.2046 4.86264 20.5598 3.00092 19.4389Z" stroke="black" stroke-width="1.5" stroke-linecap="round" stroke-linejoin="round"/>
</svg>
