<svg width="24" height="25" viewBox="0 0 24 25" fill="none" xmlns="http://www.w3.org/2000/svg">
<path d="M17.9815 18.9294C16.6121 17.1221 14.4424 15.9546 12 15.9546C9.55761 15.9546 7.38789 17.1221 6.01846 18.9294M17.9815 18.9294C19.8335 17.2809 21 14.879 21 12.2046C21 7.23403 16.9706 3.20459 12 3.20459C7.02944 3.20459 3 7.23403 3 12.2046C3 14.879 4.1665 17.2809 6.01846 18.9294M17.9815 18.9294C16.3915 20.3447 14.2962 21.2046 12 21.2046C9.70383 21.2046 7.60851 20.3447 6.01846 18.9294M15 9.95459C15 11.6114 13.6569 12.9546 12 12.9546C10.3431 12.9546 9 11.6114 9 9.95459C9 8.29774 10.3431 6.95459 12 6.95459C13.6569 6.95459 15 8.29774 15 9.95459Z" stroke="black" stroke-width="1.5" stroke-linecap="round" stroke-linejoin="round"/>
</svg>
