<svg width="24" height="25" viewBox="0 0 24 25" fill="none" xmlns="http://www.w3.org/2000/svg">
<path d="M4.74455 3.20459C3.61952 5.98388 3 9.02189 3 12.2046C3 15.3873 3.61952 18.4253 4.74455 21.2046M19.5 3.20459C20.4673 5.98388 21 9.02189 21 12.2046C21 15.3873 20.4673 18.4253 19.5 21.2046M8.25 9.08921L9.6945 8.20028C10.1061 7.947 10.6463 8.14338 10.7991 8.60185L13.2009 15.8073C13.3537 16.2658 13.8939 16.4622 14.3055 16.2089L15.75 15.32M7.5 16.07L7.71335 16.1602C8.45981 16.476 9.32536 16.2166 9.77495 15.5422L14.225 8.86702C14.6746 8.19263 15.5402 7.93313 16.2867 8.24894L16.5 8.33921" stroke="black" stroke-width="1.5" stroke-linecap="round" stroke-linejoin="round"/>
</svg>
