<svg width="24" height="25" viewBox="0 0 24 25" fill="none" xmlns="http://www.w3.org/2000/svg">
<path d="M15.75 10.7046L20.4697 5.98492C20.9421 5.51245 21.75 5.84707 21.75 6.51525V17.8939C21.75 18.5621 20.9421 18.8967 20.4697 18.4243L15.75 13.7046M12 18.9546H4.5C3.25736 18.9546 2.25 17.9472 2.25 16.7046V9.20459M15.091 18.2956L16.5 19.7046M15.091 18.2956C15.4982 17.8884 15.75 17.3259 15.75 16.7046V7.70459C15.75 6.46195 14.7426 5.45459 13.5 5.45459H4.5C3.87868 5.45459 3.31618 5.70643 2.90901 6.1136M15.091 18.2956L2.90901 6.1136M1.5 4.70459L2.90901 6.1136" stroke="black" stroke-width="1.5" stroke-linecap="round" stroke-linejoin="round"/>
</svg>
