<svg width="24" height="25" viewBox="0 0 24 25" fill="none" xmlns="http://www.w3.org/2000/svg">
<path d="M7.5 3.95459H6C4.75736 3.95459 3.75 4.96195 3.75 6.20459V7.70459M16.5 3.95459H18C19.2426 3.95459 20.25 4.96195 20.25 6.20459V7.70459M20.25 16.7046V18.2046C20.25 19.4472 19.2426 20.4546 18 20.4546H16.5M7.5 20.4546H6C4.75736 20.4546 3.75 19.4472 3.75 18.2046V16.7046M15 12.2046C15 13.8614 13.6569 15.2046 12 15.2046C10.3431 15.2046 9 13.8614 9 12.2046C9 10.5477 10.3431 9.20459 12 9.20459C13.6569 9.20459 15 10.5477 15 12.2046Z" stroke="black" stroke-width="1.5" stroke-linecap="round" stroke-linejoin="round"/>
</svg>
