<svg width="24" height="25" viewBox="0 0 24 25" fill="none" xmlns="http://www.w3.org/2000/svg">
<path d="M21 12.2046C21 10.9619 19.9926 9.95459 18.75 9.95459H15C15 11.6114 13.6569 12.9546 12 12.9546C10.3431 12.9546 9 11.6114 9 9.95459H5.25C4.00736 9.95459 3 10.9619 3 12.2046M21 12.2046V18.2046C21 19.4472 19.9926 20.4546 18.75 20.4546H5.25C4.00736 20.4546 3 19.4472 3 18.2046V12.2046M21 12.2046V9.20459M3 12.2046V9.20459M21 9.20459C21 7.96195 19.9926 6.95459 18.75 6.95459H5.25C4.00736 6.95459 3 7.96195 3 9.20459M21 9.20459V6.20459C21 4.96195 19.9926 3.95459 18.75 3.95459H5.25C4.00736 3.95459 3 4.96195 3 6.20459V9.20459" stroke="black" stroke-width="1.5" stroke-linecap="round" stroke-linejoin="round"/>
</svg>
