<svg width="24" height="25" viewBox="0 0 24 25" fill="none" xmlns="http://www.w3.org/2000/svg">
<path d="M21.75 6.95459C21.75 9.43987 19.7353 11.4546 17.25 11.4546C17.1206 11.4546 16.9925 11.4491 16.8659 11.4384C15.7904 11.3475 14.6016 11.5098 13.9155 12.3429L6.76432 21.0265C6.28037 21.6141 5.55897 21.9546 4.79769 21.9546C3.39064 21.9546 2.25 20.814 2.25 19.4069C2.25 18.6456 2.59044 17.9242 3.1781 17.4403L11.8617 10.2891C12.6948 9.603 12.8571 8.41415 12.7662 7.3387C12.7555 7.21208 12.75 7.08397 12.75 6.95459C12.75 4.46931 14.7647 2.45459 17.25 2.45459C17.9103 2.45459 18.5375 2.59682 19.1024 2.85233L15.8262 6.12856C16.0823 7.24422 16.9605 8.12244 18.0762 8.37856L21.3524 5.10238C21.6078 5.66727 21.75 6.29432 21.75 6.95459Z" stroke="black" stroke-width="1.5" stroke-linecap="round" stroke-linejoin="round"/>
<path d="M4.86723 19.3296H4.87473V19.3371H4.86723V19.3296Z" stroke="black" stroke-width="1.5" stroke-linecap="round" stroke-linejoin="round"/>
</svg>
