<svg width="24" height="25" viewBox="0 0 24 25" fill="none" xmlns="http://www.w3.org/2000/svg">
<path d="M11.4194 15.3739L17.25 21.2046C18.2855 22.2401 19.9645 22.2401 21 21.2046C22.0355 20.1691 22.0355 18.4901 21 17.4546L15.1233 11.5779M11.4194 15.3739L13.9155 12.3429C14.2315 11.9592 14.6542 11.7178 15.1233 11.5779M11.4194 15.3739L6.76432 21.0265C6.28037 21.6141 5.55897 21.9546 4.79768 21.9546C3.39064 21.9546 2.25 20.814 2.25 19.4069C2.25 18.6456 2.59044 17.9242 3.1781 17.4403L10.0146 11.8102M15.1233 11.5779C15.6727 11.414 16.2858 11.3894 16.8659 11.4384C16.9925 11.4491 17.1206 11.4546 17.25 11.4546C19.7353 11.4546 21.75 9.43987 21.75 6.95459C21.75 6.29432 21.6078 5.66727 21.3523 5.10238L18.0762 8.37856C16.9605 8.12244 16.0823 7.24422 15.8262 6.12856L19.1024 2.85233C18.5375 2.59682 17.9103 2.45459 17.25 2.45459C14.7647 2.45459 12.75 4.46931 12.75 6.95459C12.75 7.08397 12.7555 7.21208 12.7662 7.3387C12.8571 8.41415 12.6948 9.603 11.8617 10.2891L11.7596 10.3732M10.0146 11.8102L5.90901 7.70459H4.5L2.25 3.95459L3.75 2.45459L7.5 4.70459V6.1136L11.7596 10.3732M10.0146 11.8102L11.7596 10.3732M18.375 18.5796L15.75 15.9546M4.86723 19.3296H4.87473V19.3371H4.86723V19.3296Z" stroke="black" stroke-width="1.5" stroke-linecap="round" stroke-linejoin="round"/>
</svg>
